{
	"asset":{
		"generator":"Khronos glTF Blender I/O v3.6.28",
		"version":"2.0"
	},
	"extensionsUsed":[
		"KHR_materials_specular",
		"KHR_materials_ior"
	],
	"scene":0,
	"scenes":[
		{
			"name":"Scene",
			"nodes":[
				0,
				1,
				2,
				3,
				4,
				5
			]
		}
	],
	"nodes":[
		{
			"mesh":0,
			"name":"bottom",
			"scale":[
				1000,
				1,
				1000
			],
			"translation":[
				-283.05999755859375,
				-0.019999999552965164,
				297.1390075683594
			]
		},
		{
			"mesh":1,
			"name":"wall_1",
			"scale":[
				1000,
				1,
				1000
			],
			"translation":[
				-283.05999755859375,
				6,
				297.1390075683594
			]
		},
		{
			"mesh":2,
			"name":"wall_2",
			"scale":[
				1000,
				1,
				1000
			],
			"translation":[
				-283.05999755859375,
				6,
				297.1390075683594
			]
		},
		{
			"mesh":3,
			"name":"wall_3",
			"scale":[
				1000,
				1,
				1000
			],
			"translation":[
				-283.05999755859375,
				6,
				297.1390075683594
			]
		},
		{
			"mesh":4,
			"name":"wall_4",
			"scale":[
				1000,
				1,
				1000
			],
			"translation":[
				-283.05999755859375,
				6,
				297.1390075683594
			]
		},
		{
			"mesh":5,
			"name":"wall_5",
			"scale":[
				1000,
				1,
				1000
			],
			"translation":[
				-283.05999755859375,
				6,
				297.1390075683594
			]
		}
	],
	"materials":[
		{
			"doubleSided":true,
			"extensions":{
				"KHR_materials_specular":{
					"specularColorFactor":[
						0.6357987704412495,
						0.6357987704412495,
						0.6357987704412495
					]
				},
				"KHR_materials_ior":{
					"ior":1.4500000476837158
				}
			},
			"name":"bottom",
			"pbrMetallicRoughness":{
				"baseColorFactor":[
					0.20791643857955933,
					0.20791643857955933,
					0.20791643857955933,
					1
				],
				"metallicFactor":0.4299516975879669,
				"roughnessFactor":0.2971014380455017
			}
		},
		{
			"doubleSided":true,
			"name":"wall",
			"pbrMetallicRoughness":{
				"baseColorFactor":[
					0.800000011920929,
					0.800000011920929,
					0.800000011920929,
					1
				],
				"metallicFactor":0,
				"roughnessFactor":0.9202898740768433
			}
		}
	],
	"meshes":[
		{
			"name":"Curve",
			"primitives":[
				{
					"attributes":{
						"POSITION":0,
						"NORMAL":1,
						"TEXCOORD_0":2
					},
					"indices":3,
					"material":0
				}
			]
		},
		{
			"name":"Curve.002",
			"primitives":[
				{
					"attributes":{
						"POSITION":4,
						"NORMAL":5,
						"TEXCOORD_0":6
					},
					"indices":7,
					"material":1
				}
			]
		},
		{
			"name":"Curve.003",
			"primitives":[
				{
					"attributes":{
						"POSITION":8,
						"NORMAL":9,
						"TEXCOORD_0":10
					},
					"indices":11,
					"material":1
				}
			]
		},
		{
			"name":"Curve.020",
			"primitives":[
				{
					"attributes":{
						"POSITION":12,
						"NORMAL":13,
						"TEXCOORD_0":14
					},
					"indices":15,
					"material":1
				}
			]
		},
		{
			"name":"Curve.023",
			"primitives":[
				{
					"attributes":{
						"POSITION":16,
						"NORMAL":17,
						"TEXCOORD_0":18
					},
					"indices":19,
					"material":1
				}
			]
		},
		{
			"name":"Curve.024",
			"primitives":[
				{
					"attributes":{
						"POSITION":20,
						"NORMAL":21,
						"TEXCOORD_0":22
					},
					"indices":23,
					"material":1
				}
			]
		}
	],
	"accessors":[
		{
			"bufferView":0,
			"componentType":5126,
			"count":148,
			"max":[
				0.523730456829071,
				0.019999999552965164,
				-0.12387192249298096
			],
			"min":[
				0.05534490942955017,
				-0.019999999552965164,
				-0.46797627210617065
			],
			"type":"VEC3"
		},
		{
			"bufferView":1,
			"componentType":5126,
			"count":148,
			"type":"VEC3"
		},
		{
			"bufferView":2,
			"componentType":5126,
			"count":148,
			"type":"VEC2"
		},
		{
			"bufferView":3,
			"componentType":5123,
			"count":408,
			"type":"SCALAR"
		},
		{
			"bufferView":4,
			"componentType":5126,
			"count":178,
			"max":[
				0.3754196763038635,
				6,
				-0.29021018743515015
			],
			"min":[
				0.05534490942955017,
				-6,
				-0.4641669988632202
			],
			"type":"VEC3"
		},
		{
			"bufferView":5,
			"componentType":5126,
			"count":178,
			"type":"VEC3"
		},
		{
			"bufferView":6,
			"componentType":5126,
			"count":178,
			"type":"VEC2"
		},
		{
			"bufferView":7,
			"componentType":5123,
			"count":516,
			"type":"SCALAR"
		},
		{
			"bufferView":8,
			"componentType":5126,
			"count":26,
			"max":[
				0.11413300037384033,
				6,
				-0.36080873012542725
			],
			"min":[
				0.06750893592834473,
				-6,
				-0.37725913524627686
			],
			"type":"VEC3"
		},
		{
			"bufferView":9,
			"componentType":5126,
			"count":26,
			"type":"VEC3"
		},
		{
			"bufferView":10,
			"componentType":5126,
			"count":26,
			"type":"VEC2"
		},
		{
			"bufferView":11,
			"componentType":5123,
			"count":60,
			"type":"SCALAR"
		},
		{
			"bufferView":12,
			"componentType":5126,
			"count":1135,
			"max":[
				0.522842288017273,
				6,
				-0.18750087916851044
			],
			"min":[
				0.06542044132947922,
				-6,
				-0.46798574924468994
			],
			"type":"VEC3"
		},
		{
			"bufferView":13,
			"componentType":5126,
			"count":1135,
			"type":"VEC3"
		},
		{
			"bufferView":14,
			"componentType":5126,
			"count":1135,
			"type":"VEC2"
		},
		{
			"bufferView":15,
			"componentType":5123,
			"count":3138,
			"type":"SCALAR"
		},
		{
			"bufferView":16,
			"componentType":5126,
			"count":18,
			"max":[
				0.40524858236312866,
				6,
				-0.3508578836917877
			],
			"min":[
				0.3987438976764679,
				-6,
				-0.450210303068161
			],
			"type":"VEC3"
		},
		{
			"bufferView":17,
			"componentType":5126,
			"count":18,
			"type":"VEC3"
		},
		{
			"bufferView":18,
			"componentType":5126,
			"count":18,
			"type":"VEC2"
		},
		{
			"bufferView":19,
			"componentType":5123,
			"count":36,
			"type":"SCALAR"
		},
		{
			"bufferView":20,
			"componentType":5126,
			"count":176,
			"max":[
				0.339717835187912,
				6,
				-0.1225457489490509
			],
			"min":[
				0.06530755758285522,
				-6,
				-0.24921110272407532
			],
			"type":"VEC3"
		},
		{
			"bufferView":21,
			"componentType":5126,
			"count":176,
			"type":"VEC3"
		},
		{
			"bufferView":22,
			"componentType":5126,
			"count":176,
			"type":"VEC2"
		},
		{
			"bufferView":23,
			"componentType":5123,
			"count":516,
			"type":"SCALAR"
		}
	],
	"bufferViews":[
		{
			"buffer":0,
			"byteLength":1776,
			"byteOffset":0,
			"target":34962
		},
		{
			"buffer":0,
			"byteLength":1776,
			"byteOffset":1776,
			"target":34962
		},
		{
			"buffer":0,
			"byteLength":1184,
			"byteOffset":3552,
			"target":34962
		},
		{
			"buffer":0,
			"byteLength":816,
			"byteOffset":4736,
			"target":34963
		},
		{
			"buffer":0,
			"byteLength":2136,
			"byteOffset":5552,
			"target":34962
		},
		{
			"buffer":0,
			"byteLength":2136,
			"byteOffset":7688,
			"target":34962
		},
		{
			"buffer":0,
			"byteLength":1424,
			"byteOffset":9824,
			"target":34962
		},
		{
			"buffer":0,
			"byteLength":1032,
			"byteOffset":11248,
			"target":34963
		},
		{
			"buffer":0,
			"byteLength":312,
			"byteOffset":12280,
			"target":34962
		},
		{
			"buffer":0,
			"byteLength":312,
			"byteOffset":12592,
			"target":34962
		},
		{
			"buffer":0,
			"byteLength":208,
			"byteOffset":12904,
			"target":34962
		},
		{
			"buffer":0,
			"byteLength":120,
			"byteOffset":13112,
			"target":34963
		},
		{
			"buffer":0,
			"byteLength":13620,
			"byteOffset":13232,
			"target":34962
		},
		{
			"buffer":0,
			"byteLength":13620,
			"byteOffset":26852,
			"target":34962
		},
		{
			"buffer":0,
			"byteLength":9080,
			"byteOffset":40472,
			"target":34962
		},
		{
			"buffer":0,
			"byteLength":6276,
			"byteOffset":49552,
			"target":34963
		},
		{
			"buffer":0,
			"byteLength":216,
			"byteOffset":55828,
			"target":34962
		},
		{
			"buffer":0,
			"byteLength":216,
			"byteOffset":56044,
			"target":34962
		},
		{
			"buffer":0,
			"byteLength":144,
			"byteOffset":56260,
			"target":34962
		},
		{
			"buffer":0,
			"byteLength":72,
			"byteOffset":56404,
			"target":34963
		},
		{
			"buffer":0,
			"byteLength":2112,
			"byteOffset":56476,
			"target":34962
		},
		{
			"buffer":0,
			"byteLength":2112,
			"byteOffset":58588,
			"target":34962
		},
		{
			"buffer":0,
			"byteLength":1408,
			"byteOffset":60700,
			"target":34962
		},
		{
			"buffer":0,
			"byteLength":1032,
			"byteOffset":62108,
			"target":34963
		}
	],
	"buffers":[
		{
			"byteLength":63140,
			"uri":"data:application/octet-stream;base64,"
		}
	]
}
