<svg width="32" height="32" viewBox="0 0 32 32" fill="none" xmlns="http://www.w3.org/2000/svg">
<mask id="mask0_205_6833" style="mask-type:alpha" maskUnits="userSpaceOnUse" x="0" y="0" width="32" height="32">
<rect width="32" height="32" fill="#D9D9D9"/>
</mask>
<g mask="url(#mask0_205_6833)">
<path d="M10.5455 25C9.63636 25 8.86364 24.6921 8.22727 24.0764C7.59091 23.4606 7.27273 22.713 7.27273 21.8333H6.18182C5.58182 21.8333 5.06818 21.6266 4.64091 21.2132C4.21364 20.7998 4 20.3028 4 19.7222V14.4444H16V10.2222C16 9.64167 16.2136 9.14468 16.6409 8.73125C17.0682 8.31782 17.5818 8.11111 18.1818 8.11111H20.3636V7.05556C20.3636 6.75648 20.4682 6.50579 20.6773 6.30347C20.8864 6.10116 21.1455 6 21.4545 6H22.5455C22.8545 6 23.1136 6.10116 23.3227 6.30347C23.5318 6.50579 23.6364 6.75648 23.6364 7.05556V8.11111H24.2364C24.7091 8.11111 25.1364 8.24306 25.5182 8.50694C25.9 8.77083 26.1636 9.12269 26.3091 9.5625L27.8909 14.1014C27.9273 14.2069 27.9545 14.3169 27.9727 14.4313C27.9909 14.5456 28 14.6644 28 14.7875V21.8333H24.7273C24.7273 22.713 24.4091 23.4606 23.7727 24.0764C23.1364 24.6921 22.3636 25 21.4545 25C20.5455 25 19.7727 24.6921 19.1364 24.0764C18.5 23.4606 18.1818 22.713 18.1818 21.8333H13.8182C13.8182 22.713 13.5 23.4606 12.8636 24.0764C12.2273 24.6921 11.4545 25 10.5455 25ZM10.5455 22.8889C10.8545 22.8889 11.1136 22.7877 11.3227 22.5854C11.5318 22.3831 11.6364 22.1324 11.6364 21.8333C11.6364 21.5343 11.5318 21.2836 11.3227 21.0813C11.1136 20.8789 10.8545 20.7778 10.5455 20.7778C10.2364 20.7778 9.97727 20.8789 9.76818 21.0813C9.55909 21.2836 9.45455 21.5343 9.45455 21.8333C9.45455 22.1324 9.55909 22.3831 9.76818 22.5854C9.97727 22.7877 10.2364 22.8889 10.5455 22.8889ZM21.4545 22.8889C21.7636 22.8889 22.0227 22.7877 22.2318 22.5854C22.4409 22.3831 22.5455 22.1324 22.5455 21.8333C22.5455 21.5343 22.4409 21.2836 22.2318 21.0813C22.0227 20.8789 21.7636 20.7778 21.4545 20.7778C21.1455 20.7778 20.8864 20.8789 20.6773 21.0813C20.4682 21.2836 20.3636 21.5343 20.3636 21.8333C20.3636 22.1324 20.4682 22.3831 20.6773 22.5854C20.8864 22.7877 21.1455 22.8889 21.4545 22.8889ZM18.1818 14.4444H25.7091L24.2364 10.2222H18.1818V14.4444ZM4 13.3889V11.8056H5.09091V9.69444H4V8.11111H14.9091V9.69444H13.8182V11.8056H14.9091V13.3889H4ZM6.72727 11.8056H8.63636V9.69444H6.72727V11.8056ZM10.2727 11.8056H12.1818V9.69444H10.2727V11.8056Z" fill="white"/>
</g>
</svg>
