<svg width="280" height="108" viewBox="0 0 280 108" fill="none" xmlns="http://www.w3.org/2000/svg">
<path d="M250.184 106.557C248.284 106.557 246.584 106.357 245.084 105.657C242.584 104.557 241.284 101.857 241.884 99.1568C242.384 97.0568 243.184 95.0568 244.884 93.6568C246.484 92.2568 248.284 91.2568 250.484 91.2568C251.084 91.2568 251.584 90.9568 252.084 90.7568C253.484 90.2568 254.784 89.5568 256.384 89.4568C257.184 89.4568 257.884 88.6568 257.784 87.9568C257.784 87.1568 256.984 86.8568 256.384 86.6568C254.684 86.1568 252.984 86.6568 251.184 86.7568C250.184 86.7568 249.084 86.9568 248.084 86.9568C246.284 86.9568 244.484 86.9568 242.684 87.2568C242.284 87.2568 241.884 87.2568 241.584 86.7568C241.384 86.3568 241.384 86.0568 241.584 85.5568C242.184 84.0568 243.384 83.3568 244.884 82.9568C247.584 82.3568 250.384 81.9568 253.184 81.7568C255.684 81.5568 258.284 81.5568 260.484 82.9568C262.084 83.9568 263.584 85.1568 263.784 87.1568C263.984 88.3568 263.484 89.5568 262.784 90.5568C261.284 92.4568 259.484 93.9568 257.484 95.2568C256.284 96.0568 254.784 96.0568 253.384 95.8568C252.284 95.6568 251.284 95.6568 250.284 96.1568C249.984 96.2568 249.784 96.4568 249.484 96.4568C248.384 96.4568 248.084 97.1568 247.884 98.0568C247.784 98.6568 247.684 99.2568 247.684 99.9568C247.684 101.357 248.884 101.657 249.984 101.457C252.684 101.157 255.084 99.8568 257.384 98.5568C257.884 98.2568 258.384 98.0568 258.984 97.9568C259.784 97.9568 259.984 98.2568 259.884 98.9568C259.684 101.057 258.484 102.357 256.684 103.357C256.084 103.657 255.484 104.057 254.984 104.557C253.484 105.757 251.684 106.257 249.984 106.157L250.184 106.557Z" fill="#007A9F"/>
<path d="M206.684 94.457C207.084 92.757 207.284 90.857 207.484 88.957C207.784 86.457 208.584 84.057 208.884 81.557C209.084 80.257 209.584 79.057 210.084 77.857C210.984 75.357 211.984 72.957 212.984 70.457C213.984 67.957 215.284 65.657 217.084 63.757C217.484 63.357 218.084 63.157 218.584 62.957C219.184 62.757 219.684 63.357 219.584 64.157C219.284 66.157 219.184 68.157 218.584 70.057C217.684 72.957 216.984 75.857 216.084 78.757C215.984 79.257 216.084 79.757 216.484 80.057C218.384 81.357 219.684 83.057 220.884 84.957C222.284 86.957 223.784 89.057 225.484 90.857C226.084 91.557 226.784 92.057 227.684 92.257C228.484 92.457 228.484 92.657 227.984 93.357C227.384 94.357 226.484 94.957 225.484 95.357C224.984 95.557 224.584 95.457 224.084 95.357C220.884 94.057 218.384 91.857 216.084 89.457C215.684 89.057 215.384 88.557 214.984 88.157C214.484 87.657 214.084 87.757 213.984 88.457C213.784 89.457 213.584 90.557 213.384 91.557C213.084 92.757 212.984 94.057 212.084 95.157C211.284 96.157 209.284 96.757 208.084 96.357C207.284 96.057 206.784 95.357 206.884 94.357L206.684 94.457Z" fill="#007A9F"/>
<path d="M144.784 71.8569C144.584 74.1569 145.384 76.4569 145.184 78.8569C145.184 79.2569 145.384 79.5569 145.884 79.5569C146.584 79.5569 147.284 79.5569 147.984 79.5569C149.284 79.5569 149.584 79.2569 149.484 78.0569C149.484 76.0569 149.784 74.2569 150.484 72.3569C150.784 71.5569 151.384 70.8569 152.184 70.4569C152.984 70.0569 153.584 70.1569 153.984 70.9569C154.184 71.2569 154.284 71.5569 154.284 71.9569C154.284 73.7569 154.784 75.4569 154.484 77.2569C154.384 77.9569 154.484 78.7569 154.484 79.4569C154.484 80.2569 154.284 80.9569 154.184 81.7569C153.884 83.2569 153.784 84.7569 153.884 86.3569C153.984 87.5569 153.684 88.7569 153.184 89.9569C151.984 93.0569 150.184 95.7569 147.684 97.9569C146.584 98.8569 145.384 99.5569 143.884 99.6569C142.384 99.8569 140.984 98.5569 140.784 96.8569C140.584 95.8569 140.684 94.8569 140.584 93.8569C140.484 91.2569 140.584 88.6569 140.184 86.0569C139.784 82.6569 140.184 79.1569 140.184 75.7569C140.184 73.5569 140.484 71.3569 141.584 69.4569C141.884 68.8569 142.284 68.4569 142.884 68.1569C143.684 67.7569 144.384 68.1569 144.584 68.9569C144.884 69.9569 144.684 70.9569 144.784 71.9569V71.8569ZM145.884 91.4569C145.884 92.3569 145.884 93.0569 145.884 93.6569C145.884 94.5569 146.184 94.7569 146.884 94.2569C148.284 93.4569 149.384 92.2569 150.084 90.8569C150.284 90.5569 150.284 90.2569 150.084 90.0569C149.384 88.1569 149.484 86.0569 149.284 84.0569C149.284 83.3569 148.984 83.2569 148.484 83.5569C147.884 83.8569 147.184 84.1569 146.484 84.2569C145.784 84.4569 145.384 84.7569 145.484 85.5569C145.484 87.5569 145.984 89.5569 145.884 91.3569V91.4569Z" fill="#007A9F"/>
<path d="M253.184 81.2568C252.284 81.3568 251.884 80.9568 251.584 80.1568C250.984 78.6568 250.184 77.2568 249.284 75.9568C248.384 74.5568 248.284 74.1568 246.484 74.5568C245.584 74.7568 243.284 74.5568 242.184 74.5568C241.784 74.5568 240.784 74.3568 239.984 73.9568C238.884 73.4568 239.084 70.5568 239.984 70.0568C241.084 68.9568 241.284 69.5568 243.784 69.6568C245.984 70.0568 248.384 70.0568 250.284 69.7568C252.884 69.4568 255.584 69.5568 258.184 69.0568C259.384 68.8568 261.784 68.2568 263.184 68.1568C267.384 67.1568 268.984 66.1568 272.184 64.3568C274.084 63.2568 275.884 62.1568 277.584 60.8568C277.984 60.5568 278.284 60.4568 278.784 60.4568C279.184 60.4568 279.484 60.6568 279.484 61.0568C279.484 62.1568 279.484 63.1568 278.884 64.1568C278.284 65.0568 277.784 65.9568 277.184 66.8568C276.384 67.9568 275.184 68.5568 274.084 69.3568C271.384 71.1568 267.384 72.2568 264.284 72.8568C262.184 73.2568 260.884 73.4568 258.684 73.4568C257.884 73.4568 257.084 73.4568 256.284 73.5568C255.584 73.5568 255.384 73.9568 255.784 74.5568C257.084 76.3568 256.484 79.8568 254.384 80.9568C253.984 81.1568 253.584 81.3568 253.084 81.2568H253.184Z" fill="#007A9F"/>
<path d="M238.284 61.4568C238.084 62.6568 237.984 64.1568 237.684 65.5568C237.484 66.3568 237.684 67.0568 237.684 67.8568C237.384 70.8568 237.484 73.8568 237.684 76.8568C237.684 78.6568 237.884 80.4568 237.984 82.2568C238.184 84.7568 237.984 87.2568 238.784 89.6568C238.884 89.9568 238.784 90.1568 238.584 90.4568C238.084 91.0568 237.384 91.4568 236.784 91.8568C236.384 92.1568 235.884 91.9568 235.684 91.5568C235.184 90.7568 234.784 89.9568 234.484 89.0568C233.784 87.0568 233.284 84.9568 232.984 82.9568C232.784 81.6568 232.484 80.2568 232.384 78.9568C232.384 78.3568 231.984 78.2568 231.484 78.3568C229.984 78.8568 228.684 79.7568 227.284 80.3568C226.384 80.7568 225.584 81.0568 224.684 81.1568C223.984 81.1568 223.384 81.6568 222.684 81.1568C221.884 80.6568 220.984 80.1568 220.284 79.4568C219.584 78.7568 220.184 78.0568 220.284 77.3568C220.384 76.7568 220.884 76.5568 221.484 76.6568C221.984 76.6568 222.384 76.5568 222.784 76.2568C224.184 75.4568 225.684 75.4568 227.184 75.0568C228.584 74.7568 229.984 74.4568 231.384 74.4568C231.984 74.4568 231.984 74.0568 231.984 73.6568C231.984 70.6568 232.484 67.6568 233.584 64.8568C234.184 63.2568 234.984 61.8568 236.284 60.6568C236.384 60.5568 236.484 60.4568 236.584 60.3568C237.084 60.1568 237.484 59.6568 238.084 59.9568C238.684 60.2568 238.484 60.7568 238.484 61.4568H238.284Z" fill="#007A9F"/>
<path d="M174.484 90.5569C174.484 83.9569 175.684 77.5569 178.284 71.4569C178.684 70.4569 179.184 69.4569 179.884 68.4569C180.684 67.2569 182.484 67.1569 182.884 68.2569C183.184 68.9569 182.984 69.8569 182.884 70.5569C182.684 73.3569 181.684 75.9569 181.184 78.6569C181.084 79.2569 181.184 79.7569 181.484 80.2569C182.984 81.9569 184.184 83.9569 185.784 85.5569C186.684 86.4569 187.384 87.3569 188.484 87.8569C188.784 87.9569 188.984 88.0569 189.284 88.1569C190.284 88.2569 190.484 88.8569 189.884 89.5569C188.284 91.4569 186.384 92.0569 183.884 90.4569C182.684 89.7569 181.784 88.7569 180.684 87.9569C180.184 87.5569 179.984 87.5569 179.884 88.2569C179.684 89.8569 179.684 91.3569 178.984 92.8569C178.484 93.8569 177.484 94.4569 176.784 95.2569C176.484 95.6569 175.884 95.2569 175.584 94.8569C174.784 93.7569 174.684 92.4569 174.484 91.1569C174.484 90.8569 174.484 90.6569 174.484 90.3569V90.5569Z" fill="#007A9F"/>
<path d="M161.984 66.157C163.384 66.257 164.784 65.857 166.284 65.957C167.184 65.957 167.084 65.157 167.084 64.657C167.084 63.457 167.184 62.257 167.884 61.157C168.684 59.757 170.184 59.257 171.384 60.957C171.784 61.557 172.084 62.157 172.084 62.757C172.084 63.857 172.284 64.957 172.284 66.057C172.284 68.057 172.484 70.057 172.284 72.157C172.084 74.757 171.784 77.257 170.684 79.557C170.384 80.057 170.084 80.557 169.684 80.957C169.084 81.457 168.684 81.257 168.484 80.557C168.284 80.057 168.184 79.557 168.184 79.057C168.084 78.157 167.684 77.857 166.784 78.157C166.084 78.357 165.384 78.657 164.784 78.957C163.784 79.457 162.784 79.557 161.784 79.657C160.384 79.657 158.984 79.957 157.484 79.857C156.184 79.857 155.684 78.957 156.184 77.857C156.784 76.657 157.584 75.857 159.084 75.757C161.384 75.657 163.684 75.257 165.984 74.857C166.184 74.857 166.284 74.857 166.484 74.857C167.684 74.857 167.784 74.557 167.584 73.357C167.484 72.557 167.584 71.657 167.384 70.857C167.184 70.057 167.084 69.957 166.184 70.157C163.684 70.757 161.084 71.057 158.484 70.857C157.684 70.857 156.784 70.657 155.984 70.457C154.684 70.157 154.384 68.757 155.284 67.657C155.884 66.957 156.584 66.257 157.684 66.457C159.084 66.657 160.484 66.157 161.984 66.257V66.157Z" fill="#007A9F"/>
<path d="M161.084 104.957C158.684 104.957 156.984 103.857 156.584 101.957C156.184 99.7568 156.584 97.7568 157.684 95.9568C158.784 94.2568 159.984 92.6568 161.784 91.6568C162.984 90.9568 164.384 90.6568 165.484 89.7568C165.684 89.5568 166.084 89.5568 166.184 89.2568C166.484 88.7568 166.884 88.0568 166.484 87.4568C166.184 86.9568 165.584 87.2568 165.184 87.4568C164.284 87.7568 163.384 87.8568 162.584 88.1568C160.984 88.7568 159.384 88.6568 157.684 88.6568C156.984 88.6568 156.484 88.0568 156.384 87.4568C156.184 86.6568 156.584 85.9568 157.284 85.4568C158.084 84.8568 158.884 84.4568 159.884 84.3568C161.784 84.1568 163.484 83.5568 165.384 83.1568C166.784 82.9568 168.084 82.8568 169.484 83.3568C171.184 84.1568 171.584 84.7568 171.284 86.5568C170.984 88.2568 170.484 90.0568 169.484 91.4568C168.884 92.3568 167.784 93.0568 166.684 93.5568C165.684 93.9568 164.784 94.3568 163.784 94.8568C162.484 95.5568 161.984 96.5568 161.784 97.9568C161.784 98.6568 161.384 99.4568 161.784 100.157C161.984 100.557 162.284 100.757 162.784 100.657C164.884 100.157 166.784 99.3568 168.484 97.9568C168.684 97.8568 168.884 97.6568 169.084 97.5568C169.284 97.4568 169.484 97.4568 169.684 97.5568C169.884 97.7568 169.884 97.9568 169.684 98.1568C168.684 99.5568 167.984 101.157 166.584 102.257C165.884 102.757 165.284 103.357 164.584 103.957C163.484 104.857 162.384 105.157 161.284 105.057L161.084 104.957Z" fill="#007A9F"/>
<path d="M118.884 76.957C118.884 75.157 118.884 73.357 119.384 71.557C119.684 70.357 120.284 69.357 120.984 68.357C121.384 67.857 121.984 67.557 122.584 67.757C123.184 67.957 123.584 68.457 123.584 69.157C123.584 69.957 124.084 70.257 124.784 70.257C127.084 70.257 129.484 70.257 131.784 70.557C132.184 70.557 132.484 70.657 132.884 70.757C133.784 71.057 133.984 71.657 133.484 72.557C133.184 73.257 132.784 73.757 132.084 74.057C131.684 74.257 131.284 74.357 130.784 74.257C130.284 74.057 129.684 74.057 129.084 74.257C127.784 74.557 126.484 74.357 125.184 74.357C123.784 74.357 123.584 74.557 123.584 75.957C123.584 77.157 123.584 78.457 123.584 79.657C123.584 80.357 123.884 80.457 124.484 80.257C125.984 79.757 127.284 78.957 128.784 78.657C129.584 78.457 130.384 78.357 131.184 78.157C131.684 78.157 131.984 78.257 132.384 78.657C132.684 79.057 132.384 79.257 132.184 79.557C131.684 80.657 130.884 81.457 129.584 81.857C128.384 82.157 127.284 82.857 126.184 83.457C124.984 84.057 123.784 84.257 122.484 84.457C120.984 84.657 119.684 83.457 119.284 82.257C118.684 80.457 118.684 78.657 118.784 76.857L118.884 76.957Z" fill="#007A9F"/>
<path d="M190.884 78.4568C190.584 75.1568 191.384 71.9568 192.784 69.0568C193.284 68.0568 193.884 66.9568 194.984 66.4568C195.384 66.2568 195.884 65.9568 196.384 66.3568C196.984 66.7568 197.184 67.4568 197.084 68.0568C196.984 68.5568 197.084 69.0568 196.984 69.5568C196.684 75.1568 196.584 80.6568 196.584 86.2568C196.584 86.9568 196.984 87.7568 196.484 88.5568C195.884 89.3568 194.984 89.7568 194.184 90.1568C193.884 90.2568 193.784 90.0568 193.584 89.8568C192.284 88.5568 191.784 86.8568 191.384 85.1568C190.884 82.9568 190.684 80.7568 190.884 78.4568Z" fill="#007A9F"/>
<path d="M135.184 85.9569C136.084 85.9569 136.884 85.8569 137.784 86.1569C138.384 86.3569 138.684 86.7569 138.284 87.4569C137.884 88.2569 137.384 88.8569 136.784 89.4569C136.384 89.8569 135.984 90.0569 135.284 89.8569C133.684 89.4569 132.184 90.0569 130.684 90.4569C128.684 91.0569 126.684 91.4569 124.684 91.9569C122.084 92.5569 119.284 92.5569 116.684 93.1569C116.184 93.2569 115.584 93.1569 115.284 92.6569C114.984 91.8569 115.084 91.1569 115.584 90.5569C116.484 89.5569 117.684 89.1569 118.884 88.8569C122.684 87.8569 126.584 87.0569 130.484 86.4569C131.984 86.2569 133.584 85.9569 135.184 86.0569V85.9569Z" fill="#007A9F"/>
<path d="M131.384 94.5568C132.884 94.5568 134.184 94.7568 135.084 95.8568C135.584 96.4568 135.684 96.9568 135.684 97.7568C135.584 99.9568 134.784 101.957 133.884 103.857C133.384 104.957 132.684 105.857 132.084 106.857C131.784 107.357 131.284 107.657 130.784 107.457C130.284 107.257 130.084 106.757 130.084 106.157C130.084 104.757 130.784 103.457 131.084 102.057C131.284 101.257 131.684 100.457 131.784 99.5568C131.884 98.5568 131.484 98.0568 130.484 98.1568C128.084 98.4568 125.784 98.9568 123.384 99.5568C122.984 99.6568 122.584 99.8568 122.284 99.5568C121.984 99.1568 121.984 98.5568 122.284 98.0568C122.984 96.6568 124.184 95.8568 125.584 95.4568C127.584 94.8568 129.584 94.6568 131.484 94.4568L131.384 94.5568Z" fill="#007A9F"/>
<path d="M254.584 59.8569C254.884 61.2569 253.884 62.3569 252.984 63.4569C251.984 64.7569 250.784 65.9569 249.384 66.7569C248.384 67.2569 247.384 67.7569 246.284 67.3569C244.984 66.8569 244.284 65.2569 244.584 63.7569C245.084 61.4569 246.284 59.4569 247.684 57.6569C248.284 56.8569 249.384 56.6569 250.384 56.5569C251.784 56.3569 252.784 56.8569 253.884 57.5569C254.684 58.0569 254.684 58.9569 254.584 59.8569ZM248.784 62.3569C248.784 62.8569 248.684 63.3569 249.184 63.6569C249.584 63.8569 249.884 63.6569 250.184 63.5569C250.584 63.2569 250.884 62.8569 251.084 62.4569C251.384 61.8569 250.884 60.8569 250.084 60.5569C249.184 60.2569 249.084 60.9569 248.984 61.5569C248.884 61.8569 248.984 62.1569 248.984 62.4569L248.784 62.3569Z" fill="#007A9F"/>
<path d="M125.284 61.2568C128.584 61.5568 131.884 62.3568 134.884 64.2568C135.484 64.6568 135.584 65.1568 135.384 65.8568C135.184 66.4568 134.784 66.8568 134.384 67.3568C134.084 67.6568 133.684 67.7568 133.284 67.5568C131.584 66.8568 129.884 66.2568 127.984 65.9568C126.884 65.7568 125.784 65.6568 124.684 65.4568C123.984 65.3568 123.184 65.1568 122.784 64.4568C121.984 63.2568 122.984 61.3568 124.484 61.2568C124.684 61.2568 124.984 61.2568 125.384 61.2568H125.284Z" fill="#007A9F"/>
<path d="M34.6841 55.0569C30.3841 54.8569 26.8842 54.8569 23.4842 54.5569C20.2842 54.2569 17.0842 54.1569 13.9842 53.3569C10.4842 52.4569 7.08414 51.3569 4.08414 49.2569C2.28414 48.0569 0.584143 46.5569 0.0841426 44.0569C-0.415857 41.9569 1.38414 39.4569 3.58414 39.2569C4.98414 39.1569 5.78414 40.3569 6.58414 41.3569C7.68414 42.7569 8.68415 44.2569 10.4842 44.9569C11.6842 45.4569 12.9841 45.7569 14.3841 45.8569C15.8841 45.8569 17.3841 46.1569 18.7841 46.4569C20.0841 46.7569 21.3841 46.6569 22.6841 46.8569C25.1841 47.0569 27.7841 47.0569 30.3841 47.0569C32.1841 47.0569 33.8841 46.7569 35.6841 46.6569C38.8841 46.5569 42.1841 46.4569 45.3841 46.0569C45.9841 46.0569 46.5841 45.7569 46.7841 45.0569C47.2841 43.4569 48.5841 42.4569 49.6841 41.2569C52.3841 38.1569 55.0841 35.0569 56.6841 31.2569C56.9841 30.5569 57.6841 29.8569 57.0841 29.2569C56.5841 28.7569 55.7841 29.2569 55.0841 29.5569C52.9841 30.1569 50.8841 31.0569 48.6841 31.4569C47.6841 31.6569 46.6841 31.7569 45.6841 31.4569C43.5841 30.7569 41.3841 30.2569 39.3841 29.1569C36.0841 27.3569 35.1841 24.7569 36.1841 20.6569C36.8841 18.0569 38.0841 15.7569 39.8841 13.8569C40.6841 12.9569 41.5841 12.2569 42.6841 11.8569C44.5841 11.1569 46.2841 12.3569 46.7841 14.4569C47.3841 17.2569 46.9841 19.8569 46.1841 22.5569C46.0841 22.9569 45.8841 23.3569 46.1841 23.7569C46.5841 24.1569 46.9841 23.7569 47.3841 23.7569C49.2841 23.1569 51.0841 22.4569 52.9841 22.0569C55.0841 21.5569 57.2841 20.8569 59.4841 20.7569C60.9841 20.7569 62.5841 20.9569 63.8841 21.8569C65.6841 23.1569 67.3841 24.7569 68.3841 26.7569C69.3841 28.7569 69.0841 30.8569 68.3841 32.9569C67.3841 36.0569 65.3841 38.4569 63.3841 40.8569C63.2841 41.0569 63.0841 41.2569 62.9841 41.4569C62.7841 41.7569 62.3841 42.0569 62.5841 42.3569C62.7841 42.7569 63.3841 42.5569 63.6841 42.4569C65.0841 42.0569 66.4841 41.5569 67.8841 40.9569C69.7841 40.1569 72.2841 41.6569 72.3841 43.7569C72.3841 44.2569 72.5841 45.0569 72.2841 45.1569C71.4841 45.7569 70.9842 46.7569 69.9842 47.0569C68.5842 47.5569 67.2842 48.0569 65.9842 48.6569C63.8842 49.5569 61.5841 50.1569 59.2841 50.7569C56.6841 51.4569 54.1841 52.3569 51.5841 52.7569C49.8841 52.9569 48.0841 53.1569 46.3841 53.4569C44.4841 53.7569 42.4841 54.2569 40.4841 54.3569C38.3842 54.5569 36.2841 54.9569 34.9841 54.8569L34.6841 55.0569Z" fill="#E9537C"/>
<path d="M100.184 8.65695C100.184 12.857 100.584 16.6569 100.984 20.5569C101.284 23.0569 101.684 25.457 101.684 27.957C101.684 28.857 101.884 29.757 101.884 30.657C101.884 31.557 102.284 31.757 103.084 31.457C104.684 30.957 106.284 30.457 107.884 29.857C108.484 29.657 108.684 29.257 108.884 28.757C108.884 28.557 108.884 28.357 108.884 28.157C108.884 24.557 109.284 20.957 109.084 17.357C108.984 16.057 109.084 14.757 108.784 13.357C108.484 12.157 109.684 10.257 110.784 9.85695C111.584 9.55695 112.184 10.0569 112.584 10.5569C114.084 12.0569 114.784 13.957 115.084 15.957C115.384 18.057 115.284 20.257 115.584 22.457C115.884 24.957 115.584 27.457 115.484 29.957C115.384 33.157 115.084 36.357 114.184 39.457C113.684 41.057 112.784 42.157 111.484 42.957C111.084 43.157 110.784 43.457 110.484 43.757C109.684 44.257 108.784 44.557 108.184 43.157C107.684 41.957 107.684 40.657 107.884 39.357C107.984 38.357 108.084 37.457 108.184 36.457C108.184 35.857 108.084 35.457 107.284 35.757C105.784 36.257 104.284 36.7569 102.784 37.0569C102.284 37.0569 101.884 37.557 101.984 38.157C102.184 40.657 101.684 43.157 101.584 45.657C101.484 47.557 101.084 49.457 100.884 51.357C100.884 51.957 100.884 52.4569 100.884 53.0569C100.884 53.8569 100.684 54.557 99.8842 54.957C98.5842 55.457 97.5842 56.457 96.1842 56.757C95.2842 56.957 94.8842 56.657 94.6842 55.957C94.4842 55.457 94.4842 54.857 94.4842 54.257C94.3842 50.757 94.4842 47.257 94.7842 43.857C94.8842 41.357 94.8842 38.857 94.8842 36.457C94.8842 32.857 94.9842 29.257 94.8842 25.657C94.7842 22.657 94.6842 19.657 94.4842 16.657C94.2842 13.557 94.5842 10.5569 94.8842 7.55695C94.9842 5.95695 95.0842 4.35696 95.2842 2.65696C95.3842 1.65696 96.0842 0.856961 96.7842 0.256961C97.4842 -0.243039 98.0842 0.056949 98.6842 0.556949C99.7842 1.55695 99.9842 2.95696 100.284 4.25696C100.684 5.75696 100.484 7.35696 100.484 8.75696L100.184 8.65695Z" fill="#E9537C"/>
<path d="M180.084 29.6569C180.284 31.9569 179.884 34.9569 179.684 37.9569C179.584 39.4569 179.284 40.8569 178.884 42.3569C178.784 42.8569 178.484 43.2569 178.584 43.7569C178.884 45.3569 177.984 46.5569 176.984 47.5569C176.484 48.0569 176.184 48.6569 175.484 48.9569C174.584 49.2569 174.084 48.9569 173.784 48.2569C173.284 47.0569 173.284 45.7569 173.384 44.5569C173.784 41.8569 174.284 39.2569 174.284 36.5569C174.284 36.1569 174.284 35.7569 174.484 35.3569C174.684 34.9569 174.484 34.5569 174.284 34.2569C173.984 33.9569 173.584 34.2569 173.284 34.3569C171.884 34.9569 170.584 35.8569 169.184 36.2569C168.584 36.4569 168.284 36.8569 168.284 37.5569C168.384 38.8569 168.484 40.1569 168.484 41.4569C168.484 43.6569 168.184 45.8569 168.084 48.0569C168.084 49.7569 167.284 51.2569 167.184 52.8569C167.084 54.5569 165.784 54.9569 164.684 55.5569C163.684 56.0569 162.484 56.2569 161.284 56.5569C159.784 56.8569 158.484 55.1569 158.984 53.3569C159.484 51.5569 159.884 49.7569 159.884 48.0569C159.884 45.0569 160.384 42.0569 159.884 38.9569C159.484 36.7569 159.384 34.4569 159.184 32.2569C158.884 28.5569 158.484 24.9569 158.184 21.2569C158.084 19.9569 157.984 18.5569 157.984 17.2569C157.984 15.7569 157.584 14.2569 157.784 12.7569C157.984 11.4569 157.884 10.0569 158.584 8.85689C159.084 7.85689 159.784 7.15688 160.884 7.05688C161.984 7.05688 162.784 7.8569 163.184 8.7569C163.984 10.2569 164.184 11.8569 164.584 13.4569C165.184 16.3569 165.584 19.3569 166.284 22.2569C166.784 24.1569 166.984 26.1569 167.184 28.1569C167.184 28.8569 167.484 29.4569 167.684 30.0569C167.884 30.7569 168.584 30.6569 168.984 30.5569C170.584 30.1569 172.084 29.6569 173.684 29.1569C174.384 28.9569 174.484 28.5569 174.384 27.9569C174.284 25.6569 174.684 23.3569 175.184 21.0569C175.384 19.8569 176.284 19.1569 177.184 18.5569C177.684 18.2569 178.184 18.3569 178.684 18.7569C179.784 19.7569 179.784 21.0569 179.984 22.3569C180.284 24.5569 180.184 26.6569 180.184 29.5569L180.084 29.6569Z" fill="#E9537C"/>
<path d="M135.584 42.857C135.284 39.857 135.384 36.557 135.284 33.257C135.284 32.157 135.284 30.957 135.284 29.857C135.184 26.957 135.284 24.057 135.084 21.257C135.084 19.757 134.684 18.357 134.884 16.857C135.084 15.257 135.584 13.957 136.784 12.957C137.684 12.157 139.384 12.657 140.084 13.957C140.584 14.857 141.084 15.657 141.384 16.657C141.784 17.757 142.184 17.957 143.284 17.557C145.384 16.757 147.584 16.557 149.784 16.857C152.184 17.157 153.284 17.957 153.984 21.057C154.484 23.557 154.284 25.957 154.184 28.457C154.084 32.657 154.184 36.957 154.184 41.157C154.184 42.357 154.084 43.657 153.884 44.857C153.584 46.557 152.184 47.757 151.484 49.357C151.484 49.557 151.084 49.757 151.184 49.957C151.484 51.857 149.784 52.357 148.684 53.057C146.784 54.357 144.784 55.557 142.284 55.857C140.284 56.157 138.384 55.857 136.984 54.057C136.284 53.157 136.084 52.057 136.084 50.957C136.084 48.357 135.384 45.757 135.684 42.857H135.584ZM148.384 25.857C148.384 24.757 148.384 23.857 148.384 22.957C148.384 22.057 147.884 21.757 146.984 21.957C146.084 22.157 145.184 22.657 144.284 22.857C143.484 23.057 143.084 23.557 143.084 24.457C143.084 27.957 143.384 31.457 143.684 34.957C143.984 38.557 143.884 42.157 143.884 45.757C143.884 46.757 143.884 47.657 143.884 48.657C143.884 49.757 144.384 50.057 145.284 49.557C145.884 49.257 146.484 48.957 147.084 48.557C147.384 48.357 147.684 48.157 147.684 47.657C147.584 45.157 148.084 42.657 148.084 40.157C148.084 37.657 147.884 35.157 147.984 32.657C148.084 30.357 148.384 27.957 148.284 25.857H148.384Z" fill="#E9537C"/>
<path d="M218.884 21.1569C218.884 20.8569 218.884 20.5569 218.884 20.1569C218.884 18.7569 218.684 18.6569 217.284 19.0569C213.884 20.2569 210.284 20.6569 206.684 20.5569C205.684 20.5569 204.684 20.3569 203.684 19.9569C201.584 19.1569 201.584 17.2569 203.084 15.8569C203.984 14.9569 205.184 14.8569 206.484 14.9569C208.284 15.2569 210.084 15.1569 211.884 14.9569C213.684 14.8569 215.484 14.5569 217.284 14.4569C218.884 14.4569 219.084 14.0569 219.284 12.5569C219.684 9.75686 219.784 6.75686 221.484 4.35686C222.084 3.55686 222.784 2.75686 223.884 2.95686C224.984 3.15686 225.684 4.15686 225.884 5.45686C226.084 7.15686 226.484 8.85686 226.484 10.4569C226.484 12.6569 226.284 14.9569 226.184 17.1569C226.184 18.2569 225.984 19.3569 226.184 20.4569C226.484 23.2569 226.484 26.0569 225.984 28.8569C225.984 29.0569 225.984 29.2569 225.984 29.3569C226.184 32.6569 223.984 34.2569 221.584 35.7569C220.984 36.1569 220.684 35.7569 220.384 35.2569C219.784 34.1569 219.484 33.0569 219.284 31.8569C219.184 31.0569 219.084 30.3569 219.084 29.5569C219.084 28.8569 218.684 28.5569 218.084 28.8569C216.784 29.2569 215.384 29.7569 214.184 30.2569C211.284 31.4569 208.384 32.3569 205.184 32.2569C203.584 32.2569 202.184 31.6569 200.984 30.8569C199.884 30.1569 199.684 29.0569 200.384 27.8569C201.184 26.5569 202.084 25.6569 203.884 26.0569C205.584 26.4569 207.184 25.7569 208.884 25.4569C211.784 24.9569 214.684 24.0569 217.584 23.4569C218.584 23.2569 219.084 22.7569 218.984 21.6569C218.984 21.3569 218.984 21.0569 218.984 20.7569L218.884 21.1569Z" fill="#E9537C"/>
<path d="M190.284 12.5569C192.584 12.3569 194.784 12.7569 196.784 13.8569C197.684 14.3569 198.384 15.1569 198.784 16.0569C199.184 16.7569 198.784 17.4569 198.484 18.0569C197.284 19.9569 196.484 22.0569 195.484 24.0569C194.584 25.8569 193.384 27.3569 192.184 28.8569C190.984 30.3569 190.484 32.0569 190.184 33.8569C189.984 35.2569 189.984 36.6569 189.984 38.1569C189.984 38.8569 190.184 39.5569 190.384 40.1569C190.684 41.0569 190.984 40.8569 191.484 40.3569C193.384 38.0569 195.484 35.9569 197.984 34.3569C198.084 34.3569 198.184 34.1569 198.384 34.1569C198.784 33.9569 199.184 33.8569 199.484 34.1569C199.884 34.5569 199.484 34.8569 199.284 35.1569C197.584 37.6569 195.784 40.0569 194.084 42.5569C193.784 43.0569 193.484 43.5569 193.184 44.0569C192.084 46.0569 190.384 47.1569 188.084 47.3569C186.684 47.4569 184.484 45.5569 184.384 44.1569C183.984 39.8569 184.284 35.5569 185.984 31.4569C186.684 29.7569 187.784 28.2569 189.184 27.1569C190.484 26.0569 191.384 24.6569 192.184 23.1569C192.784 21.9569 193.484 20.7569 193.884 19.5569C194.184 18.7569 193.884 18.2569 193.184 18.0569C191.384 17.4569 189.484 16.9569 187.484 17.3569C186.284 17.5569 185.084 17.6569 183.884 17.8569C182.984 17.9569 182.184 16.8569 182.384 15.8569C182.784 14.3569 184.584 12.8569 186.284 12.7569C186.884 12.7569 187.484 12.4569 188.184 12.5569C188.784 12.5569 189.484 12.5569 190.084 12.5569H190.284Z" fill="#E9537C"/>
<path d="M219.984 40.2568C221.884 40.2568 223.684 40.2568 225.284 41.4568C226.384 42.2568 227.184 44.2568 226.984 45.5568C226.184 50.0568 223.584 53.5568 220.984 57.1568C220.684 57.5568 220.184 57.6568 219.884 57.6568C218.484 57.6568 217.184 58.2568 215.884 58.5568C215.084 58.7568 214.484 57.5568 214.584 56.4568C214.884 54.4568 216.184 52.8568 217.084 51.1568C217.884 49.7568 218.684 48.3568 219.384 46.8568C219.884 45.8568 219.584 45.4568 218.484 45.4568C216.384 45.4568 214.284 45.8568 212.184 46.0568C210.084 46.2568 207.984 46.5568 205.884 46.9568C204.884 47.1568 203.984 47.2568 202.984 47.5568C202.484 47.7568 201.784 47.7568 201.284 47.2568C200.784 46.6568 200.984 46.1568 201.184 45.5568C201.684 43.6568 203.284 43.1568 204.884 42.7568C208.384 41.7568 211.984 41.1568 215.584 40.7568C217.084 40.5568 218.684 40.2568 220.084 40.3568L219.984 40.2568Z" fill="#E9537C"/>
<path d="M61.9843 10.2569C61.0843 10.2569 60.0843 10.2569 59.1843 9.95688C58.7843 9.85688 58.4843 9.95688 58.0843 9.95688C55.9843 9.95688 53.7843 10.1569 51.6843 9.95688C49.5843 9.75688 47.4843 9.45688 45.4843 8.65688C44.6843 8.35688 43.8843 8.05687 43.0843 7.85687C41.8843 7.55687 40.9843 6.75687 40.8843 5.55687C40.7843 4.35687 41.8843 3.85688 42.6843 3.45688C43.3843 3.05688 44.0843 2.95687 44.8843 2.85687C46.5843 2.65687 48.3843 2.45687 50.0843 2.55687C53.0843 2.65687 56.1843 2.55688 58.9843 3.65688C61.0843 4.55688 62.9843 5.75688 64.7843 7.15688C65.2843 7.55688 65.6843 8.15687 65.4843 8.85687C65.2843 9.45687 64.7843 9.95688 64.0843 10.1569C63.3843 10.4569 62.6843 10.3569 61.8843 10.3569L61.9843 10.2569Z" fill="#E9537C"/>
<path d="M55.2841 64.4569C55.4841 62.5569 56.6841 59.6569 58.7841 57.1569C60.1841 55.4569 61.8841 54.6569 63.9841 54.7569C64.9841 54.7569 65.7841 55.2569 66.4841 55.7569C68.0841 56.8569 69.2841 60.0569 68.6841 61.7569C68.6841 62.0569 68.4841 62.2569 68.2841 62.5569C66.8841 64.2569 65.3841 65.8569 63.6841 67.2569C61.9841 68.6569 59.9841 69.4569 57.7841 69.4569C56.2841 69.4569 55.0841 68.4569 55.2841 64.4569ZM60.9841 63.9569C61.1841 64.1569 60.9841 64.7569 61.3841 65.0569C61.8841 65.3569 62.2841 64.8569 62.5841 64.5569C62.7841 64.3569 62.9841 64.1569 63.1841 63.9569C64.1841 62.9569 64.2841 61.1569 63.4841 60.0569C63.1841 59.6569 62.8841 59.2569 62.4841 59.3569C62.0841 59.3569 61.7841 59.8569 61.6841 60.2569C61.2841 61.3569 61.1841 62.6569 61.0841 63.9569H60.9841Z" fill="#E9537C"/>
<path d="M75.3841 45.3568C75.7841 41.6568 76.6841 38.1568 79.1841 35.1568C81.1841 32.6568 84.8841 33.8568 86.2841 35.7568C87.8841 37.9568 87.7841 40.5568 85.2841 42.5568C84.3841 43.2568 83.4841 44.0568 82.7841 45.0568C81.6841 46.7568 80.3841 48.2568 78.2841 48.7568C77.1841 49.0568 76.4841 48.7568 75.9841 47.8568C75.5841 47.0568 75.2841 46.2568 75.3841 45.3568ZM82.8841 39.7568C82.6841 39.3568 82.6841 38.6568 82.0841 38.5568C81.4841 38.4568 81.3841 39.0568 81.2841 39.4568C80.8841 40.4568 80.7841 41.5568 80.4841 42.6568C80.4841 42.9568 80.5841 43.1568 80.7841 43.3568C80.9841 43.4568 81.1841 43.2568 81.2841 43.0568C81.9841 42.0568 82.6841 41.0568 82.8841 39.7568Z" fill="#E9537C"/>
<path d="M78.5841 18.457C78.8841 14.457 79.9841 10.857 82.9841 7.95697C83.7841 7.25697 84.5841 6.55697 85.7841 6.85697C87.0841 7.15697 87.5841 8.55698 87.1841 10.257C86.6841 12.257 85.8841 14.057 85.0841 15.857C84.4841 17.357 84.0841 18.957 83.6841 20.457C83.3841 21.557 82.7841 22.357 81.9841 23.057C80.9841 23.957 79.4841 23.257 79.0841 21.757C78.7841 20.657 78.4841 19.557 78.5841 18.457Z" fill="#E9537C"/>
<path d="M103.284 56.057C103.484 53.757 104.484 51.457 105.784 49.357C106.684 47.857 107.784 47.057 109.584 47.157C111.184 47.257 113.484 48.9571 114.084 50.4571C114.284 51.0571 114.084 51.457 113.984 51.857C112.784 55.157 110.784 57.657 107.384 58.857C106.684 59.057 105.984 59.157 105.284 59.157C104.284 59.157 103.484 58.2571 103.384 56.9571C103.384 56.7571 103.384 56.457 103.384 56.057H103.284ZM107.984 54.7571C108.184 54.7571 108.384 54.357 108.484 54.357C109.184 53.757 109.284 53.2571 109.484 52.4571C109.484 52.0571 109.184 51.4571 108.484 51.4571C107.784 51.4571 107.784 51.957 107.784 52.357C107.784 52.857 107.784 53.357 107.584 53.857C107.384 54.257 107.684 54.857 107.984 54.857V54.7571Z" fill="#E9537C"/>
<path d="M86.1843 30.7569C85.3843 30.5569 84.1843 30.5569 83.0843 30.5569C80.5843 30.5569 78.0843 31.0569 75.6843 31.6569C74.8843 31.8569 74.1843 31.6569 73.6843 31.0569C73.1843 30.3569 73.3843 29.5569 73.7843 28.9569C74.6843 27.4569 75.8843 26.6569 77.8843 26.9569C78.8843 27.0569 80.0843 26.9569 81.1843 26.7569C83.2843 26.4569 85.3843 26.4569 87.3843 27.2569C88.1843 27.5569 89.0843 28.0569 88.9843 29.1569C88.9843 30.0569 87.7843 30.8569 86.2843 30.8569L86.1843 30.7569Z" fill="#E9537C"/>
<path d="M125.284 37.0568C123.584 37.0568 121.984 35.5568 121.984 33.8568C121.984 32.5568 123.784 30.7568 125.484 30.7568C127.484 30.7568 128.584 32.5568 128.684 34.1568C128.784 35.8568 127.384 37.0568 125.384 37.0568H125.284Z" fill="#E9537C"/>
</svg>
