{
	"asset":{
		"generator":"Khronos glTF Blender I/O v3.6.28",
		"version":"2.0"
	},
	"extensionsUsed":[
		"KHR_materials_specular",
		"KHR_materials_ior"
	],
	"scene":0,
	"scenes":[
		{
			"name":"Scene",
			"nodes":[
				0,
				1,
				2
			]
		}
	],
	"nodes":[
		{
			"mesh":0,
			"name":"bottom",
			"scale":[
				1000,
				1,
				1000
			],
			"translation":[
				-283.05999755859375,
				-0.019999999552965164,
				297.1390075683594
			]
		},
		{
			"mesh":1,
			"name":"wall_1",
			"scale":[
				1000,
				1,
				1000
			],
			"translation":[
				-283.05999755859375,
				6,
				297.1390075683594
			]
		},
		{
			"mesh":2,
			"name":"wall_2",
			"scale":[
				1000,
				1,
				1000
			],
			"translation":[
				-283.05999755859375,
				6,
				297.1390075683594
			]
		}
	],
	"materials":[
		{
			"doubleSided":true,
			"extensions":{
				"KHR_materials_specular":{
					"specularColorFactor":[
						0.6357987704412495,
						0.6357987704412495,
						0.6357987704412495
					]
				},
				"KHR_materials_ior":{
					"ior":1.4500000476837158
				}
			},
			"name":"bottom",
			"pbrMetallicRoughness":{
				"baseColorFactor":[
					0.20791643857955933,
					0.20791643857955933,
					0.20791643857955933,
					1
				],
				"metallicFactor":0.4299516975879669,
				"roughnessFactor":0.2971014380455017
			}
		},
		{
			"doubleSided":true,
			"name":"wall",
			"pbrMetallicRoughness":{
				"baseColorFactor":[
					0.800000011920929,
					0.800000011920929,
					0.800000011920929,
					1
				],
				"metallicFactor":0,
				"roughnessFactor":0.9202898740768433
			}
		}
	],
	"meshes":[
		{
			"name":"Curve.074",
			"primitives":[
				{
					"attributes":{
						"POSITION":0,
						"NORMAL":1,
						"TEXCOORD_0":2
					},
					"indices":3,
					"material":0
				}
			]
		},
		{
			"name":"Curve.076",
			"primitives":[
				{
					"attributes":{
						"POSITION":4,
						"NORMAL":5,
						"TEXCOORD_0":6
					},
					"indices":7,
					"material":1
				}
			]
		},
		{
			"name":"Curve.081",
			"primitives":[
				{
					"attributes":{
						"POSITION":8,
						"NORMAL":9,
						"TEXCOORD_0":10
					},
					"indices":11,
					"material":1
				}
			]
		}
	],
	"accessors":[
		{
			"bufferView":0,
			"componentType":5126,
			"count":136,
			"max":[
				0.5432888865470886,
				0.019999999552965164,
				-0.1084655225276947
			],
			"min":[
				0.03465759754180908,
				-0.019999999552965164,
				-0.46944355964660645
			],
			"type":"VEC3"
		},
		{
			"bufferView":1,
			"componentType":5126,
			"count":136,
			"type":"VEC3"
		},
		{
			"bufferView":2,
			"componentType":5126,
			"count":136,
			"type":"VEC2"
		},
		{
			"bufferView":3,
			"componentType":5123,
			"count":372,
			"type":"SCALAR"
		},
		{
			"bufferView":4,
			"componentType":5126,
			"count":4929,
			"max":[
				0.2524247169494629,
				6,
				-0.1080704927444458
			],
			"min":[
				0.03465759754180908,
				-6,
				-0.4646184742450714
			],
			"type":"VEC3"
		},
		{
			"bufferView":5,
			"componentType":5126,
			"count":4929,
			"type":"VEC3"
		},
		{
			"bufferView":6,
			"componentType":5126,
			"count":4929,
			"type":"VEC2"
		},
		{
			"bufferView":7,
			"componentType":5123,
			"count":14412,
			"type":"SCALAR"
		},
		{
			"bufferView":8,
			"componentType":5126,
			"count":7570,
			"max":[
				0.5432888865470886,
				6,
				-0.1376417577266693
			],
			"min":[
				0.038524121046066284,
				-6,
				-0.46944355964660645
			],
			"type":"VEC3"
		},
		{
			"bufferView":9,
			"componentType":5126,
			"count":7570,
			"type":"VEC3"
		},
		{
			"bufferView":10,
			"componentType":5126,
			"count":7570,
			"type":"VEC2"
		},
		{
			"bufferView":11,
			"componentType":5123,
			"count":21642,
			"type":"SCALAR"
		}
	],
	"bufferViews":[
		{
			"buffer":0,
			"byteLength":1632,
			"byteOffset":0,
			"target":34962
		},
		{
			"buffer":0,
			"byteLength":1632,
			"byteOffset":1632,
			"target":34962
		},
		{
			"buffer":0,
			"byteLength":1088,
			"byteOffset":3264,
			"target":34962
		},
		{
			"buffer":0,
			"byteLength":744,
			"byteOffset":4352,
			"target":34963
		},
		{
			"buffer":0,
			"byteLength":59148,
			"byteOffset":5096,
			"target":34962
		},
		{
			"buffer":0,
			"byteLength":59148,
			"byteOffset":64244,
			"target":34962
		},
		{
			"buffer":0,
			"byteLength":39432,
			"byteOffset":123392,
			"target":34962
		},
		{
			"buffer":0,
			"byteLength":28824,
			"byteOffset":162824,
			"target":34963
		},
		{
			"buffer":0,
			"byteLength":90840,
			"byteOffset":191648,
			"target":34962
		},
		{
			"buffer":0,
			"byteLength":90840,
			"byteOffset":282488,
			"target":34962
		},
		{
			"buffer":0,
			"byteLength":60560,
			"byteOffset":373328,
			"target":34962
		},
		{
			"buffer":0,
			"byteLength":43284,
			"byteOffset":433888,
			"target":34963
		}
	],
	"buffers":[
		{
			"byteLength":477172,
			"uri":"data:application/octet-stream;base64,"
		}
	]
}
