<svg width="870" height="342" viewBox="0 0 870 342" fill="none" xmlns="http://www.w3.org/2000/svg">
<rect width="870" height="342" fill="white"/>
<rect x="31" y="27" width="372" height="288" rx="13" fill="#EDF1F5"/>
<rect x="467" y="27" width="372" height="288" rx="13" fill="#EDF1F5"/>
<path d="M68.2275 52.7539V54.4473H62.3506V59.5273H60.2588V54.4473H54.4482V52.7539H68.2275ZM66.999 45.2168V46.877H62.5996C62.8071 48.3545 64.4756 49.8403 67.5801 50.2139L66.8164 51.874C64.1602 51.5171 62.2593 50.3799 61.3545 48.8193C60.4248 50.3799 58.5405 51.5171 55.9092 51.874L55.1289 50.2139C58.1836 49.8403 59.8687 48.3545 60.1094 46.877H55.6934V45.2168H66.999ZM82.9697 56.0244V57.7676H69.1406V56.0244H72.2285V52.3223C71.0581 51.625 70.3525 50.5542 70.3525 49.2178C70.3525 46.7773 72.7432 45.1504 76.0303 45.1504C79.3008 45.1504 81.708 46.7773 81.7246 49.2178C81.7163 50.521 81.0273 51.5835 79.8984 52.2891V56.0244H82.9697ZM76.0303 46.8271C73.8721 46.8271 72.4443 47.6904 72.4443 49.2178C72.4443 50.6953 73.8721 51.6084 76.0303 51.6084C78.1719 51.6084 79.6162 50.6953 79.6328 49.2178C79.6162 47.6904 78.1719 46.8271 76.0303 46.8271ZM74.3203 56.0244H77.7568V53.0859C77.2173 53.1938 76.6362 53.252 76.0303 53.252C75.4243 53.252 74.8516 53.2021 74.3203 53.0859V56.0244ZM96.0186 45.084V46.2627C96.0186 47.375 96.0186 48.6533 95.7197 50.2803H97.6621V51.9736H91.7852V54.1484H96.0352V59.5273H93.9102V55.8086H85.2275V54.1484H89.6602V51.9736H83.833V50.2803H93.5781C93.8604 48.8691 93.9019 47.7568 93.9102 46.7607H85.5264V45.084H96.0186ZM107.723 44.8682C110.014 44.8682 111.757 46.2959 111.757 48.3213C111.757 50.3135 110.014 51.7578 107.723 51.7578C105.382 51.7578 103.655 50.3135 103.655 48.3213C103.655 46.2959 105.382 44.8682 107.723 44.8682ZM107.723 46.5947C106.561 46.5947 105.697 47.2256 105.714 48.3213C105.697 49.4004 106.561 50.0479 107.723 50.0479C108.868 50.0479 109.715 49.4004 109.715 48.3213C109.715 47.2256 108.868 46.5947 107.723 46.5947ZM116.073 44.4199V51.9902H113.948V44.4199H116.073ZM116.073 52.6211V56.7217H108.038V57.7012H116.488V59.3613H105.963V55.1777H113.965V54.248H105.93V52.6211H116.073ZM130.102 44.4365V48.6865H132.144V50.4297H130.102V55.5596H127.977V44.4365H130.102ZM130.649 57.5684V59.2617H120.307V54.4141H122.415V57.5684H130.649ZM120.672 45.499V47.6904H123.76V45.499H125.885V53.1523H118.563V45.499H120.672ZM120.672 51.4922H123.76V49.3174H120.672V51.4922ZM145.458 44.4365V55.2939H143.333V44.4365H145.458ZM145.856 57.5684V59.2617H135.331V54.1982H137.473V57.5684H145.856ZM137.174 45.3994C139.498 45.3994 141.308 46.9932 141.308 49.2012C141.308 51.459 139.498 53.0361 137.174 53.0361C134.85 53.0361 133.04 51.459 133.04 49.2012C133.04 46.9932 134.85 45.3994 137.174 45.3994ZM137.174 47.2422C135.995 47.2256 135.099 47.9727 135.115 49.2012C135.099 50.4629 135.995 51.1934 137.174 51.1934C138.319 51.1934 139.216 50.4629 139.216 49.2012C139.216 47.9727 138.319 47.2256 137.174 47.2422ZM165.048 44.4365V52.9531H162.923V44.4365H165.048ZM165.048 53.6504V59.3613H154.921V53.6504H165.048ZM157.013 55.3271V57.668H162.973V55.3271H157.013ZM158.191 46.4453C158.175 48.2881 159.287 50.0312 161.728 50.7949L160.698 52.4053C158.972 51.8989 157.776 50.853 157.096 49.5C156.407 50.9692 155.178 52.1313 153.377 52.6875L152.348 51.0273C154.871 50.2637 155.983 48.3379 155.983 46.4453V44.9844H158.191V46.4453ZM180.305 44.4199V59.5273H178.263V44.4199H180.305ZM177.25 44.7188V58.8135H175.274V53.3184H173.797V51.5918H175.274V50.3135H173.797V48.5869H175.274V44.7188H177.25ZM174.129 46.0967V47.8066H173.166V54.2148C173.581 54.1816 173.979 54.1401 174.345 54.0986L174.494 55.6758C172.187 56.0742 169.099 56.1406 167.156 56.1406L166.924 54.3975L168.186 54.3809V47.8066H167.206V46.0967H174.129ZM170.062 54.3643L171.257 54.3145V47.8066H170.062V54.3643ZM195.611 56.0244V57.7178H181.782V56.0244H187.56V52.6045H189.668V56.0244H195.611ZM189.734 46.3623C189.734 48.5205 191.677 50.7949 195.13 51.3262L194.233 53.0859C191.577 52.6045 189.602 51.1851 188.605 49.3008C187.609 51.1768 185.65 52.6128 183.011 53.0859L182.114 51.3262C185.534 50.7949 187.46 48.5039 187.477 46.3623V45.2832H189.734V46.3623ZM201.306 47.1094C201.306 48.7363 202.152 50.3633 204.161 51.127L203.032 52.7373C201.746 52.2476 200.857 51.3511 200.31 50.2305C199.762 51.542 198.815 52.6377 197.404 53.2188L196.259 51.5918C198.384 50.6621 199.247 48.8027 199.247 47.1094V45.333H201.306V47.1094ZM209.457 44.4365V53.667H207.448V49.832H206.187V53.2021H204.211V44.7021H206.187V48.1221H207.448V44.4365H209.457ZM204.294 53.8828C207.481 53.8828 209.523 54.9453 209.54 56.7051C209.523 58.4648 207.481 59.5273 204.294 59.5273C201.09 59.5273 199.064 58.4648 199.064 56.7051C199.064 54.9453 201.09 53.8828 204.294 53.8828ZM204.294 55.46C202.318 55.46 201.173 55.8916 201.189 56.7051C201.173 57.5186 202.318 57.9336 204.294 57.9336C206.253 57.9336 207.398 57.5186 207.398 56.7051C207.398 55.8916 206.253 55.46 204.294 55.46ZM219.152 44.8184C219.152 46.2959 220.896 47.7734 224.266 48.1387L223.568 49.7324C220.937 49.4419 219.02 48.4541 218.057 47.0596C217.069 48.4541 215.16 49.4419 212.562 49.7324L211.848 48.1387C215.234 47.7734 216.961 46.2959 216.978 44.8184V44.5029H219.152V44.8184ZM224.946 50.3633V52.0234H219.103V53.0195H223.27V56.9209H214.853V57.834H223.668V59.4277H212.777V55.4268H221.178V54.6299H212.761V53.0195H216.978V52.0234H211.167V50.3633H224.946ZM236.634 47.8398C236.634 50.6123 237.896 53.4014 240.452 54.4805L239.207 56.1738C237.48 55.3936 236.285 53.8911 235.604 52.0234C234.916 54.0571 233.679 55.7007 231.836 56.5391L230.558 54.7793C233.197 53.667 234.476 50.7783 234.492 47.8398V45.582H236.634V47.8398ZM243.407 44.4199V59.5605H241.266V44.4199H243.407ZM258.432 44.4199V53.8994H256.423V49.8818H255.211V53.4014H253.235V44.7021H255.211V48.1553H256.423V44.4199H258.432ZM252.787 45.9805V47.624H245.366V45.9805H248.039V44.5527H250.147V45.9805H252.787ZM249.102 48.1221C251.027 48.1221 252.389 49.1846 252.405 50.7617C252.389 52.3223 251.027 53.3848 249.102 53.3848C247.209 53.3848 245.831 52.3223 245.831 50.7617C245.831 49.1846 247.209 48.1221 249.102 48.1221ZM249.102 49.6494C248.271 49.6494 247.724 50.0645 247.724 50.7617C247.724 51.459 248.271 51.8906 249.102 51.874C249.932 51.8906 250.479 51.459 250.496 50.7617C250.479 50.0645 249.932 49.6494 249.102 49.6494ZM253.269 54.0322C256.539 54.0322 258.498 55.0283 258.515 56.7881C258.498 58.5312 256.539 59.5273 253.269 59.5273C250.015 59.5273 248.039 58.5312 248.039 56.7881C248.039 55.0283 250.015 54.0322 253.269 54.0322ZM253.269 55.626C251.227 55.626 250.147 55.9912 250.164 56.7881C250.147 57.5518 251.227 57.9336 253.269 57.9336C255.327 57.9336 256.373 57.5518 256.373 56.7881C256.373 55.9912 255.327 55.626 253.269 55.626ZM273.954 51.1104V52.6543H270.551V53.5342H272.294V57.1035H263.827V57.9834H272.742V59.4277H261.719V55.7588H270.202V54.9951H261.702V53.5342H263.545V52.6543H260.125V51.1104H273.954ZM272.277 44.6855V48.2217H263.96V48.9688H272.543V50.4131H261.852V46.877H270.152V46.1133H261.818V44.6855H272.277ZM265.653 53.5342H268.426V52.6543H265.653V53.5342Z" fill="#173E99"/>
<path d="M504.228 52.7539V54.4473H498.351V59.5273H496.259V54.4473H490.448V52.7539H504.228ZM502.999 45.2168V46.877H498.6C498.807 48.3545 500.476 49.8403 503.58 50.2139L502.816 51.874C500.16 51.5171 498.259 50.3799 497.354 48.8193C496.425 50.3799 494.541 51.5171 491.909 51.874L491.129 50.2139C494.184 49.8403 495.869 48.3545 496.109 46.877H491.693V45.2168H502.999ZM518.97 56.0244V57.7676H505.141V56.0244H508.229V52.3223C507.058 51.625 506.353 50.5542 506.353 49.2178C506.353 46.7773 508.743 45.1504 512.03 45.1504C515.301 45.1504 517.708 46.7773 517.725 49.2178C517.716 50.521 517.027 51.5835 515.898 52.2891V56.0244H518.97ZM512.03 46.8271C509.872 46.8271 508.444 47.6904 508.444 49.2178C508.444 50.6953 509.872 51.6084 512.03 51.6084C514.172 51.6084 515.616 50.6953 515.633 49.2178C515.616 47.6904 514.172 46.8271 512.03 46.8271ZM510.32 56.0244H513.757V53.0859C513.217 53.1938 512.636 53.252 512.03 53.252C511.424 53.252 510.852 53.2021 510.32 53.0859V56.0244ZM532.019 45.084V46.2627C532.019 47.375 532.019 48.6533 531.72 50.2803H533.662V51.9736H527.785V54.1484H532.035V59.5273H529.91V55.8086H521.228V54.1484H525.66V51.9736H519.833V50.2803H529.578C529.86 48.8691 529.902 47.7568 529.91 46.7607H521.526V45.084H532.019ZM543.723 44.8682C546.014 44.8682 547.757 46.2959 547.757 48.3213C547.757 50.3135 546.014 51.7578 543.723 51.7578C541.382 51.7578 539.655 50.3135 539.655 48.3213C539.655 46.2959 541.382 44.8682 543.723 44.8682ZM543.723 46.5947C542.561 46.5947 541.697 47.2256 541.714 48.3213C541.697 49.4004 542.561 50.0479 543.723 50.0479C544.868 50.0479 545.715 49.4004 545.715 48.3213C545.715 47.2256 544.868 46.5947 543.723 46.5947ZM552.073 44.4199V51.9902H549.948V44.4199H552.073ZM552.073 52.6211V56.7217H544.038V57.7012H552.488V59.3613H541.963V55.1777H549.965V54.248H541.93V52.6211H552.073ZM566.102 44.4365V48.6865H568.144V50.4297H566.102V55.5596H563.977V44.4365H566.102ZM566.649 57.5684V59.2617H556.307V54.4141H558.415V57.5684H566.649ZM556.672 45.499V47.6904H559.76V45.499H561.885V53.1523H554.563V45.499H556.672ZM556.672 51.4922H559.76V49.3174H556.672V51.4922ZM581.458 44.4365V55.2939H579.333V44.4365H581.458ZM581.856 57.5684V59.2617H571.331V54.1982H573.473V57.5684H581.856ZM573.174 45.3994C575.498 45.3994 577.308 46.9932 577.308 49.2012C577.308 51.459 575.498 53.0361 573.174 53.0361C570.85 53.0361 569.04 51.459 569.04 49.2012C569.04 46.9932 570.85 45.3994 573.174 45.3994ZM573.174 47.2422C571.995 47.2256 571.099 47.9727 571.115 49.2012C571.099 50.4629 571.995 51.1934 573.174 51.1934C574.319 51.1934 575.216 50.4629 575.216 49.2012C575.216 47.9727 574.319 47.2256 573.174 47.2422ZM601.048 44.4365V52.9531H598.923V44.4365H601.048ZM601.048 53.6504V59.3613H590.921V53.6504H601.048ZM593.013 55.3271V57.668H598.973V55.3271H593.013ZM594.191 46.4453C594.175 48.2881 595.287 50.0312 597.728 50.7949L596.698 52.4053C594.972 51.8989 593.776 50.853 593.096 49.5C592.407 50.9692 591.178 52.1313 589.377 52.6875L588.348 51.0273C590.871 50.2637 591.983 48.3379 591.983 46.4453V44.9844H594.191V46.4453ZM616.305 44.4199V59.5273H614.263V44.4199H616.305ZM613.25 44.7188V58.8135H611.274V53.3184H609.797V51.5918H611.274V50.3135H609.797V48.5869H611.274V44.7188H613.25ZM610.129 46.0967V47.8066H609.166V54.2148C609.581 54.1816 609.979 54.1401 610.345 54.0986L610.494 55.6758C608.187 56.0742 605.099 56.1406 603.156 56.1406L602.924 54.3975L604.186 54.3809V47.8066H603.206V46.0967H610.129ZM606.062 54.3643L607.257 54.3145V47.8066H606.062V54.3643ZM631.611 56.0244V57.7178H617.782V56.0244H623.56V52.6045H625.668V56.0244H631.611ZM625.734 46.3623C625.734 48.5205 627.677 50.7949 631.13 51.3262L630.233 53.0859C627.577 52.6045 625.602 51.1851 624.605 49.3008C623.609 51.1768 621.65 52.6128 619.011 53.0859L618.114 51.3262C621.534 50.7949 623.46 48.5039 623.477 46.3623V45.2832H625.734V46.3623ZM637.306 47.1094C637.306 48.7363 638.152 50.3633 640.161 51.127L639.032 52.7373C637.746 52.2476 636.857 51.3511 636.31 50.2305C635.762 51.542 634.815 52.6377 633.404 53.2188L632.259 51.5918C634.384 50.6621 635.247 48.8027 635.247 47.1094V45.333H637.306V47.1094ZM645.457 44.4365V53.667H643.448V49.832H642.187V53.2021H640.211V44.7021H642.187V48.1221H643.448V44.4365H645.457ZM640.294 53.8828C643.481 53.8828 645.523 54.9453 645.54 56.7051C645.523 58.4648 643.481 59.5273 640.294 59.5273C637.09 59.5273 635.064 58.4648 635.064 56.7051C635.064 54.9453 637.09 53.8828 640.294 53.8828ZM640.294 55.46C638.318 55.46 637.173 55.8916 637.189 56.7051C637.173 57.5186 638.318 57.9336 640.294 57.9336C642.253 57.9336 643.398 57.5186 643.398 56.7051C643.398 55.8916 642.253 55.46 640.294 55.46ZM655.152 44.8184C655.152 46.2959 656.896 47.7734 660.266 48.1387L659.568 49.7324C656.937 49.4419 655.02 48.4541 654.057 47.0596C653.069 48.4541 651.16 49.4419 648.562 49.7324L647.848 48.1387C651.234 47.7734 652.961 46.2959 652.978 44.8184V44.5029H655.152V44.8184ZM660.946 50.3633V52.0234H655.103V53.0195H659.27V56.9209H650.853V57.834H659.668V59.4277H648.777V55.4268H657.178V54.6299H648.761V53.0195H652.978V52.0234H647.167V50.3633H660.946ZM672.634 47.8398C672.634 50.6123 673.896 53.4014 676.452 54.4805L675.207 56.1738C673.48 55.3936 672.285 53.8911 671.604 52.0234C670.916 54.0571 669.679 55.7007 667.836 56.5391L666.558 54.7793C669.197 53.667 670.476 50.7783 670.492 47.8398V45.582H672.634V47.8398ZM679.407 44.4199V59.5605H677.266V44.4199H679.407ZM694.432 44.4199V53.8994H692.423V49.8818H691.211V53.4014H689.235V44.7021H691.211V48.1553H692.423V44.4199H694.432ZM688.787 45.9805V47.624H681.366V45.9805H684.039V44.5527H686.147V45.9805H688.787ZM685.102 48.1221C687.027 48.1221 688.389 49.1846 688.405 50.7617C688.389 52.3223 687.027 53.3848 685.102 53.3848C683.209 53.3848 681.831 52.3223 681.831 50.7617C681.831 49.1846 683.209 48.1221 685.102 48.1221ZM685.102 49.6494C684.271 49.6494 683.724 50.0645 683.724 50.7617C683.724 51.459 684.271 51.8906 685.102 51.874C685.932 51.8906 686.479 51.459 686.496 50.7617C686.479 50.0645 685.932 49.6494 685.102 49.6494ZM689.269 54.0322C692.539 54.0322 694.498 55.0283 694.515 56.7881C694.498 58.5312 692.539 59.5273 689.269 59.5273C686.015 59.5273 684.039 58.5312 684.039 56.7881C684.039 55.0283 686.015 54.0322 689.269 54.0322ZM689.269 55.626C687.227 55.626 686.147 55.9912 686.164 56.7881C686.147 57.5518 687.227 57.9336 689.269 57.9336C691.327 57.9336 692.373 57.5518 692.373 56.7881C692.373 55.9912 691.327 55.626 689.269 55.626ZM709.954 51.1104V52.6543H706.551V53.5342H708.294V57.1035H699.827V57.9834H708.742V59.4277H697.719V55.7588H706.202V54.9951H697.702V53.5342H699.545V52.6543H696.125V51.1104H709.954ZM708.277 44.6855V48.2217H699.96V48.9688H708.543V50.4131H697.852V46.877H706.152V46.1133H697.818V44.6855H708.277ZM701.653 53.5342H704.426V52.6543H701.653V53.5342Z" fill="#173E99"/>
<path d="M578.656 171.047C578.656 174.309 580.141 177.59 583.148 178.859L581.684 180.852C579.652 179.934 578.246 178.166 577.445 175.969C576.635 178.361 575.18 180.295 573.012 181.281L571.508 179.211C574.613 177.902 576.117 174.504 576.137 171.047V168.391H578.656V171.047ZM586.625 167.023V184.836H584.105V167.023H586.625ZM604.301 167.023V178.176H601.938V173.449H600.512V177.59H598.188V167.355H600.512V171.418H601.938V167.023H604.301ZM597.66 168.859V170.793H588.93V168.859H592.074V167.18H594.555V168.859H597.66ZM593.324 171.379C595.59 171.379 597.191 172.629 597.211 174.484C597.191 176.32 595.59 177.57 593.324 177.57C591.098 177.57 589.477 176.32 589.477 174.484C589.477 172.629 591.098 171.379 593.324 171.379ZM593.324 173.176C592.348 173.176 591.703 173.664 591.703 174.484C591.703 175.305 592.348 175.812 593.324 175.793C594.301 175.812 594.945 175.305 594.965 174.484C594.945 173.664 594.301 173.176 593.324 173.176ZM598.227 178.332C602.074 178.332 604.379 179.504 604.398 181.574C604.379 183.625 602.074 184.797 598.227 184.797C594.398 184.797 592.074 183.625 592.074 181.574C592.074 179.504 594.398 178.332 598.227 178.332ZM598.227 180.207C595.824 180.207 594.555 180.637 594.574 181.574C594.555 182.473 595.824 182.922 598.227 182.922C600.648 182.922 601.879 182.473 601.879 181.574C601.879 180.637 600.648 180.207 598.227 180.207Z" fill="#173E99"/>
<path d="M725.072 171.625V183.559H716.479V171.625H725.072ZM718.979 173.578V181.586H722.65V173.578H718.979ZM730.482 170.023V187.836H727.963V170.023H730.482ZM739.799 174.047C739.799 177.309 741.283 180.59 744.291 181.859L742.826 183.852C740.795 182.934 739.389 181.166 738.588 178.969C737.777 181.361 736.322 183.295 734.154 184.281L732.65 182.211C735.756 180.902 737.26 177.504 737.279 174.047V171.391H739.799V174.047ZM747.768 170.023V187.836H745.248V170.023H747.768ZM765.443 170.023V181.176H763.08V176.449H761.654V180.59H759.33V170.355H761.654V174.418H763.08V170.023H765.443ZM758.803 171.859V173.793H750.072V171.859H753.217V170.18H755.697V171.859H758.803ZM754.467 174.379C756.732 174.379 758.334 175.629 758.354 177.484C758.334 179.32 756.732 180.57 754.467 180.57C752.24 180.57 750.619 179.32 750.619 177.484C750.619 175.629 752.24 174.379 754.467 174.379ZM754.467 176.176C753.49 176.176 752.846 176.664 752.846 177.484C752.846 178.305 753.49 178.812 754.467 178.793C755.443 178.812 756.088 178.305 756.107 177.484C756.088 176.664 755.443 176.176 754.467 176.176ZM759.369 181.332C763.217 181.332 765.521 182.504 765.541 184.574C765.521 186.625 763.217 187.797 759.369 187.797C755.541 187.797 753.217 186.625 753.217 184.574C753.217 182.504 755.541 181.332 759.369 181.332ZM759.369 183.207C756.967 183.207 755.697 183.637 755.717 184.574C755.697 185.473 756.967 185.922 759.369 185.922C761.791 185.922 763.021 185.473 763.021 184.574C763.021 183.637 761.791 183.207 759.369 183.207Z" fill="#555555"/>
<path d="M544.542 199.648V229.141H551.037V235H530.041V229.141H537.169V207.021L530.041 211.855V204.971L537.707 199.648H544.542ZM557.824 235V229.824L569.201 218.008C572.13 214.883 574.083 213.027 574.132 210.098C574.132 206.826 571.886 205.02 569.054 205.02C566.173 205.02 564.123 206.973 564.123 210.488H557.58C557.531 203.652 562.218 199.16 569.201 199.16C576.037 199.16 580.871 203.408 580.871 209.609C580.871 213.564 579.21 216.787 572.521 223.525L567.541 228.75V228.945H581.31V235H557.824ZM590.929 235.439C588.634 235.439 586.779 233.584 586.828 231.338C586.779 229.092 588.634 227.285 590.929 227.285C593.078 227.285 594.982 229.092 594.982 231.338C594.982 233.584 593.078 235.439 590.929 235.439ZM601.037 235V229.824L612.414 218.008C615.343 214.883 617.296 213.027 617.345 210.098C617.345 206.826 615.099 205.02 612.267 205.02C609.386 205.02 607.335 206.973 607.335 210.488H600.792C600.744 203.652 605.431 199.16 612.414 199.16C619.25 199.16 624.083 203.408 624.083 209.609C624.083 213.564 622.423 216.787 615.734 223.525L610.753 228.75V228.945H624.523V235H601.037ZM632.946 226.162C630.309 226.162 628.869 224.233 628.869 221.45C628.869 218.643 630.358 216.714 632.946 216.714C635.607 216.714 636.999 218.643 637.023 221.45C636.999 224.258 635.558 226.162 632.946 226.162ZM632.946 223.989C633.996 223.989 634.508 222.964 634.533 221.45C634.508 219.937 634.044 218.887 632.946 218.887C631.896 218.887 631.359 219.961 631.359 221.45C631.359 222.964 631.92 223.989 632.946 223.989ZM644.86 235.586C642.248 235.586 640.807 233.657 640.807 230.874C640.807 228.066 642.296 226.138 644.86 226.138C647.521 226.138 648.937 228.066 648.961 230.874C648.937 233.682 647.497 235.586 644.86 235.586ZM644.86 233.413C645.934 233.413 646.447 232.412 646.471 230.874C646.447 229.36 645.983 228.311 644.86 228.335C643.834 228.335 643.297 229.385 643.297 230.874C643.297 232.412 643.859 233.413 644.86 233.413ZM631.408 235L643.566 217.324H646.3L634.142 235H631.408Z" fill="#173E99"/>
<path d="M711.872 227.391C706.403 227.391 702.418 223.914 702.301 219.031H707.692C707.809 221.336 709.684 222.742 711.872 222.742C714.45 222.742 716.403 220.789 716.403 217.742C716.403 214.656 714.411 212.664 711.754 212.625C709.918 212.625 708.629 213.25 707.731 215.008H702.692L704.098 198.719H720.309V203.523H709.098L708.434 210.672H708.629C709.411 209.383 710.973 208.289 713.434 208.289C718.317 208.289 721.715 212.195 721.715 217.586C721.715 223.367 717.614 227.391 711.872 227.391ZM729.02 227.352C727.184 227.352 725.7 225.867 725.739 224.07C725.7 222.273 727.184 220.828 729.02 220.828C730.739 220.828 732.262 222.273 732.262 224.07C732.262 225.867 730.739 227.352 729.02 227.352ZM746.325 198.328C752.145 198.328 756.442 202.391 756.442 207.938C756.442 211.062 755.231 213.953 752.848 217.547L746.637 227H740.583L747.848 215.945L747.692 215.828C747.106 216.473 745.915 217.195 744.098 217.195C739.45 217.195 736.168 213.367 736.168 208.172C736.168 202.508 740.465 198.328 746.325 198.328ZM746.325 202.82C743.59 202.82 741.676 204.93 741.676 208.016C741.676 211.102 743.59 213.25 746.325 213.25C749.02 213.25 750.934 211.062 750.934 208.016C750.934 204.93 749.02 202.82 746.325 202.82ZM763.839 218.162C761.203 218.162 759.762 216.233 759.762 213.45C759.762 210.643 761.251 208.714 763.839 208.714C766.5 208.714 767.892 210.643 767.917 213.45C767.892 216.258 766.452 218.162 763.839 218.162ZM763.839 215.989C764.889 215.989 765.402 214.964 765.426 213.45C765.402 211.937 764.938 210.887 763.839 210.887C762.79 210.887 762.252 211.961 762.252 213.45C762.252 214.964 762.814 215.989 763.839 215.989ZM775.753 227.586C773.141 227.586 771.701 225.657 771.701 222.874C771.701 220.066 773.19 218.138 775.753 218.138C778.415 218.138 779.831 220.066 779.855 222.874C779.831 225.682 778.39 227.586 775.753 227.586ZM775.753 225.413C776.828 225.413 777.34 224.412 777.365 222.874C777.34 221.36 776.876 220.311 775.753 220.335C774.728 220.335 774.191 221.385 774.191 222.874C774.191 224.412 774.752 225.413 775.753 225.413ZM762.301 227L774.459 209.324H777.194L765.036 227H762.301Z" fill="#656565"/>
<path d="M92.4346 279.437V284.068H94.4766V285.795H92.4346V290.709H90.3096V279.437H92.4346ZM89.4131 281.014V282.69H80.4482V281.014H83.8848V279.403H85.9932V281.014H89.4131ZM84.9307 283.222C87.1221 283.222 88.6494 284.4 88.6494 286.144C88.6494 287.887 87.1221 289.032 84.9307 289.032C82.7227 289.032 81.1787 287.887 81.1787 286.144C81.1787 284.4 82.7227 283.222 84.9307 283.222ZM84.9307 284.832C83.918 284.849 83.2373 285.313 83.2539 286.144C83.2373 286.974 83.918 287.422 84.9307 287.422C85.9434 287.422 86.6406 286.974 86.6406 286.144C86.6406 285.313 85.9434 284.849 84.9307 284.832ZM92.9824 292.568V294.262H82.6396V289.846H84.748V292.568H92.9824ZM107.326 280.084V281.263C107.326 282.375 107.326 283.653 107.027 285.28H108.97V286.974H103.093V289.148H107.343V294.527H105.218V290.809H96.5352V289.148H100.968V286.974H95.1406V285.28H104.886C105.168 283.869 105.209 282.757 105.218 281.761H96.834V280.084H107.326Z" fill="#173E99"/>
<path d="M72.1353 208V206.24L76.0034 202.223C76.9995 201.16 77.6636 200.529 77.6802 199.533C77.6802 198.421 76.9165 197.807 75.9536 197.807C74.9741 197.807 74.2769 198.471 74.2769 199.666H72.0522C72.0356 197.342 73.6294 195.814 76.0034 195.814C78.3276 195.814 79.9712 197.259 79.9712 199.367C79.9712 200.712 79.4067 201.808 77.1323 204.099L75.439 205.875V205.941H80.1206V208H72.1353ZM85.8149 208.166C83.3413 208.166 81.5151 206.439 81.5151 204.082C81.5151 202.754 82.0298 201.525 83.0425 199.998L85.6821 195.98H88.2554L85.1841 200.662L85.2505 200.712C85.4829 200.455 85.9893 200.147 86.7612 200.147C88.7368 200.147 90.1313 201.774 90.1313 203.982C90.1313 206.39 88.3052 208.166 85.8149 208.166ZM85.8149 206.257C86.9771 206.257 87.7905 205.36 87.7905 204.049C87.7905 202.737 86.9771 201.824 85.8149 201.824C84.6694 201.824 83.856 202.754 83.856 204.049C83.856 205.36 84.6694 206.257 85.8149 206.257ZM93.186 208.149C92.4058 208.149 91.7749 207.519 91.7915 206.755C91.7749 205.991 92.4058 205.377 93.186 205.377C93.9165 205.377 94.564 205.991 94.564 206.755C94.564 207.519 93.9165 208.149 93.186 208.149ZM96.0747 205.875V203.933L100.175 195.98H102.583L98.5649 203.783V203.866H101.337V200.479H103.662V203.866H105.056V205.875H103.662V208H101.288V205.875H96.0747ZM108.798 203.051C107.322 203.051 106.515 201.971 106.515 200.412C106.515 198.84 107.349 197.76 108.798 197.76C110.289 197.76 111.068 198.84 111.082 200.412C111.068 201.984 110.261 203.051 108.798 203.051ZM108.798 201.834C109.386 201.834 109.673 201.26 109.687 200.412C109.673 199.564 109.414 198.977 108.798 198.977C108.21 198.977 107.91 199.578 107.91 200.412C107.91 201.26 108.224 201.834 108.798 201.834ZM115.47 208.328C114.007 208.328 113.201 207.248 113.201 205.689C113.201 204.117 114.035 203.037 115.47 203.037C116.96 203.037 117.753 204.117 117.767 205.689C117.753 207.262 116.947 208.328 115.47 208.328ZM115.47 207.111C116.072 207.111 116.359 206.551 116.373 205.689C116.359 204.842 116.099 204.254 115.47 204.268C114.896 204.268 114.595 204.855 114.595 205.689C114.595 206.551 114.91 207.111 115.47 207.111ZM107.937 208L114.746 198.102H116.277L109.468 208H107.937Z" fill="#173E99"/>
<path d="M147.587 186.875V184.933L151.688 176.98H154.095L150.078 184.783V184.866H152.85V181.479H155.174V184.866H156.569V186.875H155.174V189H152.8V186.875H147.587ZM161.832 189.166C159.092 189.166 157.465 187.024 157.465 183.438V182.542C157.465 178.956 159.092 176.814 161.832 176.814C164.571 176.814 166.198 178.956 166.198 182.542V183.438C166.198 187.024 164.571 189.166 161.832 189.166ZM161.832 187.107C163.16 187.107 163.857 185.846 163.857 183.438V182.542C163.857 180.135 163.16 178.873 161.832 178.873C160.503 178.873 159.806 180.135 159.806 182.542V183.438C159.806 185.846 160.503 187.107 161.832 187.107ZM169.186 189.149C168.406 189.149 167.775 188.519 167.792 187.755C167.775 186.991 168.406 186.377 169.186 186.377C169.917 186.377 170.564 186.991 170.564 187.755C170.564 188.519 169.917 189.149 169.186 189.149ZM172.623 189V187.24L176.491 183.223C177.487 182.16 178.151 181.529 178.167 180.533C178.167 179.421 177.404 178.807 176.441 178.807C175.461 178.807 174.764 179.471 174.764 180.666H172.54C172.523 178.342 174.117 176.814 176.491 176.814C178.815 176.814 180.458 178.259 180.458 180.367C180.458 181.712 179.894 182.808 177.62 185.099L175.926 186.875V186.941H180.608V189H172.623ZM184.798 184.051C183.322 184.051 182.515 182.971 182.515 181.412C182.515 179.84 183.349 178.76 184.798 178.76C186.289 178.76 187.068 179.84 187.082 181.412C187.068 182.984 186.261 184.051 184.798 184.051ZM184.798 182.834C185.386 182.834 185.673 182.26 185.687 181.412C185.673 180.564 185.414 179.977 184.798 179.977C184.21 179.977 183.91 180.578 183.91 181.412C183.91 182.26 184.224 182.834 184.798 182.834ZM191.47 189.328C190.007 189.328 189.201 188.248 189.201 186.689C189.201 185.117 190.035 184.037 191.47 184.037C192.96 184.037 193.753 185.117 193.767 186.689C193.753 188.262 192.947 189.328 191.47 189.328ZM191.47 188.111C192.072 188.111 192.359 187.551 192.373 186.689C192.359 185.842 192.099 185.254 191.47 185.268C190.896 185.268 190.595 185.855 190.595 186.689C190.595 187.551 190.91 188.111 191.47 188.111ZM183.937 189L190.746 179.102H192.277L185.468 189H183.937Z" fill="#1D1D1D"/>
<path d="M232.103 169.166C229.779 169.166 228.085 167.688 228.036 165.613H230.327C230.376 166.593 231.173 167.19 232.103 167.19C233.199 167.19 234.029 166.36 234.029 165.065C234.029 163.754 233.182 162.907 232.053 162.891C231.273 162.891 230.725 163.156 230.343 163.903H228.202L228.799 156.98H235.689V159.022H230.924L230.642 162.061H230.725C231.057 161.513 231.721 161.048 232.767 161.048C234.842 161.048 236.287 162.708 236.287 164.999C236.287 167.456 234.543 169.166 232.103 169.166ZM241.832 169.166C239.092 169.166 237.465 167.024 237.465 163.438V162.542C237.465 158.956 239.092 156.814 241.832 156.814C244.571 156.814 246.198 158.956 246.198 162.542V163.438C246.198 167.024 244.571 169.166 241.832 169.166ZM241.832 167.107C243.16 167.107 243.857 165.846 243.857 163.438V162.542C243.857 160.135 243.16 158.873 241.832 158.873C240.503 158.873 239.806 160.135 239.806 162.542V163.438C239.806 165.846 240.503 167.107 241.832 167.107ZM249.186 169.149C248.406 169.149 247.775 168.519 247.792 167.755C247.775 166.991 248.406 166.377 249.186 166.377C249.917 166.377 250.564 166.991 250.564 167.755C250.564 168.519 249.917 169.149 249.186 169.149ZM252.623 169V167.24L256.491 163.223C257.487 162.16 258.151 161.529 258.167 160.533C258.167 159.421 257.404 158.807 256.441 158.807C255.461 158.807 254.764 159.471 254.764 160.666H252.54C252.523 158.342 254.117 156.814 256.491 156.814C258.815 156.814 260.458 158.259 260.458 160.367C260.458 161.712 259.894 162.808 257.62 165.099L255.926 166.875V166.941H260.608V169H252.623ZM264.798 164.051C263.322 164.051 262.515 162.971 262.515 161.412C262.515 159.84 263.349 158.76 264.798 158.76C266.289 158.76 267.068 159.84 267.082 161.412C267.068 162.984 266.261 164.051 264.798 164.051ZM264.798 162.834C265.386 162.834 265.673 162.26 265.687 161.412C265.673 160.564 265.414 159.977 264.798 159.977C264.21 159.977 263.91 160.578 263.91 161.412C263.91 162.26 264.224 162.834 264.798 162.834ZM271.47 169.328C270.007 169.328 269.201 168.248 269.201 166.689C269.201 165.117 270.035 164.037 271.47 164.037C272.96 164.037 273.753 165.117 273.767 166.689C273.753 168.262 272.947 169.328 271.47 169.328ZM271.47 168.111C272.072 168.111 272.359 167.551 272.373 166.689C272.359 165.842 272.099 165.254 271.47 165.268C270.896 165.268 270.595 165.855 270.595 166.689C270.595 167.551 270.91 168.111 271.47 168.111ZM263.937 169L270.746 159.102H272.277L265.468 169H263.937Z" fill="#1D1D1D"/>
<path d="M314.179 117L318.711 107.105V107.022H313.432V104.98H321.301V107.039L316.735 117H314.179ZM327.178 117.166C324.438 117.166 322.812 115.024 322.812 111.438V110.542C322.812 106.956 324.438 104.814 327.178 104.814C329.917 104.814 331.544 106.956 331.544 110.542V111.438C331.544 115.024 329.917 117.166 327.178 117.166ZM327.178 115.107C328.506 115.107 329.203 113.846 329.203 111.438V110.542C329.203 108.135 328.506 106.873 327.178 106.873C325.85 106.873 325.152 108.135 325.152 110.542V111.438C325.152 113.846 325.85 115.107 327.178 115.107ZM335.452 112.051C333.976 112.051 333.169 110.971 333.169 109.412C333.169 107.84 334.003 106.76 335.452 106.76C336.942 106.76 337.722 107.84 337.735 109.412C337.722 110.984 336.915 112.051 335.452 112.051ZM335.452 110.834C336.04 110.834 336.327 110.26 336.341 109.412C336.327 108.564 336.067 107.977 335.452 107.977C334.864 107.977 334.563 108.578 334.563 109.412C334.563 110.26 334.878 110.834 335.452 110.834ZM342.124 117.328C340.661 117.328 339.854 116.248 339.854 114.689C339.854 113.117 340.688 112.037 342.124 112.037C343.614 112.037 344.407 113.117 344.421 114.689C344.407 116.262 343.601 117.328 342.124 117.328ZM342.124 116.111C342.726 116.111 343.013 115.551 343.026 114.689C343.013 113.842 342.753 113.254 342.124 113.268C341.55 113.268 341.249 113.855 341.249 114.689C341.249 115.551 341.563 116.111 342.124 116.111ZM334.591 117L341.399 107.102H342.931L336.122 117H334.591Z" fill="#1D1D1D"/>
<path d="M166.5 280.781V290.925H159.195V280.781H166.5ZM161.32 282.441V289.248H164.441V282.441H161.32ZM171.099 279.42V294.561H168.957V279.42H171.099ZM185.326 280.084V281.263C185.326 282.375 185.326 283.653 185.027 285.28H186.97V286.974H181.093V289.148H185.343V294.527H183.218V290.809H174.535V289.148H178.968V286.974H173.141V285.28H182.886C183.168 283.869 183.209 282.757 183.218 281.761H174.834V280.084H185.326Z" fill="#1D1D1D"/>
<path d="M240.748 279.868C243.039 279.868 244.782 281.296 244.782 283.321C244.782 285.313 243.039 286.758 240.748 286.758C238.407 286.758 236.681 285.313 236.681 283.321C236.681 281.296 238.407 279.868 240.748 279.868ZM240.748 281.595C239.586 281.595 238.723 282.226 238.739 283.321C238.723 284.4 239.586 285.048 240.748 285.048C241.894 285.048 242.74 284.4 242.74 283.321C242.74 282.226 241.894 281.595 240.748 281.595ZM249.099 279.42V286.99H246.974V279.42H249.099ZM249.099 287.621V291.722H241.063V292.701H249.514V294.361H238.988V290.178H246.99V289.248H238.955V287.621H249.099ZM254.992 279.968V281.479H261.052V279.968H263.16V286.144H259.076V287.422H264.92V289.115H251.141V287.422H256.951V286.144H252.9V279.968H254.992ZM254.992 284.45H261.052V283.105H254.992V284.45ZM263.359 292.568V294.262H252.801V289.979H254.926V292.568H263.359Z" fill="#1D1D1D"/>
<path d="M318.665 280.233C319.869 280.233 320.923 280.673 321.653 281.412H325.073V279.42H327.182V288.269H325.073V286.459H321.637C320.906 287.189 319.86 287.629 318.665 287.621C316.374 287.638 314.631 286.061 314.647 283.936C314.631 281.777 316.374 280.233 318.665 280.233ZM318.665 282.043C317.486 282.043 316.64 282.74 316.656 283.936C316.64 285.098 317.486 285.845 318.665 285.828C319.811 285.845 320.641 285.098 320.641 283.936C320.641 282.74 319.811 282.043 318.665 282.043ZM322.019 288.584C325.223 288.584 327.215 289.68 327.231 291.556C327.215 293.432 325.223 294.527 322.019 294.527C318.831 294.527 316.822 293.432 316.822 291.556C316.822 289.68 318.831 288.584 322.019 288.584ZM322.019 290.194C320.01 290.194 318.897 290.643 318.897 291.556C318.897 292.436 320.01 292.884 322.019 292.884C324.061 292.884 325.156 292.436 325.156 291.556C325.156 290.643 324.061 290.194 322.019 290.194ZM322.566 283.089C322.616 283.354 322.649 283.645 322.649 283.936C322.649 284.226 322.616 284.5 322.566 284.766H325.073V283.089H322.566ZM341.326 280.084V281.263C341.326 282.375 341.326 283.653 341.027 285.28H342.97V286.974H337.093V289.148H341.343V294.527H339.218V290.809H330.535V289.148H334.968V286.974H329.141V285.28H338.886C339.168 283.869 339.209 282.757 339.218 281.761H330.834V280.084H341.326Z" fill="#1D1D1D"/>
<path d="M54.7031 76.9902C54.7178 74.2217 55.4648 71.9219 56.7686 69.959H58.1016C57.1348 71.4238 56.2119 74.3682 56.2119 76.9902C56.2119 79.5977 57.1348 82.5566 58.1016 84.0068H56.7686C55.4648 82.0439 54.7178 79.7441 54.7031 76.9902ZM59.376 82L59.3613 80.8428L62.8037 77.1221C63.8877 75.9355 64.459 75.2617 64.4736 74.3096C64.459 73.2402 63.668 72.5957 62.6426 72.5957C61.5732 72.5957 60.8701 73.3135 60.8701 74.4707H59.376C59.3613 72.5371 60.7676 71.248 62.6865 71.248C64.6055 71.248 65.9531 72.5371 65.9678 74.2656C65.9531 75.4375 65.4404 76.375 63.5801 78.3525L61.5439 80.5352V80.623H66.1289V82H59.376ZM71.2852 82.1465C68.9561 82.1465 67.623 80.3154 67.623 77.1074V76.2871C67.623 73.0791 68.9561 71.248 71.2852 71.248C73.6143 71.248 74.9326 73.0791 74.9326 76.2871V77.1074C74.9326 80.3154 73.6143 82.1465 71.2852 82.1465ZM71.2852 80.7695C72.6914 80.7695 73.3945 79.5391 73.3945 77.1074V76.2871C73.3945 73.8555 72.6914 72.625 71.2852 72.625C69.8789 72.625 69.1758 73.8555 69.1758 76.2871V77.1074C69.1758 79.5391 69.8789 80.7695 71.2852 80.7695ZM76.6611 82L76.6465 80.8428L80.0889 77.1221C81.1729 75.9355 81.7441 75.2617 81.7588 74.3096C81.7441 73.2402 80.9531 72.5957 79.9277 72.5957C78.8584 72.5957 78.1553 73.3135 78.1553 74.4707H76.6611C76.6465 72.5371 78.0527 71.248 79.9717 71.248C81.8906 71.248 83.2383 72.5371 83.2529 74.2656C83.2383 75.4375 82.7256 76.375 80.8652 78.3525L78.8291 80.5352V80.623H83.4141V82H76.6611ZM88.5703 82.1465C86.2412 82.1465 84.9082 80.3154 84.9082 77.1074V76.2871C84.9082 73.0791 86.2412 71.248 88.5703 71.248C90.8994 71.248 92.2178 73.0791 92.2178 76.2871V77.1074C92.2178 80.3154 90.8994 82.1465 88.5703 82.1465ZM88.5703 80.7695C89.9766 80.7695 90.6797 79.5391 90.6797 77.1074V76.2871C90.6797 73.8555 89.9766 72.625 88.5703 72.625C87.1641 72.625 86.4609 73.8555 86.4609 76.2871V77.1074C86.4609 79.5391 87.1641 80.7695 88.5703 80.7695ZM104.317 70.1348V79.832H102.926V75.3643H99.3223V74.251H102.926V72.874H99.3223V71.7607H102.926V70.1348H104.317ZM104.654 81.8389V82.9668H95.7627V78.9824H97.1689V81.8389H104.654ZM95.5283 71.043V76.7852C97.2715 76.7852 98.9268 76.6753 100.802 76.3311L100.948 77.4736C98.8682 77.8691 97.0957 77.9424 95.1621 77.957H94.1514V71.043H95.5283ZM117.252 70.1201V83.2451H115.846V70.1201H117.252ZM113.341 71.5264C113.341 75.3643 111.7 78.7041 107.203 80.8574L106.471 79.7295C109.964 78.0669 111.664 75.7012 111.935 72.6396H107.101V71.5264H113.341ZM130.201 70.75V71.8633H126.202C126.283 73.2915 128.172 74.5513 130.611 74.8516L130.084 75.9502C127.835 75.6572 125.99 74.6099 125.279 73.1377C124.569 74.6025 122.73 75.6572 120.489 75.9502L119.962 74.8516C122.416 74.5513 124.283 73.2915 124.356 71.8633H120.401V70.75H130.201ZM131.3 76.7998V77.9277H126.085V80.4766H124.708V77.9277H119.288V76.7998H131.3ZM129.967 81.8389V82.9668H120.782V79.2168H122.174V81.8389H129.967ZM135.401 76.9902C135.387 79.7441 134.64 82.0439 133.336 84.0068H132.003C132.97 82.5566 133.893 79.5977 133.893 76.9902C133.893 74.3682 132.97 71.4238 132.003 69.959H133.336C134.64 71.9219 135.387 74.2217 135.401 76.9902Z" fill="#173E99"/>
<g filter="url(#filter0_i_138_68)">
<path d="M75 226C75 220.477 79.4772 216 85 216H106C111.523 216 116 220.477 116 226V268H75V226Z" fill="url(#paint0_linear_138_68)"/>
</g>
<g filter="url(#filter1_i_138_68)">
<path d="M151 208C151 202.477 155.477 198 161 198H182C187.523 198 192 202.477 192 208V268H151V208Z" fill="#173E99" fill-opacity="0.25"/>
</g>
<g filter="url(#filter2_i_138_68)">
<path d="M231 187C231 181.477 235.477 177 241 177H262C267.523 177 272 181.477 272 187V268H231V187Z" fill="#173E99" fill-opacity="0.25"/>
</g>
<g filter="url(#filter3_i_138_68)">
<path d="M309 133C309 127.477 313.477 123 319 123H340C345.523 123 350 127.477 350 133V268H309V133Z" fill="#173E99" fill-opacity="0.25"/>
</g>
<line x1="64" y1="267.5" x2="371" y2="267.5" stroke="#173E99"/>
<rect x="514" y="249" width="148" height="46" fill="#5286FF"/>
<path d="M537.459 279V276.93L542.01 272.203C543.182 270.953 543.963 270.211 543.982 269.039C543.982 267.73 543.084 267.008 541.951 267.008C540.799 267.008 539.979 267.789 539.979 269.195H537.361C537.342 266.461 539.217 264.664 542.01 264.664C544.744 264.664 546.678 266.363 546.678 268.844C546.678 270.426 546.014 271.715 543.338 274.41L541.346 276.5V276.578H546.854V279H537.459ZM550.701 279.176C549.783 279.176 549.041 278.434 549.061 277.535C549.041 276.637 549.783 275.914 550.701 275.914C551.561 275.914 552.322 276.637 552.322 277.535C552.322 278.434 551.561 279.176 550.701 279.176ZM560.955 264.859V276.656H563.553V279H555.154V276.656H558.006V267.809L555.154 269.742V266.988L558.221 264.859H560.955ZM568.475 264.605V268.609H570.896V264.605H573.201V276.578H566.131V264.605H568.475ZM568.475 274.586H570.896V270.562H568.475V274.586ZM581.033 263.023V280.797H578.65V271.832H577.049V279.977H574.686V263.277H577.049V269.801H578.65V263.023H581.033ZM604.881 271.207V273.219H588.67V271.207H604.881ZM596.756 274.215C600.604 274.215 602.928 275.426 602.947 277.516C602.928 279.625 600.604 280.797 596.756 280.797C592.869 280.797 590.525 279.625 590.525 277.516C590.525 275.426 592.869 274.215 596.756 274.215ZM596.756 276.148C594.295 276.148 593.045 276.578 593.064 277.516C593.045 278.434 594.295 278.863 596.756 278.863C599.158 278.863 600.428 278.434 600.447 277.516C600.428 276.578 599.158 276.148 596.756 276.148ZM603.416 263.844V265.836H598.572C598.973 267.076 600.779 268.307 604.197 268.609L603.318 270.562C599.969 270.24 597.703 268.971 596.756 267.242C595.818 268.971 593.592 270.24 590.213 270.562L589.393 268.609C592.732 268.307 594.559 267.086 594.979 265.836H590.154V263.844H603.416ZM619.979 263.023V269.84H622.498V271.891H619.979V280.758H617.479V263.023H619.979ZM615.232 264.84C615.213 270.152 613.143 274.762 607.166 277.691L605.76 275.777C609.969 273.668 612.225 270.836 612.693 266.871H606.775V264.84H615.232Z" fill="white"/>
<g clip-path="url(#clip0_138_68)">
<path d="M579.987 104.041C583.999 104.041 587.251 100.79 587.251 96.7773C587.251 92.7646 583.999 89.5157 579.987 89.5157C575.976 89.5157 572.724 92.7646 572.724 96.7773C572.724 100.79 575.976 104.041 579.987 104.041Z" fill="#173E99"/>
<path d="M589.497 134.541L592.966 134.56L594.072 134.266L593.297 130.03L589.497 134.541Z" fill="#173E99"/>
<path d="M570.381 134.437L566.861 130.149L566.001 134.413L570.381 134.437Z" fill="#173E99"/>
<path d="M633.972 141.451L615.478 135.935C614.672 135.694 613.821 135.642 612.988 135.769L593.806 138.793L585.954 138.749L585.706 139.044C584.73 140.203 583.337 140.801 581.93 140.801C581.243 140.801 580.575 140.608 579.932 140.32C579.293 140.607 578.624 140.801 577.939 140.801C576.515 140.801 575.1 140.186 574.124 138.997L573.868 138.685L563.343 138.626C563.334 138.626 563.322 138.626 563.313 138.626C560.213 138.626 557.691 141.131 557.674 144.234C557.657 147.347 560.168 149.886 563.282 149.903L569.27 149.937L571.889 151.076L581.214 155.143C581.732 155.367 582.291 155.484 582.855 155.484H596.315C598.587 155.484 600.425 153.644 600.425 151.374C600.425 149.105 598.587 147.264 596.315 147.264H583.714L576.767 144.235L599.394 144.44C602.083 144.444 604.383 146.068 605.398 148.382L613.482 147.107L630.749 152.258C631.286 152.418 631.829 152.493 632.361 152.493C634.791 152.493 637.033 150.913 637.763 148.465C638.654 145.482 636.956 142.342 633.972 141.451Z" fill="#173E99"/>
<path d="M578.012 138.961C577.962 138.962 578.061 138.961 578.012 138.961V138.961Z" fill="#173E99"/>
<path d="M594.402 123.607C590.807 112.517 592.074 116.427 589.221 107.626C588.853 106.49 587.574 105.501 586.44 105.501C585.019 105.501 574.896 105.498 573.904 105.501C572.514 105.504 571.183 106.259 570.746 107.649C568.06 116.147 569.263 112.335 565.697 123.629C565.38 124.63 565.59 125.724 566.259 126.537L575.539 137.838C576.153 138.586 577.116 138.981 578.012 138.961C578.657 138.946 579.372 138.709 579.91 138.267C579.919 138.259 579.922 138.25 579.931 138.241L579.932 138.243C580.515 138.735 581.226 138.973 581.931 138.973C582.815 138.973 583.696 138.597 584.309 137.868L593.822 126.564C594.514 125.745 594.734 124.626 594.402 123.607ZM579.94 133.411L578.76 131.975L572.128 123.895L575.074 114.567H576.991L574.169 123.5L579.958 130.553L585.908 123.482L583.019 114.567H584.939L587.961 123.882L579.94 133.411Z" fill="#173E99"/>
<path d="M546.418 149.654C550.515 149.654 553.836 146.333 553.836 142.236C553.836 138.139 550.515 134.818 546.418 134.818C542.321 134.818 539 138.139 539 142.236C539 146.333 542.321 149.654 546.418 149.654Z" fill="#173E99"/>
</g>
<g clip-path="url(#clip1_138_68)">
<path d="M703.261 138.755L718.019 134.352C718.662 134.16 719.341 134.119 720.005 134.221L735.312 136.634L741.578 136.599H742.069C742.87 136.599 743.042 136.599 744.165 136.599C744.713 136.599 745.06 136.599 745.935 136.547C746.55 136.547 747.373 136.547 747.92 136.547C749.057 136.547 748.619 136.547 750.119 136.547H751.222L759.621 136.5C759.629 136.5 759.638 136.5 759.646 136.5C762.119 136.5 764.132 138.499 764.145 140.975C764.159 143.459 762.155 145.486 759.67 145.499L754.892 145.526L752.802 146.435L745.361 149.68C744.947 149.859 744.502 149.952 744.051 149.952H733.31C731.498 149.952 730.03 148.484 730.03 146.673C730.03 144.862 731.498 143.393 733.31 143.393H743.366L748.909 140.976L730.853 141.139C728.708 141.143 726.872 142.439 726.062 144.286L719.611 143.268L705.833 147.378C705.404 147.506 704.971 147.565 704.546 147.565C702.607 147.565 700.818 146.305 700.236 144.351C699.525 141.971 700.88 139.465 703.261 138.755Z" fill="#555555"/>
<path d="M773.081 145.168C769.811 145.168 767.161 142.518 767.161 139.249C767.161 135.98 769.811 133.329 773.081 133.329C776.35 133.329 779 135.98 779 139.249C779 142.518 776.35 145.168 773.081 145.168Z" fill="#555555"/>
</g>
<defs>
<filter id="filter0_i_138_68" x="75" y="216" width="45" height="56" filterUnits="userSpaceOnUse" color-interpolation-filters="sRGB">
<feFlood flood-opacity="0" result="BackgroundImageFix"/>
<feBlend mode="normal" in="SourceGraphic" in2="BackgroundImageFix" result="shape"/>
<feColorMatrix in="SourceAlpha" type="matrix" values="0 0 0 0 0 0 0 0 0 0 0 0 0 0 0 0 0 0 127 0" result="hardAlpha"/>
<feMorphology radius="3" operator="erode" in="SourceAlpha" result="effect1_innerShadow_138_68"/>
<feOffset dx="4" dy="4"/>
<feGaussianBlur stdDeviation="2.85"/>
<feComposite in2="hardAlpha" operator="arithmetic" k2="-1" k3="1"/>
<feColorMatrix type="matrix" values="0 0 0 0 0 0 0 0 0 0 0 0 0 0 0 0 0 0 0.52 0"/>
<feBlend mode="normal" in2="shape" result="effect1_innerShadow_138_68"/>
</filter>
<filter id="filter1_i_138_68" x="151" y="198" width="43" height="74" filterUnits="userSpaceOnUse" color-interpolation-filters="sRGB">
<feFlood flood-opacity="0" result="BackgroundImageFix"/>
<feBlend mode="normal" in="SourceGraphic" in2="BackgroundImageFix" result="shape"/>
<feColorMatrix in="SourceAlpha" type="matrix" values="0 0 0 0 0 0 0 0 0 0 0 0 0 0 0 0 0 0 127 0" result="hardAlpha"/>
<feOffset dx="2" dy="4"/>
<feGaussianBlur stdDeviation="2"/>
<feComposite in2="hardAlpha" operator="arithmetic" k2="-1" k3="1"/>
<feColorMatrix type="matrix" values="0 0 0 0 0 0 0 0 0 0 0 0 0 0 0 0 0 0 0.25 0"/>
<feBlend mode="normal" in2="shape" result="effect1_innerShadow_138_68"/>
</filter>
<filter id="filter2_i_138_68" x="231" y="177" width="43" height="95" filterUnits="userSpaceOnUse" color-interpolation-filters="sRGB">
<feFlood flood-opacity="0" result="BackgroundImageFix"/>
<feBlend mode="normal" in="SourceGraphic" in2="BackgroundImageFix" result="shape"/>
<feColorMatrix in="SourceAlpha" type="matrix" values="0 0 0 0 0 0 0 0 0 0 0 0 0 0 0 0 0 0 127 0" result="hardAlpha"/>
<feOffset dx="2" dy="4"/>
<feGaussianBlur stdDeviation="2"/>
<feComposite in2="hardAlpha" operator="arithmetic" k2="-1" k3="1"/>
<feColorMatrix type="matrix" values="0 0 0 0 0 0 0 0 0 0 0 0 0 0 0 0 0 0 0.25 0"/>
<feBlend mode="normal" in2="shape" result="effect1_innerShadow_138_68"/>
</filter>
<filter id="filter3_i_138_68" x="309" y="123" width="43" height="149" filterUnits="userSpaceOnUse" color-interpolation-filters="sRGB">
<feFlood flood-opacity="0" result="BackgroundImageFix"/>
<feBlend mode="normal" in="SourceGraphic" in2="BackgroundImageFix" result="shape"/>
<feColorMatrix in="SourceAlpha" type="matrix" values="0 0 0 0 0 0 0 0 0 0 0 0 0 0 0 0 0 0 127 0" result="hardAlpha"/>
<feOffset dx="2" dy="4"/>
<feGaussianBlur stdDeviation="2"/>
<feComposite in2="hardAlpha" operator="arithmetic" k2="-1" k3="1"/>
<feColorMatrix type="matrix" values="0 0 0 0 0 0 0 0 0 0 0 0 0 0 0 0 0 0 0.25 0"/>
<feBlend mode="normal" in2="shape" result="effect1_innerShadow_138_68"/>
</filter>
<linearGradient id="paint0_linear_138_68" x1="95.5" y1="216" x2="95.5" y2="268" gradientUnits="userSpaceOnUse">
<stop stop-color="#081533"/>
<stop offset="0.995" stop-color="#173E99"/>
</linearGradient>
<clipPath id="clip0_138_68">
<rect width="99" height="99" fill="white" transform="translate(539 73)"/>
</clipPath>
<clipPath id="clip1_138_68">
<rect width="79" height="79" fill="white" transform="matrix(-1 0 0 1 779 84)"/>
</clipPath>
</defs>
</svg>
