<svg width="55" height="55" viewBox="0 0 55 55" fill="none" xmlns="http://www.w3.org/2000/svg">
<g filter="url(#filter0_i_178_36)">
<rect width="55" height="55" rx="10" fill="#5286FF"/>
</g>
<mask id="mask0_178_36" style="mask-type:alpha" maskUnits="userSpaceOnUse" x="7" y="7" width="40" height="40">
<rect x="7" y="7" width="40" height="40" fill="#D9D9D9"/>
</mask>
<g mask="url(#mask0_178_36)">
<path d="M27.0001 10.3333C28.389 10.3333 29.5695 10.8194 30.5417 11.7916C31.514 12.7639 32.0001 13.9444 32.0001 15.3333C32.0001 16.7222 31.514 17.9028 30.5417 18.875C29.5695 19.8472 28.389 20.3333 27.0001 20.3333C25.6112 20.3333 24.4306 19.8472 23.4584 18.875C22.4862 17.9028 22.0001 16.7222 22.0001 15.3333C22.0001 13.9444 22.4862 12.7639 23.4584 11.7916C24.4306 10.8194 25.6112 10.3333 27.0001 10.3333ZM27.0001 22C28.3056 22 29.5973 22.1528 30.8751 22.4583C32.1529 22.7639 33.3056 23.1944 34.3334 23.75C35.389 24.2778 36.2362 24.9028 36.8751 25.625C37.514 26.3472 37.8334 27.1389 37.8334 28V37.6666C37.8334 38.1389 37.7223 38.6041 37.5001 39.0625C37.2779 39.5208 36.9723 39.9444 36.5834 40.3333C36.1945 40.7222 35.7431 41.0833 35.2292 41.4166C34.7154 41.75 34.139 42.0555 33.5001 42.3333V38.5833C33.5001 37.5278 32.7709 36.6666 31.3126 36C29.8542 35.3333 28.4167 35 27.0001 35C25.6112 35 24.2709 35.2847 22.9792 35.8541C21.6876 36.4236 20.889 37.1666 20.5834 38.0833C21.639 38.5 22.7223 38.7916 23.8334 38.9583C24.9445 39.125 26.0834 39.2222 27.2501 39.25H28.6667V43.5833C28.4723 43.6389 28.2709 43.6666 28.0626 43.6666H27.4167C26.4167 43.6666 25.2709 43.5555 23.9792 43.3333C22.6876 43.1111 21.4584 42.7639 20.2917 42.2916C19.1251 41.8194 18.1459 41.2014 17.3542 40.4375C16.5626 39.6736 16.1667 38.75 16.1667 37.6666V28C16.1667 27.1389 16.4862 26.3472 17.1251 25.625C17.764 24.9028 18.5973 24.2778 19.6251 23.75C20.6806 23.1944 21.8473 22.7639 23.1251 22.4583C24.4029 22.1528 25.6945 22 27.0001 22ZM27.0001 32C27.9167 32 28.7015 31.6736 29.3542 31.0208C30.007 30.368 30.3334 29.5833 30.3334 28.6666C30.3334 27.75 30.007 26.9653 29.3542 26.3125C28.7015 25.6597 27.9167 25.3333 27.0001 25.3333C26.0834 25.3333 25.2987 25.6597 24.6459 26.3125C23.9931 26.9653 23.6667 27.75 23.6667 28.6666C23.6667 29.5833 23.9931 30.368 24.6459 31.0208C25.2987 31.6736 26.0834 32 27.0001 32Z" fill="white"/>
</g>
<defs>
<filter id="filter0_i_178_36" x="0" y="0" width="57" height="59" filterUnits="userSpaceOnUse" color-interpolation-filters="sRGB">
<feFlood flood-opacity="0" result="BackgroundImageFix"/>
<feBlend mode="normal" in="SourceGraphic" in2="BackgroundImageFix" result="shape"/>
<feColorMatrix in="SourceAlpha" type="matrix" values="0 0 0 0 0 0 0 0 0 0 0 0 0 0 0 0 0 0 127 0" result="hardAlpha"/>
<feMorphology radius="2" operator="erode" in="SourceAlpha" result="effect1_innerShadow_178_36"/>
<feOffset dx="2" dy="4"/>
<feGaussianBlur stdDeviation="3.85"/>
<feComposite in2="hardAlpha" operator="arithmetic" k2="-1" k3="1"/>
<feColorMatrix type="matrix" values="0 0 0 0 0 0 0 0 0 0 0 0 0 0 0 0 0 0 0.25 0"/>
<feBlend mode="normal" in2="shape" result="effect1_innerShadow_178_36"/>
</filter>
</defs>
</svg>
