<svg width="55" height="55" viewBox="0 0 55 55" fill="none" xmlns="http://www.w3.org/2000/svg">
<g filter="url(#filter0_i_176_7115)">
<rect width="55" height="55" rx="10" fill="#5286FF"/>
</g>
<mask id="mask0_176_7115" style="mask-type:alpha" maskUnits="userSpaceOnUse" x="3" y="12" width="40" height="40">
<rect x="3" y="12" width="40" height="40" fill="white"/>
</mask>
<g mask="url(#mask0_176_7115)">
<path d="M23.0001 32C21.1667 32 19.5973 31.3472 18.2917 30.0417C16.9862 28.7361 16.3334 27.1667 16.3334 25.3334C16.3334 23.5 16.9862 21.9306 18.2917 20.625C19.5973 19.3195 21.1667 18.6667 23.0001 18.6667C24.8334 18.6667 26.4029 19.3195 27.7084 20.625C29.014 21.9306 29.6667 23.5 29.6667 25.3334C29.6667 27.1667 29.014 28.7361 27.7084 30.0417C26.4029 31.3472 24.8334 32 23.0001 32ZM9.66675 45.3334V40.6667C9.66675 39.7222 9.9098 38.8542 10.3959 38.0625C10.882 37.2709 11.5279 36.6667 12.3334 36.25C14.0556 35.3889 15.8056 34.7431 17.5834 34.3125C19.3612 33.882 21.1667 33.6667 23.0001 33.6667C24.8334 33.6667 26.639 33.882 28.4167 34.3125C30.1945 34.7431 31.9445 35.3889 33.6667 36.25C34.4723 36.6667 35.1181 37.2709 35.6042 38.0625C36.0904 38.8542 36.3334 39.7222 36.3334 40.6667V45.3334H9.66675Z" fill="white"/>
</g>
<mask id="mask1_176_7115" style="mask-type:alpha" maskUnits="userSpaceOnUse" x="16" y="5" width="36" height="38">
<rect x="51.9998" y="36.1186" width="27.9908" height="32.0963" transform="rotate(165.821 51.9998 36.1186)" fill="#D9D9D9"/>
</mask>
<g mask="url(#mask1_176_7115)">
<path d="M45.0427 10L49.0936 26.0343L34.1617 29.8067L40.1788 33.3683L38.7558 35.7534L28.7132 29.7618L34.7298 19.6773L37.0815 21.1088L33.4866 27.1343L45.7461 24.0371L42.3703 10.6752L45.0427 10Z" fill="white"/>
</g>
<defs>
<filter id="filter0_i_176_7115" x="0" y="0" width="57" height="59" filterUnits="userSpaceOnUse" color-interpolation-filters="sRGB">
<feFlood flood-opacity="0" result="BackgroundImageFix"/>
<feBlend mode="normal" in="SourceGraphic" in2="BackgroundImageFix" result="shape"/>
<feColorMatrix in="SourceAlpha" type="matrix" values="0 0 0 0 0 0 0 0 0 0 0 0 0 0 0 0 0 0 127 0" result="hardAlpha"/>
<feMorphology radius="2" operator="erode" in="SourceAlpha" result="effect1_innerShadow_176_7115"/>
<feOffset dx="2" dy="4"/>
<feGaussianBlur stdDeviation="3.85"/>
<feComposite in2="hardAlpha" operator="arithmetic" k2="-1" k3="1"/>
<feColorMatrix type="matrix" values="0 0 0 0 0 0 0 0 0 0 0 0 0 0 0 0 0 0 0.25 0"/>
<feBlend mode="normal" in2="shape" result="effect1_innerShadow_176_7115"/>
</filter>
</defs>
</svg>
