<svg width="55" height="55" viewBox="0 0 55 55" fill="none" xmlns="http://www.w3.org/2000/svg">
<g filter="url(#filter0_i_176_7109)">
<rect width="55" height="55" rx="10" fill="#5286FF"/>
</g>
<mask id="mask0_176_7109" style="mask-type:alpha" maskUnits="userSpaceOnUse" x="7" y="7" width="40" height="40">
<rect x="7" y="7" width="40" height="40" fill="white"/>
</mask>
<g mask="url(#mask0_176_7109)">
<path d="M23.3333 30.3333C21.5 30.3333 19.9306 29.6806 18.625 28.375C17.3194 27.0694 16.6667 25.5 16.6667 23.6667C16.6667 21.8333 17.3194 20.2639 18.625 18.9583C19.9306 17.6528 21.5 17 23.3333 17C25.1667 17 26.7361 17.6528 28.0417 18.9583C29.3472 20.2639 30 21.8333 30 23.6667C30 25.5 29.3472 27.0694 28.0417 28.375C26.7361 29.6806 25.1667 30.3333 23.3333 30.3333ZM10 43.6667V39C10 38.0556 10.2431 37.1875 10.7292 36.3958C11.2153 35.6042 11.8611 35 12.6667 34.5833C14.3889 33.7222 16.1389 33.0764 17.9167 32.6458C19.6944 32.2153 21.5 32 23.3333 32C25.1667 32 26.9722 32.2153 28.75 32.6458C30.5278 33.0764 32.2778 33.7222 34 34.5833C34.8056 35 35.4514 35.6042 35.9375 36.3958C36.4236 37.1875 36.6667 38.0556 36.6667 39V43.6667H10Z" fill="white"/>
</g>
<path d="M36.1309 25.0234C36.1699 25.8438 36.4971 26.4834 37.1123 26.9424C37.7373 27.4014 38.5137 27.6406 39.4414 27.6602C40.3984 27.6406 41.1797 27.3672 41.7852 26.8398C42.3906 26.3125 42.6934 25.5801 42.6934 24.6426C42.6934 23.6953 42.3711 22.9434 41.7266 22.3867C41.082 21.8203 40.1445 21.5371 38.9141 21.5371H36.6875V18.5488L40.9941 13.627V13.3926H32.9082V9.78906H46.3262V12.8945L41.1699 18.6367V18.9297C42.459 19.0957 43.5381 19.4766 44.4072 20.0723C45.2861 20.6582 45.9355 21.376 46.3555 22.2256C46.7852 23.0654 47 23.9688 47 24.9355C47 26.166 46.6729 27.2646 46.0186 28.2314C45.3643 29.1982 44.4609 29.9502 43.3086 30.4873C42.166 31.0244 40.877 31.293 39.4414 31.293C38.0156 31.293 36.7412 31.0342 35.6182 30.5166C34.4951 29.9893 33.6113 29.252 32.9668 28.3047C32.3223 27.3477 31.9805 26.2539 31.9414 25.0234H36.1309Z" fill="white"/>
<defs>
<filter id="filter0_i_176_7109" x="0" y="0" width="57" height="59" filterUnits="userSpaceOnUse" color-interpolation-filters="sRGB">
<feFlood flood-opacity="0" result="BackgroundImageFix"/>
<feBlend mode="normal" in="SourceGraphic" in2="BackgroundImageFix" result="shape"/>
<feColorMatrix in="SourceAlpha" type="matrix" values="0 0 0 0 0 0 0 0 0 0 0 0 0 0 0 0 0 0 127 0" result="hardAlpha"/>
<feMorphology radius="2" operator="erode" in="SourceAlpha" result="effect1_innerShadow_176_7109"/>
<feOffset dx="2" dy="4"/>
<feGaussianBlur stdDeviation="3.85"/>
<feComposite in2="hardAlpha" operator="arithmetic" k2="-1" k3="1"/>
<feColorMatrix type="matrix" values="0 0 0 0 0 0 0 0 0 0 0 0 0 0 0 0 0 0 0.25 0"/>
<feBlend mode="normal" in2="shape" result="effect1_innerShadow_176_7109"/>
</filter>
</defs>
</svg>
