<svg width="55" height="55" viewBox="0 0 55 55" fill="none" xmlns="http://www.w3.org/2000/svg">
<g filter="url(#filter0_i_178_12)">
<rect width="55" height="55" rx="10" fill="#5286FF"/>
</g>
<mask id="mask0_178_12" style="mask-type:alpha" maskUnits="userSpaceOnUse" x="7" y="7" width="40" height="40">
<rect x="7" y="7" width="40" height="40" fill="#D9D9D9"/>
</mask>
<g mask="url(#mask0_178_12)">
<path d="M18.6667 42C17.7501 42 16.9654 41.6736 16.3126 41.0208C15.6598 40.3681 15.3334 39.5833 15.3334 38.6667V17H13.6667V13.6667H22.0001V12H32.0001V13.6667H40.3334V17H38.6667V38.6667C38.6667 39.5833 38.3404 40.3681 37.6876 41.0208C37.0348 41.6736 36.2501 42 35.3334 42H18.6667ZM22.0001 35.3333H25.3334V20.3333H22.0001V35.3333ZM28.6667 35.3333H32.0001V20.3333H28.6667V35.3333Z" fill="white"/>
</g>
<defs>
<filter id="filter0_i_178_12" x="0" y="0" width="57" height="59" filterUnits="userSpaceOnUse" color-interpolation-filters="sRGB">
<feFlood flood-opacity="0" result="BackgroundImageFix"/>
<feBlend mode="normal" in="SourceGraphic" in2="BackgroundImageFix" result="shape"/>
<feColorMatrix in="SourceAlpha" type="matrix" values="0 0 0 0 0 0 0 0 0 0 0 0 0 0 0 0 0 0 127 0" result="hardAlpha"/>
<feMorphology radius="2" operator="erode" in="SourceAlpha" result="effect1_innerShadow_178_12"/>
<feOffset dx="2" dy="4"/>
<feGaussianBlur stdDeviation="3.85"/>
<feComposite in2="hardAlpha" operator="arithmetic" k2="-1" k3="1"/>
<feColorMatrix type="matrix" values="0 0 0 0 0 0 0 0 0 0 0 0 0 0 0 0 0 0 0.25 0"/>
<feBlend mode="normal" in2="shape" result="effect1_innerShadow_178_12"/>
</filter>
</defs>
</svg>
