<svg width="55" height="55" viewBox="0 0 55 55" fill="none" xmlns="http://www.w3.org/2000/svg">
<g filter="url(#filter0_i_178_84)">
<rect width="55" height="55" rx="10" fill="#5286FF"/>
</g>
<mask id="mask0_178_84" style="mask-type:alpha" maskUnits="userSpaceOnUse" x="7" y="7" width="40" height="40">
<rect x="7" y="7" width="40" height="40" fill="#D9D9D9"/>
</mask>
<g mask="url(#mask0_178_84)">
<path d="M16.7499 27L16.2499 24.5C15.9166 24.3611 15.6041 24.2153 15.3124 24.0625C15.0208 23.9097 14.7221 23.7222 14.4166 23.5L11.9999 24.25L10.3333 21.4166L12.2499 19.75C12.1944 19.3889 12.1666 19.0278 12.1666 18.6666C12.1666 18.3055 12.1944 17.9444 12.2499 17.5833L10.3333 15.9166L11.9999 13.0833L14.4166 13.8333C14.7221 13.6111 15.0208 13.4236 15.3124 13.2708C15.6041 13.118 15.9166 12.9722 16.2499 12.8333L16.7499 10.3333H20.0833L20.5833 12.8333C20.9166 12.9722 21.2291 13.118 21.5208 13.2708C21.8124 13.4236 22.111 13.6111 22.4166 13.8333L24.8333 13.0833L26.4999 15.9166L24.5833 17.5833C24.6388 17.9444 24.6666 18.3055 24.6666 18.6666C24.6666 19.0278 24.6388 19.3889 24.5833 19.75L26.4999 21.4166L24.8333 24.25L22.4166 23.5C22.111 23.7222 21.8124 23.9097 21.5208 24.0625C21.2291 24.2153 20.9166 24.3611 20.5833 24.5L20.0833 27H16.7499ZM18.4166 22C19.3333 22 20.118 21.6736 20.7708 21.0208C21.4235 20.368 21.7499 19.5833 21.7499 18.6666C21.7499 17.75 21.4235 16.9653 20.7708 16.3125C20.118 15.6597 19.3333 15.3333 18.4166 15.3333C17.4999 15.3333 16.7152 15.6597 16.0624 16.3125C15.4096 16.9653 15.0833 17.75 15.0833 18.6666C15.0833 19.5833 15.4096 20.368 16.0624 21.0208C16.7152 21.6736 17.4999 22 18.4166 22ZM31.6666 45.3333L30.9166 41.8333C30.4444 41.6666 30.0069 41.4653 29.6041 41.2291C29.2013 40.993 28.8055 40.7222 28.4166 40.4166L25.0833 41.5L22.7499 37.5L25.4166 35.1666C25.361 34.6666 25.3333 34.1666 25.3333 33.6666C25.3333 33.1666 25.361 32.6666 25.4166 32.1666L22.7499 29.8333L25.0833 25.8333L28.4166 26.9166C28.8055 26.6111 29.2013 26.3403 29.6041 26.1041C30.0069 25.868 30.4444 25.6666 30.9166 25.5L31.6666 22H36.3333L37.0833 25.5C37.5555 25.6666 37.993 25.868 38.3958 26.1041C38.7985 26.3403 39.1944 26.6111 39.5833 26.9166L42.9166 25.8333L45.2499 29.8333L42.5833 32.1666C42.6388 32.6666 42.6666 33.1666 42.6666 33.6666C42.6666 34.1666 42.6388 34.6666 42.5833 35.1666L45.2499 37.5L42.9166 41.5L39.5833 40.4166C39.1944 40.7222 38.7985 40.993 38.3958 41.2291C37.993 41.4653 37.5555 41.6666 37.0833 41.8333L36.3333 45.3333H31.6666ZM33.9999 38.6666C35.3888 38.6666 36.5694 38.1805 37.5416 37.2083C38.5138 36.2361 38.9999 35.0555 38.9999 33.6666C38.9999 32.2778 38.5138 31.0972 37.5416 30.125C36.5694 29.1528 35.3888 28.6666 33.9999 28.6666C32.611 28.6666 31.4305 29.1528 30.4583 30.125C29.486 31.0972 28.9999 32.2778 28.9999 33.6666C28.9999 35.0555 29.486 36.2361 30.4583 37.2083C31.4305 38.1805 32.611 38.6666 33.9999 38.6666Z" fill="white"/>
</g>
<defs>
<filter id="filter0_i_178_84" x="0" y="0" width="57" height="59" filterUnits="userSpaceOnUse" color-interpolation-filters="sRGB">
<feFlood flood-opacity="0" result="BackgroundImageFix"/>
<feBlend mode="normal" in="SourceGraphic" in2="BackgroundImageFix" result="shape"/>
<feColorMatrix in="SourceAlpha" type="matrix" values="0 0 0 0 0 0 0 0 0 0 0 0 0 0 0 0 0 0 127 0" result="hardAlpha"/>
<feMorphology radius="2" operator="erode" in="SourceAlpha" result="effect1_innerShadow_178_84"/>
<feOffset dx="2" dy="4"/>
<feGaussianBlur stdDeviation="3.85"/>
<feComposite in2="hardAlpha" operator="arithmetic" k2="-1" k3="1"/>
<feColorMatrix type="matrix" values="0 0 0 0 0 0 0 0 0 0 0 0 0 0 0 0 0 0 0.25 0"/>
<feBlend mode="normal" in2="shape" result="effect1_innerShadow_178_84"/>
</filter>
</defs>
</svg>
