<svg width="1200" height="161" viewBox="0 0 1200 161" fill="none" xmlns="http://www.w3.org/2000/svg">
<rect width="1200" height="161" fill="white"/>
<rect x="122" y="30" width="198" height="101" rx="18" fill="#EDF1F5"/>
<path d="M211.728 77.5859V92.3779H210.417V77.5859H211.728ZM203.875 78.7314C206.067 78.748 207.644 80.7402 207.644 83.8779C207.644 87.0156 206.067 89.0078 203.875 89.0078C201.667 89.0078 200.107 87.0156 200.107 83.8779C200.107 80.7402 201.667 78.748 203.875 78.7314ZM203.875 79.8936C202.398 79.9102 201.369 81.4707 201.369 83.8779C201.369 86.2852 202.398 87.8457 203.875 87.8457C205.353 87.8457 206.382 86.2852 206.382 83.8779C206.382 81.4707 205.353 79.9102 203.875 79.8936ZM226.935 77.5859V92.3447H225.673V84.6748H223.665V91.5977H222.419V77.9014H223.665V83.5625H225.673V77.5859H226.935ZM218.618 81.6201C218.618 84.3262 219.73 86.7002 221.838 87.7793L221.058 88.792C219.564 87.9785 218.543 86.5176 218.02 84.708C217.514 86.7666 216.476 88.377 214.916 89.29L214.102 88.2939C216.227 87.1318 217.356 84.6084 217.356 81.6201V80.4414H214.451V79.3457H221.357V80.4414H218.618V81.6201ZM236.647 78.8809V85.7207H229.724V78.8809H236.647ZM231.002 79.96V84.6748H235.369V79.96H231.002ZM241.129 77.6025V88.2109H239.834V77.6025H241.129ZM241.594 90.7676V91.8467H231.6V87.1816H232.895V90.7676H241.594ZM176.807 98.1338C179.015 98.1504 180.625 99.4785 180.625 101.404C180.625 103.33 179.015 104.658 176.807 104.658C174.565 104.658 172.972 103.33 172.972 101.404C172.972 99.4785 174.565 98.1504 176.807 98.1338ZM176.807 99.2295C175.329 99.2295 174.233 100.126 174.25 101.404C174.233 102.699 175.329 103.596 176.807 103.596C178.268 103.596 179.363 102.699 179.363 101.404C179.363 100.126 178.268 99.2295 176.807 99.2295ZM184.809 97.5859V105.173H183.514V97.5859H184.809ZM184.809 105.887V109.439H176.524V111.1H185.34V112.146H175.246V108.46H183.514V106.933H175.213V105.887H184.809ZM192.562 101.554C192.545 104.243 194.388 106.966 196.562 107.945L195.766 108.975C194.089 108.153 192.636 106.418 191.931 104.31C191.242 106.542 189.789 108.402 188.062 109.273L187.232 108.178C189.424 107.165 191.25 104.359 191.267 101.554V98.8643H192.562V101.554ZM199.484 97.5859V112.378H198.173V97.5859H199.484ZM219.522 97.5859V112.345H218.277V104.608H216.103V111.581H214.907V97.918H216.103V103.529H218.277V97.5859H219.522ZM212.981 99.3955V100.475H208.748V107.58C210.782 107.572 212.193 107.497 213.828 107.165L213.944 108.261C212.168 108.626 210.657 108.692 208.399 108.692H207.453V99.3955H212.981ZM233.8 97.5859V112.345H232.488V97.5859H233.8ZM230.396 99.1963V100.275H228.72V107.381C229.55 107.323 230.372 107.248 231.16 107.148L231.243 108.128C228.022 108.626 224.47 108.676 221.73 108.692L221.581 107.58L223.623 107.563V100.275H221.963V99.1963H230.396ZM224.901 107.547C225.731 107.53 226.586 107.497 227.441 107.447V100.275H224.901V107.547ZM241.287 102.118C241.271 104.492 242.98 107.099 245.122 108.111L244.375 109.141C242.715 108.335 241.312 106.576 240.656 104.575C239.976 106.75 238.49 108.659 236.838 109.506L236.041 108.477C238.166 107.447 239.992 104.642 240.009 102.118V100.192H236.572V99.1133H244.607V100.192H241.287V102.118ZM247.712 97.5859V103.562H250.186V104.675H247.712V112.345H246.417V97.5859H247.712ZM269.344 104.608V105.704H255.88V104.608H269.344ZM267.767 102.135V103.197H257.59V98.1836H267.667V99.2793H258.868V102.135H267.767ZM262.604 106.999C265.774 106.999 267.667 107.962 267.684 109.655C267.667 111.365 265.774 112.312 262.604 112.312C259.416 112.312 257.507 111.365 257.507 109.655C257.507 107.962 259.416 106.999 262.604 106.999ZM262.604 108.012C260.229 108.028 258.818 108.626 258.835 109.655C258.818 110.701 260.229 111.282 262.604 111.282C264.944 111.282 266.372 110.701 266.372 109.655C266.372 108.626 264.944 108.028 262.604 108.012Z" fill="#1D1D1D"/>
<path d="M207.061 53.6318V60.9199H199.673V53.6318H207.061ZM201.765 55.3086V59.2432H204.953V55.3086H201.765ZM211.56 52.4365V63.1777H209.435V52.4365H211.56ZM211.958 65.4854V67.1953H201.433V62.1816H203.575V65.4854H211.958ZM226.402 52.4365V63.8418H224.277V62.6465H221.388V61.2021H224.277V52.4365H226.402ZM226.734 65.5684V67.2617H215.478V62.7461H217.586V60.7373C216.233 60.7954 214.947 60.8037 213.801 60.8037L213.552 59.127C216.325 59.1104 220.06 59.0771 223.248 58.6787L223.364 60.1895C222.168 60.3887 220.932 60.5298 219.711 60.6211V63.4932H217.586V65.5684H226.734ZM218.466 52.9512C220.658 52.9346 222.235 54.0469 222.235 55.6572C222.235 57.2676 220.658 58.3135 218.466 58.3135C216.225 58.3135 214.665 57.2676 214.665 55.6572C214.665 54.0469 216.208 52.9346 218.466 52.9512ZM218.466 54.4951C217.387 54.4951 216.657 54.9102 216.673 55.6572C216.657 56.3877 217.387 56.7861 218.466 56.7861C219.479 56.7861 220.209 56.3877 220.226 55.6572C220.209 54.9102 219.479 54.4951 218.466 54.4951ZM240.945 52.4365V63.2939H238.82V52.4365H240.945ZM241.343 65.5684V67.2617H230.818V62.1982H232.959V65.5684H241.343ZM232.661 53.3994C234.985 53.3994 236.794 54.9932 236.794 57.2012C236.794 59.459 234.985 61.0361 232.661 61.0361C230.336 61.0361 228.527 59.459 228.527 57.2012C228.527 54.9932 230.336 53.3994 232.661 53.3994ZM232.661 55.2422C231.482 55.2256 230.585 55.9727 230.602 57.2012C230.585 58.4629 231.482 59.1934 232.661 59.1934C233.806 59.1934 234.703 58.4629 234.703 57.2012C234.703 55.9727 233.806 55.2256 232.661 55.2422Z" fill="#173E99"/>
<rect x="375" y="30" width="198" height="101" rx="18" fill="#EDF1F5"/>
<path d="M437.294 78.5488V79.8438C437.294 81.2466 437.294 82.7656 436.879 84.8906H439.07V85.9697H432.978V92.3779H431.666V85.9697H425.623V84.8906H435.551C435.999 82.7656 435.999 81.2134 435.999 79.8438V79.6279H427.316V78.5488H437.294ZM445.346 80.7568C445.346 82.5996 446.939 84.2432 449.114 84.8906L448.483 85.9033C446.773 85.397 445.404 84.2764 444.748 82.8154C444.101 84.4341 442.756 85.7041 440.996 86.2852L440.365 85.2891C442.54 84.5586 444.067 82.7656 444.067 80.7568V80.4414H440.73V79.3955H444.067V77.5195H445.379V79.3955H448.683V80.4414H445.346V80.7568ZM452.551 77.5859V86.5342H451.239V82.8984H448.218V81.8193H451.239V77.5859H452.551ZM447.653 86.9326C450.725 86.9326 452.601 87.8955 452.601 89.6221C452.601 91.332 450.725 92.3115 447.653 92.3115C444.582 92.3115 442.706 91.332 442.706 89.6221C442.706 87.8955 444.582 86.9326 447.653 86.9326ZM447.653 87.9453C445.396 87.9619 443.984 88.5762 444.001 89.6221C443.984 90.6514 445.396 91.2822 447.653 91.2822C449.928 91.2822 451.306 90.6514 451.306 89.6221C451.306 88.5762 449.928 87.9619 447.653 87.9453ZM457.697 89.8877L456.402 94.4033H455.174L456.087 89.8877H457.697ZM472.257 79.6777C472.24 81.6533 474.88 83.3301 477.453 83.7119L476.972 84.7412C474.664 84.3511 472.423 83.1226 471.526 81.3379C470.63 83.1226 468.38 84.3511 466.114 84.7412L465.6 83.7119C468.156 83.3301 470.796 81.6533 470.796 79.6777V79.5781H466.064V78.5156H476.972V79.5781H472.257V79.6777ZM478.25 86.0029V87.082H472.141V92.3447H470.862V87.082H464.803V86.0029H478.25ZM487.198 78.8809V85.7207H480.275V78.8809H487.198ZM481.554 79.96V84.6748H485.92V79.96H481.554ZM491.681 77.6025V88.2109H490.386V77.6025H491.681ZM492.146 90.7676V91.8467H482.151V87.1816H483.446V90.7676H492.146ZM506.722 77.5859V88.6592H505.477V77.5859H506.722ZM503.816 77.8848V88.2441H502.555V82.417H500.23V81.3379H502.555V77.8848H503.816ZM507.17 90.9336V92.0293H497.043V87.2979H498.338V90.9336H507.17ZM498.554 80.8398C498.554 82.5664 499.633 84.3428 501.509 85.1396L500.778 86.1689C499.417 85.5381 498.446 84.4092 497.956 83.0645C497.417 84.542 496.387 85.8535 494.968 86.5342L494.237 85.5215C496.13 84.625 497.292 82.583 497.292 80.8398V78.6318H498.554V80.8398ZM521.115 77.5859V92.3779H519.82V84.2432H516.699V83.1641H519.82V77.5859H521.115ZM516.45 78.9473V80.0264H510.872V83.0977H515.803V84.1602H510.872V87.7295C513.586 87.7295 515.313 87.6382 517.347 87.2812L517.496 88.3604C515.354 88.709 513.545 88.8086 510.689 88.8086H509.561V78.9473H516.45ZM446.483 109.34V110.419H432.969V109.34H439.012V105.721H440.291V109.34H446.483ZM440.324 99.7275C440.324 102.201 443.246 104.359 445.819 104.808L445.238 105.887C442.988 105.43 440.614 103.903 439.66 101.77C438.688 103.895 436.331 105.43 434.082 105.887L433.5 104.808C436.074 104.359 438.962 102.201 438.962 99.7275V98.5986H440.324V99.7275ZM454.468 106.866C457.506 106.866 459.333 107.862 459.333 109.589C459.333 111.332 457.506 112.328 454.468 112.345C451.43 112.328 449.571 111.332 449.571 109.589C449.571 107.862 451.43 106.866 454.468 106.866ZM454.468 107.896C452.244 107.912 450.866 108.526 450.882 109.589C450.866 110.651 452.244 111.282 454.468 111.282C456.709 111.282 458.071 110.651 458.071 109.589C458.071 108.526 456.709 107.912 454.468 107.896ZM459.2 97.5859V101.305H461.424V102.417H459.2V106.468H457.905V97.5859H459.2ZM449.571 98.5156V100.773H453.871V98.5156H455.166V105.322H448.292V98.5156H449.571ZM449.571 104.26H453.871V101.803H449.571V104.26ZM467.55 101.554C467.55 104.227 469.26 106.916 471.402 107.896L470.622 108.958C468.945 108.095 467.559 106.327 466.903 104.227C466.247 106.435 464.861 108.327 463.184 109.224L462.337 108.178C464.496 107.115 466.222 104.276 466.222 101.554V98.8643H467.55V101.554ZM474.589 97.5859V112.378H473.294V103.695H469.792V102.633H473.294V97.5859H474.589ZM477.412 105.322C477.428 102.185 478.275 99.5781 479.802 97.3535H481.064C479.935 98.9971 478.889 102.367 478.889 105.322C478.889 108.277 479.935 111.631 481.064 113.274H479.802C478.275 111.066 477.428 108.46 477.412 105.322ZM494.179 97.6025V108.51H492.868V104.525H489.049C488.369 105.397 487.273 105.92 486.011 105.92C483.803 105.92 482.176 104.393 482.176 102.234C482.176 100.076 483.803 98.5488 486.011 98.5322C487.265 98.5405 488.335 99.0552 489.033 99.9102H492.868V97.6025H494.179ZM494.594 110.934V112.029H484.7V107.364H486.011V110.934H494.594ZM486.011 99.6943C484.5 99.7109 483.421 100.757 483.421 102.234C483.421 103.712 484.5 104.758 486.011 104.758C487.456 104.758 488.568 103.712 488.568 102.234C488.568 100.757 487.456 99.7109 486.011 99.6943ZM489.63 100.989C489.755 101.371 489.83 101.786 489.83 102.234C489.83 102.666 489.755 103.073 489.63 103.446H492.868V100.989H489.63ZM509.27 97.5859V112.345H508.025V97.5859H509.27ZM506.282 97.9844V111.598H505.037V106.484H502.297V105.405H505.037V102.782H502.546C501.824 105.281 500.206 107.489 497.417 109.157L496.62 108.211C499.832 106.31 501.442 103.646 501.7 100.558H497.284V99.4785H502.995C502.995 100.234 502.928 100.981 502.795 101.703H505.037V97.9844H506.282ZM514.666 105.322C514.649 108.46 513.802 111.066 512.275 113.274H511.013C512.142 111.631 513.188 108.277 513.188 105.322C513.188 102.367 512.142 98.9971 511.013 97.3535H512.275C513.802 99.5781 514.649 102.185 514.666 105.322Z" fill="#1D1D1D"/>
<path d="M456.732 53.2998V54.6611C456.732 56.0723 456.732 57.6162 456.351 59.7246H458.343V61.4346H452.449V67.5439H450.324V61.4346H444.563V59.7246H454.209C454.591 57.7739 454.624 56.2964 454.624 54.9932H446.141V53.2998H456.732ZM472.421 54.3291V56.0225H459.854V54.3291H465.083V52.5693H467.175V54.3291H472.421ZM473.085 64.29V65.9834H459.256V64.29H465.083V62.5469C462.51 62.3311 460.949 61.2686 460.966 59.6084C460.949 57.7822 462.941 56.6699 466.129 56.6865C469.267 56.6699 471.275 57.7822 471.275 59.6084C471.275 61.2686 469.707 62.3311 467.175 62.5469V64.29H473.085ZM466.129 58.3301C464.17 58.3301 463.124 58.7451 463.141 59.6084C463.124 60.5049 464.17 60.9033 466.129 60.9033C468.038 60.9033 469.101 60.5049 469.101 59.6084C469.101 58.7451 468.038 58.3301 466.129 58.3301ZM487.777 64.0244V65.7676H473.948V64.0244H477.036V60.3223C475.866 59.625 475.16 58.5542 475.16 57.2178C475.16 54.7773 477.551 53.1504 480.838 53.1504C484.108 53.1504 486.516 54.7773 486.532 57.2178C486.524 58.521 485.835 59.5835 484.706 60.2891V64.0244H487.777ZM480.838 54.8271C478.68 54.8271 477.252 55.6904 477.252 57.2178C477.252 58.6953 478.68 59.6084 480.838 59.6084C482.979 59.6084 484.424 58.6953 484.44 57.2178C484.424 55.6904 482.979 54.8271 480.838 54.8271ZM479.128 64.0244H482.564V61.0859C482.025 61.1938 481.444 61.252 480.838 61.252C480.232 61.252 479.659 61.2021 479.128 61.0859V64.0244ZM497.257 53.9971V55.6572H494.202C494.219 57.2095 495.364 58.7866 497.788 59.4092L496.809 61.0361C495.09 60.6045 493.878 59.6499 493.189 58.4131C492.534 59.8242 491.322 60.9282 489.537 61.4346L488.541 59.791C490.965 59.1021 492.077 57.3755 492.094 55.6572H489.056V53.9971H492.094V52.3535H494.235V53.9971H497.257ZM501.374 52.4199V61.5508H499.266V58.1641H496.809V56.4707H499.266V52.4199H501.374ZM496.211 61.7998C499.432 61.8164 501.407 62.8291 501.424 64.6387C501.407 66.4648 499.432 67.5273 496.211 67.5273C493.007 67.5273 491.015 66.4648 491.015 64.6387C491.015 62.8291 493.007 61.8164 496.211 61.7998ZM496.211 63.4268C494.202 63.4268 493.123 63.8252 493.123 64.6387C493.123 65.4688 494.202 65.917 496.211 65.917C498.253 65.917 499.315 65.4688 499.315 64.6387C499.315 63.8252 498.253 63.4268 496.211 63.4268Z" fill="#173E99"/>
<rect x="628" y="30" width="198" height="101" rx="18" fill="#EDF1F5"/>
<path d="M698.205 87.6025V98.8584H696.893V95.6875H694.336V94.625H696.893V92.6162H694.336V91.5371H696.893V87.6025H698.205ZM694.336 89.4121V90.4746H685.986V89.4121H689.572V87.5859H690.867V89.4121H694.336ZM690.203 91.2881C692.178 91.2881 693.573 92.417 693.573 94.1104C693.573 95.7871 692.178 96.9326 690.203 96.9326C688.227 96.9326 686.849 95.7871 686.866 94.1104C686.849 92.417 688.227 91.2881 690.203 91.2881ZM690.203 92.3174C688.941 92.334 688.078 93.0479 688.078 94.1104C688.078 95.1729 688.941 95.8867 690.203 95.8867C691.464 95.8867 692.328 95.1729 692.344 94.1104C692.328 93.0479 691.464 92.334 690.203 92.3174ZM698.537 100.934V102.029H688.659V97.8623H689.97V100.934H698.537ZM712.183 87.6025V92.0518H714.391V93.1475H712.183V97.6133H710.872V87.6025H712.183ZM707.418 97.7959C710.49 97.7793 712.266 98.5928 712.283 100.07C712.266 101.548 710.49 102.328 707.418 102.345C704.331 102.328 702.571 101.548 702.571 100.07C702.571 98.5928 704.331 97.7793 707.418 97.7959ZM707.418 98.7754C705.144 98.7588 703.866 99.2402 703.882 100.07C703.866 100.867 705.144 101.349 707.418 101.349C709.676 101.349 710.955 100.867 710.955 100.07C710.955 99.2402 709.676 98.7588 707.418 98.7754ZM700.595 95.8867C701.782 95.8867 703.16 95.8784 704.596 95.8369V94.6582C702.87 94.5171 701.774 93.7451 701.774 92.583C701.774 91.2715 703.135 90.4912 705.227 90.4912C707.335 90.4912 708.68 91.2715 708.697 92.583C708.68 93.7368 707.618 94.5088 705.891 94.6582V95.7705C707.277 95.7124 708.672 95.6045 709.958 95.4219L710.075 96.335C706.904 96.8828 703.368 96.9326 700.745 96.9326L700.595 95.8867ZM709.51 88.8643V89.877H700.96V88.8643H704.596V87.4697H705.891V88.8643H709.51ZM705.227 91.4043C703.866 91.4043 703.019 91.8691 703.019 92.583C703.019 93.3301 703.866 93.7783 705.227 93.7783C706.588 93.7783 707.452 93.3301 707.452 92.583C707.452 91.8691 706.588 91.4043 705.227 91.4043ZM728.735 89.1963V90.2754H727.091V97.3809C727.888 97.3228 728.677 97.2563 729.432 97.165L729.499 98.1279C726.377 98.626 722.841 98.6758 720.235 98.6924L720.069 97.5801L722.061 97.5635V90.2754H720.434V89.1963H728.735ZM731.673 87.5859V93.5127H734.147V94.6084H731.673V102.345H730.378V87.5859H731.673ZM723.323 97.5469C724.145 97.5303 725 97.4971 725.846 97.4473V90.2754H723.323V97.5469ZM739.094 88.4824C741.335 88.4658 742.962 89.9102 742.979 91.9521C742.962 94.0273 741.335 95.4551 739.094 95.4551C736.853 95.4551 735.209 94.0273 735.226 91.9521C735.209 89.9102 736.853 88.4658 739.094 88.4824ZM739.094 89.5947C737.6 89.5947 736.488 90.5576 736.504 91.9521C736.488 93.3633 737.6 94.3428 739.094 94.3262C740.605 94.3428 741.701 93.3633 741.701 91.9521C741.701 90.5576 740.605 89.5947 739.094 89.5947ZM746.482 87.5859V91.4043H748.707V92.5H746.482V96.2852H745.187V87.5859H746.482ZM746.482 97.0488V102.378H745.187V98.1113H736.82V97.0488H746.482ZM767.998 94.6084V95.7041H754.534V94.6084H767.998ZM766.42 92.1348V93.1973H756.244V88.1836H766.321V89.2793H757.522V92.1348H766.42ZM761.257 96.999C764.428 96.999 766.321 97.9619 766.337 99.6553C766.321 101.365 764.428 102.312 761.257 102.312C758.07 102.312 756.161 101.365 756.161 99.6553C756.161 97.9619 758.07 96.999 761.257 96.999ZM761.257 98.0117C758.883 98.0283 757.472 98.626 757.489 99.6553C757.472 100.701 758.883 101.282 761.257 101.282C763.598 101.282 765.026 100.701 765.026 99.6553C765.026 98.626 763.598 98.0283 761.257 98.0117Z" fill="#1D1D1D"/>
<path d="M713.061 53.6318V60.9199H705.673V53.6318H713.061ZM707.765 55.3086V59.2432H710.953V55.3086H707.765ZM717.56 52.4365V63.1777H715.435V52.4365H717.56ZM717.958 65.4854V67.1953H707.433V62.1816H709.575V65.4854H717.958ZM732.402 52.4365V63.8418H730.277V62.6465H727.388V61.2021H730.277V52.4365H732.402ZM732.734 65.5684V67.2617H721.478V62.7461H723.586V60.7373C722.233 60.7954 720.947 60.8037 719.801 60.8037L719.552 59.127C722.325 59.1104 726.06 59.0771 729.248 58.6787L729.364 60.1895C728.168 60.3887 726.932 60.5298 725.711 60.6211V63.4932H723.586V65.5684H732.734ZM724.466 52.9512C726.658 52.9346 728.235 54.0469 728.235 55.6572C728.235 57.2676 726.658 58.3135 724.466 58.3135C722.225 58.3135 720.665 57.2676 720.665 55.6572C720.665 54.0469 722.208 52.9346 724.466 52.9512ZM724.466 54.4951C723.387 54.4951 722.657 54.9102 722.673 55.6572C722.657 56.3877 723.387 56.7861 724.466 56.7861C725.479 56.7861 726.209 56.3877 726.226 55.6572C726.209 54.9102 725.479 54.4951 724.466 54.4951ZM746.945 52.4365V63.2939H744.82V52.4365H746.945ZM747.343 65.5684V67.2617H736.818V62.1982H738.959V65.5684H747.343ZM738.661 53.3994C740.985 53.3994 742.794 54.9932 742.794 57.2012C742.794 59.459 740.985 61.0361 738.661 61.0361C736.336 61.0361 734.527 59.459 734.527 57.2012C734.527 54.9932 736.336 53.3994 738.661 53.3994ZM738.661 55.2422C737.482 55.2256 736.585 55.9727 736.602 57.2012C736.585 58.4629 737.482 59.1934 738.661 59.1934C739.806 59.1934 740.703 58.4629 740.703 57.2012C740.703 55.9727 739.806 55.2256 738.661 55.2422Z" fill="#173E99"/>
<rect x="881" y="30" width="198" height="101" rx="18" fill="#EDF1F5"/>
<path d="M946.257 77.6025V86.0361H944.962V77.6025H946.257ZM946.257 86.833V92.1455H936.662V86.833H946.257ZM937.94 87.8955V91.083H944.979V87.8955H937.94ZM938.289 78.3828C940.53 78.3828 942.157 79.7773 942.157 81.8359C942.157 83.8613 940.53 85.2725 938.289 85.2725C936.047 85.2725 934.42 83.8613 934.42 81.8359C934.42 79.7773 936.047 78.3828 938.289 78.3828ZM938.289 79.4951C936.778 79.4785 935.682 80.458 935.699 81.8359C935.682 83.1973 936.778 84.1602 938.289 84.1602C939.783 84.1602 940.878 83.1973 940.878 81.8359C940.878 80.458 939.783 79.4785 938.289 79.4951ZM954.01 81.5537C953.994 84.2432 955.836 86.9658 958.011 87.9453L957.214 88.9746C955.538 88.1528 954.085 86.418 953.379 84.3096C952.69 86.5425 951.238 88.4019 949.511 89.2734L948.681 88.1777C950.873 87.165 952.699 84.3594 952.715 81.5537V78.8643H954.01V81.5537ZM960.933 77.5859V92.3779H959.622V77.5859H960.933ZM970.911 79.6777C970.894 81.6533 973.534 83.3301 976.107 83.7119L975.625 84.7412C973.318 84.3511 971.077 83.1226 970.18 81.3379C969.284 83.1226 967.034 84.3511 964.768 84.7412L964.253 83.7119C966.81 83.3301 969.45 81.6533 969.45 79.6777V79.5781H964.718V78.5156H975.625V79.5781H970.911V79.6777ZM976.904 86.0029V87.082H970.794V92.3447H969.516V87.082H963.457V86.0029H976.904ZM990.368 77.5859V92.3447H989.073V84.6084H985.553V83.5293H989.073V77.5859H990.368ZM985.586 79.1963C985.586 83.3799 983.81 87.0986 978.879 89.5391L978.166 88.4932C982.167 86.5591 984.018 83.7202 984.275 80.2588H978.813V79.1963H985.586ZM998.087 81.5537C998.071 84.2432 999.914 86.9658 1002.09 87.9453L1001.29 88.9746C999.615 88.1528 998.162 86.418 997.457 84.3096C996.768 86.5425 995.315 88.4019 993.588 89.2734L992.758 88.1777C994.95 87.165 996.776 84.3594 996.792 81.5537V78.8643H998.087V81.5537ZM1005.01 77.5859V92.3779H1003.7V77.5859H1005.01ZM1019.77 77.5859V85.2227H1018.46V81.3877H1015.17V80.3086H1018.46V77.5859H1019.77ZM1019.77 85.9697V89.4893H1011.52V91.0996H1020.32V92.1455H1010.24V88.4932H1018.47V87.0156H1010.21V85.9697H1019.77ZM1012.56 79.4619C1012.55 81.4043 1014.07 83.1641 1016.23 83.8779L1015.54 84.8906C1013.9 84.3096 1012.6 83.1475 1011.95 81.6533C1011.32 83.3384 1009.98 84.625 1008.23 85.2559L1007.52 84.21C1009.74 83.4795 1011.27 81.6201 1011.29 79.4619V78.0674H1012.56V79.4619ZM1024.92 89.8877L1023.62 94.4033H1022.39L1023.31 89.8877H1024.92ZM921.33 100.524C921.33 102.151 922.476 103.812 924.368 104.525L923.688 105.521C922.268 104.974 921.247 103.919 920.716 102.649C920.168 104.061 919.114 105.314 917.661 105.937L916.947 104.924C918.89 104.077 920.085 102.168 920.085 100.524V98.5156H921.33V100.524ZM929.465 97.6025V106.717H928.22V102.649H926.261V106.252H925.032V97.8848H926.261V101.57H928.22V97.6025H929.465ZM924.584 107.049C927.639 107.049 929.548 108.012 929.548 109.688C929.548 111.349 927.639 112.312 924.584 112.312C921.513 112.312 919.62 111.349 919.637 109.688C919.62 108.012 921.513 107.049 924.584 107.049ZM924.584 108.045C922.326 108.045 920.915 108.659 920.932 109.688C920.915 110.701 922.326 111.299 924.584 111.299C926.825 111.299 928.236 110.701 928.253 109.688C928.236 108.659 926.825 108.045 924.584 108.045ZM943.145 97.5859V101.371H945.353V102.483H943.145V106.302H941.833V97.5859H943.145ZM943.145 106.966V109.938H934.86V111.249H943.709V112.179H933.565V109.058H941.85V107.896H933.532V106.966H943.145ZM931.557 104.974C932.735 104.974 934.113 104.974 935.558 104.924V104.011C933.831 103.886 932.735 103.197 932.735 102.068C932.735 100.856 934.097 100.159 936.188 100.159C938.297 100.159 939.642 100.856 939.658 102.068C939.642 103.189 938.579 103.878 936.853 104.011V104.891C938.23 104.824 939.625 104.716 940.92 104.525L941.036 105.405C937.849 105.92 934.296 105.953 931.706 105.953L931.557 104.974ZM940.472 98.7148V99.6611H931.922V98.7148H935.558V97.4531H936.853V98.7148H940.472ZM936.188 101.022C934.827 101.039 933.98 101.421 933.98 102.068C933.98 102.732 934.827 103.164 936.188 103.164C937.55 103.164 938.413 102.732 938.413 102.068C938.413 101.421 937.55 101.039 936.188 101.022ZM958.518 97.5859V105.256H957.206V97.5859H958.518ZM958.518 105.97V109.489H950.184V111.116H959.082V112.179H948.905V108.51H957.223V107.016H948.855V105.97H958.518ZM954.965 98.5986V99.6445H953.471V103.413C954.234 103.372 954.99 103.297 955.695 103.214L955.762 104.177C952.807 104.608 949.337 104.725 946.73 104.725L946.564 103.646L948.457 103.629V99.6445H946.979V98.5986H954.965ZM949.719 103.596C950.532 103.579 951.371 103.554 952.209 103.496V99.6445H949.719V103.596ZM968.412 98.9639C968.412 101.039 971.135 102.849 973.791 103.214L973.26 104.276C970.969 103.895 968.703 102.625 967.748 100.807C966.802 102.633 964.527 103.895 962.236 104.276L961.705 103.214C964.361 102.849 967.067 101.072 967.067 98.9639V98.1172H968.412V98.9639ZM974.455 105.903V106.999H968.346V112.345H967.067V106.999H961.008V105.903H974.455ZM989.147 104.725V105.804H983.055V107.547H987.504V112.146H977.344V107.547H981.776V105.804H975.7V104.725H989.147ZM987.869 98.0674V99.1465H985.595V102.251H987.819V103.33H977.012V102.251H979.236V99.1465H976.962V98.0674H987.869ZM978.639 108.576V111.083H986.226V108.576H978.639ZM980.531 102.251H984.3V99.1465H980.531V102.251ZM1008.75 104.608V105.704H995.29V104.608H1008.75ZM1007.18 102.135V103.197H997V98.1836H1007.08V99.2793H998.278V102.135H1007.18ZM1002.01 106.999C1005.18 106.999 1007.08 107.962 1007.09 109.655C1007.08 111.365 1005.18 112.312 1002.01 112.312C998.826 112.312 996.917 111.365 996.917 109.655C996.917 107.962 998.826 106.999 1002.01 106.999ZM1002.01 108.012C999.64 108.028 998.229 108.626 998.245 109.655C998.229 110.701 999.64 111.282 1002.01 111.282C1004.35 111.282 1005.78 110.701 1005.78 109.655C1005.78 108.626 1004.35 108.028 1002.01 108.012ZM1020.16 102.118C1020.16 104.625 1021.99 107.165 1024.16 108.111L1023.43 109.141C1021.7 108.352 1020.21 106.65 1019.53 104.608C1018.83 106.775 1017.35 108.659 1015.66 109.506L1014.88 108.477C1016.99 107.464 1018.83 104.675 1018.85 102.118V100.192H1015.36V99.1133H1023.68V100.192H1020.16V102.118ZM1027.05 97.5859V112.345H1025.74V97.5859H1027.05ZM1041.74 97.6025V108.809H1040.43V107.281H1037.38V106.335H1040.43V97.6025H1041.74ZM1042.11 110.934V112.029H1031.61V107.713H1032.93V110.934H1042.11ZM1029.49 104.442C1032.25 104.426 1035.93 104.409 1039.1 104.011L1039.18 104.957C1037.86 105.165 1036.49 105.297 1035.13 105.372V108.294H1033.82V105.438C1032.33 105.505 1030.91 105.513 1029.67 105.505L1029.49 104.442ZM1034.34 98.2002C1036.5 98.2002 1037.97 99.2295 1037.99 100.773C1037.97 102.351 1036.5 103.33 1034.34 103.33C1032.16 103.33 1030.68 102.351 1030.68 100.773C1030.68 99.2295 1032.16 98.2002 1034.34 98.2002ZM1034.34 99.1963C1032.89 99.1797 1031.91 99.8271 1031.93 100.773C1031.91 101.736 1032.89 102.367 1034.34 102.367C1035.73 102.367 1036.73 101.736 1036.74 100.773C1036.73 99.8271 1035.73 99.1797 1034.34 99.1963Z" fill="#1D1D1D"/>
<path d="M966.061 53.6318V60.9199H958.673V53.6318H966.061ZM960.765 55.3086V59.2432H963.953V55.3086H960.765ZM970.56 52.4365V63.1777H968.435V52.4365H970.56ZM970.958 65.4854V67.1953H960.433V62.1816H962.575V65.4854H970.958ZM985.402 52.4365V63.8418H983.277V62.6465H980.388V61.2021H983.277V52.4365H985.402ZM985.734 65.5684V67.2617H974.478V62.7461H976.586V60.7373C975.233 60.7954 973.947 60.8037 972.801 60.8037L972.552 59.127C975.325 59.1104 979.06 59.0771 982.248 58.6787L982.364 60.1895C981.168 60.3887 979.932 60.5298 978.711 60.6211V63.4932H976.586V65.5684H985.734ZM977.466 52.9512C979.658 52.9346 981.235 54.0469 981.235 55.6572C981.235 57.2676 979.658 58.3135 977.466 58.3135C975.225 58.3135 973.665 57.2676 973.665 55.6572C973.665 54.0469 975.208 52.9346 977.466 52.9512ZM977.466 54.4951C976.387 54.4951 975.657 54.9102 975.673 55.6572C975.657 56.3877 976.387 56.7861 977.466 56.7861C978.479 56.7861 979.209 56.3877 979.226 55.6572C979.209 54.9102 978.479 54.4951 977.466 54.4951ZM999.945 52.4365V63.2939H997.82V52.4365H999.945ZM1000.34 65.5684V67.2617H989.818V62.1982H991.959V65.5684H1000.34ZM991.661 53.3994C993.985 53.3994 995.794 54.9932 995.794 57.2012C995.794 59.459 993.985 61.0361 991.661 61.0361C989.336 61.0361 987.527 59.459 987.527 57.2012C987.527 54.9932 989.336 53.3994 991.661 53.3994ZM991.661 55.2422C990.482 55.2256 989.585 55.9727 989.602 57.2012C989.585 58.4629 990.482 59.1934 991.661 59.1934C992.806 59.1934 993.703 58.4629 993.703 57.2012C993.703 55.9727 992.806 55.2256 991.661 55.2422Z" fill="#173E99"/>
<path d="M312 81C312 85.4183 315.582 89 320 89C324.418 89 328 85.4183 328 81C328 76.5817 324.418 73 320 73C315.582 73 312 76.5817 312 81ZM375.5 81L360.5 72.3397V89.6603L375.5 81ZM320 82.5H362V79.5H320V82.5Z" fill="#5286FF"/>
<path d="M565 81C565 85.4183 568.582 89 573 89C577.418 89 581 85.4183 581 81C581 76.5817 577.418 73 573 73C568.582 73 565 76.5817 565 81ZM628.5 81L613.5 72.3397V89.6603L628.5 81ZM573 82.5H615V79.5H573V82.5Z" fill="#5286FF"/>
<path d="M818 81C818 85.4183 821.582 89 826 89C830.418 89 834 85.4183 834 81C834 76.5817 830.418 73 826 73C821.582 73 818 76.5817 818 81ZM881.5 81L866.5 72.3397V89.6603L881.5 81ZM826 82.5H868V79.5H826V82.5Z" fill="#5286FF"/>
</svg>
