<svg width="1200" height="161" viewBox="0 0 1200 161" fill="none" xmlns="http://www.w3.org/2000/svg">
<rect width="1200" height="161" fill="white"/>
<rect x="122" y="30" width="198" height="101" rx="18" fill="#EDF1F5"/>
<path d="M197.044 78.665C199.368 78.665 201.012 80.0762 201.012 82.1348C201.012 84.1934 199.368 85.6045 197.044 85.6045C194.72 85.6045 193.043 84.1934 193.06 82.1348C193.043 80.0762 194.72 78.665 197.044 78.665ZM197.044 79.8105C195.467 79.8105 194.321 80.7568 194.338 82.1348C194.321 83.5127 195.467 84.459 197.044 84.459C198.604 84.459 199.733 83.5127 199.733 82.1348C199.733 80.7568 198.604 79.8105 197.044 79.8105ZM204.315 77.5859V92.3779H203.021V77.5859H204.315ZM192.296 88.0117C195.019 88.0117 198.771 87.9951 202.041 87.5137L202.141 88.4766C198.771 89.1074 195.135 89.124 192.479 89.124L192.296 88.0117ZM211.853 81.5537C211.853 84.1602 213.579 86.833 215.671 87.8623L214.874 88.9082C213.247 88.0532 211.886 86.3101 211.238 84.2598C210.574 86.4429 209.18 88.3022 207.52 89.1904L206.689 88.1445C208.848 87.082 210.558 84.2432 210.574 81.5537V78.8643H211.853V81.5537ZM218.327 77.5859V83.5791H220.801V84.708H218.327V92.3447H217.032V77.5859H218.327ZM226.528 79.9766C226.528 81.9854 228.056 83.8281 230.197 84.5586L229.483 85.5879C227.848 84.9902 226.562 83.77 225.914 82.2344C225.283 83.9692 223.972 85.3389 222.245 86.0029L221.548 84.957C223.756 84.127 225.233 82.1514 225.25 79.877V78.3496H226.528V79.9766ZM233.136 77.5859V81.4375H235.36V82.5332H233.136V86.5674H231.841V77.5859H233.136ZM228.404 86.9492C231.442 86.9492 233.269 87.9287 233.269 89.6221C233.269 91.3486 231.442 92.3115 228.404 92.3115C225.366 92.3115 223.507 91.3486 223.507 89.6221C223.507 87.9287 225.366 86.9492 228.404 86.9492ZM228.404 87.9951C226.18 87.9951 224.802 88.6094 224.818 89.6221C224.802 90.668 226.18 91.2656 228.404 91.2822C230.646 91.2656 232.007 90.668 232.007 89.6221C232.007 88.6094 230.646 87.9951 228.404 87.9951ZM241.287 82.1182C241.271 84.4922 242.98 87.0986 245.122 88.1113L244.375 89.1406C242.715 88.3354 241.312 86.5757 240.656 84.5752C239.976 86.75 238.49 88.6592 236.838 89.5059L236.041 88.4766C238.166 87.4473 239.992 84.6416 240.009 82.1182V80.1924H236.572V79.1133H244.607V80.1924H241.287V82.1182ZM247.712 77.5859V83.5625H250.186V84.6748H247.712V92.3447H246.417V77.5859H247.712ZM187.257 97.6025V108.394H185.962V97.6025H187.257ZM187.722 110.934V112.029H177.728V107.298H179.023V110.934H187.722ZM179.289 98.6318C181.497 98.6318 183.157 100.126 183.157 102.251C183.157 104.409 181.497 105.887 179.289 105.887C177.081 105.887 175.42 104.409 175.42 102.251C175.42 100.126 177.081 98.6318 179.289 98.6318ZM179.289 99.7773C177.794 99.7773 176.682 100.807 176.699 102.251C176.682 103.729 177.794 104.741 179.289 104.741C180.75 104.741 181.878 103.729 181.878 102.251C181.878 100.807 180.75 99.7773 179.289 99.7773ZM202 97.5859V106.385H200.688V102.517H197.716V101.438H200.688V97.5859H202ZM197.102 106.85C200.173 106.85 202.049 107.846 202.049 109.589C202.049 111.332 200.173 112.328 197.102 112.345C194.031 112.328 192.155 111.332 192.155 109.589C192.155 107.846 194.031 106.85 197.102 106.85ZM197.102 107.862C194.844 107.862 193.433 108.51 193.45 109.589C193.433 110.651 194.844 111.299 197.102 111.299C199.36 111.299 200.754 110.651 200.754 109.589C200.754 108.51 199.36 107.862 197.102 107.862ZM194.894 100.292C194.894 102.218 196.372 104.044 198.53 104.791L197.849 105.837C196.189 105.239 194.902 104.002 194.28 102.467C193.632 104.202 192.263 105.588 190.511 106.252L189.831 105.206C192.022 104.409 193.583 102.417 193.583 100.309V99.7607H190.246V98.665H198.198V99.7607H194.894V100.292ZM216.642 97.6025V108.427H215.347V97.6025H216.642ZM217.107 110.934V112.029H207.113V107.431H208.408V110.934H217.107ZM209.686 99.9102C209.669 102.151 211.213 104.177 213.405 104.974L212.724 106.02C211.014 105.364 209.686 104.036 209.039 102.334C208.383 104.144 207.038 105.596 205.32 106.285L204.606 105.272C206.847 104.409 208.358 102.234 208.358 99.9102V98.4326H209.686V99.9102ZM224.179 100.757C224.179 102.6 225.773 104.243 227.948 104.891L227.317 105.903C225.607 105.397 224.237 104.276 223.582 102.815C222.934 104.434 221.589 105.704 219.83 106.285L219.199 105.289C221.374 104.559 222.901 102.766 222.901 100.757V100.441H219.564V99.3955H222.901V97.5195H224.212V99.3955H227.516V100.441H224.179V100.757ZM231.384 97.5859V106.534H230.073V102.898H227.051V101.819H230.073V97.5859H231.384ZM226.487 106.933C229.558 106.933 231.434 107.896 231.434 109.622C231.434 111.332 229.558 112.312 226.487 112.312C223.416 112.312 221.54 111.332 221.54 109.622C221.54 107.896 223.416 106.933 226.487 106.933ZM226.487 107.945C224.229 107.962 222.818 108.576 222.834 109.622C222.818 110.651 224.229 111.282 226.487 111.282C228.761 111.282 230.139 110.651 230.139 109.622C230.139 108.576 228.761 107.962 226.487 107.945ZM239.038 101.554C239.038 104.227 240.748 106.916 242.889 107.896L242.109 108.958C240.432 108.095 239.046 106.327 238.39 104.227C237.734 106.435 236.348 108.327 234.671 109.224L233.825 108.178C235.983 107.115 237.709 104.276 237.709 101.554V98.8643H239.038V101.554ZM246.077 97.5859V112.378H244.782V103.695H241.279V102.633H244.782V97.5859H246.077ZM266.895 104.608V105.704H253.431V104.608H266.895ZM265.318 102.135V103.197H255.141V98.1836H265.218V99.2793H256.419V102.135H265.318ZM260.155 106.999C263.326 106.999 265.218 107.962 265.235 109.655C265.218 111.365 263.326 112.312 260.155 112.312C256.967 112.312 255.058 111.365 255.058 109.655C255.058 107.962 256.967 106.999 260.155 106.999ZM260.155 108.012C257.781 108.028 256.37 108.626 256.386 109.655C256.37 110.701 257.781 111.282 260.155 111.282C262.496 111.282 263.923 110.701 263.923 109.655C263.923 108.626 262.496 108.028 260.155 108.012Z" fill="#1D1D1D"/>
<path d="M207.061 53.6318V60.9199H199.673V53.6318H207.061ZM201.765 55.3086V59.2432H204.953V55.3086H201.765ZM211.56 52.4365V63.1777H209.435V52.4365H211.56ZM211.958 65.4854V67.1953H201.433V62.1816H203.575V65.4854H211.958ZM226.402 52.4365V63.8418H224.277V62.6465H221.388V61.2021H224.277V52.4365H226.402ZM226.734 65.5684V67.2617H215.478V62.7461H217.586V60.7373C216.233 60.7954 214.947 60.8037 213.801 60.8037L213.552 59.127C216.325 59.1104 220.06 59.0771 223.248 58.6787L223.364 60.1895C222.168 60.3887 220.932 60.5298 219.711 60.6211V63.4932H217.586V65.5684H226.734ZM218.466 52.9512C220.658 52.9346 222.235 54.0469 222.235 55.6572C222.235 57.2676 220.658 58.3135 218.466 58.3135C216.225 58.3135 214.665 57.2676 214.665 55.6572C214.665 54.0469 216.208 52.9346 218.466 52.9512ZM218.466 54.4951C217.387 54.4951 216.657 54.9102 216.673 55.6572C216.657 56.3877 217.387 56.7861 218.466 56.7861C219.479 56.7861 220.209 56.3877 220.226 55.6572C220.209 54.9102 219.479 54.4951 218.466 54.4951ZM240.945 52.4365V63.2939H238.82V52.4365H240.945ZM241.343 65.5684V67.2617H230.818V62.1982H232.959V65.5684H241.343ZM232.661 53.3994C234.985 53.3994 236.794 54.9932 236.794 57.2012C236.794 59.459 234.985 61.0361 232.661 61.0361C230.336 61.0361 228.527 59.459 228.527 57.2012C228.527 54.9932 230.336 53.3994 232.661 53.3994ZM232.661 55.2422C231.482 55.2256 230.585 55.9727 230.602 57.2012C230.585 58.4629 231.482 59.1934 232.661 59.1934C233.806 59.1934 234.703 58.4629 234.703 57.2012C234.703 55.9727 233.806 55.2256 232.661 55.2422Z" fill="#173E99"/>
<rect x="375" y="30" width="198" height="101" rx="18" fill="#EDF1F5"/>
<path d="M435.767 91.5537C435.75 94.2432 437.593 96.9658 439.768 97.9453L438.971 98.9746C437.294 98.1528 435.841 96.418 435.136 94.3096C434.447 96.5425 432.994 98.4019 431.268 99.2734L430.438 98.1777C432.629 97.165 434.455 94.3594 434.472 91.5537V88.8643H435.767V91.5537ZM442.689 87.5859V102.378H441.378V87.5859H442.689ZM451.97 96.0693C451.389 96.0693 450.891 95.5879 450.907 94.9902C450.891 94.4092 451.389 93.9277 451.97 93.9277C452.551 93.9277 453.032 94.4092 453.032 94.9902C453.032 95.5879 452.551 96.0693 451.97 96.0693ZM471.643 88.3828V89.5449C471.643 90.79 471.643 92.2012 471.277 94.127H473.419V95.1729H467.343V98.7422H466.064V95.1729H459.905V94.127H469.949C470.348 92.1929 470.348 90.79 470.348 89.5449V89.4619H461.615V88.3828H471.643ZM471.958 100.934V102.029H461.615V97.4141H462.927V100.934H471.958ZM481.354 96.0693C480.773 96.0693 480.275 95.5879 480.292 94.9902C480.275 94.4092 480.773 93.9277 481.354 93.9277C481.936 93.9277 482.417 94.4092 482.417 94.9902C482.417 95.5879 481.936 96.0693 481.354 96.0693ZM500.961 88.5488V89.8438C500.961 91.2466 500.961 92.7656 500.546 94.8906H502.737V95.9697H496.645V102.378H495.333V95.9697H489.29V94.8906H499.218C499.666 92.7656 499.666 91.2134 499.666 89.8438V89.6279H490.983V88.5488H500.961ZM509.013 90.7568C509.013 92.5996 510.606 94.2432 512.781 94.8906L512.15 95.9033C510.44 95.397 509.071 94.2764 508.415 92.8154C507.768 94.4341 506.423 95.7041 504.663 96.2852L504.032 95.2891C506.207 94.5586 507.734 92.7656 507.734 90.7568V90.4414H504.397V89.3955H507.734V87.5195H509.046V89.3955H512.35V90.4414H509.013V90.7568ZM516.218 87.5859V96.5342H514.906V92.8984H511.885V91.8193H514.906V87.5859H516.218ZM511.32 96.9326C514.392 96.9326 516.268 97.8955 516.268 99.6221C516.268 101.332 514.392 102.312 511.32 102.312C508.249 102.312 506.373 101.332 506.373 99.6221C506.373 97.8955 508.249 96.9326 511.32 96.9326ZM511.32 97.9453C509.062 97.9619 507.651 98.5762 507.668 99.6221C507.651 100.651 509.062 101.282 511.32 101.282C513.595 101.282 514.973 100.651 514.973 99.6221C514.973 98.5762 513.595 97.9619 511.32 97.9453Z" fill="#1D1D1D"/>
<path d="M456.732 53.2998V54.6611C456.732 56.0723 456.732 57.6162 456.351 59.7246H458.343V61.4346H452.449V67.5439H450.324V61.4346H444.563V59.7246H454.209C454.591 57.7739 454.624 56.2964 454.624 54.9932H446.141V53.2998H456.732ZM472.421 54.3291V56.0225H459.854V54.3291H465.083V52.5693H467.175V54.3291H472.421ZM473.085 64.29V65.9834H459.256V64.29H465.083V62.5469C462.51 62.3311 460.949 61.2686 460.966 59.6084C460.949 57.7822 462.941 56.6699 466.129 56.6865C469.267 56.6699 471.275 57.7822 471.275 59.6084C471.275 61.2686 469.707 62.3311 467.175 62.5469V64.29H473.085ZM466.129 58.3301C464.17 58.3301 463.124 58.7451 463.141 59.6084C463.124 60.5049 464.17 60.9033 466.129 60.9033C468.038 60.9033 469.101 60.5049 469.101 59.6084C469.101 58.7451 468.038 58.3301 466.129 58.3301ZM487.777 64.0244V65.7676H473.948V64.0244H477.036V60.3223C475.866 59.625 475.16 58.5542 475.16 57.2178C475.16 54.7773 477.551 53.1504 480.838 53.1504C484.108 53.1504 486.516 54.7773 486.532 57.2178C486.524 58.521 485.835 59.5835 484.706 60.2891V64.0244H487.777ZM480.838 54.8271C478.68 54.8271 477.252 55.6904 477.252 57.2178C477.252 58.6953 478.68 59.6084 480.838 59.6084C482.979 59.6084 484.424 58.6953 484.44 57.2178C484.424 55.6904 482.979 54.8271 480.838 54.8271ZM479.128 64.0244H482.564V61.0859C482.025 61.1938 481.444 61.252 480.838 61.252C480.232 61.252 479.659 61.2021 479.128 61.0859V64.0244ZM497.257 53.9971V55.6572H494.202C494.219 57.2095 495.364 58.7866 497.788 59.4092L496.809 61.0361C495.09 60.6045 493.878 59.6499 493.189 58.4131C492.534 59.8242 491.322 60.9282 489.537 61.4346L488.541 59.791C490.965 59.1021 492.077 57.3755 492.094 55.6572H489.056V53.9971H492.094V52.3535H494.235V53.9971H497.257ZM501.374 52.4199V61.5508H499.266V58.1641H496.809V56.4707H499.266V52.4199H501.374ZM496.211 61.7998C499.432 61.8164 501.407 62.8291 501.424 64.6387C501.407 66.4648 499.432 67.5273 496.211 67.5273C493.007 67.5273 491.015 66.4648 491.015 64.6387C491.015 62.8291 493.007 61.8164 496.211 61.7998ZM496.211 63.4268C494.202 63.4268 493.123 63.8252 493.123 64.6387C493.123 65.4688 494.202 65.917 496.211 65.917C498.253 65.917 499.315 65.4688 499.315 64.6387C499.315 63.8252 498.253 63.4268 496.211 63.4268Z" fill="#173E99"/>
<rect x="628" y="30" width="198" height="101" rx="18" fill="#EDF1F5"/>
<path d="M704.38 99.373V100.452H690.867V99.373H696.943V96.1855H692.46V88.6318H693.772V91.3047H701.442V88.6318H702.72V96.1855H698.221V99.373H704.38ZM693.772 95.123H701.442V92.3672H693.772V95.123ZM717.794 87.6025V98.5098H716.483V93.2471H713.212V92.1514H716.483V87.6025H717.794ZM713.279 88.7314C713.262 92.5166 710.556 95.4053 706.356 96.7832L705.792 95.7373C709.195 94.6167 711.561 92.5 711.851 89.8271H706.539V88.7314H713.279ZM718.176 100.934V102.029H708.398V97.3975H709.726V100.934H718.176ZM733.699 95.2227V96.3018H720.251V95.2227H726.328V93.4463H722.044V87.9346H723.339V89.6445H730.644V87.9346H731.939V93.4463H727.623V95.2227H733.699ZM732.039 97.7627V102.345H730.727V98.8086H721.746V97.7627H732.039ZM723.339 92.4004H730.644V90.6406H723.339V92.4004ZM740.223 92.1182C740.223 94.625 742.049 97.165 744.224 98.1113L743.494 99.1406C741.767 98.3521 740.273 96.6504 739.592 94.6084C738.895 96.7749 737.409 98.6592 735.724 99.5059L734.944 98.4766C737.052 97.4639 738.895 94.6748 738.912 92.1182V90.1924H735.425V89.1133H743.743V90.1924H740.223V92.1182ZM747.113 87.5859V102.345H745.801V87.5859H747.113ZM763.133 96.3516V97.4141H756.974V102.345H755.696V97.4141H749.62V96.3516H763.133ZM752.641 88.2002V90.2422H760.079V88.2002H761.39V94.5586H751.346V88.2002H752.641ZM752.641 93.4961H760.079V91.3047H752.641V93.4961Z" fill="#1D1D1D"/>
<path d="M702.368 52.4365V60.9531H700.243V52.4365H702.368ZM702.368 61.6504V67.3613H692.241V61.6504H702.368ZM694.333 63.3271V65.668H700.292V63.3271H694.333ZM695.511 54.4453C695.495 56.2881 696.607 58.0312 699.047 58.7949L698.018 60.4053C696.292 59.8989 695.096 58.853 694.416 57.5C693.727 58.9692 692.498 60.1313 690.697 60.6875L689.667 59.0273C692.191 58.2637 693.303 56.3379 693.303 54.4453V52.9844H695.511V54.4453ZM709.971 55.8398C709.955 58.5459 711.117 61.2852 713.541 62.4473L712.262 64.1406C710.644 63.3438 709.556 61.8496 708.925 60.0234C708.27 61.9824 707.099 63.5845 705.389 64.4229L704.078 62.7129C706.634 61.5342 707.846 58.6455 707.846 55.8398V53.582H709.971V55.8398ZM716.33 52.4199V58.2471H718.554V60.04H716.33V67.5273H714.205V52.4199H716.33ZM726.008 61.3848C725.228 61.3848 724.597 60.7539 724.614 59.9902C724.597 59.2266 725.228 58.6123 726.008 58.6123C726.739 58.6123 727.386 59.2266 727.386 59.9902C727.386 60.7539 726.739 61.3848 726.008 61.3848ZM746.528 52.4199V60.0234H744.419V58.8613H740.966V57.251H744.419V55.9229H741.132C740.194 58.1973 738.036 59.6499 734.691 60.3721L733.977 58.6455C737.438 57.9565 739.041 56.5288 739.323 54.7109H734.824V53.001H741.664C741.664 53.4575 741.63 53.8975 741.564 54.3125H744.419V52.4199H746.528ZM746.528 60.5713V64.7051H738.625V65.7012H746.86V67.3779H736.5V63.1445H744.403V62.2314H736.484V60.5713H746.528ZM761.22 52.4199V61.3848H759.112V57.8154H756.754V56.1055H759.112V52.4199H761.22ZM756.057 61.7168C759.278 61.7334 761.253 62.7959 761.27 64.6387C761.253 66.4648 759.278 67.5439 756.057 67.5439C752.836 67.5439 750.861 66.4648 750.861 64.6387C750.861 62.7959 752.836 61.7334 756.057 61.7168ZM756.057 63.3438C754.048 63.3438 752.969 63.7588 752.969 64.6387C752.969 65.502 754.048 65.9336 756.057 65.9336C758.066 65.9336 759.162 65.502 759.162 64.6387C759.162 63.7588 758.066 63.3438 756.057 63.3438ZM757.203 53.333V55.0264H754.198C754.248 56.7861 755.31 58.5625 757.667 59.3428L756.622 61.0029C754.953 60.4634 753.808 59.3677 753.152 57.998C752.479 59.542 751.276 60.7871 749.483 61.4014L748.387 59.7246C750.869 58.8945 751.981 56.9189 752.04 55.0264H749.001V53.333H757.203Z" fill="#173E99"/>
<rect x="881" y="30" width="198" height="101" rx="18" fill="#EDF1F5"/>
<path d="M945.137 99.373V100.452H931.623V99.373H937.699V96.1855H933.217V88.6318H934.528V91.3047H942.198V88.6318H943.477V96.1855H938.978V99.373H945.137ZM934.528 95.123H942.198V92.3672H934.528V95.123ZM951.246 89.9766C951.246 91.9854 952.773 93.8281 954.915 94.5586L954.201 95.5879C952.566 94.9902 951.279 93.77 950.632 92.2344C950.001 93.9692 948.689 95.3389 946.963 96.0029L946.266 94.957C948.474 94.127 949.951 92.1514 949.968 89.877V88.3496H951.246V89.9766ZM957.854 87.5859V91.4375H960.078V92.5332H957.854V96.5674H956.559V87.5859H957.854ZM953.122 96.9492C956.16 96.9492 957.986 97.9287 957.986 99.6221C957.986 101.349 956.16 102.312 953.122 102.312C950.084 102.312 948.225 101.349 948.225 99.6221C948.225 97.9287 950.084 96.9492 953.122 96.9492ZM953.122 97.9951C950.897 97.9951 949.52 98.6094 949.536 99.6221C949.52 100.668 950.897 101.266 953.122 101.282C955.363 101.266 956.725 100.668 956.725 99.6221C956.725 98.6094 955.363 97.9951 953.122 97.9951ZM972.745 88.3828V89.4785C972.745 90.624 972.745 91.9688 972.363 93.8115H974.521V94.8906H961.008V93.8115H971.052C971.45 91.9604 971.45 90.624 971.45 89.4785V89.4619H962.718V88.3828H972.745ZM972.812 96.9326V102.146H962.668V96.9326H972.812ZM963.963 97.9619V101.083H971.517V97.9619H963.963ZM985.877 92.1182C985.877 94.625 987.703 97.165 989.878 98.1113L989.147 99.1406C987.421 98.3521 985.927 96.6504 985.246 94.6084C984.549 96.7749 983.063 98.6592 981.378 99.5059L980.598 98.4766C982.706 97.4639 984.549 94.6748 984.565 92.1182V90.1924H981.079V89.1133H989.396V90.1924H985.877V92.1182ZM992.767 87.5859V102.345H991.455V87.5859H992.767ZM998.345 96.0361V97.9951H1005.73V96.0361H1007.03V102.146H997.05V96.0361H998.345ZM998.345 101.083H1005.73V99.0244H998.345V101.083ZM1007.03 88.2666V89.3457C1007.03 90.4746 1007.03 91.7861 1006.63 93.6289H1008.8V94.708H995.29V93.6289H1005.35C1005.73 91.7944 1005.73 90.4746 1005.73 89.3457H997V88.2666H1007.03ZM1028.34 94.6084V95.7041H1014.88V94.6084H1028.34ZM1026.77 92.1348V93.1973H1016.59V88.1836H1026.67V89.2793H1017.87V92.1348H1026.77ZM1021.6 96.999C1024.77 96.999 1026.67 97.9619 1026.68 99.6553C1026.67 101.365 1024.77 102.312 1021.6 102.312C1018.42 102.312 1016.51 101.365 1016.51 99.6553C1016.51 97.9619 1018.42 96.999 1021.6 96.999ZM1021.6 98.0117C1019.23 98.0283 1017.82 98.626 1017.83 99.6553C1017.82 100.701 1019.23 101.282 1021.6 101.282C1023.94 101.282 1025.37 100.701 1025.37 99.6553C1025.37 98.626 1023.94 98.0283 1021.6 98.0117Z" fill="#1D1D1D"/>
<path d="M970.616 56.5371C970.616 58.9775 971.861 61.584 974.401 62.6465L973.256 64.3066C971.471 63.5513 970.243 62.0488 969.57 60.2061C968.881 62.2065 967.628 63.8667 965.852 64.6885L964.64 63.0117C967.146 61.8994 968.441 59.0938 968.441 56.5371V55.6074H965.237V53.8809H973.771V55.6074H970.616V56.5371ZM977.406 52.4199V67.5273H975.265V52.4199H977.406ZM983.184 61.0195V62.6299H989.476V61.0195H991.567V67.3613H981.108V61.0195H983.184ZM983.184 65.6514H989.476V64.2402H983.184V65.6514ZM991.634 53.0342V54.2461C991.634 55.3916 991.634 56.6201 991.285 58.3301H993.277V60.0234H979.448V58.3301H989.177C989.476 56.8691 989.517 55.7319 989.525 54.7275H981.142V53.0342H991.634Z" fill="#173E99"/>
<path d="M312 81C312 85.4183 315.582 89 320 89C324.418 89 328 85.4183 328 81C328 76.5817 324.418 73 320 73C315.582 73 312 76.5817 312 81ZM375.5 81L360.5 72.3397V89.6603L375.5 81ZM320 82.5H362V79.5H320V82.5Z" fill="#5286FF"/>
<path d="M565 81C565 85.4183 568.582 89 573 89C577.418 89 581 85.4183 581 81C581 76.5817 577.418 73 573 73C568.582 73 565 76.5817 565 81ZM628.5 81L613.5 72.3397V89.6603L628.5 81ZM573 82.5H615V79.5H573V82.5Z" fill="#5286FF"/>
<path d="M818 81C818 85.4183 821.582 89 826 89C830.418 89 834 85.4183 834 81C834 76.5817 830.418 73 826 73C821.582 73 818 76.5817 818 81ZM881.5 81L866.5 72.3397V89.6603L881.5 81ZM826 82.5H868V79.5H826V82.5Z" fill="#5286FF"/>
</svg>
