<svg width="1200" height="161" viewBox="0 0 1200 161" fill="none" xmlns="http://www.w3.org/2000/svg">
<rect width="1200" height="161" fill="white"/>
<rect x="197" y="31" width="198" height="101" rx="18" fill="#EDF1F5"/>
<path d="M286.245 89.6025V100.427H284.95V89.6025H286.245ZM286.709 102.934V104.029H276.715V99.4307H278.01V102.934H286.709ZM279.289 91.9102C279.272 94.1514 280.816 96.1768 283.007 96.9736L282.327 98.0195C280.617 97.3638 279.289 96.0356 278.641 94.334C277.985 96.1436 276.641 97.5962 274.922 98.2852L274.208 97.2725C276.45 96.4092 277.96 94.2344 277.96 91.9102V90.4326H279.289V91.9102ZM302.249 97.4053V98.4678H296.239V101.356H294.944V98.4678H288.735V97.4053H302.249ZM300.738 102.934V104.029H290.461V99.9951H291.756V102.934H300.738ZM291.839 90.0674V91.96H299.144V90.0674H300.439V95.9609H290.544V90.0674H291.839ZM291.839 94.8984H299.144V92.9561H291.839V94.8984ZM316.891 96.6084V97.6875H303.444V96.6084H316.891ZM310.167 98.9824C313.338 98.9824 315.231 99.9619 315.248 101.655C315.231 103.365 313.338 104.312 310.167 104.312C306.98 104.312 305.071 103.365 305.071 101.655C305.071 99.9619 306.98 98.9824 310.167 98.9824ZM310.167 100.012C307.793 100.028 306.382 100.609 306.399 101.655C306.382 102.685 307.793 103.266 310.167 103.266C312.508 103.266 313.936 102.685 313.936 101.655C313.936 100.609 312.508 100.028 310.167 100.012ZM315.696 90.3496V91.4287H311.014C311.064 93.1055 313.521 94.3838 316.144 94.6826L315.663 95.7285C313.247 95.4214 310.981 94.3423 310.167 92.6904C309.362 94.3423 307.104 95.4214 304.672 95.7285L304.208 94.6826C306.781 94.3838 309.254 93.1055 309.321 91.4287H304.672V90.3496H315.696Z" fill="#1D1D1D"/>
<path d="M282.061 54.6318V61.9199H274.673V54.6318H282.061ZM276.765 56.3086V60.2432H279.953V56.3086H276.765ZM286.56 53.4365V64.1777H284.435V53.4365H286.56ZM286.958 66.4854V68.1953H276.433V63.1816H278.575V66.4854H286.958ZM301.402 53.4365V64.8418H299.277V63.6465H296.388V62.2021H299.277V53.4365H301.402ZM301.734 66.5684V68.2617H290.478V63.7461H292.586V61.7373C291.233 61.7954 289.947 61.8037 288.801 61.8037L288.552 60.127C291.325 60.1104 295.06 60.0771 298.248 59.6787L298.364 61.1895C297.168 61.3887 295.932 61.5298 294.711 61.6211V64.4932H292.586V66.5684H301.734ZM293.466 53.9512C295.658 53.9346 297.235 55.0469 297.235 56.6572C297.235 58.2676 295.658 59.3135 293.466 59.3135C291.225 59.3135 289.665 58.2676 289.665 56.6572C289.665 55.0469 291.208 53.9346 293.466 53.9512ZM293.466 55.4951C292.387 55.4951 291.657 55.9102 291.673 56.6572C291.657 57.3877 292.387 57.7861 293.466 57.7861C294.479 57.7861 295.209 57.3877 295.226 56.6572C295.209 55.9102 294.479 55.4951 293.466 55.4951ZM315.945 53.4365V64.2939H313.82V53.4365H315.945ZM316.343 66.5684V68.2617H305.818V63.1982H307.959V66.5684H316.343ZM307.661 54.3994C309.985 54.3994 311.794 55.9932 311.794 58.2012C311.794 60.459 309.985 62.0361 307.661 62.0361C305.336 62.0361 303.527 60.459 303.527 58.2012C303.527 55.9932 305.336 54.3994 307.661 54.3994ZM307.661 56.2422C306.482 56.2256 305.585 56.9727 305.602 58.2012C305.585 59.4629 306.482 60.1934 307.661 60.1934C308.806 60.1934 309.703 59.4629 309.703 58.2012C309.703 56.9727 308.806 56.2256 307.661 56.2422Z" fill="#173E99"/>
<rect x="498" y="31" width="198" height="101" rx="18" fill="#EDF1F5"/>
<path d="M588.573 92.3398V93.4189H575.059V92.3398H581.102V88.7207H582.38V92.3398H588.573ZM582.414 82.7275C582.414 85.2012 585.335 87.3594 587.909 87.8076L587.328 88.8867C585.078 88.4302 582.704 86.9028 581.75 84.7695C580.778 86.8945 578.421 88.4302 576.171 88.8867L575.59 87.8076C578.164 87.3594 581.052 85.2012 581.052 82.7275V81.5986H582.414V82.7275ZM596.558 89.8662C599.596 89.8662 601.422 90.8623 601.422 92.5889C601.422 94.332 599.596 95.3281 596.558 95.3447C593.52 95.3281 591.661 94.332 591.661 92.5889C591.661 90.8623 593.52 89.8662 596.558 89.8662ZM596.558 90.8955C594.333 90.9121 592.956 91.5264 592.972 92.5889C592.956 93.6514 594.333 94.2822 596.558 94.2822C598.799 94.2822 600.161 93.6514 600.161 92.5889C600.161 91.5264 598.799 90.9121 596.558 90.8955ZM601.29 80.5859V84.3047H603.514V85.417H601.29V89.4678H599.995V80.5859H601.29ZM591.661 81.5156V83.7734H595.96V81.5156H597.255V88.3223H590.382V81.5156H591.661ZM591.661 87.2598H595.96V84.8027H591.661V87.2598ZM609.64 84.5537C609.64 87.2266 611.35 89.916 613.492 90.8955L612.711 91.958C611.035 91.0947 609.648 89.3267 608.993 87.2266C608.337 89.4346 606.951 91.3271 605.274 92.2236L604.427 91.1777C606.585 90.1152 608.312 87.2764 608.312 84.5537V81.8643H609.64V84.5537ZM616.679 80.5859V95.3779H615.384V86.6953H611.881V85.6328H615.384V80.5859H616.679ZM558.167 100.98V111.788H560.773V113H553.934V111.788H556.673V102.541H556.606L553.934 104.317V102.79L556.673 100.98H558.167ZM567.962 100.98V111.788H570.568V113H563.729V111.788H566.468V102.541H566.401L563.729 104.317V102.79L566.468 100.98H567.962ZM576.927 100.814C579.201 100.814 580.994 102.524 580.994 104.683C580.994 105.961 580.33 107.223 579.151 108.966L576.445 113H574.735L577.973 108.186L577.89 108.119C577.649 108.36 577.143 108.567 576.412 108.567C574.304 108.567 572.826 106.857 572.826 104.683C572.826 102.524 574.636 100.814 576.927 100.814ZM576.91 102.126C575.366 102.126 574.287 103.205 574.287 104.749C574.287 106.293 575.366 107.389 576.91 107.389C578.454 107.389 579.55 106.293 579.55 104.749C579.55 103.205 578.454 102.126 576.91 102.126ZM593.943 99.5859V104.085H596.168V105.181H593.943V110.477H592.648V99.5859H593.943ZM594.624 112.934V114.029H584.713V109.348H585.991V112.934H594.624ZM586.556 100.632C588.764 100.632 590.424 102.126 590.44 104.268C590.424 106.409 588.764 107.903 586.556 107.903C584.348 107.903 582.671 106.409 582.688 104.268C582.671 102.126 584.348 100.632 586.556 100.632ZM586.556 101.777C585.095 101.777 583.949 102.807 583.966 104.268C583.949 105.729 585.095 106.758 586.556 106.758C588.05 106.758 589.162 105.729 589.162 104.268C589.162 102.807 588.05 101.777 586.556 101.777ZM609.333 99.6025V110.427H608.021V104.766H604.983V103.687H608.021V99.6025H609.333ZM609.748 112.934V114.029H599.854V109.447H601.165V112.934H609.748ZM602.228 102.641C602.228 104.55 603.705 106.409 605.863 107.14L605.183 108.186C603.514 107.588 602.228 106.343 601.597 104.815C600.958 106.517 599.596 107.878 597.845 108.534L597.164 107.472C599.339 106.708 600.916 104.766 600.916 102.641V101.877H597.579V100.798H605.531V101.877H602.228V102.641ZM624.324 99.5859V110.659H623.079V99.5859H624.324ZM621.419 99.8848V110.244H620.157V104.417H617.833V103.338H620.157V99.8848H621.419ZM624.772 112.934V114.029H614.646V109.298H615.94V112.934H624.772ZM616.156 102.84C616.156 104.566 617.235 106.343 619.111 107.14L618.381 108.169C617.02 107.538 616.048 106.409 615.559 105.064C615.019 106.542 613.99 107.854 612.57 108.534L611.84 107.521C613.732 106.625 614.895 104.583 614.895 102.84V100.632H616.156V102.84ZM638.718 99.5859V114.378H637.423V106.243H634.302V105.164H637.423V99.5859H638.718ZM634.053 100.947V102.026H628.475V105.098H633.405V106.16H628.475V109.729C631.189 109.729 632.916 109.638 634.949 109.281L635.099 110.36C632.957 110.709 631.147 110.809 628.292 110.809H627.163V100.947H634.053Z" fill="#1D1D1D"/>
<path d="M594.406 53.4365V64.46H592.281V53.4365H594.406ZM594.805 66.5684V68.2617H584.279V63.3975H586.421V66.5684H594.805ZM587.55 55.7275C587.533 57.7197 588.596 59.6787 591.086 60.4756L590.007 62.1357C588.305 61.5713 587.126 60.4424 586.454 58.998C585.782 60.5503 584.57 61.7954 582.802 62.4014L581.706 60.7246C584.246 59.8779 585.342 57.7695 585.342 55.7275V54.2666H587.55V55.7275ZM605.064 54.9971V56.6572H602.01C602.026 58.2095 603.172 59.7866 605.596 60.4092L604.616 62.0361C602.898 61.6045 601.686 60.6499 600.997 59.4131C600.341 60.8242 599.129 61.9282 597.345 62.4346L596.349 60.791C598.772 60.1021 599.885 58.3755 599.901 56.6572H596.863V54.9971H599.901V53.3535H602.043V54.9971H605.064ZM609.182 53.4199V62.5508H607.073V59.1641H604.616V57.4707H607.073V53.4199H609.182ZM604.019 62.7998C607.239 62.8164 609.215 63.8291 609.231 65.6387C609.215 67.4648 607.239 68.5273 604.019 68.5273C600.814 68.5273 598.822 67.4648 598.822 65.6387C598.822 63.8291 600.814 62.8164 604.019 62.7998ZM604.019 64.4268C602.01 64.4268 600.931 64.8252 600.931 65.6387C600.931 66.4688 602.01 66.917 604.019 66.917C606.061 66.917 607.123 66.4688 607.123 65.6387C607.123 64.8252 606.061 64.4268 604.019 64.4268Z" fill="#173E99"/>
<rect x="806" y="30" width="198" height="101" rx="18" fill="#EDF1F5"/>
<path d="M879.322 88.5859V94.8779H881.679V95.9736H879.322V103.345H878.01V88.5859H879.322ZM867.684 99.4102C868.888 99.4102 870.291 99.4102 871.751 99.3604V97.7168C870.033 97.5259 868.913 96.5215 868.929 95.0605C868.913 93.4004 870.324 92.3213 872.416 92.3213C874.474 92.3213 875.902 93.4004 875.918 95.0605C875.902 96.5215 874.765 97.5259 873.063 97.7334V99.3105C874.441 99.2441 875.827 99.1362 877.114 98.9453L877.197 99.9414C873.976 100.489 870.49 100.522 867.9 100.522L867.684 99.4102ZM876.848 90.3955V91.458H867.95V90.3955H871.751V88.6191H873.063V90.3955H876.848ZM872.416 93.334C871.054 93.334 870.141 94.0312 870.141 95.0605C870.141 96.0898 871.054 96.7539 872.416 96.7373C873.76 96.7539 874.673 96.0898 874.673 95.0605C874.673 94.0312 873.76 93.334 872.416 93.334ZM895.243 88.5859V103.345H893.981V95.6748H891.972V102.598H890.727V88.9014H891.972V94.5625H893.981V88.5859H895.243ZM886.925 92.6201C886.925 95.3262 888.038 97.7002 890.146 98.7793L889.366 99.792C887.872 98.9785 886.851 97.5176 886.328 95.708C885.821 97.7666 884.784 99.377 883.223 100.29L882.41 99.2939C884.535 98.1318 885.664 95.6084 885.664 92.6201V91.4414H882.758V90.3457H889.665V91.4414H886.925V92.6201ZM910.699 95.6084V96.6875H897.251V95.6084H910.699ZM903.975 97.9824C907.146 97.9824 909.039 98.9619 909.055 100.655C909.039 102.365 907.146 103.312 903.975 103.312C900.788 103.312 898.878 102.365 898.878 100.655C898.878 98.9619 900.788 97.9824 903.975 97.9824ZM903.975 99.0117C901.601 99.0283 900.19 99.6094 900.207 100.655C900.19 101.685 901.601 102.266 903.975 102.266C906.316 102.266 907.744 101.685 907.744 100.655C907.744 99.6094 906.316 99.0283 903.975 99.0117ZM909.503 89.3496V90.4287H904.822C904.872 92.1055 907.329 93.3838 909.952 93.6826L909.47 94.7285C907.055 94.4214 904.789 93.3423 903.975 91.6904C903.17 93.3423 900.912 94.4214 898.48 94.7285L898.015 93.6826C900.588 93.3838 903.062 92.1055 903.128 90.4287H898.48V89.3496H909.503ZM924.179 88.5859V97.335H922.868V95.0107H919.415V96.2725H912.641V89.7148H919.415V90.9932H922.868V88.5859H924.179ZM913.936 90.7773V95.21H918.136V90.7773H913.936ZM919.282 97.7666C922.353 97.7666 924.229 98.7793 924.229 100.556C924.229 102.315 922.353 103.312 919.282 103.312C916.21 103.312 914.334 102.315 914.334 100.556C914.334 98.7793 916.21 97.7666 919.282 97.7666ZM919.282 98.7793C917.024 98.7959 915.613 99.4434 915.629 100.556C915.613 101.618 917.024 102.282 919.282 102.282C921.54 102.282 922.934 101.618 922.934 100.556C922.934 99.4434 921.54 98.7959 919.282 98.7793ZM919.415 93.915H922.868V92.0723H919.415V93.915ZM938.805 88.6025V99.8086H937.494V98.2812H934.439V97.335H937.494V88.6025H938.805ZM939.17 101.934V103.029H928.678V98.7129H929.99V101.934H939.17ZM926.553 95.4424C929.309 95.4258 932.995 95.4092 936.166 95.0107L936.249 95.957C934.929 96.1646 933.551 96.2974 932.198 96.3721V99.2939H930.886V96.4385C929.392 96.5049 927.973 96.5132 926.736 96.5049L926.553 95.4424ZM931.401 89.2002C933.559 89.2002 935.037 90.2295 935.053 91.7734C935.037 93.3506 933.559 94.3301 931.401 94.3301C929.226 94.3301 927.749 93.3506 927.749 91.7734C927.749 90.2295 929.226 89.2002 931.401 89.2002ZM931.401 90.1963C929.957 90.1797 928.977 90.8271 928.994 91.7734C928.977 92.7363 929.957 93.3672 931.401 93.3672C932.795 93.3672 933.792 92.7363 933.808 91.7734C933.792 90.8271 932.795 90.1797 931.401 90.1963Z" fill="#1D1D1D"/>
<path d="M892.312 53.1006V54.8936H895.4V53.1006H897.525V59.6914H890.204V53.1006H892.312ZM892.312 58.0312H895.4V56.4873H892.312V58.0312ZM901.742 52.4199V55.3584H903.784V57.0684H901.742V60.1064H899.617V52.4199H901.742ZM901.742 60.6709V64.7715H893.823V65.751H902.174V67.4277H891.748V63.2607H899.634V62.3145H891.715V60.6709H901.742ZM908.184 61.0195V62.6299H914.476V61.0195H916.567V67.3613H906.108V61.0195H908.184ZM908.184 65.6514H914.476V64.2402H908.184V65.6514ZM916.634 53.0342V54.2461C916.634 55.3916 916.634 56.6201 916.285 58.3301H918.277V60.0234H904.448V58.3301H914.177C914.476 56.8691 914.517 55.7319 914.525 54.7275H906.142V53.0342H916.634Z" fill="#173E99"/>
<path d="M387 81C387 85.4183 390.582 89 395 89C399.418 89 403 85.4183 403 81C403 76.5817 399.418 73 395 73C390.582 73 387 76.5817 387 81ZM505 81L490 72.3397V89.6603L505 81ZM395 82.5H491.5V79.5H395V82.5Z" fill="#5286FF"/>
<path d="M688 82C688 86.4183 691.582 90 696 90C700.418 90 704 86.4183 704 82C704 77.5817 700.418 74 696 74C691.582 74 688 77.5817 688 82ZM806 82L791 73.3397V90.6603L806 82ZM696 83.5H792.5V80.5H696V83.5Z" fill="#5286FF"/>
</svg>
