<svg width="1200" height="183" viewBox="0 0 1200 183" fill="none" xmlns="http://www.w3.org/2000/svg">
<rect width="1200" height="183" fill="white"/>
<rect x="57" y="39" width="224" height="83" rx="18" fill="#EDF1F5"/>
<rect x="742" y="39" width="160" height="83" rx="18" fill="#EDF1F5"/>
<rect x="370" y="39" width="310" height="83" rx="18" fill="#EDF1F5"/>
<rect x="965" y="40" width="173" height="81" rx="17" fill="#EDF1F5" stroke="#173E99" stroke-width="2"/>
<path d="M146.887 59.916C150.058 59.916 152.066 60.9121 152.066 62.6221C152.066 64.3154 150.058 65.3115 146.887 65.3115C143.732 65.3115 141.724 64.3154 141.724 62.6221C141.724 60.9121 143.732 59.916 146.887 59.916ZM146.887 60.9121C144.529 60.9287 143.002 61.5762 143.019 62.6221C143.002 63.6514 144.529 64.2822 146.887 64.2822C149.244 64.2822 150.755 63.6514 150.771 62.6221C150.755 61.5762 149.244 60.9287 146.887 60.9121ZM151.95 51.3496V52.5947C151.95 53.79 151.95 54.9854 151.535 56.5127L150.257 56.3633C150.655 54.8359 150.655 53.7568 150.655 52.5947V52.4121H141.823V51.3496H151.95ZM153.66 57.4756V58.5381H140.229V57.4756H145.791V54.6201H147.069V57.4756H153.66ZM159.853 54.5537C159.853 57.1602 161.579 59.833 163.671 60.8623L162.874 61.9082C161.247 61.0532 159.886 59.3101 159.238 57.2598C158.574 59.4429 157.18 61.3022 155.52 62.1904L154.689 61.1445C156.848 60.082 158.558 57.2432 158.574 54.5537V51.8643H159.853V54.5537ZM166.327 50.5859V56.5791H168.801V57.708H166.327V65.3447H165.032V50.5859H166.327ZM174.097 51.2832C176.255 51.2832 177.766 52.4453 177.766 54.2051C177.766 55.7241 176.57 56.8281 174.794 57.0439V58.4883C176.172 58.4302 177.575 58.3057 178.861 58.1064L178.961 59.0859C175.84 59.6504 172.304 59.6836 169.747 59.6836L169.581 58.6045C170.727 58.6128 172.071 58.6045 173.482 58.5547V57.0605C171.656 56.8613 170.428 55.749 170.444 54.2051C170.428 52.4453 171.938 51.2832 174.097 51.2832ZM174.097 52.2959C172.669 52.2959 171.656 53.0596 171.673 54.2051C171.656 55.3174 172.669 56.0811 174.097 56.0977C175.541 56.0811 176.521 55.3174 176.537 54.2051C176.521 53.0596 175.541 52.2959 174.097 52.2959ZM181.119 50.6025V55.5996H183.327V56.7119H181.119V61.8916H179.808V50.6025H181.119ZM181.65 63.917V65.0127H171.739V60.9121H173.051V63.917H181.65ZM197.804 62.4229V63.5186H184.29V62.4229H188.092V59.6172H185.983V55.0684H194.815V52.7607H185.95V51.6816H196.094V56.1475H187.278V58.5381H196.442V59.6172H194.135V62.4229H197.804ZM189.37 62.4229H192.856V59.6172H189.37V62.4229ZM132.194 80.916C135.365 80.916 137.374 81.9121 137.374 83.6221C137.374 85.3154 135.365 86.3115 132.194 86.3115C129.04 86.3115 127.031 85.3154 127.031 83.6221C127.031 81.9121 129.04 80.916 132.194 80.916ZM132.194 81.9121C129.837 81.9287 128.31 82.5762 128.326 83.6221C128.31 84.6514 129.837 85.2822 132.194 85.2822C134.552 85.2822 136.062 84.6514 136.079 83.6221C136.062 82.5762 134.552 81.9287 132.194 81.9121ZM137.258 72.3496V73.5947C137.258 74.79 137.258 75.9854 136.843 77.5127L135.564 77.3633C135.963 75.8359 135.963 74.7568 135.963 73.5947V73.4121H127.131V72.3496H137.258ZM138.968 78.4756V79.5381H125.537V78.4756H131.099V75.6201H132.377V78.4756H138.968ZM145.16 75.5537C145.16 78.1602 146.887 80.833 148.979 81.8623L148.182 82.9082C146.555 82.0532 145.193 80.3101 144.546 78.2598C143.882 80.4429 142.487 82.3022 140.827 83.1904L139.997 82.1445C142.155 81.082 143.865 78.2432 143.882 75.5537V72.8643H145.16V75.5537ZM151.635 71.5859V77.5791H154.108V78.708H151.635V86.3447H150.34V71.5859H151.635ZM162.525 72.5488C162.509 76.251 159.869 78.9072 155.619 80.1191L155.071 79.0898C158.599 78.0938 160.849 76.1348 161.131 73.6279H155.835V72.5488H162.525ZM167.141 71.6025V80.0195H165.829V76.5H162.559V75.4043H165.829V71.6025H167.141ZM167.141 80.6504V86.1455H157.562V80.6504H167.141ZM158.823 81.6963V85.083H165.846V81.6963H158.823ZM174.545 75.5537C174.545 78.1602 176.271 80.833 178.363 81.8623L177.566 82.9082C175.939 82.0532 174.578 80.3101 173.931 78.2598C173.267 80.4429 171.872 82.3022 170.212 83.1904L169.382 82.1445C171.54 81.082 173.25 78.2432 173.267 75.5537V72.8643H174.545V75.5537ZM181.02 71.5859V77.5791H183.493V78.708H181.02V86.3447H179.725V71.5859H181.02ZM196.476 71.6025V82.4268H195.181V71.6025H196.476ZM196.94 84.9336V86.0293H186.946V81.4307H188.241V84.9336H196.94ZM189.52 73.9102C189.503 76.1514 191.047 78.1768 193.238 78.9736L192.558 80.0195C190.848 79.3638 189.52 78.0356 188.872 76.334C188.216 78.1436 186.872 79.5962 185.153 80.2852L184.439 79.2725C186.681 78.4092 188.191 76.2344 188.191 73.9102V72.4326H189.52V73.9102ZM204.013 74.7568C204.013 76.5996 205.606 78.2432 207.781 78.8906L207.15 79.9033C205.44 79.397 204.071 78.2764 203.415 76.8154C202.768 78.4341 201.423 79.7041 199.663 80.2852L199.032 79.2891C201.207 78.5586 202.734 76.7656 202.734 74.7568V74.4414H199.397V73.3955H202.734V71.5195H204.046V73.3955H207.35V74.4414H204.013V74.7568ZM211.218 71.5859V80.5342H209.906V76.8984H206.885V75.8193H209.906V71.5859H211.218ZM206.32 80.9326C209.392 80.9326 211.268 81.8955 211.268 83.6221C211.268 85.332 209.392 86.3115 206.32 86.3115C203.249 86.3115 201.373 85.332 201.373 83.6221C201.373 81.8955 203.249 80.9326 206.32 80.9326ZM206.32 81.9453C204.062 81.9619 202.651 82.5762 202.668 83.6221C202.651 84.6514 204.062 85.2822 206.32 85.2822C208.595 85.2822 209.973 84.6514 209.973 83.6221C209.973 82.5762 208.595 81.9619 206.32 81.9453ZM120.988 100.322C121.005 97.1846 121.852 94.5781 123.379 92.3535H124.641C123.512 93.9971 122.466 97.3672 122.466 100.322C122.466 103.277 123.512 106.631 124.641 108.274H123.379C121.852 106.066 121.005 103.46 120.988 100.322ZM137.059 92.5859V96.2051H139.283V97.2842H137.059V100.97H135.764V92.5859H137.059ZM133.024 93.5488C133.008 97.2676 130.401 99.9238 126.035 101.119L125.504 100.073C129.14 99.0938 131.356 97.1265 131.63 94.6279H126.168V93.5488H133.024ZM137.059 101.65V107.146H127.712V101.65H137.059ZM129.007 102.729V106.083H135.764V102.729H129.007ZM152.398 92.5859V107.378H151.104V92.5859H152.398ZM147.916 93.9639V99.21H142.404V102.696C144.853 102.696 147.036 102.588 149.676 102.165L149.809 103.261C147.086 103.692 144.845 103.792 142.305 103.792H141.076V98.1475H146.604V95.043H141.043V93.9639H147.916ZM167.141 92.5859V100.14H165.829V98.5957H161.895V97.5664H165.829V95.79H162.11C161.181 98.1226 158.89 99.6914 155.619 100.472L155.154 99.3926C158.773 98.5542 160.882 96.7861 161.131 94.4121H155.901V93.333H162.559C162.559 93.8228 162.509 94.2959 162.426 94.7441H165.829V92.5859H167.141ZM167.141 100.804V104.406H158.906V106.133H167.639V107.212H157.611V103.41H165.829V101.866H157.578V100.804H167.141ZM177.782 94.2295V94.9932C177.766 96.1553 177.766 98.1143 177.351 100.854L176.039 100.737C176.438 98.2637 176.471 96.4707 176.471 95.292H170.278V94.2295H177.782ZM173.914 98.4463V102.929C175.549 102.871 177.226 102.763 178.762 102.58L178.828 103.56C175.724 104.041 172.254 104.107 169.614 104.091L169.448 103.012C170.419 103.003 171.499 102.995 172.636 102.962V98.4463H173.914ZM180.986 92.5859V98.7617H183.377V99.8906H180.986V107.345H179.691V92.5859H180.986ZM196.907 92.5859V107.345H195.662V92.5859H196.907ZM193.919 92.9512V106.581H192.69V98.9775H190.2V97.915H192.69V92.9512H193.919ZM188.623 96.8027C188.623 99.3594 189.769 101.899 191.811 103.078L191.014 104.041C189.561 103.169 188.532 101.576 188.025 99.6914C187.486 101.725 186.415 103.46 184.938 104.39L184.107 103.41C186.166 102.182 187.361 99.4922 187.361 96.8027V95.4082H184.522V94.3291H191.329V95.4082H188.623V96.8027ZM212.43 99.1602V100.173H206.337V101.551H210.703V104.738H201.938V106.183H211.151V107.179H200.643V103.809H209.425V102.53H200.609V101.551H205.059V100.173H198.999V99.1602H212.43ZM206.337 92.5029V93.8809H211.068V94.9102H206.437C206.677 96.3794 208.985 97.3091 211.699 97.4834L211.301 98.4795C208.835 98.272 206.611 97.5083 205.706 96.1055C204.801 97.5083 202.577 98.272 200.095 98.4795L199.713 97.4834C202.411 97.3091 204.718 96.3794 204.976 94.9102H200.377V93.8809H205.059V92.5029H206.337ZM217.012 100.322C216.995 103.46 216.148 106.066 214.621 108.274H213.359C214.488 106.631 215.534 103.277 215.534 100.322C215.534 97.3672 214.488 93.9971 213.359 92.3535H214.621C216.148 94.5781 216.995 97.1846 217.012 100.322Z" fill="#1D1D1D"/>
<path d="M426.124 71.5859V79.6045H424.829V76.2676H421.841V75.1719H424.829V71.5859H426.124ZM417.939 80.3184V82.1611H424.829V80.3184H426.124V86.1455H416.628V80.3184H417.939ZM417.939 85.083H424.829V83.207H417.939V85.083ZM419.035 73.9932C419.035 75.8857 420.513 77.7451 422.671 78.4922L421.99 79.5049C420.322 78.8989 419.035 77.6621 418.404 76.1348C417.765 77.8447 416.404 79.2144 414.652 79.8535L413.972 78.8242C416.146 78.0439 417.724 76.085 417.724 73.9932V73.5615H414.387V72.4824H422.339V73.5615H419.035V73.9932ZM436.002 72.9639C436.002 75.0391 438.725 76.8486 441.381 77.2139L440.85 78.2764C438.559 77.8945 436.292 76.6245 435.338 74.8066C434.392 76.6328 432.117 77.8945 429.826 78.2764L429.295 77.2139C431.951 76.8486 434.657 75.0723 434.657 72.9639V72.1172H436.002V72.9639ZM442.045 79.9033V80.999H435.936V86.3447H434.657V80.999H428.598V79.9033H442.045Z" fill="#1D1D1D"/>
<path d="M497.23 59.5488C497.214 63.251 494.574 65.9072 490.324 67.1191L489.776 66.0898C493.304 65.0938 495.554 63.1348 495.836 60.6279H490.54V59.5488H497.23ZM501.846 58.6025V67.0195H500.534V63.5H497.264V62.4043H500.534V58.6025H501.846ZM501.846 67.6504V73.1455H492.267V67.6504H501.846ZM493.528 68.6963V72.083H500.551V68.6963H493.528ZM516.256 66.2725V67.335H511.674V70.4229H517.816V71.502H504.303V70.4229H510.379V67.335H506.046V59.7979H516.09V60.877H507.374V62.9854H515.774V64.0479H507.374V66.2725H516.256ZM531.596 59.5488V65.5586H524.673V59.5488H531.596ZM525.951 60.6113V64.5293H530.317V60.6113H525.951ZM536.062 58.5859V67.0693H534.783V58.5859H536.062ZM532.061 69.0947C532.061 70.5391 534.418 71.9668 536.958 72.2822L536.51 73.2949C534.285 72.9961 532.26 71.9502 531.396 70.5723C530.5 71.9751 528.425 72.9961 526.2 73.2949L525.735 72.2822C528.275 72 530.716 70.5723 530.716 69.0947H526.35V68.082H530.732V66.6377H532.027V68.082H536.443V69.0947H532.061ZM496.948 84.6025V95.8584H495.637V92.6875H493.08V91.625H495.637V89.6162H493.08V88.5371H495.637V84.6025H496.948ZM493.08 86.4121V87.4746H484.729V86.4121H488.315V84.5859H489.61V86.4121H493.08ZM488.946 88.2881C490.922 88.2881 492.316 89.417 492.316 91.1104C492.316 92.7871 490.922 93.9326 488.946 93.9326C486.971 93.9326 485.593 92.7871 485.609 91.1104C485.593 89.417 486.971 88.2881 488.946 88.2881ZM488.946 89.3174C487.685 89.334 486.821 90.0479 486.821 91.1104C486.821 92.1729 487.685 92.8867 488.946 92.8867C490.208 92.8867 491.071 92.1729 491.088 91.1104C491.071 90.0479 490.208 89.334 488.946 89.3174ZM497.28 97.9336V99.0293H487.402V94.8623H488.714V97.9336H497.28ZM504.402 87.3916C504.402 89.3174 505.847 91.0439 508.021 91.7578L507.407 92.7871C505.706 92.231 504.419 91.0522 503.788 89.5664C503.149 91.2598 501.788 92.5796 500.02 93.2188L499.355 92.1729C501.563 91.4258 503.107 89.5166 503.124 87.3916V86.7607H499.754V85.6816H507.723V86.7607H504.402V87.3916ZM510.943 84.5859V88.3545H513.168V89.4502H510.943V93.501H509.648V84.5859H510.943ZM506.212 93.8994C509.25 93.8994 511.076 94.8955 511.076 96.5889C511.076 98.3154 509.25 99.3115 506.212 99.3115C503.174 99.3115 501.314 98.3154 501.314 96.5889C501.314 94.8955 503.174 93.8994 506.212 93.8994ZM506.212 94.9453C503.987 94.9453 502.609 95.5596 502.626 96.5889C502.609 97.6514 503.987 98.2656 506.212 98.2656C508.453 98.2656 509.814 97.6514 509.814 96.5889C509.814 95.5596 508.453 94.9453 506.212 94.9453ZM525.619 84.6025V89.0684H527.827V90.1641H525.619V94.4971H524.308V84.6025H525.619ZM514.031 92.9863C515.21 92.9863 516.588 92.9863 518.032 92.9365V91.8574C516.314 91.708 515.21 90.9028 515.21 89.6826C515.21 88.3379 516.588 87.5078 518.663 87.5078C520.755 87.5078 522.116 88.3379 522.133 89.6826C522.116 90.8945 521.037 91.6997 519.327 91.8574V92.8867C520.705 92.8203 522.1 92.7124 523.395 92.5215L523.511 93.4678C520.307 94.0322 516.771 94.0488 514.181 94.0488L514.031 92.9863ZM525.619 95.2275V99.3447H524.308V96.2734H515.841V95.2275H525.619ZM522.946 85.9473V86.9434H514.396V85.9473H518.032V84.4697H519.327V85.9473H522.946ZM518.663 88.4375C517.302 88.4209 516.455 88.9023 516.455 89.6826C516.455 90.4463 517.302 90.9775 518.663 90.9609C520.024 90.9775 520.888 90.4463 520.888 89.6826C520.888 88.9023 520.024 88.4209 518.663 88.4375ZM540.976 84.6025V95.3936H539.681V84.6025H540.976ZM541.44 97.9336V99.0293H531.446V94.2979H532.741V97.9336H541.44ZM533.007 85.6318C535.215 85.6318 536.875 87.126 536.875 89.251C536.875 91.4092 535.215 92.8867 533.007 92.8867C530.799 92.8867 529.139 91.4092 529.139 89.251C529.139 87.126 530.799 85.6318 533.007 85.6318ZM533.007 86.7773C531.513 86.7773 530.4 87.8066 530.417 89.251C530.4 90.7285 531.513 91.7412 533.007 91.7412C534.468 91.7412 535.597 90.7285 535.597 89.251C535.597 87.8066 534.468 86.7773 533.007 86.7773Z" fill="#1D1D1D"/>
<path d="M589.212 59.2832C591.37 59.2832 592.881 60.4453 592.881 62.2051C592.881 63.7241 591.686 64.8281 589.909 65.0439V66.4883C591.287 66.4302 592.69 66.3057 593.977 66.1064L594.076 67.0859C590.955 67.6504 587.419 67.6836 584.862 67.6836L584.696 66.6045C585.842 66.6128 587.187 66.6045 588.598 66.5547V65.0605C586.771 64.8613 585.543 63.749 585.56 62.2051C585.543 60.4453 587.054 59.2832 589.212 59.2832ZM589.212 60.2959C587.784 60.2959 586.771 61.0596 586.788 62.2051C586.771 63.3174 587.784 64.0811 589.212 64.0977C590.656 64.0811 591.636 63.3174 591.652 62.2051C591.636 61.0596 590.656 60.2959 589.212 60.2959ZM596.234 58.6025V63.5996H598.442V64.7119H596.234V69.8916H594.923V58.6025H596.234ZM596.766 71.917V73.0127H586.854V68.9121H588.166V71.917H596.766ZM606.079 67.916C609.25 67.916 611.259 68.9121 611.259 70.6221C611.259 72.3154 609.25 73.3115 606.079 73.3115C602.925 73.3115 600.916 72.3154 600.916 70.6221C600.916 68.9121 602.925 67.916 606.079 67.916ZM606.079 68.9121C603.722 68.9287 602.194 69.5762 602.211 70.6221C602.194 71.6514 603.722 72.2822 606.079 72.2822C608.437 72.2822 609.947 71.6514 609.964 70.6221C609.947 69.5762 608.437 68.9287 606.079 68.9121ZM611.143 59.3496V60.5947C611.143 61.79 611.143 62.9854 610.728 64.5127L609.449 64.3633C609.848 62.8359 609.848 61.7568 609.848 60.5947V60.4121H601.016V59.3496H611.143ZM612.853 65.4756V66.5381H599.422V65.4756H604.983V62.6201H606.262V65.4756H612.853ZM621.718 59.5488C621.701 63.251 619.062 65.9072 614.812 67.1191L614.264 66.0898C617.792 65.0938 620.041 63.1348 620.323 60.6279H615.027V59.5488H621.718ZM626.333 58.6025V67.0195H625.021V63.5H621.751V62.4043H625.021V58.6025H626.333ZM626.333 67.6504V73.1455H616.754V67.6504H626.333ZM618.016 68.6963V72.083H625.038V68.6963H618.016ZM633.737 62.5537C633.737 65.1602 635.464 67.833 637.556 68.8623L636.759 69.9082C635.132 69.0532 633.771 67.3101 633.123 65.2598C632.459 67.4429 631.064 69.3022 629.404 70.1904L628.574 69.1445C630.732 68.082 632.442 65.2432 632.459 62.5537V59.8643H633.737V62.5537ZM640.212 58.5859V64.5791H642.686V65.708H640.212V73.3447H638.917V58.5859H640.212ZM596.915 84.5859V92.2559H595.604V84.5859H596.915ZM596.915 92.9697V96.4893H588.581V98.1162H597.479V99.1787H587.303V95.5098H595.62V94.0156H587.253V92.9697H596.915ZM593.362 85.5986V86.6445H591.868V90.4131C592.632 90.3716 593.387 90.2969 594.093 90.2139L594.159 91.1768C591.204 91.6084 587.734 91.7246 585.128 91.7246L584.962 90.6455L586.854 90.6289V86.6445H585.377V85.5986H593.362ZM588.116 90.5957C588.93 90.5791 589.768 90.5542 590.606 90.4961V86.6445H588.116V90.5957ZM612.853 91.6084V92.6875H599.405V91.6084H612.853ZM606.129 93.9824C609.3 93.9824 611.192 94.9619 611.209 96.6553C611.192 98.3652 609.3 99.3115 606.129 99.3115C602.941 99.3115 601.032 98.3652 601.032 96.6553C601.032 94.9619 602.941 93.9824 606.129 93.9824ZM606.129 95.0117C603.755 95.0283 602.344 95.6094 602.36 96.6553C602.344 97.6846 603.755 98.2656 606.129 98.2656C608.47 98.2656 609.897 97.6846 609.897 96.6553C609.897 95.6094 608.47 95.0283 606.129 95.0117ZM611.657 85.3496V86.4287H606.976C607.025 88.1055 609.482 89.3838 612.105 89.6826L611.624 90.7285C609.208 90.4214 606.942 89.3423 606.129 87.6904C605.324 89.3423 603.066 90.4214 600.634 90.7285L600.169 89.6826C602.742 89.3838 605.216 88.1055 605.282 86.4287H600.634V85.3496H611.657ZM625.951 86.0801V87.7236C625.951 89.6162 625.951 91.5254 625.42 94.2646L624.142 94.1152C624.673 91.5088 624.673 89.5664 624.673 87.7236V87.1592H615.509V86.0801H625.951ZM627.545 96.1738V97.2529H614.098V96.1738H617.435V91.3096H618.729V96.1738H621.12V91.3096H622.398V96.1738H627.545ZM642.287 93.3516V94.4141H636.128V99.3447H634.85V94.4141H628.773V93.3516H642.287ZM631.795 85.2002V87.2422H639.232V85.2002H640.544V91.5586H630.5V85.2002H631.795ZM631.795 90.4961H639.232V88.3047H631.795V90.4961Z" fill="#1D1D1D"/>
<path d="M1027.66 75.5537C1027.66 78.1602 1029.39 80.833 1031.48 81.8623L1030.68 82.9082C1029.05 82.0532 1027.69 80.3101 1027.05 78.2598C1026.38 80.4429 1024.99 82.3022 1023.33 83.1904L1022.5 82.1445C1024.66 81.082 1026.37 78.2432 1026.38 75.5537V72.8643H1027.66V75.5537ZM1034.13 71.5859V77.5791H1036.61V78.708H1034.13V86.3447H1032.84V71.5859H1034.13ZM1050.85 78.8906V79.9697H1037.41V78.8906H1040.74V76.8154C1039.56 76.3589 1038.9 75.6035 1038.9 74.6074C1038.9 72.8643 1040.89 71.8682 1044.13 71.8682C1047.33 71.8682 1049.34 72.8643 1049.34 74.6074C1049.34 75.5952 1048.69 76.3506 1047.52 76.7988V78.8906H1050.85ZM1044.13 81.0986C1047.3 81.0986 1049.19 82.0117 1049.21 83.7051C1049.19 85.3818 1047.3 86.3115 1044.13 86.3115C1040.92 86.3115 1039.03 85.3818 1039.03 83.7051C1039.03 82.0117 1040.92 81.0986 1044.13 81.0986ZM1044.13 82.0947C1041.75 82.1113 1040.34 82.6924 1040.36 83.7051C1040.34 84.7012 1041.75 85.2988 1044.13 85.2988C1046.47 85.2988 1047.9 84.7012 1047.9 83.7051C1047.9 82.6924 1046.47 82.1113 1044.13 82.0947ZM1044.13 72.8975C1041.72 72.8975 1040.23 73.5449 1040.24 74.6074C1040.23 75.6865 1041.72 76.3174 1044.13 76.3174C1046.52 76.3174 1048.01 75.6865 1048.01 74.6074C1048.01 73.5449 1046.52 72.8975 1044.13 72.8975ZM1042.04 78.8906H1046.22V77.1641C1045.6 77.272 1044.9 77.3301 1044.13 77.3301C1043.36 77.3301 1042.66 77.272 1042.04 77.1641V78.8906ZM1059.5 72.5156C1059.5 74.3916 1062.19 76.085 1064.75 76.417L1064.27 77.4463C1062.01 77.106 1059.78 75.9106 1058.84 74.2256C1057.9 75.9272 1055.66 77.106 1053.39 77.4463L1052.88 76.417C1055.48 76.085 1058.16 74.4414 1058.16 72.5156V71.835H1059.5V72.5156ZM1065.54 78.6416V79.7041H1052.1V78.6416H1065.54ZM1058.82 81.0986C1061.99 81.0986 1063.88 82.0117 1063.9 83.7051C1063.88 85.3818 1061.99 86.3281 1058.82 86.3447C1055.62 86.3281 1053.72 85.3818 1053.72 83.7051C1053.72 82.0117 1055.62 81.0986 1058.82 81.0986ZM1058.82 82.0947C1056.45 82.1113 1055.04 82.6924 1055.05 83.7051C1055.04 84.7344 1056.45 85.2988 1058.82 85.2988C1061.16 85.2988 1062.59 84.7344 1062.59 83.7051C1062.59 82.6924 1061.16 82.1113 1058.82 82.0947ZM1078.98 71.6025V82.3936H1077.68V71.6025H1078.98ZM1079.44 84.9336V86.0293H1069.45V81.2979H1070.74V84.9336H1079.44ZM1071.01 72.6318C1073.21 72.6318 1074.88 74.126 1074.88 76.251C1074.88 78.4092 1073.21 79.8867 1071.01 79.8867C1068.8 79.8867 1067.14 78.4092 1067.14 76.251C1067.14 74.126 1068.8 72.6318 1071.01 72.6318ZM1071.01 73.7773C1069.51 73.7773 1068.4 74.8066 1068.42 76.251C1068.4 77.7285 1069.51 78.7412 1071.01 78.7412C1072.47 78.7412 1073.6 77.7285 1073.6 76.251C1073.6 74.8066 1072.47 73.7773 1071.01 73.7773Z" fill="#1D1D1D"/>
<path d="M805.948 58.6025V69.5098H804.637V64.2471H801.366V63.1514H804.637V58.6025H805.948ZM801.433 59.7314C801.416 63.5166 798.71 66.4053 794.51 67.7832L793.945 66.7373C797.349 65.6167 799.714 63.5 800.005 60.8271H794.692V59.7314H801.433ZM806.33 71.9336V73.0293H796.552V68.3975H797.88V71.9336H806.33ZM821.853 66.0234V67.0859H815.76V68.7793H820.192V73.2949H818.881V69.8418H809.899V68.7793H814.481V67.0859H808.405V66.0234H821.853ZM815.76 58.5195V60.0469H820.491V61.0928H815.843C815.934 62.7695 818.267 63.9233 821.056 64.1973L820.624 65.1934C818.192 64.9277 816.017 64.0396 815.129 62.5371C814.232 64.0396 812.058 64.9277 809.634 65.1934L809.202 64.1973C811.975 63.9233 814.307 62.7695 814.415 61.0928H809.8V60.0469H814.481V58.5195H815.76ZM828.045 62.5537C828.045 65.1602 829.771 67.833 831.863 68.8623L831.066 69.9082C829.439 69.0532 828.078 67.3101 827.431 65.2598C826.767 67.4429 825.372 69.3022 823.712 70.1904L822.882 69.1445C825.04 68.082 826.75 65.2432 826.767 62.5537V59.8643H828.045V62.5537ZM834.52 58.5859V64.5791H836.993V65.708H834.52V73.3447H833.225V58.5859H834.52ZM851.237 65.8906V66.9697H837.79V65.8906H841.127V63.8154C839.948 63.3589 839.284 62.6035 839.284 61.6074C839.284 59.8643 841.276 58.8682 844.514 58.8682C847.718 58.8682 849.727 59.8643 849.727 61.6074C849.727 62.5952 849.071 63.3506 847.9 63.7988V65.8906H851.237ZM844.514 68.0986C847.685 68.0986 849.577 69.0117 849.594 70.7051C849.577 72.3818 847.685 73.3115 844.514 73.3115C841.31 73.3115 839.417 72.3818 839.417 70.7051C839.417 69.0117 841.31 68.0986 844.514 68.0986ZM844.514 69.0947C842.14 69.1113 840.729 69.6924 840.745 70.7051C840.729 71.7012 842.14 72.2988 844.514 72.2988C846.854 72.2988 848.282 71.7012 848.282 70.7051C848.282 69.6924 846.854 69.1113 844.514 69.0947ZM844.514 59.8975C842.106 59.8975 840.612 60.5449 840.629 61.6074C840.612 62.6865 842.106 63.3174 844.514 63.3174C846.904 63.3174 848.398 62.6865 848.398 61.6074C848.398 60.5449 846.904 59.8975 844.514 59.8975ZM842.422 65.8906H846.605V64.1641C845.983 64.272 845.286 64.3301 844.514 64.3301C843.742 64.3301 843.044 64.272 842.422 64.1641V65.8906ZM801.117 85.5156C801.117 87.3916 803.807 89.085 806.363 89.417L805.882 90.4463C803.624 90.106 801.391 88.9106 800.453 87.2256C799.515 88.9272 797.274 90.106 795.008 90.4463L794.493 89.417C797.1 89.085 799.772 87.4414 799.772 85.5156V84.835H801.117V85.5156ZM807.16 91.6416V92.7041H793.713V91.6416H807.16ZM800.437 94.0986C803.607 94.0986 805.5 95.0117 805.517 96.7051C805.5 98.3818 803.607 99.3281 800.437 99.3447C797.232 99.3281 795.34 98.3818 795.34 96.7051C795.34 95.0117 797.232 94.0986 800.437 94.0986ZM800.437 95.0947C798.062 95.1113 796.651 95.6924 796.668 96.7051C796.651 97.7344 798.062 98.2988 800.437 98.2988C802.777 98.2988 804.205 97.7344 804.205 96.7051C804.205 95.6924 802.777 95.1113 800.437 95.0947ZM820.591 84.6025V95.3936H819.296V84.6025H820.591ZM821.056 97.9336V99.0293H811.062V94.2979H812.356V97.9336H821.056ZM812.622 85.6318C814.83 85.6318 816.49 87.126 816.49 89.251C816.49 91.4092 814.83 92.8867 812.622 92.8867C810.414 92.8867 808.754 91.4092 808.754 89.251C808.754 87.126 810.414 85.6318 812.622 85.6318ZM812.622 86.7773C811.128 86.7773 810.016 87.8066 810.032 89.251C810.016 90.7285 811.128 91.7412 812.622 91.7412C814.083 91.7412 815.212 90.7285 815.212 89.251C815.212 87.8066 814.083 86.7773 812.622 86.7773ZM836.611 96.3564V97.4521H823.098V96.3564H826.451V92.3721C825.189 91.7163 824.426 90.6538 824.426 89.3174C824.426 87.0264 826.667 85.5322 829.821 85.5156C832.976 85.5322 835.217 87.0264 835.217 89.3174C835.217 90.6289 834.478 91.6831 833.258 92.3389V96.3564H836.611ZM829.821 86.5947C827.397 86.5781 825.688 87.6738 825.688 89.3174C825.688 90.9609 827.397 92.0732 829.821 92.0732C832.229 92.0732 833.955 90.9609 833.955 89.3174C833.955 87.6738 832.229 86.5781 829.821 86.5947ZM827.729 96.3564H831.946V92.8369C831.307 93.0112 830.593 93.1025 829.821 93.1025C829.066 93.1025 828.36 93.0195 827.729 92.8535V96.3564ZM842.82 87.7568C842.82 89.5996 844.414 91.2432 846.589 91.8906L845.958 92.9033C844.248 92.397 842.878 91.2764 842.223 89.8154C841.575 91.4341 840.23 92.7041 838.471 93.2852L837.84 92.2891C840.015 91.5586 841.542 89.7656 841.542 87.7568V87.4414H838.205V86.3955H841.542V84.5195H842.854V86.3955H846.157V87.4414H842.82V87.7568ZM850.025 84.5859V93.5342H848.714V89.8984H845.692V88.8193H848.714V84.5859H850.025ZM845.128 93.9326C848.199 93.9326 850.075 94.8955 850.075 96.6221C850.075 98.332 848.199 99.3115 845.128 99.3115C842.057 99.3115 840.181 98.332 840.181 96.6221C840.181 94.8955 842.057 93.9326 845.128 93.9326ZM845.128 94.9453C842.87 94.9619 841.459 95.5762 841.476 96.6221C841.459 97.6514 842.87 98.2822 845.128 98.2822C847.402 98.2822 848.78 97.6514 848.78 96.6221C848.78 95.5762 847.402 94.9619 845.128 94.9453Z" fill="#1D1D1D"/>
<path d="M273 80C273 84.4183 276.582 88 281 88C285.418 88 289 84.4183 289 80C289 75.5817 285.418 72 281 72C276.582 72 273 75.5817 273 80ZM370 80L355 71.3397V88.6603L370 80ZM281 81.5H356.5V78.5H281V81.5Z" fill="#5286FF"/>
<path d="M672 79C672 83.4183 675.582 87 680 87C684.418 87 688 83.4183 688 79C688 74.5817 684.418 71 680 71C675.582 71 672 74.5817 672 79ZM742 79L727 70.3397V87.6603L742 79ZM680 80.5H728.5V77.5H680V80.5Z" fill="#5286FF"/>
<path d="M894 79C894 83.4183 897.582 87 902 87C906.418 87 910 83.4183 910 79C910 74.5817 906.418 71 902 71C897.582 71 894 74.5817 894 79ZM964 79L949 70.3397V87.6603L964 79ZM902 80.5H950.5V77.5H902V80.5Z" fill="#5286FF"/>
<path d="M470 79L455 70.3397V87.6603L470 79Z" fill="#5286FF"/>
<path d="M570 79L555 70.3397V87.6603L570 79Z" fill="#5286FF"/>
<path d="M150.061 131.632V138.92H142.673V131.632H150.061ZM144.765 133.309V137.243H147.953V133.309H144.765ZM154.56 130.437V141.178H152.435V130.437H154.56ZM154.958 143.485V145.195H144.433V140.182H146.575V143.485H154.958ZM169.402 130.437V141.842H167.277V140.646H164.388V139.202H167.277V130.437H169.402ZM169.734 143.568V145.262H158.478V140.746H160.586V138.737C159.233 138.795 157.947 138.804 156.801 138.804L156.552 137.127C159.325 137.11 163.06 137.077 166.248 136.679L166.364 138.189C165.168 138.389 163.932 138.53 162.711 138.621V141.493H160.586V143.568H169.734ZM161.466 130.951C163.658 130.935 165.235 132.047 165.235 133.657C165.235 135.268 163.658 136.313 161.466 136.313C159.225 136.313 157.665 135.268 157.665 133.657C157.665 132.047 159.208 130.935 161.466 130.951ZM161.466 132.495C160.387 132.495 159.657 132.91 159.673 133.657C159.657 134.388 160.387 134.786 161.466 134.786C162.479 134.786 163.209 134.388 163.226 133.657C163.209 132.91 162.479 132.495 161.466 132.495ZM183.945 130.437V141.294H181.82V130.437H183.945ZM184.343 143.568V145.262H173.818V140.198H175.959V143.568H184.343ZM175.661 131.399C177.985 131.399 179.794 132.993 179.794 135.201C179.794 137.459 177.985 139.036 175.661 139.036C173.336 139.036 171.527 137.459 171.527 135.201C171.527 132.993 173.336 131.399 175.661 131.399ZM175.661 133.242C174.482 133.226 173.585 133.973 173.602 135.201C173.585 136.463 174.482 137.193 175.661 137.193C176.806 137.193 177.703 136.463 177.703 135.201C177.703 133.973 176.806 133.226 175.661 133.242Z" fill="#173E99"/>
<path d="M517.739 142.024V143.718H503.91V142.024H509.687V138.604H511.795V142.024H517.739ZM511.862 132.362C511.862 134.521 513.804 136.795 517.257 137.326L516.361 139.086C513.705 138.604 511.729 137.185 510.733 135.301C509.737 137.177 507.778 138.613 505.138 139.086L504.242 137.326C507.662 136.795 509.587 134.504 509.604 132.362V131.283H511.862V132.362ZM525.641 139.667C528.779 139.667 530.738 140.746 530.738 142.589C530.738 144.465 528.779 145.544 525.641 145.544C522.437 145.544 520.461 144.465 520.461 142.589C520.461 140.746 522.437 139.667 525.641 139.667ZM525.641 141.311C523.649 141.311 522.57 141.726 522.586 142.589C522.57 143.452 523.649 143.9 525.641 143.9C527.6 143.9 528.646 143.452 528.646 142.589C528.646 141.726 527.6 141.311 525.641 141.311ZM530.588 130.42V133.923H532.63V135.699H530.588V139.335H528.463V130.42H530.588ZM521.159 131.366V133.275H524.247V131.366H526.372V138.472H519.05V131.366H521.159ZM521.159 136.795H524.247V134.919H521.159V136.795ZM539.005 133.84C539.005 136.679 540.151 139.435 542.674 140.53L541.379 142.224C539.703 141.402 538.582 139.899 537.959 138.04C537.295 140.016 536.133 141.634 534.407 142.489L533.079 140.763C535.668 139.601 536.847 136.679 536.864 133.84V131.582H539.005V133.84ZM546.044 130.42V145.561H543.953V136.878H540.981V135.168H543.953V130.42H546.044Z" fill="#173E99"/>
<path d="M809.061 131.632V138.92H801.673V131.632H809.061ZM803.765 133.309V137.243H806.953V133.309H803.765ZM813.56 130.437V141.178H811.435V130.437H813.56ZM813.958 143.485V145.195H803.433V140.182H805.575V143.485H813.958ZM828.402 130.437V141.842H826.277V140.646H823.388V139.202H826.277V130.437H828.402ZM828.734 143.568V145.262H817.478V140.746H819.586V138.737C818.233 138.795 816.947 138.804 815.801 138.804L815.552 137.127C818.325 137.11 822.06 137.077 825.248 136.679L825.364 138.189C824.168 138.389 822.932 138.53 821.711 138.621V141.493H819.586V143.568H828.734ZM820.466 130.951C822.658 130.935 824.235 132.047 824.235 133.657C824.235 135.268 822.658 136.313 820.466 136.313C818.225 136.313 816.665 135.268 816.665 133.657C816.665 132.047 818.208 130.935 820.466 130.951ZM820.466 132.495C819.387 132.495 818.657 132.91 818.673 133.657C818.657 134.388 819.387 134.786 820.466 134.786C821.479 134.786 822.209 134.388 822.226 133.657C822.209 132.91 821.479 132.495 820.466 132.495ZM842.945 130.437V141.294H840.82V130.437H842.945ZM843.343 143.568V145.262H832.818V140.198H834.959V143.568H843.343ZM834.661 131.399C836.985 131.399 838.794 132.993 838.794 135.201C838.794 137.459 836.985 139.036 834.661 139.036C832.336 139.036 830.527 137.459 830.527 135.201C830.527 132.993 832.336 131.399 834.661 131.399ZM834.661 133.242C833.482 133.226 832.585 133.973 832.602 135.201C832.585 136.463 833.482 137.193 834.661 137.193C835.806 137.193 836.703 136.463 836.703 135.201C836.703 133.973 835.806 133.226 834.661 133.242Z" fill="#173E99"/>
<path d="M1038.82 132.678V134.371H1029.94V132.678H1033.31V130.652H1035.42V132.678H1038.82ZM1034.38 135.218C1036.45 135.218 1037.99 136.745 1038.01 138.82C1037.99 140.879 1036.45 142.423 1034.38 142.423C1032.28 142.423 1030.72 140.879 1030.72 138.82C1030.72 136.745 1032.28 135.218 1034.38 135.218ZM1034.38 136.994C1033.41 137.011 1032.7 137.691 1032.7 138.82C1032.7 139.966 1033.41 140.63 1034.38 140.613C1035.34 140.63 1036.05 139.966 1036.05 138.82C1036.05 137.691 1035.34 137.011 1034.38 136.994ZM1042.66 130.42V145.527H1040.57V138.106H1038.51V136.396H1040.57V130.42H1042.66ZM1056.52 130.42V136.214H1058.66V137.957H1056.52V145.494H1054.4V130.42H1056.52ZM1052.49 131.964C1052.47 136.479 1050.71 140.397 1045.63 142.888L1044.44 141.261C1048.01 139.468 1049.93 137.061 1050.33 133.69H1045.3V131.964H1052.49ZM1067.91 131.997V133.657H1064.86C1064.87 135.209 1066.02 136.787 1068.44 137.409L1067.46 139.036C1065.74 138.604 1064.53 137.65 1063.84 136.413C1063.19 137.824 1061.98 138.928 1060.19 139.435L1059.19 137.791C1061.62 137.102 1062.73 135.375 1062.75 133.657H1059.71V131.997H1062.75V130.354H1064.89V131.997H1067.91ZM1072.03 130.42V139.551H1069.92V136.164H1067.46V134.471H1069.92V130.42H1072.03ZM1066.86 139.8C1070.09 139.816 1072.06 140.829 1072.08 142.639C1072.06 144.465 1070.09 145.527 1066.86 145.527C1063.66 145.527 1061.67 144.465 1061.67 142.639C1061.67 140.829 1063.66 139.816 1066.86 139.8ZM1066.86 141.427C1064.86 141.427 1063.78 141.825 1063.78 142.639C1063.78 143.469 1064.86 143.917 1066.86 143.917C1068.91 143.917 1069.97 143.469 1069.97 142.639C1069.97 141.825 1068.91 141.427 1066.86 141.427Z" fill="#173E99"/>
</svg>
