<svg width="57" height="58" viewBox="0 0 57 58" fill="none" xmlns="http://www.w3.org/2000/svg">
<mask id="mask0_15_10315" style="mask-type:alpha" maskUnits="userSpaceOnUse" x="0" y="0" width="57" height="58">
<rect y="0.274414" width="57" height="57" fill="#D9D9D9"/>
</mask>
<g mask="url(#mask0_15_10315)">
<path d="M9.50003 45.3994V40.6494H14.25V24.0244C14.25 20.739 15.2396 17.8197 17.2188 15.2666C19.1979 12.7135 21.7709 11.0411 24.9375 10.2494V8.58691C24.9375 7.59733 25.2839 6.75618 25.9766 6.06348C26.6693 5.37077 27.5104 5.02441 28.5 5.02441C29.4896 5.02441 30.3308 5.37077 31.0235 6.06348C31.7162 6.75618 32.0625 7.59733 32.0625 8.58691V10.2494C35.2292 11.0411 37.8021 12.7135 39.7813 15.2666C41.7604 17.8197 42.75 20.739 42.75 24.0244V40.6494H47.5V45.3994H9.50003ZM28.5 52.5244C27.1938 52.5244 26.0756 52.0593 25.1453 51.1291C24.2151 50.1989 23.75 49.0807 23.75 47.7744H33.25C33.25 49.0807 32.7849 50.1989 31.8547 51.1291C30.9245 52.0593 29.8063 52.5244 28.5 52.5244ZM26.125 35.8994H30.875V31.1494H35.625V26.3994H30.875V21.6494H26.125V26.3994H21.375V31.1494H26.125V35.8994Z" fill="white"/>
</g>
</svg>
