<svg width="20" height="18" viewBox="0 0 20 18" fill="none" xmlns="http://www.w3.org/2000/svg">
<path d="M4.36495 6.64203C3.9849 6.64203 3.67691 6.94089 3.67691 7.30966C3.67691 7.67844 3.9849 7.97867 4.36495 7.97867C4.74501 7.97867 5.053 7.67981 5.053 7.30966C5.053 6.93952 4.74501 6.64203 4.36495 6.64203Z" fill="black"/>
<path d="M11.1677 6.57212C10.758 6.57212 10.426 6.89428 10.426 7.29184C10.426 7.68941 10.758 8.01157 11.1677 8.01157C11.5774 8.01157 11.9095 7.68941 11.9095 7.29184C11.9095 6.89428 11.5774 6.57212 11.1677 6.57212Z" fill="black"/>
<path d="M14.9979 7.29184C14.9979 6.90388 15.3229 6.58857 15.7227 6.58857C16.1225 6.58857 16.4475 6.90388 16.4475 7.29184C16.4475 7.67981 16.1225 7.99512 15.7227 7.99512C15.3229 7.99512 14.9979 7.67981 14.9979 7.29184Z" fill="black"/>
<path fill-rule="evenodd" clip-rule="evenodd" d="M2.67669 0H17.3263C18.8041 0 20.0022 1.16253 20.0022 2.5965V11.0331C20.0022 12.467 18.8041 13.6296 17.3263 13.6296H12.1992L10.4388 17.6532C10.4388 17.6532 10.3187 18.0014 10.0248 18.0014C9.73236 18.0014 9.61085 17.6532 9.61085 17.6532L7.85047 13.6296H2.67669C1.19887 13.6296 0.000793457 12.467 0.000793457 11.0331V2.5965C0.000793457 1.16253 1.19887 0 2.67669 0ZM4.63204 9.04387C4.63204 9.04387 6.27516 9 6.28364 7.45773H6.28223C6.28223 7.45773 6.50404 5.65499 4.73236 5.49459C4.73236 5.49459 3.91857 5.48637 3.63741 5.95248V4.12094C3.63741 4.12094 2.51563 4.13465 2.44075 4.12369V4.12094C2.4351 4.12232 2.44075 4.12369 2.44075 4.12369V8.91363H3.63741V8.63534C3.63741 8.63534 3.99627 9.04387 4.63204 9.04387ZM8.39017 8.92186V5.64265C8.39017 5.64265 8.52439 4.04006 6.6538 3.96603V5.11074C6.6538 5.11074 7.21893 5.23412 7.21893 5.67555V8.92186H8.39017ZM9.20254 7.29322C9.20254 8.26108 10.0813 9.04661 11.1664 9.04661C12.2514 9.04661 13.1302 8.26108 13.1302 7.29322C13.1302 6.32536 12.2514 5.53983 11.1664 5.53983C10.0813 5.53983 9.20254 6.32536 9.20254 7.29322ZM15.8556 10.7123C17.6004 10.7123 17.5834 9.04661 17.5834 9.04661V5.58644H16.3953V5.9374C16.0067 5.43016 15.3752 5.49596 15.3752 5.49596C13.7745 5.60975 13.7406 7.04098 13.7406 7.04098V7.56466C13.7406 8.94516 15.1986 9.04661 15.1986 9.04661C16.2271 9.04661 16.3698 8.60244 16.3698 8.60244C16.3783 9.69916 15.645 9.63336 15.645 9.63336H15.3243V10.7123H15.8556Z" fill="black"/>
</svg>
