<svg width="57" height="57" viewBox="0 0 57 57" fill="none" xmlns="http://www.w3.org/2000/svg">
<mask id="mask0_15_10327" style="mask-type:alpha" maskUnits="userSpaceOnUse" x="0" y="0" width="57" height="57">
<rect width="57" height="57" fill="#D9D9D9"/>
</mask>
<g mask="url(#mask0_15_10327)">
<path d="M28.5 33.25C27.8271 33.25 27.263 33.0224 26.8078 32.5672C26.3526 32.112 26.125 31.5479 26.125 30.875C26.125 30.2021 26.3526 29.638 26.8078 29.1828C27.263 28.7276 27.8271 28.5 28.5 28.5C29.1729 28.5 29.737 28.7276 30.1922 29.1828C30.6474 29.638 30.875 30.2021 30.875 30.875C30.875 31.5479 30.6474 32.112 30.1922 32.5672C29.737 33.0224 29.1729 33.25 28.5 33.25ZM19 33.25C18.3271 33.25 17.763 33.0224 17.3078 32.5672C16.8526 32.112 16.625 31.5479 16.625 30.875C16.625 30.2021 16.8526 29.638 17.3078 29.1828C17.763 28.7276 18.3271 28.5 19 28.5C19.6729 28.5 20.237 28.7276 20.6922 29.1828C21.1474 29.638 21.375 30.2021 21.375 30.875C21.375 31.5479 21.1474 32.112 20.6922 32.5672C20.237 33.0224 19.6729 33.25 19 33.25ZM38 33.25C37.3271 33.25 36.763 33.0224 36.3078 32.5672C35.8526 32.112 35.625 31.5479 35.625 30.875C35.625 30.2021 35.8526 29.638 36.3078 29.1828C36.763 28.7276 37.3271 28.5 38 28.5C38.6729 28.5 39.237 28.7276 39.6922 29.1828C40.1474 29.638 40.375 30.2021 40.375 30.875C40.375 31.5479 40.1474 32.112 39.6922 32.5672C39.237 33.0224 38.6729 33.25 38 33.25ZM28.5 42.75C27.8271 42.75 27.263 42.5224 26.8078 42.0672C26.3526 41.612 26.125 41.0479 26.125 40.375C26.125 39.7021 26.3526 39.138 26.8078 38.6828C27.263 38.2276 27.8271 38 28.5 38C29.1729 38 29.737 38.2276 30.1922 38.6828C30.6474 39.138 30.875 39.7021 30.875 40.375C30.875 41.0479 30.6474 41.612 30.1922 42.0672C29.737 42.5224 29.1729 42.75 28.5 42.75ZM19 42.75C18.3271 42.75 17.763 42.5224 17.3078 42.0672C16.8526 41.612 16.625 41.0479 16.625 40.375C16.625 39.7021 16.8526 39.138 17.3078 38.6828C17.763 38.2276 18.3271 38 19 38C19.6729 38 20.237 38.2276 20.6922 38.6828C21.1474 39.138 21.375 39.7021 21.375 40.375C21.375 41.0479 21.1474 41.612 20.6922 42.0672C20.237 42.5224 19.6729 42.75 19 42.75ZM38 42.75C37.3271 42.75 36.763 42.5224 36.3078 42.0672C35.8526 41.612 35.625 41.0479 35.625 40.375C35.625 39.7021 35.8526 39.138 36.3078 38.6828C36.763 38.2276 37.3271 38 38 38C38.6729 38 39.237 38.2276 39.6922 38.6828C40.1474 39.138 40.375 39.7021 40.375 40.375C40.375 41.0479 40.1474 41.612 39.6922 42.0672C39.237 42.5224 38.6729 42.75 38 42.75ZM11.875 52.25C10.5687 52.25 9.45052 51.7849 8.52031 50.8547C7.5901 49.9245 7.125 48.8063 7.125 47.5V14.25C7.125 12.9438 7.5901 11.8255 8.52031 10.8953C9.45052 9.9651 10.5687 9.5 11.875 9.5H14.25V4.75H19V9.5H38V4.75H42.75V9.5H45.125C46.4313 9.5 47.5495 9.9651 48.4797 10.8953C49.4099 11.8255 49.875 12.9438 49.875 14.25V47.5C49.875 48.8063 49.4099 49.9245 48.4797 50.8547C47.5495 51.7849 46.4313 52.25 45.125 52.25H11.875ZM11.875 47.5H45.125V23.75H11.875V47.5Z" fill="white"/>
</g>
</svg>
