<svg width="20" height="20" viewBox="0 0 20 20" fill="none" xmlns="http://www.w3.org/2000/svg">
<path d="M20.0004 10.0367C20.0004 4.49365 15.5233 0 10.0006 0C4.4779 0 0.000793457 4.49365 0.000793457 10.0367C0.000793457 14.7436 3.22953 18.6932 7.58504 19.778V13.104H5.52308V10.0367H7.58504V8.7151C7.58504 5.29899 9.12541 3.7156 12.4669 3.7156C13.1005 3.7156 14.1937 3.84046 14.6409 3.96491V6.74509C14.4049 6.7202 13.9949 6.70775 13.4857 6.70775C11.8462 6.70775 11.2126 7.33123 11.2126 8.95196V10.0367H14.4789L13.9177 13.104H11.2126V20C16.1641 19.3998 20.0008 15.1683 20.0008 10.0367H20.0004Z" fill="black"/>
</svg>
