<svg width="14" height="18" viewBox="0 0 14 18" fill="none" xmlns="http://www.w3.org/2000/svg">
<path d="M0.0205078 10.8333C0.0205078 9.22917 0.364715 7.80069 1.05313 6.54792C1.74154 5.29514 2.4988 4.24097 3.3249 3.38542C4.151 2.52986 4.90825 1.87674 5.59667 1.42604L6.62929 0.75V3.775C6.62929 4.34028 6.80139 4.78715 7.1456 5.11563C7.48981 5.4441 7.87532 5.60833 8.30214 5.60833C8.5362 5.60833 8.75994 5.55486 8.97334 5.44792C9.18675 5.34097 9.38295 5.16528 9.56194 4.92083L9.93368 4.41667C10.925 5.05833 11.7236 5.94826 12.3294 7.08646C12.9352 8.22465 13.2381 9.47361 13.2381 10.8333C13.2381 12.1778 12.9421 13.4038 12.35 14.5115C11.758 15.6191 10.9801 16.4938 10.0163 17.1354C10.2504 16.7688 10.4328 16.3677 10.5636 15.9323C10.6944 15.4969 10.7598 15.0347 10.7598 14.5458C10.7598 13.9347 10.6565 13.358 10.45 12.8156C10.2435 12.2733 9.94745 11.7882 9.56194 11.3604L6.62929 8.175L3.7173 11.3604C3.31801 11.8035 3.01511 12.2924 2.80859 12.8271C2.60206 13.3618 2.4988 13.9347 2.4988 14.5458C2.4988 15.0347 2.5642 15.4969 2.695 15.9323C2.8258 16.3677 3.00823 16.7688 3.24229 17.1354C2.27851 16.4938 1.5006 15.6191 0.908563 14.5115C0.316526 13.4038 0.0205078 12.1778 0.0205078 10.8333ZM6.62929 10.7417L8.38475 12.6438C8.61881 12.9035 8.7978 13.1938 8.92171 13.5146C9.04563 13.8354 9.10758 14.1792 9.10758 14.5458C9.10758 15.2944 8.86664 15.9323 8.38475 16.4594C7.90286 16.9865 7.31771 17.25 6.62929 17.25C5.94088 17.25 5.35572 16.9865 4.87383 16.4594C4.39194 15.9323 4.151 15.2944 4.151 14.5458C4.151 14.1944 4.21295 13.8545 4.33687 13.526C4.46078 13.1976 4.63977 12.9035 4.87383 12.6438L6.62929 10.7417Z" fill="white"/>
</svg>
