<svg width="20" height="20" viewBox="0 0 20 20" fill="none" xmlns="http://www.w3.org/2000/svg">
<path d="M5.86087 0.0699379C4.79686 0.120138 4.07025 0.289939 3.43505 0.53954C2.77764 0.79574 2.22043 1.13954 1.66603 1.69594C1.11162 2.25235 0.77022 2.80995 0.515817 3.46835C0.269615 4.10495 0.102813 4.83215 0.0558124 5.89676C0.00881192 6.96136 -0.0015882 7.30356 0.00361186 10.0192C0.00881191 12.7348 0.020812 13.0752 0.0724126 14.142C0.123213 15.2058 0.292415 15.9322 0.542017 16.5676C0.79862 17.225 1.14202 17.782 1.69863 18.3366C2.25523 18.8912 2.81244 19.2318 3.47245 19.4866C4.10845 19.7324 4.83586 19.9 5.90027 19.9466C6.96468 19.9932 7.30729 20.004 10.0221 19.9988C12.7369 19.9936 13.0787 19.9816 14.1454 19.931C15.212 19.8804 15.9346 19.71 16.5702 19.4616C17.2276 19.2044 17.785 18.8616 18.3392 18.3048C18.8934 17.748 19.2346 17.19 19.4888 16.5312C19.7352 15.8952 19.9026 15.1678 19.9488 14.1042C19.9954 13.0368 20.0064 12.696 20.0012 9.98077C19.996 7.26556 19.9838 6.92516 19.9332 5.85876C19.8826 4.79235 19.7132 4.06815 19.4638 3.43235C19.2068 2.77495 18.8638 2.21835 18.3074 1.66334C17.751 1.10834 17.1926 0.76734 16.534 0.513739C15.8976 0.267539 15.1706 0.099738 14.1062 0.0537378C13.0417 0.00773764 12.6991 -0.0040624 9.98331 0.00113762C7.26749 0.00633763 6.92748 0.0179377 5.86087 0.0699379ZM5.97767 18.1476C5.00266 18.1052 4.47326 17.9432 4.12045 17.8076C3.65325 17.6276 3.32045 17.41 2.96884 17.0618C2.61724 16.7136 2.40124 16.3796 2.21883 15.9134C2.08183 15.5606 1.91683 15.0318 1.87123 14.0568C1.82163 13.003 1.81123 12.6866 1.80543 10.0168C1.79963 7.34696 1.80983 7.03096 1.85603 5.97676C1.89763 5.00256 2.06063 4.47255 2.19603 4.11995C2.37604 3.65215 2.59284 3.31995 2.94184 2.96855C3.29085 2.61715 3.62385 2.40075 4.09045 2.21835C4.44286 2.08074 4.97166 1.91714 5.94627 1.87074C7.00088 1.82074 7.31689 1.81074 9.98631 1.80494C12.6557 1.79914 12.9725 1.80914 14.0276 1.85554C15.0018 1.89794 15.532 2.05934 15.8842 2.19555C16.3516 2.37555 16.6842 2.59175 17.0356 2.94135C17.387 3.29095 17.6036 3.62275 17.786 4.09035C17.9238 4.44175 18.0874 4.97036 18.1334 5.94556C18.1836 7.00016 18.195 7.31636 18.1998 9.98557C18.2046 12.6548 18.1952 12.9718 18.149 14.0256C18.1064 15.0006 17.9448 15.5302 17.809 15.8834C17.629 16.3504 17.412 16.6834 17.0628 17.0346C16.7136 17.3858 16.381 17.6022 15.9142 17.7846C15.5622 17.922 15.0328 18.086 14.059 18.1324C13.0043 18.182 12.6883 18.1924 10.0179 18.1982C7.34749 18.204 7.03248 18.1932 5.97787 18.1476M14.13 4.65535C14.1304 4.89271 14.2011 5.12462 14.3333 5.32174C14.4655 5.51887 14.6532 5.67237 14.8727 5.76281C15.0921 5.85326 15.3335 5.8766 15.5662 5.82988C15.7989 5.78315 16.0125 5.66847 16.1801 5.50033C16.3476 5.33218 16.4615 5.11813 16.5074 4.88525C16.5532 4.65237 16.529 4.41112 16.4377 4.19201C16.3465 3.97289 16.1923 3.78576 15.9947 3.65428C15.7971 3.5228 15.5649 3.45288 15.3276 3.45335C15.0094 3.45399 14.7045 3.58097 14.4799 3.80638C14.2553 4.03179 14.1294 4.33716 14.13 4.65535ZM4.86786 10.01C4.87346 12.846 7.17668 15.1398 10.0121 15.1344C12.8475 15.129 15.143 12.826 15.1376 9.98997C15.1322 7.15396 12.8283 4.85955 9.99251 4.86515C7.15668 4.87075 4.86246 7.17436 4.86786 10.01ZM6.66908 10.0064C6.66778 9.34709 6.862 8.70222 7.2272 8.15332C7.5924 7.60442 8.11216 7.17614 8.72076 6.92264C9.32937 6.66914 9.99948 6.6018 10.6464 6.72914C11.2932 6.85648 11.8878 7.17278 12.3549 7.63804C12.822 8.1033 13.1407 8.69663 13.2706 9.34299C13.4005 9.98935 13.3358 10.6597 13.0847 11.2693C12.8336 11.8789 12.4074 12.4004 11.86 12.7677C11.3125 13.1351 10.6684 13.3319 10.0091 13.3332C9.57135 13.3341 9.13768 13.2488 8.7329 13.0821C8.32811 12.9154 7.96013 12.6706 7.64997 12.3616C7.33981 12.0527 7.09354 11.6857 6.92524 11.2816C6.75694 10.8775 6.66989 10.4441 6.66908 10.0064Z" fill="black"/>
</svg>
