<svg width="29" height="26" viewBox="0 0 29 26" fill="none" xmlns="http://www.w3.org/2000/svg">
<path d="M28.9922 9.71095C28.9449 9.22643 28.7557 8.76662 28.4483 8.38915C28.1492 8.03732 27.7768 7.75514 27.3571 7.56239C26.9375 7.36964 26.4808 7.27099 26.019 7.27334C24.954 5.03389 23.2591 3.15365 21.1417 1.86295C19.0243 0.57224 16.5764 -0.0729012 14.0979 0.00654636C11.6194 0.0859939 9.21785 0.886581 7.18746 2.31024C5.15707 3.73391 3.58597 5.71883 2.66661 8.02189H2.66924C1.87034 8.67303 1.28255 9.54653 0.980246 10.5318C0.677942 11.5172 0.674716 12.57 0.970974 13.5571C1.40924 14.9819 1.1248 15.1073 0.552432 15.5771C0.375204 15.7094 0.232506 15.8825 0.136449 16.0817C0.0403925 16.2809 -0.00618853 16.5004 0.000659294 16.7214C0.000659294 17.0659 0.0725345 17.3161 0.559006 17.3161H2.60657C3.63795 19.9992 5.54599 22.2548 8.02089 23.7168C10.4958 25.1788 13.3922 25.7613 16.2399 25.3696C19.0875 24.978 21.7192 23.6353 23.7076 21.5595C25.696 19.4838 26.9243 16.7968 27.1931 13.9349L28.4886 11.7988C28.868 11.1716 29.0435 10.4421 28.9909 9.71095M3.10751 7.71817C4.06527 5.54718 5.62313 3.69487 7.59782 2.37914C9.57251 1.06341 11.8819 0.339001 14.2543 0.291122C16.6267 0.243242 18.9634 0.873887 20.9896 2.10887C23.0157 3.34385 24.647 5.1318 25.6916 7.26238C25.6377 7.26238 25.5882 7.25712 25.5325 7.25712C25.2246 7.25889 24.9172 7.28085 24.6122 7.32286C23.6339 5.5019 22.1817 3.97913 20.4092 2.91555C18.6368 1.85198 16.6098 1.28711 14.5427 1.28069C12.4756 1.27427 10.4452 1.82653 8.66612 2.87908C6.88705 3.93163 5.42546 5.44534 4.43588 7.26019C4.02437 7.27997 3.62442 7.40279 3.27273 7.61737C3.21576 7.64849 3.16229 7.6853 3.10707 7.71861L3.10751 7.71817ZM22.0817 6.21975C22.0725 6.20821 22.0609 6.19884 22.0476 6.19231C22.0344 6.18579 22.0199 6.18228 22.0051 6.18203C21.9904 6.18178 21.9758 6.18479 21.9623 6.19086C21.9489 6.19693 21.937 6.2059 21.9274 6.21712C21.7959 6.32844 22.1491 6.72332 21.8871 6.94858C21.8484 6.97843 21.8038 6.99986 21.7564 7.01149C21.7089 7.02312 21.6595 7.02469 21.6114 7.0161C21.5633 7.00752 21.5175 6.98897 21.4769 6.96164C21.4364 6.93432 21.4021 6.89882 21.3761 6.85742C21.2056 6.65845 21.1416 6.48315 21.38 6.29995L21.572 6.52303C21.5361 6.54829 21.5062 6.58104 21.4843 6.61901C21.4694 6.65407 21.4773 6.68957 21.5163 6.73471C21.5253 6.74646 21.5366 6.75618 21.5496 6.76323C21.5626 6.77028 21.5769 6.77451 21.5917 6.77562C21.6064 6.77674 21.6212 6.77473 21.6351 6.76972C21.649 6.7647 21.6617 6.75681 21.6723 6.74654C21.8454 6.59797 21.462 6.23071 21.7218 6.00719C21.8971 5.85599 22.1018 5.98441 22.228 6.13122C22.3595 6.28637 22.4077 6.4906 22.2206 6.62909L22.0295 6.40645C22.086 6.35824 22.1141 6.32231 22.1145 6.29382C22.1144 6.28003 22.1115 6.2664 22.106 6.25374C22.1005 6.24109 22.0925 6.22968 22.0825 6.22019M20.4456 4.7301C20.3431 4.65384 20.2673 4.73842 20.1336 4.91767C19.9386 5.18063 19.918 5.25426 20.0074 5.32044C20.0827 5.37653 20.1695 5.33446 20.2532 5.22139L20.4947 5.40064C20.4655 5.45174 20.4248 5.49532 20.3758 5.5279C20.3269 5.56049 20.2709 5.58118 20.2125 5.58833C20.1541 5.59548 20.0949 5.58889 20.0395 5.56909C19.9841 5.54929 19.934 5.51682 19.8934 5.47427C19.5818 5.2433 19.6822 5.02286 19.8829 4.75289C20.0582 4.51666 20.2414 4.34048 20.56 4.57758C20.6115 4.60334 20.6563 4.64071 20.6909 4.68674C20.7255 4.73276 20.749 4.7862 20.7594 4.84283C20.7699 4.89946 20.7671 4.95774 20.7512 5.01309C20.7353 5.06843 20.7067 5.11934 20.6678 5.16179L20.4263 4.98254C20.5214 4.85413 20.521 4.78751 20.4456 4.73141M19.1308 20.3695V20.6544H18.707V21.2679H18.4033V19.7941H18.707V20.3682L19.1308 20.3695ZM18.5041 21.4292C18.5602 21.4785 18.6065 21.538 18.6404 21.6045C18.675 21.6724 18.6928 21.7475 18.6926 21.8237C18.6928 21.8995 18.676 21.9743 18.6435 22.0428C18.6109 22.1103 18.5655 22.1709 18.5098 22.2212C18.4518 22.2731 18.3848 22.3139 18.3122 22.3417C18.2352 22.371 18.1535 22.3858 18.0711 22.3855C17.9862 22.3862 17.9018 22.3714 17.8222 22.3417C17.7501 22.3142 17.6834 22.2745 17.625 22.2242C17.5693 22.1745 17.5245 22.1137 17.4935 22.0459C17.4627 21.9769 17.447 21.9022 17.4475 21.8267C17.4472 21.7509 17.4639 21.676 17.4966 21.6076C17.5291 21.5402 17.5756 21.4805 17.6329 21.4323C17.6911 21.3822 17.7579 21.343 17.8301 21.3166C17.9063 21.2878 17.987 21.273 18.0685 21.2728C18.1487 21.2725 18.2283 21.2861 18.3038 21.3131C18.3768 21.3392 18.4447 21.3781 18.5041 21.4279M16.6196 21.1277L16.6248 21.1316L16.6205 21.1369L16.4294 21.3468L16.4254 21.3512L16.4206 21.3473L15.7282 20.7639C15.6482 20.8928 15.5487 21.0084 15.4332 21.1067C15.3112 21.2114 15.1726 21.2949 15.023 21.3538H15.0186L15.0155 21.3499L14.824 21.1343L14.8183 21.1277L14.8262 21.1242C15.0296 21.0438 15.2109 20.9161 15.3552 20.7517C15.4213 20.6733 15.4756 20.5858 15.5165 20.4918C15.5549 20.4004 15.5748 20.3022 15.5748 20.203V20.0031H15.8978V20.203C15.8976 20.2503 15.8933 20.2975 15.8851 20.3441C15.8775 20.3897 15.8675 20.4354 15.8553 20.4813L16.6196 21.1277ZM15.5678 21.6711V21.0751H15.8662V21.6711H16.9066V21.9556H14.5931V21.6711H15.5678ZM16.8549 21.1391V19.9532H17.1565V20.3331H17.6662V19.9532H17.9677V21.1391H16.8549ZM15.09 16.9879H11.1457L14.9871 11.1761L14.6049 10.8351C14.4204 10.6493 14.3827 10.5358 14.4357 10.3635C14.4701 10.2643 14.5356 10.1789 14.6225 10.12C14.7094 10.0611 14.813 10.0318 14.9178 10.0366H18.7587C18.8093 10.0371 18.8586 10.0521 18.9008 10.0798C18.943 10.1076 18.9763 10.1469 18.9967 10.193C19.0145 10.2418 19.02 10.2941 19.013 10.3455C19.006 10.3969 18.9866 10.4458 18.9564 10.488L18.9275 10.5423L15.09 16.9879ZM14.0527 21.3043V21.9508H13.0745V22.0594H14.1175V22.3474H12.7655V21.679H13.7415V21.5835H12.7515V21.3065H13.245V21.1829H12.2448V20.9024H14.5676V21.1829H13.5465V21.3048L14.0527 21.3043ZM12.741 20.3108C12.7399 20.2338 12.7567 20.1576 12.79 20.0881C12.8225 20.0219 12.869 19.9636 12.9263 19.9172C12.9862 19.8688 13.0546 19.8319 13.1279 19.8085C13.2921 19.7574 13.4678 19.7574 13.6319 19.8085C13.7065 19.8319 13.7762 19.8687 13.8375 19.9172C13.8954 19.9625 13.9428 20.0197 13.9764 20.0851C14.0116 20.154 14.0295 20.2304 14.0286 20.3077C14.0293 20.3822 14.0119 20.4558 13.9777 20.522C13.9444 20.5863 13.8987 20.6434 13.8432 20.6899C13.7812 20.7368 13.7115 20.7727 13.6372 20.7959C13.5543 20.822 13.4678 20.8349 13.3808 20.8341C13.2976 20.8346 13.2148 20.8229 13.135 20.7994C13.0608 20.7773 12.9912 20.7421 12.9294 20.6956C12.872 20.6514 12.8251 20.5951 12.7918 20.5308C12.7572 20.463 12.7398 20.3878 12.741 20.3117M11.0615 20.8135V20.5255H11.6576V19.7941H11.956V22.2597H11.6576V20.8135H11.0615ZM4.51345 15.8265C4.37898 15.985 4.28684 16.175 4.24561 16.3788C4.20438 16.5826 4.21541 16.7935 4.27767 16.9918H3.84685C3.74561 16.8229 3.68284 16.6338 3.66299 16.438C3.64314 16.2421 3.66671 16.0442 3.73203 15.8585C3.74299 15.8243 3.73203 15.7919 3.69916 15.8265C3.5641 15.9847 3.47149 16.1747 3.43001 16.3785C3.38854 16.5824 3.39957 16.7934 3.46206 16.9918H3.17544C2.98348 16.9918 2.95893 16.8862 2.93527 16.6929C2.77048 14.7817 5.2471 15.0043 6.28316 15.6792C5.94832 16.1674 5.63453 16.621 5.37201 16.994H4.66071C4.56025 16.8248 4.49803 16.6357 4.47842 16.4399C4.45881 16.2441 4.48229 16.0464 4.5472 15.8607C4.55815 15.8265 4.5472 15.794 4.51301 15.8287M10.1039 11.1783L9.72352 10.8382C9.53551 10.651 9.49738 10.5375 9.55172 10.3657C9.5864 10.2667 9.65198 10.1815 9.73879 10.1227C9.82559 10.0638 9.92902 10.0344 10.0338 10.0388H13.8467C13.8973 10.0396 13.9466 10.0548 13.9889 10.0825C14.0313 10.1101 14.0649 10.1492 14.086 10.1952C14.1058 10.2548 14.1095 10.3186 14.0969 10.3802C14.0843 10.4417 14.0558 10.4988 14.0141 10.5458L9.85062 16.9914H6.18893L10.1039 11.1783ZM6.62719 14.7874C6.61931 14.7282 6.64691 14.6874 6.71046 14.7256C6.76629 14.7555 6.81204 14.8012 6.84194 14.857L6.79286 14.9289C6.78972 14.9192 6.78576 14.9099 6.78102 14.9009C6.75473 14.9793 6.6399 14.9114 6.62675 14.7874M6.39754 13.235C6.39754 13.235 6.39491 13.274 6.4028 13.2495C6.47468 13.0865 6.82003 13.3371 6.68548 13.5339C6.56189 13.7057 6.19901 13.4656 6.22268 13.1754C6.2665 12.6315 6.84238 13.0439 7.19299 13.5528C7.27781 13.6787 7.38314 13.7895 7.5046 13.8806C7.36289 14.0904 7.21943 14.3019 7.07422 14.5152C7.07275 14.3857 7.04282 14.2581 6.98655 14.1415C6.93027 14.0248 6.84904 13.922 6.74859 13.8403C6.79965 13.8234 6.84354 13.7899 6.8732 13.745C6.90285 13.7002 6.91654 13.6467 6.91206 13.5931C6.92171 13.2863 6.43918 12.8923 6.39754 13.235ZM7.4932 6.40645C7.28503 6.22457 6.84589 6.7014 6.50141 6.40032C6.31953 6.2421 6.25073 6.02955 6.50799 5.73372C6.54021 5.67857 6.58566 5.63231 6.64023 5.59911C6.6948 5.56592 6.75678 5.54683 6.82057 5.54356C6.88436 5.5403 6.94796 5.55297 7.00563 5.58043C7.06331 5.60789 7.11324 5.64927 7.15092 5.70085L6.94493 5.93663C6.85728 5.86125 6.75736 5.79858 6.67146 5.89631C6.65492 5.91145 6.64198 5.9301 6.63361 5.95089C6.62523 5.97168 6.62162 5.99409 6.62305 6.01646C6.62448 6.03883 6.63091 6.0606 6.64187 6.08016C6.65282 6.09972 6.66803 6.11657 6.68636 6.12947C6.90549 6.32143 7.31264 5.81655 7.67683 6.13473C7.97704 6.39769 7.82058 6.64706 7.6593 6.83157C7.62392 6.88871 7.57481 6.93611 7.51645 6.96944C7.45808 7.00278 7.39231 7.02099 7.32511 7.02243C7.25791 7.02386 7.19142 7.00848 7.13168 6.97767C7.07195 6.94686 7.02086 6.90161 6.98306 6.84603L7.19431 6.60323C7.30475 6.70009 7.40248 6.77854 7.51862 6.64355C7.53453 6.62725 7.54664 6.60763 7.55409 6.5861C7.56154 6.56458 7.56414 6.54167 7.56172 6.51902C7.55929 6.49637 7.55189 6.47453 7.54004 6.45508C7.5282 6.43562 7.5122 6.41901 7.4932 6.40645ZM10.0176 4.4816L9.6534 3.83034L9.91636 3.68396L10.3375 4.4369C10.3717 4.49826 10.4107 4.55917 10.451 4.61746L10.1798 4.76954L10.1267 4.67488H10.1232C10.1218 4.72522 10.1063 4.77416 10.0784 4.8161C10.0505 4.85803 10.0113 4.89126 9.96544 4.91198C9.93803 4.93146 9.90689 4.94506 9.87397 4.95194C9.84106 4.95882 9.80707 4.95882 9.77415 4.95195C9.74123 4.94508 9.71009 4.93148 9.68267 4.91201C9.65526 4.89253 9.63216 4.86761 9.61483 4.83879L9.19322 4.08585L9.45618 3.93947L9.82038 4.58985C9.86727 4.67312 9.91636 4.72615 10.0005 4.67751C10.0846 4.62886 10.0645 4.56137 10.0176 4.47766M10.0215 3.12255L10.2959 2.9994L10.9261 4.40184L10.6518 4.52499L10.0215 3.12255ZM9.25327 4.6648C9.44961 4.93783 9.54602 5.16003 9.23091 5.38661C8.9158 5.6132 8.73655 5.45016 8.54021 5.17669C8.36841 4.93783 8.25709 4.70906 8.57834 4.47766C8.89959 4.24626 9.08147 4.4255 9.25327 4.6648ZM8.42057 5.35243L7.99414 5.7381C8.08179 5.83277 8.21327 5.97257 8.30925 5.88404C8.38813 5.81261 8.33554 5.72276 8.2755 5.65615L8.50164 5.45192C8.53701 5.48994 8.56426 5.53477 8.58174 5.58367C8.59922 5.63257 8.60656 5.68452 8.60332 5.73635C8.58732 5.85072 8.52802 5.95457 8.43766 6.02648C8.15016 6.28637 7.95557 6.14569 7.72811 5.895C7.53089 5.67587 7.39372 5.462 7.68779 5.19378C7.98186 4.92556 8.19705 5.08684 8.42057 5.34936M11.7549 3.15147L12.1931 3.02745L12.2576 3.25534L11.8193 3.37937L12.002 4.02493L11.6953 4.11259L11.2728 2.63257L12.0411 2.41344L12.1059 2.64134L11.6466 2.77281L11.7549 3.15147ZM12.3882 2.58918L12.3443 2.3569L12.6397 2.30037L12.6835 2.53221L12.3882 2.58918ZM12.7256 2.75441L12.9285 3.81106L12.6336 3.86803L12.4302 2.81138L12.7256 2.75441ZM13.4365 3.14884L13.5044 3.73086L13.206 3.76548L13.0811 2.69743L13.365 2.66413L13.3808 2.80174H13.3852C13.4025 2.74664 13.4369 2.69847 13.4834 2.6642C13.5298 2.62992 13.586 2.61133 13.6438 2.6111L13.6749 2.87756C13.4119 2.89115 13.4242 3.0441 13.4369 3.14972M14.2858 3.5091C14.3928 3.50647 14.4112 3.40435 14.4094 3.31451L14.7162 3.3075C14.7179 3.35939 14.7091 3.4111 14.6904 3.45952C14.6716 3.50794 14.6433 3.55208 14.6071 3.5893C14.5202 3.66539 14.4074 3.70537 14.292 3.70106C13.9045 3.70982 13.8485 3.47491 13.8406 3.13876C13.8336 2.84469 13.8704 2.59225 14.2666 2.58349C14.6711 2.57384 14.7219 2.83505 14.7193 3.1804L14.1443 3.19355C14.1473 3.32108 14.1561 3.51304 14.2876 3.50953M9.83046 21.3144C9.93064 21.2657 10.0232 21.2026 10.1052 21.1273C10.177 21.0605 10.2398 20.9846 10.2919 20.9016C10.3381 20.8266 10.3736 20.7456 10.3976 20.661C10.4191 20.5823 10.4302 20.5011 10.4304 20.4195V20.036H10.7469V20.366C10.747 20.4267 10.743 20.4873 10.735 20.5474C10.7267 20.6035 10.7162 20.6588 10.7039 20.7114L11.3302 21.321L11.335 21.3249L11.3302 21.3297L11.1334 21.5348L11.1295 21.5388L11.1246 21.5353L10.5812 21.0076C10.5143 21.1272 10.4285 21.2351 10.327 21.3271C10.2353 21.4106 10.135 21.4841 10.0277 21.5462L10.0229 21.5489L10.0198 21.5449L9.82827 21.3258L9.82301 21.3197L9.83046 21.3144ZM15.9832 3.58798C16.0054 3.593 16.0285 3.593 16.0507 3.588C16.0729 3.58299 16.0938 3.5731 16.1117 3.55904C16.1296 3.54498 16.1442 3.52711 16.1543 3.50672C16.1645 3.48633 16.1699 3.46394 16.1704 3.44117C16.2142 3.16725 15.577 3.04673 15.6493 2.59663C15.6874 2.35866 15.8307 2.18773 16.219 2.24909C16.5284 2.29861 16.6603 2.46165 16.5885 2.77501L16.2791 2.72548C16.2966 2.61197 16.2962 2.4932 16.1682 2.4726C16.1466 2.46661 16.124 2.46553 16.1019 2.46943C16.0799 2.47333 16.059 2.48212 16.0408 2.49515C16.0226 2.50818 16.0075 2.52512 15.9967 2.54473C15.986 2.56434 15.9797 2.58612 15.9784 2.60847C15.9346 2.89684 16.5762 2.9731 16.4999 3.45081C16.4373 3.84524 16.1414 3.84524 15.8995 3.8058C15.5051 3.74313 15.4691 3.49902 15.5283 3.24L15.8461 3.2904C15.8228 3.43547 15.8097 3.55818 15.9845 3.58623M18.1951 3.4381C18.2361 3.39739 18.2891 3.37081 18.3462 3.36222C18.4033 3.35363 18.4617 3.36347 18.5129 3.39033L18.4151 3.64014C18.1754 3.52838 18.1158 3.6695 18.0768 3.76899L17.8643 4.31419L17.5842 4.20506L17.9751 3.20319L18.2412 3.30662L18.1908 3.4381H18.1951ZM17.5531 3.66862L17 3.51085C16.9645 3.634 16.9167 3.81763 17.0438 3.85576C17.1464 3.88469 17.195 3.79221 17.2191 3.70588L17.5123 3.78915C17.4988 3.83933 17.4752 3.88622 17.4429 3.92699C17.4107 3.96775 17.3705 4.00152 17.3248 4.02625C17.2194 4.0734 17.1 4.07826 16.9912 4.03983C16.6187 3.93377 16.6341 3.69185 16.7283 3.36841C16.8089 3.08573 16.9189 2.85565 17.298 2.96477C17.6868 3.07522 17.6583 3.33993 17.5531 3.66862ZM18.7101 4.70161L18.4147 4.55392L18.6417 3.46439L18.9139 3.60069L18.6873 4.38957L18.6913 4.3922L19.1939 3.74094L19.4569 3.87242L18.7101 4.70161ZM19.6817 4.0131L19.9372 4.17L19.3745 5.08641L19.1177 4.93214L19.6817 4.0131ZM19.8001 3.82026L19.9237 3.6191L20.1796 3.77644L20.0564 3.9776L19.8001 3.82026ZM20.748 5.40634C20.9483 5.19115 21.1512 5.03644 21.4405 5.30685C21.7297 5.57726 21.5904 5.80516 21.3476 6.0519L20.9264 5.65746C20.8387 5.75081 20.7121 5.89368 20.8085 5.98397C20.8865 6.05672 20.9715 5.99668 21.0329 5.93094L21.2555 6.13867C21.2208 6.17725 21.1785 6.20831 21.1314 6.22994C21.0842 6.25157 21.0331 6.26332 20.9812 6.26446C20.8659 6.25822 20.7573 6.20803 20.6779 6.12421C20.3943 5.86125 20.5179 5.6522 20.748 5.4059M5.47851 8.00173C5.55608 8.00645 5.6301 8.03589 5.68972 8.08573C5.74934 8.13558 5.79144 8.20321 5.80983 8.27871C5.54688 8.19106 4.98809 8.21341 5.07443 7.7528C5.13622 7.43725 5.64066 7.4333 5.62532 7.72519C5.61437 7.90049 5.34045 7.90049 5.37245 7.74491C5.37245 7.73614 5.36456 7.73001 5.35535 7.73702C5.33672 7.7609 5.32502 7.78946 5.32156 7.81956C5.3181 7.84966 5.323 7.88013 5.33573 7.90762C5.34845 7.93512 5.36852 7.95857 5.3937 7.9754C5.41889 7.99224 5.44824 8.0018 5.47851 8.00304M1.68184 16.9918C1.6249 16.8502 1.59706 16.6985 1.6 16.5459C1.60294 16.3933 1.63658 16.2428 1.69893 16.1035C1.71208 16.0737 1.702 16.0478 1.67263 16.0706C1.5536 16.1883 1.46833 16.3358 1.4257 16.4976C1.38307 16.6595 1.38465 16.8299 1.43027 16.9909H1.08887C1.02737 16.8554 0.995336 16.7084 0.994883 16.5595C0.994429 16.4107 1.02557 16.2635 1.08624 16.1276C1.09807 16.1021 1.09106 16.0758 1.06301 16.1021C0.949464 16.2173 0.866068 16.3587 0.820202 16.5138C0.774336 16.6689 0.767414 16.833 0.800051 16.9914H0.509483C0.412626 16.9914 0.375374 16.9322 0.375374 16.8393C0.375374 15.361 1.82164 15.2813 2.46676 15.5771L2.4729 15.5828C2.52199 15.6091 2.53513 15.5876 2.50621 15.5543L2.49744 15.5425C2.36487 15.403 2.19987 15.2984 2.01713 15.2381C1.83439 15.1778 1.63956 15.1635 1.44999 15.1967C1.58003 14.6103 1.52961 13.9982 1.30537 13.441C0.651918 11.3558 1.5394 8.88307 3.38054 7.87507C3.60995 7.72395 3.86761 7.62091 4.13796 7.57217C4.40831 7.52343 4.68573 7.53001 4.95347 7.59152C4.9168 7.64283 4.89537 7.70346 4.89165 7.76642C4.88793 7.82938 4.90207 7.89211 4.93243 7.94738C4.56736 7.78961 3.94152 8.07492 4.14356 8.35585L4.15451 8.36768C4.18037 8.40581 4.19834 8.39397 4.18826 8.34927V8.33349C4.18037 8.21867 4.2632 8.13934 4.38592 8.09815C4.35145 8.12748 4.32919 8.16864 4.3235 8.21354C4.31782 8.25844 4.32912 8.30385 4.3552 8.34085C4.38127 8.37784 4.42023 8.40376 4.46443 8.41351C4.50863 8.42325 4.55488 8.41613 4.59409 8.39353C4.55368 8.39147 4.51548 8.3744 4.48698 8.34568C4.45848 8.31695 4.44171 8.27863 4.43996 8.2382C4.4382 8.19777 4.45159 8.15813 4.4775 8.12705C4.50341 8.09596 4.53998 8.07565 4.58007 8.0701C4.81279 8.04424 5.18969 8.26556 4.9745 8.34094C4.85805 8.36948 4.74652 8.41527 4.64362 8.47681C4.60636 8.50179 4.61381 8.51099 4.65063 8.50705C4.81528 8.49644 4.97875 8.47196 5.13929 8.43386C6.33531 8.22393 6.73676 8.94487 6.69074 9.23807C6.68066 9.19424 6.59827 9.08774 6.55444 9.16049C6.48783 9.29986 6.2367 9.32923 6.02853 9.10308C5.97345 9.05935 5.90867 9.0295 5.83963 9.01608C5.7706 9.00266 5.69935 9.00604 5.6319 9.02595C5.36324 9.07328 5.23746 9.06408 5.12264 8.82084C5.09634 8.8055 5.09634 8.81821 5.09941 8.84056C5.11256 9.02595 5.14893 9.36166 5.49823 9.416C5.62094 9.44493 5.75111 9.30118 5.93167 9.41863C6.05132 9.52688 6.18455 9.66537 6.37914 9.61848C6.55795 9.57465 6.56321 9.6496 6.58731 9.70613C6.62018 9.8604 6.54699 9.92526 6.41814 9.83323C6.35351 9.78728 6.27962 9.75602 6.20164 9.74163C5.62752 9.66976 5.081 10.1619 4.63792 9.37086C4.5837 9.26473 4.49179 9.18267 4.38022 9.14077C4.29868 9.11945 4.21215 9.12871 4.13698 9.16683C4.06181 9.20494 4.00319 9.26926 3.9722 9.34763C3.84072 9.57991 3.93845 9.4984 4.08702 9.39935C4.13215 9.37665 4.18257 9.36659 4.23295 9.37021C4.28333 9.37384 4.3318 9.39102 4.37321 9.41995C4.4029 9.45253 4.42116 9.49391 4.42519 9.53782C4.42923 9.58172 4.41882 9.62574 4.39556 9.66318C4.28293 9.82753 4.15276 9.99626 4.0765 10.0169C3.97264 10.0432 3.94502 9.87355 3.93319 9.77757C3.9253 9.71972 3.89945 9.72586 3.88936 9.78502C3.86351 9.93885 3.87359 10.1628 4.00989 10.1681C4.22113 10.1825 4.40432 9.95594 4.54194 9.74339C4.54758 9.73704 4.55445 9.73191 4.56214 9.72831C4.56982 9.7247 4.57816 9.7227 4.58664 9.72241C4.59513 9.72212 4.60358 9.72356 4.61149 9.72664C4.6194 9.72972 4.6266 9.73437 4.63266 9.74032C4.77472 9.88047 4.95438 9.97639 5.14987 10.0165C5.34537 10.0565 5.54828 10.039 5.73401 9.96602C5.88603 9.93017 6.0433 9.9223 6.19813 9.94279C6.25459 9.94701 6.30944 9.96353 6.35883 9.9912C6.40822 10.0189 6.45095 10.057 6.48403 10.103C6.51711 10.1489 6.53973 10.2015 6.5503 10.2571C6.56088 10.3128 6.55915 10.37 6.54524 10.4249C6.5036 10.6203 6.46635 10.644 6.37782 10.7089C6.34188 10.7387 6.33882 10.772 6.36949 10.7772C6.36949 10.7772 6.40412 10.8211 6.34977 10.9333C6.33164 10.9664 6.31159 10.9984 6.28973 11.0292C6.28055 11.0402 6.27275 11.0523 6.2665 11.0652C6.1828 11.1907 6.08088 11.3031 5.9641 11.3987H5.96103C5.75023 11.553 5.68756 11.6468 5.82955 11.6437C5.86867 11.6429 5.90741 11.6359 5.94438 11.6231C5.95709 11.6327 5.96498 11.6406 5.97813 11.6494C6.57489 12.1375 7.08158 12.7264 7.47523 13.3893C7.50153 13.4331 7.59707 13.4577 7.73819 13.5379L7.57472 13.7789C7.4159 13.6154 7.27796 13.4329 7.16407 13.2355C6.2928 11.7945 5.49867 12.5627 6.04211 13.4581C6.1237 13.5945 6.2398 13.707 6.3787 13.7842C6.14467 14.094 6.73895 14.6085 6.8117 14.3565C6.81595 14.3284 6.81424 14.2997 6.80669 14.2723C6.79914 14.2449 6.78592 14.2194 6.76788 14.1974C6.65568 14.403 6.43874 13.8714 6.66883 13.9761C6.77311 14.0611 6.85428 14.1709 6.90484 14.2956C6.9554 14.4202 6.97371 14.5556 6.95808 14.6892L6.91426 14.7523C6.8266 14.6318 6.6513 14.4652 6.50623 14.5516C6.43436 14.5954 6.42822 14.7225 6.49002 14.8584C6.5317 14.9516 6.60765 15.0252 6.70214 15.0639C6.57373 15.2523 6.44619 15.439 6.32129 15.6214C5.78326 15.1668 5.09349 14.932 4.38986 14.964C4.35007 14.9714 4.30914 14.9699 4.26998 14.9597C4.23081 14.9495 4.19439 14.9308 4.16329 14.9049C4.13219 14.879 4.1072 14.8465 4.09007 14.8098C4.07295 14.7732 4.06413 14.7332 4.06423 14.6927C4.04937 14.5259 4.04425 14.3583 4.04889 14.1909C4.04889 13.5997 4.92542 13.0873 5.33432 12.3221C5.39261 12.2099 5.35404 12.1771 5.27954 12.2783C4.9801 12.7063 4.60509 13.0761 4.17292 13.3696C4.17029 13.3577 4.17029 13.3459 4.16679 13.3341C4.13007 13.2212 4.06813 13.1182 3.98566 13.0328C3.90319 12.9475 3.80237 12.882 3.69083 12.8415L3.6847 12.8384C3.62203 12.8099 3.60844 12.8384 3.66015 12.8765L3.67067 12.8818C3.94196 13.0794 4.002 13.32 3.8898 13.5212C3.71669 13.828 3.4156 13.8442 3.29815 13.6619C3.14958 13.4244 3.38317 13.1469 3.59967 13.3989C3.84335 12.7854 2.64251 12.8489 2.83753 13.6523C2.45849 13.5661 2.11196 13.3735 1.83873 13.097V13.0996C1.77869 13.0378 1.75634 13.0751 1.79491 13.1303C2.08095 13.5366 2.47444 13.8553 2.93132 14.0506C3.30647 14.1609 3.63175 14.3979 3.85168 14.7212C3.94809 14.9131 3.78637 15.0451 3.64569 15.0933C3.01152 15.3098 2.45888 15.8887 2.64645 16.9918H1.68184ZM14.5037 25.2022C12.0041 25.2023 9.56234 24.4503 7.49596 23.0439C5.42958 21.6375 3.8342 19.6419 2.9173 17.3166H3.98929C4.82564 19.2401 6.17351 20.8974 7.88625 22.1081C9.59898 23.3188 11.611 24.0366 13.7033 24.1834C15.7956 24.3302 17.8881 23.9003 19.7531 22.9406C21.6181 21.9808 23.1842 20.5279 24.2809 18.74L24.287 18.7326L24.3067 18.6993L24.3186 18.6804L26.8311 14.5323C26.4011 17.4952 24.9186 20.2041 22.6549 22.1635C20.3912 24.1229 17.4976 25.2016 14.5037 25.2022ZM28.0324 11.3658C27.9947 11.432 27.9531 11.5026 27.9119 11.5692L23.1497 19.0942H18.4835L21.2796 15.3808C21.1482 15.3908 21.0237 15.3952 20.8962 15.3952C18.37 15.3952 17.4663 13.5817 18.8416 11.4105C20.1704 9.30337 23.1563 7.64586 25.5439 7.64586C27.9316 7.64586 29.2227 9.26217 28.0324 11.3658ZM17.1569 20.859H17.6666V20.6154H17.1569V20.859ZM18.0694 21.5533C17.9874 21.5511 17.9076 21.5799 17.8458 21.6339C17.8176 21.657 17.7947 21.6861 17.779 21.719C17.7632 21.752 17.7549 21.788 17.7547 21.8245C17.7546 21.8619 17.7623 21.8988 17.7774 21.9329C17.7925 21.967 17.8147 21.9976 17.8423 22.0226C17.9058 22.0792 17.9889 22.1086 18.0737 22.1046C18.1552 22.1075 18.2349 22.0807 18.2981 22.0292C18.3268 22.0049 18.3496 21.9744 18.3647 21.94C18.3799 21.9056 18.3871 21.8682 18.3858 21.8307C18.3869 21.7931 18.3796 21.7557 18.3644 21.7213C18.3493 21.6869 18.3266 21.6563 18.2981 21.6317C18.2353 21.579 18.1553 21.5512 18.0733 21.5537M24.0026 10.1926C23.6151 10.2284 23.2412 10.354 22.9107 10.5594C22.5802 10.7648 22.302 11.0443 22.0983 11.3759C21.7477 12.0123 22.0413 12.5154 22.7588 12.4913C23.1502 12.4551 23.5276 12.3273 23.8605 12.1183C24.1933 11.9092 24.4723 11.6247 24.6749 11.2878C25.0084 10.658 24.706 10.1716 24.0021 10.1922M21.3125 5.44447C21.2113 5.35024 21.1021 5.47032 21.0403 5.53738L21.2411 5.72452C21.3121 5.64826 21.4159 5.54176 21.3125 5.44447ZM17.2454 3.1449C17.1139 3.10721 17.0701 3.26323 17.0447 3.35176L17.3077 3.42714C17.3366 3.32678 17.3817 3.18434 17.2437 3.1449M7.8105 5.33928C7.70795 5.43219 7.81795 5.55052 7.87931 5.61846L8.0831 5.43439C8.01342 5.35681 7.91612 5.24374 7.8105 5.33928ZM14.2674 2.76624C14.1289 2.76931 14.136 2.93147 14.136 3.0235L14.4107 3.01693C14.4081 2.91262 14.4107 2.76361 14.2666 2.76624M13.3808 20.5654C13.4651 20.5674 13.5481 20.5452 13.6201 20.5014C13.6524 20.4809 13.6787 20.4522 13.6961 20.4181C13.7135 20.384 13.7215 20.3459 13.7192 20.3077C13.7203 20.2695 13.7118 20.2315 13.6944 20.1974C13.677 20.1633 13.6513 20.1342 13.6197 20.1127C13.5494 20.0644 13.4657 20.0394 13.3804 20.0412C13.2949 20.0386 13.2107 20.0633 13.1402 20.1118C13.1092 20.1339 13.0842 20.1634 13.0676 20.1976C13.0509 20.2318 13.043 20.2697 13.0447 20.3077C13.0434 20.3447 13.0514 20.3814 13.0681 20.4145C13.0848 20.4475 13.1096 20.4757 13.1402 20.4966C13.211 20.5442 13.2955 20.5683 13.3808 20.5654ZM1.86678 10.3841L1.87862 10.3758C1.95204 10.3352 2.01349 10.276 2.0568 10.2042C2.10011 10.1323 2.12376 10.0503 2.12536 9.96646C2.12536 9.88801 2.0881 9.80299 2.08153 9.69649C2.07702 9.64117 2.0876 9.58567 2.11214 9.53589C2.13668 9.48611 2.17427 9.44392 2.2209 9.41381C2.26355 9.38551 2.31217 9.36745 2.36296 9.36107C2.41375 9.35468 2.46533 9.36013 2.51366 9.377C2.5346 9.38345 2.55405 9.39396 2.57092 9.40795C2.58779 9.42193 2.60173 9.4391 2.61195 9.45848C2.62217 9.47786 2.62846 9.49906 2.63047 9.52088C2.63248 9.54269 2.63017 9.56469 2.62366 9.58561C2.60306 9.65267 2.54697 9.71709 2.47816 9.70175H2.4729C2.44211 9.69435 2.41442 9.67746 2.39374 9.65348C2.37306 9.6295 2.36043 9.59962 2.35764 9.56808C2.32629 9.58441 2.30073 9.61 2.28442 9.64136C2.26811 9.67272 2.26185 9.70834 2.26648 9.74339C2.27941 9.79495 2.30819 9.84115 2.34875 9.87551C2.38932 9.90986 2.43964 9.93064 2.49262 9.93491C2.54451 9.94503 2.59819 9.94065 2.64775 9.92225C2.69731 9.90385 2.74084 9.87214 2.77355 9.8306C2.8358 9.75439 2.86709 9.65754 2.8612 9.55931C2.86964 9.47371 2.84794 9.38784 2.79984 9.31652C2.76303 9.26875 2.7043 9.22887 2.65084 9.164C2.62389 9.13018 2.60624 9.0899 2.59963 9.04717C2.59302 9.00443 2.59768 8.96071 2.61314 8.92033C2.62682 8.88268 2.64912 8.84875 2.67827 8.82128C2.70742 8.7938 2.74261 8.77354 2.781 8.76211C2.81406 8.75268 2.84951 8.75657 2.87974 8.77295C2.90997 8.78934 2.93258 8.81691 2.94272 8.84977C2.95355 8.87376 2.95534 8.90085 2.94777 8.92606C2.9402 8.95127 2.92378 8.97289 2.90152 8.98694C2.90152 8.98694 2.89889 8.98694 2.89582 8.98694C2.87394 8.99613 2.84973 8.99829 2.82657 8.9931C2.8034 8.98792 2.78242 8.97566 2.76654 8.95802C2.75434 8.98225 2.74994 9.00967 2.75395 9.0365C2.75795 9.06334 2.77015 9.08828 2.78889 9.1079C2.81883 9.13606 2.85725 9.15352 2.89816 9.15756C2.93906 9.16161 2.98015 9.152 3.01503 9.13025C3.05215 9.1125 3.08373 9.08496 3.10636 9.0506C3.12898 9.01623 3.14181 8.97634 3.14344 8.93523C3.14677 8.87653 3.13394 8.81804 3.10636 8.76611C3.07877 8.71419 3.03749 8.67082 2.98698 8.64072C2.92481 8.60801 2.85535 8.59166 2.78512 8.59319C2.7149 8.59473 2.64621 8.61409 2.58553 8.64948C2.52992 8.68521 2.48603 8.7365 2.45931 8.79696C2.43258 8.85742 2.4242 8.92439 2.43521 8.98957C2.44099 9.03675 2.45369 9.08283 2.4729 9.12631C2.44549 9.11945 2.41768 9.11433 2.38963 9.11097C2.30453 9.10545 2.21974 9.12566 2.14627 9.16895C2.0728 9.21225 2.01406 9.27665 1.97766 9.35377C1.89823 9.50988 1.88252 9.69074 1.93384 9.85821C1.9709 9.97601 1.9675 10.1028 1.92419 10.2185C1.90458 10.2612 1.87857 10.3006 1.84706 10.3355L1.83654 10.3499C1.78965 10.3968 1.812 10.4179 1.8624 10.3828M8.69097 4.6385C8.58667 4.71344 8.64408 4.81118 8.77424 4.99305C8.96576 5.25908 9.02931 5.29984 9.11916 5.23541C9.209 5.17099 9.19016 5.0978 8.99907 4.8309C8.86759 4.64946 8.79396 4.564 8.69229 4.6385" fill="#1A1311"/>
</svg>
