<svg width="55" height="55" viewBox="0 0 55 55" fill="none" xmlns="http://www.w3.org/2000/svg">
<mask id="mask0_15_10951" style="mask-type:alpha" maskUnits="userSpaceOnUse" x="0" y="0" width="55" height="55">
<rect width="55" height="55" fill="#D9D9D9"/>
</mask>
<g mask="url(#mask0_15_10951)">
<path d="M4.58331 41.25V36.6666C6.0347 36.6666 7.11369 36.2847 7.82029 35.5208C8.52689 34.7569 10.0069 34.375 12.2604 34.375C14.5139 34.375 15.9939 34.7569 16.7005 35.5208C17.4071 36.2847 18.4479 36.6666 19.8229 36.6666C21.2743 36.6666 22.3533 36.2847 23.0599 35.5208C23.7665 34.7569 25.2465 34.375 27.5 34.375C29.6771 34.375 31.1571 34.7569 31.9401 35.5208C32.7231 36.2847 33.8021 36.6666 35.1771 36.6666C36.6285 36.6666 37.6883 36.2847 38.3568 35.5208C39.0252 34.7569 40.4861 34.375 42.7396 34.375C44.993 34.375 46.4731 34.7569 47.1797 35.5208C47.8863 36.2847 48.9653 36.6666 50.4166 36.6666V41.25C48.2396 41.25 46.7595 40.868 45.9765 40.1041C45.1936 39.3402 44.1146 38.9583 42.7396 38.9583C41.3646 38.9583 40.3238 39.3402 39.6172 40.1041C38.9106 40.868 37.4305 41.25 35.1771 41.25C33 41.25 31.5199 40.868 30.737 40.1041C29.954 39.3402 28.875 38.9583 27.5 38.9583C26.0486 38.9583 24.9696 39.3402 24.263 40.1041C23.5564 40.868 22.0764 41.25 19.8229 41.25C17.5694 41.25 16.1085 40.868 15.4401 40.1041C14.7717 39.3402 13.7118 38.9583 12.2604 38.9583C10.809 38.9583 9.73001 39.3402 9.02342 40.1041C8.31682 40.868 6.83678 41.25 4.58331 41.25ZM4.58331 32.0833V27.5C6.0347 27.5 7.11369 27.118 7.82029 26.3541C8.52689 25.5902 10.0069 25.2083 12.2604 25.2083C14.4375 25.2083 15.8984 25.5902 16.6432 26.3541C17.388 27.118 18.4479 27.5 19.8229 27.5C21.2743 27.5 22.3533 27.118 23.0599 26.3541C23.7665 25.5902 25.2465 25.2083 27.5 25.2083C29.6771 25.2083 31.1475 25.5902 31.9114 26.3541C32.6753 27.118 33.7257 27.5 35.0625 27.5C36.5139 27.5 37.5929 27.118 38.2995 26.3541C39.0061 25.5902 40.4861 25.2083 42.7396 25.2083C44.9166 25.2083 46.3967 25.5902 47.1797 26.3541C47.9627 27.118 49.0416 27.5 50.4166 27.5V32.0833C48.1632 32.0833 46.664 31.7013 45.9192 30.9375C45.1745 30.1736 44.1146 29.7916 42.7396 29.7916C41.3646 29.7916 40.3238 30.1736 39.6172 30.9375C38.9106 31.7013 37.4305 32.0833 35.1771 32.0833C33 32.0833 31.5199 31.7013 30.737 30.9375C29.954 30.1736 28.875 29.7916 27.5 29.7916C26.0486 29.7916 24.9887 30.1736 24.3203 30.9375C23.6519 31.7013 22.191 32.0833 19.9375 32.0833C17.684 32.0833 16.1849 31.7013 15.4401 30.9375C14.6953 30.1736 13.6354 29.7916 12.2604 29.7916C10.8854 29.7916 9.8064 30.1736 9.02342 30.9375C8.24043 31.7013 6.7604 32.0833 4.58331 32.0833ZM4.58331 22.9166V18.3333C6.0347 18.3333 7.11369 17.9513 7.82029 17.1875C8.52689 16.4236 10.0069 16.0416 12.2604 16.0416C14.4375 16.0416 15.8984 16.4236 16.6432 17.1875C17.388 17.9513 18.4479 18.3333 19.8229 18.3333C21.2743 18.3333 22.3533 17.9513 23.0599 17.1875C23.7665 16.4236 25.2465 16.0416 27.5 16.0416C29.6771 16.0416 31.1475 16.4236 31.9114 17.1875C32.6753 17.9513 33.7257 18.3333 35.0625 18.3333C36.5139 18.3333 37.5929 17.9513 38.2995 17.1875C39.0061 16.4236 40.4861 16.0416 42.7396 16.0416C44.9166 16.0416 46.3967 16.4236 47.1797 17.1875C47.9627 17.9513 49.0416 18.3333 50.4166 18.3333V22.9166C48.1632 22.9166 46.664 22.5347 45.9192 21.7708C45.1745 21.0069 44.1146 20.625 42.7396 20.625C41.3646 20.625 40.3238 21.0069 39.6172 21.7708C38.9106 22.5347 37.4305 22.9166 35.1771 22.9166C33 22.9166 31.5199 22.5347 30.737 21.7708C29.954 21.0069 28.875 20.625 27.5 20.625C26.0486 20.625 24.9887 21.0069 24.3203 21.7708C23.6519 22.5347 22.191 22.9166 19.9375 22.9166C17.684 22.9166 16.1849 22.5347 15.4401 21.7708C14.6953 21.0069 13.6354 20.625 12.2604 20.625C10.8854 20.625 9.8064 21.0069 9.02342 21.7708C8.24043 22.5347 6.7604 22.9166 4.58331 22.9166Z" fill="#1C1B1F"/>
</g>
</svg>
