<svg width="56" height="56" viewBox="0 0 56 56" fill="none" xmlns="http://www.w3.org/2000/svg">
<mask id="mask0_15_10957" style="mask-type:alpha" maskUnits="userSpaceOnUse" x="0" y="0" width="56" height="56">
<rect width="56" height="56" fill="#D9D9D9"/>
</mask>
<g mask="url(#mask0_15_10957)">
<path d="M47.0167 30.3333H18.6667V25.6667H47.0167L43.4 22.05L46.6667 18.6667L56 28L46.6667 37.3333L43.4 33.95L47.0167 30.3333ZM35 21V11.6667H11.6667V44.3333H35V35H39.6667V44.3333C39.6667 45.6167 39.2097 46.7153 38.2958 47.6292C37.3819 48.5431 36.2833 49 35 49H11.6667C10.3833 49 9.28472 48.5431 8.37083 47.6292C7.45694 46.7153 7 45.6167 7 44.3333V11.6667C7 10.3833 7.45694 9.28472 8.37083 8.37083C9.28472 7.45694 10.3833 7 11.6667 7H35C36.2833 7 37.3819 7.45694 38.2958 8.37083C39.2097 9.28472 39.6667 10.3833 39.6667 11.6667V21H35Z" fill="#1C1B1F"/>
</g>
</svg>
