<svg width="55" height="55" viewBox="0 0 55 55" fill="none" xmlns="http://www.w3.org/2000/svg">
<mask id="mask0_15_10652" style="mask-type:alpha" maskUnits="userSpaceOnUse" x="0" y="0" width="55" height="55">
<rect width="55" height="55" fill="#D9D9D9"/>
</mask>
<g mask="url(#mask0_15_10652)">
<path d="M9.16663 32.0833C9.16663 28.0729 10.1215 24.5017 12.0312 21.3698C13.9409 18.2378 16.0416 15.6024 18.3333 13.4635C20.625 11.3247 22.7257 9.69184 24.6354 8.5651L27.5 6.875V14.4375C27.5 15.8507 27.9774 16.9679 28.9323 17.7891C29.8871 18.6102 30.9566 19.0208 32.1406 19.0208C32.7899 19.0208 33.4106 18.8872 34.0026 18.6198C34.5946 18.3524 35.1388 17.9132 35.6354 17.3021L36.6666 16.0417C39.4166 17.6458 41.6319 19.8707 43.3125 22.7161C44.993 25.5616 45.8333 28.684 45.8333 32.0833C45.8333 35.4444 45.0121 38.5096 43.3698 41.2786C41.7274 44.0477 39.5694 46.2344 36.8958 47.8385C37.5451 46.9219 38.0512 45.9193 38.414 44.8307C38.7769 43.7422 38.9583 42.5868 38.9583 41.3646C38.9583 39.8368 38.6718 38.395 38.0989 37.0391C37.526 35.6832 36.7048 34.4705 35.6354 33.401L27.5 25.4375L19.4218 33.401C18.3142 34.5087 17.4739 35.7309 16.901 37.0677C16.3281 38.4045 16.0416 39.8368 16.0416 41.3646C16.0416 42.5868 16.223 43.7422 16.5859 44.8307C16.9487 45.9193 17.4548 46.9219 18.1041 47.8385C15.4305 46.2344 13.2725 44.0477 11.6302 41.2786C9.98781 38.5096 9.16663 35.4444 9.16663 32.0833ZM27.5 31.8542L32.3698 36.6094C33.0191 37.2587 33.5156 37.9844 33.8593 38.7865C34.2031 39.5885 34.375 40.4479 34.375 41.3646C34.375 43.2361 33.7066 44.8307 32.3698 46.1484C31.0329 47.4661 29.4097 48.125 27.5 48.125C25.5902 48.125 23.967 47.4661 22.6302 46.1484C21.2934 44.8307 20.625 43.2361 20.625 41.3646C20.625 40.4861 20.7968 39.6363 21.1406 38.8151C21.4843 37.9939 21.9809 37.2587 22.6302 36.6094L27.5 31.8542Z" fill="#1C1B1F"/>
</g>
</svg>
