<svg width="55" height="55" viewBox="0 0 55 55" fill="none" xmlns="http://www.w3.org/2000/svg">
<mask id="mask0_15_11164" style="mask-type:alpha" maskUnits="userSpaceOnUse" x="0" y="0" width="55" height="55">
<rect width="55" height="55" fill="#D9D9D9"/>
</mask>
<g mask="url(#mask0_15_11164)">
<path d="M33 50.4166C31.6632 50.4166 30.3837 50.1397 29.1615 49.5859C27.9393 49.0321 26.8889 48.2395 26.0104 47.2083L12.7188 31.7395L15.6979 29.5052C16.4618 28.9323 17.3212 28.6267 18.2761 28.5885C19.2309 28.5503 20.1094 28.7986 20.9115 29.3333L24.0625 31.3385V9.16663C24.0625 8.51732 24.2821 7.97305 24.7214 7.53381C25.1606 7.09458 25.7049 6.87496 26.3542 6.87496C27.0035 6.87496 27.5478 7.09458 27.987 7.53381C28.4262 7.97305 28.6459 8.51732 28.6459 9.16663V29.7916H32.0834V18.3333C32.0834 17.684 32.303 17.1397 32.7422 16.7005C33.1814 16.2612 33.7257 16.0416 34.375 16.0416C35.0243 16.0416 35.5686 16.2612 36.0078 16.7005C36.4471 17.1397 36.6667 17.684 36.6667 18.3333V29.7916H40.1042V20.625C40.1042 19.9757 40.3238 19.4314 40.763 18.9921C41.2023 18.5529 41.7465 18.3333 42.3959 18.3333C43.0452 18.3333 43.5894 18.5529 44.0287 18.9921C44.4679 19.4314 44.6875 19.9757 44.6875 20.625V29.7916H48.125V25.2083C48.125 24.559 48.3446 24.0147 48.7839 23.5755C49.2231 23.1362 49.7674 22.9166 50.4167 22.9166C51.066 22.9166 51.6103 23.1362 52.0495 23.5755C52.4887 24.0147 52.7084 24.559 52.7084 25.2083V41.25C52.7084 43.7708 51.8108 45.9288 50.0156 47.7239C48.2205 49.5191 46.0625 50.4166 43.5417 50.4166H33ZM10.3125 22.9166C8.05905 22.9166 6.15887 22.1432 4.612 20.5963C3.06512 19.0494 2.29169 17.1875 2.29169 15.0104C2.29169 13.7118 2.5495 12.585 3.06512 11.6302C3.58075 10.6753 4.79342 9.10933 6.70315 6.93225L10.3125 2.80725L13.9219 6.98954C15.8698 9.24302 17.092 10.8281 17.5886 11.7448C18.0851 12.6614 18.3334 13.75 18.3334 15.0104C18.3334 17.1875 17.5504 19.0494 15.9844 20.5963C14.4184 22.1432 12.5278 22.9166 10.3125 22.9166Z" fill="#1C1B1F"/>
</g>
</svg>
