<svg width="55" height="55" viewBox="0 0 55 55" fill="none" xmlns="http://www.w3.org/2000/svg">
<mask id="mask0_15_11182" style="mask-type:alpha" maskUnits="userSpaceOnUse" x="0" y="0" width="55" height="55">
<rect width="55" height="55" fill="#D9D9D9"/>
</mask>
<g mask="url(#mask0_15_11182)">
<path d="M28.1302 35.5782C30.8038 35.5782 33.0764 34.7188 34.9479 33C36.8194 31.2813 37.7552 29.1997 37.7552 26.7552C37.7552 24.5782 37.0582 22.7353 35.6641 21.2266C34.27 19.7179 32.5799 18.9636 30.5938 18.9636C28.7986 18.9636 27.2804 19.5365 26.0391 20.6823C24.7977 21.8282 24.1771 23.2414 24.1771 24.9219C24.1771 25.6476 24.3203 26.3542 24.6068 27.0417C24.8932 27.7292 25.3038 28.3594 25.8385 28.9323L29.1042 25.6667C28.9896 25.5903 28.9036 25.4948 28.8464 25.3802C28.7891 25.2657 28.7604 25.132 28.7604 24.9792C28.7604 24.5591 28.9323 24.2249 29.276 23.9766C29.6198 23.7283 30.059 23.6042 30.5938 23.6042C31.3576 23.6042 31.9878 23.9193 32.4844 24.5495C32.9809 25.1797 33.2292 25.9341 33.2292 26.8125C33.2292 27.9966 32.7422 28.9992 31.7682 29.8204C30.7943 30.6415 29.6007 31.0521 28.1875 31.0521C26.3924 31.0521 24.8741 30.3264 23.6328 28.875C22.3915 27.4237 21.7708 25.6476 21.7708 23.5469C21.7708 22.4393 21.9809 21.3794 22.401 20.3672C22.8212 19.3551 23.4132 18.4671 24.1771 17.7032L20.9115 14.4375C19.6892 15.6216 18.7535 16.9966 18.1042 18.5625C17.4549 20.1285 17.1302 21.7709 17.1302 23.4896C17.1302 26.8507 18.1997 29.7058 20.3385 32.0547C22.4774 34.4037 25.0747 35.5782 28.1302 35.5782ZM13.75 50.4167V40.5625C11.5729 38.5764 9.88281 36.2561 8.67969 33.6016C7.47656 30.9471 6.875 28.1493 6.875 25.2084C6.875 19.4792 8.88021 14.6094 12.8906 10.599C16.901 6.58858 21.7708 4.58337 27.5 4.58337C32.2743 4.58337 36.5043 5.98702 40.1901 8.79431C43.8759 11.6016 46.2726 15.2587 47.3802 19.7657L50.3594 31.5105C50.5504 32.2362 50.4167 32.895 49.9583 33.487C49.5 34.079 48.8889 34.375 48.125 34.375H43.5417V41.25C43.5417 42.5105 43.0929 43.5894 42.1953 44.487C41.2977 45.3846 40.2188 45.8334 38.9583 45.8334H34.375V50.4167H13.75Z" fill="#1C1B1F"/>
</g>
</svg>
