<svg width="55" height="55" viewBox="0 0 55 55" fill="none" xmlns="http://www.w3.org/2000/svg">
<mask id="mask0_15_10963" style="mask-type:alpha" maskUnits="userSpaceOnUse" x="0" y="0" width="55" height="55">
<rect width="55" height="55" fill="#D9D9D9"/>
</mask>
<g mask="url(#mask0_15_10963)">
<path d="M27.5 6.875L52.7084 25.7812L49.9584 29.4479L45.8334 26.3542V48.125H9.16669V26.3542L5.04169 29.4479L2.29169 25.7812L27.5 6.875ZM16.8438 27.6146C16.8438 29.6389 17.9323 31.7969 20.1094 34.0885C22.2865 36.3802 24.75 38.7674 27.5 41.25C30.25 38.7674 32.7136 36.3802 34.8906 34.0885C37.0677 31.7969 38.1563 29.6389 38.1563 27.6146C38.1563 25.934 37.5834 24.5399 36.4375 23.4323C35.2917 22.3247 33.9167 21.7708 32.3125 21.7708C31.3195 21.7708 30.4123 21.9714 29.5912 22.3724C28.77 22.7734 28.0729 23.2986 27.5 23.9479C26.9271 23.2986 26.211 22.7734 25.3516 22.3724C24.4922 21.9714 23.6042 21.7708 22.6875 21.7708C21.0834 21.7708 19.7084 22.3247 18.5625 23.4323C17.4167 24.5399 16.8438 25.934 16.8438 27.6146Z" fill="#1C1B1F"/>
</g>
</svg>
