<svg width="55" height="55" viewBox="0 0 55 55" fill="none" xmlns="http://www.w3.org/2000/svg">
<mask id="mask0_15_11176" style="mask-type:alpha" maskUnits="userSpaceOnUse" x="0" y="0" width="55" height="55">
<rect width="55" height="55" fill="#D9D9D9"/>
</mask>
<g mask="url(#mask0_15_11176)">
<path d="M16.0417 41.25H23.6042L35.0625 20.625H38.9583C39.9132 20.625 40.7248 20.2908 41.3932 19.6224C42.0616 18.954 42.3958 18.1424 42.3958 17.1875C42.3958 16.2326 42.0616 15.421 41.3932 14.7526C40.7248 14.0842 39.9132 13.75 38.9583 13.75H31.3958L19.9375 34.375H16.0417C15.0868 34.375 14.2752 34.7092 13.6068 35.3776C12.9384 36.046 12.6042 36.8576 12.6042 37.8125C12.6042 38.7674 12.9384 39.579 13.6068 40.2474C14.2752 40.9158 15.0868 41.25 16.0417 41.25ZM11.4583 48.125C10.1979 48.125 9.11892 47.6762 8.22135 46.7786C7.32378 45.8811 6.875 44.8021 6.875 43.5417V11.4583C6.875 10.1979 7.32378 9.11892 8.22135 8.22135C9.11892 7.32378 10.1979 6.875 11.4583 6.875H43.5417C44.8021 6.875 45.8811 7.32378 46.7786 8.22135C47.6762 9.11892 48.125 10.1979 48.125 11.4583V43.5417C48.125 44.8021 47.6762 45.8811 46.7786 46.7786C45.8811 47.6762 44.8021 48.125 43.5417 48.125H11.4583Z" fill="#1C1B1F"/>
</g>
</svg>
