<svg width="55" height="55" viewBox="0 0 55 55" fill="none" xmlns="http://www.w3.org/2000/svg">
<mask id="mask0_15_11170" style="mask-type:alpha" maskUnits="userSpaceOnUse" x="0" y="0" width="55" height="55">
<rect width="55" height="55" fill="#D9D9D9"/>
</mask>
<g mask="url(#mask0_15_11170)">
<path d="M24.5208 29.1615L22.5729 26.2396C22.382 25.934 22.1146 25.6858 21.7708 25.4948C21.4271 25.3038 21.0642 25.2083 20.6823 25.2083H5.67189C5.25175 24.2153 4.96529 23.2604 4.81251 22.3437C4.65973 21.4271 4.58334 20.4722 4.58334 19.4792C4.58334 15.8889 5.78647 12.8906 8.19272 10.4844C10.599 8.07812 13.5972 6.875 17.1875 6.875C19.1736 6.875 21.0642 7.29514 22.8594 8.13542C24.6545 8.97569 26.2014 10.1597 27.5 11.6875C28.7986 10.1597 30.3455 8.97569 32.1406 8.13542C33.9358 7.29514 35.8264 6.875 37.8125 6.875C41.4028 6.875 44.4011 8.07812 46.8073 10.4844C49.2136 12.8906 50.4167 15.8889 50.4167 19.4792C50.4167 20.4722 50.3403 21.4271 50.1875 22.3437C50.0347 23.2604 49.7483 24.2153 49.3281 25.2083H35.6927L31.7396 19.3646C31.5104 19.0208 31.2144 18.763 30.8516 18.5911C30.4887 18.4193 30.0972 18.3333 29.6771 18.3333C29.1806 18.3333 28.7509 18.4766 28.388 18.763C28.0252 19.0495 27.7674 19.4219 27.6146 19.8802L24.5208 29.1615ZM27.5 48.9271L24.1771 45.9479C20.1667 42.3576 16.882 39.283 14.3229 36.724C11.7639 34.1649 9.75869 31.8542 8.3073 29.7917H19.3073L23.2604 35.6354C23.4896 35.9792 23.7856 36.237 24.1484 36.4089C24.5113 36.5807 24.9028 36.6667 25.3229 36.6667C25.8195 36.6667 26.2491 36.5234 26.612 36.237C26.9748 35.9505 27.2326 35.5781 27.3854 35.1198L30.4792 25.7812L32.4844 28.7604C32.6754 29.066 32.9427 29.3142 33.2865 29.5052C33.6302 29.6962 33.9931 29.7917 34.375 29.7917H46.6927C45.2413 31.8542 43.2361 34.1649 40.6771 36.724C38.1181 39.283 34.8333 42.3576 30.8229 45.9479L27.5 48.9271Z" fill="#1C1B1F"/>
</g>
</svg>
