<svg width="57" height="57" viewBox="0 0 57 57" fill="none" xmlns="http://www.w3.org/2000/svg">
<mask id="mask0_15_10339" style="mask-type:alpha" maskUnits="userSpaceOnUse" x="0" y="0" width="57" height="57">
<rect width="57" height="57" fill="#D9D9D9"/>
</mask>
<g mask="url(#mask0_15_10339)">
<path d="M42.75 16.625H14.25V7.125H42.75V16.625ZM42.75 29.6875C43.4229 29.6875 43.987 29.4599 44.4422 29.0047C44.8974 28.5495 45.125 27.9854 45.125 27.3125C45.125 26.6396 44.8974 26.0755 44.4422 25.6203C43.987 25.1651 43.4229 24.9375 42.75 24.9375C42.0771 24.9375 41.513 25.1651 41.0578 25.6203C40.6026 26.0755 40.375 26.6396 40.375 27.3125C40.375 27.9854 40.6026 28.5495 41.0578 29.0047C41.513 29.4599 42.0771 29.6875 42.75 29.6875ZM38 45.125V35.625H19V45.125H38ZM42.75 49.875H14.25V40.375H4.75V26.125C4.75 24.1063 5.44271 22.4141 6.82812 21.0484C8.21354 19.6828 9.89583 19 11.875 19H45.125C47.1437 19 48.8359 19.6828 50.2016 21.0484C51.5672 22.4141 52.25 24.1063 52.25 26.125V40.375H42.75V49.875Z" fill="white"/>
</g>
</svg>
