<svg width="20" height="15" viewBox="0 0 20 15" fill="none" xmlns="http://www.w3.org/2000/svg">
<path fill-rule="evenodd" clip-rule="evenodd" d="M17.816 0.447581C18.6763 0.694355 19.3547 1.42016 19.5842 2.34194C20.0024 4.01371 20.0024 7.5 20.0024 7.5C20.0024 7.5 20.0024 10.9875 19.5842 12.6581C19.3547 13.5798 18.6763 14.3056 17.816 14.5524C16.2569 15 10.0024 15 10.0024 15C10.0024 15 3.74899 15 2.18876 14.5524C1.32853 14.3056 0.650123 13.5798 0.420577 12.6581C0.00239563 10.9863 0.00239563 7.5 0.00239563 7.5C0.00239563 7.5 0.00239563 4.01371 0.420577 2.34194C0.650123 1.42016 1.32853 0.694355 2.18876 0.447581C3.74785 0 10.0024 0 10.0024 0C10.0024 0 16.2569 0 17.816 0.447581ZM13.0024 7.5L8.0024 10V5L13.0024 7.5Z" fill="black"/>
</svg>
