<svg width="32" height="32" viewBox="0 0 32 32" fill="none" xmlns="http://www.w3.org/2000/svg">
<mask id="mask0_20_2930" style="mask-type:alpha" maskUnits="userSpaceOnUse" x="0" y="0" width="32" height="32">
<rect width="32" height="32" fill="#D9D9D9"/>
</mask>
<g mask="url(#mask0_20_2930)">
<path d="M16 26.6666C16.4444 26.6666 16.8889 26.6389 17.3333 26.5833C17.7778 26.5278 18.2222 26.4444 18.6666 26.3333V21.3333H13.3333V26.3333C13.7778 26.4444 14.2222 26.5278 14.6666 26.5833C15.1111 26.6389 15.5555 26.6666 16 26.6666ZM16 29.3333C14.2222 29.3333 12.5222 28.9944 10.9 28.3166C9.27776 27.6389 7.83331 26.6778 6.56665 25.4333L8.46665 23.5333C8.79998 23.8666 9.14998 24.1722 9.51665 24.45C9.88331 24.7278 10.2666 24.9889 10.6666 25.2333V21.3333H7.99998C7.26665 21.3333 6.63887 21.0722 6.11665 20.55C5.59442 20.0278 5.33331 19.4 5.33331 18.6666V10.6666C5.33331 9.19998 5.85554 7.94442 6.89998 6.89998C7.94442 5.85554 9.19998 5.33331 10.6666 5.33331H16V12H24C24.7333 12 25.3611 12.2611 25.8833 12.7833C26.4055 13.3055 26.6666 13.9333 26.6666 14.6666V18.6666C26.6666 19.4 26.4055 20.0278 25.8833 20.55C25.3611 21.0722 24.7333 21.3333 24 21.3333H21.3333V25.2333C21.7333 24.9889 22.1166 24.7278 22.4833 24.45C22.85 24.1722 23.2 23.8666 23.5333 23.5333L25.4333 25.4333C24.1666 26.6778 22.7222 27.6389 21.1 28.3166C19.4778 28.9944 17.7778 29.3333 16 29.3333Z" fill="white"/>
</g>
</svg>
