<svg width="55" height="55" viewBox="0 0 55 55" fill="none" xmlns="http://www.w3.org/2000/svg">
<g filter="url(#filter0_i_176_7126)">
<rect width="55" height="55" rx="10" fill="#5286FF"/>
</g>
<mask id="mask0_176_7126" style="mask-type:alpha" maskUnits="userSpaceOnUse" x="3" y="12" width="40" height="40">
<rect x="3" y="12" width="40" height="40" fill="white"/>
</mask>
<g mask="url(#mask0_176_7126)">
<path d="M23.0001 32C21.1667 32 19.5973 31.3472 18.2917 30.0417C16.9862 28.7361 16.3334 27.1667 16.3334 25.3334C16.3334 23.5 16.9862 21.9306 18.2917 20.625C19.5973 19.3195 21.1667 18.6667 23.0001 18.6667C24.8334 18.6667 26.4029 19.3195 27.7084 20.625C29.014 21.9306 29.6667 23.5 29.6667 25.3334C29.6667 27.1667 29.014 28.7361 27.7084 30.0417C26.4029 31.3472 24.8334 32 23.0001 32ZM9.66675 45.3334V40.6667C9.66675 39.7222 9.9098 38.8542 10.3959 38.0625C10.882 37.2709 11.5279 36.6667 12.3334 36.25C14.0556 35.3889 15.8056 34.7431 17.5834 34.3125C19.3612 33.882 21.1667 33.6667 23.0001 33.6667C24.8334 33.6667 26.639 33.882 28.4167 34.3125C30.1945 34.7431 31.9445 35.3889 33.6667 36.25C34.4723 36.6667 35.1181 37.2709 35.6042 38.0625C36.0904 38.8542 36.3334 39.7222 36.3334 40.6667V45.3334H9.66675Z" fill="white"/>
</g>
<mask id="mask1_176_7126" style="mask-type:alpha" maskUnits="userSpaceOnUse" x="19" y="5" width="32" height="32">
<rect width="25.7037" height="25.7037" rx="5" transform="matrix(-0.457152 0.889389 0.889389 0.457152 29.7505 4)" fill="#D9D9D9"/>
</mask>
<g mask="url(#mask1_176_7126)">
<path d="M44.6596 31.9582C45.6796 29.9737 46.2548 27.7908 46.3851 25.4092C46.5154 23.0277 46.1948 20.6352 45.4233 18.2316C44.6518 15.8281 43.52 13.6959 42.0279 11.8352C40.5358 9.97447 38.7976 8.53409 36.8131 7.51408C36.5274 7.3672 36.2403 7.34005 35.9519 7.43264C35.6634 7.52522 35.4458 7.71439 35.2989 8.00015L33.316 11.8579C33.2018 12.0801 33.1752 12.3173 33.2362 12.5695C33.2973 12.8216 33.4228 13.0166 33.6129 13.1545L36.6285 15.4872C36.8662 15.6495 37.0846 15.7517 37.2837 15.7939C37.4828 15.836 37.6785 15.8262 37.8708 15.7645L41.3918 14.6542C41.8159 15.2736 42.1897 15.9424 42.513 16.6604C42.8363 17.3785 43.1173 18.1301 43.356 18.9151C43.5952 19.6602 43.7864 20.4108 43.9297 21.1668C44.0729 21.9228 44.1641 22.6922 44.2033 23.475L40.8143 24.5628C40.598 24.6323 40.395 24.7637 40.2052 24.9572C40.0154 25.1507 39.8793 25.3667 39.7968 25.6053L38.7745 29.2342C38.7237 29.4891 38.745 29.7308 38.8382 29.9594C38.9315 30.1879 39.0813 30.3553 39.2877 30.4613L43.1454 32.4442C43.4312 32.5911 43.7182 32.6183 44.0067 32.5257C44.2951 32.4331 44.5128 32.2439 44.6596 31.9582Z" fill="white"/>
</g>
<defs>
<filter id="filter0_i_176_7126" x="0" y="0" width="57" height="59" filterUnits="userSpaceOnUse" color-interpolation-filters="sRGB">
<feFlood flood-opacity="0" result="BackgroundImageFix"/>
<feBlend mode="normal" in="SourceGraphic" in2="BackgroundImageFix" result="shape"/>
<feColorMatrix in="SourceAlpha" type="matrix" values="0 0 0 0 0 0 0 0 0 0 0 0 0 0 0 0 0 0 127 0" result="hardAlpha"/>
<feMorphology radius="2" operator="erode" in="SourceAlpha" result="effect1_innerShadow_176_7126"/>
<feOffset dx="2" dy="4"/>
<feGaussianBlur stdDeviation="3.85"/>
<feComposite in2="hardAlpha" operator="arithmetic" k2="-1" k3="1"/>
<feColorMatrix type="matrix" values="0 0 0 0 0 0 0 0 0 0 0 0 0 0 0 0 0 0 0.25 0"/>
<feBlend mode="normal" in2="shape" result="effect1_innerShadow_176_7126"/>
</filter>
</defs>
</svg>
