<svg width="55" height="55" viewBox="0 0 55 55" fill="none" xmlns="http://www.w3.org/2000/svg">
<g filter="url(#filter0_i_176_7076)">
<rect width="55" height="55" rx="10" fill="#5286FF"/>
</g>
<mask id="mask0_176_7076" style="mask-type:alpha" maskUnits="userSpaceOnUse" x="7" y="7" width="40" height="40">
<rect x="7" y="7" width="40" height="40" fill="white"/>
</mask>
<g mask="url(#mask0_176_7076)">
<path d="M27.0001 27C25.1667 27 23.5973 26.3472 22.2917 25.0417C20.9862 23.7361 20.3334 22.1667 20.3334 20.3334C20.3334 18.5 20.9862 16.9306 22.2917 15.625C23.5973 14.3195 25.1667 13.6667 27.0001 13.6667C28.8334 13.6667 30.4029 14.3195 31.7084 15.625C33.014 16.9306 33.6667 18.5 33.6667 20.3334C33.6667 22.1667 33.014 23.7361 31.7084 25.0417C30.4029 26.3472 28.8334 27 27.0001 27ZM13.6667 40.3334V35.6667C13.6667 34.7222 13.9098 33.8542 14.3959 33.0625C14.882 32.2709 15.5279 31.6667 16.3334 31.25C18.0556 30.3889 19.8056 29.7431 21.5834 29.3125C23.3612 28.882 25.1667 28.6667 27.0001 28.6667C28.8334 28.6667 30.639 28.882 32.4167 29.3125C34.1945 29.7431 35.9445 30.3889 37.6667 31.25C38.4723 31.6667 39.1181 32.2709 39.6042 33.0625C40.0904 33.8542 40.3334 34.7222 40.3334 35.6667V40.3334H13.6667Z" fill="white"/>
</g>
<defs>
<filter id="filter0_i_176_7076" x="0" y="0" width="57" height="59" filterUnits="userSpaceOnUse" color-interpolation-filters="sRGB">
<feFlood flood-opacity="0" result="BackgroundImageFix"/>
<feBlend mode="normal" in="SourceGraphic" in2="BackgroundImageFix" result="shape"/>
<feColorMatrix in="SourceAlpha" type="matrix" values="0 0 0 0 0 0 0 0 0 0 0 0 0 0 0 0 0 0 127 0" result="hardAlpha"/>
<feMorphology radius="2" operator="erode" in="SourceAlpha" result="effect1_innerShadow_176_7076"/>
<feOffset dx="2" dy="4"/>
<feGaussianBlur stdDeviation="3.85"/>
<feComposite in2="hardAlpha" operator="arithmetic" k2="-1" k3="1"/>
<feColorMatrix type="matrix" values="0 0 0 0 0 0 0 0 0 0 0 0 0 0 0 0 0 0 0.25 0"/>
<feBlend mode="normal" in2="shape" result="effect1_innerShadow_176_7076"/>
</filter>
</defs>
</svg>
