<svg width="55" height="55" viewBox="0 0 55 55" fill="none" xmlns="http://www.w3.org/2000/svg">
<g filter="url(#filter0_i_178_72)">
<rect width="55" height="55" rx="10" fill="#5286FF"/>
</g>
<mask id="mask0_178_72" style="mask-type:alpha" maskUnits="userSpaceOnUse" x="7" y="7" width="40" height="40">
<rect x="7" y="7" width="40" height="40" fill="#D9D9D9"/>
</mask>
<g mask="url(#mask0_178_72)">
<path d="M12 23.0833V19.5417L19.5417 12H23.0833L12 23.0833ZM12 14.9167V12H14.9167L12 14.9167ZM33.9583 17.7083C33.6806 17.4028 33.3819 17.1042 33.0625 16.8125C32.7431 16.5208 32.4167 16.2639 32.0833 16.0417L36.125 12H39.6667L33.9583 17.7083ZM16.1667 31.9583L19.375 28.75C19.5694 29.0556 19.7708 29.3333 19.9792 29.5833C20.1875 29.8333 20.4167 30.0694 20.6667 30.2917C19.8889 30.4861 19.1042 30.7292 18.3125 31.0208C17.5208 31.3125 16.8056 31.625 16.1667 31.9583ZM36.1667 23.75V23.6667C36.1667 23.1389 36.125 22.625 36.0417 22.125C35.9583 21.625 35.8333 21.1389 35.6667 20.6667L42 14.3333V17.9167L36.1667 23.75ZM25.1667 14.6667L27.875 12H31.4167L28.75 14.6667C28.4444 14.6111 28.1528 14.5694 27.875 14.5417C27.5972 14.5139 27.3056 14.5 27 14.5C26.6944 14.5 26.3889 14.5139 26.0833 14.5417C25.7778 14.5694 25.4722 14.6111 25.1667 14.6667ZM12 31.375V27.8333L18 21.8333C17.9444 22.1389 17.9028 22.4444 17.875 22.75C17.8472 23.0556 17.8333 23.3611 17.8333 23.6667C17.8333 23.9722 17.8472 24.2639 17.875 24.5417C17.9028 24.8194 17.9444 25.0972 18 25.375L12 31.375ZM41.5417 34.8333C41.3194 34.5 41.0625 34.1806 40.7708 33.875C40.4792 33.5694 40.1667 33.2917 39.8333 33.0417L42 30.875V34.4167L41.5417 34.8333ZM36.7083 31.4167C36.5139 31.3333 36.3194 31.2569 36.125 31.1875C35.9306 31.1181 35.7361 31.0556 35.5417 31C35.2917 30.9167 35.0486 30.8333 34.8125 30.75C34.5764 30.6667 34.3333 30.5972 34.0833 30.5417L42 22.5833V26.1667L36.7083 31.4167ZM27 30.3333C25.1667 30.3333 23.5972 29.6806 22.2917 28.375C20.9861 27.0694 20.3333 25.5 20.3333 23.6667C20.3333 21.8333 20.9861 20.2639 22.2917 18.9583C23.5972 17.6528 25.1667 17 27 17C28.8333 17 30.4028 17.6528 31.7083 18.9583C33.0139 20.2639 33.6667 21.8333 33.6667 23.6667C33.6667 25.5 33.0139 27.0694 31.7083 28.375C30.4028 29.6806 28.8333 30.3333 27 30.3333ZM13.6667 42V39.0417C13.6667 38.0972 13.9028 37.2222 14.375 36.4167C14.8472 35.6111 15.5 35 16.3333 34.5833C17.75 33.8611 19.3542 33.25 21.1458 32.75C22.9375 32.25 24.8889 32 27 32C29.1111 32 31.0625 32.25 32.8542 32.75C34.6458 33.25 36.25 33.8611 37.6667 34.5833C38.5 35 39.1528 35.6111 39.625 36.4167C40.0972 37.2222 40.3333 38.0972 40.3333 39.0417V42H13.6667Z" fill="white"/>
</g>
<defs>
<filter id="filter0_i_178_72" x="0" y="0" width="57" height="59" filterUnits="userSpaceOnUse" color-interpolation-filters="sRGB">
<feFlood flood-opacity="0" result="BackgroundImageFix"/>
<feBlend mode="normal" in="SourceGraphic" in2="BackgroundImageFix" result="shape"/>
<feColorMatrix in="SourceAlpha" type="matrix" values="0 0 0 0 0 0 0 0 0 0 0 0 0 0 0 0 0 0 127 0" result="hardAlpha"/>
<feMorphology radius="2" operator="erode" in="SourceAlpha" result="effect1_innerShadow_178_72"/>
<feOffset dx="2" dy="4"/>
<feGaussianBlur stdDeviation="3.85"/>
<feComposite in2="hardAlpha" operator="arithmetic" k2="-1" k3="1"/>
<feColorMatrix type="matrix" values="0 0 0 0 0 0 0 0 0 0 0 0 0 0 0 0 0 0 0.25 0"/>
<feBlend mode="normal" in2="shape" result="effect1_innerShadow_178_72"/>
</filter>
</defs>
</svg>
