<svg width="1200" height="161" viewBox="0 0 1200 161" fill="none" xmlns="http://www.w3.org/2000/svg">
<rect width="1200" height="161" fill="white"/>
<rect x="197" y="31" width="198" height="101" rx="18" fill="#EDF1F5"/>
<path d="M225.524 89.5859V104.345H224.263V96.6748H222.254V103.598H221.009V89.9014H222.254V95.5625H224.263V89.5859H225.524ZM217.207 93.6201C217.207 96.3262 218.319 98.7002 220.428 99.7793L219.647 100.792C218.153 99.9785 217.132 98.5176 216.609 96.708C216.103 98.7666 215.065 100.377 213.505 101.29L212.691 100.294C214.816 99.1318 215.945 96.6084 215.945 93.6201V92.4414H213.04V91.3457H219.946V92.4414H217.207V93.6201ZM234.904 92.1426V93.2051H227.5V92.1426H230.571V90.0342H231.866V92.1426H234.904ZM231.202 94.2012C233.062 94.2012 234.39 95.5957 234.406 97.5547C234.39 99.5303 233.062 100.941 231.202 100.941C229.359 100.941 228.031 99.5303 228.031 97.5547C228.031 95.5957 229.359 94.2012 231.202 94.2012ZM231.202 95.2969C230.04 95.3135 229.193 96.2598 229.193 97.5547C229.193 98.8662 230.04 99.8125 231.202 99.7959C232.381 99.8125 233.244 98.8662 233.244 97.5547C233.244 96.2598 232.381 95.3135 231.202 95.2969ZM240.101 89.5859V104.345H238.855V96.8906H236.896V103.614H235.668V89.9512H236.896V95.8115H238.855V89.5859H240.101ZM254.179 102.934V104.029H243.969V99.7793H245.28V102.934H254.179ZM255.723 97.5049V98.6006H242.226V97.5049H248.302V94.998H249.58V97.5049H255.723ZM249.597 90.6484C249.597 92.7402 252.187 94.5166 254.776 94.9316L254.262 95.9609C252.045 95.5293 249.862 94.2759 248.949 92.4912C248.036 94.2842 245.87 95.5459 243.637 95.9609L243.105 94.9316C245.695 94.5 248.285 92.7236 248.285 90.6484V89.9844H249.597V90.6484ZM269.087 89.5859V97.2393H267.809V89.5859H269.087ZM269.104 97.9863V101.522H260.819V103.116H269.635V104.179H259.541V100.51H267.809V99.0322H259.508V97.9863H269.104ZM262.147 91.1465C262.131 93.2383 263.725 95.0811 265.916 95.7949L265.269 96.8076C263.542 96.2183 262.164 94.9814 261.5 93.3877C260.836 95.106 259.45 96.459 257.698 97.0898L257.018 96.0605C259.242 95.2803 260.819 93.3213 260.819 91.1465V90.0176H262.147V91.1465ZM275.993 93.7861C275.993 96.127 277.139 98.667 279.098 99.8291L278.351 100.842C276.931 99.9785 275.91 98.4014 275.396 96.6084C274.848 98.5674 273.752 100.252 272.274 101.157L271.444 100.178C273.486 98.9824 274.731 96.3594 274.731 93.8359V90.9805H275.993V93.7861ZM284.261 89.5859V104.345H282.999V89.5859H284.261ZM281.206 89.9014V103.598H279.978V95.9941H277.471V94.8818H279.978V89.9014H281.206ZM289.839 90.5156C291.781 90.5156 293.226 91.96 293.226 94.002C293.226 96.0605 291.781 97.4551 289.839 97.4551C287.863 97.4551 286.452 96.0605 286.469 94.002C286.452 91.96 287.863 90.5156 289.839 90.5156ZM289.839 91.6445C288.577 91.6445 287.631 92.6406 287.647 94.002C287.631 95.3633 288.577 96.3594 289.839 96.3594C291.101 96.3594 292.014 95.3633 292.03 94.002C292.014 92.6406 291.101 91.6445 289.839 91.6445ZM298.837 89.6025V98.3848H297.592V94.4834H295.633V98.2852H294.404V89.8848H295.633V93.4043H297.592V89.6025H298.837ZM298.837 99.2148V104.345H297.559V100.261H288.893V99.2148H298.837ZM312.566 98.916C315.737 98.916 317.746 99.9121 317.746 101.622C317.746 103.315 315.737 104.312 312.566 104.312C309.412 104.312 307.403 103.315 307.403 101.622C307.403 99.9121 309.412 98.916 312.566 98.916ZM312.566 99.9121C310.209 99.9287 308.682 100.576 308.698 101.622C308.682 102.651 310.209 103.282 312.566 103.282C314.924 103.282 316.435 102.651 316.451 101.622C316.435 100.576 314.924 99.9287 312.566 99.9121ZM317.63 90.3496V91.5947C317.63 92.79 317.63 93.9854 317.215 95.5127L315.937 95.3633C316.335 93.8359 316.335 92.7568 316.335 91.5947V91.4121H307.503V90.3496H317.63ZM319.34 96.4756V97.5381H305.909V96.4756H311.471V93.6201H312.749V96.4756H319.34ZM333.202 89.5859V104.345H331.957V89.5859H333.202ZM330.214 89.9512V103.581H328.985V95.9775H326.495V94.915H328.985V89.9512H330.214ZM324.918 93.8027C324.918 96.3594 326.063 98.8994 328.105 100.078L327.309 101.041C325.856 100.169 324.827 98.5757 324.32 96.6914C323.781 98.7251 322.71 100.46 321.232 101.39L320.402 100.41C322.461 99.1816 323.656 96.4922 323.656 93.8027V92.4082H320.817V91.3291H327.624V92.4082H324.918V93.8027ZM347.463 89.6025V100.427H346.168V89.6025H347.463ZM347.928 102.934V104.029H337.934V99.4307H339.229V102.934H347.928ZM340.507 91.9102C340.49 94.1514 342.034 96.1768 344.226 96.9736L343.545 98.0195C341.835 97.3638 340.507 96.0356 339.859 94.334C339.204 96.1436 337.859 97.5962 336.141 98.2852L335.427 97.2725C337.668 96.4092 339.179 94.2344 339.179 91.9102V90.4326H340.507V91.9102ZM355 92.7568C355 94.5996 356.594 96.2432 358.769 96.8906L358.138 97.9033C356.428 97.397 355.058 96.2764 354.402 94.8154C353.755 96.4341 352.41 97.7041 350.65 98.2852L350.02 97.2891C352.194 96.5586 353.722 94.7656 353.722 92.7568V92.4414H350.385V91.3955H353.722V89.5195H355.033V91.3955H358.337V92.4414H355V92.7568ZM362.205 89.5859V98.5342H360.894V94.8984H357.872V93.8193H360.894V89.5859H362.205ZM357.308 98.9326C360.379 98.9326 362.255 99.8955 362.255 101.622C362.255 103.332 360.379 104.312 357.308 104.312C354.236 104.312 352.36 103.332 352.36 101.622C352.36 99.8955 354.236 98.9326 357.308 98.9326ZM357.308 99.9453C355.05 99.9619 353.639 100.576 353.655 101.622C353.639 102.651 355.05 103.282 357.308 103.282C359.582 103.282 360.96 102.651 360.96 101.622C360.96 100.576 359.582 99.9619 357.308 99.9453ZM369.858 93.5537C369.858 96.2266 371.568 98.916 373.71 99.8955L372.93 100.958C371.253 100.095 369.867 98.3267 369.211 96.2266C368.555 98.4346 367.169 100.327 365.492 101.224L364.646 100.178C366.804 99.1152 368.53 96.2764 368.53 93.5537V90.8643H369.858V93.5537ZM376.897 89.5859V104.378H375.603V95.6953H372.1V94.6328H375.603V89.5859H376.897Z" fill="#1D1D1D"/>
<path d="M282.061 54.6318V61.9199H274.673V54.6318H282.061ZM276.765 56.3086V60.2432H279.953V56.3086H276.765ZM286.56 53.4365V64.1777H284.435V53.4365H286.56ZM286.958 66.4854V68.1953H276.433V63.1816H278.575V66.4854H286.958ZM301.402 53.4365V64.8418H299.277V63.6465H296.388V62.2021H299.277V53.4365H301.402ZM301.734 66.5684V68.2617H290.478V63.7461H292.586V61.7373C291.233 61.7954 289.947 61.8037 288.801 61.8037L288.552 60.127C291.325 60.1104 295.06 60.0771 298.248 59.6787L298.364 61.1895C297.168 61.3887 295.932 61.5298 294.711 61.6211V64.4932H292.586V66.5684H301.734ZM293.466 53.9512C295.658 53.9346 297.235 55.0469 297.235 56.6572C297.235 58.2676 295.658 59.3135 293.466 59.3135C291.225 59.3135 289.665 58.2676 289.665 56.6572C289.665 55.0469 291.208 53.9346 293.466 53.9512ZM293.466 55.4951C292.387 55.4951 291.657 55.9102 291.673 56.6572C291.657 57.3877 292.387 57.7861 293.466 57.7861C294.479 57.7861 295.209 57.3877 295.226 56.6572C295.209 55.9102 294.479 55.4951 293.466 55.4951ZM315.945 53.4365V64.2939H313.82V53.4365H315.945ZM316.343 66.5684V68.2617H305.818V63.1982H307.959V66.5684H316.343ZM307.661 54.3994C309.985 54.3994 311.794 55.9932 311.794 58.2012C311.794 60.459 309.985 62.0361 307.661 62.0361C305.336 62.0361 303.527 60.459 303.527 58.2012C303.527 55.9932 305.336 54.3994 307.661 54.3994ZM307.661 56.2422C306.482 56.2256 305.585 56.9727 305.602 58.2012C305.585 59.4629 306.482 60.1934 307.661 60.1934C308.806 60.1934 309.703 59.4629 309.703 58.2012C309.703 56.9727 308.806 56.2256 307.661 56.2422Z" fill="#173E99"/>
<rect x="498" y="31" width="198" height="101" rx="18" fill="#EDF1F5"/>
<path d="M558.267 93.5537C558.25 96.2432 560.093 98.9658 562.268 99.9453L561.471 100.975C559.794 100.153 558.341 98.418 557.636 96.3096C556.947 98.5425 555.494 100.402 553.768 101.273L552.938 100.178C555.129 99.165 556.955 96.3594 556.972 93.5537V90.8643H558.267V93.5537ZM565.189 89.5859V104.378H563.878V89.5859H565.189ZM574.47 98.0693C573.889 98.0693 573.391 97.5879 573.407 96.9902C573.391 96.4092 573.889 95.9277 574.47 95.9277C575.051 95.9277 575.532 96.4092 575.532 96.9902C575.532 97.5879 575.051 98.0693 574.47 98.0693ZM594.143 90.3828V91.5449C594.143 92.79 594.143 94.2012 593.777 96.127H595.919V97.1729H589.843V100.742H588.564V97.1729H582.405V96.127H592.449C592.848 94.1929 592.848 92.79 592.848 91.5449V91.4619H584.115V90.3828H594.143ZM594.458 102.934V104.029H584.115V99.4141H585.427V102.934H594.458ZM603.854 98.0693C603.273 98.0693 602.775 97.5879 602.792 96.9902C602.775 96.4092 603.273 95.9277 603.854 95.9277C604.436 95.9277 604.917 96.4092 604.917 96.9902C604.917 97.5879 604.436 98.0693 603.854 98.0693ZM623.461 90.5488V91.8438C623.461 93.2466 623.461 94.7656 623.046 96.8906H625.237V97.9697H619.145V104.378H617.833V97.9697H611.79V96.8906H621.718C622.166 94.7656 622.166 93.2134 622.166 91.8438V91.6279H613.483V90.5488H623.461ZM631.513 92.7568C631.513 94.5996 633.106 96.2432 635.281 96.8906L634.65 97.9033C632.94 97.397 631.571 96.2764 630.915 94.8154C630.268 96.4341 628.923 97.7041 627.163 98.2852L626.532 97.2891C628.707 96.5586 630.234 94.7656 630.234 92.7568V92.4414H626.897V91.3955H630.234V89.5195H631.546V91.3955H634.85V92.4414H631.513V92.7568ZM638.718 89.5859V98.5342H637.406V94.8984H634.385V93.8193H637.406V89.5859H638.718ZM633.82 98.9326C636.892 98.9326 638.768 99.8955 638.768 101.622C638.768 103.332 636.892 104.312 633.82 104.312C630.749 104.312 628.873 103.332 628.873 101.622C628.873 99.8955 630.749 98.9326 633.82 98.9326ZM633.82 99.9453C631.562 99.9619 630.151 100.576 630.168 101.622C630.151 102.651 631.562 103.282 633.82 103.282C636.095 103.282 637.473 102.651 637.473 101.622C637.473 100.576 636.095 99.9619 633.82 99.9453Z" fill="#1D1D1D"/>
<path d="M575.316 53.4365V64.46H573.191V53.4365H575.316ZM575.715 66.5684V68.2617H565.189V63.3975H567.331V66.5684H575.715ZM568.46 55.7275C568.443 57.7197 569.506 59.6787 571.996 60.4756L570.917 62.1357C569.215 61.5713 568.037 60.4424 567.364 58.998C566.692 60.5503 565.48 61.7954 563.712 62.4014L562.616 60.7246C565.156 59.8779 566.252 57.7695 566.252 55.7275V54.2666H568.46V55.7275ZM585.975 54.9971V56.6572H582.92C582.937 58.2095 584.082 59.7866 586.506 60.4092L585.526 62.0361C583.808 61.6045 582.596 60.6499 581.907 59.4131C581.251 60.8242 580.04 61.9282 578.255 62.4346L577.259 60.791C579.683 60.1021 580.795 58.3755 580.812 56.6572H577.773V54.9971H580.812V53.3535H582.953V54.9971H585.975ZM590.092 53.4199V62.5508H587.983V59.1641H585.526V57.4707H587.983V53.4199H590.092ZM584.929 62.7998C588.149 62.8164 590.125 63.8291 590.142 65.6387C590.125 67.4648 588.149 68.5273 584.929 68.5273C581.725 68.5273 579.732 67.4648 579.732 65.6387C579.732 63.8291 581.725 62.8164 584.929 62.7998ZM584.929 64.4268C582.92 64.4268 581.841 64.8252 581.841 65.6387C581.841 66.4688 582.92 66.917 584.929 66.917C586.971 66.917 588.033 66.4688 588.033 65.6387C588.033 64.8252 586.971 64.4268 584.929 64.4268ZM595.255 65.7715L593.827 70.5029H592.067L592.897 65.7715H595.255ZM609.831 54.1504C609.831 55.7441 611.591 57.5039 614.928 57.8857L614.164 59.5459C611.591 59.2056 609.715 58.1016 608.752 56.6074C607.772 58.1016 605.888 59.1973 603.323 59.5459L602.526 57.8857C605.88 57.5039 607.64 55.7441 607.656 54.1504V53.6523H609.831V54.1504ZM615.625 60.376V62.0361H601.846V60.376H615.625ZM608.719 63.0654C611.989 63.0654 613.965 64.0283 613.981 65.8047C613.965 67.5479 611.989 68.5439 608.719 68.5439C605.398 68.5439 603.423 67.5479 603.423 65.8047C603.423 64.0283 605.398 63.0654 608.719 63.0654ZM608.719 64.6592C606.627 64.6592 605.564 65.0244 605.581 65.8047C605.564 66.585 606.627 66.9336 608.719 66.9336C610.761 66.9336 611.84 66.585 611.856 65.8047C611.84 65.0244 610.761 64.6592 608.719 64.6592ZM629.188 53.4365V64.2939H627.063V53.4365H629.188ZM629.587 66.5684V68.2617H619.062V63.1982H621.203V66.5684H629.587ZM620.904 54.3994C623.229 54.3994 625.038 55.9932 625.038 58.2012C625.038 60.459 623.229 62.0361 620.904 62.0361C618.58 62.0361 616.771 60.459 616.771 58.2012C616.771 55.9932 618.58 54.3994 620.904 54.3994ZM620.904 56.2422C619.726 56.2256 618.829 56.9727 618.846 58.2012C618.829 59.4629 619.726 60.1934 620.904 60.1934C622.05 60.1934 622.946 59.4629 622.946 58.2012C622.946 56.9727 622.05 56.2256 620.904 56.2422Z" fill="#173E99"/>
<rect x="806" y="30" width="198" height="101" rx="18" fill="#EDF1F5"/>
<path d="M870.301 93.7861C870.301 96.127 871.446 98.667 873.405 99.8291L872.658 100.842C871.239 99.9785 870.218 98.4014 869.703 96.6084C869.155 98.5674 868.06 100.252 866.582 101.157L865.752 100.178C867.794 98.9824 869.039 96.3594 869.039 93.8359V90.9805H870.301V93.7861ZM878.568 89.5859V104.345H877.307V89.5859H878.568ZM875.514 89.9014V103.598H874.285V95.9941H871.778V94.8818H874.285V89.9014H875.514ZM884.146 90.5156C886.089 90.5156 887.533 91.96 887.533 94.002C887.533 96.0605 886.089 97.4551 884.146 97.4551C882.171 97.4551 880.76 96.0605 880.776 94.002C880.76 91.96 882.171 90.5156 884.146 90.5156ZM884.146 91.6445C882.885 91.6445 881.938 92.6406 881.955 94.002C881.938 95.3633 882.885 96.3594 884.146 96.3594C885.408 96.3594 886.321 95.3633 886.338 94.002C886.321 92.6406 885.408 91.6445 884.146 91.6445ZM893.145 89.6025V98.3848H891.899V94.4834H889.94V98.2852H888.712V89.8848H889.94V93.4043H891.899V89.6025H893.145ZM893.145 99.2148V104.345H891.866V100.261H883.2V99.2148H893.145ZM912.436 89.5859V97.1396H911.124V95.5957H907.189V94.5664H911.124V92.79H907.405C906.476 95.1226 904.185 96.6914 900.914 97.4717L900.449 96.3926C904.068 95.5542 906.177 93.7861 906.426 91.4121H901.196V90.333H907.854C907.854 90.8228 907.804 91.2959 907.721 91.7441H911.124V89.5859H912.436ZM912.436 97.8037V101.406H904.201V103.133H912.934V104.212H902.906V100.41H911.124V98.8662H902.873V97.8037H912.436ZM927.128 89.5859V98.3848H925.816V94.5166H922.845V93.4375H925.816V89.5859H927.128ZM922.23 98.8496C925.302 98.8496 927.178 99.8457 927.178 101.589C927.178 103.332 925.302 104.328 922.23 104.345C919.159 104.328 917.283 103.332 917.283 101.589C917.283 99.8457 919.159 98.8496 922.23 98.8496ZM922.23 99.8623C919.973 99.8623 918.562 100.51 918.578 101.589C918.562 102.651 919.973 103.299 922.23 103.299C924.488 103.299 925.883 102.651 925.883 101.589C925.883 100.51 924.488 99.8623 922.23 99.8623ZM920.022 92.292C920.022 94.2178 921.5 96.0439 923.658 96.791L922.978 97.8369C921.317 97.2393 920.031 96.0024 919.408 94.4668C918.761 96.2017 917.391 97.5879 915.64 98.252L914.959 97.2061C917.15 96.4092 918.711 94.417 918.711 92.3086V91.7607H915.374V90.665H923.326V91.7607H920.022V92.292ZM933.121 90.5156C935.063 90.5156 936.508 91.96 936.508 94.002C936.508 96.0605 935.063 97.4551 933.121 97.4551C931.146 97.4551 929.734 96.0605 929.751 94.002C929.734 91.96 931.146 90.5156 933.121 90.5156ZM933.121 91.6445C931.859 91.6445 930.913 92.6406 930.93 94.002C930.913 95.3633 931.859 96.3594 933.121 96.3594C934.383 96.3594 935.296 95.3633 935.312 94.002C935.296 92.6406 934.383 91.6445 933.121 91.6445ZM942.119 89.6025V98.3848H940.874V94.4834H938.915V98.2852H937.687V89.8848H938.915V93.4043H940.874V89.6025H942.119ZM942.119 99.2148V104.345H940.841V100.261H932.175V99.2148H942.119Z" fill="#1D1D1D"/>
<path d="M903.535 60.2061V61.8662H889.723V60.2061H895.566V59.2764H891.449V52.7852H901.925V54.4121H893.574V55.2588H901.576V56.7861H893.574V57.6494H902.058V59.2764H897.691V60.2061H903.535ZM896.629 62.5635C899.966 62.5469 901.875 63.4434 901.892 65.0371C901.875 66.6641 899.966 67.5273 896.629 67.5273C893.242 67.5273 891.333 66.6641 891.333 65.0371C891.333 63.4434 893.242 62.5469 896.629 62.5635ZM896.629 64.124C894.454 64.124 893.441 64.4062 893.458 65.0371C893.441 65.6846 894.454 65.9668 896.629 65.9668C898.754 65.9668 899.75 65.6846 899.767 65.0371C899.75 64.4062 898.754 64.124 896.629 64.124ZM910.309 56.5371C910.309 58.9775 911.554 61.584 914.094 62.6465L912.948 64.3066C911.164 63.5513 909.935 62.0488 909.263 60.2061C908.574 62.2065 907.32 63.8667 905.544 64.6885L904.332 63.0117C906.839 61.8994 908.134 59.0938 908.134 56.5371V55.6074H904.93V53.8809H913.463V55.6074H910.309V56.5371ZM917.099 52.4199V67.5273H914.957V52.4199H917.099Z" fill="#173E99"/>
<path d="M387 81C387 85.4183 390.582 89 395 89C399.418 89 403 85.4183 403 81C403 76.5817 399.418 73 395 73C390.582 73 387 76.5817 387 81ZM505 81L490 72.3397V89.6603L505 81ZM395 82.5H491.5V79.5H395V82.5Z" fill="#5286FF"/>
<path d="M688 82C688 86.4183 691.582 90 696 90C700.418 90 704 86.4183 704 82C704 77.5817 700.418 74 696 74C691.582 74 688 77.5817 688 82ZM806 82L791 73.3397V90.6603L806 82ZM696 83.5H792.5V80.5H696V83.5Z" fill="#5286FF"/>
</svg>
