<svg width="1200" height="314" viewBox="0 0 1200 314" fill="none" xmlns="http://www.w3.org/2000/svg">
<rect width="1200" height="314" fill="white"/>
<rect x="52" y="39" width="214" height="90" rx="18" fill="#EDF1F5"/>
<rect x="346" y="39" width="214" height="90" rx="18" fill="#EDF1F5"/>
<rect x="640" y="39" width="214" height="90" rx="18" fill="#EDF1F5"/>
<rect x="935" y="40" width="212" height="88" rx="17" fill="#D4E1FF" stroke="#173E99" stroke-width="2"/>
<path d="M107.532 72.8662C110.57 72.8662 112.396 73.8623 112.396 75.5889C112.396 77.332 110.57 78.3281 107.532 78.3447C104.494 78.3281 102.635 77.332 102.635 75.5889C102.635 73.8623 104.494 72.8662 107.532 72.8662ZM107.532 73.8955C105.308 73.9121 103.93 74.5264 103.946 75.5889C103.93 76.6514 105.308 77.2822 107.532 77.2822C109.773 77.2822 111.135 76.6514 111.135 75.5889C111.135 74.5264 109.773 73.9121 107.532 73.8955ZM112.264 63.5859V67.3047H114.488V68.417H112.264V72.4678H110.969V63.5859H112.264ZM102.635 64.5156V66.7734H106.935V64.5156H108.229V71.3223H101.356V64.5156H102.635ZM102.635 70.2598H106.935V67.8027H102.635V70.2598ZM119.485 64.4492C120.739 64.4409 121.81 64.9141 122.507 65.7109H126.342V63.5859H127.653V72.0693H126.342V70.127H122.507C121.81 70.9238 120.739 71.4053 119.485 71.4053C117.277 71.4053 115.65 69.9609 115.65 67.9189C115.65 65.877 117.277 64.4326 119.485 64.4492ZM119.485 65.5449C117.975 65.5449 116.896 66.5576 116.896 67.9189C116.896 69.3135 117.975 70.293 119.485 70.3096C120.946 70.293 122.042 69.3135 122.042 67.9189C122.042 66.5576 120.946 65.5449 119.485 65.5449ZM127.653 72.833V78.1455H118.008V72.833H127.653ZM119.303 73.8955V77.083H126.375V73.8955H119.303ZM123.121 66.79C123.237 67.1387 123.304 67.5205 123.304 67.9189C123.304 68.3091 123.237 68.6743 123.138 69.0146H126.342V66.79H123.121ZM135.058 67.5537C135.058 70.1602 136.784 72.833 138.876 73.8623L138.079 74.9082C136.452 74.0532 135.091 72.3101 134.443 70.2598C133.779 72.4429 132.385 74.3022 130.725 75.1904L129.895 74.1445C132.053 73.082 133.763 70.2432 133.779 67.5537V64.8643H135.058V67.5537ZM141.532 63.5859V69.5791H144.006V70.708H141.532V78.3447H140.237V63.5859H141.532ZM158.316 75.4229V76.5186H144.803V75.4229H148.604V72.6172H146.496V68.0684H155.328V65.7607H146.463V64.6816H156.606V69.1475H147.791V71.5381H156.955V72.6172H154.647V75.4229H158.316ZM149.883 75.4229H153.369V72.6172H149.883V75.4229ZM163.812 68.1182C163.812 70.4756 165.023 72.8994 167.049 73.9785L166.285 74.958C164.816 74.1528 163.753 72.6421 163.214 70.8574C162.683 72.75 161.628 74.3936 160.159 75.2568L159.379 74.2939C161.371 73.1318 162.566 70.5586 162.583 68.1182V67.4375H159.728V66.3584H162.583V64.1338H163.828V66.3584H166.65V67.4375H163.812V68.1182ZM172.179 63.5859V78.3447H170.917V70.6748H168.908V77.5977H167.663V63.9014H168.908V69.5625H170.917V63.5859H172.179ZM179.749 66.375C179.749 67.8691 181.227 69.1309 183.318 69.5957L182.787 70.6416C181.085 70.2266 179.774 69.3218 179.135 68.1182C178.496 69.4214 177.167 70.4092 175.416 70.8408L174.852 69.7949C176.977 69.3301 178.454 67.9521 178.454 66.375V66.3086H175.167V65.2793H178.454V63.6357H179.749V65.2793H183.036V66.3086H179.749V66.375ZM186.356 63.6025V78.3613H185.078V63.6025H186.356ZM174.154 71.8867C176.977 71.8867 180.729 71.8535 183.999 71.4385L184.082 72.3848C182.671 72.6172 181.21 72.7583 179.782 72.833V77.9131H178.487V72.8994C176.993 72.9741 175.574 72.9824 174.337 72.9824L174.154 71.8867ZM201.48 64.5488V70.5586H194.558V64.5488H201.48ZM195.836 65.6113V69.5293H200.202V65.6113H195.836ZM205.946 63.5859V72.0693H204.668V63.5859H205.946ZM201.945 74.0947C201.945 75.5391 204.303 76.9668 206.843 77.2822L206.395 78.2949C204.17 77.9961 202.145 76.9502 201.281 75.5723C200.385 76.9751 198.31 77.9961 196.085 78.2949L195.62 77.2822C198.16 77 200.601 75.5723 200.601 74.0947H196.234V73.082H200.617V71.6377H201.912V73.082H206.328V74.0947H201.945ZM97.7373 98.8662C100.775 98.8662 102.602 99.8623 102.602 101.589C102.602 103.332 100.775 104.328 97.7373 104.345C94.6992 104.328 92.8398 103.332 92.8398 101.589C92.8398 99.8623 94.6992 98.8662 97.7373 98.8662ZM97.7373 99.8955C95.5127 99.9121 94.1348 100.526 94.1514 101.589C94.1348 102.651 95.5127 103.282 97.7373 103.282C99.9785 103.282 101.34 102.651 101.34 101.589C101.34 100.526 99.9785 99.9121 97.7373 99.8955ZM102.469 89.5859V93.3047H104.693V94.417H102.469V98.4678H101.174V89.5859H102.469ZM92.8398 90.5156V92.7734H97.1396V90.5156H98.4346V97.3223H91.5615V90.5156H92.8398ZM92.8398 96.2598H97.1396V93.8027H92.8398V96.2598ZM109.69 90.4492C110.944 90.4409 112.015 90.9141 112.712 91.7109H116.547V89.5859H117.858V98.0693H116.547V96.127H112.712C112.015 96.9238 110.944 97.4053 109.69 97.4053C107.482 97.4053 105.855 95.9609 105.855 93.9189C105.855 91.877 107.482 90.4326 109.69 90.4492ZM109.69 91.5449C108.18 91.5449 107.101 92.5576 107.101 93.9189C107.101 95.3135 108.18 96.293 109.69 96.3096C111.151 96.293 112.247 95.3135 112.247 93.9189C112.247 92.5576 111.151 91.5449 109.69 91.5449ZM117.858 98.833V104.146H108.213V98.833H117.858ZM109.508 99.8955V103.083H116.58V99.8955H109.508ZM113.326 92.79C113.442 93.1387 113.509 93.5205 113.509 93.9189C113.509 94.3091 113.442 94.6743 113.343 95.0146H116.547V92.79H113.326ZM130.293 91.9102C130.276 94.0186 131.771 95.8779 133.945 96.6084L133.215 97.6211C131.588 97.0068 130.31 95.8115 129.679 94.251C129.04 96.019 127.687 97.397 125.91 98.0693L125.196 97.0068C127.471 96.21 128.981 94.251 128.998 91.96V90.4326H130.293V91.9102ZM137.448 89.5859V98.335H136.137V93.8359H132.85V92.7568H136.137V89.5859H137.448ZM132.551 98.7666C135.622 98.7666 137.498 99.7793 137.498 101.556C137.498 103.315 135.622 104.312 132.551 104.312C129.479 104.312 127.604 103.315 127.604 101.556C127.604 99.7793 129.479 98.7666 132.551 98.7666ZM132.551 99.7959C130.293 99.7959 128.882 100.46 128.898 101.556C128.882 102.618 130.293 103.266 132.551 103.266C134.809 103.266 136.203 102.618 136.203 101.556C136.203 100.46 134.809 99.7959 132.551 99.7959ZM151.825 93.7197V94.7988H141.748V89.8848H143.043V93.7197H151.825ZM153.369 96.5254V97.6045H139.905V96.5254H153.369ZM146.629 98.9326C149.8 98.9326 151.692 99.8955 151.709 101.605C151.692 103.315 149.8 104.278 146.629 104.278C143.441 104.278 141.532 103.315 141.532 101.605C141.532 99.8955 143.441 98.9326 146.629 98.9326ZM146.629 99.9619C144.255 99.9785 142.844 100.56 142.86 101.605C142.844 102.635 144.255 103.266 146.629 103.266C148.97 103.266 150.397 102.635 150.397 101.605C150.397 100.56 148.97 99.9785 146.629 99.9619ZM162.218 90.5488C162.201 94.251 159.562 96.9072 155.312 98.1191L154.764 97.0898C158.292 96.0938 160.541 94.1348 160.823 91.6279H155.527V90.5488H162.218ZM166.833 89.6025V98.0195H165.521V94.5H162.251V93.4043H165.521V89.6025H166.833ZM166.833 98.6504V104.146H157.254V98.6504H166.833ZM158.516 99.6963V103.083H165.538V99.6963H158.516ZM174.237 93.5537C174.237 96.1602 175.964 98.833 178.056 99.8623L177.259 100.908C175.632 100.053 174.271 98.3101 173.623 96.2598C172.959 98.4429 171.564 100.302 169.904 101.19L169.074 100.145C171.232 99.082 172.942 96.2432 172.959 93.5537V90.8643H174.237V93.5537ZM180.712 89.5859V95.5791H183.186V96.708H180.712V104.345H179.417V89.5859H180.712ZM201.065 89.6025V100.427H199.771V89.6025H201.065ZM201.53 102.934V104.029H191.536V99.4307H192.831V102.934H201.53ZM194.109 91.9102C194.093 94.1514 195.637 96.1768 197.828 96.9736L197.147 98.0195C195.438 97.3638 194.109 96.0356 193.462 94.334C192.806 96.1436 191.461 97.5962 189.743 98.2852L189.029 97.2725C191.271 96.4092 192.781 94.2344 192.781 91.9102V90.4326H194.109V91.9102ZM208.603 92.7568C208.603 94.5996 210.196 96.2432 212.371 96.8906L211.74 97.9033C210.03 97.397 208.661 96.2764 208.005 94.8154C207.357 96.4341 206.013 97.7041 204.253 98.2852L203.622 97.2891C205.797 96.5586 207.324 94.7656 207.324 92.7568V92.4414H203.987V91.3955H207.324V89.5195H208.636V91.3955H211.939V92.4414H208.603V92.7568ZM215.808 89.5859V98.5342H214.496V94.8984H211.475V93.8193H214.496V89.5859H215.808ZM210.91 98.9326C213.981 98.9326 215.857 99.8955 215.857 101.622C215.857 103.332 213.981 104.312 210.91 104.312C207.839 104.312 205.963 103.332 205.963 101.622C205.963 99.8955 207.839 98.9326 210.91 98.9326ZM210.91 99.9453C208.652 99.9619 207.241 100.576 207.258 101.622C207.241 102.651 208.652 103.282 210.91 103.282C213.185 103.282 214.562 102.651 214.562 101.622C214.562 100.576 213.185 99.9619 210.91 99.9453Z" fill="#1D1D1D"/>
<path d="M150.56 139.437V150.46H148.435V139.437H150.56ZM150.958 152.568V154.262H140.433V149.397H142.575V152.568H150.958ZM143.704 141.728C143.687 143.72 144.75 145.679 147.24 146.476L146.161 148.136C144.459 147.571 143.28 146.442 142.608 144.998C141.936 146.55 140.724 147.795 138.956 148.401L137.86 146.725C140.4 145.878 141.496 143.77 141.496 141.728V140.267H143.704V141.728ZM161.218 140.997V142.657H158.164C158.18 144.209 159.326 145.787 161.75 146.409L160.77 148.036C159.052 147.604 157.84 146.65 157.151 145.413C156.495 146.824 155.283 147.928 153.499 148.435L152.502 146.791C154.926 146.102 156.039 144.375 156.055 142.657H153.017V140.997H156.055V139.354H158.197V140.997H161.218ZM165.335 139.42V148.551H163.227V145.164H160.77V143.471H163.227V139.42H165.335ZM160.172 148.8C163.393 148.816 165.369 149.829 165.385 151.639C165.369 153.465 163.393 154.527 160.172 154.527C156.968 154.527 154.976 153.465 154.976 151.639C154.976 149.829 156.968 148.816 160.172 148.8ZM160.172 150.427C158.164 150.427 157.084 150.825 157.084 151.639C157.084 152.469 158.164 152.917 160.172 152.917C162.214 152.917 163.277 152.469 163.277 151.639C163.277 150.825 162.214 150.427 160.172 150.427ZM179.945 139.437V150.294H177.82V139.437H179.945ZM180.343 152.568V154.262H169.818V149.198H171.959V152.568H180.343ZM171.661 140.399C173.985 140.399 175.794 141.993 175.794 144.201C175.794 146.459 173.985 148.036 171.661 148.036C169.336 148.036 167.527 146.459 167.527 144.201C167.527 141.993 169.336 140.399 171.661 140.399ZM171.661 142.242C170.482 142.226 169.585 142.973 169.602 144.201C169.585 145.463 170.482 146.193 171.661 146.193C172.806 146.193 173.703 145.463 173.703 144.201C173.703 142.973 172.806 142.226 171.661 142.242Z" fill="#173E99"/>
<path d="M440.061 140.632V147.92H432.673V140.632H440.061ZM434.765 142.309V146.243H437.953V142.309H434.765ZM444.56 139.437V150.178H442.435V139.437H444.56ZM444.958 152.485V154.195H434.433V149.182H436.575V152.485H444.958ZM459.402 139.437V150.842H457.277V149.646H454.388V148.202H457.277V139.437H459.402ZM459.734 152.568V154.262H448.478V149.746H450.586V147.737C449.233 147.795 447.947 147.804 446.801 147.804L446.552 146.127C449.325 146.11 453.06 146.077 456.248 145.679L456.364 147.189C455.168 147.389 453.932 147.53 452.711 147.621V150.493H450.586V152.568H459.734ZM451.466 139.951C453.658 139.935 455.235 141.047 455.235 142.657C455.235 144.268 453.658 145.313 451.466 145.313C449.225 145.313 447.665 144.268 447.665 142.657C447.665 141.047 449.208 139.935 451.466 139.951ZM451.466 141.495C450.387 141.495 449.657 141.91 449.673 142.657C449.657 143.388 450.387 143.786 451.466 143.786C452.479 143.786 453.209 143.388 453.226 142.657C453.209 141.91 452.479 141.495 451.466 141.495ZM473.945 139.437V150.294H471.82V139.437H473.945ZM474.343 152.568V154.262H463.818V149.198H465.959V152.568H474.343ZM465.661 140.399C467.985 140.399 469.794 141.993 469.794 144.201C469.794 146.459 467.985 148.036 465.661 148.036C463.336 148.036 461.527 146.459 461.527 144.201C461.527 141.993 463.336 140.399 465.661 140.399ZM465.661 142.242C464.482 142.226 463.585 142.973 463.602 144.201C463.585 145.463 464.482 146.193 465.661 146.193C466.806 146.193 467.703 145.463 467.703 144.201C467.703 142.973 466.806 142.226 465.661 142.242Z" fill="#173E99"/>
<path d="M738.56 139.437V150.46H736.435V139.437H738.56ZM738.958 152.568V154.262H728.433V149.397H730.575V152.568H738.958ZM731.704 141.728C731.687 143.72 732.75 145.679 735.24 146.476L734.161 148.136C732.459 147.571 731.28 146.442 730.608 144.998C729.936 146.55 728.724 147.795 726.956 148.401L725.86 146.725C728.4 145.878 729.496 143.77 729.496 141.728V140.267H731.704V141.728ZM749.218 140.997V142.657H746.164C746.18 144.209 747.326 145.787 749.75 146.409L748.77 148.036C747.052 147.604 745.84 146.65 745.151 145.413C744.495 146.824 743.283 147.928 741.499 148.435L740.502 146.791C742.926 146.102 744.039 144.375 744.055 142.657H741.017V140.997H744.055V139.354H746.197V140.997H749.218ZM753.335 139.42V148.551H751.227V145.164H748.77V143.471H751.227V139.42H753.335ZM748.172 148.8C751.393 148.816 753.369 149.829 753.385 151.639C753.369 153.465 751.393 154.527 748.172 154.527C744.968 154.527 742.976 153.465 742.976 151.639C742.976 149.829 744.968 148.816 748.172 148.8ZM748.172 150.427C746.164 150.427 745.084 150.825 745.084 151.639C745.084 152.469 746.164 152.917 748.172 152.917C750.214 152.917 751.277 152.469 751.277 151.639C751.277 150.825 750.214 150.427 748.172 150.427ZM767.945 139.437V150.294H765.82V139.437H767.945ZM768.343 152.568V154.262H757.818V149.198H759.959V152.568H768.343ZM759.661 140.399C761.985 140.399 763.794 141.993 763.794 144.201C763.794 146.459 761.985 148.036 759.661 148.036C757.336 148.036 755.527 146.459 755.527 144.201C755.527 141.993 757.336 140.399 759.661 140.399ZM759.661 142.242C758.482 142.226 757.585 142.973 757.602 144.201C757.585 145.463 758.482 146.193 759.661 146.193C760.806 146.193 761.703 145.463 761.703 144.201C761.703 142.973 760.806 142.226 759.661 142.242Z" fill="#173E99"/>
<path d="M1035.56 139.437V150.46H1033.44V139.437H1035.56ZM1035.96 152.568V154.262H1025.43V149.397H1027.57V152.568H1035.96ZM1028.7 141.728C1028.69 143.72 1029.75 145.679 1032.24 146.476L1031.16 148.136C1029.46 147.571 1028.28 146.442 1027.61 144.998C1026.94 146.55 1025.72 147.795 1023.96 148.401L1022.86 146.725C1025.4 145.878 1026.5 143.77 1026.5 141.728V140.267H1028.7V141.728ZM1046.22 140.997V142.657H1043.16C1043.18 144.209 1044.33 145.787 1046.75 146.409L1045.77 148.036C1044.05 147.604 1042.84 146.65 1042.15 145.413C1041.5 146.824 1040.28 147.928 1038.5 148.435L1037.5 146.791C1039.93 146.102 1041.04 144.375 1041.06 142.657H1038.02V140.997H1041.06V139.354H1043.2V140.997H1046.22ZM1050.34 139.42V148.551H1048.23V145.164H1045.77V143.471H1048.23V139.42H1050.34ZM1045.17 148.8C1048.39 148.816 1050.37 149.829 1050.39 151.639C1050.37 153.465 1048.39 154.527 1045.17 154.527C1041.97 154.527 1039.98 153.465 1039.98 151.639C1039.98 149.829 1041.97 148.816 1045.17 148.8ZM1045.17 150.427C1043.16 150.427 1042.08 150.825 1042.08 151.639C1042.08 152.469 1043.16 152.917 1045.17 152.917C1047.21 152.917 1048.28 152.469 1048.28 151.639C1048.28 150.825 1047.21 150.427 1045.17 150.427ZM1064.94 139.437V150.294H1062.82V139.437H1064.94ZM1065.34 152.568V154.262H1054.82V149.198H1056.96V152.568H1065.34ZM1056.66 140.399C1058.98 140.399 1060.79 141.993 1060.79 144.201C1060.79 146.459 1058.98 148.036 1056.66 148.036C1054.34 148.036 1052.53 146.459 1052.53 144.201C1052.53 141.993 1054.34 140.399 1056.66 140.399ZM1056.66 142.242C1055.48 142.226 1054.59 142.973 1054.6 144.201C1054.59 145.463 1055.48 146.193 1056.66 146.193C1057.81 146.193 1058.7 145.463 1058.7 144.201C1058.7 142.973 1057.81 142.226 1056.66 142.242Z" fill="#173E99"/>
<path d="M406.047 76.5859V84.6045H404.752V81.2676H401.764V80.1719H404.752V76.5859H406.047ZM397.862 85.3184V87.1611H404.752V85.3184H406.047V91.1455H396.551V85.3184H397.862ZM397.862 90.083H404.752V88.207H397.862V90.083ZM398.958 78.9932C398.958 80.8857 400.436 82.7451 402.594 83.4922L401.913 84.5049C400.245 83.8989 398.958 82.6621 398.327 81.1348C397.688 82.8447 396.327 84.2144 394.575 84.8535L393.895 83.8242C396.069 83.0439 397.646 81.085 397.646 78.9932V78.5615H394.31V77.4824H402.262V78.5615H398.958V78.9932ZM415.925 77.9639C415.925 80.0391 418.647 81.8486 421.304 82.2139L420.772 83.2764C418.481 82.8945 416.215 81.6245 415.261 79.8066C414.314 81.6328 412.04 82.8945 409.749 83.2764L409.218 82.2139C411.874 81.8486 414.58 80.0723 414.58 77.9639V77.1172H415.925V77.9639ZM421.968 84.9033V85.999H415.858V91.3447H414.58V85.999H408.521V84.9033H421.968ZM435.813 77.5488V83.5586H428.891V77.5488H435.813ZM430.169 78.6113V82.5293H434.535V78.6113H430.169ZM440.279 76.5859V85.0693H439.001V76.5859H440.279ZM436.278 87.0947C436.278 88.5391 438.636 89.9668 441.176 90.2822L440.728 91.2949C438.503 90.9961 436.478 89.9502 435.614 88.5723C434.718 89.9751 432.643 90.9961 430.418 91.2949L429.953 90.2822C432.493 90 434.934 88.5723 434.934 87.0947H430.567V86.082H434.95V84.6377H436.245V86.082H440.661V87.0947H436.278ZM452.946 80.5537C452.93 83.2432 454.772 85.9658 456.947 86.9453L456.15 87.9746C454.474 87.1528 453.021 85.418 452.315 83.3096C451.626 85.5425 450.174 87.4019 448.447 88.2734L447.617 87.1777C449.809 86.165 451.635 83.3594 451.651 80.5537V77.8643H452.946V80.5537ZM459.869 76.5859V91.3779H458.558V76.5859H459.869ZM474.628 76.5859V85.5342H473.316V82.1641H470.81V81.085H473.316V76.5859H474.628ZM474.628 86.3311V91.1455H464.982V86.3311H474.628ZM466.277 87.377V90.083H473.35V87.377H466.277ZM471.025 78.1465V79.209H462.409V78.1465H466.078V76.4531H467.356V78.1465H471.025ZM466.709 79.9727C468.718 79.9727 470.129 81.0518 470.146 82.5957C470.129 84.1895 468.718 85.2354 466.709 85.2354C464.7 85.2354 463.289 84.1895 463.289 82.5957C463.289 81.0518 464.7 79.9727 466.709 79.9727ZM466.709 80.9854C465.431 80.9854 464.534 81.6494 464.534 82.5957C464.534 83.5752 465.431 84.2227 466.709 84.2393C467.987 84.2227 468.884 83.5752 468.884 82.5957C468.884 81.6494 467.987 80.9854 466.709 80.9854ZM486.813 77.665C489.138 77.665 490.781 79.0762 490.781 81.1348C490.781 83.1934 489.138 84.6045 486.813 84.6045C484.489 84.6045 482.812 83.1934 482.829 81.1348C482.812 79.0762 484.489 77.665 486.813 77.665ZM486.813 78.8105C485.236 78.8105 484.091 79.7568 484.107 81.1348C484.091 82.5127 485.236 83.459 486.813 83.459C488.374 83.459 489.503 82.5127 489.503 81.1348C489.503 79.7568 488.374 78.8105 486.813 78.8105ZM494.085 76.5859V91.3779H492.79V76.5859H494.085ZM482.065 87.0117C484.788 87.0117 488.54 86.9951 491.811 86.5137L491.91 87.4766C488.54 88.1074 484.904 88.124 482.248 88.124L482.065 87.0117ZM505.274 77.9639V81.8486H499.148V83.7246H505.689V84.7705H502.27V87.2441C503.706 87.186 505.142 87.0864 506.503 86.9287L506.603 87.9082C503.332 88.4062 499.763 88.4727 496.94 88.4561L496.758 87.3438C498.053 87.3438 499.489 87.3354 500.975 87.2939V84.7705H497.854V80.8691H503.996V79.0264H497.82V77.9639H505.274ZM508.777 76.5859V91.3779H507.482V76.5859H508.777Z" fill="#1D1D1D"/>
<path d="M741.339 77.9971V79.0596H739.828V83.9404C740.583 83.8906 741.331 83.8242 742.036 83.7412L742.136 84.7207C739.147 85.1855 735.661 85.252 733.104 85.252L732.955 84.1729L734.864 84.1396V79.0596H733.37V77.9971H741.339ZM744.443 76.6025V81.085H746.668V82.1973H744.443V87.46H743.148V76.6025H744.443ZM745.124 89.9336V91.0293H735.213V86.4307H736.491V89.9336H745.124ZM736.143 84.123C736.931 84.0981 737.745 84.0732 738.55 84.0234V79.0596H736.143V84.123ZM759.833 76.5859V85.3848H758.521V81.5166H755.55V80.4375H758.521V76.5859H759.833ZM754.936 85.8496C758.007 85.8496 759.883 86.8457 759.883 88.5889C759.883 90.332 758.007 91.3281 754.936 91.3447C751.864 91.3281 749.988 90.332 749.988 88.5889C749.988 86.8457 751.864 85.8496 754.936 85.8496ZM754.936 86.8623C752.678 86.8623 751.267 87.5098 751.283 88.5889C751.267 89.6514 752.678 90.2988 754.936 90.2988C757.193 90.2988 758.588 89.6514 758.588 88.5889C758.588 87.5098 757.193 86.8623 754.936 86.8623ZM752.728 79.292C752.728 81.2178 754.205 83.0439 756.363 83.791L755.683 84.8369C754.022 84.2393 752.736 83.0024 752.113 81.4668C751.466 83.2017 750.096 84.5879 748.345 85.252L747.664 84.2061C749.855 83.4092 751.416 81.417 751.416 79.3086V78.7607H748.079V77.665H756.031V78.7607H752.728V79.292Z" fill="#1D1D1D"/>
<path d="M559.404 262.866C562.442 262.866 564.269 263.862 564.269 265.589C564.269 267.332 562.442 268.328 559.404 268.345C556.366 268.328 554.507 267.332 554.507 265.589C554.507 263.862 556.366 262.866 559.404 262.866ZM559.404 263.896C557.18 263.912 555.802 264.526 555.818 265.589C555.802 266.651 557.18 267.282 559.404 267.282C561.646 267.282 563.007 266.651 563.007 265.589C563.007 264.526 561.646 263.912 559.404 263.896ZM564.136 253.586V257.305H566.36V258.417H564.136V262.468H562.841V253.586H564.136ZM554.507 254.516V256.773H558.807V254.516H560.102V261.322H553.229V254.516H554.507ZM554.507 260.26H558.807V257.803H554.507V260.26ZM571.357 254.449C572.611 254.441 573.682 254.914 574.379 255.711H578.214V253.586H579.525V262.069H578.214V260.127H574.379C573.682 260.924 572.611 261.405 571.357 261.405C569.149 261.405 567.522 259.961 567.522 257.919C567.522 255.877 569.149 254.433 571.357 254.449ZM571.357 255.545C569.847 255.545 568.768 256.558 568.768 257.919C568.768 259.313 569.847 260.293 571.357 260.31C572.818 260.293 573.914 259.313 573.914 257.919C573.914 256.558 572.818 255.545 571.357 255.545ZM579.525 262.833V268.146H569.88V262.833H579.525ZM571.175 263.896V267.083H578.247V263.896H571.175ZM574.993 256.79C575.109 257.139 575.176 257.521 575.176 257.919C575.176 258.309 575.109 258.674 575.01 259.015H578.214V256.79H574.993ZM587.062 255.91C587.046 258.019 588.54 259.878 590.715 260.608L589.984 261.621C588.357 261.007 587.079 259.812 586.448 258.251C585.809 260.019 584.456 261.397 582.68 262.069L581.966 261.007C584.24 260.21 585.751 258.251 585.768 255.96V254.433H587.062V255.91ZM594.218 253.586V262.335H592.906V257.836H589.619V256.757H592.906V253.586H594.218ZM589.32 262.767C592.392 262.767 594.268 263.779 594.268 265.556C594.268 267.315 592.392 268.312 589.32 268.312C586.249 268.312 584.373 267.315 584.373 265.556C584.373 263.779 586.249 262.767 589.32 262.767ZM589.32 263.796C587.062 263.796 585.651 264.46 585.668 265.556C585.651 266.618 587.062 267.266 589.32 267.266C591.578 267.266 592.973 266.618 592.973 265.556C592.973 264.46 591.578 263.796 589.32 263.796ZM608.595 257.72V258.799H598.518V253.885H599.812V257.72H608.595ZM610.139 260.525V261.604H596.675V260.525H610.139ZM603.398 262.933C606.569 262.933 608.462 263.896 608.479 265.605C608.462 267.315 606.569 268.278 603.398 268.278C600.211 268.278 598.302 267.315 598.302 265.605C598.302 263.896 600.211 262.933 603.398 262.933ZM603.398 263.962C601.024 263.979 599.613 264.56 599.63 265.605C599.613 266.635 601.024 267.266 603.398 267.266C605.739 267.266 607.167 266.635 607.167 265.605C607.167 264.56 605.739 263.979 603.398 263.962ZM618.987 254.549C618.971 258.251 616.331 260.907 612.081 262.119L611.533 261.09C615.061 260.094 617.311 258.135 617.593 255.628H612.297V254.549H618.987ZM623.603 253.603V262.02H622.291V258.5H619.021V257.404H622.291V253.603H623.603ZM623.603 262.65V268.146H614.023V262.65H623.603ZM615.285 263.696V267.083H622.308V263.696H615.285ZM631.007 257.554C631.007 260.16 632.733 262.833 634.825 263.862L634.028 264.908C632.401 264.053 631.04 262.31 630.393 260.26C629.729 262.443 628.334 264.302 626.674 265.19L625.844 264.145C628.002 263.082 629.712 260.243 629.729 257.554V254.864H631.007V257.554ZM637.481 253.586V259.579H639.955V260.708H637.481V268.345H636.187V253.586H637.481ZM650.729 255.91C650.713 258.019 652.207 259.878 654.382 260.608L653.651 261.621C652.024 261.007 650.746 259.812 650.115 258.251C649.476 260.019 648.123 261.397 646.347 262.069L645.633 261.007C647.907 260.21 649.418 258.251 649.435 255.96V254.433H650.729V255.91ZM657.885 253.586V262.335H656.573V257.836H653.286V256.757H656.573V253.586H657.885ZM652.987 262.767C656.059 262.767 657.935 263.779 657.935 265.556C657.935 267.315 656.059 268.312 652.987 268.312C649.916 268.312 648.04 267.315 648.04 265.556C648.04 263.779 649.916 262.767 652.987 262.767ZM652.987 263.796C650.729 263.796 649.318 264.46 649.335 265.556C649.318 266.618 650.729 267.266 652.987 267.266C655.245 267.266 656.64 266.618 656.64 265.556C656.64 264.46 655.245 263.796 652.987 263.796ZM665.472 256.309C665.472 258.234 666.949 260.061 669.107 260.808L668.427 261.837C666.758 261.239 665.472 260.002 664.841 258.483C664.202 260.185 662.84 261.546 661.089 262.186L660.408 261.156C662.583 260.376 664.16 258.4 664.16 256.325V255.678H660.823V254.615H668.775V255.678H665.472V256.309ZM672.577 263.215V268.345H671.266V264.294H662.649V263.215H672.577ZM672.577 253.586V262.435H671.266V258.55H668.311V257.454H671.266V253.586H672.577ZM680.23 257.554C680.23 260.227 681.94 262.916 684.082 263.896L683.302 264.958C681.625 264.095 680.239 262.327 679.583 260.227C678.927 262.435 677.541 264.327 675.864 265.224L675.018 264.178C677.176 263.115 678.902 260.276 678.902 257.554V254.864H680.23V257.554ZM687.27 253.586V268.378H685.975V259.695H682.472V258.633H685.975V253.586H687.27ZM706.478 255.08V256.724C706.478 258.616 706.478 260.525 705.946 263.265L704.668 263.115C705.199 260.509 705.199 258.566 705.199 256.724V256.159H696.035V255.08H706.478ZM708.071 265.174V266.253H694.624V265.174H697.961V260.31H699.256V265.174H701.646V260.31H702.925V265.174H708.071ZM722.813 262.352V263.414H716.654V268.345H715.376V263.414H709.3V262.352H722.813ZM712.321 254.2V256.242H719.759V254.2H721.07V260.559H711.026V254.2H712.321ZM712.321 259.496H719.759V257.305H712.321V259.496Z" fill="#1D1D1D"/>
<path d="M460.404 217.866C463.442 217.866 465.269 218.862 465.269 220.589C465.269 222.332 463.442 223.328 460.404 223.345C457.366 223.328 455.507 222.332 455.507 220.589C455.507 218.862 457.366 217.866 460.404 217.866ZM460.404 218.896C458.18 218.912 456.802 219.526 456.818 220.589C456.802 221.651 458.18 222.282 460.404 222.282C462.646 222.282 464.007 221.651 464.007 220.589C464.007 219.526 462.646 218.912 460.404 218.896ZM465.136 208.586V212.305H467.36V213.417H465.136V217.468H463.841V208.586H465.136ZM455.507 209.516V211.773H459.807V209.516H461.102V216.322H454.229V209.516H455.507ZM455.507 215.26H459.807V212.803H455.507V215.26ZM472.357 209.449C473.611 209.441 474.682 209.914 475.379 210.711H479.214V208.586H480.525V217.069H479.214V215.127H475.379C474.682 215.924 473.611 216.405 472.357 216.405C470.149 216.405 468.522 214.961 468.522 212.919C468.522 210.877 470.149 209.433 472.357 209.449ZM472.357 210.545C470.847 210.545 469.768 211.558 469.768 212.919C469.768 214.313 470.847 215.293 472.357 215.31C473.818 215.293 474.914 214.313 474.914 212.919C474.914 211.558 473.818 210.545 472.357 210.545ZM480.525 217.833V223.146H470.88V217.833H480.525ZM472.175 218.896V222.083H479.247V218.896H472.175ZM475.993 211.79C476.109 212.139 476.176 212.521 476.176 212.919C476.176 213.309 476.109 213.674 476.01 214.015H479.214V211.79H475.993ZM488.062 210.91C488.046 213.019 489.54 214.878 491.715 215.608L490.984 216.621C489.357 216.007 488.079 214.812 487.448 213.251C486.809 215.019 485.456 216.397 483.68 217.069L482.966 216.007C485.24 215.21 486.751 213.251 486.768 210.96V209.433H488.062V210.91ZM495.218 208.586V217.335H493.906V212.836H490.619V211.757H493.906V208.586H495.218ZM490.32 217.767C493.392 217.767 495.268 218.779 495.268 220.556C495.268 222.315 493.392 223.312 490.32 223.312C487.249 223.312 485.373 222.315 485.373 220.556C485.373 218.779 487.249 217.767 490.32 217.767ZM490.32 218.796C488.062 218.796 486.651 219.46 486.668 220.556C486.651 221.618 488.062 222.266 490.32 222.266C492.578 222.266 493.973 221.618 493.973 220.556C493.973 219.46 492.578 218.796 490.32 218.796ZM509.595 212.72V213.799H499.518V208.885H500.812V212.72H509.595ZM511.139 215.525V216.604H497.675V215.525H511.139ZM504.398 217.933C507.569 217.933 509.462 218.896 509.479 220.605C509.462 222.315 507.569 223.278 504.398 223.278C501.211 223.278 499.302 222.315 499.302 220.605C499.302 218.896 501.211 217.933 504.398 217.933ZM504.398 218.962C502.024 218.979 500.613 219.56 500.63 220.605C500.613 221.635 502.024 222.266 504.398 222.266C506.739 222.266 508.167 221.635 508.167 220.605C508.167 219.56 506.739 218.979 504.398 218.962ZM519.987 209.549C519.971 213.251 517.331 215.907 513.081 217.119L512.533 216.09C516.061 215.094 518.311 213.135 518.593 210.628H513.297V209.549H519.987ZM524.603 208.603V217.02H523.291V213.5H520.021V212.404H523.291V208.603H524.603ZM524.603 217.65V223.146H515.023V217.65H524.603ZM516.285 218.696V222.083H523.308V218.696H516.285ZM532.007 212.554C532.007 215.16 533.733 217.833 535.825 218.862L535.028 219.908C533.401 219.053 532.04 217.31 531.393 215.26C530.729 217.443 529.334 219.302 527.674 220.19L526.844 219.145C529.002 218.082 530.712 215.243 530.729 212.554V209.864H532.007V212.554ZM538.481 208.586V214.579H540.955V215.708H538.481V223.345H537.187V208.586H538.481ZM551.729 210.91C551.713 213.019 553.207 214.878 555.382 215.608L554.651 216.621C553.024 216.007 551.746 214.812 551.115 213.251C550.476 215.019 549.123 216.397 547.347 217.069L546.633 216.007C548.907 215.21 550.418 213.251 550.435 210.96V209.433H551.729V210.91ZM558.885 208.586V217.335H557.573V212.836H554.286V211.757H557.573V208.586H558.885ZM553.987 217.767C557.059 217.767 558.935 218.779 558.935 220.556C558.935 222.315 557.059 223.312 553.987 223.312C550.916 223.312 549.04 222.315 549.04 220.556C549.04 218.779 550.916 217.767 553.987 217.767ZM553.987 218.796C551.729 218.796 550.318 219.46 550.335 220.556C550.318 221.618 551.729 222.266 553.987 222.266C556.245 222.266 557.64 221.618 557.64 220.556C557.64 219.46 556.245 218.796 553.987 218.796ZM566.472 211.309C566.472 213.234 567.949 215.061 570.107 215.808L569.427 216.837C567.758 216.239 566.472 215.002 565.841 213.483C565.202 215.185 563.84 216.546 562.089 217.186L561.408 216.156C563.583 215.376 565.16 213.4 565.16 211.325V210.678H561.823V209.615H569.775V210.678H566.472V211.309ZM573.577 218.215V223.345H572.266V219.294H563.649V218.215H573.577ZM573.577 208.586V217.435H572.266V213.55H569.311V212.454H572.266V208.586H573.577ZM581.23 212.554C581.23 215.227 582.94 217.916 585.082 218.896L584.302 219.958C582.625 219.095 581.239 217.327 580.583 215.227C579.927 217.435 578.541 219.327 576.864 220.224L576.018 219.178C578.176 218.115 579.902 215.276 579.902 212.554V209.864H581.23V212.554ZM588.27 208.586V223.378H586.975V214.695H583.472V213.633H586.975V208.586H588.27ZM595.176 209.549C597.45 209.565 599.094 210.96 599.11 213.019C599.094 214.87 597.766 216.189 595.84 216.422V218.945C597.218 218.879 598.604 218.779 599.891 218.613L599.974 219.593C596.853 220.124 593.35 220.157 590.76 220.141L590.544 219.045C591.731 219.037 593.109 219.028 594.528 218.979V216.422C592.569 216.198 591.225 214.878 591.241 213.019C591.225 210.96 592.868 209.565 595.176 209.549ZM595.176 210.678C593.632 210.678 592.503 211.641 592.52 213.019C592.503 214.396 593.632 215.359 595.176 215.359C596.703 215.359 597.815 214.396 597.832 213.019C597.815 211.641 596.703 210.678 595.176 210.678ZM602.132 208.586V214.679H604.539V215.808H602.132V223.345H600.837V208.586H602.132ZM617.123 217.866C620.161 217.866 621.987 218.862 621.987 220.589C621.987 222.332 620.161 223.328 617.123 223.345C614.085 223.328 612.226 222.332 612.226 220.589C612.226 218.862 614.085 217.866 617.123 217.866ZM617.123 218.896C614.898 218.912 613.521 219.526 613.537 220.589C613.521 221.651 614.898 222.282 617.123 222.282C619.364 222.282 620.726 221.651 620.726 220.589C620.726 219.526 619.364 218.912 617.123 218.896ZM621.854 208.586V212.305H624.079V213.417H621.854V217.468H620.56V208.586H621.854ZM612.226 209.516V211.773H616.525V209.516H617.82V216.322H610.947V209.516H612.226ZM612.226 215.26H616.525V212.803H612.226V215.26ZM629.076 209.449C630.33 209.441 631.4 209.914 632.098 210.711H635.933V208.586H637.244V217.069H635.933V215.127H632.098C631.4 215.924 630.33 216.405 629.076 216.405C626.868 216.405 625.241 214.961 625.241 212.919C625.241 210.877 626.868 209.433 629.076 209.449ZM629.076 210.545C627.565 210.545 626.486 211.558 626.486 212.919C626.486 214.313 627.565 215.293 629.076 215.31C630.537 215.293 631.633 214.313 631.633 212.919C631.633 211.558 630.537 210.545 629.076 210.545ZM637.244 217.833V223.146H627.599V217.833H637.244ZM628.894 218.896V222.083H635.966V218.896H628.894ZM632.712 211.79C632.828 212.139 632.895 212.521 632.895 212.919C632.895 213.309 632.828 213.674 632.729 214.015H635.933V211.79H632.712ZM644.781 210.91C644.765 213.019 646.259 214.878 648.434 215.608L647.703 216.621C646.076 216.007 644.798 214.812 644.167 213.251C643.528 215.019 642.175 216.397 640.398 217.069L639.685 216.007C641.959 215.21 643.47 213.251 643.486 210.96V209.433H644.781V210.91ZM651.937 208.586V217.335H650.625V212.836H647.338V211.757H650.625V208.586H651.937ZM647.039 217.767C650.11 217.767 651.986 218.779 651.986 220.556C651.986 222.315 650.11 223.312 647.039 223.312C643.968 223.312 642.092 222.315 642.092 220.556C642.092 218.779 643.968 217.767 647.039 217.767ZM647.039 218.796C644.781 218.796 643.37 219.46 643.387 220.556C643.37 221.618 644.781 222.266 647.039 222.266C649.297 222.266 650.691 221.618 650.691 220.556C650.691 219.46 649.297 218.796 647.039 218.796ZM666.313 212.72V213.799H656.236V208.885H657.531V212.72H666.313ZM667.857 215.525V216.604H654.394V215.525H667.857ZM661.117 217.933C664.288 217.933 666.181 218.896 666.197 220.605C666.181 222.315 664.288 223.278 661.117 223.278C657.93 223.278 656.021 222.315 656.021 220.605C656.021 218.896 657.93 217.933 661.117 217.933ZM661.117 218.962C658.743 218.979 657.332 219.56 657.349 220.605C657.332 221.635 658.743 222.266 661.117 222.266C663.458 222.266 664.886 221.635 664.886 220.605C664.886 219.56 663.458 218.979 661.117 218.962ZM676.706 209.549C676.689 213.251 674.05 215.907 669.8 217.119L669.252 216.09C672.78 215.094 675.029 213.135 675.312 210.628H670.016V209.549H676.706ZM681.321 208.603V217.02H680.01V213.5H676.739V212.404H680.01V208.603H681.321ZM681.321 217.65V223.146H671.742V217.65H681.321ZM673.004 218.696V222.083H680.026V218.696H673.004ZM688.726 212.554C688.726 215.16 690.452 217.833 692.544 218.862L691.747 219.908C690.12 219.053 688.759 217.31 688.111 215.26C687.447 217.443 686.053 219.302 684.393 220.19L683.562 219.145C685.721 218.082 687.431 215.243 687.447 212.554V209.864H688.726V212.554ZM695.2 208.586V214.579H697.674V215.708H695.2V223.345H693.905V208.586H695.2ZM714.89 208.603V213.068H717.098V214.164H714.89V218.497H713.578V208.603H714.89ZM703.302 216.986C704.48 216.986 705.858 216.986 707.303 216.937V215.857C705.584 215.708 704.48 214.903 704.48 213.683C704.48 212.338 705.858 211.508 707.934 211.508C710.025 211.508 711.387 212.338 711.403 213.683C711.387 214.895 710.308 215.7 708.598 215.857V216.887C709.976 216.82 711.37 216.712 712.665 216.521L712.781 217.468C709.577 218.032 706.041 218.049 703.451 218.049L703.302 216.986ZM714.89 219.228V223.345H713.578V220.273H705.111V219.228H714.89ZM712.217 209.947V210.943H703.667V209.947H707.303V208.47H708.598V209.947H712.217ZM707.934 212.438C706.572 212.421 705.726 212.902 705.726 213.683C705.726 214.446 706.572 214.978 707.934 214.961C709.295 214.978 710.158 214.446 710.158 213.683C710.158 212.902 709.295 212.421 707.934 212.438ZM730.246 208.603V219.394H728.951V208.603H730.246ZM730.711 221.934V223.029H720.717V218.298H722.012V221.934H730.711ZM722.277 209.632C724.485 209.632 726.146 211.126 726.146 213.251C726.146 215.409 724.485 216.887 722.277 216.887C720.069 216.887 718.409 215.409 718.409 213.251C718.409 211.126 720.069 209.632 722.277 209.632ZM722.277 210.777C720.783 210.777 719.671 211.807 719.688 213.251C719.671 214.729 720.783 215.741 722.277 215.741C723.738 215.741 724.867 214.729 724.867 213.251C724.867 211.807 723.738 210.777 722.277 210.777ZM746.267 220.456V221.535H732.753V220.456H736.521V216.937H733.981V215.857H736.289V211.043H733.948V209.964H744.972V211.043H742.631V215.857H744.938V216.937H742.398V220.456H746.267ZM737.584 215.857H741.353V211.043H737.584V215.857ZM737.833 220.456H741.104V216.937H737.833V220.456ZM752.691 212.554C752.675 215.243 754.518 217.966 756.692 218.945L755.896 219.975C754.219 219.153 752.766 217.418 752.061 215.31C751.372 217.542 749.919 219.402 748.192 220.273L747.362 219.178C749.554 218.165 751.38 215.359 751.396 212.554V209.864H752.691V212.554ZM759.614 208.586V223.378H758.303V208.586H759.614ZM778.889 210.08V211.724C778.889 213.616 778.889 215.525 778.357 218.265L777.079 218.115C777.61 215.509 777.61 213.566 777.61 211.724V211.159H768.446V210.08H778.889ZM780.482 220.174V221.253H767.035V220.174H770.372V215.31H771.667V220.174H774.058V215.31H775.336V220.174H780.482ZM795.225 217.352V218.414H789.065V223.345H787.787V218.414H781.711V217.352H795.225ZM784.732 209.2V211.242H792.17V209.2H793.481V215.559H783.438V209.2H784.732ZM784.732 214.496H792.17V212.305H784.732V214.496Z" fill="#1D1D1D"/>
<path d="M1042.14 75.5859V83.1396H1040.83V81.5957H1036.89V80.5664H1040.83V78.79H1037.11C1036.18 81.1226 1033.89 82.6914 1030.62 83.4717L1030.15 82.3926C1033.77 81.5542 1035.88 79.7861 1036.13 77.4121H1030.9V76.333H1037.56C1037.56 76.8228 1037.51 77.2959 1037.43 77.7441H1040.83V75.5859H1042.14ZM1042.14 83.8037V87.4062H1033.91V89.1328H1042.64V90.2119H1032.61V86.4102H1040.83V84.8662H1032.58V83.8037H1042.14ZM1057.21 75.5859V90.3447H1055.97V75.5859H1057.21ZM1054.23 75.9512V89.5811H1053V81.9775H1050.51V80.915H1053V75.9512H1054.23ZM1048.93 79.8027C1048.93 82.3594 1050.08 84.8994 1052.12 86.0781L1051.32 87.041C1049.87 86.1694 1048.84 84.5757 1048.33 82.6914C1047.79 84.7251 1046.72 86.46 1045.25 87.3896L1044.42 86.4102C1046.47 85.1816 1047.67 82.4922 1047.67 79.8027V78.4082H1044.83V77.3291H1051.64V78.4082H1048.93V79.8027Z" fill="#1D1D1D"/>
<path d="M259 84C259 88.4183 262.582 92 267 92C271.418 92 275 88.4183 275 84C275 79.5817 271.418 76 267 76C262.582 76 259 79.5817 259 84ZM346 84L331 75.3397V92.6603L346 84ZM267 85.5H332.5V82.5H267V85.5Z" fill="#5286FF"/>
<path d="M553 84C553 88.4183 556.582 92 561 92C565.418 92 569 88.4183 569 84C569 79.5817 565.418 76 561 76C556.582 76 553 79.5817 553 84ZM640 84L625 75.3397V92.6603L640 84ZM561 85.5H626.5V82.5H561V85.5Z" fill="#5286FF"/>
<path d="M847 84C847 88.4183 850.582 92 855 92C859.418 92 863 88.4183 863 84C863 79.5817 859.418 76 855 76C850.582 76 847 79.5817 847 84ZM934 84L919 75.3397V92.6603L934 84ZM855 85.5H920.5V82.5H855V85.5Z" fill="#5286FF"/>
<path d="M159 163L150.34 178L167.66 178L159 163Z" fill="#5286FF"/>
<rect x="476.5" y="248.5" width="68" height="26" rx="11.5" fill="white" stroke="#5286FF"/>
<path d="M502.722 262.136V263.796H496.812V268.527H494.72V263.796H488.893V262.136H502.722ZM492.612 254.001V255.744H498.954V254.001H501.079V260.675H490.52V254.001H492.612ZM492.612 258.981H498.954V257.404H492.612V258.981ZM512.318 254.267V255.943H509.313C509.33 257.728 510.392 259.554 512.783 260.343L511.737 261.97C510.06 261.438 508.915 260.343 508.267 258.981C507.586 260.492 506.383 261.712 504.598 262.285L503.519 260.608C506.001 259.812 507.13 257.828 507.155 255.943H504.117V254.267H512.318ZM516.335 263.082V268.527H514.227V264.775H505.959V263.082H516.335ZM516.335 253.42V262.418H514.227V258.782H511.886V257.056H514.227V253.42H516.335ZM530.281 253.42V257.056H532.323V258.815H530.281V262.269H528.156V253.42H530.281ZM522.495 262.85V263.995H528.156V262.85H530.281V268.361H520.386V262.85H522.495ZM522.495 266.701H528.156V265.622H522.495V266.701ZM527.259 254.748V256.408H518.294V254.748H521.731V253.32H523.839V254.748H527.259ZM522.777 256.84C524.968 256.84 526.496 257.902 526.496 259.513C526.496 261.123 524.968 262.186 522.777 262.186C520.552 262.186 519.025 261.123 519.025 259.513C519.025 257.902 520.552 256.84 522.777 256.84ZM522.777 258.4C521.764 258.384 521.083 258.799 521.1 259.513C521.083 260.243 521.764 260.642 522.777 260.642C523.79 260.642 524.487 260.243 524.487 259.513C524.487 258.799 523.79 258.384 522.777 258.4Z" fill="#5286FF"/>
<rect x="393.5" y="203.5" width="51" height="26" rx="11.5" fill="white" stroke="#5286FF"/>
<path d="M414.106 209.267V210.943H411.101C411.118 212.728 412.18 214.554 414.571 215.343L413.525 216.97C411.848 216.438 410.702 215.343 410.055 213.981C409.374 215.492 408.171 216.712 406.386 217.285L405.307 215.608C407.789 214.812 408.918 212.828 408.943 210.943H405.905V209.267H414.106ZM418.123 218.082V223.527H416.015V219.775H407.747V218.082H418.123ZM418.123 208.42V217.418H416.015V213.782H413.674V212.056H416.015V208.42H418.123ZM432.069 208.42V212.056H434.111V213.815H432.069V217.269H429.944V208.42H432.069ZM424.283 217.85V218.995H429.944V217.85H432.069V223.361H422.174V217.85H424.283ZM424.283 221.701H429.944V220.622H424.283V221.701ZM429.047 209.748V211.408H420.082V209.748H423.519V208.32H425.627V209.748H429.047ZM424.565 211.84C426.756 211.84 428.284 212.902 428.284 214.513C428.284 216.123 426.756 217.186 424.565 217.186C422.34 217.186 420.813 216.123 420.813 214.513C420.813 212.902 422.34 211.84 424.565 211.84ZM424.565 213.4C423.552 213.384 422.871 213.799 422.888 214.513C422.871 215.243 423.552 215.642 424.565 215.642C425.577 215.642 426.275 215.243 426.275 214.513C426.275 213.799 425.577 213.384 424.565 213.4Z" fill="#5286FF"/>
<path d="M1044 166.5V239.5H159.5V177.5" stroke="#5286FF" stroke-width="3"/>
</svg>
