<svg width="1200" height="183" viewBox="0 0 1200 183" fill="none" xmlns="http://www.w3.org/2000/svg">
<rect width="1200" height="183" fill="white"/>
<rect x="57" y="39" width="224" height="83" rx="18" fill="#EDF1F5"/>
<rect x="383" y="39" width="430" height="83" rx="18" fill="#EDF1F5"/>
<rect x="916" y="40" width="222" height="81" rx="17" fill="#EDF1F5" stroke="#173E99" stroke-width="2"/>
<path d="M139.034 70.3398V71.4189H125.521V70.3398H131.563V66.7207H132.842V70.3398H139.034ZM132.875 60.7275C132.875 63.2012 135.797 65.3594 138.37 65.8076L137.789 66.8867C135.54 66.4302 133.166 64.9028 132.211 62.7695C131.24 64.8945 128.882 66.4302 126.633 66.8867L126.052 65.8076C128.625 65.3594 131.514 63.2012 131.514 60.7275V59.5986H132.875V60.7275ZM147.02 67.8662C150.058 67.8662 151.884 68.8623 151.884 70.5889C151.884 72.332 150.058 73.3281 147.02 73.3447C143.981 73.3281 142.122 72.332 142.122 70.5889C142.122 68.8623 143.981 67.8662 147.02 67.8662ZM147.02 68.8955C144.795 68.9121 143.417 69.5264 143.434 70.5889C143.417 71.6514 144.795 72.2822 147.02 72.2822C149.261 72.2822 150.622 71.6514 150.622 70.5889C150.622 69.5264 149.261 68.9121 147.02 68.8955ZM151.751 58.5859V62.3047H153.976V63.417H151.751V67.4678H150.456V58.5859H151.751ZM142.122 59.5156V61.7734H146.422V59.5156H147.717V66.3223H140.844V59.5156H142.122ZM142.122 65.2598H146.422V62.8027H142.122V65.2598ZM160.151 62.5537C160.135 65.2432 161.978 67.9658 164.152 68.9453L163.355 69.9746C161.679 69.1528 160.226 67.418 159.521 65.3096C158.832 67.5425 157.379 69.4019 155.652 70.2734L154.822 69.1777C157.014 68.165 158.84 65.3594 158.856 62.5537V59.8643H160.151V62.5537ZM167.074 58.5859V73.3779H165.763V58.5859H167.074ZM181.833 58.5859V66.2227H180.521V62.3877H177.234V61.3086H180.521V58.5859H181.833ZM181.833 66.9697V70.4893H173.582V72.0996H182.381V73.1455H172.304V69.4932H180.538V68.0156H172.271V66.9697H181.833ZM174.628 60.4619C174.611 62.4043 176.139 64.1641 178.297 64.8779L177.6 65.8906C175.964 65.3096 174.661 64.1475 174.014 62.6533C173.383 64.3384 172.046 65.625 170.295 66.2559L169.581 65.21C171.806 64.4795 173.333 62.6201 173.35 60.4619V59.0674H174.628V60.4619ZM190.964 67.916C194.135 67.916 196.144 68.9121 196.144 70.6221C196.144 72.3154 194.135 73.3115 190.964 73.3115C187.81 73.3115 185.801 72.3154 185.801 70.6221C185.801 68.9121 187.81 67.916 190.964 67.916ZM190.964 68.9121C188.606 68.9287 187.079 69.5762 187.096 70.6221C187.079 71.6514 188.606 72.2822 190.964 72.2822C193.321 72.2822 194.832 71.6514 194.849 70.6221C194.832 69.5762 193.321 68.9287 190.964 68.9121ZM196.027 59.3496V60.5947C196.027 61.79 196.027 62.9854 195.612 64.5127L194.334 64.3633C194.732 62.8359 194.732 61.7568 194.732 60.5947V60.4121H185.9V59.3496H196.027ZM197.737 65.4756V66.5381H184.307V65.4756H189.868V62.6201H191.146V65.4756H197.737ZM203.93 62.5537C203.93 65.1602 205.656 67.833 207.748 68.8623L206.951 69.9082C205.324 69.0532 203.963 67.3101 203.315 65.2598C202.651 67.4429 201.257 69.3022 199.597 70.1904L198.767 69.1445C200.925 68.082 202.635 65.2432 202.651 62.5537V59.8643H203.93V62.5537ZM210.404 58.5859V64.5791H212.878V65.708H210.404V73.3447H209.109V58.5859H210.404ZM125.653 87.8066C125.653 89.6328 127.147 91.3262 129.322 91.9736L128.691 93.0029C126.998 92.4717 125.678 91.3345 125.039 89.8818C124.392 91.4839 123.03 92.7041 121.304 93.2852L120.64 92.2559C122.848 91.5752 124.375 89.7988 124.375 87.8066V87.4746H121.038V86.4287H124.375V84.5361H125.687V86.4287H128.99V87.4746H125.653V87.8066ZM132.161 84.5859V88.5371H134.386V89.6494H132.161V93.6006H130.866V84.5859H132.161ZM132.161 94.3643V99.3779H130.866V95.4434H122.499V94.3643H132.161ZM141.989 93.916C145.16 93.916 147.169 94.9121 147.169 96.6221C147.169 98.3154 145.16 99.3115 141.989 99.3115C138.835 99.3115 136.826 98.3154 136.826 96.6221C136.826 94.9121 138.835 93.916 141.989 93.916ZM141.989 94.9121C139.632 94.9287 138.104 95.5762 138.121 96.6221C138.104 97.6514 139.632 98.2822 141.989 98.2822C144.347 98.2822 145.857 97.6514 145.874 96.6221C145.857 95.5762 144.347 94.9287 141.989 94.9121ZM147.053 85.3496V86.5947C147.053 87.79 147.053 88.9854 146.638 90.5127L145.359 90.3633C145.758 88.8359 145.758 87.7568 145.758 86.5947V86.4121H136.926V85.3496H147.053ZM148.763 91.4756V92.5381H135.332V91.4756H140.894V88.6201H142.172V91.4756H148.763ZM150.373 92.3223C150.39 89.1846 151.236 86.5781 152.764 84.3535H154.025C152.896 85.9971 151.851 89.3672 151.851 92.3223C151.851 95.2773 152.896 98.6309 154.025 100.274H152.764C151.236 98.0664 150.39 95.46 150.373 92.3223ZM167.141 84.6025V95.5264H165.829V91.5586H162.343V93.0029H155.652V85.582H156.947V88.2051H161.064V85.582H162.343V87.3086H165.829V84.6025H167.141ZM167.473 97.9336V99.0293H157.595V94.4473H158.906V97.9336H167.473ZM156.947 91.9238H161.064V89.2344H156.947V91.9238ZM162.343 90.4795H165.829V88.4043H162.343V90.4795ZM181.833 84.6025V93.4678H180.521V91.4756H176.604V90.3965H180.521V88.4043H176.753C175.782 90.7783 173.499 92.4966 170.345 93.4346L169.797 92.4053C173.366 91.3428 175.583 89.3506 175.856 86.7939H170.544V85.6982H177.268C177.268 86.2793 177.201 86.8354 177.085 87.3584H180.521V84.6025H181.833ZM177.002 93.6172C179.99 93.6172 181.916 94.6797 181.916 96.4395C181.916 98.2158 179.99 99.2783 177.002 99.2783C173.98 99.2783 172.071 98.2158 172.071 96.4395C172.071 94.6797 173.98 93.6172 177.002 93.6172ZM177.002 94.6631C174.777 94.6465 173.35 95.3271 173.35 96.4395C173.35 97.5518 174.777 98.2158 177.002 98.2158C179.193 98.2158 180.604 97.5518 180.621 96.4395C180.604 95.3271 179.193 94.6465 177.002 94.6631ZM187.627 92.3223C187.61 95.46 186.764 98.0664 185.236 100.274H183.975C185.104 98.6309 186.149 95.2773 186.149 92.3223C186.149 89.3672 185.104 85.9971 183.975 84.3535H185.236C186.764 86.5781 187.61 89.1846 187.627 92.3223ZM201.373 84.6025V95.4268H200.078V84.6025H201.373ZM201.838 97.9336V99.0293H191.844V94.4307H193.139V97.9336H201.838ZM194.417 86.9102C194.4 89.1514 195.944 91.1768 198.136 91.9736L197.455 93.0195C195.745 92.3638 194.417 91.0356 193.77 89.334C193.114 91.1436 191.769 92.5962 190.051 93.2852L189.337 92.2725C191.578 91.4092 193.089 89.2344 193.089 86.9102V85.4326H194.417V86.9102ZM215.717 86.0801V87.5576C215.7 89.3672 215.7 91.3926 215.169 94.3643L213.841 94.2148C214.405 91.3926 214.405 89.3174 214.405 87.5576V87.1592H205.308V86.0801H215.717ZM217.327 96.1738V97.2529H203.88V96.1738H209.159V90.8945H210.438V96.1738H217.327Z" fill="#1D1D1D"/>
<path d="M486.124 71.5859V79.6045H484.829V76.2676H481.841V75.1719H484.829V71.5859H486.124ZM477.939 80.3184V82.1611H484.829V80.3184H486.124V86.1455H476.628V80.3184H477.939ZM477.939 85.083H484.829V83.207H477.939V85.083ZM479.035 73.9932C479.035 75.8857 480.513 77.7451 482.671 78.4922L481.99 79.5049C480.322 78.8989 479.035 77.6621 478.404 76.1348C477.765 77.8447 476.404 79.2144 474.652 79.8535L473.972 78.8242C476.146 78.0439 477.724 76.085 477.724 73.9932V73.5615H474.387V72.4824H482.339V73.5615H479.035V73.9932ZM496.002 72.9639C496.002 75.0391 498.725 76.8486 501.381 77.2139L500.85 78.2764C498.559 77.8945 496.292 76.6245 495.338 74.8066C494.392 76.6328 492.117 77.8945 489.826 78.2764L489.295 77.2139C491.951 76.8486 494.657 75.0723 494.657 72.9639V72.1172H496.002V72.9639ZM502.045 79.9033V80.999H495.936V86.3447H494.657V80.999H488.598V79.9033H502.045Z" fill="#1D1D1D"/>
<path d="M594.525 72.5488C594.509 76.251 591.869 78.9072 587.619 80.1191L587.071 79.0898C590.599 78.0938 592.849 76.1348 593.131 73.6279H587.835V72.5488H594.525ZM599.141 71.6025V80.0195H597.829V76.5H594.559V75.4043H597.829V71.6025H599.141ZM599.141 80.6504V86.1455H589.562V80.6504H599.141ZM590.823 81.6963V85.083H597.846V81.6963H590.823ZM613.551 79.2725V80.335H608.969V83.4229H615.111V84.502H601.598V83.4229H607.674V80.335H603.341V72.7979H613.385V73.877H604.669V75.9854H613.069V77.0479H604.669V79.2725H613.551Z" fill="#1D1D1D"/>
<path d="M713.353 79.4219V80.4844H699.889V79.4219H705.965V77.9609H701.682V72.0176H711.676V73.0801H702.993V74.458H711.277V75.4541H702.993V76.915H711.759V77.9609H707.26V79.4219H713.353ZM706.629 81.5967C709.866 81.5801 711.692 82.4102 711.709 83.9541C711.692 85.498 709.866 86.3115 706.629 86.3115C703.358 86.3115 701.532 85.498 701.532 83.9541C701.532 82.4102 703.358 81.5801 706.629 81.5967ZM706.629 82.5762C704.188 82.5762 702.827 83.0742 702.844 83.9541C702.827 84.8506 704.188 85.3154 706.629 85.2988C709.036 85.3154 710.397 84.8506 710.397 83.9541C710.397 83.0742 709.036 82.5762 706.629 82.5762ZM728.111 83.373V84.4521H714.598V83.373H720.674V80.1855H716.191V72.6318H717.503V75.3047H725.173V72.6318H726.451V80.1855H721.952V83.373H728.111ZM717.503 79.123H725.173V76.3672H717.503V79.123Z" fill="#1D1D1D"/>
<path d="M997.534 82.3398V83.4189H984.021V82.3398H990.063V78.7207H991.342V82.3398H997.534ZM991.375 72.7275C991.375 75.2012 994.297 77.3594 996.87 77.8076L996.289 78.8867C994.04 78.4302 991.666 76.9028 990.711 74.7695C989.74 76.8945 987.382 78.4302 985.133 78.8867L984.552 77.8076C987.125 77.3594 990.014 75.2012 990.014 72.7275V71.5986H991.375V72.7275ZM1005.52 79.8662C1008.56 79.8662 1010.38 80.8623 1010.38 82.5889C1010.38 84.332 1008.56 85.3281 1005.52 85.3447C1002.48 85.3281 1000.62 84.332 1000.62 82.5889C1000.62 80.8623 1002.48 79.8662 1005.52 79.8662ZM1005.52 80.8955C1003.29 80.9121 1001.92 81.5264 1001.93 82.5889C1001.92 83.6514 1003.29 84.2822 1005.52 84.2822C1007.76 84.2822 1009.12 83.6514 1009.12 82.5889C1009.12 81.5264 1007.76 80.9121 1005.52 80.8955ZM1010.25 70.5859V74.3047H1012.48V75.417H1010.25V79.4678H1008.96V70.5859H1010.25ZM1000.62 71.5156V73.7734H1004.92V71.5156H1006.22V78.3223H999.344V71.5156H1000.62ZM1000.62 77.2598H1004.92V74.8027H1000.62V77.2598ZM1018.65 74.5537C1018.63 77.2432 1020.48 79.9658 1022.65 80.9453L1021.86 81.9746C1020.18 81.1528 1018.73 79.418 1018.02 77.3096C1017.33 79.5425 1015.88 81.4019 1014.15 82.2734L1013.32 81.1777C1015.51 80.165 1017.34 77.3594 1017.36 74.5537V71.8643H1018.65V74.5537ZM1025.57 70.5859V85.3779H1024.26V70.5859H1025.57ZM1040.33 70.5859V78.2227H1039.02V74.3877H1035.73V73.3086H1039.02V70.5859H1040.33ZM1040.33 78.9697V82.4893H1032.08V84.0996H1040.88V85.1455H1030.8V81.4932H1039.04V80.0156H1030.77V78.9697H1040.33ZM1033.13 72.4619C1033.11 74.4043 1034.64 76.1641 1036.8 76.8779L1036.1 77.8906C1034.46 77.3096 1033.16 76.1475 1032.51 74.6533C1031.88 76.3384 1030.55 77.625 1028.79 78.2559L1028.08 77.21C1030.31 76.4795 1031.83 74.6201 1031.85 72.4619V71.0674H1033.13V72.4619ZM1049.46 79.916C1052.63 79.916 1054.64 80.9121 1054.64 82.6221C1054.64 84.3154 1052.63 85.3115 1049.46 85.3115C1046.31 85.3115 1044.3 84.3154 1044.3 82.6221C1044.3 80.9121 1046.31 79.916 1049.46 79.916ZM1049.46 80.9121C1047.11 80.9287 1045.58 81.5762 1045.6 82.6221C1045.58 83.6514 1047.11 84.2822 1049.46 84.2822C1051.82 84.2822 1053.33 83.6514 1053.35 82.6221C1053.33 81.5762 1051.82 80.9287 1049.46 80.9121ZM1054.53 71.3496V72.5947C1054.53 73.79 1054.53 74.9854 1054.11 76.5127L1052.83 76.3633C1053.23 74.8359 1053.23 73.7568 1053.23 72.5947V72.4121H1044.4V71.3496H1054.53ZM1056.24 77.4756V78.5381H1042.81V77.4756H1048.37V74.6201H1049.65V77.4756H1056.24ZM1062.43 74.5537C1062.43 77.1602 1064.16 79.833 1066.25 80.8623L1065.45 81.9082C1063.82 81.0532 1062.46 79.3101 1061.82 77.2598C1061.15 79.4429 1059.76 81.3022 1058.1 82.1904L1057.27 81.1445C1059.42 80.082 1061.13 77.2432 1061.15 74.5537V71.8643H1062.43V74.5537ZM1068.9 70.5859V76.5791H1071.38V77.708H1068.9V85.3447H1067.61V70.5859H1068.9Z" fill="#1D1D1D"/>
<path d="M273 80C273 84.4183 276.582 88 281 88C285.418 88 289 84.4183 289 80C289 75.5817 285.418 72 281 72C276.582 72 273 75.5817 273 80ZM387 80L372 71.3397V88.6603L387 80ZM281 81.5H373.5V78.5H281V81.5Z" fill="#5286FF"/>
<path d="M551 79L536 70.3397V87.6603L551 79Z" fill="#5286FF"/>
<path d="M664 79L649 70.3397V87.6603L664 79Z" fill="#5286FF"/>
<path d="M805 81C805 85.4183 808.582 89 813 89C817.418 89 821 85.4183 821 81C821 76.5817 817.418 73 813 73C808.582 73 805 76.5817 805 81ZM919 81L904 72.3397V89.6603L919 81ZM813 82.5H905.5V79.5H813V82.5Z" fill="#5286FF"/>
<rect x="837.5" y="69.5" width="53" height="26" rx="11.5" fill="white" stroke="#5286FF"/>
<path d="M859.13 75.2666V76.9434H856.125C856.142 78.728 857.204 80.5542 859.595 81.3428L858.549 82.9697C856.872 82.4385 855.727 81.3428 855.079 79.9814C854.399 81.4922 853.195 82.7124 851.411 83.2852L850.331 81.6084C852.813 80.8115 853.942 78.8276 853.967 76.9434H850.929V75.2666H859.13ZM863.148 84.082V89.5273H861.039V85.7754H852.772V84.082H863.148ZM863.148 74.4199V83.418H861.039V79.7822H858.699V78.0557H861.039V74.4199H863.148ZM877.093 74.4199V78.0557H879.135V79.8154H877.093V83.2686H874.968V74.4199H877.093ZM869.307 83.8496V84.9951H874.968V83.8496H877.093V89.3613H867.199V83.8496H869.307ZM869.307 87.7012H874.968V86.6221H869.307V87.7012ZM874.072 75.748V77.4082H865.107V75.748H868.543V74.3203H870.652V75.748H874.072ZM869.589 77.8398C871.781 77.8398 873.308 78.9023 873.308 80.5127C873.308 82.123 871.781 83.1855 869.589 83.1855C867.365 83.1855 865.837 82.123 865.837 80.5127C865.837 78.9023 867.365 77.8398 869.589 77.8398ZM869.589 79.4004C868.577 79.3838 867.896 79.7988 867.912 80.5127C867.896 81.2432 868.577 81.6416 869.589 81.6416C870.602 81.6416 871.299 81.2432 871.299 80.5127C871.299 79.7988 870.602 79.3838 869.589 79.4004Z" fill="#5286FF"/>
<path d="M150.061 131.632V138.92H142.673V131.632H150.061ZM144.765 133.309V137.243H147.953V133.309H144.765ZM154.56 130.437V141.178H152.435V130.437H154.56ZM154.958 143.485V145.195H144.433V140.182H146.575V143.485H154.958ZM169.402 130.437V141.842H167.277V140.646H164.388V139.202H167.277V130.437H169.402ZM169.734 143.568V145.262H158.478V140.746H160.586V138.737C159.233 138.795 157.947 138.804 156.801 138.804L156.552 137.127C159.325 137.11 163.06 137.077 166.248 136.679L166.364 138.189C165.168 138.389 163.932 138.53 162.711 138.621V141.493H160.586V143.568H169.734ZM161.466 130.951C163.658 130.935 165.235 132.047 165.235 133.657C165.235 135.268 163.658 136.313 161.466 136.313C159.225 136.313 157.665 135.268 157.665 133.657C157.665 132.047 159.208 130.935 161.466 130.951ZM161.466 132.495C160.387 132.495 159.657 132.91 159.673 133.657C159.657 134.388 160.387 134.786 161.466 134.786C162.479 134.786 163.209 134.388 163.226 133.657C163.209 132.91 162.479 132.495 161.466 132.495ZM183.945 130.437V141.294H181.82V130.437H183.945ZM184.343 143.568V145.262H173.818V140.198H175.959V143.568H184.343ZM175.661 131.399C177.985 131.399 179.794 132.993 179.794 135.201C179.794 137.459 177.985 139.036 175.661 139.036C173.336 139.036 171.527 137.459 171.527 135.201C171.527 132.993 173.336 131.399 175.661 131.399ZM175.661 133.242C174.482 133.226 173.585 133.973 173.602 135.201C173.585 136.463 174.482 137.193 175.661 137.193C176.806 137.193 177.703 136.463 177.703 135.201C177.703 133.973 176.806 133.226 175.661 133.242Z" fill="#173E99"/>
<path d="M593.739 142.024V143.718H579.91V142.024H585.687V138.604H587.795V142.024H593.739ZM587.862 132.362C587.862 134.521 589.804 136.795 593.257 137.326L592.361 139.086C589.705 138.604 587.729 137.185 586.733 135.301C585.737 137.177 583.778 138.613 581.138 139.086L580.242 137.326C583.662 136.795 585.587 134.504 585.604 132.362V131.283H587.862V132.362ZM601.641 139.667C604.779 139.667 606.738 140.746 606.738 142.589C606.738 144.465 604.779 145.544 601.641 145.544C598.437 145.544 596.461 144.465 596.461 142.589C596.461 140.746 598.437 139.667 601.641 139.667ZM601.641 141.311C599.649 141.311 598.57 141.726 598.586 142.589C598.57 143.452 599.649 143.9 601.641 143.9C603.6 143.9 604.646 143.452 604.646 142.589C604.646 141.726 603.6 141.311 601.641 141.311ZM606.588 130.42V133.923H608.63V135.699H606.588V139.335H604.463V130.42H606.588ZM597.159 131.366V133.275H600.247V131.366H602.372V138.472H595.05V131.366H597.159ZM597.159 136.795H600.247V134.919H597.159V136.795ZM615.005 133.84C615.005 136.679 616.151 139.435 618.674 140.53L617.379 142.224C615.703 141.402 614.582 139.899 613.959 138.04C613.295 140.016 612.133 141.634 610.407 142.489L609.079 140.763C611.668 139.601 612.847 136.679 612.864 133.84V131.582H615.005V133.84ZM622.044 130.42V145.561H619.953V136.878H616.981V135.168H619.953V130.42H622.044Z" fill="#173E99"/>
</svg>
