<svg width="1200" height="183" viewBox="0 0 1200 183" fill="none" xmlns="http://www.w3.org/2000/svg">
<rect width="1200" height="183" fill="white"/>
<rect x="57" y="39" width="224" height="83" rx="18" fill="#EDF1F5"/>
<rect x="383" y="39" width="430" height="83" rx="18" fill="#EDF1F5"/>
<rect x="916" y="40" width="222" height="81" rx="17" fill="#EDF1F5" stroke="#173E99" stroke-width="2"/>
<path d="M129.239 70.3398V71.4189H115.726V70.3398H121.769V66.7207H123.047V70.3398H129.239ZM123.08 60.7275C123.08 63.2012 126.002 65.3594 128.575 65.8076L127.994 66.8867C125.745 66.4302 123.371 64.9028 122.416 62.7695C121.445 64.8945 119.087 66.4302 116.838 66.8867L116.257 65.8076C118.83 65.3594 121.719 63.2012 121.719 60.7275V59.5986H123.08V60.7275ZM137.225 67.8662C140.263 67.8662 142.089 68.8623 142.089 70.5889C142.089 72.332 140.263 73.3281 137.225 73.3447C134.187 73.3281 132.327 72.332 132.327 70.5889C132.327 68.8623 134.187 67.8662 137.225 67.8662ZM137.225 68.8955C135 68.9121 133.622 69.5264 133.639 70.5889C133.622 71.6514 135 72.2822 137.225 72.2822C139.466 72.2822 140.827 71.6514 140.827 70.5889C140.827 69.5264 139.466 68.9121 137.225 68.8955ZM141.956 58.5859V62.3047H144.181V63.417H141.956V67.4678H140.661V58.5859H141.956ZM132.327 59.5156V61.7734H136.627V59.5156H137.922V66.3223H131.049V59.5156H132.327ZM132.327 65.2598H136.627V62.8027H132.327V65.2598ZM151.784 67.916C154.955 67.916 156.964 68.9121 156.964 70.6221C156.964 72.3154 154.955 73.3115 151.784 73.3115C148.63 73.3115 146.621 72.3154 146.621 70.6221C146.621 68.9121 148.63 67.916 151.784 67.916ZM151.784 68.9121C149.427 68.9287 147.899 69.5762 147.916 70.6221C147.899 71.6514 149.427 72.2822 151.784 72.2822C154.142 72.2822 155.652 71.6514 155.669 70.6221C155.652 69.5762 154.142 68.9287 151.784 68.9121ZM156.848 59.3496V60.5947C156.848 61.79 156.848 62.9854 156.433 64.5127L155.154 64.3633C155.553 62.8359 155.553 61.7568 155.553 60.5947V60.4121H146.721V59.3496H156.848ZM158.558 65.4756V66.5381H145.127V65.4756H150.688V62.6201H151.967V65.4756H158.558ZM164.75 62.5537C164.75 65.1602 166.477 67.833 168.568 68.8623L167.771 69.9082C166.145 69.0532 164.783 67.3101 164.136 65.2598C163.472 67.4429 162.077 69.3022 160.417 70.1904L159.587 69.1445C161.745 68.082 163.455 65.2432 163.472 62.5537V59.8643H164.75V62.5537ZM171.225 58.5859V64.5791H173.698V65.708H171.225V73.3447H169.93V58.5859H171.225ZM190.931 58.5859V62.2051H193.155V63.2842H190.931V66.9697H189.636V58.5859H190.931ZM186.896 59.5488C186.88 63.2676 184.273 65.9238 179.907 67.1191L179.376 66.0732C183.012 65.0938 185.228 63.1265 185.502 60.6279H180.04V59.5488H186.896ZM190.931 67.6504V73.1455H181.584V67.6504H190.931ZM182.879 68.7295V72.083H189.636V68.7295H182.879ZM206.271 58.5859V73.3779H204.976V58.5859H206.271ZM201.788 59.9639V65.21H196.276V68.6963C198.725 68.6963 200.908 68.5884 203.548 68.165L203.681 69.2607C200.958 69.6924 198.717 69.792 196.177 69.792H194.948V64.1475H200.477V61.043H194.915V59.9639H201.788ZM213.774 63.1182C213.758 65.4922 215.468 68.0986 217.609 69.1113L216.862 70.1406C215.202 69.3354 213.799 67.5757 213.144 65.5752C212.463 67.75 210.977 69.6592 209.325 70.5059L208.528 69.4766C210.653 68.4473 212.479 65.6416 212.496 63.1182V61.1924H209.06V60.1133H217.095V61.1924H213.774V63.1182ZM220.199 58.5859V64.5625H222.673V65.6748H220.199V73.3447H218.904V58.5859H220.199ZM145.492 89.1182C145.492 91.625 147.318 94.165 149.493 95.1113L148.763 96.1406C147.036 95.3521 145.542 93.6504 144.861 91.6084C144.164 93.7749 142.678 95.6592 140.993 96.5059L140.213 95.4766C142.321 94.4639 144.164 91.6748 144.181 89.1182V87.1924H140.694V86.1133H149.012V87.1924H145.492V89.1182ZM152.382 84.5859V99.3447H151.07V84.5859H152.382ZM167.141 84.5859V93.3848H165.829V89.5166H162.857V88.4375H165.829V84.5859H167.141ZM162.243 93.8496C165.314 93.8496 167.19 94.8457 167.19 96.5889C167.19 98.332 165.314 99.3281 162.243 99.3447C159.172 99.3281 157.296 98.332 157.296 96.5889C157.296 94.8457 159.172 93.8496 162.243 93.8496ZM162.243 94.8623C159.985 94.8623 158.574 95.5098 158.591 96.5889C158.574 97.6514 159.985 98.2988 162.243 98.2988C164.501 98.2988 165.896 97.6514 165.896 96.5889C165.896 95.5098 164.501 94.8623 162.243 94.8623ZM160.035 87.292C160.035 89.2178 161.513 91.0439 163.671 91.791L162.99 92.8369C161.33 92.2393 160.043 91.0024 159.421 89.4668C158.773 91.2017 157.404 92.5879 155.652 93.252L154.972 92.2061C157.163 91.4092 158.724 89.417 158.724 87.3086V86.7607H155.387V85.665H163.339V86.7607H160.035V87.292ZM181.783 84.6025V95.4268H180.488V84.6025H181.783ZM182.248 97.9336V99.0293H172.254V94.4307H173.549V97.9336H182.248ZM174.827 86.9102C174.811 89.1514 176.354 91.1768 178.546 91.9736L177.865 93.0195C176.155 92.3638 174.827 91.0356 174.18 89.334C173.524 91.1436 172.179 92.5962 170.461 93.2852L169.747 92.2725C171.988 91.4092 173.499 89.2344 173.499 86.9102V85.4326H174.827V86.9102ZM196.127 86.0801V87.5576C196.11 89.3672 196.11 91.3926 195.579 94.3643L194.251 94.2148C194.815 91.3926 194.815 89.3174 194.815 87.5576V87.1592H185.718V86.0801H196.127ZM197.737 96.1738V97.2529H184.29V96.1738H189.569V90.8945H190.848V96.1738H197.737Z" fill="#1D1D1D"/>
<path d="M486.124 71.5859V79.6045H484.829V76.2676H481.841V75.1719H484.829V71.5859H486.124ZM477.939 80.3184V82.1611H484.829V80.3184H486.124V86.1455H476.628V80.3184H477.939ZM477.939 85.083H484.829V83.207H477.939V85.083ZM479.035 73.9932C479.035 75.8857 480.513 77.7451 482.671 78.4922L481.99 79.5049C480.322 78.8989 479.035 77.6621 478.404 76.1348C477.765 77.8447 476.404 79.2144 474.652 79.8535L473.972 78.8242C476.146 78.0439 477.724 76.085 477.724 73.9932V73.5615H474.387V72.4824H482.339V73.5615H479.035V73.9932ZM496.002 72.9639C496.002 75.0391 498.725 76.8486 501.381 77.2139L500.85 78.2764C498.559 77.8945 496.292 76.6245 495.338 74.8066C494.392 76.6328 492.117 77.8945 489.826 78.2764L489.295 77.2139C491.951 76.8486 494.657 75.0723 494.657 72.9639V72.1172H496.002V72.9639ZM502.045 79.9033V80.999H495.936V86.3447H494.657V80.999H488.598V79.9033H502.045Z" fill="#1D1D1D"/>
<path d="M594.525 72.5488C594.509 76.251 591.869 78.9072 587.619 80.1191L587.071 79.0898C590.599 78.0938 592.849 76.1348 593.131 73.6279H587.835V72.5488H594.525ZM599.141 71.6025V80.0195H597.829V76.5H594.559V75.4043H597.829V71.6025H599.141ZM599.141 80.6504V86.1455H589.562V80.6504H599.141ZM590.823 81.6963V85.083H597.846V81.6963H590.823ZM613.551 79.2725V80.335H608.969V83.4229H615.111V84.502H601.598V83.4229H607.674V80.335H603.341V72.7979H613.385V73.877H604.669V75.9854H613.069V77.0479H604.669V79.2725H613.551Z" fill="#1D1D1D"/>
<path d="M713.353 79.4219V80.4844H699.889V79.4219H705.965V77.9609H701.682V72.0176H711.676V73.0801H702.993V74.458H711.277V75.4541H702.993V76.915H711.759V77.9609H707.26V79.4219H713.353ZM706.629 81.5967C709.866 81.5801 711.692 82.4102 711.709 83.9541C711.692 85.498 709.866 86.3115 706.629 86.3115C703.358 86.3115 701.532 85.498 701.532 83.9541C701.532 82.4102 703.358 81.5801 706.629 81.5967ZM706.629 82.5762C704.188 82.5762 702.827 83.0742 702.844 83.9541C702.827 84.8506 704.188 85.3154 706.629 85.2988C709.036 85.3154 710.397 84.8506 710.397 83.9541C710.397 83.0742 709.036 82.5762 706.629 82.5762ZM728.111 83.373V84.4521H714.598V83.373H720.674V80.1855H716.191V72.6318H717.503V75.3047H725.173V72.6318H726.451V80.1855H721.952V83.373H728.111ZM717.503 79.123H725.173V76.3672H717.503V79.123Z" fill="#1D1D1D"/>
<path d="M997.534 82.3398V83.4189H984.021V82.3398H990.063V78.7207H991.342V82.3398H997.534ZM991.375 72.7275C991.375 75.2012 994.297 77.3594 996.87 77.8076L996.289 78.8867C994.04 78.4302 991.666 76.9028 990.711 74.7695C989.74 76.8945 987.382 78.4302 985.133 78.8867L984.552 77.8076C987.125 77.3594 990.014 75.2012 990.014 72.7275V71.5986H991.375V72.7275ZM1005.52 79.8662C1008.56 79.8662 1010.38 80.8623 1010.38 82.5889C1010.38 84.332 1008.56 85.3281 1005.52 85.3447C1002.48 85.3281 1000.62 84.332 1000.62 82.5889C1000.62 80.8623 1002.48 79.8662 1005.52 79.8662ZM1005.52 80.8955C1003.29 80.9121 1001.92 81.5264 1001.93 82.5889C1001.92 83.6514 1003.29 84.2822 1005.52 84.2822C1007.76 84.2822 1009.12 83.6514 1009.12 82.5889C1009.12 81.5264 1007.76 80.9121 1005.52 80.8955ZM1010.25 70.5859V74.3047H1012.48V75.417H1010.25V79.4678H1008.96V70.5859H1010.25ZM1000.62 71.5156V73.7734H1004.92V71.5156H1006.22V78.3223H999.344V71.5156H1000.62ZM1000.62 77.2598H1004.92V74.8027H1000.62V77.2598ZM1018.65 74.5537C1018.63 77.2432 1020.48 79.9658 1022.65 80.9453L1021.86 81.9746C1020.18 81.1528 1018.73 79.418 1018.02 77.3096C1017.33 79.5425 1015.88 81.4019 1014.15 82.2734L1013.32 81.1777C1015.51 80.165 1017.34 77.3594 1017.36 74.5537V71.8643H1018.65V74.5537ZM1025.57 70.5859V85.3779H1024.26V70.5859H1025.57ZM1040.33 70.5859V78.2227H1039.02V74.3877H1035.73V73.3086H1039.02V70.5859H1040.33ZM1040.33 78.9697V82.4893H1032.08V84.0996H1040.88V85.1455H1030.8V81.4932H1039.04V80.0156H1030.77V78.9697H1040.33ZM1033.13 72.4619C1033.11 74.4043 1034.64 76.1641 1036.8 76.8779L1036.1 77.8906C1034.46 77.3096 1033.16 76.1475 1032.51 74.6533C1031.88 76.3384 1030.55 77.625 1028.79 78.2559L1028.08 77.21C1030.31 76.4795 1031.83 74.6201 1031.85 72.4619V71.0674H1033.13V72.4619ZM1049.46 79.916C1052.63 79.916 1054.64 80.9121 1054.64 82.6221C1054.64 84.3154 1052.63 85.3115 1049.46 85.3115C1046.31 85.3115 1044.3 84.3154 1044.3 82.6221C1044.3 80.9121 1046.31 79.916 1049.46 79.916ZM1049.46 80.9121C1047.11 80.9287 1045.58 81.5762 1045.6 82.6221C1045.58 83.6514 1047.11 84.2822 1049.46 84.2822C1051.82 84.2822 1053.33 83.6514 1053.35 82.6221C1053.33 81.5762 1051.82 80.9287 1049.46 80.9121ZM1054.53 71.3496V72.5947C1054.53 73.79 1054.53 74.9854 1054.11 76.5127L1052.83 76.3633C1053.23 74.8359 1053.23 73.7568 1053.23 72.5947V72.4121H1044.4V71.3496H1054.53ZM1056.24 77.4756V78.5381H1042.81V77.4756H1048.37V74.6201H1049.65V77.4756H1056.24ZM1062.43 74.5537C1062.43 77.1602 1064.16 79.833 1066.25 80.8623L1065.45 81.9082C1063.82 81.0532 1062.46 79.3101 1061.82 77.2598C1061.15 79.4429 1059.76 81.3022 1058.1 82.1904L1057.27 81.1445C1059.42 80.082 1061.13 77.2432 1061.15 74.5537V71.8643H1062.43V74.5537ZM1068.9 70.5859V76.5791H1071.38V77.708H1068.9V85.3447H1067.61V70.5859H1068.9Z" fill="#1D1D1D"/>
<path d="M273 80C273 84.4183 276.582 88 281 88C285.418 88 289 84.4183 289 80C289 75.5817 285.418 72 281 72C276.582 72 273 75.5817 273 80ZM387 80L372 71.3397V88.6603L387 80ZM281 81.5H373.5V78.5H281V81.5Z" fill="#5286FF"/>
<path d="M551 79L536 70.3397V87.6603L551 79Z" fill="#5286FF"/>
<path d="M664 79L649 70.3397V87.6603L664 79Z" fill="#5286FF"/>
<path d="M805 81C805 85.4183 808.582 89 813 89C817.418 89 821 85.4183 821 81C821 76.5817 817.418 73 813 73C808.582 73 805 76.5817 805 81ZM919 81L904 72.3397V89.6603L919 81ZM813 82.5H905.5V79.5H813V82.5Z" fill="#5286FF"/>
<rect x="837.5" y="69.5" width="53" height="26" rx="11.5" fill="white" stroke="#5286FF"/>
<path d="M859.13 75.2666V76.9434H856.125C856.142 78.728 857.204 80.5542 859.595 81.3428L858.549 82.9697C856.872 82.4385 855.727 81.3428 855.079 79.9814C854.399 81.4922 853.195 82.7124 851.411 83.2852L850.331 81.6084C852.813 80.8115 853.942 78.8276 853.967 76.9434H850.929V75.2666H859.13ZM863.148 84.082V89.5273H861.039V85.7754H852.772V84.082H863.148ZM863.148 74.4199V83.418H861.039V79.7822H858.699V78.0557H861.039V74.4199H863.148ZM877.093 74.4199V78.0557H879.135V79.8154H877.093V83.2686H874.968V74.4199H877.093ZM869.307 83.8496V84.9951H874.968V83.8496H877.093V89.3613H867.199V83.8496H869.307ZM869.307 87.7012H874.968V86.6221H869.307V87.7012ZM874.072 75.748V77.4082H865.107V75.748H868.543V74.3203H870.652V75.748H874.072ZM869.589 77.8398C871.781 77.8398 873.308 78.9023 873.308 80.5127C873.308 82.123 871.781 83.1855 869.589 83.1855C867.365 83.1855 865.837 82.123 865.837 80.5127C865.837 78.9023 867.365 77.8398 869.589 77.8398ZM869.589 79.4004C868.577 79.3838 867.896 79.7988 867.912 80.5127C867.896 81.2432 868.577 81.6416 869.589 81.6416C870.602 81.6416 871.299 81.2432 871.299 80.5127C871.299 79.7988 870.602 79.3838 869.589 79.4004Z" fill="#5286FF"/>
<path d="M150.061 131.632V138.92H142.673V131.632H150.061ZM144.765 133.309V137.243H147.953V133.309H144.765ZM154.56 130.437V141.178H152.435V130.437H154.56ZM154.958 143.485V145.195H144.433V140.182H146.575V143.485H154.958ZM169.402 130.437V141.842H167.277V140.646H164.388V139.202H167.277V130.437H169.402ZM169.734 143.568V145.262H158.478V140.746H160.586V138.737C159.233 138.795 157.947 138.804 156.801 138.804L156.552 137.127C159.325 137.11 163.06 137.077 166.248 136.679L166.364 138.189C165.168 138.389 163.932 138.53 162.711 138.621V141.493H160.586V143.568H169.734ZM161.466 130.951C163.658 130.935 165.235 132.047 165.235 133.657C165.235 135.268 163.658 136.313 161.466 136.313C159.225 136.313 157.665 135.268 157.665 133.657C157.665 132.047 159.208 130.935 161.466 130.951ZM161.466 132.495C160.387 132.495 159.657 132.91 159.673 133.657C159.657 134.388 160.387 134.786 161.466 134.786C162.479 134.786 163.209 134.388 163.226 133.657C163.209 132.91 162.479 132.495 161.466 132.495ZM183.945 130.437V141.294H181.82V130.437H183.945ZM184.343 143.568V145.262H173.818V140.198H175.959V143.568H184.343ZM175.661 131.399C177.985 131.399 179.794 132.993 179.794 135.201C179.794 137.459 177.985 139.036 175.661 139.036C173.336 139.036 171.527 137.459 171.527 135.201C171.527 132.993 173.336 131.399 175.661 131.399ZM175.661 133.242C174.482 133.226 173.585 133.973 173.602 135.201C173.585 136.463 174.482 137.193 175.661 137.193C176.806 137.193 177.703 136.463 177.703 135.201C177.703 133.973 176.806 133.226 175.661 133.242Z" fill="#173E99"/>
<path d="M593.739 142.024V143.718H579.91V142.024H585.687V138.604H587.795V142.024H593.739ZM587.862 132.362C587.862 134.521 589.804 136.795 593.257 137.326L592.361 139.086C589.705 138.604 587.729 137.185 586.733 135.301C585.737 137.177 583.778 138.613 581.138 139.086L580.242 137.326C583.662 136.795 585.587 134.504 585.604 132.362V131.283H587.862V132.362ZM601.641 139.667C604.779 139.667 606.738 140.746 606.738 142.589C606.738 144.465 604.779 145.544 601.641 145.544C598.437 145.544 596.461 144.465 596.461 142.589C596.461 140.746 598.437 139.667 601.641 139.667ZM601.641 141.311C599.649 141.311 598.57 141.726 598.586 142.589C598.57 143.452 599.649 143.9 601.641 143.9C603.6 143.9 604.646 143.452 604.646 142.589C604.646 141.726 603.6 141.311 601.641 141.311ZM606.588 130.42V133.923H608.63V135.699H606.588V139.335H604.463V130.42H606.588ZM597.159 131.366V133.275H600.247V131.366H602.372V138.472H595.05V131.366H597.159ZM597.159 136.795H600.247V134.919H597.159V136.795ZM615.005 133.84C615.005 136.679 616.151 139.435 618.674 140.53L617.379 142.224C615.703 141.402 614.582 139.899 613.959 138.04C613.295 140.016 612.133 141.634 610.407 142.489L609.079 140.763C611.668 139.601 612.847 136.679 612.864 133.84V131.582H615.005V133.84ZM622.044 130.42V145.561H619.953V136.878H616.981V135.168H619.953V130.42H622.044Z" fill="#173E99"/>
</svg>
