<svg width="32" height="32" viewBox="0 0 32 32" fill="none" xmlns="http://www.w3.org/2000/svg">
<mask id="mask0_212_8495" style="mask-type:alpha" maskUnits="userSpaceOnUse" x="0" y="0" width="32" height="32">
<rect width="32" height="32" fill="#D9D9D9"/>
</mask>
<g mask="url(#mask0_212_8495)">
<path d="M6.66665 26.6667V24H8.79998L11.4333 15.2333C11.6111 14.6556 11.9389 14.1944 12.4166 13.85C12.8944 13.5056 13.4222 13.3333 14 13.3333H18C18.5778 13.3333 19.1055 13.5056 19.5833 13.85C20.0611 14.1944 20.3889 14.6556 20.5666 15.2333L23.2 24H25.3333V26.6667H6.66665ZM14.6666 10.6667V4H17.3333V10.6667H14.6666ZM22.6 13.9667L20.7 12.0667L25.4333 7.36667L27.3 9.23333L22.6 13.9667ZM24 20V17.3333H30.6666V20H24ZM9.39998 13.9667L4.69998 9.23333L6.56665 7.36667L11.3 12.0667L9.39998 13.9667ZM1.33331 20V17.3333H7.99998V20H1.33331Z" fill="white"/>
</g>
</svg>
