<svg width="32" height="32" viewBox="0 0 32 32" fill="none" xmlns="http://www.w3.org/2000/svg">
<mask id="mask0_20_2945" style="mask-type:alpha" maskUnits="userSpaceOnUse" x="0" y="0" width="32" height="32">
<rect width="32" height="32" fill="#D9D9D9"/>
</mask>
<g mask="url(#mask0_20_2945)">
<path d="M25 11.5333C24.4 12.1333 23.7111 12.5889 22.9333 12.9C22.1556 13.2111 21.3778 13.3667 20.6 13.3667C19.8222 13.3667 19.0556 13.2167 18.3 12.9167C17.5444 12.6167 16.8667 12.1556 16.2667 11.5333L13.7667 9.03334C13.4333 8.70001 13.0556 8.45001 12.6333 8.28334C12.2111 8.11668 11.7778 8.03334 11.3333 8.03334C10.8889 8.03334 10.4556 8.11668 10.0333 8.28334C9.61111 8.45001 9.23333 8.70001 8.9 9.03334L6.4 11.5333L4.5 9.63334L7 7.13334C7.6 6.53334 8.27778 6.08334 9.03333 5.78334C9.78889 5.48334 10.5556 5.33334 11.3333 5.33334C12.1111 5.33334 12.8722 5.48334 13.6167 5.78334C14.3611 6.08334 15.0333 6.53334 15.6333 7.13334L18.1333 9.63334C18.4889 9.9889 18.8778 10.25 19.3 10.4167C19.7222 10.5833 20.1556 10.6667 20.6 10.6667C21.0444 10.6667 21.4833 10.5833 21.9167 10.4167C22.35 10.25 22.7444 9.9889 23.1 9.63334L25.6 7.13334L27.5 9.03334L25 11.5333ZM25 18.2C24.4 18.8 23.7167 19.25 22.95 19.55C22.1833 19.85 21.4111 20 20.6333 20C19.8556 20 19.0833 19.85 18.3167 19.55C17.55 19.25 16.8667 18.8 16.2667 18.2L13.7667 15.7C13.4333 15.3667 13.0556 15.1167 12.6333 14.95C12.2111 14.7833 11.7778 14.7 11.3333 14.7C10.8889 14.7 10.4556 14.7833 10.0333 14.95C9.61111 15.1167 9.23333 15.3667 8.9 15.7L6.4 18.2L4.5 16.3333L7 13.8C7.6 13.2 8.27778 12.75 9.03333 12.45C9.78889 12.15 10.5556 12 11.3333 12C12.1111 12 12.8722 12.15 13.6167 12.45C14.3611 12.75 15.0333 13.2 15.6333 13.8L18.1333 16.3C18.4889 16.6556 18.8778 16.9167 19.3 17.0833C19.7222 17.25 20.1556 17.3333 20.6 17.3333C21.0444 17.3333 21.4833 17.25 21.9167 17.0833C22.35 16.9167 22.7444 16.6556 23.1 16.3L25.6 13.8L27.5 15.7L25 18.2ZM24.9667 24.8667C24.3667 25.4667 23.6889 25.9167 22.9333 26.2167C22.1778 26.5167 21.4111 26.6667 20.6333 26.6667C19.8556 26.6667 19.0833 26.5167 18.3167 26.2167C17.55 25.9167 16.8667 25.4667 16.2667 24.8667L13.7333 22.3667C13.4 22.0333 13.0222 21.7833 12.6 21.6167C12.1778 21.45 11.7444 21.3667 11.3 21.3667C10.8556 21.3667 10.4222 21.45 10 21.6167C9.57778 21.7833 9.2 22.0333 8.86667 22.3667L6.36667 24.8667L4.5 23L7 20.4667C7.6 19.8667 8.27778 19.4167 9.03333 19.1167C9.78889 18.8167 10.5556 18.6667 11.3333 18.6667C12.1111 18.6667 12.8722 18.8167 13.6167 19.1167C14.3611 19.4167 15.0333 19.8667 15.6333 20.4667L18.1333 22.9667C18.4889 23.3222 18.8833 23.5833 19.3167 23.75C19.75 23.9167 20.1889 24 20.6333 24C21.0778 24 21.5111 23.9167 21.9333 23.75C22.3556 23.5833 22.7444 23.3222 23.1 22.9667L25.6 20.4667L27.4667 22.3667L24.9667 24.8667Z" fill="white"/>
</g>
</svg>
