<svg width="32" height="32" viewBox="0 0 32 32" fill="none" xmlns="http://www.w3.org/2000/svg">
<mask id="mask0_205_7922" style="mask-type:alpha" maskUnits="userSpaceOnUse" x="0" y="0" width="32" height="32">
<rect width="32" height="32" fill="#D9D9D9"/>
</mask>
<g mask="url(#mask0_205_7922)">
<path d="M10.8 10.6667L11.2 12H20.8L21.2 10.6667H10.8ZM11.2 14.6667C10.6222 14.6667 10.1 14.4944 9.63333 14.15C9.16667 13.8056 8.84444 13.3556 8.66667 12.8L8 10.6667H6.66667C5.93333 10.6667 5.30556 10.4056 4.78333 9.88333C4.26111 9.36111 4 8.73333 4 8V4H28V8C28 8.73333 27.7389 9.36111 27.2167 9.88333C26.6944 10.4056 26.0667 10.6667 25.3333 10.6667H24L23.1333 12.9333C22.9333 13.4444 22.6111 13.8611 22.1667 14.1833C21.7222 14.5056 21.2222 14.6667 20.6667 14.6667H11.2ZM17.3333 29.7333L14.8 28.9333L15.3333 27.2C15.4667 26.6667 15.5111 26.15 15.4667 25.65C15.4222 25.15 15.2444 24.6444 14.9333 24.1333C14.3778 23.2889 14.0278 22.4167 13.8833 21.5167C13.7389 20.6167 13.8222 19.6667 14.1333 18.6667L14.6667 16.9333L17.2 17.7333L16.6667 19.4667C16.4889 19.9778 16.4333 20.5056 16.5 21.05C16.5667 21.5944 16.7556 22.0889 17.0667 22.5333C17.5778 23.3778 17.9167 24.2667 18.0833 25.2C18.25 26.1333 18.1778 27.0667 17.8667 28L17.3333 29.7333ZM11.4667 29.7333L8.93333 28.9333L9.46667 27.2C9.6 26.6889 9.64444 26.1667 9.6 25.6333C9.55556 25.1 9.37778 24.6 9.06667 24.1333C8.48889 23.3111 8.13333 22.4333 8 21.5C7.86667 20.5667 7.95556 19.6222 8.26667 18.6667L8.8 16.9333L11.3333 17.7333L10.8 19.4667C10.6222 19.9778 10.5667 20.5111 10.6333 21.0667C10.7 21.6222 10.8889 22.1111 11.2 22.5333C11.7333 23.3333 12.0778 24.2167 12.2333 25.1833C12.3889 26.15 12.3111 27.0889 12 28L11.4667 29.7333ZM23.0667 29.7333L20.5333 28.9333L21.0667 27.2C21.2 26.6889 21.2444 26.1667 21.2 25.6333C21.1556 25.1 20.9778 24.6 20.6667 24.1333C20.0889 23.3111 19.7333 22.4333 19.6 21.5C19.4667 20.5667 19.5556 19.6222 19.8667 18.6667L20.4 16.9333L22.9333 17.7333L22.4 19.4667C22.2222 20 22.1667 20.5278 22.2333 21.05C22.3 21.5722 22.4889 22.0667 22.8 22.5333C23.3333 23.3778 23.6722 24.2667 23.8167 25.2C23.9611 26.1333 23.8889 27.0667 23.6 28L23.0667 29.7333Z" fill="white"/>
</g>
</svg>
