<svg width="32" height="32" viewBox="0 0 32 32" fill="none" xmlns="http://www.w3.org/2000/svg">
<mask id="mask0_213_8519" style="mask-type:alpha" maskUnits="userSpaceOnUse" x="0" y="0" width="32" height="32">
<rect width="32" height="32" fill="#D9D9D9"/>
</mask>
<g mask="url(#mask0_213_8519)">
<path d="M16 16C16.7333 16 17.3611 15.7389 17.8833 15.2167C18.4055 14.6945 18.6666 14.0667 18.6666 13.3334C18.6666 12.6 18.4055 11.9722 17.8833 11.45C17.3611 10.9278 16.7333 10.6667 16 10.6667C15.2666 10.6667 14.6389 10.9278 14.1166 11.45C13.5944 11.9722 13.3333 12.6 13.3333 13.3334C13.3333 14.0667 13.5944 14.6945 14.1166 15.2167C14.6389 15.7389 15.2666 16 16 16ZM16 29.3334C12.4222 26.2889 9.74998 23.4611 7.98331 20.85C6.21665 18.2389 5.33331 15.8222 5.33331 13.6C5.33331 10.2667 6.40554 7.61113 8.54998 5.63335C10.6944 3.65558 13.1778 2.66669 16 2.66669C18.8222 2.66669 21.3055 3.65558 23.45 5.63335C25.5944 7.61113 26.6666 10.2667 26.6666 13.6C26.6666 15.8222 25.7833 18.2389 24.0166 20.85C22.25 23.4611 19.5778 26.2889 16 29.3334Z" fill="white"/>
</g>
</svg>
