<svg width="52" height="52" viewBox="0 0 52 52" fill="none" xmlns="http://www.w3.org/2000/svg">
<g id="flotingmenu_service">
<g clip-path="url(#clip0_395_14137)">
<rect width="52" height="52" rx="26" fill="white"/>
<g id="Mask group">
<mask id="mask0_395_14137" style="mask-type:alpha" maskUnits="userSpaceOnUse" x="0" y="0" width="68" height="68">
<circle id="Ellipse 1290" cx="34" cy="34" r="34" fill="white"/>
</mask>
<g mask="url(#mask0_395_14137)">
<g id="Group 538">
<g id="Group">
<g id="Group_2">
<path id="Vector" d="M28.3204 60.9196C20.5721 49.1322 1.08406 45.6601 1.08001 45.6601C0.447835 45.5465 -0.16408 45.4208 -0.804362 45.3681C-1.69995 45.291 -2.59958 45.2667 -3.49517 45.2707C-4.68253 45.2748 -6.08061 45.5749 -7.21934 45.2058C-9.3347 44.5203 -9.64674 45.0801 -10.0885 46.1874C-10.4896 47.1893 -10.5626 48.3088 -10.6355 49.3756C-10.8179 52.0162 -10.7368 55.1232 -9.28202 57.4069C-9.01862 57.8247 -8.28513 58.1613 -7.81505 58.3236C-7.02077 58.5994 -6.02793 58.3723 -5.19719 58.3966C-4.64606 58.4128 -0.824625 58.5832 0.731504 58.7373C3.38179 59.005 6.43326 59.2727 8.80797 60.591C10.2061 61.3698 10.6356 62.0066 11.3853 63.0977C11.3853 63.0977 20.5762 68.3262 28.3244 60.9155L28.3204 60.9196Z" fill="url(#paint0_radial_395_14137)"/>
</g>
</g>
<g id="Group_3">
<path id="Vector_2" d="M12.212 57.0504C12.4024 57.4438 12.6132 57.8292 12.8523 58.2023C13.9707 59.9181 15.5876 60.7253 17.3586 61.6379C19.2835 62.6358 24.2598 64.2177 26.8047 64.0392C26.9223 64.0311 27.0074 64.1366 27.0641 64.0311C29.3213 59.8492 29.8481 58.8838 31.846 54.8965C32.0607 54.4666 32.316 53.8379 32.2107 53.3673C33.3453 50.3982 33.2076 46.7841 32.5389 43.6771C27.8381 41.722 23.9559 40.0387 19.3848 37.7996C16.1752 36.2258 13.9343 32.701 11.2921 35.1104C4.80821 41.0203 5.85779 40.2212 1.81348 45.7782C2.05662 45.3928 3.65733 46.703 3.83969 46.8206C6.18604 48.3336 8.48376 50.0615 10.052 52.4141C11.0044 53.846 11.4663 55.5171 12.2079 57.0504H12.212Z" fill="url(#paint1_radial_395_14137)"/>
<g id="Clip path group">
<mask id="mask1_395_14137" style="mask-type:luminance" maskUnits="userSpaceOnUse" x="1" y="34" width="33" height="31">
<g id="clippath-2">
<path id="Vector_3" d="M12.212 57.0504C12.4024 57.4438 12.6132 57.8292 12.8523 58.2023C13.9707 59.9181 15.5876 60.7253 17.3586 61.6379C19.2835 62.6358 24.2598 64.2177 26.8047 64.0392C26.9223 64.0311 27.0074 64.1366 27.0641 64.0311C29.3213 59.8492 29.8481 58.8838 31.846 54.8965C32.0607 54.4666 32.316 53.8379 32.2107 53.3673C33.3453 50.3982 33.2076 46.7841 32.5389 43.6771C27.8381 41.722 23.9559 40.0387 19.3848 37.7996C16.1752 36.2258 13.9343 32.701 11.2921 35.1104C4.80821 41.0203 5.85779 40.2212 1.81348 45.7782C2.05662 45.3928 3.65733 46.703 3.83969 46.8206C6.18604 48.3336 8.48376 50.0615 10.052 52.4141C11.0044 53.846 11.4663 55.5171 12.2079 57.0504H12.212Z" fill="white"/>
</g>
</mask>
<g mask="url(#mask1_395_14137)">
<g id="Group_4">
<path id="Vector_4" d="M13.8898 35.9619C13.8898 35.9619 13.209 40.1236 13.5494 41.8312C13.6386 42.2896 14.0762 42.5979 14.5382 42.533C15.5432 42.391 17.2938 42.0178 18.4609 41.0808C18.4609 41.0808 18.7649 43.6484 19.6605 45.2425C19.9482 45.7536 20.5358 46.0132 21.1031 45.8712C22.331 45.567 24.5396 44.8369 25.2163 43.4213L13.8898 35.9619Z" fill="url(#paint2_linear_395_14137)"/>
<path id="Vector_5" d="M3.98609 42.4639C3.98609 42.4639 6.08524 46.1591 2.79062 49.8705L-2.23438 44.4676L3.98204 42.4639H3.98609Z" fill="url(#paint3_radial_395_14137)"/>
</g>
</g>
</g>
</g>
<path id="Vector_6" d="M17.7311 6.23414L17.7797 6.16113C17.7797 6.16113 17.7392 6.20169 17.7148 6.21792C17.7189 6.22198 17.727 6.23009 17.7311 6.23414Z" fill="url(#paint4_radial_395_14137)"/>
<g id="Group_5">
<path id="Vector_7" d="M3.20735 23.5947C4.74322 25.0752 6.74916 28.6974 7.97299 30.3605C9.13604 31.9343 10.9596 34.5465 11.9849 36.2095C11.9849 36.2095 10.8178 41.2636 3.98541 42.4683C1.63501 39.3287 0.79616 37.7549 -0.464143 35.5849C-1.53398 33.7434 -3.44672 28.7988 -2.34852 26.9735L3.20735 23.5947Z" fill="url(#paint5_radial_395_14137)"/>
<g id="Clip path group_2">
<mask id="mask2_395_14137" style="mask-type:luminance" maskUnits="userSpaceOnUse" x="-3" y="23" width="15" height="20">
<g id="clippath-3">
<path id="Vector_8" d="M3.20735 23.5947C4.74322 25.0752 6.74916 28.6974 7.97299 30.3605C9.13604 31.9343 10.9596 34.5465 11.9849 36.2095C11.9849 36.2095 10.8178 41.2636 3.98541 42.4683C1.63501 39.3287 0.79616 37.7549 -0.464143 35.5849C-1.53398 33.7434 -3.44672 28.7988 -2.34852 26.9735L3.20735 23.5947Z" fill="white"/>
</g>
</mask>
<g mask="url(#mask2_395_14137)">
<g id="Group_6">
<path id="Vector_9" d="M-1.55828 36.4654C-1.55828 36.4654 9.11579 36.1693 7.66502 28.2597L2.39283 17.3525L-6.33203 26.9739L-1.55828 36.4654Z" fill="url(#paint6_linear_395_14137)"/>
</g>
</g>
</g>
</g>
<g id="Group_7">
<path id="Vector_10" d="M31.5143 59.7796C35.8585 55.5125 35.591 52.0687 35.2749 48.2519C34.9224 44.0253 33.6864 40.8858 29.561 42.2811C28.5763 42.6137 27.4619 43.1735 26.1327 43.9685C24.9088 44.7027 24.2686 46.3657 24.6252 47.8949C25.2857 50.7383 24.921 49.4079 24.4307 55.1839L31.5143 59.7796Z" fill="url(#paint7_radial_395_14137)"/>
<g id="Clip path group_3">
<mask id="mask3_395_14137" style="mask-type:luminance" maskUnits="userSpaceOnUse" x="24" y="41" width="12" height="19">
<g id="clippath-4">
<path id="Vector_11" d="M31.5143 59.7796C35.8585 55.5125 35.591 52.0687 35.2749 48.2519C34.9224 44.0253 33.6864 40.8858 29.561 42.2811C28.5763 42.6137 27.4619 43.1735 26.1327 43.9685C24.9088 44.7027 24.2686 46.3657 24.6252 47.8949C25.2857 50.7383 24.921 49.4079 24.4307 55.1839L31.5143 59.7796Z" fill="white"/>
</g>
</mask>
<g mask="url(#mask3_395_14137)">
<g id="Group_8">
<path id="Vector_12" d="M22.0072 51.7326C22.0072 51.7326 29.1435 55.1925 39.2908 52.3288L35.7976 63.7592L20.832 55.513L22.0072 51.7285V51.7326Z" fill="url(#paint8_radial_395_14137)"/>
<g id="Group_9">
<path id="Vector_13" d="M35.2752 45.802C35.4657 45.7492 35.6804 45.8101 35.8101 45.9764C35.9398 46.1427 35.9479 46.3658 35.8466 46.5402C35.6602 46.8282 35.0442 48.2154 36.2437 49.5053C36.3856 49.6432 36.4383 49.8622 36.3613 50.0569C36.2802 50.2516 36.0897 50.3693 35.8912 50.3693C35.1779 50.353 33.9582 50.7789 33.5246 52.1986C33.4759 52.3933 33.3138 52.5474 33.1072 52.5758C32.8964 52.6042 32.7019 52.4988 32.6047 52.3244C31.9644 51.2251 30.6636 50.929 29.845 51.1846C29.6545 51.2413 29.4397 51.1764 29.31 51.0101C29.1804 50.8438 29.1763 50.6207 29.2776 50.4463C30.0922 48.8847 29.1317 47.7084 28.8805 47.4812C28.7387 47.3433 28.686 47.1243 28.763 46.9296C28.844 46.7349 29.0345 46.6173 29.233 46.6173C30.157 46.6335 31.2917 45.9764 31.5956 44.792C31.6442 44.5973 31.8063 44.4431 32.013 44.4148C32.2237 44.3864 32.4182 44.4918 32.5155 44.6662C32.7911 45.1814 33.7799 46.1833 35.2793 45.802H35.2752Z" fill="#211D1E"/>
<g id="Group_10">
<g id="Group_11">
<g id="Group_12">
<path id="Vector_14" d="M30.6997 47.6234C30.6997 47.6234 29.565 47.088 29.3583 46.9987C29.2732 46.9622 29.1719 47.0028 29.1354 47.092C29.099 47.1772 29.1395 47.2827 29.2286 47.3151C29.5164 47.4165 30.6227 47.81 30.6227 47.81L30.6956 47.6234H30.6997Z" fill="#D5E0DE"/>
<path id="Vector_15" d="M31.6727 47.226C31.6727 47.226 31.1337 46.4513 31.0324 46.3134C30.9919 46.2566 30.9068 46.2485 30.8541 46.289C30.7974 46.3336 30.7852 46.4148 30.8298 46.4675C30.9797 46.6419 31.5552 47.3152 31.5552 47.3152L31.6727 47.2219V47.226Z" fill="#D5E0DE"/>
<path id="Vector_16" d="M31.2995 47.4283C31.2995 47.4283 30.5295 46.7753 30.3877 46.6658C30.3269 46.6211 30.2418 46.6333 30.1972 46.6901C30.1527 46.7509 30.1608 46.8402 30.2216 46.8807C30.4242 47.0186 31.2022 47.5541 31.2022 47.5541L31.2995 47.4283Z" fill="#D5E0DE"/>
<path id="Vector_17" d="M31.0276 47.5183C31.0276 47.5183 30.0955 46.9139 29.9253 46.8125C29.8524 46.7719 29.7632 46.7963 29.7187 46.8693C29.6781 46.9423 29.6984 47.0356 29.7754 47.0762C30.0145 47.1978 30.9384 47.6724 30.9384 47.6724L31.0276 47.5183Z" fill="#D5E0DE"/>
<path id="Vector_18" d="M31.5018 47.3393C31.5018 47.3393 30.8574 46.6295 30.7399 46.5078C30.6913 46.455 30.6062 46.4591 30.5575 46.5078C30.5089 46.5605 30.5049 46.6416 30.5575 46.6903C30.7318 46.8485 31.3964 47.4448 31.3964 47.4448L31.5018 47.3352V47.3393Z" fill="#D5E0DE"/>
<path id="Vector_19" d="M31.9879 46.9544C31.9879 46.9544 31.6435 46.0094 31.5786 45.843C31.5503 45.7741 31.4692 45.7416 31.4003 45.77C31.3315 45.7984 31.295 45.8796 31.3274 45.9485C31.4328 46.1675 31.8421 47.0153 31.8421 47.0153L31.9879 46.9544Z" fill="#D5E0DE"/>
<path id="Vector_20" d="M31.8263 47.1085C31.8263 47.1085 31.3846 46.2567 31.2995 46.1107C31.263 46.0498 31.186 46.0295 31.1212 46.066C31.0604 46.1025 31.0361 46.1837 31.0766 46.2445C31.2063 46.4392 31.6966 47.1896 31.6966 47.1896L31.8263 47.1125V47.1085Z" fill="#D5E0DE"/>
<path id="Vector_21" d="M32.1628 46.7393C32.1628 46.7393 31.9237 45.6603 31.8751 45.4697C31.8548 45.3886 31.7697 45.344 31.6927 45.3642C31.6117 45.3845 31.563 45.4697 31.5873 45.5468C31.6724 45.8023 31.9926 46.7839 31.9926 46.7839L32.1628 46.7352V46.7393Z" fill="#D5E0DE"/>
</g>
<g id="Group_13">
<path id="Vector_22" d="M30.8734 49.6671C30.8734 49.6671 29.8441 50.3851 29.6617 50.5189C29.5847 50.5757 29.5725 50.6852 29.6333 50.7583C29.6901 50.8313 29.7995 50.8475 29.8724 50.7867C30.1034 50.5879 30.999 49.8213 30.999 49.8213L30.8774 49.6631L30.8734 49.6671Z" fill="#D5E0DE"/>
<path id="Vector_23" d="M31.0195 48.625C31.0195 48.625 30.0793 48.7061 29.9091 48.7264C29.8402 48.7345 29.7916 48.7994 29.7997 48.8724C29.8078 48.9414 29.8727 48.9941 29.9456 48.9819C30.1725 48.9414 31.0397 48.7751 31.0397 48.7751L31.0195 48.625Z" fill="#D5E0DE"/>
<path id="Vector_24" d="M31.0073 49.0508C31.0073 49.0508 30.0591 49.3915 29.8889 49.4564C29.82 49.4848 29.7876 49.5659 29.8159 49.6349C29.8443 49.7038 29.9253 49.7403 29.9942 49.7079C30.2171 49.6024 31.0681 49.1968 31.0681 49.1968L31.0073 49.0508Z" fill="#D5E0DE"/>
<path id="Vector_25" d="M30.9472 49.3312C30.9472 49.3312 29.9584 49.8382 29.7882 49.9315C29.7152 49.9721 29.6909 50.0654 29.7314 50.1384C29.772 50.2114 29.8652 50.2398 29.9381 50.1911C30.165 50.0451 31.0363 49.4813 31.0363 49.4813L30.9472 49.3271V49.3312Z" fill="#D5E0DE"/>
<path id="Vector_26" d="M31.032 48.832C31.032 48.832 30.0959 49.0348 29.9298 49.0795C29.8609 49.0957 29.8204 49.1687 29.8366 49.2377C29.8568 49.3066 29.9298 49.3512 29.9946 49.3309C30.2175 49.2579 31.0685 48.9821 31.0685 48.9821L31.028 48.8361L31.032 48.832Z" fill="#D5E0DE"/>
<path id="Vector_27" d="M30.9429 48.216C30.9429 48.216 29.9541 48.0416 29.7758 48.0173C29.7028 48.0051 29.6339 48.0619 29.6258 48.1349C29.6177 48.2079 29.6704 48.2809 29.7433 48.285C29.9865 48.3053 30.9266 48.3702 30.9266 48.3702L30.9469 48.212L30.9429 48.216Z" fill="#D5E0DE"/>
<path id="Vector_28" d="M30.9957 48.4341C30.9957 48.4341 30.0393 48.3936 29.865 48.3936C29.7921 48.3936 29.7354 48.4544 29.7354 48.5234C29.7354 48.5964 29.7961 48.6572 29.865 48.6532C30.096 48.641 30.9916 48.5883 30.9916 48.5883V48.4341H30.9957Z" fill="#D5E0DE"/>
<path id="Vector_29" d="M30.8374 47.9603C30.8374 47.9603 29.7838 47.6277 29.5974 47.5749C29.5163 47.5546 29.4353 47.6033 29.415 47.6804C29.3948 47.7615 29.4393 47.8467 29.5204 47.8629C29.7838 47.9197 30.7928 48.1266 30.7928 48.1266L30.8374 47.9562V47.9603Z" fill="#D5E0DE"/>
</g>
<g id="Group_14">
<path id="Vector_30" d="M32.7295 50.5361C32.7295 50.5361 32.8349 51.7894 32.8632 52.0125C32.8754 52.1058 32.9605 52.1707 33.0537 52.1585C33.1469 52.1464 33.2158 52.0612 33.1996 51.9679C33.1428 51.6677 32.9281 50.5117 32.9281 50.5117L32.7295 50.5401V50.5361Z" fill="#D5E0DE"/>
<path id="Vector_31" d="M31.9023 49.8916C31.9023 49.8916 31.5011 50.7475 31.4322 50.9016C31.4038 50.9665 31.4362 51.0395 31.5011 51.0679C31.5659 51.0963 31.6429 51.0679 31.6672 50.9989C31.7442 50.784 32.036 49.9484 32.036 49.9484L31.8982 49.8916H31.9023Z" fill="#D5E0DE"/>
<path id="Vector_32" d="M32.263 50.1143C32.263 50.1143 32.0806 51.108 32.0563 51.2865C32.0442 51.3595 32.1009 51.4285 32.1739 51.4406C32.2509 51.4487 32.3197 51.396 32.3278 51.323C32.3481 51.0796 32.4211 50.1345 32.4211 50.1345L32.263 50.1143Z" fill="#D5E0DE"/>
<path id="Vector_33" d="M32.4739 50.3048C32.4739 50.3048 32.4171 51.4162 32.4131 51.6109C32.4131 51.6961 32.482 51.761 32.563 51.761C32.6441 51.761 32.717 51.6921 32.713 51.6109C32.7008 51.3392 32.6481 50.3008 32.6481 50.3008H32.4739V50.3048Z" fill="#D5E0DE"/>
<path id="Vector_34" d="M32.0844 49.9844C32.0844 49.9844 31.7927 50.897 31.7481 51.0633C31.7278 51.1323 31.7724 51.2053 31.8413 51.2215C31.9102 51.2377 31.9831 51.2012 31.9993 51.1282C32.048 50.9011 32.2344 50.0249 32.2344 50.0249L32.0885 49.9884L32.0844 49.9844Z" fill="#D5E0DE"/>
<path id="Vector_35" d="M31.5053 49.7541C31.5053 49.7541 30.861 50.5247 30.7475 50.6667C30.7029 50.7275 30.7151 50.8127 30.7759 50.8573C30.8366 50.902 30.9258 50.8938 30.9663 50.8289C31.1041 50.6261 31.6309 49.8473 31.6309 49.8473L31.5053 49.75V49.7541Z" fill="#D5E0DE"/>
<path id="Vector_36" d="M31.7204 49.8184C31.7204 49.8184 31.2058 50.6255 31.1207 50.7756C31.0842 50.8365 31.1085 50.9176 31.1693 50.9541C31.2301 50.9906 31.3152 50.9703 31.3476 50.9054C31.4529 50.6986 31.8541 49.8954 31.8541 49.8954L31.7204 49.8224V49.8184Z" fill="#D5E0DE"/>
<path id="Vector_37" d="M31.2343 49.7129C31.2343 49.7129 30.4197 50.4592 30.2779 50.5971C30.2212 50.6539 30.2212 50.7513 30.2779 50.8081C30.3346 50.8649 30.4319 50.8689 30.4886 50.8081C30.6669 50.6093 31.3558 49.8386 31.3558 49.8386L31.2302 49.7169L31.2343 49.7129Z" fill="#D5E0DE"/>
</g>
</g>
<g id="Group_15">
<g id="Group_16">
<path id="Vector_38" d="M32.1791 46.4754C32.1791 46.4754 31.944 45.2383 31.9116 45.0193C31.8995 44.926 31.9643 44.8408 32.0575 44.8286C32.1507 44.8164 32.2399 44.8813 32.248 44.9746C32.2763 45.2789 32.3736 46.4511 32.3736 46.4511L32.175 46.4795L32.1791 46.4754Z" fill="#D5E0DE"/>
<path id="Vector_39" d="M34.1123 47.1568C34.1123 47.1568 35.0646 46.3375 35.2389 46.1955C35.3118 46.1387 35.4212 46.1509 35.478 46.228C35.5347 46.301 35.5225 46.4146 35.4496 46.4673C35.1984 46.6417 34.2339 47.315 34.2339 47.315L34.1123 47.1568Z" fill="#D5E0DE"/>
<path id="Vector_40" d="M33.0664 47.039C33.0664 47.039 33.3784 46.1467 33.4392 45.9885C33.4635 45.9236 33.5405 45.8911 33.6054 45.9195C33.6702 45.9479 33.7067 46.0209 33.6743 46.0858C33.577 46.2927 33.2042 47.0958 33.2042 47.0958L33.0664 47.039Z" fill="#D5E0DE"/>
<path id="Vector_41" d="M33.4844 47.1325C33.4844 47.1325 34.0517 46.2969 34.1571 46.1509C34.2017 46.0901 34.2868 46.0779 34.3475 46.1225C34.4083 46.1671 34.4245 46.2564 34.3759 46.3132C34.2179 46.4997 33.61 47.2258 33.61 47.2258L33.4844 47.1285V47.1325Z" fill="#D5E0DE"/>
<path id="Vector_42" d="M33.7686 47.1451C33.7686 47.1451 34.5061 46.3136 34.6439 46.1716C34.7006 46.1108 34.7979 46.1108 34.8546 46.1716C34.9154 46.2284 34.9194 46.3298 34.8546 46.3866C34.656 46.5691 33.8942 47.2749 33.8942 47.2749L33.7686 47.1532V47.1451Z" fill="#D5E0DE"/>
<path id="Vector_43" d="M33.2656 47.1C33.2656 47.1 33.6952 46.2441 33.7803 46.094C33.8127 46.0291 33.8938 46.0089 33.9586 46.0454C34.0194 46.0819 34.0437 46.163 34.0072 46.2238C33.8816 46.4226 33.3994 47.1771 33.3994 47.1771L33.2656 47.1Z" fill="#D5E0DE"/>
<path id="Vector_44" d="M32.6895 46.8564C32.6895 46.8564 32.7705 45.8545 32.7908 45.6761C32.7989 45.6031 32.8678 45.5503 32.9448 45.5584C33.0177 45.5666 33.0744 45.6355 33.0623 45.7126C33.0177 45.9519 32.8516 46.8808 32.8516 46.8808L32.6935 46.8605L32.6895 46.8564Z" fill="#D5E0DE"/>
<path id="Vector_45" d="M32.8887 46.9667C32.8887 46.9667 33.0872 46.0298 33.1318 45.8635C33.148 45.7945 33.221 45.7539 33.2899 45.7702C33.3588 45.7904 33.4033 45.8594 33.3831 45.9284C33.3142 46.1514 33.0386 47.0073 33.0386 47.0073L32.8927 46.9667H32.8887Z" fill="#D5E0DE"/>
<path id="Vector_46" d="M32.467 46.6942C32.467 46.6942 32.4103 45.5909 32.4062 45.3962C32.4062 45.315 32.4751 45.2461 32.5562 45.2461C32.6372 45.2461 32.7102 45.311 32.7061 45.3962C32.694 45.6639 32.6453 46.6982 32.6453 46.6982H32.4711L32.467 46.6942Z" fill="#D5E0DE"/>
</g>
<g id="Group_17">
<path id="Vector_47" d="M34.4881 49.1729C34.4881 49.1729 35.6714 49.5866 35.8822 49.6718C35.9713 49.7042 36.0118 49.8056 35.9754 49.8949C35.9389 49.98 35.8376 50.0287 35.7525 49.9881C35.4769 49.8583 34.4111 49.3594 34.4111 49.3594L34.4881 49.1769V49.1729Z" fill="#D5E0DE"/>
<path id="Vector_48" d="M34.0723 48.2075C34.0723 48.2075 35.0003 48.0331 35.1664 48.0047C35.2353 47.9925 35.3001 48.0452 35.3123 48.1142C35.3204 48.1832 35.2718 48.2521 35.2029 48.2602C34.976 48.2805 34.0925 48.3576 34.0925 48.3576L34.0723 48.2075Z" fill="#D5E0DE"/>
<path id="Vector_49" d="M34.1972 48.6172C34.1972 48.6172 35.2022 48.6902 35.3805 48.7105C35.4575 48.7186 35.5101 48.7875 35.498 48.8646C35.4899 48.9417 35.421 48.9944 35.344 48.9822C35.1009 48.9417 34.1729 48.7754 34.1729 48.7754L34.1931 48.6172H34.1972Z" fill="#D5E0DE"/>
<path id="Vector_50" d="M34.3315 48.8691C34.3315 48.8691 35.4176 49.0922 35.6121 49.1368C35.6932 49.1571 35.7418 49.2383 35.7215 49.3194C35.7013 49.4005 35.6162 49.4532 35.5392 49.4289C35.2798 49.3478 34.291 49.0395 34.291 49.0395L34.3356 48.8691H34.3315Z" fill="#D5E0DE"/>
<path id="Vector_51" d="M34.1162 48.4103C34.1162 48.4103 35.0726 48.3576 35.2428 48.3535C35.3157 48.3535 35.3725 48.4103 35.3725 48.4833C35.3725 48.5563 35.3157 48.6172 35.2428 48.6131C35.0118 48.605 34.1162 48.5644 34.1162 48.5644V48.4103Z" fill="#D5E0DE"/>
<path id="Vector_52" d="M34.0391 47.7935C34.0391 47.7935 34.9468 47.3595 35.113 47.2905C35.1818 47.2622 35.2629 47.2946 35.2913 47.3636C35.3196 47.4325 35.2913 47.5177 35.2183 47.542C34.9873 47.6232 34.1039 47.9436 34.1039 47.9436L34.0431 47.7976L34.0391 47.7935Z" fill="#D5E0DE"/>
<path id="Vector_53" d="M34.048 48.0167C34.048 48.0167 34.9598 47.7206 35.1259 47.6719C35.1948 47.6516 35.2678 47.6963 35.284 47.7652C35.3042 47.8342 35.2637 47.9112 35.1908 47.9234C34.9638 47.9721 34.0845 48.1627 34.0845 48.1627L34.0439 48.0167H34.048Z" fill="#D5E0DE"/>
<path id="Vector_54" d="M34.0674 47.5181C34.0674 47.5181 34.9913 46.9138 35.1615 46.8164C35.2345 46.7718 35.3236 46.8002 35.3642 46.8691C35.4047 46.9422 35.3844 47.0354 35.3115 47.0719C35.0724 47.1936 34.1565 47.6682 34.1565 47.6682L34.0714 47.5181H34.0674Z" fill="#D5E0DE"/>
</g>
<g id="Group_18">
<path id="Vector_55" d="M33.5619 49.6632C33.5619 49.6632 34.1778 50.3812 34.2832 50.511C34.3278 50.5678 34.3156 50.6489 34.2589 50.6895C34.2021 50.7341 34.1211 50.726 34.0806 50.6651C33.9468 50.4785 33.4443 49.7525 33.4443 49.7525L33.5619 49.6592V49.6632Z" fill="#D5E0DE"/>
<path id="Vector_56" d="M33.2699 49.9756C33.2699 49.9756 33.7076 50.8842 33.7805 51.0505C33.8089 51.1194 33.7805 51.2006 33.7076 51.229C33.6387 51.2573 33.5536 51.229 33.5293 51.1559C33.4442 50.9247 33.124 50.0364 33.124 50.0364L33.2699 49.9756Z" fill="#D5E0DE"/>
<path id="Vector_57" d="M33.1196 50.2188C33.1196 50.2188 33.4721 51.2734 33.5248 51.464C33.5491 51.5451 33.5005 51.6263 33.4194 51.6506C33.3384 51.6709 33.2533 51.6263 33.233 51.5451C33.1722 51.2815 32.9453 50.2674 32.9453 50.2674L33.1155 50.2188H33.1196Z" fill="#D5E0DE"/>
<path id="Vector_58" d="M33.407 49.8008C33.407 49.8008 33.9298 50.6039 34.0189 50.7499C34.0554 50.8108 34.0351 50.8919 33.9744 50.9284C33.9136 50.9649 33.8285 50.9446 33.7961 50.8838C33.6866 50.6769 33.2773 49.8819 33.2773 49.8819L33.407 49.8048V49.8008Z" fill="#D5E0DE"/>
<path id="Vector_59" d="M33.9059 49.4277C33.9059 49.4277 34.7325 49.9997 34.8784 50.1051C34.9392 50.1497 34.9514 50.2349 34.9027 50.2958C34.8582 50.3566 34.769 50.3688 34.7123 50.3201C34.5259 50.1619 33.8086 49.5535 33.8086 49.5535L33.9059 49.4277Z" fill="#D5E0DE"/>
<path id="Vector_60" d="M33.7157 49.5459C33.7157 49.5459 34.4289 50.1868 34.5505 50.3085C34.6032 50.3571 34.5991 50.4423 34.5505 50.491C34.5019 50.5437 34.4168 50.5437 34.3682 50.491C34.2101 50.3206 33.6104 49.6554 33.6104 49.6554L33.7198 49.5459H33.7157Z" fill="#D5E0DE"/>
<path id="Vector_61" d="M34.1574 49.3145C34.1574 49.3145 35.1421 49.8134 35.3123 49.9107C35.3852 49.9513 35.4096 50.0446 35.369 50.1135C35.3285 50.1865 35.2353 50.2149 35.1664 50.1703C34.9395 50.0243 34.0723 49.4645 34.0723 49.4645L34.1614 49.3145H34.1574Z" fill="#D5E0DE"/>
</g>
</g>
</g>
<g id="Group_19">
<path id="Vector_62" d="M29.9658 47.4326L30.1279 48.6291L34.1884 50.2922L35.1448 49.554L34.9827 48.3533L30.9222 46.6943L29.9658 47.4326Z" fill="white"/>
<g id="Group_20">
<path id="Vector_63" d="M30.168 47.445L34.9944 49.4204L34.8607 48.4469L30.942 46.8447L30.168 47.445Z" fill="#2F3791"/>
<path id="Vector_64" d="M30.1152 47.5664L30.249 48.5358L34.1677 50.1421L34.9417 49.5418L30.1152 47.5664Z" fill="#2F3791"/>
</g>
</g>
<g id="Group_21">
<path id="Vector_65" d="M30.3428 50.2071L31.4612 50.6655L34.9301 47.9762L34.768 46.7796L33.6495 46.3213L30.1807 49.0106L30.3428 50.2071Z" fill="white"/>
<g id="Group_22">
<path id="Vector_66" d="M30.456 50.0371L34.5773 46.8448L33.6696 46.4717L30.3223 49.0677L30.456 50.0371Z" fill="#2F3791"/>
<path id="Vector_67" d="M30.5332 50.1426L31.4409 50.5158L34.7882 47.9198L34.6586 46.9463L30.5332 50.1426Z" fill="#2F3791"/>
</g>
</g>
<g id="Group_23">
<path id="Vector_68" d="M32.179 45.7168L31.2227 46.4591L31.8143 50.8114L32.9328 51.2657L33.8891 50.5275L33.2975 46.1752L32.179 45.7168Z" fill="white"/>
<g id="Group_24">
<path id="Vector_69" d="M32.2676 45.8994L32.9727 51.0711L33.7467 50.4708L33.1753 46.2685L32.2676 45.8994Z" fill="#2F3791"/>
<path id="Vector_70" d="M32.1383 45.916L31.3643 46.5163L31.9356 50.7145L32.8434 51.0877L32.1383 45.916Z" fill="#2F3791"/>
</g>
</g>
<g id="Group_25">
<path id="Vector_71" d="M34.5333 48.2235C34.6833 49.3146 33.9174 50.3206 32.8273 50.4706C31.7372 50.6207 30.7281 49.8541 30.5822 48.763C30.4323 47.6719 31.1982 46.6659 32.2883 46.5158C33.3784 46.3658 34.3874 47.1324 34.5333 48.2235Z" fill="#E45A2F"/>
<path id="Vector_72" d="M33.8641 48.3125C33.9614 49.0345 33.4589 49.6997 32.7335 49.8012C32.0122 49.8985 31.3476 49.3955 31.2503 48.6695C31.1531 47.9475 31.6556 47.2823 32.3809 47.1849C33.1023 47.0876 33.7669 47.5905 33.8641 48.3125Z" fill="white"/>
<g id="Group_26">
<path id="Vector_73" d="M31.1176 48.0452C31.1176 48.0452 31.1176 48.0858 31.1095 48.1223C31.1095 48.1547 31.0974 48.1993 31.0812 48.2521L30.7529 48.1547L30.8016 47.9884L30.8583 48.0046L30.8259 48.1101L31.0407 48.175C31.0488 48.1507 31.0528 48.1263 31.0569 48.0979C31.0569 48.0695 31.0569 48.0493 31.0569 48.0371H31.1136L31.1176 48.0452ZM31.2716 47.9195L31.2554 47.9762L31.0447 47.9114L31.0325 47.9519L31.2271 48.0087L31.2109 48.0614L30.7691 47.9276L30.7853 47.8748L30.9799 47.9316L30.992 47.8911L30.7853 47.8302L30.8016 47.7734L31.2757 47.9154L31.2716 47.9195Z" fill="#211D1E"/>
<path id="Vector_74" d="M31.3196 47.2423L31.1332 47.4411L31.0967 47.4046L31.2831 47.2058L31.3196 47.2423ZM31.2183 47.2464L31.1372 47.3316L31.1007 47.2991L31.1818 47.2139L31.2183 47.2464ZM31.2426 47.3518C31.2669 47.3275 31.2912 47.3113 31.3155 47.3072C31.3398 47.3032 31.3601 47.3072 31.3804 47.3275C31.4006 47.3437 31.4087 47.3681 31.4047 47.3924C31.4047 47.4167 31.3885 47.4411 31.3641 47.4695C31.3398 47.4938 31.3155 47.51 31.2912 47.5141C31.2669 47.5181 31.2466 47.5141 31.2264 47.4938C31.2061 47.4776 31.198 47.4532 31.202 47.4289C31.202 47.4046 31.2183 47.3802 31.2426 47.3559V47.3518ZM31.3277 47.4289C31.3277 47.4289 31.3439 47.4046 31.352 47.3924C31.3601 47.3802 31.352 47.3721 31.3439 47.364C31.3358 47.3559 31.3236 47.3559 31.3115 47.36C31.2993 47.364 31.2871 47.3721 31.279 47.3843C31.2669 47.3965 31.2588 47.4086 31.2547 47.4208C31.2507 47.433 31.2547 47.4411 31.2628 47.4492C31.2709 47.4573 31.2831 47.4573 31.2912 47.4492C31.3034 47.4451 31.3155 47.437 31.3236 47.4249L31.3277 47.4289ZM31.51 47.2058L31.4695 47.2504L31.5708 47.3437L31.5303 47.3884L31.2507 47.1247L31.2912 47.0801L31.429 47.2058L31.4695 47.1612L31.51 47.2018V47.2058ZM31.6478 47.4086L31.429 47.6398L31.3236 47.5384L31.3641 47.4938L31.429 47.5547L31.6073 47.3681L31.6478 47.4046V47.4086Z" fill="#211D1E"/>
<path id="Vector_75" d="M32.0415 46.9462L31.8308 47.0233L31.7578 46.8164L31.9685 46.7393L32.0415 46.9462ZM31.9685 46.9137L31.9321 46.8123L31.8308 46.8488L31.8672 46.9503L31.9685 46.9137ZM32.2603 47.1003L31.9523 47.2139L31.8875 47.0435L31.9442 47.0233L31.9888 47.1409L32.24 47.0476L32.2603 47.1044V47.1003ZM32.2036 47.007L32.1468 47.0273L32.0212 46.6785L32.078 46.6582L32.2076 47.007H32.2036Z" fill="#211D1E"/>
<path id="Vector_76" d="M32.8323 46.7958C32.8323 46.7958 32.8444 46.7634 32.8485 46.7471C32.8525 46.7269 32.8525 46.7106 32.8566 46.6985L32.5972 46.6701L32.6053 46.6133L32.9336 46.6498C32.9336 46.6822 32.9255 46.7106 32.9174 46.739C32.9093 46.7674 32.9052 46.7877 32.8971 46.808L32.9741 46.8161L32.966 46.8729L32.7755 46.8526L32.7674 46.9216L32.893 46.9378L32.8728 47.1244L32.812 47.1163L32.8282 46.9865L32.5648 46.9581L32.5729 46.9013L32.7107 46.9175L32.7188 46.8485L32.5283 46.8283L32.5364 46.7715L32.8363 46.8039L32.8323 46.7958Z" fill="#211D1E"/>
<path id="Vector_77" d="M33.5367 47.3919L33.168 47.1526L33.2004 47.1039L33.3584 47.2093L33.4273 47.1039L33.476 47.1363L33.4071 47.2418L33.5651 47.3473L33.5327 47.3959L33.5367 47.3919ZM33.5854 46.9862C33.5854 46.9862 33.5773 47.0309 33.5854 47.0795C33.5935 47.1282 33.6178 47.1688 33.6462 47.2093L33.5773 47.2296C33.557 47.2012 33.5408 47.1688 33.5327 47.1242C33.5205 47.0836 33.5165 47.0471 33.5165 47.0228C33.4962 47.0349 33.4638 47.0471 33.4192 47.0511C33.3746 47.0593 33.3382 47.0593 33.3058 47.0511L33.2895 46.9781C33.3422 46.9862 33.3909 46.9862 33.4395 46.9781C33.4881 46.97 33.5286 46.9497 33.553 46.9092L33.6056 46.9538C33.6056 46.9538 33.5894 46.9741 33.5813 46.9822L33.5854 46.9862Z" fill="#211D1E"/>
<path id="Vector_78" d="M33.942 47.6879C33.9623 47.7203 33.9744 47.7528 33.9785 47.7933C33.9866 47.8298 33.9744 47.8582 33.9379 47.8785C33.9055 47.8988 33.8731 47.8947 33.8447 47.8704C33.8164 47.846 33.7921 47.8177 33.7758 47.7852C33.7556 47.7528 33.7434 47.7203 33.7394 47.6838C33.7313 47.6473 33.7475 47.6189 33.7799 47.5986C33.8123 47.5783 33.8447 47.5824 33.8731 47.6067C33.9015 47.6311 33.9258 47.6595 33.942 47.6919V47.6879ZM33.8204 47.7568C33.8326 47.7811 33.8488 47.8014 33.865 47.8136C33.8812 47.8298 33.8974 47.8339 33.9096 47.8258C33.9258 47.8177 33.9298 47.8014 33.9258 47.7771C33.9217 47.7568 33.9096 47.7325 33.8974 47.7081C33.8853 47.6838 33.869 47.6635 33.8528 47.6513C33.8366 47.6351 33.8204 47.6311 33.8042 47.6432C33.788 47.6513 33.7839 47.6676 33.7921 47.6879C33.7961 47.7081 33.8083 47.7325 33.8204 47.7528V47.7568ZM33.9825 47.7041L33.869 47.5053L34.0717 47.3877L34.1 47.4404L34.0474 47.4729L34.1 47.5662L34.1568 47.5337L34.1851 47.5864L33.9825 47.7041ZM34.0028 47.623L34.0514 47.5946L33.9947 47.5013L33.946 47.5297L33.9987 47.623H34.0028ZM34.1325 47.8217L34.1041 47.773L34.0271 47.8177L33.9947 47.7649L34.2419 47.623L34.2743 47.6757L34.1568 47.7446L34.1851 47.7933L34.1365 47.8217H34.1325Z" fill="#211D1E"/>
</g>
<g id="Group_27">
<path id="Vector_79" d="M31.1531 49.0553L31.0356 49.104L31.1856 49.1283L31.2139 49.1932L31.0518 49.1648L30.9222 49.327L30.8938 49.2581L30.9911 49.1445L30.9465 49.1364L30.8573 49.1729L30.833 49.1121L31.1288 48.9863L31.1531 49.0472V49.0553Z" fill="#211D1E"/>
<path id="Vector_80" d="M31.2998 49.3183C31.3525 49.3995 31.2998 49.4481 31.2188 49.5009C31.1377 49.5536 31.0729 49.582 31.0202 49.5009C30.9675 49.4197 31.0202 49.3711 31.1012 49.3183C31.1823 49.2656 31.2471 49.2372 31.2998 49.3183ZM31.0607 49.4765C31.081 49.509 31.1134 49.4968 31.1863 49.4481C31.2593 49.3995 31.2836 49.3792 31.2633 49.3467C31.2431 49.3143 31.2106 49.3264 31.1377 49.3751C31.0648 49.4238 31.0404 49.4481 31.0607 49.4765Z" fill="#211D1E"/>
<path id="Vector_81" d="M31.392 49.4611L31.4771 49.5503C31.5135 49.5868 31.5176 49.6314 31.4771 49.668C31.4447 49.6963 31.4122 49.7045 31.3839 49.6842C31.4082 49.7207 31.396 49.741 31.3474 49.7896C31.3231 49.814 31.3109 49.8261 31.315 49.8383L31.2663 49.7896C31.2663 49.7775 31.2745 49.7694 31.2866 49.7612L31.3312 49.7166C31.3312 49.7166 31.3515 49.6801 31.3312 49.6598L31.3069 49.6355L31.2096 49.7288L31.165 49.6801L31.396 49.457L31.392 49.4611ZM31.3352 49.6071L31.3515 49.6274C31.3717 49.6517 31.396 49.6517 31.4203 49.6274C31.4406 49.6071 31.4406 49.5868 31.4203 49.5625L31.4001 49.5422L31.3312 49.6071H31.3352Z" fill="#211D1E"/>
<path id="Vector_82" d="M31.7291 49.7607L31.6967 49.8013L31.6034 49.7323L31.5589 49.7932L31.644 49.8581L31.6116 49.9027L31.5265 49.8378L31.4738 49.9068L31.571 49.9798L31.5386 50.0244L31.3887 49.9149L31.5832 49.6553L31.725 49.7648L31.7291 49.7607Z" fill="#211D1E"/>
<path id="Vector_83" d="M31.8342 49.8216L31.9072 49.8581L31.8383 50.1826L31.7775 50.1501L31.7937 50.0812L31.7167 50.0406L31.6721 50.0934L31.6113 50.0609L31.8342 49.8135V49.8216ZM31.7491 50.0041L31.8058 50.0325L31.8423 49.8905L31.7491 50.0041Z" fill="#211D1E"/>
<path id="Vector_84" d="M32.1589 49.9512L32.3331 49.9877L32.321 50.0404L32.2075 50.0161L32.1913 50.0891L32.2967 50.1134L32.2845 50.1662L32.1791 50.1418L32.1508 50.2797L32.0859 50.2676L32.1548 49.9512H32.1589Z" fill="#211D1E"/>
<path id="Vector_85" d="M32.3691 50.3165L32.3975 49.9961H32.4623L32.434 50.3206H32.3691V50.3165Z" fill="#211D1E"/>
<path id="Vector_86" d="M32.5352 50.0081L32.6567 50C32.7094 50 32.7418 50.0243 32.7459 50.0771C32.7459 50.1176 32.7337 50.1501 32.6973 50.1582C32.7418 50.1622 32.7499 50.1866 32.754 50.2555C32.754 50.288 32.758 50.3083 32.7702 50.3123L32.7013 50.3164C32.6932 50.3083 32.6932 50.2961 32.6932 50.2839V50.2231C32.6851 50.1988 32.6729 50.1825 32.6486 50.1866H32.6122L32.6203 50.3245H32.5554L32.5392 50.0081H32.5352ZM32.6081 50.146H32.6365C32.6689 50.146 32.6851 50.1298 32.681 50.0933C32.681 50.0649 32.6608 50.0487 32.6324 50.0527H32.6L32.604 50.146H32.6081Z" fill="#211D1E"/>
<path id="Vector_87" d="M32.9807 49.9473L32.9929 50L32.8794 50.0243L32.8956 50.0973L33.001 50.073L33.0132 50.1257L32.9078 50.1501L32.9281 50.2353L33.0456 50.2109L33.0577 50.2636L32.8794 50.3042L32.8105 49.9919L32.9848 49.9513L32.9807 49.9473Z" fill="#211D1E"/>
<path id="Vector_88" d="M33.3179 50.0487V50.0569C33.3341 50.0853 33.3543 50.0974 33.3827 50.0812C33.3989 50.0731 33.4111 50.0528 33.3989 50.0285C33.3868 50.0041 33.3665 50.0001 33.3219 50.0082C33.2611 50.0163 33.2287 50.0082 33.2003 49.9595C33.172 49.9027 33.1922 49.8581 33.2449 49.8297C33.2976 49.8013 33.3462 49.8054 33.3746 49.8622V49.8703L33.326 49.8987C33.3098 49.8703 33.2936 49.8622 33.2733 49.8743C33.249 49.8865 33.249 49.9068 33.2571 49.923C33.2652 49.9392 33.2773 49.9473 33.3057 49.9473H33.3584C33.4111 49.9392 33.4354 49.9555 33.4516 49.992C33.484 50.0528 33.4597 50.0974 33.3989 50.1299C33.3341 50.1623 33.2935 50.1461 33.2652 50.0934V50.0812L33.3179 50.0528V50.0487Z" fill="#211D1E"/>
<path id="Vector_89" d="M33.5365 49.6427L33.5689 49.6833L33.4757 49.7522L33.5203 49.8131L33.6054 49.7482L33.6378 49.7888L33.5527 49.8537L33.6054 49.9226L33.6986 49.8496L33.731 49.8942L33.5851 50.0037L33.3906 49.7482L33.5325 49.6387L33.5365 49.6427Z" fill="#211D1E"/>
<path id="Vector_90" d="M33.5812 49.607L33.6622 49.5218C33.6987 49.4812 33.7392 49.4772 33.7798 49.5177C33.8122 49.5461 33.8203 49.5786 33.8 49.611C33.8365 49.5826 33.8568 49.5948 33.9094 49.6435C33.9338 49.6678 33.95 49.6759 33.9621 49.6719L33.9135 49.7246C33.9013 49.7246 33.8932 49.7165 33.8851 49.7084L33.8406 49.6678C33.8406 49.6678 33.8041 49.6475 33.7838 49.6678L33.7595 49.6921L33.8568 49.7854L33.8122 49.8341L33.5771 49.6151L33.5812 49.607ZM33.7271 49.6556L33.7433 49.6354C33.7636 49.611 33.7676 49.5907 33.7433 49.5664C33.723 49.5461 33.6987 49.5461 33.6785 49.5664L33.6582 49.5867L33.7271 49.6516V49.6556Z" fill="#211D1E"/>
<path id="Vector_91" d="M33.7914 49.3633L34.0142 49.4566L33.844 49.2863L33.8805 49.2295L34.1074 49.4688L34.0629 49.5378L33.7549 49.4242L33.7914 49.3674V49.3633Z" fill="#211D1E"/>
<path id="Vector_92" d="M34.192 49.3187L33.9043 49.1808L33.9327 49.124L34.2204 49.266L34.192 49.3228V49.3187Z" fill="#211D1E"/>
<path id="Vector_93" d="M34.1081 48.9531C34.0635 48.9369 34.0392 48.941 34.0311 48.9694C34.023 49.0018 34.0513 49.018 34.1364 49.0464C34.2297 49.0748 34.2499 49.0708 34.258 49.0464C34.2661 49.0221 34.258 49.0059 34.1932 48.9815L34.2134 48.9207C34.2783 48.941 34.331 48.9775 34.3026 49.0586C34.2742 49.1519 34.2013 49.1397 34.1121 49.1113C34.0189 49.0829 33.9581 49.0464 33.9865 48.9572C34.0149 48.868 34.0838 48.8842 34.1283 48.8963L34.1081 48.9572V48.9531Z" fill="#211D1E"/>
<path id="Vector_94" d="M34.0627 48.6211L34.1154 48.6292L34.0992 48.7428L34.1721 48.7549L34.1883 48.6495L34.241 48.6576L34.2248 48.7631L34.3099 48.7752L34.3261 48.6576L34.3788 48.6657L34.3504 48.8482L34.0303 48.7996L34.0546 48.6211H34.0627Z" fill="#211D1E"/>
</g>
<g id="Group_28">
<path id="Vector_95" fill-rule="evenodd" clip-rule="evenodd" d="M33.6581 48.0567C33.6581 48.0567 33.6581 48.0689 33.6581 48.077C33.6459 48.1419 33.6175 48.1987 33.5811 48.2595C33.496 48.3934 33.4068 48.5272 33.3177 48.657C33.3177 48.657 33.3096 48.6651 33.3055 48.6651C33.1596 48.6814 33.0137 48.6976 32.8678 48.7138C32.8678 48.7138 32.8638 48.7138 32.8597 48.7138C32.8597 48.7138 32.8597 48.7138 32.8597 48.7098C32.8678 48.7016 32.8719 48.6935 32.88 48.6854C32.8881 48.6773 32.8841 48.6651 32.8759 48.6611C32.8759 48.6611 32.8678 48.6611 32.8638 48.6611C32.8516 48.6611 32.8395 48.6651 32.8273 48.6692C32.7787 48.6773 32.7341 48.6692 32.6895 48.6611C32.6693 48.657 32.649 48.6489 32.6328 48.6408C32.5882 48.6165 32.5639 48.584 32.5518 48.5394C32.5518 48.5313 32.5518 48.5232 32.5518 48.5151C32.5599 48.442 32.5882 48.3771 32.6409 48.3163C32.6855 48.2636 32.7301 48.219 32.7827 48.1743C32.8395 48.1297 32.9003 48.0851 32.9651 48.0486C33.0421 48.008 33.1191 47.9715 33.2042 47.9472C33.2407 47.935 33.2771 47.931 33.3136 47.9229C33.3136 47.9229 33.3217 47.9229 33.3258 47.9229C33.3379 47.9229 33.346 47.9229 33.3582 47.9229C33.3582 47.9229 33.3622 47.9229 33.3663 47.9229C33.3744 47.9229 33.3785 47.9229 33.3866 47.9229C33.4352 47.9229 33.4838 47.9229 33.5284 47.9269C33.5446 47.9269 33.5568 47.935 33.573 47.9391C33.573 47.9391 33.577 47.9391 33.5811 47.9431C33.6256 47.9675 33.65 47.9999 33.6581 48.0445C33.6581 48.0445 33.6581 48.0445 33.6581 48.0486C33.6581 48.0526 33.6581 48.0567 33.6581 48.0608V48.0567ZM32.9165 48.3974C32.9165 48.3974 32.9246 48.4258 32.9408 48.438C32.9408 48.438 32.9489 48.438 32.9529 48.438C32.9813 48.438 33.0137 48.438 33.0421 48.4299C33.0421 48.4299 33.0502 48.4299 33.0543 48.4299C33.0583 48.4299 33.0624 48.4299 33.0583 48.4339C33.0583 48.438 33.0502 48.4461 33.0462 48.4502C33.0462 48.4542 33.0462 48.4583 33.0462 48.4623C33.0502 48.4704 33.0664 48.4704 33.0745 48.4623C33.115 48.4137 33.1515 48.369 33.192 48.3204C33.2082 48.3001 33.2204 48.2757 33.2204 48.2514C33.2245 48.223 33.1961 48.2068 33.1718 48.2068C33.1353 48.2068 33.1029 48.219 33.0705 48.2311C33.0056 48.2595 32.957 48.3001 32.9286 48.3569C32.9246 48.365 32.9205 48.3771 32.9246 48.3853L32.9165 48.3974Z" fill="#2F3791"/>
<path id="Vector_96" fill-rule="evenodd" clip-rule="evenodd" d="M32.6777 48.9365C32.6777 48.9365 32.6777 48.9365 32.6777 48.9325C32.6899 48.9162 32.7021 48.9041 32.7142 48.8878C32.7142 48.8838 32.7223 48.8797 32.7264 48.8797C32.8277 48.8676 32.929 48.8554 33.0303 48.8473C33.083 48.8432 33.1357 48.8351 33.1883 48.8311C33.1883 48.8311 33.1924 48.8311 33.1964 48.8311V48.8351C33.1843 48.8513 33.1721 48.8635 33.164 48.8797C33.164 48.8797 33.164 48.8797 33.164 48.8838C33.0019 48.9 32.8398 48.9203 32.6818 48.9406L32.6777 48.9365Z" fill="#2F3791"/>
<path id="Vector_97" fill-rule="evenodd" clip-rule="evenodd" d="M31.9404 49.0179C31.9404 49.0179 31.9526 48.9855 31.9607 48.9693C31.9607 48.9693 31.9607 48.9652 31.9688 48.9652C32.0782 48.953 32.1836 48.9409 32.293 48.9287C32.293 48.9287 32.293 48.9287 32.3011 48.9287C32.293 48.9449 32.2889 48.9652 32.2808 48.9814C32.1674 48.9936 32.058 49.0058 31.9445 49.0179H31.9404Z" fill="#2F3791"/>
<path id="Vector_98" fill-rule="evenodd" clip-rule="evenodd" d="M31.4736 49.0708C31.4736 49.0708 31.4898 49.0384 31.4939 49.0222C31.4939 49.0222 31.4979 49.0181 31.502 49.014C31.6074 49.0019 31.7168 48.9897 31.8221 48.9775C31.8221 48.9775 31.8262 48.9775 31.8302 48.9775V48.9816C31.8262 48.9938 31.8181 49.01 31.814 49.0222C31.814 49.0222 31.814 49.0222 31.814 49.0262C31.7006 49.0384 31.5871 49.0506 31.4736 49.0627V49.0708Z" fill="#2F3791"/>
<path id="Vector_99" fill-rule="evenodd" clip-rule="evenodd" d="M32.0649 48.5026C32.0649 48.5026 32.0649 48.4945 32.069 48.4905C32.0771 48.4783 32.0852 48.4621 32.0893 48.4499C32.0893 48.4458 32.0933 48.4458 32.1014 48.4458C32.1865 48.4377 32.2676 48.4256 32.3527 48.4174C32.3932 48.4134 32.4378 48.4093 32.4783 48.4053C32.4985 48.4053 32.5148 48.4134 32.5148 48.4337C32.5148 48.4337 32.5148 48.4418 32.5148 48.4458C32.4904 48.5026 32.4621 48.5635 32.4378 48.6243C32.4175 48.673 32.3972 48.7217 32.3729 48.7703C32.3729 48.7744 32.3689 48.7784 32.3608 48.7784C32.2514 48.7906 32.1419 48.8028 32.0325 48.8149C32.0325 48.8149 32.0285 48.8149 32.0244 48.8149C32.0244 48.8149 32.0244 48.8109 32.0244 48.8068C32.069 48.7135 32.1095 48.6162 32.1541 48.5229C32.1541 48.5229 32.1541 48.5229 32.1541 48.5188C32.1541 48.5107 32.1541 48.5067 32.1419 48.5067C32.1419 48.5067 32.1379 48.5067 32.1338 48.5067C32.1095 48.5067 32.0852 48.5107 32.0609 48.5148C32.0609 48.5148 32.0568 48.5148 32.0528 48.5148L32.0649 48.5026Z" fill="#2F3791"/>
<path id="Vector_100" fill-rule="evenodd" clip-rule="evenodd" d="M31.9039 48.8151C31.7904 48.8273 31.6769 48.8394 31.5635 48.8557C31.5999 48.7705 31.6364 48.6894 31.6729 48.6123C31.681 48.5961 31.6891 48.5798 31.6972 48.5596C31.6972 48.5515 31.6972 48.5474 31.6851 48.5433C31.6851 48.5433 31.681 48.5433 31.6769 48.5433C31.6526 48.5433 31.6283 48.5474 31.604 48.5515C31.604 48.5515 31.5999 48.5515 31.5959 48.5515C31.5959 48.5515 31.5959 48.5515 31.5959 48.5474C31.604 48.5312 31.6121 48.5149 31.6202 48.4987C31.6202 48.4987 31.6243 48.4947 31.6283 48.4947C31.6891 48.4866 31.7539 48.4825 31.8147 48.4744C31.8796 48.4663 31.9404 48.4582 32.0052 48.4541C32.0214 48.4541 32.0336 48.4582 32.0417 48.4744C32.0417 48.4784 32.0417 48.4866 32.0417 48.4947L31.993 48.6123C31.9647 48.6812 31.9322 48.7502 31.9039 48.8192C31.9039 48.8192 31.9039 48.8232 31.9039 48.8273V48.8151Z" fill="#2F3791"/>
<path id="Vector_101" fill-rule="evenodd" clip-rule="evenodd" d="M32.7305 48.8643V48.8602C32.7426 48.844 32.7548 48.8277 32.7669 48.8156C32.7669 48.8156 32.771 48.8115 32.775 48.8115C32.929 48.7953 33.0871 48.775 33.2411 48.7588C33.2411 48.7588 33.2451 48.7588 33.2492 48.7588C33.2492 48.7588 33.2492 48.7588 33.2492 48.7628C33.237 48.7791 33.2249 48.7953 33.2127 48.8115C33.2127 48.8115 33.2087 48.8115 33.2046 48.8156C33.2046 48.8156 33.2005 48.8156 33.1965 48.8156C33.0425 48.8318 32.8885 48.8521 32.7386 48.8683C32.7386 48.8683 32.7345 48.8683 32.7305 48.8683V48.8643Z" fill="#2F3791"/>
<path id="Vector_102" fill-rule="evenodd" clip-rule="evenodd" d="M33.3138 48.6816C33.3138 48.6816 33.3138 48.6816 33.3097 48.6857C33.2976 48.7019 33.2895 48.7141 33.2773 48.7303C33.2773 48.7303 33.2692 48.7344 33.2651 48.7344C33.1922 48.7425 33.1152 48.7506 33.0423 48.7587C32.9612 48.7668 32.8802 48.7749 32.7991 48.7871C32.7991 48.7871 32.7951 48.7871 32.791 48.7871C32.8032 48.7709 32.8153 48.7547 32.8275 48.7384C32.8275 48.7384 32.8315 48.7384 32.8356 48.7384C32.8396 48.7384 32.8437 48.7384 32.8477 48.7384C32.9977 48.7222 33.1517 48.706 33.3016 48.6857C33.3016 48.6857 33.3057 48.6857 33.3097 48.6857L33.3138 48.6816Z" fill="#2F3791"/>
<path id="Vector_103" fill-rule="evenodd" clip-rule="evenodd" d="M31.8908 48.8398C31.8908 48.8398 31.8786 48.8763 31.8705 48.8926C31.7571 48.9047 31.6476 48.9169 31.5342 48.9291C31.5342 48.9291 31.5342 48.9291 31.5342 48.925C31.5423 48.9088 31.5463 48.8966 31.5544 48.8804C31.5544 48.8804 31.5544 48.8763 31.5625 48.8763C31.5707 48.8763 31.5788 48.8763 31.5869 48.8763C31.6841 48.8642 31.7854 48.852 31.8827 48.8439C31.8827 48.8439 31.8867 48.8439 31.8908 48.8439V48.8398Z" fill="#2F3791"/>
<path id="Vector_104" fill-rule="evenodd" clip-rule="evenodd" d="M31.8633 48.9121C31.8633 48.9121 31.8633 48.9162 31.8633 48.9202C31.8592 48.9324 31.8552 48.9486 31.8471 48.9608C31.8471 48.9608 31.8471 48.9648 31.839 48.9648C31.7944 48.9689 31.7458 48.977 31.7012 48.9811C31.6404 48.9892 31.5796 48.9932 31.5188 49.0013C31.5188 49.0013 31.5148 49.0013 31.5107 49.0013C31.5107 49.0013 31.5107 49.0013 31.5107 48.9973C31.5148 48.9851 31.5229 48.9689 31.527 48.9567C31.527 48.9527 31.527 48.9527 31.5351 48.9486C31.5715 48.9486 31.608 48.9405 31.6485 48.9364C31.7174 48.9283 31.7863 48.9202 31.8552 48.9121C31.8552 48.9121 31.8592 48.9121 31.8633 48.9121Z" fill="#2F3791"/>
<path id="Vector_105" fill-rule="evenodd" clip-rule="evenodd" d="M32.001 48.8803C32.001 48.8803 32.0172 48.8437 32.0253 48.8275C32.1347 48.8154 32.2482 48.8032 32.3576 48.791C32.3576 48.7951 32.3454 48.8316 32.3373 48.8437C32.2239 48.8559 32.1144 48.8681 32.001 48.8803Z" fill="#2F3791"/>
<path id="Vector_106" fill-rule="evenodd" clip-rule="evenodd" d="M32.3293 48.8636C32.3293 48.8636 32.3171 48.892 32.309 48.9041C32.309 48.9041 32.309 48.9082 32.3009 48.9123C32.1915 48.9244 32.0861 48.9366 31.9767 48.9488C31.9767 48.9488 31.9767 48.9488 31.9727 48.9488C31.9808 48.9325 31.9848 48.9204 31.9929 48.9041C31.9929 48.9041 31.9929 48.9001 32.001 48.9001C32.001 48.9001 32.001 48.9001 32.0051 48.9001C32.1104 48.8879 32.2158 48.8757 32.3171 48.8636C32.3171 48.8636 32.3212 48.8636 32.3293 48.8636Z" fill="#2F3791"/>
</g>
</g>
</g>
</g>
</g>
</g>
</g>
<path id="Vector_107" d="M24.8676 53.9312C24.8676 53.9312 24.8474 53.9312 24.8352 53.9312C24.7258 53.915 24.6528 53.8136 24.6691 53.7041C25.1513 50.6173 24.4097 48.7879 24.4016 48.7677C24.3611 48.6663 24.4057 48.5486 24.507 48.5081C24.6083 48.4675 24.7258 48.5121 24.7663 48.6135C24.7987 48.6906 25.5606 50.5564 25.0621 53.7649C25.0459 53.8622 24.9608 53.9312 24.8676 53.9312Z" fill="#4B2E1F"/>
<path id="Vector_108" d="M5.95134 27.8319C6.52548 24.3644 4.67654 21.1695 1.82163 20.6959C-1.03327 20.2223 -3.81306 22.6494 -4.3872 26.117C-4.96133 29.5845 -3.1124 32.7794 -0.257488 33.253C2.59742 33.7266 5.37721 31.2995 5.95134 27.8319Z" fill="url(#paint9_radial_395_14137)"/>
<path id="Vector_109" d="M31.3803 56.8269C32.3002 59.4228 31.356 62.9517 28.4017 63.6332C26.4525 64.0834 24.3331 63.2843 22.6514 62.0026C21.9746 61.4874 21.3384 60.8831 20.8723 60.1489C19.2676 57.63 20.3536 54.2471 22.8742 52.795C26.1608 50.8967 30.2253 53.5697 31.3762 56.8269H31.3803Z" fill="url(#paint10_radial_395_14137)"/>
<g id="Group_29">
<g id="Group_30">
<path id="Vector_110" d="M22.1689 12.6555C22.1689 12.6555 13.3548 12.7894 11.4948 23.3842C11.4948 23.3842 1.73251 32.1902 16.3212 40.7204C22.9874 44.6184 33.2927 45.7582 38.877 39.3818C43.4562 34.1534 44.8786 23.2016 39.3106 18.0503C36.9602 15.8761 33.9452 14.5416 30.9667 13.5316C29.5767 13.0611 28.1664 12.6717 26.7076 12.4892C25.1352 12.2904 23.7128 12.6352 22.1689 12.6596V12.6555Z" fill="url(#paint11_radial_395_14137)"/>
<g id="Clip path group_4">
<mask id="mask4_395_14137" style="mask-type:luminance" maskUnits="userSpaceOnUse" x="8" y="12" width="35" height="32">
<g id="clippath-5">
<path id="Vector_111" d="M22.1689 12.6555C22.1689 12.6555 13.3548 12.7894 11.4948 23.3842C11.4948 23.3842 1.73251 32.1902 16.3212 40.7204C22.9874 44.6184 33.2927 45.7582 38.877 39.3818C43.4562 34.1534 44.8786 23.2016 39.3106 18.0503C36.9602 15.8761 33.9452 14.5416 30.9667 13.5316C29.5767 13.0611 28.1664 12.6717 26.7076 12.4892C25.1352 12.2904 23.7128 12.6352 22.1689 12.6596V12.6555Z" fill="white"/>
</g>
</mask>
<g mask="url(#mask4_395_14137)">
<g id="Group_31">
<path id="Vector_112" d="M17.6332 29.9964C18.3629 27.6312 17.0873 25.1367 14.7842 24.4249C12.4811 23.7131 10.0225 25.0534 9.29285 27.4186C8.56319 29.7838 9.83873 32.2782 12.1418 32.9901C14.445 33.7019 16.9035 32.3616 17.6332 29.9964Z" fill="#E7B788"/>
</g>
</g>
</g>
</g>
<g id="Group_32">
<path id="Vector_113" d="M25.7067 32.6358C25.6621 33.735 25.4433 35.9294 23.8953 35.8078C22.0757 35.6698 21.4273 33.1631 21.557 31.5934L22.9308 31.3135L25.7107 32.6358H25.7067Z" fill="#E59EA0"/>
<path id="Vector_114" d="M30.0057 29.4764C29.8436 30.243 29.2924 30.7987 28.8143 30.6973C28.3361 30.5959 28.174 29.8861 28.332 29.1235C28.4941 28.3569 28.9277 27.931 29.4059 28.0324C29.8841 28.1338 30.1678 28.7138 30.0057 29.4764Z" fill="#060001"/>
<path id="Vector_115" d="M19.1863 26.8397C19.0323 27.5657 19.2998 28.2634 19.7537 28.3567C20.2075 28.4541 20.6249 27.9024 20.7749 27.1723C20.9289 26.4462 20.7181 25.9108 20.2602 25.8135C19.8023 25.7161 19.3363 26.1096 19.1823 26.8356L19.1863 26.8397Z" fill="#060001"/>
<path id="Vector_116" d="M23.093 29.7642C22.6837 29.4113 22.5864 29.1192 22.708 28.8677C22.7404 28.7988 22.8093 28.7582 22.8823 28.742C23.3078 28.6487 23.7859 28.7014 24.3776 29.0462C24.4384 29.0787 24.4789 29.1395 24.483 29.2085C24.5235 29.6141 24.2398 29.825 23.7819 29.9345C23.5387 29.9913 23.2794 29.9305 23.0889 29.7642H23.093Z" fill="#060001"/>
<path id="Vector_117" d="M19.5224 23.4041C19.4049 23.2986 19.3603 23.1283 19.4171 22.9701C19.4941 22.7632 19.7251 22.6537 19.9358 22.7308C20.0209 22.7592 20.4829 22.9539 21.4352 23.83C21.5973 23.9801 21.6094 24.2356 21.4595 24.3979C21.3095 24.5601 21.0542 24.5723 20.8921 24.4222C20.0492 23.6515 19.6562 23.4852 19.6521 23.4852C19.5994 23.465 19.5549 23.4406 19.5184 23.4041H19.5224Z" fill="#CCAD89"/>
<path id="Vector_118" d="M30.537 26.5436C30.695 26.5355 30.8369 26.4341 30.8936 26.28C30.9706 26.0731 30.8571 25.8378 30.6504 25.7648C30.5653 25.7364 30.0872 25.5864 28.7944 25.6472C28.5716 25.6553 28.4014 25.846 28.4095 26.069C28.4176 26.2921 28.608 26.4625 28.8309 26.4544C29.9696 26.4017 30.3789 26.5274 30.383 26.5274C30.4357 26.5477 30.4843 26.5517 30.537 26.5517V26.5436Z" fill="#CCAD89"/>
<path id="Vector_119" d="M25.2366 32.8067C24.2478 32.5512 23.1982 31.8251 22.87 31.5899C21.6948 31.8778 20.9491 31.8251 20.6006 31.4276C20.3332 31.1234 20.3939 30.7137 20.4709 30.519C20.5236 30.3892 20.6695 30.3284 20.7992 30.3771C20.9289 30.4298 20.9897 30.5758 20.941 30.7015C20.941 30.7097 20.8519 30.949 20.9815 31.0909C21.0829 31.2045 21.4678 31.4276 22.8619 31.0666L22.9794 31.0342L23.0766 31.1072C23.6237 31.525 25.2366 32.5633 26.1119 32.3565C26.3267 32.3078 26.4766 32.1821 26.5779 31.9752C26.6387 31.8495 26.7927 31.7967 26.9143 31.8616C27.0399 31.9225 27.0926 32.0725 27.0318 32.1983C26.8616 32.5431 26.5901 32.7621 26.2294 32.8473C25.9296 32.9162 25.5891 32.8878 25.2406 32.7945L25.2366 32.8067Z" fill="#060001"/>
<path id="Vector_120" d="M23.4895 35.9983C23.0397 35.8847 22.6466 35.6251 22.3102 35.2317C21.4876 34.2663 21.212 32.7006 21.3012 31.573C21.3133 31.4351 21.4349 31.3296 21.5727 31.3418C21.7105 31.3539 21.8158 31.4756 21.8037 31.6135C21.7226 32.5992 21.9658 34.0513 22.6912 34.9031C23.0316 35.3006 23.4368 35.5237 23.9109 35.5602C24.2149 35.5846 24.4621 35.5034 24.6728 35.3169C25.1348 34.9031 25.3982 33.9986 25.4549 32.6276C25.459 32.4897 25.5765 32.3802 25.7183 32.3842C25.8561 32.3923 25.9655 32.5059 25.9615 32.6479C25.9007 34.1852 25.5886 35.1789 25.0132 35.6941C24.7012 35.974 24.3202 36.0956 23.8785 36.0632C23.7448 36.0551 23.6192 36.0307 23.4935 35.9983H23.4895Z" fill="#060001"/>
</g>
<path id="Vector_121" d="M38.5243 36.2666C39.2438 34.0085 37.9654 31.5837 35.669 30.8506C33.3725 30.1174 30.9276 31.3536 30.2081 33.6117C29.4886 35.8697 30.7669 38.2945 33.0634 39.0276C35.3598 39.7608 37.8047 38.5246 38.5243 36.2666Z" fill="#E7B788"/>
<path id="Vector_122" d="M42.537 17.567C44.5916 16.2609 46.1923 14.2531 48.4292 13.2918C50.885 12.2372 53.9445 12.7077 55.9262 14.5046C57.9078 16.3015 58.6656 19.3517 57.7011 21.8463C56.7569 24.2881 54.3984 26.0039 51.8738 26.6854C50.0988 27.164 47.9632 26.8963 44.081 27.1518C42.0385 27.2857 39.7246 26.6894 38.5494 25.0102C37.7187 23.8257 36.738 20.6254 36.8717 19.2747C38.902 19.011 40.7701 18.6946 42.541 17.5711L42.537 17.567Z" fill="url(#paint12_radial_395_14137)"/>
<path id="Vector_123" d="M17.7128 10.5478C18.3815 9.11599 20.355 7.79366 21.7936 7.0676C24.1278 5.8913 26.0527 3.3724 28.5571 2.52465C31.7545 1.44164 36.8686 4.32155 36.5444 8.02892C36.1473 12.5719 31.3168 10.8885 29.0596 13.233C28.5652 13.7441 28.3018 14.4337 27.8723 15.0056C26.8186 16.405 24.8735 16.8836 23.139 16.6443C20.1686 16.2306 14.6654 17.058 17.7169 10.5519L17.7128 10.5478Z" fill="url(#paint13_linear_395_14137)"/>
<g id="Group_33">
<path id="Vector_124" d="M36.5678 22.9091C36.4908 22.8888 36.4179 22.8604 36.349 22.8239C30.8661 19.9845 25.8897 18.1106 21.1443 17.0925C20.808 17.0194 20.5243 16.8004 20.3744 16.4921C20.2244 16.1879 20.2204 15.835 20.3622 15.5308C21.0552 14.0544 23.5798 13.6041 24.8685 13.0281L26.7002 9.72639C26.8663 9.42623 27.1216 9.18691 27.4296 9.03683C29.3464 8.10391 31.7171 8.08768 34.8982 8.9841C35.1211 9.04495 35.3318 9.13418 35.5264 9.2437C37.5769 10.3916 39.1492 11.8762 40.3406 13.7826C40.6 14.1963 40.6851 14.6831 40.5797 15.1576L39.7085 19.0678C38.744 21.0675 38.5576 21.1203 37.9416 22.114C37.7592 22.4061 37.6296 22.7184 37.3175 22.8563C37.0784 22.9618 36.815 22.9821 36.5678 22.9172V22.9091Z" fill="url(#paint14_radial_395_14137)"/>
<path id="Vector_125" d="M34.6584 17.8921C34.622 17.884 34.5896 17.8678 34.5571 17.8475C30.5371 14.9027 26.817 14.7729 26.7805 14.7729C26.6266 14.7729 26.5009 14.639 26.505 14.4849C26.505 14.3308 26.6387 14.205 26.7927 14.2091C26.9507 14.2091 30.7276 14.3429 34.8894 17.3932C35.0151 17.4865 35.0434 17.6609 34.9502 17.7867C34.8813 17.8799 34.7638 17.9205 34.6544 17.8962L34.6584 17.8921Z" fill="#252730"/>
<path id="Vector_126" d="M33.4954 13.5795C33.2523 13.1901 32.9565 12.9467 32.5836 12.9224C32.7417 12.5086 32.6323 12.1679 32.3121 11.884C32.1906 11.7785 32.0244 11.7339 31.8664 11.7623C31.4368 11.8434 31.2139 12.0989 31.1531 12.4924C30.5655 12.1882 30.1238 12.0989 29.8969 12.322C29.7996 12.4234 29.7794 12.5776 29.8321 12.7033C29.9334 12.9426 30.2049 13.1698 30.602 13.3969L30.6385 13.4132C30.5655 13.4983 30.5129 13.5957 30.4804 13.7093C30.3589 14.1554 30.6709 14.63 31.1734 14.7679C31.6759 14.9058 32.1865 14.6544 32.3081 14.2082C32.3202 14.1717 32.3243 14.1311 32.3283 14.0946C32.7539 14.1392 33.1105 14.1311 33.3536 14.0297C33.5279 13.9567 33.5887 13.7417 33.4873 13.5795H33.4954Z" fill="#EDC673"/>
</g>
</g>
</g>
</g>
</g>
</g>
</g>
<defs>
<radialGradient id="paint0_radial_395_14137" cx="0" cy="0" r="1" gradientUnits="userSpaceOnUse" gradientTransform="translate(-12.0985 39.2067) scale(29.38 29.4075)">
<stop offset="0.44" stop-color="#F7DEBE"/>
<stop offset="0.62" stop-color="#F2D8B7"/>
<stop offset="0.88" stop-color="#E5C8A5"/>
<stop offset="1" stop-color="#DEBF9B"/>
</radialGradient>
<radialGradient id="paint1_radial_395_14137" cx="0" cy="0" r="1" gradientUnits="userSpaceOnUse" gradientTransform="translate(14.688 26.0163) scale(32.006 32.0359)">
<stop stop-color="#EC994F"/>
<stop offset="0.28" stop-color="#EB9348"/>
<stop offset="0.67" stop-color="#E98436"/>
<stop offset="0.77" stop-color="#E98031"/>
</radialGradient>
<linearGradient id="paint2_linear_395_14137" x1="12.3914" y1="38.2501" x2="23.9131" y2="45.429" gradientUnits="userSpaceOnUse">
<stop offset="0.35" stop-color="#374861"/>
<stop offset="1" stop-color="#19304D"/>
</linearGradient>
<radialGradient id="paint3_radial_395_14137" cx="0" cy="0" r="1" gradientUnits="userSpaceOnUse" gradientTransform="translate(0.598266 40.4114) scale(7.7928 7.80008)">
<stop offset="0.35" stop-color="#36465F"/>
<stop offset="1" stop-color="#162F4B"/>
</radialGradient>
<radialGradient id="paint4_radial_395_14137" cx="0" cy="0" r="1" gradientUnits="userSpaceOnUse" gradientTransform="translate(17.7999 6.18953) scale(0.0648371 0.0648992)">
<stop stop-color="#6CA37D"/>
<stop offset="0.6" stop-color="#97C590"/>
</radialGradient>
<radialGradient id="paint5_radial_395_14137" cx="0" cy="0" r="1" gradientUnits="userSpaceOnUse" gradientTransform="translate(6.3966 23.7691) scale(22.1384 22.1591)">
<stop stop-color="#EC994F"/>
<stop offset="0.28" stop-color="#EB9348"/>
<stop offset="0.67" stop-color="#E98436"/>
<stop offset="0.77" stop-color="#E98031"/>
</radialGradient>
<linearGradient id="paint6_linear_395_14137" x1="2.63192" y1="35.7393" x2="-1.5941" y2="18.3197" gradientUnits="userSpaceOnUse">
<stop offset="0.44" stop-color="#F3DABC"/>
<stop offset="0.63" stop-color="#F0D5B5"/>
<stop offset="0.9" stop-color="#E8C8A3"/>
<stop offset="1" stop-color="#E4C29B"/>
</linearGradient>
<radialGradient id="paint7_radial_395_14137" cx="0" cy="0" r="1" gradientUnits="userSpaceOnUse" gradientTransform="translate(39.9474 46.459) scale(13.2433 13.2557)">
<stop stop-color="#EC994F"/>
<stop offset="0.28" stop-color="#EB9348"/>
<stop offset="0.67" stop-color="#E98436"/>
<stop offset="0.77" stop-color="#E98031"/>
</radialGradient>
<radialGradient id="paint8_radial_395_14137" cx="0" cy="0" r="1" gradientUnits="userSpaceOnUse" gradientTransform="translate(43.866 67.4869) scale(32.7719 32.8025)">
<stop offset="0.44" stop-color="#F3DABC"/>
<stop offset="0.54" stop-color="#F0D5B5"/>
<stop offset="0.67" stop-color="#E8C8A3"/>
<stop offset="0.72" stop-color="#E4C29B"/>
</radialGradient>
<radialGradient id="paint9_radial_395_14137" cx="0" cy="0" r="1" gradientUnits="userSpaceOnUse" gradientTransform="translate(2.9637 12.8555) rotate(9.41864) scale(18.0459 18.0618)">
<stop offset="0.44" stop-color="#FADFC2"/>
<stop offset="0.61" stop-color="#F7DABB"/>
<stop offset="0.86" stop-color="#F0CEA9"/>
<stop offset="1" stop-color="#EBC59C"/>
</radialGradient>
<radialGradient id="paint10_radial_395_14137" cx="0" cy="0" r="1" gradientUnits="userSpaceOnUse" gradientTransform="translate(23.2952 50.9522) rotate(-68.3284) scale(15.075 15.0648)">
<stop offset="0.44" stop-color="#F7DEBE"/>
<stop offset="0.62" stop-color="#F2D8B7"/>
<stop offset="0.88" stop-color="#E5C8A5"/>
<stop offset="1" stop-color="#DEBF9B"/>
</radialGradient>
<radialGradient id="paint11_radial_395_14137" cx="0" cy="0" r="1" gradientUnits="userSpaceOnUse" gradientTransform="translate(53.6152 23.0435) rotate(20.5476) scale(36.1393 37.6259)">
<stop offset="0.44" stop-color="#F3DABC"/>
<stop offset="0.54" stop-color="#F0D5B5"/>
<stop offset="0.67" stop-color="#E8C8A3"/>
<stop offset="0.72" stop-color="#E4C29B"/>
</radialGradient>
<radialGradient id="paint12_radial_395_14137" cx="0" cy="0" r="1" gradientUnits="userSpaceOnUse" gradientTransform="translate(37.353 32.0136) rotate(17.5954) scale(24.3693 24.3879)">
<stop offset="0.44" stop-color="#F3DABC"/>
<stop offset="0.63" stop-color="#F0D5B5"/>
<stop offset="0.9" stop-color="#E8C8A3"/>
<stop offset="1" stop-color="#E4C29B"/>
</radialGradient>
<linearGradient id="paint13_linear_395_14137" x1="25.915" y1="22.2386" x2="27.1982" y2="3.70198" gradientUnits="userSpaceOnUse">
<stop offset="0.44" stop-color="#F3DABC"/>
<stop offset="0.63" stop-color="#F0D5B5"/>
<stop offset="0.9" stop-color="#E8C8A3"/>
<stop offset="1" stop-color="#E4C29B"/>
</linearGradient>
<radialGradient id="paint14_radial_395_14137" cx="0" cy="0" r="1" gradientUnits="userSpaceOnUse" gradientTransform="translate(36.583 4.86121) rotate(17.5954) scale(19.7451 19.7601)">
<stop offset="0.35" stop-color="#36465F"/>
<stop offset="1" stop-color="#162F4B"/>
</radialGradient>
<clipPath id="clip0_395_14137">
<rect width="52" height="52" rx="26" fill="white"/>
</clipPath>
</defs>
</svg>
