<svg width="34" height="38" viewBox="0 0 34 38" fill="none" xmlns="http://www.w3.org/2000/svg">
<g id="Group 553">
<path id="Icon" d="M9.5 28.6628V28.5178M17.9375 28.6628V28.5178M17.9375 20.8036V20.6585M25.4375 20.8036C25.4375 20.7469 25.4375 20.7152 25.4375 20.6585M3.875 13.0892H30.125M7.26786 2V4.8932M26.375 2V4.89284M26.375 4.89284H7.625C4.5184 4.89284 2 7.48318 2 10.6785V29.9643C2 33.1597 4.5184 35.75 7.625 35.75H26.375C29.4816 35.75 32 33.1597 32 29.9643L32 10.6785C32 7.48318 29.4816 4.89284 26.375 4.89284Z" stroke="white" stroke-width="3" stroke-linecap="round" stroke-linejoin="round"/>
<g id="Group 554">
<circle id="Ellipse 2211" cx="17.8" cy="20.8" r="1.8" fill="white"/>
<circle id="Ellipse 2212" cx="25.2004" cy="20.8" r="1.8" fill="white"/>
<circle id="Ellipse 2213" cx="9.8" cy="28.8" r="1.8" fill="white"/>
<circle id="Ellipse 2214" cx="17.8" cy="28.8" r="1.8" fill="white"/>
</g>
</g>
</svg>
