<svg width="14" height="18" viewBox="0 0 14 18" fill="none" xmlns="http://www.w3.org/2000/svg">
<path id="Vector" d="M6.4427 17.2566C6.61158 17.4305 6.81423 17.5 7.01689 17.5C7.21954 17.5 7.4222 17.4305 7.59107 17.2566L11.9481 12.772C14.684 9.95603 14.684 5.40184 11.9481 2.58589C10.6309 1.26483 8.87455 0.5 7.01689 0.5C5.15923 0.5 3.4029 1.26483 2.05187 2.62065C-0.683957 5.43661 -0.683957 9.9908 2.05187 12.8067L6.40893 17.2914L6.4427 17.2566ZM5.09168 5.71472C5.59831 5.19325 6.27382 4.88037 7.01689 4.88037C7.75995 4.88037 8.43546 5.15849 8.9421 5.71472C9.44873 6.2362 9.75271 6.93149 9.75271 7.69632C9.75271 8.46115 9.48251 9.15644 8.9421 9.67791C8.43546 10.1994 7.75995 10.5123 7.01689 10.5123C6.27382 10.5123 5.59831 10.2342 5.09168 9.67791C4.58504 9.15644 4.28106 8.46115 4.28106 7.69632C4.28106 6.93149 4.55127 6.2362 5.09168 5.71472Z" fill="#EEEEEE"/>
</svg>
