<svg width="277" height="48" viewBox="0 0 277 48" fill="none" xmlns="http://www.w3.org/2000/svg">
<g clip-path="url(#clip0_553_4202)">
<path d="M51.3486 24C51.3486 37.2607 40.5941 48.0071 27.3305 48.0071C14.067 48.0071 3.3125 37.2607 3.3125 24C3.3125 10.7393 14.0598 0 27.3305 0C40.6012 0 51.3486 10.7464 51.3486 24Z" fill="#FAA61A"/>
<path d="M48.9382 24.0001C48.9382 35.9255 39.2642 45.5923 27.3298 45.5923C15.3954 45.5923 5.72852 35.9255 5.72852 24.0001C5.72852 12.0747 15.3954 2.41504 27.3298 2.41504C39.2642 2.41504 48.9382 12.0818 48.9382 24.0001Z" fill="#002F67"/>
<path d="M6.93617 24.1771C6.81533 24.1202 6.794 24.1771 6.88641 24.2481H6.90773C7.41951 24.6316 7.53324 25.0791 7.32 25.4626C6.99303 26.0451 6.42439 26.0735 6.20404 25.7254C5.92682 25.278 6.36041 24.7524 6.77268 25.2283C7.2347 24.0705 4.96724 24.1913 5.33686 25.7041C4.71135 25.5692 4.02187 25.2283 3.45323 24.66C3.3395 24.5464 3.29685 24.6174 3.36793 24.724C3.90814 25.5408 4.69003 26.0664 5.50745 26.457C6.28223 26.7766 6.95749 27.1531 7.24181 27.7213C7.42662 28.0835 7.12097 28.3321 6.85087 28.4245C5.65672 28.8293 4.61184 29.9231 4.96724 31.9971H3.1618C3.01964 31.6491 2.89169 31.0596 3.19023 30.3209C3.21866 30.2641 3.19023 30.2143 3.14048 30.257C2.72821 30.6405 2.52208 31.23 2.68556 31.99H2.03873C1.89657 31.6846 1.72598 31.1022 2.03873 30.3635C2.06005 30.3138 2.04584 30.2641 1.99608 30.3138C1.78995 30.5056 1.35636 31.0525 1.49852 31.99H0.951202C0.766393 31.99 0.695312 31.8764 0.695312 31.7059C0.695312 28.9217 3.4248 28.7725 4.64027 29.3336H4.64738C4.73978 29.3904 4.76822 29.3549 4.71135 29.291L4.69713 29.2697C4.48389 29.014 3.90814 28.5239 2.7211 28.6162C2.85615 28.2114 3.03385 27.1744 2.451 25.3135C1.22131 21.3857 2.89169 16.7334 6.36041 14.837C7.54746 14.1907 8.5639 14.0557 9.32446 14.3043C9.1823 14.4748 9.16809 14.8157 9.28182 14.972C8.59234 14.6737 7.4124 15.2135 7.79624 15.7391L7.81756 15.7604C7.86732 15.8314 7.89575 15.8101 7.88153 15.7249V15.6964C7.86732 15.4763 8.02369 15.3271 8.25115 15.2561C7.95261 15.5118 8.26537 16.0232 8.64209 15.8101C8.17296 15.7604 8.34355 15.2135 8.61366 15.1993C9.05436 15.1495 9.76516 15.5686 9.36 15.7106C9.26049 15.7462 8.9122 15.8243 8.7345 15.9663C8.66342 16.0161 8.67763 16.0303 8.74871 16.0232C9.15387 16.009 9.33868 15.945 9.67276 15.8882C11.926 15.4905 12.6795 16.8471 12.5942 17.4011C12.5728 17.3159 12.4165 17.117 12.3383 17.2519C12.2103 17.5147 11.7412 17.5716 11.3431 17.1454C11.2081 16.9891 10.9096 16.9465 10.5968 17.0033C10.0921 17.0886 9.85757 17.0744 9.63722 16.6198C9.58746 16.5914 9.58746 16.6198 9.59457 16.6553C9.61589 17.0033 9.68697 17.6355 10.348 17.742C10.5826 17.7988 10.8243 17.5289 11.1654 17.742C11.3929 17.948 11.6417 18.2108 12.0113 18.1185C12.3454 18.0403 12.3596 18.1753 12.4022 18.2818C12.4662 18.573 12.3241 18.6938 12.0824 18.5233C11.9758 18.4523 11.8265 18.3742 11.6772 18.3528C10.5968 18.2179 9.56614 19.1412 8.72739 17.6568C8.62077 17.4721 8.44307 17.2803 8.24404 17.2235C7.87443 17.117 7.63986 17.3372 7.47638 17.6142C7.22759 18.0545 7.4124 17.8983 7.68962 17.7136C7.83178 17.6284 8.09477 17.6426 8.22983 17.7562C8.30802 17.8344 8.3862 18.0332 8.27247 18.2108C8.05923 18.5233 7.81756 18.8358 7.66829 18.8784C7.46927 18.9282 7.41951 18.6085 7.39819 18.4239C7.38397 18.3173 7.33421 18.3244 7.31289 18.4381C7.26313 18.7293 7.28446 19.1483 7.54035 19.1626C7.9384 19.191 8.28669 18.7648 8.54258 18.36C8.59944 18.3031 8.65631 18.3102 8.71317 18.36C9.24628 18.9353 9.90021 18.985 10.7887 18.7861C11.0944 18.7151 11.4142 18.7009 11.663 18.7435C12.253 18.8571 12.3667 19.2478 12.3169 19.6455C12.2388 20.0149 12.1677 20.0575 12.0042 20.1782C11.9331 20.2351 11.9331 20.299 11.99 20.3061C11.99 20.3061 12.0539 20.3913 11.9544 20.5973C11.9189 20.6612 11.8834 20.7251 11.8407 20.7749C11.8194 20.8104 11.7981 20.8317 11.7981 20.8388C11.5848 21.1442 11.3645 21.3644 11.2294 21.4709C10.8314 21.7621 10.7105 21.9397 10.9877 21.9326C11.0588 21.9326 11.137 21.9184 11.201 21.89C11.2223 21.9042 11.2365 21.9255 11.265 21.9397C12.0326 22.4582 13.2765 23.8929 14.0868 25.214C14.165 25.349 14.5702 25.3774 15.1175 25.8959C16.859 27.5366 17.8754 29.3336 18.0389 31.7272C18.0389 31.8835 17.9394 31.9971 17.783 31.9971H15.5156C15.4516 31.7556 15.4232 31.4076 15.6009 30.9956C15.6222 30.953 15.608 30.9246 15.5724 30.953C15.3094 31.1874 15.1602 31.5568 15.2241 31.99H14.819C14.7408 31.7698 14.6768 31.4147 14.8687 30.9743C14.8829 30.9459 14.8687 30.9104 14.8403 30.9388C14.7052 31.0596 14.4494 31.3295 14.4849 31.99H14.2219C14.0797 31.99 13.9305 31.9616 13.9376 31.7769C13.8736 30.4914 16.1055 29.0779 17.4703 30.9672V30.9814C17.5485 31.0951 17.5982 31.0667 17.5556 30.953L17.5413 30.9246C17.2286 30.1291 16.1695 29.433 15.0678 29.8237C14.6839 29.1987 14.3996 28.6802 14.4494 27.1247C14.4494 26.9968 14.3996 26.9968 14.3712 27.1105C14.1792 27.9344 14.2077 29.156 14.5489 30.0723C13.966 30.3848 13.6817 30.9033 13.568 31.4502C13.5324 31.6491 13.1557 31.6491 13.2197 31.4076C13.3263 31.0098 13.5182 29.0779 13.3263 28.2114C13.4258 27.3093 13.3263 26.4996 12.7292 26.0664C12.914 26.0024 13.042 25.8462 13.0349 25.6047C13.0562 25.0223 12.1464 24.2836 12.0682 24.9299C12.0682 24.9299 12.0682 25.0081 12.0753 24.9584C12.2103 24.6529 12.8643 25.1288 12.6084 25.4911C12.3738 25.8178 11.6914 25.3632 11.7341 24.8163C11.8123 23.7935 12.8998 24.5677 13.5609 25.5266C14.0442 26.2297 14.5773 26.4215 14.9043 26.4641C15.0322 26.4854 15.0393 26.4357 14.9327 26.3931H14.9043C14.5275 26.2368 14.0868 25.903 13.4969 24.9299C11.8549 22.2167 10.3622 23.6657 11.3858 25.349C11.5635 25.6331 11.791 25.8391 12.0184 25.9598C11.5777 26.5423 12.6937 27.5153 12.8358 27.0394C12.8643 26.9542 12.8216 26.8477 12.7505 26.7411C12.5373 27.1318 12.1321 26.1303 12.5657 26.3292C12.8998 26.4854 13.2339 27.2525 13.0846 27.8634C12.9425 27.6432 12.5657 27.2312 12.2672 27.4159C12.1321 27.494 12.1179 27.7355 12.2388 27.9912C12.4093 28.3463 12.779 28.5097 12.8429 28.3108C12.8643 28.2469 12.8429 28.1546 12.7861 28.0693C12.7363 28.2185 12.5231 28.0906 12.4946 27.8563C12.4804 27.7426 12.5302 27.6716 12.651 27.7426C12.9851 27.9202 13.042 28.2824 13.0562 28.9714C13.0277 32.1037 12.0397 32.0042 11.7128 32.0042H8.77715C8.5639 31.6562 8.23693 30.8962 8.5639 29.8734C8.58523 29.8095 8.5639 29.7456 8.49993 29.8166C8.25826 30.0865 7.80334 30.6689 8.05213 32.0113H7.24181C7.02146 31.6633 6.7016 30.9033 7.02857 29.8805C7.04989 29.8166 7.02857 29.7527 6.9646 29.8237C6.72292 30.0936 6.26801 30.676 6.51679 32.0184H5.97658C5.61407 32.0184 5.57142 31.8196 5.52167 31.4573C5.2018 27.7497 10.1703 28.3037 12.0042 29.6674L12.0255 29.6816C12.125 29.7598 12.1606 29.7172 12.0824 29.6248L12.0682 29.6035C11.4213 28.8577 9.97129 28.1617 8.26537 28.1972C7.80334 28.2185 7.66829 27.9273 7.65408 27.6858C7.62564 27.1673 7.61143 26.9542 7.62564 26.7411C7.62564 25.626 9.27471 24.66 10.0495 23.2253C10.1632 23.0122 10.085 22.9554 9.94997 23.1472C9.34579 23.9711 8.64209 24.7098 7.86021 25.1998C7.86021 25.1785 7.86021 25.1572 7.84599 25.1359C7.78202 24.7595 7.34843 24.3617 6.94327 24.2055H6.92906L6.93617 24.1771Z" fill="white"/>
<path d="M9.56004 14.5963C9.67377 13.9996 10.6262 13.9925 10.5978 14.5465C10.5765 14.8733 10.0647 14.8733 10.1216 14.5821C10.1216 14.5678 10.1074 14.5536 10.086 14.5678C9.94388 14.6886 10.0078 15.0153 10.3206 15.0721C10.6973 15.1432 10.9106 15.3491 10.9461 15.5906C10.4485 15.4273 9.39656 15.4699 9.56004 14.5963Z" fill="white"/>
<path d="M3.53833 19.5394C3.75868 19.4045 4.00035 19.1559 4.00035 18.7652C4.00035 18.6161 3.92927 18.4598 3.92216 18.2539C3.90795 18.0337 4.00746 17.8419 4.18516 17.7212C4.34865 17.6146 4.56189 17.5862 4.73959 17.6501C4.93861 17.7212 4.98126 17.8987 4.94572 18.0408C4.90307 18.1686 4.80356 18.2823 4.66851 18.261H4.6614C4.51213 18.2183 4.45527 18.1047 4.44105 18.0053C4.31311 18.0763 4.25624 18.197 4.27046 18.3391C4.29889 18.4811 4.41973 18.6516 4.69694 18.7013C4.89596 18.7368 5.09499 18.6658 5.22293 18.5024C5.34377 18.3604 5.40063 18.1757 5.38642 17.9911C5.40063 17.8419 5.3722 17.6856 5.27269 17.5365C5.20161 17.4441 5.09499 17.3731 4.98837 17.2453C4.88175 17.1103 4.86042 16.947 4.91729 16.7836C4.96705 16.6344 5.09499 16.5279 5.23715 16.4853C5.39353 16.4427 5.50015 16.535 5.5428 16.6486C5.57123 16.741 5.55701 16.8688 5.46461 16.9043C5.46461 16.9043 5.46461 16.9043 5.45039 16.9043C5.35088 16.9541 5.25847 16.9043 5.20872 16.8475C5.15896 16.947 5.17318 17.0535 5.25137 17.1316C5.32955 17.2098 5.47882 17.2666 5.67785 17.1742C5.82001 17.1032 5.91241 16.9754 5.91952 16.8049C5.93374 16.5847 5.8129 16.3645 5.62098 16.2509C5.43617 16.1372 5.1021 16.123 4.86753 16.2651C4.64008 16.4072 4.54767 16.67 4.58321 16.9043C4.59743 17.0038 4.61875 17.089 4.65429 17.16C4.59743 17.1458 4.54767 17.1387 4.49791 17.1316C4.14962 17.1032 3.85819 17.3092 3.72314 17.5862C3.52411 17.9626 3.58809 18.2539 3.64495 18.538C3.6876 18.7723 3.73025 18.9854 3.62363 19.2198C3.58098 19.3051 3.53833 19.3832 3.48147 19.44L3.46014 19.4684C3.37485 19.5536 3.41039 19.5963 3.5099 19.5323L3.53122 19.5181L3.53833 19.5394Z" fill="#002F67"/>
<path d="M12.5663 32.6089C13.0639 32.6089 13.2345 32.3319 13.3197 32.1473C13.3553 32.0762 13.3624 32.0904 13.3624 32.1473C13.3766 32.4598 13.7178 32.6089 13.9097 32.6089H17.5064C18.5299 32.6089 18.6294 32.2112 18.5939 31.437C18.4517 29.2138 16.7032 25.8898 14.5139 24.8741C13.8031 23.7803 12.5379 22.3242 11.7062 21.5998C12.0829 21.1878 12.5165 20.4562 12.6587 19.9519C12.8364 19.6749 12.8151 18.9789 12.6871 18.8794C12.8151 18.5314 12.7369 18.2473 12.6445 18.0484C13.0923 17.6293 13.0283 15.8821 11.294 15.6619C11.2797 15.2642 11.031 15.0582 10.7324 14.9161C11.2797 14.6391 10.8177 13.6447 9.77995 13.9217C9.5596 13.7868 9.15444 13.666 8.62134 13.6731C8.0598 13.6731 7.349 13.6945 6.15485 14.3479C2.45157 16.3722 0.475534 21.2091 1.81895 25.5346C2.65059 28.2195 2.11038 28.4539 1.02996 29.3417C0.105916 30.1656 -0.0078125 30.8333 -0.0078125 31.4938C-0.0078125 32.1544 0.12724 32.616 1.04418 32.616H12.5663V32.6089ZM9.5596 14.5965C9.67333 13.9999 10.6258 13.9928 10.5974 14.5468C10.576 14.8735 10.0643 14.8735 10.1211 14.5823C10.1211 14.5681 10.1069 14.5539 10.0856 14.5681C9.94343 14.6888 10.0074 15.0156 10.3202 15.0724C10.6969 15.1434 10.9101 15.3494 10.9457 15.5909C10.4481 15.4275 9.39611 15.4701 9.5596 14.5965ZM6.93673 24.178C6.8159 24.1212 6.79457 24.178 6.88698 24.2491H6.9083C7.42008 24.6326 7.53381 25.0801 7.32057 25.4636C6.9936 26.046 6.42496 26.0745 6.20461 25.7264C5.92739 25.279 6.36098 24.7534 6.77325 25.2292C7.23527 24.0715 4.96781 24.1922 5.33743 25.7051C4.71192 25.5702 4.02244 25.2292 3.4538 24.661C3.34007 24.5474 3.29742 24.6184 3.3685 24.7249C3.90871 25.5418 4.6906 26.0673 5.50802 26.458C6.2828 26.7776 6.95806 27.1541 7.24238 27.7223C7.42719 28.0845 7.12154 28.3331 6.85144 28.4254C5.65729 28.8303 4.61241 29.9241 4.96781 31.9981H3.16237C3.02021 31.6501 2.89226 31.0605 3.1908 30.3219C3.21923 30.265 3.1908 30.2153 3.14105 30.2579C2.72878 30.6415 2.52265 31.231 2.68613 31.991H2.0393C1.89714 31.6856 1.72655 31.1032 2.0393 30.3645C2.06062 30.3148 2.04641 30.265 1.99665 30.3148C1.79052 30.5065 1.35693 31.0534 1.49909 31.991H0.951772C0.766963 31.991 0.695883 31.8773 0.695883 31.7069C0.695883 28.9226 3.42537 28.7735 4.64084 29.3346H4.64795C4.74035 29.3914 4.76878 29.3559 4.71192 29.292L4.6977 29.2707C4.48446 29.015 3.90871 28.5249 2.72167 28.6172C2.85672 28.2124 3.03443 27.1754 2.45157 25.3145C1.22188 21.3867 2.89226 16.7344 6.36098 14.838C7.54803 14.1916 8.56447 14.0567 9.32503 14.3053C9.18287 14.4758 9.16866 14.8167 9.28238 14.9729C8.59291 14.6746 7.41297 15.2144 7.79681 15.74L7.81813 15.7613C7.86789 15.8324 7.89632 15.8111 7.8821 15.7258V15.6974C7.86789 15.4772 8.02426 15.3281 8.25172 15.2571C7.95318 15.5127 8.26594 16.0241 8.64266 15.8111C8.17353 15.7613 8.34412 15.2144 8.61423 15.2002C9.05493 15.1505 9.76573 15.5696 9.36057 15.7116C9.26106 15.7471 8.91277 15.8253 8.73507 15.9673C8.66399 16.017 8.6782 16.0312 8.74928 16.0241C9.15444 16.0099 9.33925 15.946 9.67333 15.8892C11.9266 15.4914 12.68 16.8481 12.5947 17.4021C12.5734 17.3168 12.417 17.118 12.3388 17.2529C12.2109 17.5157 11.7418 17.5725 11.3437 17.1464C11.2087 16.9901 10.9101 16.9475 10.5974 17.0043C10.0927 17.0895 9.85814 17.0753 9.63779 16.6208C9.58803 16.5924 9.58803 16.6208 9.59514 16.6563C9.61646 17.0043 9.68754 17.6365 10.3486 17.743C10.5832 17.7998 10.8248 17.5299 11.166 17.743C11.3935 17.949 11.6423 18.2118 12.0119 18.1194C12.3459 18.0413 12.3602 18.1763 12.4028 18.2828C12.4668 18.574 12.3246 18.6948 12.0829 18.5243C11.9763 18.4533 11.8271 18.3751 11.6778 18.3538C10.5974 18.2189 9.56671 19.1422 8.72796 17.6578C8.62134 17.4731 8.44364 17.2813 8.24461 17.2245C7.87499 17.118 7.64043 17.3381 7.47695 17.6151C7.22816 18.0555 7.41297 17.8993 7.69019 17.7146C7.83235 17.6294 8.09534 17.6436 8.2304 17.7572C8.30858 17.8353 8.38677 18.0342 8.27304 18.2118C8.0598 18.5243 7.81813 18.8368 7.66886 18.8794C7.46984 18.9291 7.42008 18.6095 7.39876 18.4249C7.38454 18.3183 7.33478 18.3254 7.31346 18.4391C7.2637 18.7303 7.28503 19.1493 7.54092 19.1635C7.93897 19.1919 8.28726 18.7658 8.54315 18.3609C8.60001 18.3041 8.65688 18.3112 8.71374 18.3609C9.24685 18.9362 9.90078 18.986 10.7893 18.7871C11.0949 18.7161 11.4148 18.7019 11.6636 18.7445C12.2535 18.8581 12.3673 19.2488 12.3175 19.6465C12.2393 20.0159 12.1682 20.0585 12.0048 20.1792C11.9337 20.236 11.9337 20.3 11.9905 20.3071C11.9905 20.3071 12.0545 20.3923 11.955 20.5983C11.9195 20.6622 11.8839 20.7261 11.8413 20.7758C11.82 20.8114 11.7986 20.8327 11.7986 20.8398C11.5854 21.1452 11.365 21.3654 11.23 21.4719C10.8319 21.7631 10.7111 21.9407 10.9883 21.9336C11.0594 21.9336 11.1376 21.9194 11.2016 21.891C11.2229 21.9052 11.2371 21.9265 11.2655 21.9407C12.0332 22.4592 13.2771 23.8939 14.0874 25.215C14.1656 25.35 14.5708 25.3784 15.1181 25.8969C16.8595 27.5376 17.876 29.3346 18.0395 31.7282C18.0395 31.8845 17.94 31.9981 17.7836 31.9981H15.5161C15.4522 31.7566 15.4237 31.4086 15.6014 30.9966C15.6227 30.954 15.6085 30.9256 15.573 30.954C15.31 31.1884 15.1607 31.5577 15.2247 31.991H14.8195C14.7414 31.7708 14.6774 31.4157 14.8693 30.9753C14.8835 30.9469 14.8693 30.9114 14.8409 30.9398C14.7058 31.0605 14.4499 31.3304 14.4855 31.991H14.2225C14.0803 31.991 13.931 31.9626 13.9381 31.7779C13.8742 30.4923 16.1061 29.0789 17.4708 30.9682V30.9824C17.549 31.0961 17.5988 31.0676 17.5561 30.954L17.5419 30.9256C17.2292 30.1301 16.1701 29.434 15.0683 29.8247C14.6845 29.1996 14.4002 28.6811 14.4499 27.1256C14.4499 26.9978 14.4002 26.9978 14.3717 27.1114C14.1798 27.9354 14.2083 29.157 14.5494 30.0733C13.9666 30.3858 13.6823 30.9043 13.5685 31.4512C13.533 31.6501 13.1563 31.6501 13.2202 31.4086C13.3269 31.0108 13.5188 29.0789 13.3269 28.2124C13.4264 27.3103 13.3269 26.5006 12.7298 26.0673C12.9146 26.0034 13.0425 25.8472 13.0354 25.6057C13.0567 25.0233 12.1469 24.2846 12.0687 24.9309C12.0687 24.9309 12.0687 25.009 12.0758 24.9593C12.2109 24.6539 12.8648 25.1298 12.6089 25.492C12.3744 25.8188 11.692 25.3642 11.7347 24.8173C11.8128 23.7945 12.9004 24.5687 13.5614 25.5275C14.0448 26.2307 14.5779 26.4225 14.9048 26.4651C15.0328 26.4864 15.0399 26.4367 14.9333 26.3941H14.9048C14.5281 26.2378 14.0874 25.904 13.4974 24.9309C11.8555 22.2177 10.3628 23.6666 11.3864 25.35C11.5641 25.6341 11.7915 25.8401 12.019 25.9608C11.5783 26.5432 12.6942 27.5163 12.8364 27.0404C12.8648 26.9552 12.8222 26.8486 12.7511 26.7421C12.5379 27.1328 12.1327 26.1313 12.5663 26.3301C12.9004 26.4864 13.2345 27.2535 13.0852 27.8643C12.943 27.6441 12.5663 27.2322 12.2678 27.4169C12.1327 27.495 12.1185 27.7365 12.2393 27.9922C12.4099 28.3473 12.7795 28.5107 12.8435 28.3118C12.8648 28.2479 12.8435 28.1555 12.7866 28.0703C12.7369 28.2195 12.5236 28.0916 12.4952 27.8572C12.481 27.7436 12.5308 27.6726 12.6516 27.7436C12.9857 27.9212 13.0425 28.2834 13.0568 28.9724C13.0283 32.1046 12.0403 32.0052 11.7133 32.0052H8.77771C8.56447 31.6572 8.2375 30.8972 8.56447 29.8744C8.5858 29.8105 8.56447 29.7465 8.5005 29.8176C8.25883 30.0875 7.80391 30.6699 8.0527 32.0123H7.24238C7.02203 31.6643 6.70217 30.9043 7.02914 29.8815C7.05046 29.8176 7.02914 29.7536 6.96517 29.8247C6.72349 30.0946 6.26858 30.677 6.51736 32.0194H5.97715C5.61464 32.0194 5.57199 31.8205 5.52224 31.4583C5.20237 27.7507 10.1709 28.3047 12.0048 29.6684L12.0261 29.6826C12.1256 29.7607 12.1611 29.7181 12.0829 29.6258L12.0687 29.6045C11.4219 28.8587 9.97186 28.1626 8.26594 28.1982C7.80391 28.2195 7.66886 27.9283 7.65465 27.6868C7.62621 27.1683 7.612 26.9552 7.62621 26.7421C7.62621 25.627 9.27528 24.661 10.0501 23.2263C10.1638 23.0132 10.0856 22.9564 9.95054 23.1481C9.34636 23.9721 8.64266 24.7107 7.86078 25.2008C7.86078 25.1795 7.86078 25.1582 7.84656 25.1369C7.78259 24.7605 7.349 24.3627 6.94384 24.2064H6.92963L6.93673 24.178Z" fill="#002F67"/>
<path d="M20.164 39.0084C20.1853 38.909 20.2066 38.8025 20.2208 38.6959C20.2351 38.5894 20.2422 38.4757 20.2422 38.355V37.7371H19.6522V38.4615C19.6522 38.6107 19.6309 38.7599 19.5882 38.9161C19.5456 39.0724 19.4816 39.2215 19.3892 39.3707C19.2968 39.5198 19.1831 39.6619 19.0409 39.7968C18.8988 39.9318 18.7211 40.0525 18.522 40.152H18.5078L18.5149 40.1733L18.8774 40.5852H18.8845C19.0693 40.4787 19.2613 40.3438 19.4461 40.1733C19.6309 40.0099 19.7944 39.8039 19.9223 39.5696L20.9459 40.5639H20.953H20.9601L21.3297 40.1804H21.3368L21.3297 40.1662L20.1498 39.0156L20.164 39.0084ZM21.9623 37.2825V38.6604H20.8392V39.2002H21.9623V41.9206H22.5238V37.2754H21.9623V37.2825Z" fill="white"/>
<path d="M24.3659 38.9794C24.4797 39.0647 24.6076 39.1286 24.7498 39.1712C24.8919 39.2138 25.0483 39.2351 25.2118 39.2351C25.3824 39.2351 25.5459 39.2138 25.6951 39.1641C25.8444 39.1144 25.9723 39.0504 26.079 38.9652C26.1856 38.88 26.2709 38.7734 26.3349 38.6527C26.3988 38.5319 26.4273 38.397 26.4273 38.2478C26.4273 38.0987 26.3917 37.9566 26.3277 37.8288C26.2638 37.708 26.1714 37.6015 26.0647 37.5163C25.9581 37.431 25.8231 37.36 25.6738 37.3103C25.5245 37.2606 25.3682 37.2393 25.1976 37.2393C25.027 37.2393 24.8706 37.2606 24.7213 37.3103C24.5721 37.36 24.4441 37.4239 24.3446 37.5163C24.238 37.6015 24.1527 37.7151 24.0887 37.8359C24.0247 37.9566 23.9963 38.0987 23.9963 38.2549C23.9963 38.4112 24.0319 38.5462 24.0887 38.6669C24.1527 38.7876 24.238 38.8942 24.3517 38.9794H24.3659ZM24.764 37.8785C24.8848 37.7933 25.0341 37.7435 25.2189 37.7435C25.4037 37.7435 25.5459 37.7862 25.6667 37.8785C25.7946 37.9637 25.8515 38.0916 25.8515 38.2478C25.8515 38.4112 25.7875 38.5319 25.6667 38.6101C25.5388 38.6882 25.3895 38.7308 25.2189 38.7308C25.0483 38.7308 24.8848 38.6882 24.764 38.603C24.6431 38.5177 24.5863 38.397 24.5863 38.2478C24.5863 38.0916 24.6502 37.9637 24.764 37.8785ZM27.4508 39.8957V39.363H23.0723V39.8957H24.9559V40.123H24.0247V40.6414H25.887V40.819H24.0461V42.0833H26.5978V41.5435H24.6289V41.3375H26.4699V40.123H25.5174V39.8957H27.4437H27.4508Z" fill="white"/>
<path d="M29.9025 40.812V39.6898H29.341V40.812H27.5V41.3518H31.8643V40.812H29.9025ZM28.2961 40.2153H28.3032C28.5875 40.1017 28.8505 39.9454 29.078 39.7537C29.3054 39.5619 29.4902 39.3417 29.6324 39.1073L30.9403 40.2011H30.9474H30.9545L31.317 39.8034H31.3241L31.317 39.7892L29.8741 38.5746C29.8954 38.4894 29.9167 38.4042 29.9309 38.3189C29.9452 38.2337 29.9523 38.1414 29.9523 38.0561V37.6797H29.341V38.0561C29.341 38.2408 29.3054 38.4255 29.2273 38.603C29.1562 38.7735 29.0496 38.944 28.9216 39.0931C28.7937 39.2423 28.6444 39.3772 28.4738 39.498C28.3032 39.6187 28.1184 39.7182 27.9265 39.7963H27.9123L27.9265 39.8176L28.289 40.2225L28.2961 40.2153Z" fill="white"/>
<path d="M33.8547 37.5737H33.286V38.2911H32.3265V37.5737H31.7578V39.8111H33.8547V37.5737ZM33.286 39.2783H32.3265V38.8167H33.286V39.2783ZM34.864 40.3509C34.7574 40.2585 34.6295 40.1875 34.4873 40.1378C34.3451 40.0881 34.1959 40.0596 34.0466 40.0596C33.8973 40.0596 33.741 40.0881 33.5988 40.1378C33.4566 40.1946 33.3358 40.2656 33.2292 40.358C33.1226 40.4503 33.0373 40.5639 32.9733 40.6918C32.9093 40.8196 32.8809 40.9617 32.8809 41.1037C32.8809 41.2458 32.9093 41.3879 32.9662 41.5157C33.023 41.6435 33.1083 41.7572 33.215 41.8495C33.3216 41.9419 33.4424 42.0129 33.5846 42.0697C33.7267 42.1265 33.8831 42.1549 34.0537 42.1549C34.2172 42.1549 34.3665 42.1265 34.5086 42.0697C34.6508 42.0129 34.7716 41.9419 34.8782 41.8424C34.9849 41.7501 35.0702 41.6364 35.127 41.5086C35.191 41.3807 35.2194 41.2387 35.2194 41.0966C35.2194 40.9546 35.1839 40.8054 35.1199 40.6776C35.0559 40.5497 34.9706 40.4432 34.864 40.3509ZM34.4731 41.4802C34.3594 41.5725 34.2172 41.6222 34.0537 41.6222C33.8689 41.6222 33.7267 41.5725 33.6201 41.466C33.5135 41.3665 33.4566 41.2387 33.4566 41.0966C33.4566 40.9546 33.5135 40.8409 33.6272 40.7415C33.741 40.6421 33.8831 40.5923 34.0466 40.5923C34.2101 40.5923 34.3594 40.6421 34.4731 40.7415C34.5868 40.8409 34.6437 40.9617 34.6437 41.1179C34.6437 41.2742 34.5868 41.395 34.4802 41.4944L34.4731 41.4802ZM35.2479 38.355V37.2754H34.6721V40.0454H35.2479V38.8948H36.044V38.355H35.2479Z" fill="white"/>
<path d="M14.4349 12.8701C13.9445 13.4312 13.518 13.2536 13.1626 12.8985L13.5606 12.4439C13.7668 12.6286 13.9516 12.7706 14.1719 12.522C14.307 12.3658 14.2714 12.2024 14.1222 12.0746C13.7312 11.7336 12.8996 12.6286 12.2528 12.0603C11.9116 11.762 11.7836 11.3643 12.267 10.8032C12.6579 10.3557 13.0489 10.3131 13.4753 10.7392L13.0844 11.1867C12.9209 11.0447 12.729 10.9239 12.5726 11.1086C12.4447 11.2577 12.4518 11.414 12.6011 11.549C13.0133 11.9112 13.781 10.9594 14.4705 11.5561C15.0391 12.0461 14.7406 12.522 14.4349 12.8701Z" fill="white"/>
<path d="M15.0624 10.8169C15.2259 10.9944 15.4747 11.2572 15.6595 11.0939C15.8088 10.9589 15.7093 10.7885 15.5955 10.6677L16.022 10.2842C16.1642 10.4546 16.2282 10.6322 16.2139 10.8169C16.1997 10.9944 16.1002 11.1862 15.9012 11.3638C15.361 11.8539 14.9914 11.5911 14.5649 11.1152C14.1953 10.7032 13.9323 10.2984 14.4867 9.80119C15.0553 9.2898 15.4463 9.60232 15.8657 10.0924L15.0624 10.8169ZM15.233 10.2345C15.098 10.0924 14.9203 9.87222 14.7213 10.0569C14.5293 10.2345 14.7355 10.4546 14.8492 10.5825L15.233 10.2345Z" fill="white"/>
<path d="M16.0928 9.75872C15.7658 9.31125 15.5597 8.87799 16.1639 8.44472C16.7681 8.01146 17.1092 8.34529 17.4362 8.79986C17.8058 9.31125 17.9906 9.73031 17.3936 10.1565C16.8036 10.5826 16.4624 10.2772 16.0928 9.76582V9.75872ZM16.96 9.09817C16.7112 8.75724 16.5761 8.59388 16.3771 8.73593C16.1852 8.87799 16.2918 9.06266 16.5335 9.40359C16.896 9.90788 17.0168 9.98601 17.1803 9.85816C17.3509 9.73741 17.3154 9.59536 16.9529 9.09817H16.96Z" fill="white"/>
<path d="M19.0767 8.80773C19.0696 9.02791 18.963 9.15576 18.7782 9.2552C18.5436 9.39015 18.2593 9.36174 18.1242 9.11314L17.3281 7.69261L17.8257 7.4156L18.5152 8.63726C18.6005 8.79352 18.6929 8.89296 18.8564 8.80773C19.0127 8.7225 18.9772 8.58754 18.8919 8.43129L18.2024 7.20962L18.7 6.93262L19.4961 8.35316C19.56 8.4668 19.6311 8.58754 19.7093 8.69408L19.1975 8.97819L19.098 8.80063L19.0767 8.80773Z" fill="white"/>
<path d="M19.4056 5.66113L20.5926 8.30333L20.0738 8.53772L18.8867 5.89552L19.4056 5.66113Z" fill="white"/>
<path d="M22.0351 7.74895L21.2461 4.96469L22.6961 4.55273L22.817 4.9789L21.9498 5.22039L22.1559 5.93066L22.9805 5.69627L23.1013 6.12243L22.2768 6.35682L22.6251 7.57138L22.0422 7.73474L22.0351 7.74895Z" fill="white"/>
<path d="M23.8103 4.33301L23.8956 4.77337L23.3412 4.87992L23.2559 4.43955L23.8103 4.33301ZM24.3576 7.17409L23.8032 7.28063L23.4193 5.29187L23.9738 5.18533L24.3576 7.17409Z" fill="white"/>
<path d="M25.1835 5.01448L25.2119 5.27728H25.219C25.2972 5.03578 25.482 4.94345 25.7095 4.91504L25.7664 5.41933C25.2688 5.44774 25.2972 5.73185 25.3185 5.93072L25.4465 7.02454L24.885 7.08846L24.6504 5.0784L25.1835 5.01448Z" fill="white"/>
<path d="M26.6463 6.00845C26.6463 6.24994 26.6677 6.61218 26.9165 6.60508C27.1155 6.60508 27.151 6.4062 27.151 6.23574L27.7268 6.22153C27.7268 6.44172 27.6557 6.62639 27.5206 6.75423C27.3927 6.88208 27.1937 6.96021 26.9307 6.96732C26.1985 6.98152 26.0919 6.54115 26.0777 5.90901C26.0635 5.355 26.1346 4.87912 26.8809 4.86492C27.6415 4.84361 27.741 5.3408 27.7339 5.98714L26.6535 6.00845H26.6463ZM27.1581 5.68173C27.1581 5.48285 27.1581 5.20585 26.888 5.21295C26.625 5.21295 26.6392 5.52547 26.6392 5.69593L27.1581 5.68173Z" fill="white"/>
<path d="M29.9606 7.17357C29.2213 7.05283 29.1503 6.59826 29.264 6.10817L29.8611 6.2005C29.8184 6.47041 29.79 6.7048 30.1241 6.75451C30.3231 6.78293 30.4439 6.66928 30.4795 6.47751C30.5648 5.95901 29.3635 5.73883 29.4986 4.88651C29.5696 4.43904 29.8397 4.11942 30.5719 4.23306C31.1547 4.32539 31.4035 4.63081 31.2685 5.22744L30.6856 5.1351C30.7211 4.92202 30.7211 4.69473 30.4795 4.65922C30.2875 4.63081 30.1525 4.71604 30.1241 4.91492C30.0388 5.45472 31.2471 5.60388 31.105 6.49882C30.9841 7.2375 30.4297 7.2375 29.9748 7.16647L29.9606 7.17357Z" fill="white"/>
<path d="M32.0287 6.6193C31.9647 6.85369 31.8723 7.20172 32.114 7.26565C32.3059 7.32247 32.3983 7.1449 32.4481 6.98154L33.0025 7.1378C32.9314 7.34378 32.8177 7.50004 32.6471 7.58527C32.4836 7.6705 32.2704 7.68471 32.0145 7.61368C31.3108 7.4148 31.3392 6.96023 31.5169 6.3494C31.6662 5.8167 31.8723 5.38343 32.5902 5.58941C33.3223 5.79539 33.2726 6.29968 33.0736 6.91762L32.0287 6.6193ZM32.6115 6.45594C32.6684 6.26417 32.7537 6.00137 32.4907 5.92324C32.2419 5.85221 32.1566 6.14342 32.114 6.31389L32.6115 6.45594Z" fill="white"/>
<path d="M34.3657 6.23598L34.2733 6.47748H34.2804C34.4652 6.29991 34.6642 6.30701 34.8775 6.39224L34.6927 6.86102C34.2378 6.64794 34.1311 6.91784 34.0529 7.10251L33.6549 8.1324L33.1289 7.92643L33.8681 6.03711L34.3728 6.22888L34.3657 6.23598Z" fill="white"/>
<path d="M35.1257 6.52734L35.6375 6.78304L35.211 8.2675H35.2181L36.1635 7.04584L36.661 7.29444L35.2536 8.85703L34.6992 8.58002L35.1257 6.52734Z" fill="white"/>
<path d="M36.5068 9.58912L36.0234 9.29081L37.0825 7.56485L37.5659 7.86317L36.5068 9.58912ZM38.0208 7.12449L37.7862 7.50093L37.3029 7.20262L37.5374 6.82617L38.0208 7.12449Z" fill="white"/>
<path d="M38.4895 9.38266C38.6672 9.14117 38.6672 9.01332 38.525 8.90678C38.3331 8.76473 38.191 8.92099 37.9351 9.26191C37.5655 9.7591 37.5299 9.89405 37.7005 10.0219C37.8427 10.1284 38.0062 10.0503 38.1625 9.83723L38.6175 10.1711C38.2905 10.6114 37.9066 10.6256 37.4873 10.3131C36.8973 9.87985 37.0892 9.46079 37.4659 8.9565C37.7929 8.50903 38.1412 8.18231 38.7454 8.62267C39.1648 8.93519 39.2643 9.29743 38.9515 9.72359L38.4966 9.38266H38.4895Z" fill="white"/>
<path d="M39.4273 10.6612C39.2638 10.8388 39.0221 11.1087 39.2069 11.2791C39.3562 11.4141 39.5126 11.3004 39.6263 11.1797L40.0457 11.5703C39.8893 11.7266 39.7116 11.8118 39.5268 11.8047C39.342 11.8047 39.1501 11.7195 38.9582 11.5419C38.4251 11.0447 38.6596 10.6541 39.0932 10.1853C39.4699 9.78046 39.8538 9.48925 40.4011 10.0006C40.9555 10.5191 40.6854 10.9382 40.2234 11.3999L39.4273 10.6612ZM40.0244 10.7819C40.1594 10.6399 40.3584 10.441 40.1594 10.2563C39.9675 10.0788 39.7614 10.3061 39.6476 10.4339L40.0244 10.789V10.7819Z" fill="white"/>
<path d="M40.6495 12.2879C40.5784 12.3447 40.5144 12.4087 40.4789 12.4655C40.4505 12.5294 40.4647 12.6004 40.5358 12.6857C40.6068 12.7709 40.7277 12.7993 40.8272 12.707C41.1541 12.43 40.4291 11.7339 40.9196 11.3148C41.2537 11.0307 41.6375 11.2722 41.8721 11.5492C42.1208 11.8404 42.2132 12.224 41.8578 12.4868L41.4953 12.0677C41.602 11.9754 41.6588 11.9115 41.6588 11.8547C41.6588 11.8049 41.6375 11.7623 41.5948 11.7197C41.5167 11.6274 41.41 11.6274 41.3034 11.7197C41.0617 11.9257 41.7228 12.6715 41.2252 13.0976C40.9551 13.3249 40.5713 13.2823 40.2585 12.9272C39.9387 12.5507 39.8178 12.224 40.2656 11.876L40.6282 12.295L40.6495 12.2879Z" fill="white"/>
<path d="M54.653 18.8794C54.653 18.6805 54.653 18.4816 54.6316 18.2828C54.5392 17.3594 54.1909 16.5213 53.6081 15.7968C52.4068 14.3266 50.7151 13.666 48.1136 13.666C44.4103 13.666 40.0104 15.4204 36.9682 18.0768H18.3025C18.3025 18.0768 17.1652 17.9631 16.6819 18.7089C16.0848 19.6394 16.8027 20.3568 16.8027 20.3568L17.478 21.2446C16.497 22.6225 12.2962 28.9297 10.0856 32.0478C10.0856 32.0478 9.25396 33.1771 10.8959 33.1771H35.4115C34.3027 34.6332 32.9948 36.2384 32.9948 36.2384C32.9308 36.3165 32.8953 36.4088 32.8953 36.5083C32.8953 36.5651 32.9095 36.629 32.9308 36.6858C33.0019 36.835 33.1512 36.9273 33.3146 36.9273H44.2326C44.3747 36.9273 44.5027 36.8563 44.5809 36.7356L45.7537 35.2724L53.6721 22.2177C54.2976 21.1523 54.6316 19.9803 54.6458 18.8794H54.653Z" fill="#002F67"/>
<path d="M48.1345 14.3975C43.6351 14.3975 38.0126 17.5155 35.5035 21.4859C32.9091 25.5771 34.615 28.9864 39.3774 28.9864C39.619 28.9864 39.8536 28.9793 40.1024 28.958L34.8353 35.9541H43.628L52.6054 21.7843C52.6836 21.6564 52.7618 21.5286 52.8329 21.4007C55.0719 17.4374 52.641 14.3975 48.1416 14.3975H48.1345ZM41.6448 21.4149C42.2988 20.2288 43.8981 19.2344 45.2344 19.1918C46.5636 19.1492 47.1322 20.0654 46.4996 21.2516C45.867 22.4519 44.2464 23.4676 42.8887 23.5173C41.5382 23.5599 40.9838 22.6153 41.6448 21.422V21.4149Z" fill="#B51F24"/>
<path d="M35.6665 19.8595L35.7234 19.753C35.8656 19.4973 35.8513 19.3339 35.8016 19.199C35.6878 18.9078 35.3609 18.9078 35.3538 18.9078H28.1178C28.1178 18.9078 27.4141 18.8652 27.208 19.5257C27.1085 19.8524 27.1795 20.0655 27.5278 20.4136L28.2457 21.0528L21.0098 31.998H28.4377L35.6665 19.8666V19.8595Z" fill="#B51F24"/>
<path d="M26.547 19.199C26.4333 18.9078 26.1063 18.9078 26.0992 18.9078H18.913C18.913 18.9078 18.2093 18.8652 18.0032 19.5257C17.9037 19.8524 17.9747 20.0655 18.323 20.4136L19.041 21.0528L11.6699 31.998H18.5718L26.4191 19.8595C26.6252 19.5399 26.611 19.3482 26.5541 19.199H26.547Z" fill="#B51F24"/>
<path d="M75.444 19.818H64.356V9.192H66.776V12.734H73.024V9.192H75.444V19.818ZM73.024 17.75V14.802H66.776V17.75H73.024ZM79.558 25.318H60.242V23.228H68.668V20.368H71.132V23.228H79.558V25.318ZM91.3806 22.282H80.6666V14.978H87.2446V11.92H80.5786V9.852H89.6426V17.046H83.0646V20.214H91.3806V22.282ZM99.0806 17.09H95.6046V27.76H93.2066V7.366H95.6046V14.912H99.0806V17.09ZM106.016 19.4V12.096H102.518V19.4H106.016ZM108.326 10.028V21.468H100.164V10.028H108.326ZM114.728 27.76V16.606H112.638V26.44H110.35V7.806H112.638V14.516H114.728V7.366H117.06V27.76H114.728ZM131.297 8.994C132.793 8.994 134.039 9.47067 135.037 10.424C136.034 11.3773 136.533 12.536 136.533 13.9C136.533 15.264 136.034 16.4227 135.037 17.376C134.039 18.3293 132.793 18.806 131.297 18.806C129.801 18.806 128.554 18.3293 127.557 17.376C126.559 16.4227 126.061 15.264 126.061 13.9C126.061 12.536 126.559 11.3773 127.557 10.424C128.554 9.47067 129.801 8.994 131.297 8.994ZM131.297 11.04C130.475 11.04 129.801 11.3187 129.273 11.876C128.745 12.4333 128.481 13.108 128.481 13.9C128.481 14.692 128.745 15.3667 129.273 15.924C129.801 16.4813 130.475 16.76 131.297 16.76C132.118 16.76 132.793 16.4813 133.321 15.924C133.849 15.3667 134.113 14.692 134.113 13.9C134.113 13.108 133.849 12.4333 133.321 11.876C132.793 11.3187 132.118 11.04 131.297 11.04ZM145.003 15.022H141.615V22.458H139.217V7.366H141.615V12.844H145.003V15.022ZM141.857 28.31H130.527V21.006H132.925V26.242H141.857V28.31ZM153.214 14.538L157.68 18.718L155.986 20.214L151.85 16.232C150.53 17.6693 148.873 19.0627 146.878 20.412L145.294 18.894C149.46 15.9753 151.887 13.3867 152.576 11.128H146.592V9.082H155.48C155.216 10.9593 154.461 12.778 153.214 14.538ZM161.926 22.458H159.528V15.198H155.59V13.108H159.528V7.366H161.926V22.458ZM162.058 28.31H150.728V21.05H153.126V26.242H162.058V28.31ZM171.744 10.908H168.928C167.857 10.908 166.721 10.5853 165.518 9.94L166.222 8.158C167.381 8.598 168.334 8.818 169.082 8.818H171.744V10.908ZM170.952 17.09L174.34 20.918L172.602 22.304L169.632 18.916C168.503 20.2653 167.08 21.5193 165.364 22.678L163.758 21.182C167.307 18.674 169.361 16.3273 169.918 14.142H164.616V12.074H172.8C172.536 13.8633 171.92 15.5353 170.952 17.09ZM181.644 27.76H179.312V7.366H181.644V27.76ZM172.36 15.462H175.22V7.806H177.53V26.44H175.22V17.53H172.36V15.462ZM193.261 10.534H189.257C187.937 10.534 186.719 10.2187 185.605 9.588L186.331 7.872C187.68 8.268 188.758 8.466 189.565 8.466H193.261V10.534ZM195.505 13.416H190.445C189.418 13.5333 188.714 13.812 188.333 14.252C187.775 14.868 187.497 15.5207 187.497 16.21C187.497 16.8407 187.724 17.3393 188.179 17.706C188.633 18.0727 189.154 18.256 189.741 18.256C190.239 18.256 190.709 18.08 191.149 17.728C191.603 17.3613 191.831 16.8627 191.831 16.232C191.831 15.7333 191.537 15.2493 190.951 14.78L192.689 13.57C193.701 14.318 194.207 15.1907 194.207 16.188C194.207 17.4053 193.752 18.4027 192.843 19.18C191.933 19.9427 190.907 20.324 189.763 20.324C188.472 20.324 187.372 19.928 186.463 19.136C185.553 18.344 185.099 17.3613 185.099 16.188C185.099 15.2053 185.458 14.2813 186.177 13.416H183.713V11.458H195.505V13.416ZM200.191 20.566H197.793V17.09H194.867V14.978H197.793V7.366H200.191V20.566ZM199.949 28.42H189.235V21.182H199.949V28.42ZM197.573 26.374V23.228H191.611V26.374H197.573ZM213.528 8.95C213.528 10.842 213.47 12.338 213.352 13.438C213.25 14.5233 213.052 15.6527 212.758 16.826H210.382C210.588 15.8433 210.764 14.8607 210.91 13.878C211.057 12.8807 211.13 11.9273 211.13 11.018H203.782V8.95H213.528ZM221.976 16.232H218.5V23.272H216.102V7.366H218.5V14.164H221.976V16.232ZM206.378 18.256V13.68H208.776V18.256C209.539 18.256 210.456 18.2413 211.526 18.212C212.846 18.1827 214.218 18.0287 215.64 17.75V19.818C214.335 20.0967 213.015 20.2507 211.68 20.28C210.36 20.3093 209.194 20.324 208.182 20.324H202.176V18.256H206.378ZM218.434 28.31H206.906V21.644H209.282V26.198H218.434V28.31Z" fill="#002F67"/>
<path d="M75.444 19.818V19.918H75.544V19.818H75.444ZM64.356 19.818H64.256V19.918H64.356V19.818ZM64.356 9.192V9.092H64.256V9.192H64.356ZM66.776 9.192H66.876V9.092H66.776V9.192ZM66.776 12.734H66.676V12.834H66.776V12.734ZM73.024 12.734V12.834H73.124V12.734H73.024ZM73.024 9.192V9.092H72.924V9.192H73.024ZM75.444 9.192H75.544V9.092H75.444V9.192ZM73.024 17.75V17.85H73.124V17.75H73.024ZM73.024 14.802H73.124V14.702H73.024V14.802ZM66.776 14.802V14.702H66.676V14.802H66.776ZM66.776 17.75H66.676V17.85H66.776V17.75ZM79.558 25.318V25.418H79.658V25.318H79.558ZM60.242 25.318H60.142V25.418H60.242V25.318ZM60.242 23.228V23.128H60.142V23.228H60.242ZM68.668 23.228V23.328H68.768V23.228H68.668ZM68.668 20.368V20.268H68.568V20.368H68.668ZM71.132 20.368H71.232V20.268H71.132V20.368ZM71.132 23.228H71.032V23.328H71.132V23.228ZM79.558 23.228H79.658V23.128H79.558V23.228ZM75.444 19.818V19.718H64.356V19.818V19.918H75.444V19.818ZM64.356 19.818H64.456V9.192H64.356H64.256V19.818H64.356ZM64.356 9.192V9.292H66.776V9.192V9.092H64.356V9.192ZM66.776 9.192H66.676V12.734H66.776H66.876V9.192H66.776ZM66.776 12.734V12.834H73.024V12.734V12.634H66.776V12.734ZM73.024 12.734H73.124V9.192H73.024H72.924V12.734H73.024ZM73.024 9.192V9.292H75.444V9.192V9.092H73.024V9.192ZM75.444 9.192H75.344V19.818H75.444H75.544V9.192H75.444ZM73.024 17.75H73.124V14.802H73.024H72.924V17.75H73.024ZM73.024 14.802V14.702H66.776V14.802V14.902H73.024V14.802ZM66.776 14.802H66.676V17.75H66.776H66.876V14.802H66.776ZM66.776 17.75V17.85H73.024V17.75V17.65H66.776V17.75ZM79.558 25.318V25.218H60.242V25.318V25.418H79.558V25.318ZM60.242 25.318H60.342V23.228H60.242H60.142V25.318H60.242ZM60.242 23.228V23.328H68.668V23.228V23.128H60.242V23.228ZM68.668 23.228H68.768V20.368H68.668H68.568V23.228H68.668ZM68.668 20.368V20.468H71.132V20.368V20.268H68.668V20.368ZM71.132 20.368H71.032V23.228H71.132H71.232V20.368H71.132ZM71.132 23.228V23.328H79.558V23.228V23.128H71.132V23.228ZM79.558 23.228H79.458V25.318H79.558H79.658V23.228H79.558ZM91.3806 22.282V22.382H91.4806V22.282H91.3806ZM80.6666 22.282H80.5666V22.382H80.6666V22.282ZM80.6666 14.978V14.878H80.5666V14.978H80.6666ZM87.2446 14.978V15.078H87.3446V14.978H87.2446ZM87.2446 11.92H87.3446V11.82H87.2446V11.92ZM80.5786 11.92H80.4786V12.02H80.5786V11.92ZM80.5786 9.852V9.752H80.4786V9.852H80.5786ZM89.6426 9.852H89.7426V9.752H89.6426V9.852ZM89.6426 17.046V17.146H89.7426V17.046H89.6426ZM83.0646 17.046V16.946H82.9646V17.046H83.0646ZM83.0646 20.214H82.9646V20.314H83.0646V20.214ZM91.3806 20.214H91.4806V20.114H91.3806V20.214ZM99.0806 17.09V17.19H99.1806V17.09H99.0806ZM95.6046 17.09V16.99H95.5046V17.09H95.6046ZM95.6046 27.76V27.86H95.7046V27.76H95.6046ZM93.2066 27.76H93.1066V27.86H93.2066V27.76ZM93.2066 7.366V7.266H93.1066V7.366H93.2066ZM95.6046 7.366H95.7046V7.266H95.6046V7.366ZM95.6046 14.912H95.5046V15.012H95.6046V14.912ZM99.0806 14.912H99.1806V14.812H99.0806V14.912ZM91.3806 22.282V22.182H80.6666V22.282V22.382H91.3806V22.282ZM80.6666 22.282H80.7666V14.978H80.6666H80.5666V22.282H80.6666ZM80.6666 14.978V15.078H87.2446V14.978V14.878H80.6666V14.978ZM87.2446 14.978H87.3446V11.92H87.2446H87.1446V14.978H87.2446ZM87.2446 11.92V11.82H80.5786V11.92V12.02H87.2446V11.92ZM80.5786 11.92H80.6786V9.852H80.5786H80.4786V11.92H80.5786ZM80.5786 9.852V9.952H89.6426V9.852V9.752H80.5786V9.852ZM89.6426 9.852H89.5426V17.046H89.6426H89.7426V9.852H89.6426ZM89.6426 17.046V16.946H83.0646V17.046V17.146H89.6426V17.046ZM83.0646 17.046H82.9646V20.214H83.0646H83.1646V17.046H83.0646ZM83.0646 20.214V20.314H91.3806V20.214V20.114H83.0646V20.214ZM91.3806 20.214H91.2806V22.282H91.3806H91.4806V20.214H91.3806ZM99.0806 17.09V16.99H95.6046V17.09V17.19H99.0806V17.09ZM95.6046 17.09H95.5046V27.76H95.6046H95.7046V17.09H95.6046ZM95.6046 27.76V27.66H93.2066V27.76V27.86H95.6046V27.76ZM93.2066 27.76H93.3066V7.366H93.2066H93.1066V27.76H93.2066ZM93.2066 7.366V7.466H95.6046V7.366V7.266H93.2066V7.366ZM95.6046 7.366H95.5046V14.912H95.6046H95.7046V7.366H95.6046ZM95.6046 14.912V15.012H99.0806V14.912V14.812H95.6046V14.912ZM99.0806 14.912H98.9806V17.09H99.0806H99.1806V14.912H99.0806ZM106.016 19.4V19.5H106.116V19.4H106.016ZM106.016 12.096H106.116V11.996H106.016V12.096ZM102.518 12.096V11.996H102.418V12.096H102.518ZM102.518 19.4H102.418V19.5H102.518V19.4ZM108.326 10.028H108.426V9.928H108.326V10.028ZM108.326 21.468V21.568H108.426V21.468H108.326ZM100.164 21.468H100.064V21.568H100.164V21.468ZM100.164 10.028V9.928H100.064V10.028H100.164ZM114.728 27.76H114.628V27.86H114.728V27.76ZM114.728 16.606H114.828V16.506H114.728V16.606ZM112.638 16.606V16.506H112.538V16.606H112.638ZM112.638 26.44V26.54H112.738V26.44H112.638ZM110.35 26.44H110.25V26.54H110.35V26.44ZM110.35 7.806V7.706H110.25V7.806H110.35ZM112.638 7.806H112.738V7.706H112.638V7.806ZM112.638 14.516H112.538V14.616H112.638V14.516ZM114.728 14.516V14.616H114.828V14.516H114.728ZM114.728 7.366V7.266H114.628V7.366H114.728ZM117.06 7.366H117.16V7.266H117.06V7.366ZM117.06 27.76V27.86H117.16V27.76H117.06ZM106.016 19.4H106.116V12.096H106.016H105.916V19.4H106.016ZM106.016 12.096V11.996H102.518V12.096V12.196H106.016V12.096ZM102.518 12.096H102.418V19.4H102.518H102.618V12.096H102.518ZM102.518 19.4V19.5H106.016V19.4V19.3H102.518V19.4ZM108.326 10.028H108.226V21.468H108.326H108.426V10.028H108.326ZM108.326 21.468V21.368H100.164V21.468V21.568H108.326V21.468ZM100.164 21.468H100.264V10.028H100.164H100.064V21.468H100.164ZM100.164 10.028V10.128H108.326V10.028V9.928H100.164V10.028ZM114.728 27.76H114.828V16.606H114.728H114.628V27.76H114.728ZM114.728 16.606V16.506H112.638V16.606V16.706H114.728V16.606ZM112.638 16.606H112.538V26.44H112.638H112.738V16.606H112.638ZM112.638 26.44V26.34H110.35V26.44V26.54H112.638V26.44ZM110.35 26.44H110.45V7.806H110.35H110.25V26.44H110.35ZM110.35 7.806V7.906H112.638V7.806V7.706H110.35V7.806ZM112.638 7.806H112.538V14.516H112.638H112.738V7.806H112.638ZM112.638 14.516V14.616H114.728V14.516V14.416H112.638V14.516ZM114.728 14.516H114.828V7.366H114.728H114.628V14.516H114.728ZM114.728 7.366V7.466H117.06V7.366V7.266H114.728V7.366ZM117.06 7.366H116.96V27.76H117.06H117.16V7.366H117.06ZM117.06 27.76V27.66H114.728V27.76V27.86H117.06V27.76ZM135.037 10.424L134.968 10.4963L135.037 10.424ZM135.037 17.376L134.968 17.3037L135.037 17.376ZM127.557 17.376L127.626 17.3037L127.557 17.376ZM127.557 10.424L127.626 10.4963L127.557 10.424ZM129.273 11.876L129.2 11.8072L129.273 11.876ZM129.273 15.924L129.345 15.8552L129.273 15.924ZM133.321 15.924L133.393 15.9928L133.321 15.924ZM133.321 11.876L133.393 11.8072V11.8072L133.321 11.876ZM145.003 15.022V15.122H145.103V15.022H145.003ZM141.615 15.022V14.922H141.515V15.022H141.615ZM141.615 22.458V22.558H141.715V22.458H141.615ZM139.217 22.458H139.117V22.558H139.217V22.458ZM139.217 7.366V7.266H139.117V7.366H139.217ZM141.615 7.366H141.715V7.266H141.615V7.366ZM141.615 12.844H141.515V12.944H141.615V12.844ZM145.003 12.844H145.103V12.744H145.003V12.844ZM141.857 28.31V28.41H141.957V28.31H141.857ZM130.527 28.31H130.427V28.41H130.527V28.31ZM130.527 21.006V20.906H130.427V21.006H130.527ZM132.925 21.006H133.025V20.906H132.925V21.006ZM132.925 26.242H132.825V26.342H132.925V26.242ZM141.857 26.242H141.957V26.142H141.857V26.242ZM131.297 8.994V9.094C132.769 9.094 133.99 9.56232 134.968 10.4963L135.037 10.424L135.106 10.3517C134.088 9.37901 132.816 8.894 131.297 8.894V8.994ZM135.037 10.424L134.968 10.4963C135.945 11.431 136.433 12.5637 136.433 13.9H136.533H136.633C136.633 12.5083 136.123 11.3237 135.106 10.3517L135.037 10.424ZM136.533 13.9H136.433C136.433 15.2363 135.945 16.369 134.968 17.3037L135.037 17.376L135.106 17.4483C136.123 16.4763 136.633 15.2917 136.633 13.9H136.533ZM135.037 17.376L134.968 17.3037C133.99 18.2377 132.769 18.706 131.297 18.706V18.806V18.906C132.816 18.906 134.088 18.421 135.106 17.4483L135.037 17.376ZM131.297 18.806V18.706C129.824 18.706 128.603 18.2377 127.626 17.3037L127.557 17.376L127.488 17.4483C128.505 18.421 129.777 18.906 131.297 18.906V18.806ZM127.557 17.376L127.626 17.3037C126.648 16.369 126.161 15.2363 126.161 13.9H126.061H125.961C125.961 15.2917 126.471 16.4763 127.488 17.4483L127.557 17.376ZM126.061 13.9H126.161C126.161 12.5637 126.648 11.431 127.626 10.4963L127.557 10.424L127.488 10.3517C126.471 11.3237 125.961 12.5083 125.961 13.9H126.061ZM127.557 10.424L127.626 10.4963C128.603 9.56232 129.824 9.094 131.297 9.094V8.994V8.894C129.777 8.894 128.505 9.37901 127.488 10.3517L127.557 10.424ZM131.297 11.04V10.94C130.45 10.94 129.748 11.2285 129.2 11.8072L129.273 11.876L129.345 11.9448C129.853 11.4089 130.501 11.14 131.297 11.14V11.04ZM129.273 11.876L129.2 11.8072C128.654 12.3838 128.381 13.0833 128.381 13.9H128.481H128.581C128.581 13.1327 128.835 12.4829 129.345 11.9448L129.273 11.876ZM128.481 13.9H128.381C128.381 14.7167 128.654 15.4162 129.2 15.9928L129.273 15.924L129.345 15.8552C128.835 15.3171 128.581 14.6673 128.581 13.9H128.481ZM129.273 15.924L129.2 15.9928C129.748 16.5715 130.45 16.86 131.297 16.86V16.76V16.66C130.501 16.66 129.853 16.3911 129.345 15.8552L129.273 15.924ZM131.297 16.76V16.86C132.143 16.86 132.845 16.5715 133.393 15.9928L133.321 15.924L133.248 15.8552C132.74 16.3911 132.093 16.66 131.297 16.66V16.76ZM133.321 15.924L133.393 15.9928C133.939 15.4162 134.213 14.7167 134.213 13.9H134.113H134.013C134.013 14.6673 133.758 15.3171 133.248 15.8552L133.321 15.924ZM134.113 13.9H134.213C134.213 13.0833 133.939 12.3838 133.393 11.8072L133.321 11.876L133.248 11.9448C133.758 12.4829 134.013 13.1327 134.013 13.9H134.113ZM133.321 11.876L133.393 11.8072C132.845 11.2285 132.143 10.94 131.297 10.94V11.04V11.14C132.093 11.14 132.74 11.4089 133.248 11.9448L133.321 11.876ZM145.003 15.022V14.922H141.615V15.022V15.122H145.003V15.022ZM141.615 15.022H141.515V22.458H141.615H141.715V15.022H141.615ZM141.615 22.458V22.358H139.217V22.458V22.558H141.615V22.458ZM139.217 22.458H139.317V7.366H139.217H139.117V22.458H139.217ZM139.217 7.366V7.466H141.615V7.366V7.266H139.217V7.366ZM141.615 7.366H141.515V12.844H141.615H141.715V7.366H141.615ZM141.615 12.844V12.944H145.003V12.844V12.744H141.615V12.844ZM145.003 12.844H144.903V15.022H145.003H145.103V12.844H145.003ZM141.857 28.31V28.21H130.527V28.31V28.41H141.857V28.31ZM130.527 28.31H130.627V21.006H130.527H130.427V28.31H130.527ZM130.527 21.006V21.106H132.925V21.006V20.906H130.527V21.006ZM132.925 21.006H132.825V26.242H132.925H133.025V21.006H132.925ZM132.925 26.242V26.342H141.857V26.242V26.142H132.925V26.242ZM141.857 26.242H141.757V28.31H141.857H141.957V26.242H141.857ZM153.214 14.538L153.133 14.4802L153.082 14.5514L153.146 14.611L153.214 14.538ZM157.68 18.718L157.746 18.793L157.829 18.7201L157.749 18.645L157.68 18.718ZM155.986 20.214L155.917 20.286L155.983 20.35L156.052 20.289L155.986 20.214ZM151.85 16.232L151.92 16.16L151.846 16.089L151.777 16.1644L151.85 16.232ZM146.878 20.412L146.809 20.4842L146.867 20.5401L146.934 20.4948L146.878 20.412ZM145.294 18.894L145.237 18.8121L145.137 18.882L145.225 18.9662L145.294 18.894ZM152.576 11.128L152.672 11.1572L152.711 11.028H152.576V11.128ZM146.592 11.128H146.492V11.228H146.592V11.128ZM146.592 9.082V8.982H146.492V9.082H146.592ZM155.48 9.082L155.579 9.09592L155.595 8.982H155.48V9.082ZM161.926 22.458V22.558H162.026V22.458H161.926ZM159.528 22.458H159.428V22.558H159.528V22.458ZM159.528 15.198H159.628V15.098H159.528V15.198ZM155.59 15.198H155.49V15.298H155.59V15.198ZM155.59 13.108V13.008H155.49V13.108H155.59ZM159.528 13.108V13.208H159.628V13.108H159.528ZM159.528 7.366V7.266H159.428V7.366H159.528ZM161.926 7.366H162.026V7.266H161.926V7.366ZM162.058 28.31V28.41H162.158V28.31H162.058ZM150.728 28.31H150.628V28.41H150.728V28.31ZM150.728 21.05V20.95H150.628V21.05H150.728ZM153.126 21.05H153.226V20.95H153.126V21.05ZM153.126 26.242H153.026V26.342H153.126V26.242ZM162.058 26.242H162.158V26.142H162.058V26.242ZM153.214 14.538L153.146 14.611L157.612 18.791L157.68 18.718L157.749 18.645L153.283 14.465L153.214 14.538ZM157.68 18.718L157.614 18.643L155.92 20.139L155.986 20.214L156.052 20.289L157.746 18.793L157.68 18.718ZM155.986 20.214L156.056 20.142L151.92 16.16L151.85 16.232L151.781 16.304L155.917 20.286L155.986 20.214ZM151.85 16.232L151.777 16.1644C150.463 17.5948 148.812 18.9832 146.822 20.3292L146.878 20.412L146.934 20.4948C148.934 19.1421 150.598 17.7439 151.924 16.2996L151.85 16.232ZM146.878 20.412L146.947 20.3398L145.363 18.8218L145.294 18.894L145.225 18.9662L146.809 20.4842L146.878 20.412ZM145.294 18.894L145.352 18.9759C147.438 17.5142 149.092 16.1329 150.312 14.8319C151.531 13.5315 152.321 12.3067 152.672 11.1572L152.576 11.128L152.481 11.0988C152.142 12.208 151.374 13.4068 150.166 14.6951C148.958 15.9828 147.316 17.3552 145.237 18.8121L145.294 18.894ZM152.576 11.128V11.028H146.592V11.128V11.228H152.576V11.128ZM146.592 11.128H146.692V9.082H146.592H146.492V11.128H146.592ZM146.592 9.082V9.182H155.48V9.082V8.982H146.592V9.082ZM155.48 9.082L155.381 9.06807C155.12 10.9275 154.371 12.7314 153.133 14.4802L153.214 14.538L153.296 14.5958C154.55 12.8246 155.313 10.9911 155.579 9.09592L155.48 9.082ZM161.926 22.458V22.358H159.528V22.458V22.558H161.926V22.458ZM159.528 22.458H159.628V15.198H159.528H159.428V22.458H159.528ZM159.528 15.198V15.098H155.59V15.198V15.298H159.528V15.198ZM155.59 15.198H155.69V13.108H155.59H155.49V15.198H155.59ZM155.59 13.108V13.208H159.528V13.108V13.008H155.59V13.108ZM159.528 13.108H159.628V7.366H159.528H159.428V13.108H159.528ZM159.528 7.366V7.466H161.926V7.366V7.266H159.528V7.366ZM161.926 7.366H161.826V22.458H161.926H162.026V7.366H161.926ZM162.058 28.31V28.21H150.728V28.31V28.41H162.058V28.31ZM150.728 28.31H150.828V21.05H150.728H150.628V28.31H150.728ZM150.728 21.05V21.15H153.126V21.05V20.95H150.728V21.05ZM153.126 21.05H153.026V26.242H153.126H153.226V21.05H153.126ZM153.126 26.242V26.342H162.058V26.242V26.142H153.126V26.242ZM162.058 26.242H161.958V28.31H162.058H162.158V26.242H162.058ZM171.744 10.908V11.008H171.844V10.908H171.744ZM165.518 9.94L165.425 9.90326L165.392 9.98603L165.471 10.0281L165.518 9.94ZM166.222 8.158L166.257 8.06451L166.165 8.02948L166.129 8.12126L166.222 8.158ZM171.744 8.818H171.844V8.718H171.744V8.818ZM170.952 17.09L170.867 17.0371L170.828 17.1004L170.877 17.1563L170.952 17.09ZM174.34 20.918L174.402 20.9962L174.484 20.9306L174.415 20.8517L174.34 20.918ZM172.602 22.304L172.527 22.3699L172.59 22.4417L172.664 22.3822L172.602 22.304ZM169.632 18.916L169.707 18.8501L169.63 18.7623L169.555 18.8518L169.632 18.916ZM165.364 22.678L165.296 22.7512L165.354 22.8054L165.42 22.7609L165.364 22.678ZM163.758 21.182L163.7 21.1003L163.6 21.1713L163.69 21.2552L163.758 21.182ZM169.918 14.142L170.015 14.1667L170.047 14.042H169.918V14.142ZM164.616 14.142H164.516V14.242H164.616V14.142ZM164.616 12.074V11.974H164.516V12.074H164.616ZM172.8 12.074L172.899 12.0886L172.916 11.974H172.8V12.074ZM181.644 27.76V27.86H181.744V27.76H181.644ZM179.312 27.76H179.212V27.86H179.312V27.76ZM179.312 7.366V7.266H179.212V7.366H179.312ZM181.644 7.366H181.744V7.266H181.644V7.366ZM172.36 15.462V15.362H172.26V15.462H172.36ZM175.22 15.462V15.562H175.32V15.462H175.22ZM175.22 7.806V7.706H175.12V7.806H175.22ZM177.53 7.806H177.63V7.706H177.53V7.806ZM177.53 26.44V26.54H177.63V26.44H177.53ZM175.22 26.44H175.12V26.54H175.22V26.44ZM175.22 17.53H175.32V17.43H175.22V17.53ZM172.36 17.53H172.26V17.63H172.36V17.53ZM171.744 10.908V10.808H168.928V10.908V11.008H171.744V10.908ZM168.928 10.908V10.808C167.878 10.808 166.757 10.4915 165.565 9.85188L165.518 9.94L165.471 10.0281C166.684 10.6792 167.837 11.008 168.928 11.008V10.908ZM165.518 9.94L165.611 9.97674L166.315 8.19474L166.222 8.158L166.129 8.12126L165.425 9.90326L165.518 9.94ZM166.222 8.158L166.186 8.25149C167.35 8.69334 168.316 8.918 169.082 8.918V8.818V8.718C168.351 8.718 167.411 8.50266 166.257 8.06451L166.222 8.158ZM169.082 8.818V8.918H171.744V8.818V8.718H169.082V8.818ZM171.744 8.818H171.644V10.908H171.744H171.844V8.818H171.744ZM170.952 17.09L170.877 17.1563L174.265 20.9843L174.34 20.918L174.415 20.8517L171.027 17.0237L170.952 17.09ZM174.34 20.918L174.277 20.8398L172.539 22.2258L172.602 22.304L172.664 22.3822L174.402 20.9962L174.34 20.918ZM172.602 22.304L172.677 22.2381L169.707 18.8501L169.632 18.916L169.557 18.9819L172.527 22.3699L172.602 22.304ZM169.632 18.916L169.555 18.8518C168.433 20.1928 167.017 21.4408 165.308 22.5951L165.364 22.678L165.42 22.7609C167.142 21.5979 168.572 20.3378 169.709 18.9802L169.632 18.916ZM165.364 22.678L165.432 22.6048L163.826 21.1088L163.758 21.182L163.69 21.2552L165.296 22.7512L165.364 22.678ZM163.758 21.182L163.816 21.2637C167.369 18.7529 169.448 16.3885 170.015 14.1667L169.918 14.142L169.821 14.1173C169.273 16.2661 167.246 18.5951 163.7 21.1003L163.758 21.182ZM169.918 14.142V14.042H164.616V14.142V14.242H169.918V14.142ZM164.616 14.142H164.716V12.074H164.616H164.516V14.142H164.616ZM164.616 12.074V12.174H172.8V12.074V11.974H164.616V12.074ZM172.8 12.074L172.701 12.0594C172.439 13.835 171.828 15.494 170.867 17.0371L170.952 17.09L171.037 17.1429C172.012 15.5767 172.633 13.8917 172.899 12.0886L172.8 12.074ZM181.644 27.76V27.66H179.312V27.76V27.86H181.644V27.76ZM179.312 27.76H179.412V7.366H179.312H179.212V27.76H179.312ZM179.312 7.366V7.466H181.644V7.366V7.266H179.312V7.366ZM181.644 7.366H181.544V27.76H181.644H181.744V7.366H181.644ZM172.36 15.462V15.562H175.22V15.462V15.362H172.36V15.462ZM175.22 15.462H175.32V7.806H175.22H175.12V15.462H175.22ZM175.22 7.806V7.906H177.53V7.806V7.706H175.22V7.806ZM177.53 7.806H177.43V26.44H177.53H177.63V7.806H177.53ZM177.53 26.44V26.34H175.22V26.44V26.54H177.53V26.44ZM175.22 26.44H175.32V17.53H175.22H175.12V26.44H175.22ZM175.22 17.53V17.43H172.36V17.53V17.63H175.22V17.53ZM172.36 17.53H172.46V15.462H172.36H172.26V17.53H172.36ZM193.261 10.534V10.634H193.361V10.534H193.261ZM185.605 9.588L185.513 9.54903L185.478 9.63114L185.555 9.67503L185.605 9.588ZM186.331 7.872L186.359 7.77605L186.273 7.75095L186.239 7.83303L186.331 7.872ZM193.261 8.466H193.361V8.366H193.261V8.466ZM195.505 13.416V13.516H195.605V13.416H195.505ZM190.445 13.416V13.3153L190.433 13.3166L190.445 13.416ZM188.333 14.252L188.407 14.3191L188.408 14.3175L188.333 14.252ZM188.179 17.706L188.116 17.7838L188.179 17.706ZM191.149 17.728L191.211 17.8061L191.211 17.8058L191.149 17.728ZM190.951 14.78L190.894 14.6979L190.784 14.7744L190.888 14.8581L190.951 14.78ZM192.689 13.57L192.748 13.4896L192.69 13.4469L192.632 13.4879L192.689 13.57ZM192.843 19.18L192.907 19.2566L192.908 19.256L192.843 19.18ZM186.463 19.136L186.397 19.2114L186.463 19.136ZM186.177 13.416L186.254 13.4799L186.39 13.316H186.177V13.416ZM183.713 13.416H183.613V13.516H183.713V13.416ZM183.713 11.458V11.358H183.613V11.458H183.713ZM195.505 11.458H195.605V11.358H195.505V11.458ZM200.191 20.566V20.666H200.291V20.566H200.191ZM197.793 20.566H197.693V20.666H197.793V20.566ZM197.793 17.09H197.893V16.99H197.793V17.09ZM194.867 17.09H194.767V17.19H194.867V17.09ZM194.867 14.978V14.878H194.767V14.978H194.867ZM197.793 14.978V15.078H197.893V14.978H197.793ZM197.793 7.366V7.266H197.693V7.366H197.793ZM200.191 7.366H200.291V7.266H200.191V7.366ZM199.949 28.42V28.52H200.049V28.42H199.949ZM189.235 28.42H189.135V28.52H189.235V28.42ZM189.235 21.182V21.082H189.135V21.182H189.235ZM199.949 21.182H200.049V21.082H199.949V21.182ZM197.573 26.374V26.474H197.673V26.374H197.573ZM197.573 23.228H197.673V23.128H197.573V23.228ZM191.611 23.228V23.128H191.511V23.228H191.611ZM191.611 26.374H191.511V26.474H191.611V26.374ZM193.261 10.534V10.434H189.257V10.534V10.634H193.261V10.534ZM189.257 10.534V10.434C187.953 10.434 186.753 10.1229 185.654 9.50096L185.605 9.588L185.555 9.67503C186.686 10.3145 187.92 10.634 189.257 10.634V10.534ZM185.605 9.588L185.697 9.62696L186.423 7.91096L186.331 7.872L186.239 7.83303L185.513 9.54903L185.605 9.588ZM186.331 7.872L186.303 7.96795C187.655 8.36496 188.744 8.566 189.565 8.566V8.466V8.366C188.772 8.366 187.705 8.17104 186.359 7.77605L186.331 7.872ZM189.565 8.466V8.566H193.261V8.466V8.366H189.565V8.466ZM193.261 8.466H193.161V10.534H193.261H193.361V8.466H193.261ZM195.505 13.416V13.316H190.445V13.416V13.516H195.505V13.416ZM190.445 13.416L190.433 13.3166C189.399 13.4348 188.664 13.7175 188.257 14.1865L188.333 14.252L188.408 14.3175C188.764 13.9065 189.437 13.6318 190.456 13.5154L190.445 13.416ZM188.333 14.252L188.259 14.1849C187.688 14.8153 187.397 15.491 187.397 16.21H187.497H187.597C187.597 15.5503 187.863 14.9207 188.407 14.3191L188.333 14.252ZM187.497 16.21H187.397C187.397 16.8681 187.636 17.3965 188.116 17.7838L188.179 17.706L188.241 17.6282C187.812 17.2821 187.597 16.8132 187.597 16.21H187.497ZM188.179 17.706L188.116 17.7838C188.588 18.1649 189.131 18.356 189.741 18.356V18.256V18.156C189.177 18.156 188.678 17.9804 188.241 17.6282L188.179 17.706ZM189.741 18.256V18.356C190.265 18.356 190.756 18.1703 191.211 17.8061L191.149 17.728L191.086 17.6499C190.662 17.9897 190.214 18.156 189.741 18.156V18.256ZM191.149 17.728L191.211 17.8058C191.692 17.4185 191.931 16.8901 191.931 16.232H191.831H191.731C191.731 16.8352 191.515 17.3041 191.086 17.6502L191.149 17.728ZM191.831 16.232H191.931C191.931 15.6901 191.611 15.1804 191.013 14.7019L190.951 14.78L190.888 14.8581C191.463 15.3183 191.731 15.7766 191.731 16.232H191.831ZM190.951 14.78L191.008 14.8621L192.746 13.6521L192.689 13.57L192.632 13.4879L190.894 14.6979L190.951 14.78ZM192.689 13.57L192.629 13.6504C193.623 14.385 194.107 15.2306 194.107 16.188H194.207H194.307C194.307 15.1507 193.778 14.251 192.748 13.4896L192.689 13.57ZM194.207 16.188H194.107C194.107 17.3767 193.664 18.346 192.778 19.104L192.843 19.18L192.908 19.256C193.84 18.4593 194.307 17.434 194.307 16.188H194.207ZM192.843 19.18L192.778 19.1034C191.886 19.8516 190.882 20.224 189.763 20.224V20.324V20.424C190.931 20.424 191.98 20.0338 192.907 19.2566L192.843 19.18ZM189.763 20.324V20.224C188.494 20.224 187.418 19.8356 186.528 19.0606L186.463 19.136L186.397 19.2114C187.326 20.0204 188.45 20.424 189.763 20.424V20.324ZM186.463 19.136L186.528 19.0606C185.64 18.287 185.199 17.3315 185.199 16.188H185.099H184.999C184.999 17.3912 185.467 18.401 186.397 19.2114L186.463 19.136ZM185.099 16.188H185.199C185.199 15.232 185.548 14.33 186.254 13.4799L186.177 13.416L186.1 13.3521C185.368 14.2326 184.999 15.1787 184.999 16.188H185.099ZM186.177 13.416V13.316H183.713V13.416V13.516H186.177V13.416ZM183.713 13.416H183.813V11.458H183.713H183.613V13.416H183.713ZM183.713 11.458V11.558H195.505V11.458V11.358H183.713V11.458ZM195.505 11.458H195.405V13.416H195.505H195.605V11.458H195.505ZM200.191 20.566V20.466H197.793V20.566V20.666H200.191V20.566ZM197.793 20.566H197.893V17.09H197.793H197.693V20.566H197.793ZM197.793 17.09V16.99H194.867V17.09V17.19H197.793V17.09ZM194.867 17.09H194.967V14.978H194.867H194.767V17.09H194.867ZM194.867 14.978V15.078H197.793V14.978V14.878H194.867V14.978ZM197.793 14.978H197.893V7.366H197.793H197.693V14.978H197.793ZM197.793 7.366V7.466H200.191V7.366V7.266H197.793V7.366ZM200.191 7.366H200.091V20.566H200.191H200.291V7.366H200.191ZM199.949 28.42V28.32H189.235V28.42V28.52H199.949V28.42ZM189.235 28.42H189.335V21.182H189.235H189.135V28.42H189.235ZM189.235 21.182V21.282H199.949V21.182V21.082H189.235V21.182ZM199.949 21.182H199.849V28.42H199.949H200.049V21.182H199.949ZM197.573 26.374H197.673V23.228H197.573H197.473V26.374H197.573ZM197.573 23.228V23.128H191.611V23.228V23.328H197.573V23.228ZM191.611 23.228H191.511V26.374H191.611H191.711V23.228H191.611ZM191.611 26.374V26.474H197.573V26.374V26.274H191.611V26.374ZM213.528 8.95H213.628V8.85H213.528V8.95ZM213.352 13.438L213.253 13.4274L213.253 13.4286L213.352 13.438ZM212.758 16.826V16.926H212.836L212.855 16.8503L212.758 16.826ZM210.382 16.826L210.284 16.8055L210.259 16.926H210.382V16.826ZM210.91 13.878L211.009 13.8928L211.009 13.8925L210.91 13.878ZM211.13 11.018H211.23V10.918H211.13V11.018ZM203.782 11.018H203.682V11.118H203.782V11.018ZM203.782 8.95V8.85H203.682V8.95H203.782ZM221.976 16.232V16.332H222.076V16.232H221.976ZM218.5 16.232V16.132H218.4V16.232H218.5ZM218.5 23.272V23.372H218.6V23.272H218.5ZM216.102 23.272H216.002V23.372H216.102V23.272ZM216.102 7.366V7.266H216.002V7.366H216.102ZM218.5 7.366H218.6V7.266H218.5V7.366ZM218.5 14.164H218.4V14.264H218.5V14.164ZM221.976 14.164H222.076V14.064H221.976V14.164ZM206.378 18.256V18.356H206.478V18.256H206.378ZM206.378 13.68V13.58H206.278V13.68H206.378ZM208.776 13.68H208.876V13.58H208.776V13.68ZM208.776 18.256H208.676V18.356H208.776V18.256ZM211.526 18.212L211.524 18.112L211.524 18.112L211.526 18.212ZM215.64 17.75H215.74V17.6285L215.621 17.6519L215.64 17.75ZM215.64 19.818L215.661 19.9158L215.74 19.8989V19.818H215.64ZM211.68 20.28L211.678 20.18H211.678L211.68 20.28ZM202.176 20.324H202.076V20.424H202.176V20.324ZM202.176 18.256V18.156H202.076V18.256H202.176ZM218.434 28.31V28.41H218.534V28.31H218.434ZM206.906 28.31H206.806V28.41H206.906V28.31ZM206.906 21.644V21.544H206.806V21.644H206.906ZM209.282 21.644H209.382V21.544H209.282V21.644ZM209.282 26.198H209.182V26.298H209.282V26.198ZM218.434 26.198H218.534V26.098H218.434V26.198ZM213.528 8.95H213.428C213.428 10.8406 213.37 12.3325 213.253 13.4274L213.352 13.438L213.452 13.4486C213.57 12.3435 213.628 10.8434 213.628 8.95H213.528ZM213.352 13.438L213.253 13.4286C213.151 14.5084 212.954 15.6328 212.661 16.8017L212.758 16.826L212.855 16.8503C213.15 15.6726 213.349 14.5383 213.452 13.4474L213.352 13.438ZM212.758 16.826V16.726H210.382V16.826V16.926H212.758V16.826ZM210.382 16.826L210.48 16.8465C210.686 15.8619 210.862 14.8774 211.009 13.8928L210.91 13.878L210.811 13.8632C210.665 14.844 210.489 15.8247 210.284 16.8055L210.382 16.826ZM210.91 13.878L211.009 13.8925C211.157 12.8909 211.23 11.9327 211.23 11.018H211.13H211.03C211.03 11.922 210.957 12.8704 210.811 13.8635L210.91 13.878ZM211.13 11.018V10.918H203.782V11.018V11.118H211.13V11.018ZM203.782 11.018H203.882V8.95H203.782H203.682V11.018H203.782ZM203.782 8.95V9.05H213.528V8.95V8.85H203.782V8.95ZM221.976 16.232V16.132H218.5V16.232V16.332H221.976V16.232ZM218.5 16.232H218.4V23.272H218.5H218.6V16.232H218.5ZM218.5 23.272V23.172H216.102V23.272V23.372H218.5V23.272ZM216.102 23.272H216.202V7.366H216.102H216.002V23.272H216.102ZM216.102 7.366V7.466H218.5V7.366V7.266H216.102V7.366ZM218.5 7.366H218.4V14.164H218.5H218.6V7.366H218.5ZM218.5 14.164V14.264H221.976V14.164V14.064H218.5V14.164ZM221.976 14.164H221.876V16.232H221.976H222.076V14.164H221.976ZM206.378 18.256H206.478V13.68H206.378H206.278V18.256H206.378ZM206.378 13.68V13.78H208.776V13.68V13.58H206.378V13.68ZM208.776 13.68H208.676V18.256H208.776H208.876V13.68H208.776ZM208.776 18.256V18.356C209.54 18.356 210.458 18.3413 211.529 18.312L211.526 18.212L211.524 18.112C210.454 18.1414 209.538 18.156 208.776 18.156V18.256ZM211.526 18.212L211.529 18.312C212.855 18.2825 214.232 18.1278 215.66 17.8481L215.64 17.75L215.621 17.6519C214.204 17.9295 212.838 18.0828 211.524 18.112L211.526 18.212ZM215.64 17.75H215.54V19.818H215.64H215.74V17.75H215.64ZM215.64 19.818L215.619 19.7202C214.32 19.9976 213.007 20.1508 211.678 20.18L211.68 20.28L211.683 20.38C213.024 20.3505 214.35 20.1958 215.661 19.9158L215.64 19.818ZM211.68 20.28L211.678 20.18C210.359 20.2093 209.193 20.224 208.182 20.224V20.324V20.424C209.195 20.424 210.362 20.4093 211.683 20.38L211.68 20.28ZM208.182 20.324V20.224H202.176V20.324V20.424H208.182V20.324ZM202.176 20.324H202.276V18.256H202.176H202.076V20.324H202.176ZM202.176 18.256V18.356H206.378V18.256V18.156H202.176V18.256ZM218.434 28.31V28.21H206.906V28.31V28.41H218.434V28.31ZM206.906 28.31H207.006V21.644H206.906H206.806V28.31H206.906ZM206.906 21.644V21.744H209.282V21.644V21.544H206.906V21.644ZM209.282 21.644H209.182V26.198H209.282H209.382V21.644H209.282ZM209.282 26.198V26.298H218.434V26.198V26.098H209.282V26.198ZM218.434 26.198H218.334V28.31H218.434H218.534V26.198H218.434Z" fill="#002F67"/>
<path d="M60.756 41C60.652 41 60.6 40.952 60.6 40.856V33.284C60.6 33.188 60.648 33.14 60.744 33.14H62.784C63.608 33.14 64.224 33.304 64.632 33.632C65.04 33.96 65.244 34.448 65.244 35.096C65.244 35.528 65.156 35.884 64.98 36.164C64.812 36.444 64.54 36.664 64.164 36.824V36.872C64.612 36.976 64.952 37.184 65.184 37.496C65.416 37.808 65.532 38.22 65.532 38.732C65.532 39.508 65.316 40.08 64.884 40.448C64.452 40.816 63.764 41 62.82 41H60.756ZM62.172 39.704H62.856C63.24 39.704 63.52 39.616 63.696 39.44C63.88 39.264 63.972 38.992 63.972 38.624C63.972 38.272 63.88 38.008 63.696 37.832C63.512 37.656 63.228 37.568 62.844 37.568H62.172V39.704ZM62.172 36.392H62.76C63.088 36.392 63.328 36.308 63.48 36.14C63.632 35.964 63.708 35.708 63.708 35.372C63.708 35.052 63.628 34.816 63.468 34.664C63.308 34.512 63.056 34.436 62.712 34.436H62.172V36.392ZM68.7868 41.096C68.0748 41.096 67.5188 40.908 67.1188 40.532C66.7268 40.156 66.5308 39.604 66.5308 38.876V37.184C66.5308 36.456 66.7268 35.904 67.1188 35.528C67.5188 35.152 68.0748 34.964 68.7868 34.964C69.5068 34.964 70.0628 35.152 70.4548 35.528C70.8468 35.904 71.0428 36.456 71.0428 37.184V38.876C71.0428 39.604 70.8468 40.156 70.4548 40.532C70.0708 40.908 69.5148 41.096 68.7868 41.096ZM68.7868 39.776C69.0508 39.776 69.2388 39.7 69.3508 39.548C69.4628 39.396 69.5188 39.152 69.5188 38.816V37.256C69.5188 36.912 69.4628 36.668 69.3508 36.524C69.2388 36.372 69.0508 36.296 68.7868 36.296C68.5388 36.296 68.3548 36.372 68.2348 36.524C68.1148 36.668 68.0548 36.912 68.0548 37.256V38.816C68.0548 39.152 68.1148 39.396 68.2348 39.548C68.3548 39.7 68.5388 39.776 68.7868 39.776ZM72.3428 41C72.2468 41 72.1988 40.952 72.1988 40.856V36.584C72.1988 36.312 72.1948 36.064 72.1868 35.84C72.1868 35.616 72.1788 35.412 72.1628 35.228C72.1468 35.124 72.1868 35.072 72.2828 35.072H73.3748C73.4468 35.072 73.4908 35.112 73.5068 35.192C73.5308 35.328 73.5508 35.496 73.5668 35.696C73.5828 35.888 73.5908 36.056 73.5908 36.2L73.7228 36.668V40.856C73.7228 40.952 73.6788 41 73.5908 41H72.3428ZM73.6028 37.28L73.5068 35.984C73.6348 35.808 73.7788 35.644 73.9388 35.492C74.0988 35.332 74.2668 35.204 74.4428 35.108C74.6188 35.012 74.7988 34.964 74.9828 34.964C75.0388 34.964 75.0868 34.968 75.1268 34.976C75.1668 34.976 75.2068 34.984 75.2468 35C75.2948 35.016 75.3228 35.04 75.3308 35.072C75.3468 35.096 75.3548 35.132 75.3548 35.18C75.3548 35.372 75.3508 35.58 75.3428 35.804C75.3428 36.028 75.3308 36.244 75.3068 36.452C75.2988 36.54 75.2548 36.58 75.1748 36.572C75.1268 36.564 75.0748 36.556 75.0188 36.548C74.9628 36.54 74.9028 36.536 74.8388 36.536C74.7028 36.536 74.5628 36.568 74.4188 36.632C74.2748 36.688 74.1308 36.772 73.9868 36.884C73.8508 36.988 73.7228 37.12 73.6028 37.28ZM79.0103 41C78.9383 41 78.8903 40.952 78.8663 40.856C78.8503 40.752 78.8303 40.604 78.8063 40.412C78.7903 40.212 78.7783 40.028 78.7703 39.86L78.6383 39.56V36.812C78.6383 36.556 78.5983 36.38 78.5183 36.284C78.4463 36.188 78.3063 36.14 78.0983 36.14C77.7063 36.14 77.5263 36.356 77.5583 36.788C77.5743 36.884 77.5303 36.932 77.4263 36.932H76.3103C76.2223 36.932 76.1703 36.872 76.1543 36.752C76.1063 36.176 76.2543 35.736 76.5983 35.432C76.9423 35.12 77.4583 34.964 78.1463 34.964C78.8503 34.964 79.3623 35.112 79.6823 35.408C80.0023 35.704 80.1623 36.184 80.1623 36.848V39.476C80.1623 39.796 80.1663 40.064 80.1743 40.28C80.1823 40.496 80.1943 40.684 80.2103 40.844C80.2263 40.948 80.1863 41 80.0903 41H79.0103ZM77.1983 41.096C76.7983 41.096 76.4863 40.956 76.2623 40.676C76.0463 40.388 75.9383 39.988 75.9383 39.476C75.9383 38.892 76.0863 38.448 76.3823 38.144C76.6783 37.832 77.1863 37.64 77.9063 37.568L78.7703 37.46L78.7583 38.336L78.1823 38.408C77.8943 38.44 77.6903 38.524 77.5703 38.66C77.4583 38.796 77.4023 39 77.4023 39.272C77.4023 39.488 77.4343 39.652 77.4983 39.764C77.5623 39.868 77.6663 39.92 77.8103 39.92C77.9703 39.92 78.1263 39.864 78.2783 39.752C78.4383 39.64 78.6263 39.448 78.8423 39.176L78.9503 40.064C78.6463 40.408 78.3623 40.668 78.0983 40.844C77.8423 41.012 77.5423 41.096 77.1983 41.096ZM81.5533 41C81.4573 41 81.4093 40.952 81.4093 40.856V36.596C81.4093 36.324 81.4053 36.072 81.3973 35.84C81.3973 35.608 81.3893 35.404 81.3733 35.228C81.3653 35.124 81.4053 35.072 81.4933 35.072H82.5853C82.6573 35.072 82.7013 35.108 82.7173 35.18C82.7333 35.276 82.7453 35.384 82.7533 35.504C82.7693 35.624 82.7813 35.748 82.7893 35.876C83.0213 35.604 83.2653 35.384 83.5213 35.216C83.7773 35.048 84.0813 34.964 84.4333 34.964C84.7373 34.964 84.9813 35.036 85.1653 35.18C85.3573 35.316 85.4973 35.528 85.5853 35.816C85.8173 35.56 86.0613 35.356 86.3173 35.204C86.5813 35.044 86.8693 34.964 87.1813 34.964C87.6133 34.964 87.9373 35.104 88.1533 35.384C88.3693 35.656 88.4773 36.08 88.4773 36.656V40.856C88.4773 40.952 88.4333 41 88.3453 41H87.0853C86.9973 41 86.9533 40.952 86.9533 40.856V36.884C86.9533 36.684 86.9173 36.536 86.8453 36.44C86.7813 36.344 86.6733 36.296 86.5213 36.296C86.3853 36.296 86.2493 36.336 86.1133 36.416C85.9853 36.496 85.8493 36.608 85.7053 36.752V40.856C85.7053 40.952 85.6613 41 85.5733 41H84.3133C84.2253 41 84.1813 40.952 84.1813 40.856V36.884C84.1813 36.684 84.1453 36.536 84.0733 36.44C84.0093 36.344 83.9013 36.296 83.7493 36.296C83.6133 36.296 83.4813 36.336 83.3533 36.416C83.2253 36.496 83.0853 36.608 82.9333 36.752V40.856C82.9333 40.952 82.8893 41 82.8013 41H81.5533ZM91.8715 41.096C91.1195 41.096 90.5555 40.92 90.1795 40.568C89.8115 40.208 89.6275 39.66 89.6275 38.924V37.208C89.6275 36.472 89.8155 35.916 90.1915 35.54C90.5675 35.156 91.1195 34.964 91.8475 34.964C92.5915 34.964 93.1475 35.152 93.5155 35.528C93.8835 35.896 94.0675 36.46 94.0675 37.22V38.252C94.0675 38.348 94.0235 38.396 93.9355 38.396H91.1395V38.972C91.1395 39.3 91.1955 39.536 91.3075 39.68C91.4275 39.824 91.6155 39.896 91.8715 39.896C92.0875 39.896 92.2475 39.852 92.3515 39.764C92.4635 39.668 92.5155 39.516 92.5075 39.308C92.5075 39.22 92.5515 39.176 92.6395 39.176H93.8395C93.9195 39.176 93.9635 39.224 93.9715 39.32C93.9795 39.904 93.8075 40.348 93.4555 40.652C93.1115 40.948 92.5835 41.096 91.8715 41.096ZM91.1395 37.436H92.5675V37.064C92.5675 36.752 92.5115 36.524 92.3995 36.38C92.2875 36.236 92.1115 36.164 91.8715 36.164C91.6155 36.164 91.4275 36.236 91.3075 36.38C91.1955 36.524 91.1395 36.752 91.1395 37.064V37.436ZM98.117 41C98.045 41 97.997 40.952 97.973 40.856C97.957 40.752 97.937 40.604 97.913 40.412C97.897 40.212 97.885 40.028 97.877 39.86L97.745 39.56V36.812C97.745 36.556 97.705 36.38 97.625 36.284C97.553 36.188 97.413 36.14 97.205 36.14C96.813 36.14 96.633 36.356 96.665 36.788C96.681 36.884 96.637 36.932 96.533 36.932H95.417C95.329 36.932 95.277 36.872 95.261 36.752C95.213 36.176 95.361 35.736 95.705 35.432C96.049 35.12 96.565 34.964 97.253 34.964C97.957 34.964 98.469 35.112 98.789 35.408C99.109 35.704 99.269 36.184 99.269 36.848V39.476C99.269 39.796 99.273 40.064 99.281 40.28C99.289 40.496 99.301 40.684 99.317 40.844C99.333 40.948 99.293 41 99.197 41H98.117ZM96.305 41.096C95.905 41.096 95.593 40.956 95.369 40.676C95.153 40.388 95.045 39.988 95.045 39.476C95.045 38.892 95.193 38.448 95.489 38.144C95.785 37.832 96.293 37.64 97.013 37.568L97.877 37.46L97.865 38.336L97.289 38.408C97.001 38.44 96.797 38.524 96.677 38.66C96.565 38.796 96.509 39 96.509 39.272C96.509 39.488 96.541 39.652 96.605 39.764C96.669 39.868 96.773 39.92 96.917 39.92C97.077 39.92 97.233 39.864 97.385 39.752C97.545 39.64 97.733 39.448 97.949 39.176L98.057 40.064C97.753 40.408 97.469 40.668 97.205 40.844C96.949 41.012 96.649 41.096 96.305 41.096ZM104.804 41.096C103.924 41.096 103.296 40.888 102.92 40.472C102.544 40.056 102.388 39.472 102.452 38.72C102.46 38.608 102.508 38.552 102.596 38.552H103.868C103.956 38.552 103.996 38.608 103.988 38.72C103.972 39.048 104.036 39.304 104.18 39.488C104.324 39.664 104.548 39.752 104.852 39.752C105.148 39.752 105.364 39.688 105.5 39.56C105.644 39.432 105.716 39.236 105.716 38.972C105.716 38.828 105.696 38.7 105.656 38.588C105.616 38.468 105.548 38.364 105.452 38.276C105.364 38.18 105.24 38.088 105.08 38L103.796 37.22C103.324 36.94 102.988 36.636 102.788 36.308C102.588 35.972 102.492 35.556 102.5 35.06C102.508 34.412 102.7 33.916 103.076 33.572C103.46 33.22 104.028 33.044 104.78 33.044C105.612 33.044 106.232 33.244 106.64 33.644C107.048 34.036 107.22 34.6 107.156 35.336C107.14 35.472 107.092 35.54 107.012 35.54H105.728C105.632 35.54 105.592 35.472 105.608 35.336C105.632 35.064 105.576 34.84 105.44 34.664C105.312 34.48 105.108 34.388 104.828 34.388C104.58 34.388 104.392 34.444 104.264 34.556C104.136 34.668 104.068 34.84 104.06 35.072C104.06 35.296 104.112 35.48 104.216 35.624C104.328 35.768 104.496 35.904 104.72 36.032L105.992 36.788C106.312 36.98 106.564 37.18 106.748 37.388C106.94 37.588 107.076 37.816 107.156 38.072C107.244 38.32 107.284 38.62 107.276 38.972C107.276 39.66 107.08 40.188 106.688 40.556C106.296 40.916 105.668 41.096 104.804 41.096ZM111.271 41C111.199 41 111.151 40.952 111.127 40.856C111.111 40.752 111.091 40.604 111.067 40.412C111.051 40.212 111.039 40.028 111.031 39.86L110.899 39.56V36.812C110.899 36.556 110.859 36.38 110.779 36.284C110.707 36.188 110.567 36.14 110.359 36.14C109.967 36.14 109.787 36.356 109.819 36.788C109.835 36.884 109.791 36.932 109.687 36.932H108.571C108.483 36.932 108.431 36.872 108.415 36.752C108.367 36.176 108.515 35.736 108.859 35.432C109.203 35.12 109.719 34.964 110.407 34.964C111.111 34.964 111.623 35.112 111.943 35.408C112.263 35.704 112.423 36.184 112.423 36.848V39.476C112.423 39.796 112.427 40.064 112.435 40.28C112.443 40.496 112.455 40.684 112.471 40.844C112.487 40.948 112.447 41 112.351 41H111.271ZM109.459 41.096C109.059 41.096 108.747 40.956 108.523 40.676C108.307 40.388 108.199 39.988 108.199 39.476C108.199 38.892 108.347 38.448 108.643 38.144C108.939 37.832 109.447 37.64 110.167 37.568L111.031 37.46L111.019 38.336L110.443 38.408C110.155 38.44 109.951 38.524 109.831 38.66C109.719 38.796 109.663 39 109.663 39.272C109.663 39.488 109.695 39.652 109.759 39.764C109.823 39.868 109.927 39.92 110.071 39.92C110.231 39.92 110.387 39.864 110.539 39.752C110.699 39.64 110.887 39.448 111.103 39.176L111.211 40.064C110.907 40.408 110.623 40.668 110.359 40.844C110.103 41.012 109.803 41.096 109.459 41.096ZM114.258 41C114.226 41 114.198 40.988 114.174 40.964C114.15 40.932 114.138 40.896 114.138 40.856V36.38H113.478C113.382 36.38 113.334 36.332 113.334 36.236V35.204C113.334 35.116 113.382 35.072 113.478 35.072H114.138V34.568C114.138 33.952 114.278 33.488 114.558 33.176C114.846 32.864 115.274 32.708 115.842 32.708C116.098 32.708 116.334 32.724 116.55 32.756C116.766 32.78 116.93 32.812 117.042 32.852C117.114 32.892 117.15 32.948 117.15 33.02V33.956C117.15 34.076 117.094 34.112 116.982 34.064C116.878 34.04 116.766 34.016 116.646 33.992C116.526 33.96 116.398 33.944 116.262 33.944C116.054 33.944 115.902 34 115.806 34.112C115.71 34.224 115.662 34.4 115.662 34.64V35.072H116.67C116.766 35.072 116.814 35.116 116.814 35.204V36.236C116.814 36.332 116.766 36.38 116.67 36.38H115.662V40.856C115.662 40.896 115.646 40.932 115.614 40.964C115.59 40.988 115.558 41 115.518 41H114.258ZM119.761 41.096C119.009 41.096 118.445 40.92 118.069 40.568C117.701 40.208 117.517 39.66 117.517 38.924V37.208C117.517 36.472 117.705 35.916 118.081 35.54C118.457 35.156 119.009 34.964 119.737 34.964C120.481 34.964 121.037 35.152 121.405 35.528C121.773 35.896 121.957 36.46 121.957 37.22V38.252C121.957 38.348 121.913 38.396 121.825 38.396H119.029V38.972C119.029 39.3 119.085 39.536 119.197 39.68C119.317 39.824 119.505 39.896 119.761 39.896C119.977 39.896 120.137 39.852 120.241 39.764C120.353 39.668 120.405 39.516 120.397 39.308C120.397 39.22 120.441 39.176 120.529 39.176H121.729C121.809 39.176 121.853 39.224 121.861 39.32C121.869 39.904 121.697 40.348 121.345 40.652C121.001 40.948 120.473 41.096 119.761 41.096ZM119.029 37.436H120.457V37.064C120.457 36.752 120.401 36.524 120.289 36.38C120.177 36.236 120.001 36.164 119.761 36.164C119.505 36.164 119.317 36.236 119.197 36.38C119.085 36.524 119.029 36.752 119.029 37.064V37.436ZM125.298 41.096C124.666 41.096 124.218 40.94 123.954 40.628C123.69 40.316 123.558 39.792 123.558 39.056V36.38H122.898C122.81 36.38 122.766 36.332 122.766 36.236V35.204C122.766 35.116 122.81 35.072 122.898 35.072H123.606L123.762 33.644C123.778 33.548 123.826 33.5 123.906 33.5H124.962C125.042 33.5 125.082 33.548 125.082 33.644V35.072H126.33C126.426 35.072 126.474 35.116 126.474 35.204V36.236C126.474 36.332 126.426 36.38 126.33 36.38H125.082V38.96C125.082 39.248 125.126 39.456 125.214 39.584C125.302 39.712 125.454 39.776 125.67 39.776C125.774 39.776 125.878 39.764 125.982 39.74C126.094 39.716 126.21 39.68 126.33 39.632C126.434 39.592 126.486 39.632 126.486 39.752V40.76C126.486 40.848 126.446 40.904 126.366 40.928C126.23 40.976 126.07 41.016 125.886 41.048C125.702 41.08 125.506 41.096 125.298 41.096ZM128.437 43.22C128.397 43.22 128.365 43.204 128.341 43.172C128.325 43.14 128.325 43.1 128.341 43.052L128.929 40.988L127.237 35.228C127.205 35.124 127.241 35.072 127.345 35.072H128.713C128.793 35.072 128.845 35.112 128.869 35.192L129.349 37.388C129.405 37.644 129.457 37.92 129.505 38.216C129.553 38.512 129.597 38.796 129.637 39.068H129.673C129.713 38.796 129.757 38.512 129.805 38.216C129.853 37.92 129.901 37.648 129.949 37.4L130.453 35.192C130.469 35.112 130.517 35.072 130.597 35.072H131.941C132.045 35.072 132.081 35.124 132.049 35.228L129.805 43.112C129.789 43.184 129.741 43.22 129.661 43.22H128.437ZM135.277 41C135.189 41 135.145 40.952 135.145 40.856V33.284C135.145 33.188 135.189 33.14 135.277 33.14H139.237C139.325 33.14 139.369 33.188 139.369 33.284V34.388C139.369 34.484 139.325 34.532 139.237 34.532H136.717V36.368H139.009C139.097 36.368 139.141 36.416 139.141 36.512V37.544C139.141 37.64 139.097 37.688 139.009 37.688H136.717V39.608H139.237C139.325 39.608 139.369 39.656 139.369 39.752V40.856C139.369 40.952 139.325 41 139.237 41H135.277ZM140.345 41C140.297 41 140.261 40.984 140.237 40.952C140.221 40.912 140.225 40.868 140.249 40.82L141.809 37.952L140.357 35.228C140.325 35.18 140.317 35.144 140.333 35.12C140.357 35.088 140.397 35.072 140.453 35.072H141.857C141.945 35.072 141.997 35.1 142.013 35.156L142.409 36.068C142.457 36.212 142.509 36.368 142.565 36.536C142.621 36.696 142.673 36.888 142.721 37.112H142.745C142.801 36.888 142.853 36.692 142.901 36.524C142.957 36.356 143.013 36.2 143.069 36.056L143.441 35.168C143.457 35.104 143.505 35.072 143.585 35.072H145.001C145.049 35.072 145.081 35.088 145.097 35.12C145.121 35.144 145.117 35.18 145.085 35.228L143.645 37.94L145.205 40.82C145.237 40.868 145.241 40.912 145.217 40.952C145.201 40.984 145.169 41 145.121 41H143.681C143.601 41 143.553 40.968 143.537 40.904L143.141 39.956C143.069 39.788 143.001 39.616 142.937 39.44C142.873 39.264 142.809 39.06 142.745 38.828H142.721C142.657 39.06 142.593 39.268 142.529 39.452C142.465 39.628 142.397 39.796 142.325 39.956L141.917 40.904C141.901 40.968 141.849 41 141.761 41H140.345ZM148.848 41.096C148.624 41.096 148.38 41.064 148.116 41C147.86 40.944 147.636 40.86 147.444 40.748L147.432 39.584C147.568 39.656 147.712 39.716 147.864 39.764C148.016 39.812 148.16 39.836 148.296 39.836C148.504 39.836 148.66 39.764 148.764 39.62C148.868 39.468 148.92 39.232 148.92 38.912V36.98C148.92 36.74 148.884 36.568 148.812 36.464C148.74 36.352 148.616 36.296 148.44 36.296C148.28 36.296 148.12 36.348 147.96 36.452C147.8 36.556 147.632 36.704 147.456 36.896L147.276 35.984C147.556 35.696 147.84 35.456 148.128 35.264C148.416 35.064 148.748 34.964 149.124 34.964C149.572 34.964 149.904 35.108 150.12 35.396C150.336 35.676 150.444 36.116 150.444 36.716V38.996C150.444 39.716 150.308 40.248 150.036 40.592C149.772 40.928 149.376 41.096 148.848 41.096ZM146.232 43.22C146.136 43.22 146.088 43.172 146.088 43.076V36.548C146.088 36.292 146.084 36.052 146.076 35.828C146.076 35.604 146.068 35.404 146.052 35.228C146.036 35.124 146.076 35.072 146.172 35.072H147.252C147.332 35.072 147.38 35.112 147.396 35.192C147.412 35.296 147.428 35.436 147.444 35.612C147.46 35.78 147.472 35.936 147.48 36.08L147.612 36.596V43.076C147.612 43.172 147.568 43.22 147.48 43.22H146.232ZM153.784 41.096C153.032 41.096 152.468 40.92 152.092 40.568C151.724 40.208 151.54 39.66 151.54 38.924V37.208C151.54 36.472 151.728 35.916 152.104 35.54C152.48 35.156 153.032 34.964 153.76 34.964C154.504 34.964 155.06 35.152 155.428 35.528C155.796 35.896 155.98 36.46 155.98 37.22V38.252C155.98 38.348 155.936 38.396 155.848 38.396H153.052V38.972C153.052 39.3 153.108 39.536 153.22 39.68C153.34 39.824 153.528 39.896 153.784 39.896C154 39.896 154.16 39.852 154.264 39.764C154.376 39.668 154.428 39.516 154.42 39.308C154.42 39.22 154.464 39.176 154.553 39.176H155.752C155.832 39.176 155.876 39.224 155.885 39.32C155.892 39.904 155.72 40.348 155.368 40.652C155.024 40.948 154.496 41.096 153.784 41.096ZM153.052 37.436H154.48V37.064C154.48 36.752 154.424 36.524 154.312 36.38C154.2 36.236 154.024 36.164 153.784 36.164C153.528 36.164 153.34 36.236 153.22 36.38C153.108 36.524 153.052 36.752 153.052 37.064V37.436ZM157.294 41C157.198 41 157.15 40.952 157.15 40.856V36.584C157.15 36.312 157.146 36.064 157.138 35.84C157.138 35.616 157.13 35.412 157.114 35.228C157.098 35.124 157.138 35.072 157.234 35.072H158.326C158.398 35.072 158.442 35.112 158.458 35.192C158.482 35.328 158.502 35.496 158.518 35.696C158.534 35.888 158.542 36.056 158.542 36.2L158.674 36.668V40.856C158.674 40.952 158.63 41 158.542 41H157.294ZM158.554 37.28L158.458 35.984C158.586 35.808 158.73 35.644 158.89 35.492C159.05 35.332 159.218 35.204 159.394 35.108C159.57 35.012 159.75 34.964 159.934 34.964C159.99 34.964 160.038 34.968 160.078 34.976C160.118 34.976 160.158 34.984 160.198 35C160.246 35.016 160.274 35.04 160.282 35.072C160.298 35.096 160.306 35.132 160.306 35.18C160.306 35.372 160.302 35.58 160.294 35.804C160.294 36.028 160.282 36.244 160.258 36.452C160.25 36.54 160.206 36.58 160.126 36.572C160.078 36.564 160.026 36.556 159.97 36.548C159.914 36.54 159.854 36.536 159.79 36.536C159.654 36.536 159.514 36.568 159.37 36.632C159.226 36.688 159.082 36.772 158.938 36.884C158.802 36.988 158.674 37.12 158.554 37.28ZM161.366 41C161.27 41 161.222 40.952 161.222 40.856V35.204C161.222 35.116 161.27 35.072 161.366 35.072H162.614C162.702 35.072 162.746 35.116 162.746 35.204V40.856C162.746 40.952 162.702 41 162.614 41H161.366ZM161.99 34.28C161.718 34.28 161.502 34.212 161.342 34.076C161.19 33.932 161.114 33.74 161.114 33.5V33.296C161.114 33.048 161.19 32.856 161.342 32.72C161.502 32.576 161.718 32.504 161.99 32.504C162.278 32.504 162.494 32.576 162.638 32.72C162.79 32.856 162.866 33.048 162.866 33.296V33.5C162.866 33.74 162.79 33.932 162.638 34.076C162.494 34.212 162.278 34.28 161.99 34.28ZM166.141 41.096C165.389 41.096 164.825 40.92 164.449 40.568C164.081 40.208 163.897 39.66 163.897 38.924V37.208C163.897 36.472 164.085 35.916 164.461 35.54C164.837 35.156 165.389 34.964 166.117 34.964C166.861 34.964 167.417 35.152 167.785 35.528C168.153 35.896 168.337 36.46 168.337 37.22V38.252C168.337 38.348 168.293 38.396 168.205 38.396H165.409V38.972C165.409 39.3 165.465 39.536 165.577 39.68C165.697 39.824 165.885 39.896 166.141 39.896C166.357 39.896 166.517 39.852 166.621 39.764C166.733 39.668 166.785 39.516 166.777 39.308C166.777 39.22 166.821 39.176 166.909 39.176H168.109C168.189 39.176 168.233 39.224 168.241 39.32C168.249 39.904 168.077 40.348 167.725 40.652C167.381 40.948 166.853 41.096 166.141 41.096ZM165.409 37.436H166.837V37.064C166.837 36.752 166.781 36.524 166.669 36.38C166.557 36.236 166.381 36.164 166.141 36.164C165.885 36.164 165.697 36.236 165.577 36.38C165.465 36.524 165.409 36.752 165.409 37.064V37.436ZM172.543 41C172.455 41 172.411 40.952 172.411 40.856V36.932C172.411 36.708 172.371 36.548 172.291 36.452C172.211 36.348 172.083 36.296 171.907 36.296C171.747 36.296 171.587 36.348 171.427 36.452C171.267 36.548 171.099 36.692 170.923 36.884L170.743 36.032C170.991 35.728 171.267 35.476 171.571 35.276C171.875 35.068 172.219 34.964 172.603 34.964C173.051 34.964 173.383 35.104 173.599 35.384C173.823 35.656 173.935 36.088 173.935 36.68V40.856C173.935 40.952 173.887 41 173.791 41H172.543ZM169.651 41C169.555 41 169.507 40.952 169.507 40.856V36.596C169.507 36.324 169.503 36.072 169.495 35.84C169.495 35.6 169.487 35.396 169.471 35.228C169.463 35.124 169.503 35.072 169.591 35.072H170.671C170.751 35.072 170.799 35.112 170.815 35.192C170.831 35.32 170.847 35.488 170.863 35.696C170.887 35.904 170.903 36.08 170.911 36.224L171.031 36.632V40.856C171.031 40.952 170.987 41 170.899 41H169.651ZM177.344 41.096C176.608 41.096 176.048 40.908 175.664 40.532C175.28 40.148 175.088 39.58 175.088 38.828V37.196C175.088 36.468 175.28 35.916 175.664 35.54C176.056 35.156 176.616 34.964 177.344 34.964C177.808 34.964 178.204 35.052 178.532 35.228C178.86 35.404 179.1 35.652 179.252 35.972C179.412 36.284 179.472 36.644 179.432 37.052C179.424 37.196 179.376 37.268 179.288 37.268H178.172C178.076 37.268 178.028 37.212 178.028 37.1C178.044 36.82 177.992 36.616 177.872 36.488C177.76 36.36 177.592 36.296 177.368 36.296C177.112 36.296 176.92 36.368 176.792 36.512C176.672 36.656 176.612 36.908 176.612 37.268V38.768C176.612 39.128 176.672 39.384 176.792 39.536C176.912 39.688 177.1 39.764 177.356 39.764C177.588 39.764 177.756 39.7 177.86 39.572C177.972 39.436 178.028 39.232 178.028 38.96C178.028 38.848 178.072 38.792 178.16 38.792H179.3C179.388 38.792 179.432 38.844 179.432 38.948C179.448 39.644 179.28 40.176 178.928 40.544C178.584 40.912 178.056 41.096 177.344 41.096ZM182.728 41.096C181.976 41.096 181.412 40.92 181.036 40.568C180.668 40.208 180.484 39.66 180.484 38.924V37.208C180.484 36.472 180.672 35.916 181.048 35.54C181.424 35.156 181.976 34.964 182.704 34.964C183.448 34.964 184.004 35.152 184.372 35.528C184.74 35.896 184.924 36.46 184.924 37.22V38.252C184.924 38.348 184.88 38.396 184.792 38.396H181.996V38.972C181.996 39.3 182.052 39.536 182.164 39.68C182.284 39.824 182.472 39.896 182.728 39.896C182.944 39.896 183.104 39.852 183.208 39.764C183.32 39.668 183.372 39.516 183.364 39.308C183.364 39.22 183.408 39.176 183.496 39.176H184.696C184.776 39.176 184.82 39.224 184.828 39.32C184.836 39.904 184.664 40.348 184.312 40.652C183.968 40.948 183.44 41.096 182.728 41.096ZM181.996 37.436H183.424V37.064C183.424 36.752 183.368 36.524 183.256 36.38C183.144 36.236 182.968 36.164 182.728 36.164C182.472 36.164 182.284 36.236 182.164 36.38C182.052 36.524 181.996 36.752 181.996 37.064V37.436ZM190.861 41.096C189.989 41.096 189.321 40.864 188.857 40.4C188.393 39.936 188.161 39.224 188.161 38.264V35.888C188.161 34.944 188.393 34.236 188.857 33.764C189.321 33.284 189.989 33.044 190.861 33.044C191.469 33.044 191.981 33.16 192.397 33.392C192.813 33.624 193.117 33.948 193.309 34.364C193.509 34.78 193.573 35.272 193.501 35.84C193.493 35.944 193.449 35.996 193.369 35.996H192.061C191.973 35.996 191.933 35.944 191.941 35.84C191.973 35.392 191.901 35.048 191.725 34.808C191.549 34.56 191.265 34.436 190.873 34.436C190.489 34.436 190.201 34.556 190.009 34.796C189.825 35.028 189.733 35.404 189.733 35.924V38.192C189.733 38.728 189.829 39.116 190.021 39.356C190.213 39.588 190.497 39.704 190.873 39.704C191.289 39.704 191.577 39.576 191.737 39.32C191.905 39.056 191.977 38.712 191.953 38.288C191.945 38.192 191.985 38.144 192.073 38.144H193.369C193.449 38.144 193.497 38.192 193.513 38.288C193.593 39.152 193.401 39.836 192.937 40.34C192.473 40.844 191.781 41.096 190.861 41.096ZM196.819 41.096C196.067 41.096 195.503 40.92 195.127 40.568C194.759 40.208 194.575 39.66 194.575 38.924V37.208C194.575 36.472 194.763 35.916 195.139 35.54C195.515 35.156 196.067 34.964 196.795 34.964C197.539 34.964 198.095 35.152 198.463 35.528C198.831 35.896 199.015 36.46 199.015 37.22V38.252C199.015 38.348 198.971 38.396 198.883 38.396H196.087V38.972C196.087 39.3 196.143 39.536 196.255 39.68C196.375 39.824 196.563 39.896 196.819 39.896C197.035 39.896 197.195 39.852 197.299 39.764C197.411 39.668 197.463 39.516 197.455 39.308C197.455 39.22 197.499 39.176 197.587 39.176H198.787C198.867 39.176 198.911 39.224 198.919 39.32C198.927 39.904 198.755 40.348 198.403 40.652C198.059 40.948 197.531 41.096 196.819 41.096ZM196.087 37.436H197.515V37.064C197.515 36.752 197.459 36.524 197.347 36.38C197.235 36.236 197.059 36.164 196.819 36.164C196.563 36.164 196.375 36.236 196.255 36.38C196.143 36.524 196.087 36.752 196.087 37.064V37.436ZM203.221 41C203.133 41 203.089 40.952 203.089 40.856V36.932C203.089 36.708 203.049 36.548 202.969 36.452C202.889 36.348 202.761 36.296 202.585 36.296C202.425 36.296 202.265 36.348 202.105 36.452C201.945 36.548 201.777 36.692 201.601 36.884L201.421 36.032C201.669 35.728 201.945 35.476 202.249 35.276C202.553 35.068 202.897 34.964 203.281 34.964C203.729 34.964 204.061 35.104 204.277 35.384C204.501 35.656 204.613 36.088 204.613 36.68V40.856C204.613 40.952 204.565 41 204.469 41H203.221ZM200.329 41C200.233 41 200.185 40.952 200.185 40.856V36.596C200.185 36.324 200.181 36.072 200.173 35.84C200.173 35.6 200.165 35.396 200.149 35.228C200.141 35.124 200.181 35.072 200.269 35.072H201.349C201.429 35.072 201.477 35.112 201.493 35.192C201.509 35.32 201.525 35.488 201.541 35.696C201.565 35.904 201.581 36.08 201.589 36.224L201.709 36.632V40.856C201.709 40.952 201.665 41 201.577 41H200.329ZM208.093 41.096C207.461 41.096 207.013 40.94 206.749 40.628C206.485 40.316 206.353 39.792 206.353 39.056V36.38H205.693C205.605 36.38 205.561 36.332 205.561 36.236V35.204C205.561 35.116 205.605 35.072 205.693 35.072H206.401L206.557 33.644C206.573 33.548 206.621 33.5 206.701 33.5H207.757C207.837 33.5 207.877 33.548 207.877 33.644V35.072H209.125C209.221 35.072 209.269 35.116 209.269 35.204V36.236C209.269 36.332 209.221 36.38 209.125 36.38H207.877V38.96C207.877 39.248 207.921 39.456 208.009 39.584C208.097 39.712 208.249 39.776 208.465 39.776C208.569 39.776 208.673 39.764 208.777 39.74C208.889 39.716 209.005 39.68 209.125 39.632C209.229 39.592 209.281 39.632 209.281 39.752V40.76C209.281 40.848 209.241 40.904 209.161 40.928C209.025 40.976 208.865 41.016 208.681 41.048C208.497 41.08 208.301 41.096 208.093 41.096ZM212.352 41.096C211.6 41.096 211.036 40.92 210.66 40.568C210.292 40.208 210.108 39.66 210.108 38.924V37.208C210.108 36.472 210.296 35.916 210.672 35.54C211.048 35.156 211.6 34.964 212.328 34.964C213.072 34.964 213.628 35.152 213.996 35.528C214.364 35.896 214.548 36.46 214.548 37.22V38.252C214.548 38.348 214.504 38.396 214.416 38.396H211.62V38.972C211.62 39.3 211.676 39.536 211.788 39.68C211.908 39.824 212.096 39.896 212.352 39.896C212.568 39.896 212.728 39.852 212.832 39.764C212.944 39.668 212.996 39.516 212.988 39.308C212.988 39.22 213.032 39.176 213.12 39.176H214.32C214.4 39.176 214.444 39.224 214.452 39.32C214.46 39.904 214.288 40.348 213.936 40.652C213.592 40.948 213.064 41.096 212.352 41.096ZM211.62 37.436H213.048V37.064C213.048 36.752 212.992 36.524 212.88 36.38C212.768 36.236 212.592 36.164 212.352 36.164C212.096 36.164 211.908 36.236 211.788 36.38C211.676 36.524 211.62 36.752 211.62 37.064V37.436ZM215.861 41C215.765 41 215.717 40.952 215.717 40.856V36.584C215.717 36.312 215.713 36.064 215.705 35.84C215.705 35.616 215.697 35.412 215.681 35.228C215.665 35.124 215.705 35.072 215.801 35.072H216.893C216.965 35.072 217.009 35.112 217.025 35.192C217.049 35.328 217.069 35.496 217.085 35.696C217.101 35.888 217.109 36.056 217.109 36.2L217.241 36.668V40.856C217.241 40.952 217.197 41 217.109 41H215.861ZM217.121 37.28L217.025 35.984C217.153 35.808 217.297 35.644 217.457 35.492C217.617 35.332 217.785 35.204 217.961 35.108C218.137 35.012 218.317 34.964 218.501 34.964C218.557 34.964 218.605 34.968 218.645 34.976C218.685 34.976 218.725 34.984 218.765 35C218.813 35.016 218.841 35.04 218.849 35.072C218.865 35.096 218.873 35.132 218.873 35.18C218.873 35.372 218.869 35.58 218.861 35.804C218.861 36.028 218.849 36.244 218.825 36.452C218.817 36.54 218.773 36.58 218.693 36.572C218.645 36.564 218.593 36.556 218.537 36.548C218.481 36.54 218.421 36.536 218.357 36.536C218.221 36.536 218.081 36.568 217.937 36.632C217.793 36.688 217.649 36.772 217.505 36.884C217.369 36.988 217.241 37.12 217.121 37.28Z" fill="#002F67"/>
</g>
<defs>
<clipPath id="clip0_553_4202">
<rect width="277" height="48" fill="white"/>
</clipPath>
</defs>
</svg>
