<svg width="16" height="16" viewBox="0 0 16 16" fill="none" xmlns="http://www.w3.org/2000/svg">
<g id="icon / 20 / calender" clip-path="url(#clip0_156_8245)">
<path id="Vector" d="M9.66667 10.05C9.25245 10.05 8.91667 10.3858 8.91667 10.8C8.91667 11.2142 9.25245 11.55 9.66667 11.55V10.05ZM4.54702 3.81665H13.5866V2.31665H4.54702V3.81665ZM13.5866 3.81665C13.7688 3.81665 13.9168 3.96446 13.9168 4.14706H15.4168C15.4168 3.13628 14.5975 2.31665 13.5866 2.31665V3.81665ZM13.9168 4.14706V9.71958H15.4168V4.14706H13.9168ZM13.9168 9.71958C13.9168 9.90218 13.7688 10.05 13.5866 10.05V11.55C14.5975 11.55 15.4168 10.7304 15.4168 9.71958H13.9168ZM13.5866 10.05H9.66667V11.55H13.5866V10.05ZM4.2168 4.14706C4.2168 3.96446 4.36476 3.81665 4.54702 3.81665V2.31665C3.53609 2.31665 2.7168 3.13627 2.7168 4.14706H4.2168ZM4.2168 5.78724V4.14706H2.7168V5.78724H4.2168Z" fill="#444444"/>
<path id="Vector 259" d="M6 2.66663L6 1.33329" stroke="#444444" stroke-width="1.5" stroke-linecap="round"/>
<path id="Vector 260" d="M12 2.66663L12 1.33329" stroke="#444444" stroke-width="1.5" stroke-linecap="round"/>
<path id="Vector_2" d="M1.33456 6.76252C1.33487 6.76252 1.33513 6.76277 1.33513 6.76309V10.6708C1.33513 11.8157 1.94834 12.8728 2.94367 13.4457L5.27411 14.7853C5.40797 14.8628 5.57386 14.8628 5.70771 14.7853L8.03815 13.4457C9.03348 12.8739 9.64669 11.8157 9.64669 10.6708V6.76252C9.64669 6.6486 9.57576 6.54608 9.46822 6.50621L5.72029 5.10851C5.57157 5.0527 5.40911 5.0527 5.26038 5.10851L1.51246 6.50621C1.4051 6.54601 1.33422 6.64826 1.33398 6.76194C1.33398 6.76226 1.33424 6.76252 1.33456 6.76252V6.76252Z" stroke="#444444" stroke-width="1.5"/>
<path id="Vector 257" d="M3.33398 10H7.33398" stroke="#444444" stroke-width="1.5" stroke-linecap="round"/>
<path id="Vector 258" d="M5.33398 12L5.33398 8" stroke="#444444" stroke-width="1.5" stroke-linecap="round"/>
</g>
<defs>
<clipPath id="clip0_156_8245">
<rect width="16" height="16" fill="white"/>
</clipPath>
</defs>
</svg>
