<svg width="162" height="28" viewBox="0 0 162 28" fill="none" xmlns="http://www.w3.org/2000/svg">
<g clip-path="url(#clip0_553_10267)">
<path d="M30.1617 14C30.1617 21.7354 23.8882 28.0041 16.1511 28.0041C8.41406 28.0041 2.14062 21.7354 2.14062 14C2.14062 6.26458 8.40991 0 16.1511 0C23.8924 0 30.1617 6.26872 30.1617 14Z" fill="#FAA61A"/>
<path d="M28.7565 14.0005C28.7565 20.957 23.1133 26.5959 16.1515 26.5959C9.18982 26.5959 3.55078 20.957 3.55078 14.0005C3.55078 7.04398 9.18982 1.40918 16.1515 1.40918C23.1133 1.40918 28.7565 7.04813 28.7565 14.0005Z" fill="#002F67"/>
<path d="M4.25573 14.1036C4.18524 14.0705 4.1728 14.1036 4.22671 14.145H4.23915C4.53768 14.3688 4.60402 14.6298 4.47963 14.8535C4.2889 15.1933 3.95719 15.2099 3.82866 15.0068C3.66695 14.7458 3.91988 14.4392 4.16037 14.7168C4.42988 14.0415 3.10719 14.1119 3.3228 14.9944C2.95792 14.9157 2.55573 14.7168 2.22402 14.3853C2.15768 14.3191 2.1328 14.3605 2.17426 14.4226C2.48939 14.8991 2.94548 15.2057 3.42231 15.4336C3.87427 15.62 4.26817 15.8396 4.43402 16.1711C4.54183 16.3824 4.36354 16.5274 4.20598 16.5813C3.50939 16.8174 2.89987 17.4555 3.10719 18.6653H2.05402C1.97109 18.4623 1.89646 18.1184 2.0706 17.6875C2.08719 17.6544 2.0706 17.6254 2.04158 17.6502C1.80109 17.874 1.68085 18.2178 1.77621 18.6612H1.39889C1.31597 18.483 1.21646 18.1433 1.39889 17.7124C1.41133 17.6834 1.40304 17.6544 1.37402 17.6834C1.25377 17.7952 1.00085 18.1143 1.08377 18.6612H0.764503C0.656698 18.6612 0.615234 18.5949 0.615234 18.4954C0.615234 16.8713 2.20743 16.7843 2.91646 17.1116H2.92061C2.97451 17.1447 2.99109 17.124 2.95792 17.0867L2.94963 17.0743C2.82524 16.9252 2.48939 16.6393 1.79694 16.6931C1.87573 16.457 1.97938 15.8521 1.63938 14.7665C0.922064 12.4753 1.89646 9.76149 3.91988 8.65525C4.61232 8.27822 5.20525 8.19949 5.64891 8.34451C5.56598 8.44395 5.55769 8.64282 5.62403 8.73397C5.22183 8.55996 4.53354 8.87484 4.75744 9.18144L4.76988 9.19387C4.7989 9.2353 4.81549 9.22287 4.8072 9.17315V9.15658C4.7989 9.02814 4.89012 8.94113 5.02281 8.8997C4.84866 9.04886 5.0311 9.34717 5.25086 9.22287C4.9772 9.19387 5.07671 8.87484 5.23427 8.86656C5.49134 8.83755 5.90598 9.082 5.66964 9.16487C5.61159 9.18559 5.40842 9.23116 5.30476 9.31402C5.26329 9.34303 5.27159 9.35131 5.31305 9.34717C5.54939 9.33888 5.6572 9.3016 5.85208 9.26845C7.16647 9.03643 7.60598 9.82779 7.55623 10.151C7.54379 10.1012 7.45257 9.98523 7.40696 10.064C7.33233 10.2173 7.05867 10.2504 6.82647 10.0018C6.74769 9.91065 6.57354 9.88579 6.3911 9.91894C6.09671 9.96866 5.95988 9.96037 5.83135 9.6952C5.80232 9.67863 5.80232 9.6952 5.80647 9.71592C5.81891 9.91894 5.86037 10.2877 6.24598 10.3498C6.38281 10.383 6.52379 10.2255 6.72281 10.3498C6.85549 10.47 7.00062 10.6233 7.21623 10.5694C7.41111 10.5239 7.4194 10.6026 7.44428 10.6647C7.48159 10.8346 7.39867 10.905 7.25769 10.8056C7.1955 10.7642 7.10842 10.7186 7.02135 10.7062C6.3911 10.6274 5.78988 11.1661 5.30061 10.3001C5.23842 10.1924 5.13476 10.0805 5.01866 10.0474C4.80305 9.98523 4.66622 10.1137 4.57085 10.2753C4.42573 10.5321 4.53354 10.441 4.69524 10.3333C4.77817 10.2835 4.93159 10.2918 5.01037 10.3581C5.05598 10.4037 5.10159 10.5197 5.03525 10.6233C4.91086 10.8056 4.76988 10.9879 4.68281 11.0128C4.56671 11.0418 4.53768 10.8553 4.52524 10.7476C4.51695 10.6854 4.48793 10.6896 4.47549 10.7559C4.44646 10.9257 4.4589 11.1702 4.60817 11.1785C4.84037 11.1951 5.04354 10.9465 5.19281 10.7103C5.22598 10.6772 5.25915 10.6813 5.29232 10.7103C5.6033 11.0459 5.98476 11.0749 6.50305 10.9589C6.68135 10.9175 6.86793 10.9092 7.01306 10.934C7.3572 11.0003 7.42354 11.2282 7.39452 11.4602C7.34891 11.6757 7.30745 11.7005 7.21208 11.771C7.17062 11.8041 7.17062 11.8414 7.20379 11.8455C7.20379 11.8455 7.24111 11.8953 7.18306 12.0154C7.16232 12.0527 7.14159 12.09 7.11671 12.119C7.10428 12.1397 7.09184 12.1521 7.09184 12.1563C6.96745 12.3344 6.83891 12.4629 6.76013 12.525C6.52793 12.6949 6.45744 12.7985 6.61915 12.7943C6.66062 12.7943 6.70623 12.7861 6.74354 12.7695C6.75598 12.7778 6.76428 12.7902 6.78086 12.7985C7.22867 13.1009 7.95428 13.9379 8.42696 14.7085C8.47257 14.7872 8.70891 14.8038 9.02818 15.1063C10.044 16.0634 10.637 17.1116 10.7323 18.5079C10.7323 18.599 10.6743 18.6653 10.5831 18.6653H9.26038C9.22306 18.5244 9.20648 18.3214 9.31013 18.0811C9.32257 18.0563 9.31428 18.0397 9.29355 18.0563C9.14013 18.193 9.05306 18.4084 9.09038 18.6612H8.85404C8.80843 18.5327 8.77111 18.3256 8.88306 18.0687C8.89135 18.0521 8.88306 18.0314 8.86648 18.048C8.78769 18.1184 8.63843 18.2758 8.65916 18.6612H8.50574C8.42282 18.6612 8.33574 18.6446 8.33989 18.5369C8.30257 17.7869 9.60453 16.9624 10.4006 18.0645V18.0728C10.4462 18.1391 10.4753 18.1225 10.4504 18.0563L10.4421 18.0397C10.2596 17.5756 9.64184 17.1696 8.99916 17.3975C8.77526 17.0329 8.6094 16.7304 8.63843 15.8231C8.63843 15.7485 8.6094 15.7485 8.59282 15.8148C8.48086 16.2954 8.49745 17.008 8.69647 17.5425C8.35647 17.7248 8.19062 18.0273 8.12428 18.3463C8.10355 18.4623 7.88379 18.4623 7.92111 18.3214C7.9833 18.0894 8.09525 16.9624 7.9833 16.457C8.04135 15.9308 7.9833 15.4584 7.63501 15.2057C7.74281 15.1684 7.81745 15.0773 7.8133 14.9364C7.82574 14.5967 7.29501 14.1658 7.2494 14.5428C7.2494 14.5428 7.2494 14.5884 7.25354 14.5594C7.33232 14.3812 7.71379 14.6588 7.56452 14.8701C7.42769 15.0607 7.02964 14.7955 7.05452 14.4765C7.10013 13.8799 7.73452 14.3315 8.12013 14.8908C8.40208 15.301 8.71306 15.4129 8.90379 15.4377C8.97843 15.4502 8.98257 15.4212 8.92038 15.3963H8.90379C8.68404 15.3051 8.42696 15.1104 8.08281 14.5428C7.12501 12.9601 6.25427 13.8053 6.85135 14.7872C6.95501 14.953 7.08769 15.0731 7.22037 15.1436C6.9633 15.4833 7.61428 16.0509 7.6972 15.7733C7.71379 15.7236 7.68891 15.6615 7.64745 15.5993C7.52306 15.8272 7.28672 15.243 7.53964 15.359C7.73452 15.4502 7.9294 15.8976 7.84233 16.2539C7.7594 16.1255 7.53964 15.8852 7.3655 15.9929C7.28672 16.0385 7.27842 16.1794 7.34891 16.3285C7.44842 16.5357 7.66403 16.631 7.70135 16.515C7.71379 16.4777 7.70135 16.4238 7.66818 16.3741C7.63915 16.4611 7.51476 16.3865 7.49818 16.2498C7.48989 16.1835 7.51891 16.1421 7.5894 16.1835C7.78428 16.2871 7.81745 16.4984 7.82574 16.9003C7.80916 18.7275 7.23281 18.6695 7.04208 18.6695H5.32964C5.20525 18.4664 5.01451 18.0231 5.20525 17.4265C5.21769 17.3892 5.20525 17.3519 5.16793 17.3933C5.02695 17.5508 4.76159 17.8905 4.90671 18.6736H4.43402C4.30549 18.4706 4.1189 18.0273 4.30963 17.4306C4.32207 17.3933 4.30963 17.356 4.27232 17.3975C4.13134 17.5549 3.86597 17.8947 4.0111 18.6777H3.69597C3.48451 18.6777 3.45963 18.5617 3.43061 18.3504C3.24402 16.1877 6.14232 16.5108 7.21208 17.3063L7.22452 17.3146C7.28257 17.3602 7.3033 17.3353 7.25769 17.2815L7.2494 17.269C6.87208 16.834 6.02622 16.428 5.0311 16.4487C4.76159 16.4611 4.68281 16.2912 4.67451 16.1504C4.65793 15.8479 4.64963 15.7236 4.65793 15.5993C4.65793 14.9488 5.61988 14.3853 6.07183 13.5484C6.13818 13.4241 6.09257 13.391 6.01378 13.5028C5.66135 13.9835 5.25086 14.4144 4.79476 14.7002C4.79476 14.6878 4.79476 14.6754 4.78646 14.6629C4.74915 14.4434 4.49622 14.2113 4.25988 14.1202H4.25159L4.25573 14.1036Z" fill="white"/>
<path d="M5.7873 8.5144C5.85365 8.16637 6.40926 8.16223 6.39267 8.4854C6.38023 8.67599 6.08169 8.67599 6.11487 8.50612C6.11487 8.49783 6.10657 8.48954 6.09413 8.49783C6.01121 8.56827 6.04852 8.75885 6.23096 8.792C6.45072 8.83343 6.57511 8.95359 6.59584 9.09446C6.3056 8.99916 5.69194 9.02402 5.7873 8.5144Z" fill="white"/>
<path d="M2.2748 11.3978C2.40334 11.3191 2.54431 11.1741 2.54431 10.9462C2.54431 10.8592 2.50285 10.7681 2.4987 10.6479C2.49041 10.5195 2.54846 10.4076 2.65212 10.3372C2.74749 10.275 2.87188 10.2585 2.97553 10.2957C3.09163 10.3372 3.11651 10.4408 3.09578 10.5236C3.0709 10.5982 3.01285 10.6645 2.93407 10.6521H2.92992C2.84285 10.6272 2.80968 10.5609 2.80139 10.5029C2.72675 10.5443 2.69358 10.6148 2.70188 10.6976C2.71846 10.7805 2.78895 10.8799 2.95066 10.9089C3.06675 10.9297 3.18285 10.8882 3.25749 10.7929C3.32797 10.7101 3.36115 10.6023 3.35285 10.4946C3.36115 10.4076 3.34456 10.3165 3.28651 10.2295C3.24505 10.1756 3.18285 10.1342 3.12066 10.0596C3.05846 9.98086 3.04602 9.88556 3.07919 9.79027C3.10822 9.70326 3.18285 9.64111 3.26578 9.61625C3.357 9.59139 3.41919 9.64525 3.44407 9.71155C3.46066 9.76541 3.45236 9.83999 3.39846 9.8607C3.39846 9.8607 3.39846 9.8607 3.39017 9.8607C3.33212 9.88971 3.27822 9.8607 3.24919 9.82756C3.22017 9.88556 3.22846 9.94771 3.27407 9.99329C3.31968 10.0389 3.40675 10.072 3.52285 10.0181C3.60578 9.97671 3.65968 9.90214 3.66383 9.8027C3.67212 9.67426 3.60163 9.54582 3.48968 9.47952C3.38188 9.41323 3.187 9.40495 3.05017 9.48781C2.91749 9.57068 2.86358 9.72398 2.88431 9.8607C2.89261 9.91871 2.90505 9.96843 2.92578 10.0099C2.89261 10.0016 2.86358 9.99743 2.83456 9.99329C2.63139 9.97671 2.46139 10.0969 2.38261 10.2585C2.26651 10.478 2.30383 10.6479 2.337 10.8136C2.36187 10.9504 2.38675 11.0747 2.32456 11.2114C2.29968 11.2611 2.2748 11.3067 2.24163 11.3398L2.22919 11.3564C2.17943 11.4061 2.20017 11.431 2.25822 11.3937L2.27065 11.3854L2.2748 11.3978Z" fill="#002F67"/>
<path d="M7.53997 19.0216C7.83022 19.0216 7.92973 18.86 7.97949 18.7523C8.00022 18.7109 8.00437 18.7192 8.00437 18.7523C8.01266 18.9346 8.21168 19.0216 8.32364 19.0216H10.4217C11.0188 19.0216 11.0768 18.7896 11.0561 18.338C10.9732 17.0412 9.95315 15.1021 8.67607 14.5096C8.26144 13.8716 7.52339 13.0222 7.03827 12.5996C7.25802 12.3593 7.51095 11.9326 7.59388 11.6384C7.69754 11.4768 7.6851 11.0708 7.61046 11.0128C7.6851 10.8097 7.63949 10.644 7.58558 10.528C7.84681 10.2835 7.80949 9.26431 6.79778 9.13587C6.78948 8.90384 6.64436 8.78369 6.47022 8.70083C6.78948 8.53924 6.51997 7.95919 5.9146 8.12077C5.78607 8.04205 5.54973 7.97162 5.23875 7.97576C4.91119 7.97576 4.49655 7.98819 3.79997 8.36937C1.63972 9.55019 0.48703 12.3717 1.27069 14.895C1.75581 16.4611 1.44069 16.5978 0.810445 17.1157C0.27142 17.5964 0.205078 17.9858 0.205078 18.3711C0.205078 18.7565 0.283859 19.0258 0.818738 19.0258H7.53997V19.0216ZM5.78607 8.51438C5.85241 8.16635 6.40802 8.16221 6.39144 8.48538C6.379 8.67597 6.08046 8.67597 6.11363 8.50609C6.11363 8.49781 6.10534 8.48952 6.0929 8.49781C6.00997 8.56824 6.04729 8.75883 6.22973 8.79198C6.44948 8.83341 6.57387 8.95356 6.59461 9.09443C6.30436 8.99914 5.6907 9.024 5.78607 8.51438ZM4.25606 14.1036C4.18558 14.0705 4.17314 14.1036 4.22704 14.145H4.23948C4.53802 14.3688 4.60436 14.6298 4.47997 14.8535C4.28923 15.1933 3.95753 15.2099 3.82899 15.0068C3.66728 14.7458 3.92021 14.4392 4.1607 14.7168C4.43021 14.0415 3.10752 14.1119 3.32313 14.9944C2.95826 14.9157 2.55606 14.7168 2.22435 14.3853C2.15801 14.3191 2.13313 14.3605 2.1746 14.4226C2.48972 14.8991 2.94582 15.2057 3.42265 15.4336C3.8746 15.62 4.2685 15.8396 4.43436 16.1711C4.54216 16.3824 4.36387 16.5274 4.20631 16.5813C3.50972 16.8174 2.90021 17.4555 3.10752 18.6653H2.05435C1.97142 18.4623 1.89679 18.1184 2.07094 17.6875C2.08752 17.6544 2.07094 17.6254 2.04191 17.6502C1.80142 17.874 1.68118 18.2178 1.77655 18.6612H1.39923C1.3163 18.483 1.21679 18.1433 1.39923 17.7124C1.41167 17.6834 1.40337 17.6544 1.37435 17.6834C1.25411 17.7952 1.00118 18.1143 1.0841 18.6612H0.764836C0.65703 18.6612 0.615567 18.5949 0.615567 18.4954C0.615567 16.8713 2.20777 16.7843 2.91679 17.1116H2.92094C2.97484 17.1447 2.99143 17.124 2.95826 17.0867L2.94996 17.0743C2.82557 16.9252 2.48972 16.6393 1.79728 16.6931C1.87606 16.457 1.97972 15.8521 1.63972 14.7665C0.922397 12.4753 1.89679 9.7615 3.92021 8.65525C4.61265 8.27822 5.20558 8.19949 5.64924 8.34451C5.56631 8.44395 5.55802 8.64282 5.62436 8.73397C5.22216 8.55996 4.53387 8.87484 4.75777 9.18144L4.77021 9.19387C4.79924 9.2353 4.81582 9.22287 4.80753 9.17316V9.15658C4.79924 9.02814 4.89046 8.94113 5.02314 8.8997C4.84899 9.04886 5.03143 9.34717 5.25119 9.22287C4.97753 9.19387 5.07704 8.87484 5.2346 8.86656C5.49168 8.83755 5.90631 9.082 5.66997 9.16487C5.61192 9.18559 5.40875 9.23116 5.30509 9.31403C5.26363 9.34303 5.27192 9.35131 5.31338 9.34717C5.54973 9.33888 5.65753 9.3016 5.85241 9.26845C7.1668 9.03643 7.60632 9.82779 7.55656 10.151C7.54412 10.1012 7.4529 9.98523 7.40729 10.064C7.33266 10.2173 7.059 10.2504 6.8268 10.0018C6.74802 9.91065 6.57387 9.88579 6.39144 9.91894C6.09704 9.96866 5.96021 9.96037 5.83168 9.6952C5.80265 9.67863 5.80265 9.6952 5.8068 9.71592C5.81924 9.91894 5.8607 10.2877 6.24631 10.3498C6.38314 10.383 6.52412 10.2255 6.72314 10.3498C6.85583 10.47 7.00095 10.6233 7.21656 10.5694C7.41144 10.5239 7.41973 10.6026 7.44461 10.6647C7.48193 10.8346 7.399 10.905 7.25802 10.8056C7.19583 10.7642 7.10875 10.7186 7.02168 10.7062C6.39144 10.6274 5.79021 11.1661 5.30094 10.3001C5.23875 10.1924 5.13509 10.0805 5.01899 10.0474C4.80338 9.98523 4.66655 10.1137 4.57119 10.2753C4.42606 10.5321 4.53387 10.441 4.69558 10.3333C4.7785 10.2835 4.93192 10.2918 5.0107 10.3581C5.05631 10.4037 5.10192 10.5197 5.03558 10.6233C4.91119 10.8056 4.77021 10.9879 4.68314 11.0128C4.56704 11.0418 4.53802 10.8553 4.52558 10.7476C4.51728 10.6854 4.48826 10.6896 4.47582 10.7559C4.4468 10.9257 4.45924 11.1702 4.6085 11.1785C4.8407 11.1951 5.04387 10.9465 5.19314 10.7103C5.22631 10.6772 5.25948 10.6813 5.29265 10.7103C5.60363 11.0459 5.98509 11.0749 6.50339 10.9589C6.68168 10.9175 6.86827 10.9092 7.01339 10.934C7.35753 11.0003 7.42388 11.2282 7.39485 11.4602C7.34924 11.6757 7.30778 11.7005 7.21241 11.771C7.17095 11.8041 7.17095 11.8414 7.20412 11.8455C7.20412 11.8455 7.24144 11.8953 7.18339 12.0154C7.16266 12.0527 7.14192 12.09 7.11705 12.119C7.10461 12.1397 7.09217 12.1521 7.09217 12.1563C6.96778 12.3344 6.83924 12.4629 6.76046 12.525C6.52826 12.6949 6.45778 12.7985 6.61948 12.7943C6.66095 12.7943 6.70656 12.7861 6.74388 12.7695C6.75631 12.7778 6.76461 12.7902 6.78119 12.7985C7.229 13.1009 7.95461 13.9379 8.42729 14.7085C8.4729 14.7872 8.70925 14.8038 9.02851 15.1063C10.0444 16.0634 10.6373 17.1116 10.7327 18.5079C10.7327 18.599 10.6746 18.6653 10.5834 18.6653H9.26071C9.22339 18.5244 9.20681 18.3214 9.31047 18.0811C9.32291 18.0563 9.31461 18.0397 9.29388 18.0563C9.14047 18.193 9.05339 18.4084 9.09071 18.6612H8.85437C8.80876 18.5327 8.77144 18.3256 8.88339 18.0687C8.89169 18.0521 8.88339 18.0314 8.86681 18.048C8.78803 18.1184 8.63876 18.2758 8.65949 18.6612H8.50607C8.42315 18.6612 8.33607 18.6446 8.34022 18.5369C8.3029 17.7869 9.60486 16.9624 10.401 18.0645V18.0728C10.4466 18.1391 10.4756 18.1225 10.4507 18.0563L10.4424 18.0397C10.26 17.5756 9.64218 17.1696 8.99949 17.3975C8.77559 17.0329 8.60973 16.7304 8.63876 15.8231C8.63876 15.7485 8.60973 15.7485 8.59315 15.8148C8.4812 16.2954 8.49778 17.008 8.69681 17.5425C8.35681 17.7248 8.19095 18.0273 8.12461 18.3463C8.10388 18.4623 7.88412 18.4623 7.92144 18.3214C7.98363 18.0894 8.09559 16.9624 7.98363 16.457C8.04168 15.9308 7.98363 15.4584 7.63534 15.2057C7.74315 15.1684 7.81778 15.0773 7.81363 14.9364C7.82607 14.5967 7.29534 14.1658 7.24973 14.5428C7.24973 14.5428 7.24973 14.5884 7.25388 14.5594C7.33266 14.3812 7.71412 14.6588 7.56485 14.8701C7.42802 15.0607 7.02997 14.7955 7.05485 14.4765C7.10046 13.8799 7.73485 14.3315 8.12046 14.8908C8.40242 15.301 8.71339 15.4129 8.90412 15.4377C8.97876 15.4502 8.98291 15.4212 8.92071 15.3963H8.90412C8.68437 15.3051 8.42729 15.1104 8.08315 14.5428C7.12534 12.9601 6.25461 13.8053 6.85168 14.7872C6.95534 14.953 7.08802 15.0731 7.22071 15.1436C6.96363 15.4833 7.61461 16.0509 7.69754 15.7733C7.71412 15.7236 7.68924 15.6615 7.64778 15.5993C7.52339 15.8272 7.28705 15.243 7.53997 15.359C7.73485 15.4502 7.92973 15.8976 7.84266 16.2539C7.75973 16.1255 7.53997 15.8852 7.36583 15.9929C7.28705 16.0385 7.27875 16.1794 7.34924 16.3285C7.44875 16.5357 7.66436 16.631 7.70168 16.515C7.71412 16.4777 7.70168 16.4238 7.66851 16.3741C7.63949 16.4611 7.5151 16.3865 7.49851 16.2498C7.49022 16.1835 7.51924 16.1421 7.58973 16.1835C7.78461 16.2871 7.81778 16.4984 7.82607 16.9003C7.80949 18.7275 7.23314 18.6695 7.04241 18.6695H5.32997C5.20558 18.4664 5.01485 18.0231 5.20558 17.4265C5.21802 17.3892 5.20558 17.3519 5.16826 17.3933C5.02729 17.5508 4.76192 17.8905 4.90704 18.6736H4.43436C4.30582 18.4706 4.11923 18.0273 4.30997 17.4306C4.32241 17.3933 4.30997 17.3561 4.27265 17.3975C4.13167 17.5549 3.86631 17.8947 4.01143 18.6777H3.69631C3.48484 18.6777 3.45996 18.5617 3.43094 18.3504C3.24435 16.1877 6.14265 16.5108 7.21241 17.3063L7.22485 17.3146C7.2829 17.3602 7.30363 17.3353 7.25802 17.2815L7.24973 17.269C6.87241 16.834 6.02656 16.428 5.03143 16.4487C4.76192 16.4611 4.68314 16.2912 4.67485 16.1504C4.65826 15.8479 4.64997 15.7236 4.65826 15.5993C4.65826 14.9488 5.62021 14.3853 6.07217 13.5484C6.13851 13.4241 6.0929 13.391 6.01412 13.5028C5.66168 13.9835 5.25119 14.4144 4.79509 14.7002C4.79509 14.6878 4.79509 14.6754 4.7868 14.6629C4.74948 14.4434 4.49655 14.2113 4.26021 14.1202H4.25192L4.25606 14.1036Z" fill="#002F67"/>
<path d="M11.972 22.7551C11.9844 22.6971 11.9968 22.6349 12.0051 22.5728C12.0134 22.5106 12.0176 22.4443 12.0176 22.3739V22.0135H11.6734V22.4361C11.6734 22.5231 11.661 22.6101 11.6361 22.7012C11.6112 22.7924 11.5739 22.8794 11.52 22.9664C11.4661 23.0534 11.3998 23.1363 11.3168 23.215C11.2339 23.2937 11.1302 23.3641 11.0142 23.4222H11.0059L11.01 23.4346L11.2215 23.6749H11.2256C11.3334 23.6127 11.4454 23.534 11.5532 23.4346C11.661 23.3393 11.7563 23.2191 11.831 23.0824L12.4281 23.6625H12.4322H12.4364L12.652 23.4387H12.6561L12.652 23.4304L11.9637 22.7592L11.972 22.7551ZM13.021 21.7483V22.5521H12.3659V22.867H13.021V24.4538H13.3485V21.7441H13.021V21.7483Z" fill="white"/>
<path d="M14.4226 22.7377C14.4889 22.7875 14.5636 22.8248 14.6465 22.8496C14.7294 22.8745 14.8207 22.8869 14.916 22.8869C15.0155 22.8869 15.1109 22.8745 15.198 22.8455C15.285 22.8165 15.3597 22.7792 15.4219 22.7295C15.4841 22.6797 15.5338 22.6176 15.5711 22.5472C15.6085 22.4767 15.625 22.398 15.625 22.311C15.625 22.224 15.6043 22.1411 15.567 22.0665C15.5297 21.9961 15.4758 21.934 15.4136 21.8842C15.3514 21.8345 15.2726 21.7931 15.1855 21.7641C15.0985 21.7351 15.0072 21.7227 14.9077 21.7227C14.8082 21.7227 14.717 21.7351 14.6299 21.7641C14.5428 21.7931 14.4682 21.8304 14.4102 21.8842C14.348 21.934 14.2982 22.0003 14.2609 22.0707C14.2236 22.1411 14.207 22.224 14.207 22.3151C14.207 22.4063 14.2277 22.485 14.2609 22.5554C14.2982 22.6259 14.348 22.688 14.4143 22.7377H14.4226ZM14.6548 22.0955C14.7253 22.0458 14.8124 22.0168 14.9202 22.0168C15.028 22.0168 15.1109 22.0417 15.1814 22.0955C15.256 22.1453 15.2892 22.2198 15.2892 22.311C15.2892 22.4063 15.2519 22.4767 15.1814 22.5223C15.1068 22.5679 15.0197 22.5927 14.9202 22.5927C14.8207 22.5927 14.7253 22.5679 14.6548 22.5182C14.5843 22.4684 14.5511 22.398 14.5511 22.311C14.5511 22.2198 14.5885 22.1453 14.6548 22.0955ZM16.2221 23.2722V22.9615H13.668V23.2722H14.7668V23.4048H14.2236V23.7073H15.3099V23.8108H14.236V24.5483H15.7246V24.2335H14.576V24.1133H15.6499V23.4048H15.0943V23.2722H16.218H16.2221Z" fill="white"/>
<path d="M17.6534 23.8067V23.152H17.3259V23.8067H16.252V24.1215H18.7978V23.8067H17.6534ZM16.7163 23.4586H16.7205C16.8863 23.3923 17.0398 23.3012 17.1724 23.1893C17.3051 23.0775 17.4129 22.949 17.4959 22.8123L18.2588 23.4503H18.2629H18.2671L18.4785 23.2183H18.4827L18.4785 23.21L17.6368 22.5015C17.6493 22.4518 17.6617 22.4021 17.67 22.3524C17.6783 22.3027 17.6824 22.2488 17.6824 22.1991V21.9795H17.3259V22.1991C17.3259 22.3068 17.3051 22.4145 17.2595 22.5181C17.2181 22.6176 17.1559 22.717 17.0812 22.804C17.0066 22.891 16.9195 22.9697 16.82 23.0402C16.7205 23.1106 16.6127 23.1686 16.5007 23.2142H16.4924L16.5007 23.2266L16.7122 23.4628L16.7163 23.4586Z" fill="white"/>
<path d="M19.9575 21.9182H19.6258V22.3366H19.0661V21.9182H18.7344V23.2233H19.9575V21.9182ZM19.6258 22.9125H19.0661V22.6432H19.6258V22.9125ZM20.5463 23.5382C20.4841 23.4843 20.4095 23.4429 20.3266 23.4139C20.2436 23.3849 20.1566 23.3683 20.0695 23.3683C19.9824 23.3683 19.8912 23.3849 19.8083 23.4139C19.7254 23.447 19.6549 23.4884 19.5927 23.5423C19.5305 23.5962 19.4807 23.6625 19.4434 23.737C19.4061 23.8116 19.3895 23.8945 19.3895 23.9773C19.3895 24.0602 19.4061 24.1431 19.4393 24.2177C19.4724 24.2922 19.5222 24.3585 19.5844 24.4124C19.6466 24.4662 19.7171 24.5077 19.8 24.5408C19.8829 24.574 19.9741 24.5905 20.0736 24.5905C20.169 24.5905 20.2561 24.574 20.339 24.5408C20.4219 24.5077 20.4924 24.4662 20.5546 24.4082C20.6168 24.3544 20.6666 24.2881 20.6997 24.2135C20.7371 24.1389 20.7536 24.0561 20.7536 23.9732C20.7536 23.8903 20.7329 23.8033 20.6956 23.7288C20.6583 23.6542 20.6085 23.592 20.5463 23.5382ZM20.3183 24.1969C20.2519 24.2508 20.169 24.2798 20.0736 24.2798C19.9658 24.2798 19.8829 24.2508 19.8207 24.1887C19.7585 24.1306 19.7254 24.0561 19.7254 23.9732C19.7254 23.8903 19.7585 23.824 19.8249 23.766C19.8912 23.708 19.9741 23.679 20.0695 23.679C20.1649 23.679 20.2519 23.708 20.3183 23.766C20.3846 23.824 20.4178 23.8945 20.4178 23.9856C20.4178 24.0768 20.3846 24.1472 20.3224 24.2052L20.3183 24.1969ZM20.7702 22.3739V21.7441H20.4344V23.36H20.7702V22.6888H21.2346V22.3739H20.7702Z" fill="white"/>
<path d="M8.62969 7.50794C8.34359 7.83526 8.09481 7.73167 7.88749 7.52451L8.11968 7.25935C8.23993 7.36707 8.34773 7.44993 8.47627 7.30492C8.55505 7.21377 8.53432 7.11848 8.44725 7.0439C8.2192 6.84502 7.73407 7.36707 7.35676 7.03561C7.15773 6.86159 7.0831 6.62957 7.36505 6.30226C7.5931 6.04123 7.82115 6.01637 8.06993 6.26497L7.84188 6.52599C7.74651 6.44313 7.63456 6.37269 7.54334 6.48042C7.46871 6.56743 7.47285 6.65858 7.55993 6.7373C7.80042 6.9486 8.24822 6.39341 8.65042 6.74144C8.98213 7.02732 8.80798 7.30492 8.62969 7.50794Z" fill="white"/>
<path d="M8.99639 6.30984C9.09175 6.41343 9.23688 6.56673 9.34468 6.47143C9.43175 6.39271 9.37371 6.29327 9.30736 6.22284L9.55615 5.9991C9.63907 6.09854 9.67639 6.20212 9.6681 6.30984C9.6598 6.41343 9.60176 6.52529 9.48566 6.62887C9.17053 6.91476 8.95492 6.76146 8.70614 6.48386C8.49053 6.24355 8.33712 6.00739 8.66053 5.71736C8.99224 5.41905 9.22029 5.60135 9.46493 5.88723L8.99639 6.30984ZM9.0959 5.9701C9.01712 5.88723 8.91346 5.75879 8.79736 5.86652C8.68541 5.9701 8.80566 6.09854 8.872 6.17312L9.0959 5.9701Z" fill="white"/>
<path d="M9.59612 5.69267C9.40539 5.43165 9.28514 5.17891 9.63758 4.92617C9.99002 4.67343 10.189 4.86817 10.3798 5.13333C10.5954 5.43165 10.7032 5.6761 10.3549 5.92469C10.0108 6.17329 9.81173 5.99513 9.59612 5.69681V5.69267ZM10.102 5.30735C9.95685 5.10847 9.87807 5.01318 9.76197 5.09604C9.65002 5.17891 9.71222 5.28663 9.85319 5.48551C10.0647 5.77968 10.1351 5.82525 10.2305 5.75067C10.33 5.68024 10.3093 5.59738 10.0978 5.30735H10.102Z" fill="white"/>
<path d="M11.3384 5.13776C11.3342 5.2662 11.272 5.34078 11.1642 5.39878C11.0274 5.47751 10.8615 5.46093 10.7828 5.31592L10.3184 4.48727L10.6086 4.32569L11.0108 5.03832C11.0606 5.12947 11.1145 5.18748 11.2098 5.13776C11.301 5.08804 11.2803 5.00932 11.2306 4.91817L10.8284 4.20553L11.1186 4.04395L11.583 4.87259C11.6203 4.93888 11.6618 5.00932 11.7074 5.07147L11.4089 5.2372L11.3508 5.13362L11.3384 5.13776Z" fill="white"/>
<path d="M11.5292 3.30176L12.2217 4.84304L11.919 4.97977L11.2266 3.43848L11.5292 3.30176Z" fill="white"/>
<path d="M13.0638 4.52071L12.6035 2.89656L13.4494 2.65625L13.5199 2.90484L13.014 3.04571L13.1342 3.46004L13.6152 3.32331L13.6857 3.57191L13.2047 3.70863L13.4079 4.41713L13.0679 4.51242L13.0638 4.52071Z" fill="white"/>
<path d="M14.0988 2.52734L14.1486 2.78422L13.8251 2.84637L13.7754 2.58949L14.0988 2.52734ZM14.4181 4.18464L14.0947 4.24679L13.8708 3.08668L14.1942 3.02453L14.4181 4.18464Z" fill="white"/>
<path d="M14.9008 2.92519L14.9174 3.07849H14.9216C14.9672 2.93762 15.075 2.88376 15.2076 2.86719L15.2408 3.16136C14.9506 3.17793 14.9672 3.34366 14.9796 3.45967L15.0542 4.09773L14.7267 4.13502L14.5898 2.96248L14.9008 2.92519Z" fill="white"/>
<path d="M15.7545 3.50534C15.7545 3.64621 15.7669 3.85751 15.912 3.85337C16.0281 3.85337 16.0489 3.73736 16.0489 3.63792L16.3847 3.62963C16.3847 3.75807 16.3433 3.8658 16.2645 3.94038C16.1898 4.01496 16.0737 4.06053 15.9203 4.06467C15.4933 4.07296 15.4311 3.81608 15.4228 3.44733C15.4145 3.12416 15.4559 2.84656 15.8913 2.83828C16.335 2.82585 16.393 3.11587 16.3889 3.49291L15.7586 3.50534H15.7545ZM16.053 3.31475C16.053 3.19874 16.053 3.03715 15.8955 3.04129C15.742 3.04129 15.7503 3.2236 15.7503 3.32303L16.053 3.31475Z" fill="white"/>
<path d="M17.6855 4.18483C17.2543 4.11439 17.2128 3.84923 17.2792 3.56334L17.6275 3.6172C17.6026 3.77465 17.586 3.91138 17.7809 3.94038C17.897 3.95695 17.9675 3.89066 17.9882 3.77879C18.0379 3.47633 17.3372 3.34789 17.416 2.85071C17.4575 2.58968 17.615 2.40324 18.0421 2.46953C18.3821 2.52339 18.5272 2.70155 18.4484 3.04958L18.1084 2.99572C18.1292 2.87142 18.1292 2.73884 17.9882 2.71812C17.8762 2.70155 17.7975 2.75127 17.7809 2.86728C17.7311 3.18217 18.436 3.26917 18.3531 3.79122C18.2826 4.22212 17.9592 4.22212 17.6938 4.18069L17.6855 4.18483Z" fill="white"/>
<path d="M18.8921 3.86175C18.8547 3.99848 18.8008 4.20149 18.9418 4.23878C19.0538 4.27193 19.1077 4.16835 19.1367 4.07305L19.4601 4.1642C19.4186 4.28436 19.3523 4.37551 19.2528 4.42523C19.1574 4.47495 19.033 4.48323 18.8838 4.4418C18.4733 4.32579 18.4899 4.06062 18.5935 3.70431C18.6806 3.39356 18.8008 3.14083 19.2196 3.26098C19.6467 3.38113 19.6177 3.6753 19.5016 4.03576L18.8921 3.86175ZM19.2321 3.76645C19.2652 3.65459 19.315 3.50129 19.1616 3.45571C19.0164 3.41428 18.9667 3.58415 18.9418 3.68359L19.2321 3.76645Z" fill="white"/>
<path d="M20.2566 3.63749L20.2027 3.77837H20.2069C20.3147 3.67478 20.4308 3.67893 20.5552 3.72865L20.4474 4.0021C20.182 3.8778 20.1198 4.03525 20.0742 4.14297L19.842 4.74374L19.5352 4.62359L19.9664 3.52148L20.2608 3.63335L20.2566 3.63749Z" fill="white"/>
<path d="M20.7 3.80762L20.9985 3.95677L20.7497 4.82271H20.7539L21.3053 4.11007L21.5956 4.25509L20.7746 5.1666L20.4512 5.00501L20.7 3.80762Z" fill="white"/>
<path d="M21.5046 5.59316L21.2227 5.41915L21.8405 4.41234L22.1224 4.58636L21.5046 5.59316ZM22.3878 4.15546L22.251 4.37505L21.969 4.20104L22.1058 3.98145L22.3878 4.15546Z" fill="white"/>
<path d="M22.6614 5.47322C22.765 5.33235 22.765 5.25777 22.6821 5.19562C22.5701 5.11276 22.4872 5.20391 22.3379 5.40278C22.1223 5.69281 22.1016 5.77153 22.2011 5.84611C22.284 5.90826 22.3794 5.86268 22.4706 5.73839L22.736 5.93312C22.5453 6.19 22.3214 6.19829 22.0767 6.01598C21.7326 5.76325 21.8445 5.51879 22.0643 5.22462C22.255 4.9636 22.4582 4.77301 22.8106 5.02989C23.0553 5.21219 23.1133 5.4235 22.9309 5.67209L22.6655 5.47322H22.6614Z" fill="white"/>
<path d="M23.2091 6.21944C23.1137 6.32302 22.9727 6.48046 23.0805 6.5799C23.1676 6.65862 23.2588 6.59233 23.3252 6.52189L23.5698 6.74977C23.4786 6.84092 23.3749 6.89064 23.2671 6.8865C23.1593 6.8865 23.0473 6.83678 22.9354 6.7332C22.6244 6.44317 22.7612 6.21529 23.0142 5.94184C23.2339 5.70568 23.4578 5.5358 23.7771 5.83412C24.1005 6.13657 23.943 6.38102 23.6734 6.65033L23.2091 6.21944ZM23.5573 6.28987C23.6361 6.20701 23.7522 6.091 23.6361 5.98327C23.5242 5.87969 23.4039 6.01228 23.3376 6.08685L23.5573 6.29402V6.28987Z" fill="white"/>
<path d="M23.9222 7.16828C23.8807 7.20142 23.8434 7.23871 23.8226 7.27186C23.8061 7.30915 23.8144 7.35058 23.8558 7.4003C23.8973 7.45002 23.9678 7.46659 24.0258 7.41273C24.2165 7.25114 23.7936 6.8451 24.0797 6.60065C24.2746 6.43492 24.4985 6.57579 24.6353 6.73738C24.7805 6.90725 24.8344 7.13099 24.627 7.28429L24.4156 7.03984C24.4778 6.98597 24.5109 6.94869 24.5109 6.91554C24.5109 6.88654 24.4985 6.86168 24.4736 6.83682C24.428 6.78296 24.3658 6.78296 24.3036 6.83682C24.1626 6.95697 24.5483 7.39201 24.258 7.64061C24.1005 7.77319 23.8765 7.74833 23.6941 7.54117C23.5075 7.32158 23.437 7.13099 23.6983 6.92797L23.9097 7.17242L23.9222 7.16828Z" fill="white"/>
<path d="M32.0912 11.0128C32.0912 10.8968 32.0912 10.7808 32.0787 10.6648C32.0248 10.1262 31.8217 9.63726 31.4817 9.21465C30.7809 8.357 29.7941 7.97168 28.2765 7.97168C26.1163 7.97168 23.5497 8.99506 21.7751 10.5446H10.8867C10.8867 10.5446 10.2233 10.4783 9.94137 10.9134C9.59308 11.4561 10.0119 11.8746 10.0119 11.8746L10.4058 12.3925C9.83356 13.1963 7.38307 16.8755 6.09355 18.6944C6.09355 18.6944 5.60843 19.3532 6.56624 19.3532H20.867C20.2202 20.2025 19.4572 21.1389 19.4572 21.1389C19.4199 21.1845 19.3992 21.2383 19.3992 21.2963C19.3992 21.3295 19.4075 21.3668 19.4199 21.3999C19.4614 21.4869 19.5485 21.5408 19.6438 21.5408H26.0126C26.0956 21.5408 26.1702 21.4994 26.2158 21.4289L26.9 20.5754L31.519 12.9601C31.8839 12.3387 32.0787 11.655 32.087 11.0128H32.0912Z" fill="#002F67"/>
<path d="M28.289 8.39844C25.6644 8.39844 22.3846 10.2173 20.921 12.5334C19.4076 14.9199 20.4027 16.9086 23.1807 16.9086C23.3217 16.9086 23.4585 16.9045 23.6037 16.8921L20.5312 20.9732H25.6603L30.8971 12.7074C30.9427 12.6328 30.9883 12.5582 31.0298 12.4837C32.3359 10.1717 30.9178 8.39844 28.2932 8.39844H28.289ZM24.5034 12.492C24.8849 11.8 25.8178 11.22 26.5973 11.1951C27.3727 11.1703 27.7044 11.7047 27.3354 12.3967C26.9664 13.0969 26.021 13.6894 25.229 13.7184C24.4412 13.7432 24.1178 13.1922 24.5034 12.4961V12.492Z" fill="#B51F24"/>
<path d="M21.0166 11.5848L21.0497 11.5227C21.1327 11.3735 21.1244 11.2782 21.0954 11.1995C21.029 11.0296 20.8383 11.0296 20.8341 11.0296H16.6131C16.6131 11.0296 16.2027 11.0048 16.0824 11.3901C16.0244 11.5807 16.0658 11.705 16.269 11.908L16.6878 12.2809L12.4668 18.6656H16.7997L21.0166 11.589V11.5848Z" fill="#B51F24"/>
<path d="M15.6959 11.1995C15.6295 11.0296 15.4388 11.0296 15.4347 11.0296H11.2427C11.2427 11.0296 10.8322 11.0048 10.712 11.3901C10.6539 11.5807 10.6954 11.705 10.8986 11.908L11.3173 12.2809L7.01758 18.6656H11.0437L15.6213 11.5848C15.7415 11.3984 15.7332 11.2865 15.7 11.1995H15.6959Z" fill="#B51F24"/>
<path d="M43.633 10.128H37.585V4.332H38.905V6.264H42.313V4.332H43.633V10.128ZM42.313 9V7.392H38.905V9H42.313ZM45.877 13.128H35.341V11.988H39.937V10.428H41.281V11.988H45.877V13.128ZM52.8057 11.472H46.9617V7.488H50.5497V5.82H46.9137V4.692H51.8577V8.616H48.2697V10.344H52.8057V11.472ZM57.0057 8.64H55.1097V14.46H53.8017V3.336H55.1097V7.452H57.0057V8.64ZM61.2687 9.9V5.916H59.3607V9.9H61.2687ZM62.5287 4.788V11.028H58.0767V4.788H62.5287ZM66.0207 14.46V8.376H64.8807V13.74H63.6327V3.576H64.8807V7.236H66.0207V3.336H67.2927V14.46H66.0207ZM76.0181 4.224C76.8341 4.224 77.5141 4.484 78.0581 5.004C78.6021 5.524 78.8741 6.156 78.8741 6.9C78.8741 7.644 78.6021 8.276 78.0581 8.796C77.5141 9.316 76.8341 9.576 76.0181 9.576C75.2021 9.576 74.5221 9.316 73.9781 8.796C73.4341 8.276 73.1621 7.644 73.1621 6.9C73.1621 6.156 73.4341 5.524 73.9781 5.004C74.5221 4.484 75.2021 4.224 76.0181 4.224ZM76.0181 5.34C75.5701 5.34 75.2021 5.492 74.9141 5.796C74.6261 6.1 74.4821 6.468 74.4821 6.9C74.4821 7.332 74.6261 7.7 74.9141 8.004C75.2021 8.308 75.5701 8.46 76.0181 8.46C76.4661 8.46 76.8341 8.308 77.1221 8.004C77.4101 7.7 77.5541 7.332 77.5541 6.9C77.5541 6.468 77.4101 6.1 77.1221 5.796C76.8341 5.492 76.4661 5.34 76.0181 5.34ZM83.4941 7.512H81.6461V11.568H80.3381V3.336H81.6461V6.324H83.4941V7.512ZM81.7781 14.76H75.5981V10.776H76.9061V13.632H81.7781V14.76ZM88.4531 7.248L90.8891 9.528L89.9651 10.344L87.7091 8.172C86.9891 8.956 86.0851 9.716 84.9971 10.452L84.1331 9.624C86.4051 8.032 87.7291 6.62 88.1051 5.388H84.8411V4.272H89.6891C89.5451 5.296 89.1331 6.288 88.4531 7.248ZM93.2051 11.568H91.8971V7.608H89.7491V6.468H91.8971V3.336H93.2051V11.568ZM93.2771 14.76H87.0971V10.8H88.4051V13.632H93.2771V14.76ZM99.0402 5.268H97.5042C96.9202 5.268 96.3002 5.092 95.6442 4.74L96.0282 3.768C96.6602 4.008 97.1802 4.128 97.5882 4.128H99.0402V5.268ZM98.6082 8.64L100.456 10.728L99.5082 11.484L97.8882 9.636C97.2722 10.372 96.4962 11.056 95.5602 11.688L94.6842 10.872C96.6202 9.504 97.7402 8.224 98.0442 7.032H95.1522V5.904H99.6162C99.4722 6.88 99.1362 7.792 98.6082 8.64ZM104.44 14.46H103.168V3.336H104.44V14.46ZM99.3762 7.752H100.936V3.576H102.196V13.74H100.936V8.88H99.3762V7.752ZM111.257 5.064H109.073C108.353 5.064 107.689 4.892 107.081 4.548L107.477 3.612C108.213 3.828 108.801 3.936 109.241 3.936H111.257V5.064ZM112.481 6.636H109.721C109.161 6.7 108.777 6.852 108.569 7.092C108.265 7.428 108.113 7.784 108.113 8.16C108.113 8.504 108.237 8.776 108.485 8.976C108.733 9.176 109.017 9.276 109.337 9.276C109.609 9.276 109.865 9.18 110.105 8.988C110.353 8.788 110.477 8.516 110.477 8.172C110.477 7.9 110.317 7.636 109.997 7.38L110.945 6.72C111.497 7.128 111.773 7.604 111.773 8.148C111.773 8.812 111.525 9.356 111.029 9.78C110.533 10.196 109.973 10.404 109.349 10.404C108.645 10.404 108.045 10.188 107.549 9.756C107.053 9.324 106.805 8.788 106.805 8.148C106.805 7.612 107.001 7.108 107.393 6.636H106.049V5.568H112.481V6.636ZM115.037 10.536H113.729V8.64H112.133V7.488H113.729V3.336H115.037V10.536ZM114.905 14.82H109.061V10.872H114.905V14.82ZM113.609 13.704V11.988H110.357V13.704H113.609ZM122.792 4.2C122.792 5.232 122.76 6.048 122.696 6.648C122.64 7.24 122.532 7.856 122.372 8.496H121.076C121.188 7.96 121.284 7.424 121.364 6.888C121.444 6.344 121.484 5.824 121.484 5.328H117.476V4.2H122.792ZM127.4 8.172H125.504V12.012H124.196V3.336H125.504V7.044H127.4V8.172ZM118.892 9.276V6.78H120.2V9.276C120.616 9.276 121.116 9.268 121.7 9.252C122.42 9.236 123.168 9.152 123.944 9V10.128C123.232 10.28 122.512 10.364 121.784 10.38C121.064 10.396 120.428 10.404 119.876 10.404H116.6V9.276H118.892ZM125.468 14.76H119.18V11.124H120.476V13.608H125.468V14.76Z" fill="#002F67"/>
<path d="M43.633 10.128V10.228H43.733V10.128H43.633ZM37.585 10.128H37.485V10.228H37.585V10.128ZM37.585 4.332V4.232H37.485V4.332H37.585ZM38.905 4.332H39.005V4.232H38.905V4.332ZM38.905 6.264H38.805V6.364H38.905V6.264ZM42.313 6.264V6.364H42.413V6.264H42.313ZM42.313 4.332V4.232H42.213V4.332H42.313ZM43.633 4.332H43.733V4.232H43.633V4.332ZM42.313 9V9.1H42.413V9H42.313ZM42.313 7.392H42.413V7.292H42.313V7.392ZM38.905 7.392V7.292H38.805V7.392H38.905ZM38.905 9H38.805V9.1H38.905V9ZM45.877 13.128V13.228H45.977V13.128H45.877ZM35.341 13.128H35.241V13.228H35.341V13.128ZM35.341 11.988V11.888H35.241V11.988H35.341ZM39.937 11.988V12.088H40.037V11.988H39.937ZM39.937 10.428V10.328H39.837V10.428H39.937ZM41.281 10.428H41.381V10.328H41.281V10.428ZM41.281 11.988H41.181V12.088H41.281V11.988ZM45.877 11.988H45.977V11.888H45.877V11.988ZM43.633 10.128V10.028H37.585V10.128V10.228H43.633V10.128ZM37.585 10.128H37.685V4.332H37.585H37.485V10.128H37.585ZM37.585 4.332V4.432H38.905V4.332V4.232H37.585V4.332ZM38.905 4.332H38.805V6.264H38.905H39.005V4.332H38.905ZM38.905 6.264V6.364H42.313V6.264V6.164H38.905V6.264ZM42.313 6.264H42.413V4.332H42.313H42.213V6.264H42.313ZM42.313 4.332V4.432H43.633V4.332V4.232H42.313V4.332ZM43.633 4.332H43.533V10.128H43.633H43.733V4.332H43.633ZM42.313 9H42.413V7.392H42.313H42.213V9H42.313ZM42.313 7.392V7.292H38.905V7.392V7.492H42.313V7.392ZM38.905 7.392H38.805V9H38.905H39.005V7.392H38.905ZM38.905 9V9.1H42.313V9V8.9H38.905V9ZM45.877 13.128V13.028H35.341V13.128V13.228H45.877V13.128ZM35.341 13.128H35.441V11.988H35.341H35.241V13.128H35.341ZM35.341 11.988V12.088H39.937V11.988V11.888H35.341V11.988ZM39.937 11.988H40.037V10.428H39.937H39.837V11.988H39.937ZM39.937 10.428V10.528H41.281V10.428V10.328H39.937V10.428ZM41.281 10.428H41.181V11.988H41.281H41.381V10.428H41.281ZM41.281 11.988V12.088H45.877V11.988V11.888H41.281V11.988ZM45.877 11.988H45.777V13.128H45.877H45.977V11.988H45.877ZM52.8057 11.472V11.572H52.9057V11.472H52.8057ZM46.9617 11.472H46.8617V11.572H46.9617V11.472ZM46.9617 7.488V7.388H46.8617V7.488H46.9617ZM50.5497 7.488V7.588H50.6497V7.488H50.5497ZM50.5497 5.82H50.6497V5.72H50.5497V5.82ZM46.9137 5.82H46.8137V5.92H46.9137V5.82ZM46.9137 4.692V4.592H46.8137V4.692H46.9137ZM51.8577 4.692H51.9577V4.592H51.8577V4.692ZM51.8577 8.616V8.716H51.9577V8.616H51.8577ZM48.2697 8.616V8.516H48.1697V8.616H48.2697ZM48.2697 10.344H48.1697V10.444H48.2697V10.344ZM52.8057 10.344H52.9057V10.244H52.8057V10.344ZM57.0057 8.64V8.74H57.1057V8.64H57.0057ZM55.1097 8.64V8.54H55.0097V8.64H55.1097ZM55.1097 14.46V14.56H55.2097V14.46H55.1097ZM53.8017 14.46H53.7017V14.56H53.8017V14.46ZM53.8017 3.336V3.236H53.7017V3.336H53.8017ZM55.1097 3.336H55.2097V3.236H55.1097V3.336ZM55.1097 7.452H55.0097V7.552H55.1097V7.452ZM57.0057 7.452H57.1057V7.352H57.0057V7.452ZM52.8057 11.472V11.372H46.9617V11.472V11.572H52.8057V11.472ZM46.9617 11.472H47.0617V7.488H46.9617H46.8617V11.472H46.9617ZM46.9617 7.488V7.588H50.5497V7.488V7.388H46.9617V7.488ZM50.5497 7.488H50.6497V5.82H50.5497H50.4497V7.488H50.5497ZM50.5497 5.82V5.72H46.9137V5.82V5.92H50.5497V5.82ZM46.9137 5.82H47.0137V4.692H46.9137H46.8137V5.82H46.9137ZM46.9137 4.692V4.792H51.8577V4.692V4.592H46.9137V4.692ZM51.8577 4.692H51.7577V8.616H51.8577H51.9577V4.692H51.8577ZM51.8577 8.616V8.516H48.2697V8.616V8.716H51.8577V8.616ZM48.2697 8.616H48.1697V10.344H48.2697H48.3697V8.616H48.2697ZM48.2697 10.344V10.444H52.8057V10.344V10.244H48.2697V10.344ZM52.8057 10.344H52.7057V11.472H52.8057H52.9057V10.344H52.8057ZM57.0057 8.64V8.54H55.1097V8.64V8.74H57.0057V8.64ZM55.1097 8.64H55.0097V14.46H55.1097H55.2097V8.64H55.1097ZM55.1097 14.46V14.36H53.8017V14.46V14.56H55.1097V14.46ZM53.8017 14.46H53.9017V3.336H53.8017H53.7017V14.46H53.8017ZM53.8017 3.336V3.436H55.1097V3.336V3.236H53.8017V3.336ZM55.1097 3.336H55.0097V7.452H55.1097H55.2097V3.336H55.1097ZM55.1097 7.452V7.552H57.0057V7.452V7.352H55.1097V7.452ZM57.0057 7.452H56.9057V8.64H57.0057H57.1057V7.452H57.0057ZM61.2687 9.9V10H61.3687V9.9H61.2687ZM61.2687 5.916H61.3687V5.816H61.2687V5.916ZM59.3607 5.916V5.816H59.2607V5.916H59.3607ZM59.3607 9.9H59.2607V10H59.3607V9.9ZM62.5287 4.788H62.6287V4.688H62.5287V4.788ZM62.5287 11.028V11.128H62.6287V11.028H62.5287ZM58.0767 11.028H57.9767V11.128H58.0767V11.028ZM58.0767 4.788V4.688H57.9767V4.788H58.0767ZM66.0207 14.46H65.9207V14.56H66.0207V14.46ZM66.0207 8.376H66.1207V8.276H66.0207V8.376ZM64.8807 8.376V8.276H64.7807V8.376H64.8807ZM64.8807 13.74V13.84H64.9807V13.74H64.8807ZM63.6327 13.74H63.5327V13.84H63.6327V13.74ZM63.6327 3.576V3.476H63.5327V3.576H63.6327ZM64.8807 3.576H64.9807V3.476H64.8807V3.576ZM64.8807 7.236H64.7807V7.336H64.8807V7.236ZM66.0207 7.236V7.336H66.1207V7.236H66.0207ZM66.0207 3.336V3.236H65.9207V3.336H66.0207ZM67.2927 3.336H67.3927V3.236H67.2927V3.336ZM67.2927 14.46V14.56H67.3927V14.46H67.2927ZM61.2687 9.9H61.3687V5.916H61.2687H61.1687V9.9H61.2687ZM61.2687 5.916V5.816H59.3607V5.916V6.016H61.2687V5.916ZM59.3607 5.916H59.2607V9.9H59.3607H59.4607V5.916H59.3607ZM59.3607 9.9V10H61.2687V9.9V9.8H59.3607V9.9ZM62.5287 4.788H62.4287V11.028H62.5287H62.6287V4.788H62.5287ZM62.5287 11.028V10.928H58.0767V11.028V11.128H62.5287V11.028ZM58.0767 11.028H58.1767V4.788H58.0767H57.9767V11.028H58.0767ZM58.0767 4.788V4.888H62.5287V4.788V4.688H58.0767V4.788ZM66.0207 14.46H66.1207V8.376H66.0207H65.9207V14.46H66.0207ZM66.0207 8.376V8.276H64.8807V8.376V8.476H66.0207V8.376ZM64.8807 8.376H64.7807V13.74H64.8807H64.9807V8.376H64.8807ZM64.8807 13.74V13.64H63.6327V13.74V13.84H64.8807V13.74ZM63.6327 13.74H63.7327V3.576H63.6327H63.5327V13.74H63.6327ZM63.6327 3.576V3.676H64.8807V3.576V3.476H63.6327V3.576ZM64.8807 3.576H64.7807V7.236H64.8807H64.9807V3.576H64.8807ZM64.8807 7.236V7.336H66.0207V7.236V7.136H64.8807V7.236ZM66.0207 7.236H66.1207V3.336H66.0207H65.9207V7.236H66.0207ZM66.0207 3.336V3.436H67.2927V3.336V3.236H66.0207V3.336ZM67.2927 3.336H67.1927V14.46H67.2927H67.3927V3.336H67.2927ZM67.2927 14.46V14.36H66.0207V14.46V14.56H67.2927V14.46ZM78.0581 5.004L77.989 5.07629V5.07629L78.0581 5.004ZM78.0581 8.796L77.989 8.72371L78.0581 8.796ZM73.9781 8.796L74.0472 8.72371L73.9781 8.796ZM73.9781 5.004L74.0472 5.07629V5.07629L73.9781 5.004ZM74.9141 5.796L74.8415 5.72723L74.9141 5.796ZM74.9141 8.004L74.9867 7.93523L74.9141 8.004ZM77.1221 8.004L77.1947 8.07277L77.1221 8.004ZM77.1221 5.796L77.1947 5.72723L77.1221 5.796ZM83.4941 7.512V7.612H83.5941V7.512H83.4941ZM81.6461 7.512V7.412H81.5461V7.512H81.6461ZM81.6461 11.568V11.668H81.7461V11.568H81.6461ZM80.3381 11.568H80.2381V11.668H80.3381V11.568ZM80.3381 3.336V3.236H80.2381V3.336H80.3381ZM81.6461 3.336H81.7461V3.236H81.6461V3.336ZM81.6461 6.324H81.5461V6.424H81.6461V6.324ZM83.4941 6.324H83.5941V6.224H83.4941V6.324ZM81.7781 14.76V14.86H81.8781V14.76H81.7781ZM75.5981 14.76H75.4981V14.86H75.5981V14.76ZM75.5981 10.776V10.676H75.4981V10.776H75.5981ZM76.9061 10.776H77.0061V10.676H76.9061V10.776ZM76.9061 13.632H76.8061V13.732H76.9061V13.632ZM81.7781 13.632H81.8781V13.532H81.7781V13.632ZM76.0181 4.224V4.324C76.8107 4.324 77.4652 4.57565 77.989 5.07629L78.0581 5.004L78.1272 4.93171C77.5629 4.39235 76.8574 4.124 76.0181 4.124V4.224ZM78.0581 5.004L77.989 5.07629C78.5135 5.57767 78.7741 6.18366 78.7741 6.9H78.8741H78.9741C78.9741 6.12834 78.6907 5.47033 78.1272 4.93171L78.0581 5.004ZM78.8741 6.9H78.7741C78.7741 7.61634 78.5135 8.22233 77.989 8.72371L78.0581 8.796L78.1272 8.86829C78.6907 8.32967 78.9741 7.67166 78.9741 6.9H78.8741ZM78.0581 8.796L77.989 8.72371C77.4652 9.22435 76.8107 9.476 76.0181 9.476V9.576V9.676C76.8574 9.676 77.5629 9.40765 78.1272 8.86829L78.0581 8.796ZM76.0181 9.576V9.476C75.2254 9.476 74.5709 9.22435 74.0472 8.72371L73.9781 8.796L73.909 8.86829C74.4732 9.40765 75.1787 9.676 76.0181 9.676V9.576ZM73.9781 8.796L74.0472 8.72371C73.5227 8.22233 73.2621 7.61634 73.2621 6.9H73.1621H73.0621C73.0621 7.67166 73.3455 8.32967 73.909 8.86829L73.9781 8.796ZM73.1621 6.9H73.2621C73.2621 6.18366 73.5227 5.57767 74.0472 5.07629L73.9781 5.004L73.909 4.93171C73.3455 5.47033 73.0621 6.12834 73.0621 6.9H73.1621ZM73.9781 5.004L74.0472 5.07629C74.5709 4.57565 75.2254 4.324 76.0181 4.324V4.224V4.124C75.1787 4.124 74.4732 4.39235 73.909 4.93171L73.9781 5.004ZM76.0181 5.34V5.24C75.5448 5.24 75.1498 5.40179 74.8415 5.72723L74.9141 5.796L74.9867 5.86477C75.2544 5.58221 75.5954 5.44 76.0181 5.44V5.34ZM74.9141 5.796L74.8415 5.72723C74.5353 6.05044 74.3821 6.44331 74.3821 6.9H74.4821H74.5821C74.5821 6.49269 74.7169 6.14956 74.9867 5.86477L74.9141 5.796ZM74.4821 6.9H74.3821C74.3821 7.35669 74.5353 7.74956 74.8415 8.07277L74.9141 8.004L74.9867 7.93523C74.7169 7.65044 74.5821 7.30731 74.5821 6.9H74.4821ZM74.9141 8.004L74.8415 8.07277C75.1498 8.39821 75.5448 8.56 76.0181 8.56V8.46V8.36C75.5954 8.36 75.2544 8.21779 74.9867 7.93523L74.9141 8.004ZM76.0181 8.46V8.56C76.4914 8.56 76.8864 8.39821 77.1947 8.07277L77.1221 8.004L77.0495 7.93523C76.7818 8.21779 76.4408 8.36 76.0181 8.36V8.46ZM77.1221 8.004L77.1947 8.07277C77.5009 7.74956 77.6541 7.35669 77.6541 6.9H77.5541H77.4541C77.4541 7.30731 77.3193 7.65044 77.0495 7.93523L77.1221 8.004ZM77.5541 6.9H77.6541C77.6541 6.44331 77.5009 6.05044 77.1947 5.72723L77.1221 5.796L77.0495 5.86477C77.3193 6.14956 77.4541 6.49269 77.4541 6.9H77.5541ZM77.1221 5.796L77.1947 5.72723C76.8864 5.40179 76.4914 5.24 76.0181 5.24V5.34V5.44C76.4408 5.44 76.7818 5.58221 77.0495 5.86477L77.1221 5.796ZM83.4941 7.512V7.412H81.6461V7.512V7.612H83.4941V7.512ZM81.6461 7.512H81.5461V11.568H81.6461H81.7461V7.512H81.6461ZM81.6461 11.568V11.468H80.3381V11.568V11.668H81.6461V11.568ZM80.3381 11.568H80.4381V3.336H80.3381H80.2381V11.568H80.3381ZM80.3381 3.336V3.436H81.6461V3.336V3.236H80.3381V3.336ZM81.6461 3.336H81.5461V6.324H81.6461H81.7461V3.336H81.6461ZM81.6461 6.324V6.424H83.4941V6.324V6.224H81.6461V6.324ZM83.4941 6.324H83.3941V7.512H83.4941H83.5941V6.324H83.4941ZM81.7781 14.76V14.66H75.5981V14.76V14.86H81.7781V14.76ZM75.5981 14.76H75.6981V10.776H75.5981H75.4981V14.76H75.5981ZM75.5981 10.776V10.876H76.9061V10.776V10.676H75.5981V10.776ZM76.9061 10.776H76.8061V13.632H76.9061H77.0061V10.776H76.9061ZM76.9061 13.632V13.732H81.7781V13.632V13.532H76.9061V13.632ZM81.7781 13.632H81.6781V14.76H81.7781H81.8781V13.632H81.7781ZM88.4531 7.248L88.3715 7.1902L88.321 7.26139L88.3847 7.32101L88.4531 7.248ZM90.8891 9.528L90.9553 9.60295L91.0377 9.53015L90.9574 9.45499L90.8891 9.528ZM89.9651 10.344L89.8957 10.416L89.9622 10.48L90.0313 10.419L89.9651 10.344ZM87.7091 8.172L87.7784 8.09996L87.7047 8.02895L87.6354 8.10436L87.7091 8.172ZM84.9971 10.452L84.9279 10.5242L84.9862 10.5801L85.0531 10.5348L84.9971 10.452ZM84.1331 9.624L84.0757 9.5421L83.976 9.61197L84.0639 9.6962L84.1331 9.624ZM88.1051 5.388L88.2007 5.41719L88.2402 5.288H88.1051V5.388ZM84.8411 5.388H84.7411V5.488H84.8411V5.388ZM84.8411 4.272V4.172H84.7411V4.272H84.8411ZM89.6891 4.272L89.7881 4.28592L89.8041 4.172H89.6891V4.272ZM93.2051 11.568V11.668H93.3051V11.568H93.2051ZM91.8971 11.568H91.7971V11.668H91.8971V11.568ZM91.8971 7.608H91.9971V7.508H91.8971V7.608ZM89.7491 7.608H89.6491V7.708H89.7491V7.608ZM89.7491 6.468V6.368H89.6491V6.468H89.7491ZM91.8971 6.468V6.568H91.9971V6.468H91.8971ZM91.8971 3.336V3.236H91.7971V3.336H91.8971ZM93.2051 3.336H93.3051V3.236H93.2051V3.336ZM93.2771 14.76V14.86H93.3771V14.76H93.2771ZM87.0971 14.76H86.9971V14.86H87.0971V14.76ZM87.0971 10.8V10.7H86.9971V10.8H87.0971ZM88.4051 10.8H88.5051V10.7H88.4051V10.8ZM88.4051 13.632H88.3051V13.732H88.4051V13.632ZM93.2771 13.632H93.3771V13.532H93.2771V13.632ZM88.4531 7.248L88.3847 7.32101L90.8207 9.60101L90.8891 9.528L90.9574 9.45499L88.5214 7.17499L88.4531 7.248ZM90.8891 9.528L90.8229 9.45304L89.8989 10.269L89.9651 10.344L90.0313 10.419L90.9553 9.60295L90.8891 9.528ZM89.9651 10.344L90.0344 10.272L87.7784 8.09996L87.7091 8.172L87.6397 8.24404L89.8957 10.416L89.9651 10.344ZM87.7091 8.172L87.6354 8.10436C86.9217 8.88148 86.024 9.63656 84.941 10.3692L84.9971 10.452L85.0531 10.5348C86.1461 9.79544 87.0564 9.03052 87.7827 8.23964L87.7091 8.172ZM84.9971 10.452L85.0663 10.3798L84.2023 9.5518L84.1331 9.624L84.0639 9.6962L84.9279 10.5242L84.9971 10.452ZM84.1331 9.624L84.1905 9.7059C85.3299 8.90749 86.2348 8.15206 86.903 7.4394C87.5707 6.72737 88.0066 6.05332 88.2007 5.41719L88.1051 5.388L88.0094 5.35881C87.8276 5.95468 87.4135 6.60263 86.7571 7.3026C86.1014 8.00193 85.2083 8.74851 84.0757 9.5421L84.1331 9.624ZM88.1051 5.388V5.288H84.8411V5.388V5.488H88.1051V5.388ZM84.8411 5.388H84.9411V4.272H84.8411H84.7411V5.388H84.8411ZM84.8411 4.272V4.372H89.6891V4.272V4.172H84.8411V4.272ZM89.6891 4.272L89.5901 4.25807C89.4486 5.26421 89.0435 6.24142 88.3715 7.1902L88.4531 7.248L88.5347 7.3058C89.2226 6.33458 89.6416 5.32779 89.7881 4.28592L89.6891 4.272ZM93.2051 11.568V11.468H91.8971V11.568V11.668H93.2051V11.568ZM91.8971 11.568H91.9971V7.608H91.8971H91.7971V11.568H91.8971ZM91.8971 7.608V7.508H89.7491V7.608V7.708H91.8971V7.608ZM89.7491 7.608H89.8491V6.468H89.7491H89.6491V7.608H89.7491ZM89.7491 6.468V6.568H91.8971V6.468V6.368H89.7491V6.468ZM91.8971 6.468H91.9971V3.336H91.8971H91.7971V6.468H91.8971ZM91.8971 3.336V3.436H93.2051V3.336V3.236H91.8971V3.336ZM93.2051 3.336H93.1051V11.568H93.2051H93.3051V3.336H93.2051ZM93.2771 14.76V14.66H87.0971V14.76V14.86H93.2771V14.76ZM87.0971 14.76H87.1971V10.8H87.0971H86.9971V14.76H87.0971ZM87.0971 10.8V10.9H88.4051V10.8V10.7H87.0971V10.8ZM88.4051 10.8H88.3051V13.632H88.4051H88.5051V10.8H88.4051ZM88.4051 13.632V13.732H93.2771V13.632V13.532H88.4051V13.632ZM93.2771 13.632H93.1771V14.76H93.2771H93.3771V13.632H93.2771ZM99.0402 5.268V5.368H99.1402V5.268H99.0402ZM95.6442 4.74L95.5512 4.70326L95.5185 4.78603L95.5969 4.82812L95.6442 4.74ZM96.0282 3.768L96.0637 3.67451L95.9714 3.63948L95.9352 3.73126L96.0282 3.768ZM99.0402 4.128H99.1402V4.028H99.0402V4.128ZM98.6082 8.64L98.5233 8.58714L98.4839 8.65044L98.5333 8.70628L98.6082 8.64ZM100.456 10.728L100.519 10.8062L100.601 10.7406L100.531 10.6617L100.456 10.728ZM99.5082 11.484L99.433 11.5499L99.4959 11.6217L99.5705 11.5622L99.5082 11.484ZM97.8882 9.636L97.9634 9.57008L97.8864 9.48229L97.8115 9.57182L97.8882 9.636ZM95.5602 11.688L95.492 11.7612L95.5502 11.8154L95.6161 11.7709L95.5602 11.688ZM94.6842 10.872L94.6265 10.7903L94.526 10.8613L94.616 10.9452L94.6842 10.872ZM98.0442 7.032L98.1411 7.05671L98.1729 6.932H98.0442V7.032ZM95.1522 7.032H95.0522V7.132H95.1522V7.032ZM95.1522 5.904V5.804H95.0522V5.904H95.1522ZM99.6162 5.904L99.7151 5.9186L99.732 5.804H99.6162V5.904ZM104.44 14.46V14.56H104.54V14.46H104.44ZM103.168 14.46H103.068V14.56H103.168V14.46ZM103.168 3.336V3.236H103.068V3.336H103.168ZM104.44 3.336H104.54V3.236H104.44V3.336ZM99.3762 7.752V7.652H99.2762V7.752H99.3762ZM100.936 7.752V7.852H101.036V7.752H100.936ZM100.936 3.576V3.476H100.836V3.576H100.936ZM102.196 3.576H102.296V3.476H102.196V3.576ZM102.196 13.74V13.84H102.296V13.74H102.196ZM100.936 13.74H100.836V13.84H100.936V13.74ZM100.936 8.88H101.036V8.78H100.936V8.88ZM99.3762 8.88H99.2762V8.98H99.3762V8.88ZM99.0402 5.268V5.168H97.5042V5.268V5.368H99.0402V5.268ZM97.5042 5.268V5.168C96.9406 5.168 96.3368 4.99817 95.6915 4.65188L95.6442 4.74L95.5969 4.82812C96.2635 5.18583 96.8997 5.368 97.5042 5.368V5.268ZM95.6442 4.74L95.7372 4.77674L96.1212 3.80474L96.0282 3.768L95.9352 3.73126L95.5512 4.70326L95.6442 4.74ZM96.0282 3.768L95.9927 3.86149C96.6296 4.10334 97.1627 4.228 97.5882 4.228V4.128V4.028C97.1977 4.028 96.6908 3.91266 96.0637 3.67451L96.0282 3.768ZM97.5882 4.128V4.228H99.0402V4.128V4.028H97.5882V4.128ZM99.0402 4.128H98.9402V5.268H99.0402H99.1402V4.128H99.0402ZM98.6082 8.64L98.5333 8.70628L100.381 10.7943L100.456 10.728L100.531 10.6617L98.6831 8.57372L98.6082 8.64ZM100.456 10.728L100.394 10.6498L99.4458 11.4058L99.5082 11.484L99.5705 11.5622L100.519 10.8062L100.456 10.728ZM99.5082 11.484L99.5834 11.4181L97.9634 9.57008L97.8882 9.636L97.813 9.70192L99.433 11.5499L99.5082 11.484ZM97.8882 9.636L97.8115 9.57182C97.2024 10.2995 96.4338 10.9775 95.5042 11.6051L95.5602 11.688L95.6161 11.7709C96.5586 11.1345 97.3419 10.4445 97.9649 9.70018L97.8882 9.636ZM95.5602 11.688L95.6283 11.6148L94.7523 10.7988L94.6842 10.872L94.616 10.9452L95.492 11.7612L95.5602 11.688ZM94.6842 10.872L94.7419 10.9537C96.6817 9.58295 97.8278 8.28519 98.1411 7.05671L98.0442 7.032L97.9473 7.00729C97.6526 8.16281 96.5586 9.42505 94.6265 10.7903L94.6842 10.872ZM98.0442 7.032V6.932H95.1522V7.032V7.132H98.0442V7.032ZM95.1522 7.032H95.2522V5.904H95.1522H95.0522V7.032H95.1522ZM95.1522 5.904V6.004H99.6162V5.904V5.804H95.1522V5.904ZM99.6162 5.904L99.5172 5.8894C99.3753 6.85165 99.0441 7.75065 98.5233 8.58714L98.6082 8.64L98.6931 8.69286C99.2282 7.83335 99.5691 6.90835 99.7151 5.9186L99.6162 5.904ZM104.44 14.46V14.36H103.168V14.46V14.56H104.44V14.46ZM103.168 14.46H103.268V3.336H103.168H103.068V14.46H103.168ZM103.168 3.336V3.436H104.44V3.336V3.236H103.168V3.336ZM104.44 3.336H104.34V14.46H104.44H104.54V3.336H104.44ZM99.3762 7.752V7.852H100.936V7.752V7.652H99.3762V7.752ZM100.936 7.752H101.036V3.576H100.936H100.836V7.752H100.936ZM100.936 3.576V3.676H102.196V3.576V3.476H100.936V3.576ZM102.196 3.576H102.096V13.74H102.196H102.296V3.576H102.196ZM102.196 13.74V13.64H100.936V13.74V13.84H102.196V13.74ZM100.936 13.74H101.036V8.88H100.936H100.836V13.74H100.936ZM100.936 8.88V8.78H99.3762V8.88V8.98H100.936V8.88ZM99.3762 8.88H99.4762V7.752H99.3762H99.2762V8.88H99.3762ZM111.257 5.064V5.164H111.357V5.064H111.257ZM107.081 4.548L106.989 4.50904L106.954 4.59114L107.031 4.63503L107.081 4.548ZM107.477 3.612L107.505 3.51605L107.419 3.49095L107.385 3.57304L107.477 3.612ZM111.257 3.936H111.357V3.836H111.257V3.936ZM112.481 6.636V6.736H112.581V6.636H112.481ZM109.721 6.636V6.53535L109.709 6.53665L109.721 6.636ZM108.569 7.092L108.643 7.15911L108.644 7.15749L108.569 7.092ZM108.485 8.976L108.422 9.05384L108.485 8.976ZM110.105 8.988L110.167 9.06609L110.167 9.06584L110.105 8.988ZM109.997 7.38L109.94 7.29793L109.83 7.37444L109.934 7.45809L109.997 7.38ZM110.945 6.72L111.004 6.63958L110.946 6.59694L110.888 6.63793L110.945 6.72ZM111.029 9.78L111.093 9.85662L111.094 9.85601L111.029 9.78ZM107.549 9.756L107.483 9.83141L107.549 9.756ZM107.393 6.636L107.47 6.69989L107.606 6.536H107.393V6.636ZM106.049 6.636H105.949V6.736H106.049V6.636ZM106.049 5.568V5.468H105.949V5.568H106.049ZM112.481 5.568H112.581V5.468H112.481V5.568ZM115.037 10.536V10.636H115.137V10.536H115.037ZM113.729 10.536H113.629V10.636H113.729V10.536ZM113.729 8.64H113.829V8.54H113.729V8.64ZM112.133 8.64H112.033V8.74H112.133V8.64ZM112.133 7.488V7.388H112.033V7.488H112.133ZM113.729 7.488V7.588H113.829V7.488H113.729ZM113.729 3.336V3.236H113.629V3.336H113.729ZM115.037 3.336H115.137V3.236H115.037V3.336ZM114.905 14.82V14.92H115.005V14.82H114.905ZM109.061 14.82H108.961V14.92H109.061V14.82ZM109.061 10.872V10.772H108.961V10.872H109.061ZM114.905 10.872H115.005V10.772H114.905V10.872ZM113.609 13.704V13.804H113.709V13.704H113.609ZM113.609 11.988H113.709V11.888H113.609V11.988ZM110.357 11.988V11.888H110.257V11.988H110.357ZM110.357 13.704H110.257V13.804H110.357V13.704ZM111.257 5.064V4.964H109.073V5.064V5.164H111.257V5.064ZM109.073 5.064V4.964C108.369 4.964 107.722 4.7962 107.13 4.46096L107.081 4.548L107.031 4.63503C107.655 4.9878 108.336 5.164 109.073 5.164V5.064ZM107.081 4.548L107.173 4.58696L107.569 3.65096L107.477 3.612L107.385 3.57304L106.989 4.50904L107.081 4.548ZM107.477 3.612L107.448 3.70795C108.188 3.92496 108.787 4.036 109.241 4.036V3.936V3.836C108.815 3.836 108.237 3.73104 107.505 3.51605L107.477 3.612ZM109.241 3.936V4.036H111.257V3.936V3.836H109.241V3.936ZM111.257 3.936H111.157V5.064H111.257H111.357V3.936H111.257ZM112.481 6.636V6.536H109.721V6.636V6.736H112.481V6.636ZM109.721 6.636L109.709 6.53665C109.142 6.60149 108.726 6.75751 108.493 7.02651L108.569 7.092L108.644 7.15749C108.827 6.94649 109.179 6.79851 109.732 6.73535L109.721 6.636ZM108.569 7.092L108.494 7.02491C108.177 7.37532 108.013 7.75433 108.013 8.16H108.113H108.213C108.213 7.81367 108.352 7.48068 108.643 7.15909L108.569 7.092ZM108.113 8.16H108.013C108.013 8.53148 108.148 8.83319 108.422 9.05384L108.485 8.976L108.547 8.89816C108.325 8.71881 108.213 8.47652 108.213 8.16H108.113ZM108.485 8.976L108.422 9.05384C108.688 9.26825 108.994 9.376 109.337 9.376V9.276V9.176C109.039 9.176 108.778 9.08375 108.547 8.89816L108.485 8.976ZM109.337 9.276V9.376C109.634 9.376 109.912 9.27033 110.167 9.06609L110.105 8.988L110.042 8.90991C109.817 9.08967 109.583 9.176 109.337 9.176V9.276ZM110.105 8.988L110.167 9.06584C110.441 8.84519 110.577 8.54348 110.577 8.172H110.477H110.377C110.377 8.48852 110.264 8.73081 110.042 8.91016L110.105 8.988ZM110.477 8.172H110.577C110.577 7.85676 110.391 7.56705 110.059 7.30191L109.997 7.38L109.934 7.45809C110.243 7.70495 110.377 7.94324 110.377 8.172H110.477ZM109.997 7.38L110.054 7.46207L111.002 6.80207L110.945 6.72L110.888 6.63793L109.94 7.29793L109.997 7.38ZM110.945 6.72L110.885 6.80042C111.419 7.19503 111.673 7.64392 111.673 8.148H111.773H111.873C111.873 7.56408 111.574 7.06097 111.004 6.63958L110.945 6.72ZM111.773 8.148H111.673C111.673 8.78335 111.437 9.29937 110.964 9.70399L111.029 9.78L111.094 9.85601C111.612 9.41263 111.873 8.84065 111.873 8.148H111.773ZM111.029 9.78L110.964 9.70338C110.486 10.1049 109.948 10.304 109.349 10.304V10.404V10.504C109.997 10.504 110.58 10.2871 111.093 9.85662L111.029 9.78ZM109.349 10.404V10.304C108.667 10.304 108.091 10.0956 107.614 9.68059L107.549 9.756L107.483 9.83141C107.999 10.2804 108.622 10.504 109.349 10.504V10.404ZM107.549 9.756L107.614 9.68059C107.139 9.26698 106.905 8.75818 106.905 8.148H106.805H106.705C106.705 8.81782 106.966 9.38102 107.483 9.83141L107.549 9.756ZM106.805 8.148H106.905C106.905 7.63867 107.09 7.15668 107.47 6.69989L107.393 6.636L107.316 6.57211C106.911 7.05932 106.705 7.58533 106.705 8.148H106.805ZM107.393 6.636V6.536H106.049V6.636V6.736H107.393V6.636ZM106.049 6.636H106.149V5.568H106.049H105.949V6.636H106.049ZM106.049 5.568V5.668H112.481V5.568V5.468H106.049V5.568ZM112.481 5.568H112.381V6.636H112.481H112.581V5.568H112.481ZM115.037 10.536V10.436H113.729V10.536V10.636H115.037V10.536ZM113.729 10.536H113.829V8.64H113.729H113.629V10.536H113.729ZM113.729 8.64V8.54H112.133V8.64V8.74H113.729V8.64ZM112.133 8.64H112.233V7.488H112.133H112.033V8.64H112.133ZM112.133 7.488V7.588H113.729V7.488V7.388H112.133V7.488ZM113.729 7.488H113.829V3.336H113.729H113.629V7.488H113.729ZM113.729 3.336V3.436H115.037V3.336V3.236H113.729V3.336ZM115.037 3.336H114.937V10.536H115.037H115.137V3.336H115.037ZM114.905 14.82V14.72H109.061V14.82V14.92H114.905V14.82ZM109.061 14.82H109.161V10.872H109.061H108.961V14.82H109.061ZM109.061 10.872V10.972H114.905V10.872V10.772H109.061V10.872ZM114.905 10.872H114.805V14.82H114.905H115.005V10.872H114.905ZM113.609 13.704H113.709V11.988H113.609H113.509V13.704H113.609ZM113.609 11.988V11.888H110.357V11.988V12.088H113.609V11.988ZM110.357 11.988H110.257V13.704H110.357H110.457V11.988H110.357ZM110.357 13.704V13.804H113.609V13.704V13.604H110.357V13.704ZM122.792 4.2H122.892V4.1H122.792V4.2ZM122.696 6.648L122.596 6.63739L122.596 6.63858L122.696 6.648ZM122.372 8.496V8.596H122.45L122.469 8.52025L122.372 8.496ZM121.076 8.496L120.978 8.47555L120.953 8.596H121.076V8.496ZM121.364 6.888L121.463 6.90276L121.463 6.90255L121.364 6.888ZM121.484 5.328H121.584V5.228H121.484V5.328ZM117.476 5.328H117.376V5.428H117.476V5.328ZM117.476 4.2V4.1H117.376V4.2H117.476ZM127.4 8.172V8.272H127.5V8.172H127.4ZM125.504 8.172V8.072H125.404V8.172H125.504ZM125.504 12.012V12.112H125.604V12.012H125.504ZM124.196 12.012H124.096V12.112H124.196V12.012ZM124.196 3.336V3.236H124.096V3.336H124.196ZM125.504 3.336H125.604V3.236H125.504V3.336ZM125.504 7.044H125.404V7.144H125.504V7.044ZM127.4 7.044H127.5V6.944H127.4V7.044ZM118.892 9.276V9.376H118.992V9.276H118.892ZM118.892 6.78V6.68H118.792V6.78H118.892ZM120.2 6.78H120.3V6.68H120.2V6.78ZM120.2 9.276H120.1V9.376H120.2V9.276ZM121.7 9.252L121.698 9.15202L121.697 9.15204L121.7 9.252ZM123.944 9H124.044V8.87851L123.925 8.90186L123.944 9ZM123.944 10.128L123.965 10.2258L124.044 10.2089V10.128H123.944ZM121.784 10.38L121.782 10.28L121.782 10.28L121.784 10.38ZM116.6 10.404H116.5V10.504H116.6V10.404ZM116.6 9.276V9.176H116.5V9.276H116.6ZM125.468 14.76V14.86H125.568V14.76H125.468ZM119.18 14.76H119.08V14.86H119.18V14.76ZM119.18 11.124V11.024H119.08V11.124H119.18ZM120.476 11.124H120.576V11.024H120.476V11.124ZM120.476 13.608H120.376V13.708H120.476V13.608ZM125.468 13.608H125.568V13.508H125.468V13.608ZM122.792 4.2H122.692C122.692 5.23056 122.66 6.04252 122.596 6.63739L122.696 6.648L122.795 6.65861C122.86 6.05348 122.892 5.23344 122.892 4.2H122.792ZM122.696 6.648L122.596 6.63858C122.541 7.22507 122.434 7.8361 122.275 8.47175L122.372 8.496L122.469 8.52025C122.63 7.8759 122.739 7.25493 122.795 6.65742L122.696 6.648ZM122.372 8.496V8.396H121.076V8.496V8.596H122.372V8.496ZM121.076 8.496L121.174 8.51645C121.286 7.97859 121.382 7.44069 121.463 6.90276L121.364 6.888L121.265 6.87324C121.185 7.40731 121.089 7.94141 120.978 8.47555L121.076 8.496ZM121.364 6.888L121.463 6.90255C121.543 6.35424 121.584 5.82936 121.584 5.328H121.484H121.384C121.384 5.81864 121.344 6.33376 121.265 6.87345L121.364 6.888ZM121.484 5.328V5.228H117.476V5.328V5.428H121.484V5.328ZM117.476 5.328H117.576V4.2H117.476H117.376V5.328H117.476ZM117.476 4.2V4.3H122.792V4.2V4.1H117.476V4.2ZM127.4 8.172V8.072H125.504V8.172V8.272H127.4V8.172ZM125.504 8.172H125.404V12.012H125.504H125.604V8.172H125.504ZM125.504 12.012V11.912H124.196V12.012V12.112H125.504V12.012ZM124.196 12.012H124.296V3.336H124.196H124.096V12.012H124.196ZM124.196 3.336V3.436H125.504V3.336V3.236H124.196V3.336ZM125.504 3.336H125.404V7.044H125.504H125.604V3.336H125.504ZM125.504 7.044V7.144H127.4V7.044V6.944H125.504V7.044ZM127.4 7.044H127.3V8.172H127.4H127.5V7.044H127.4ZM118.892 9.276H118.992V6.78H118.892H118.792V9.276H118.892ZM118.892 6.78V6.88H120.2V6.78V6.68H118.892V6.78ZM120.2 6.78H120.1V9.276H120.2H120.3V6.78H120.2ZM120.2 9.276V9.376C120.617 9.376 121.118 9.36798 121.702 9.35196L121.7 9.252L121.697 9.15204C121.114 9.16802 120.615 9.176 120.2 9.176V9.276ZM121.7 9.252L121.702 9.35198C122.428 9.33584 123.182 9.25113 123.963 9.09813L123.944 9L123.925 8.90186C123.154 9.05287 122.411 9.13616 121.698 9.15202L121.7 9.252ZM123.944 9H123.844V10.128H123.944H124.044V9H123.944ZM123.944 10.128L123.923 10.0302C123.217 10.1809 122.503 10.2642 121.782 10.28L121.784 10.38L121.786 10.48C122.52 10.4638 123.246 10.3791 123.965 10.2258L123.944 10.128ZM121.784 10.38L121.782 10.28C121.062 10.296 120.427 10.304 119.876 10.304V10.404V10.504C120.429 10.504 121.065 10.496 121.786 10.48L121.784 10.38ZM119.876 10.404V10.304H116.6V10.404V10.504H119.876V10.404ZM116.6 10.404H116.7V9.276H116.6H116.5V10.404H116.6ZM116.6 9.276V9.376H118.892V9.276V9.176H116.6V9.276ZM125.468 14.76V14.66H119.18V14.76V14.86H125.468V14.76ZM119.18 14.76H119.28V11.124H119.18H119.08V14.76H119.18ZM119.18 11.124V11.224H120.476V11.124V11.024H119.18V11.124ZM120.476 11.124H120.376V13.608H120.476H120.576V11.124H120.476ZM120.476 13.608V13.708H125.468V13.608V13.508H120.476V13.608ZM125.468 13.608H125.368V14.76H125.468H125.568V13.608H125.468Z" fill="#002F67"/>
<path d="M35.6185 22.5C35.5622 22.5 35.534 22.474 35.534 22.422V18.3205C35.534 18.2685 35.56 18.2425 35.612 18.2425H36.717C37.1633 18.2425 37.497 18.3313 37.718 18.509C37.939 18.6867 38.0495 18.951 38.0495 19.302C38.0495 19.536 38.0018 19.7288 37.9065 19.8805C37.8155 20.0322 37.6682 20.1513 37.4645 20.238V20.264C37.7072 20.3203 37.8913 20.433 38.017 20.602C38.1427 20.771 38.2055 20.9942 38.2055 21.2715C38.2055 21.6918 38.0885 22.0017 37.8545 22.201C37.6205 22.4003 37.2478 22.5 36.7365 22.5H35.6185ZM36.3855 21.798H36.756C36.964 21.798 37.1157 21.7503 37.211 21.655C37.3107 21.5597 37.3605 21.4123 37.3605 21.213C37.3605 21.0223 37.3107 20.8793 37.211 20.784C37.1113 20.6887 36.9575 20.641 36.7495 20.641H36.3855V21.798ZM36.3855 20.004H36.704C36.8817 20.004 37.0117 19.9585 37.094 19.8675C37.1763 19.7722 37.2175 19.6335 37.2175 19.4515C37.2175 19.2782 37.1742 19.1503 37.0875 19.068C37.0008 18.9857 36.8643 18.9445 36.678 18.9445H36.3855V20.004ZM39.9685 22.552C39.5828 22.552 39.2817 22.4502 39.065 22.2465C38.8527 22.0428 38.7465 21.7438 38.7465 21.3495V20.433C38.7465 20.0387 38.8527 19.7397 39.065 19.536C39.2817 19.3323 39.5828 19.2305 39.9685 19.2305C40.3585 19.2305 40.6597 19.3323 40.872 19.536C41.0843 19.7397 41.1905 20.0387 41.1905 20.433V21.3495C41.1905 21.7438 41.0843 22.0428 40.872 22.2465C40.664 22.4502 40.3628 22.552 39.9685 22.552ZM39.9685 21.837C40.1115 21.837 40.2133 21.7958 40.274 21.7135C40.3347 21.6312 40.365 21.499 40.365 21.317V20.472C40.365 20.2857 40.3347 20.1535 40.274 20.0755C40.2133 19.9932 40.1115 19.952 39.9685 19.952C39.8342 19.952 39.7345 19.9932 39.6695 20.0755C39.6045 20.1535 39.572 20.2857 39.572 20.472V21.317C39.572 21.499 39.6045 21.6312 39.6695 21.7135C39.7345 21.7958 39.8342 21.837 39.9685 21.837ZM41.8947 22.5C41.8427 22.5 41.8167 22.474 41.8167 22.422V20.108C41.8167 19.9607 41.8145 19.8263 41.8102 19.705C41.8102 19.5837 41.8059 19.4732 41.7972 19.3735C41.7885 19.3172 41.8102 19.289 41.8622 19.289H42.4537C42.4927 19.289 42.5165 19.3107 42.5252 19.354C42.5382 19.4277 42.549 19.5187 42.5577 19.627C42.5664 19.731 42.5707 19.822 42.5707 19.9L42.6422 20.1535V22.422C42.6422 22.474 42.6184 22.5 42.5707 22.5H41.8947ZM42.5772 20.485L42.5252 19.783C42.5945 19.6877 42.6725 19.5988 42.7592 19.5165C42.8459 19.4298 42.9369 19.3605 43.0322 19.3085C43.1275 19.2565 43.225 19.2305 43.3247 19.2305C43.355 19.2305 43.381 19.2327 43.4027 19.237C43.4244 19.237 43.446 19.2413 43.4677 19.25C43.4937 19.2587 43.5089 19.2717 43.5132 19.289C43.5219 19.302 43.5262 19.3215 43.5262 19.3475C43.5262 19.4515 43.524 19.5642 43.5197 19.6855C43.5197 19.8068 43.5132 19.9238 43.5002 20.0365C43.4959 20.0842 43.472 20.1058 43.4287 20.1015C43.4027 20.0972 43.3745 20.0928 43.3442 20.0885C43.3139 20.0842 43.2814 20.082 43.2467 20.082C43.173 20.082 43.0972 20.0993 43.0192 20.134C42.9412 20.1643 42.8632 20.2098 42.7852 20.2705C42.7115 20.3268 42.6422 20.3983 42.5772 20.485ZM45.5062 22.5C45.4672 22.5 45.4412 22.474 45.4282 22.422C45.4195 22.3657 45.4087 22.2855 45.3957 22.1815C45.387 22.0732 45.3805 21.9735 45.3762 21.8825L45.3047 21.72V20.2315C45.3047 20.0928 45.283 19.9975 45.2397 19.9455C45.2007 19.8935 45.1249 19.8675 45.0122 19.8675C44.7999 19.8675 44.7024 19.9845 44.7197 20.2185C44.7284 20.2705 44.7045 20.2965 44.6482 20.2965H44.0437C43.996 20.2965 43.9679 20.264 43.9592 20.199C43.9332 19.887 44.0134 19.6487 44.1997 19.484C44.386 19.315 44.6655 19.2305 45.0382 19.2305C45.4195 19.2305 45.6969 19.3107 45.8702 19.471C46.0435 19.6313 46.1302 19.8913 46.1302 20.251V21.6745C46.1302 21.8478 46.1324 21.993 46.1367 22.11C46.141 22.227 46.1475 22.3288 46.1562 22.4155C46.1649 22.4718 46.1432 22.5 46.0912 22.5H45.5062ZM44.5247 22.552C44.308 22.552 44.139 22.4762 44.0177 22.3245C43.9007 22.1685 43.8422 21.9518 43.8422 21.6745C43.8422 21.3582 43.9224 21.1177 44.0827 20.953C44.243 20.784 44.5182 20.68 44.9082 20.641L45.3762 20.5825L45.3697 21.057L45.0577 21.096C44.9017 21.1133 44.7912 21.1588 44.7262 21.2325C44.6655 21.3062 44.6352 21.4167 44.6352 21.564C44.6352 21.681 44.6525 21.7698 44.6872 21.8305C44.7219 21.8868 44.7782 21.915 44.8562 21.915C44.9429 21.915 45.0274 21.8847 45.1097 21.824C45.1964 21.7633 45.2982 21.6593 45.4152 21.512L45.4737 21.993C45.309 22.1793 45.1552 22.3202 45.0122 22.4155C44.8735 22.5065 44.711 22.552 44.5247 22.552ZM46.8837 22.5C46.8317 22.5 46.8057 22.474 46.8057 22.422V20.1145C46.8057 19.9672 46.8035 19.8307 46.7992 19.705C46.7992 19.5793 46.7949 19.4688 46.7862 19.3735C46.7819 19.3172 46.8035 19.289 46.8512 19.289H47.4427C47.4817 19.289 47.5055 19.3085 47.5142 19.3475C47.5229 19.3995 47.5294 19.458 47.5337 19.523C47.5424 19.588 47.5489 19.6552 47.5532 19.7245C47.6789 19.5772 47.811 19.458 47.9497 19.367C48.0884 19.276 48.253 19.2305 48.4437 19.2305C48.6084 19.2305 48.7405 19.2695 48.8402 19.3475C48.9442 19.4212 49.02 19.536 49.0677 19.692C49.1934 19.5533 49.3255 19.4428 49.4642 19.3605C49.6072 19.2738 49.7632 19.2305 49.9322 19.2305C50.1662 19.2305 50.3417 19.3063 50.4587 19.458C50.5757 19.6053 50.6342 19.835 50.6342 20.147V22.422C50.6342 22.474 50.6104 22.5 50.5627 22.5H49.8802C49.8325 22.5 49.8087 22.474 49.8087 22.422V20.2705C49.8087 20.1622 49.7892 20.082 49.7502 20.03C49.7155 19.978 49.657 19.952 49.5747 19.952C49.501 19.952 49.4274 19.9737 49.3537 20.017C49.2844 20.0603 49.2107 20.121 49.1327 20.199V22.422C49.1327 22.474 49.1089 22.5 49.0612 22.5H48.3787C48.331 22.5 48.3072 22.474 48.3072 22.422V20.2705C48.3072 20.1622 48.2877 20.082 48.2487 20.03C48.214 19.978 48.1555 19.952 48.0732 19.952C47.9995 19.952 47.928 19.9737 47.8587 20.017C47.7894 20.0603 47.7135 20.121 47.6312 20.199V22.422C47.6312 22.474 47.6074 22.5 47.5597 22.5H46.8837ZM52.4727 22.552C52.0654 22.552 51.7599 22.4567 51.5562 22.266C51.3569 22.071 51.2572 21.7742 51.2572 21.3755V20.446C51.2572 20.0473 51.3591 19.7462 51.5627 19.5425C51.7664 19.3345 52.0654 19.2305 52.4597 19.2305C52.8627 19.2305 53.1639 19.3323 53.3632 19.536C53.5626 19.7353 53.6622 20.0408 53.6622 20.4525V21.0115C53.6622 21.0635 53.6384 21.0895 53.5907 21.0895H52.0762V21.4015C52.0762 21.5792 52.1066 21.707 52.1672 21.785C52.2322 21.863 52.3341 21.902 52.4727 21.902C52.5897 21.902 52.6764 21.8782 52.7327 21.8305C52.7934 21.7785 52.8216 21.6962 52.8172 21.5835C52.8172 21.5358 52.8411 21.512 52.8887 21.512H53.5387C53.5821 21.512 53.6059 21.538 53.6102 21.59C53.6146 21.9063 53.5214 22.1468 53.3307 22.3115C53.1444 22.4718 52.8584 22.552 52.4727 22.552ZM52.0762 20.5695H52.8497V20.368C52.8497 20.199 52.8194 20.0755 52.7587 19.9975C52.6981 19.9195 52.6027 19.8805 52.4727 19.8805C52.3341 19.8805 52.2322 19.9195 52.1672 19.9975C52.1066 20.0755 52.0762 20.199 52.0762 20.368V20.5695ZM55.8557 22.5C55.8167 22.5 55.7907 22.474 55.7777 22.422C55.769 22.3657 55.7582 22.2855 55.7452 22.1815C55.7365 22.0732 55.73 21.9735 55.7257 21.8825L55.6542 21.72V20.2315C55.6542 20.0928 55.6325 19.9975 55.5892 19.9455C55.5502 19.8935 55.4743 19.8675 55.3617 19.8675C55.1493 19.8675 55.0518 19.9845 55.0692 20.2185C55.0778 20.2705 55.054 20.2965 54.9977 20.2965H54.3932C54.3455 20.2965 54.3173 20.264 54.3087 20.199C54.2827 19.887 54.3628 19.6487 54.5492 19.484C54.7355 19.315 55.015 19.2305 55.3877 19.2305C55.769 19.2305 56.0463 19.3107 56.2197 19.471C56.393 19.6313 56.4797 19.8913 56.4797 20.251V21.6745C56.4797 21.8478 56.4818 21.993 56.4862 22.11C56.4905 22.227 56.497 22.3288 56.5057 22.4155C56.5143 22.4718 56.4927 22.5 56.4407 22.5H55.8557ZM54.8742 22.552C54.6575 22.552 54.4885 22.4762 54.3672 22.3245C54.2502 22.1685 54.1917 21.9518 54.1917 21.6745C54.1917 21.3582 54.2718 21.1177 54.4322 20.953C54.5925 20.784 54.8677 20.68 55.2577 20.641L55.7257 20.5825L55.7192 21.057L55.4072 21.096C55.2512 21.1133 55.1407 21.1588 55.0757 21.2325C55.015 21.3062 54.9847 21.4167 54.9847 21.564C54.9847 21.681 55.002 21.7698 55.0367 21.8305C55.0713 21.8868 55.1277 21.915 55.2057 21.915C55.2923 21.915 55.3768 21.8847 55.4592 21.824C55.5458 21.7633 55.6477 21.6593 55.7647 21.512L55.8232 21.993C55.6585 22.1793 55.5047 22.3202 55.3617 22.4155C55.223 22.5065 55.0605 22.552 54.8742 22.552ZM59.4776 22.552C59.0009 22.552 58.6608 22.4393 58.4571 22.214C58.2534 21.9887 58.1689 21.6723 58.2036 21.265C58.2079 21.2043 58.2339 21.174 58.2816 21.174H58.9706C59.0183 21.174 59.0399 21.2043 59.0356 21.265C59.0269 21.4427 59.0616 21.5813 59.1396 21.681C59.2176 21.7763 59.3389 21.824 59.5036 21.824C59.6639 21.824 59.7809 21.7893 59.8546 21.72C59.9326 21.6507 59.9716 21.5445 59.9716 21.4015C59.9716 21.3235 59.9608 21.2542 59.9391 21.1935C59.9174 21.1285 59.8806 21.0722 59.8286 21.0245C59.7809 20.9725 59.7138 20.9227 59.6271 20.875L58.9316 20.4525C58.6759 20.3008 58.4939 20.1362 58.3856 19.9585C58.2773 19.7765 58.2253 19.5512 58.2296 19.2825C58.2339 18.9315 58.3379 18.6628 58.5416 18.4765C58.7496 18.2858 59.0573 18.1905 59.4646 18.1905C59.9153 18.1905 60.2511 18.2988 60.4721 18.5155C60.6931 18.7278 60.7863 19.0333 60.7516 19.432C60.7429 19.5057 60.7169 19.5425 60.6736 19.5425H59.9781C59.9261 19.5425 59.9044 19.5057 59.9131 19.432C59.9261 19.2847 59.8958 19.1633 59.8221 19.068C59.7528 18.9683 59.6423 18.9185 59.4906 18.9185C59.3563 18.9185 59.2544 18.9488 59.1851 19.0095C59.1158 19.0702 59.0789 19.1633 59.0746 19.289C59.0746 19.4103 59.1028 19.51 59.1591 19.588C59.2198 19.666 59.3108 19.7397 59.4321 19.809L60.1211 20.2185C60.2944 20.3225 60.4309 20.4308 60.5306 20.5435C60.6346 20.6518 60.7083 20.7753 60.7516 20.914C60.7993 21.0483 60.8209 21.2108 60.8166 21.4015C60.8166 21.7742 60.7104 22.0602 60.4981 22.2595C60.2858 22.4545 59.9456 22.552 59.4776 22.552ZM62.9805 22.5C62.9415 22.5 62.9155 22.474 62.9025 22.422C62.8939 22.3657 62.883 22.2855 62.87 22.1815C62.8614 22.0732 62.8549 21.9735 62.8505 21.8825L62.779 21.72V20.2315C62.779 20.0928 62.7574 19.9975 62.714 19.9455C62.675 19.8935 62.5992 19.8675 62.4865 19.8675C62.2742 19.8675 62.1767 19.9845 62.194 20.2185C62.2027 20.2705 62.1789 20.2965 62.1225 20.2965H61.518C61.4704 20.2965 61.4422 20.264 61.4335 20.199C61.4075 19.887 61.4877 19.6487 61.674 19.484C61.8604 19.315 62.1399 19.2305 62.5125 19.2305C62.8939 19.2305 63.1712 19.3107 63.3445 19.471C63.5179 19.6313 63.6045 19.8913 63.6045 20.251V21.6745C63.6045 21.8478 63.6067 21.993 63.611 22.11C63.6154 22.227 63.6219 22.3288 63.6305 22.4155C63.6392 22.4718 63.6175 22.5 63.5655 22.5H62.9805ZM61.999 22.552C61.7824 22.552 61.6134 22.4762 61.492 22.3245C61.375 22.1685 61.3165 21.9518 61.3165 21.6745C61.3165 21.3582 61.3967 21.1177 61.557 20.953C61.7174 20.784 61.9925 20.68 62.3825 20.641L62.8505 20.5825L62.844 21.057L62.532 21.096C62.376 21.1133 62.2655 21.1588 62.2005 21.2325C62.1399 21.3062 62.1095 21.4167 62.1095 21.564C62.1095 21.681 62.1269 21.7698 62.1615 21.8305C62.1962 21.8868 62.2525 21.915 62.3305 21.915C62.4172 21.915 62.5017 21.8847 62.584 21.824C62.6707 21.7633 62.7725 21.6593 62.8895 21.512L62.948 21.993C62.7834 22.1793 62.6295 22.3202 62.4865 22.4155C62.3479 22.5065 62.1854 22.552 61.999 22.552ZM64.5985 22.5C64.5812 22.5 64.566 22.4935 64.553 22.4805C64.54 22.4632 64.5335 22.4437 64.5335 22.422V19.9975H64.176C64.124 19.9975 64.098 19.9715 64.098 19.9195V19.3605C64.098 19.3128 64.124 19.289 64.176 19.289H64.5335V19.016C64.5335 18.6823 64.6094 18.431 64.761 18.262C64.917 18.093 65.1489 18.0085 65.4565 18.0085C65.5952 18.0085 65.723 18.0172 65.84 18.0345C65.957 18.0475 66.0459 18.0648 66.1065 18.0865C66.1455 18.1082 66.165 18.1385 66.165 18.1775V18.6845C66.165 18.7495 66.1347 18.769 66.074 18.743C66.0177 18.73 65.957 18.717 65.892 18.704C65.827 18.6867 65.7577 18.678 65.684 18.678C65.5714 18.678 65.489 18.7083 65.437 18.769C65.385 18.8297 65.359 18.925 65.359 19.055V19.289H65.905C65.957 19.289 65.983 19.3128 65.983 19.3605V19.9195C65.983 19.9715 65.957 19.9975 65.905 19.9975H65.359V22.422C65.359 22.4437 65.3504 22.4632 65.333 22.4805C65.32 22.4935 65.3027 22.5 65.281 22.5H64.5985ZM67.5794 22.552C67.1721 22.552 66.8666 22.4567 66.6629 22.266C66.4636 22.071 66.3639 21.7742 66.3639 21.3755V20.446C66.3639 20.0473 66.4657 19.7462 66.6694 19.5425C66.8731 19.3345 67.1721 19.2305 67.5664 19.2305C67.9694 19.2305 68.2706 19.3323 68.4699 19.536C68.6692 19.7353 68.7689 20.0408 68.7689 20.4525V21.0115C68.7689 21.0635 68.7451 21.0895 68.6974 21.0895H67.1829V21.4015C67.1829 21.5792 67.2132 21.707 67.2739 21.785C67.3389 21.863 67.4407 21.902 67.5794 21.902C67.6964 21.902 67.7831 21.8782 67.8394 21.8305C67.9001 21.7785 67.9282 21.6962 67.9239 21.5835C67.9239 21.5358 67.9477 21.512 67.9954 21.512H68.6454C68.6887 21.512 68.7126 21.538 68.7169 21.59C68.7212 21.9063 68.6281 22.1468 68.4374 22.3115C68.2511 22.4718 67.9651 22.552 67.5794 22.552ZM67.1829 20.5695H67.9564V20.368C67.9564 20.199 67.9261 20.0755 67.8654 19.9975C67.8047 19.9195 67.7094 19.8805 67.5794 19.8805C67.4407 19.8805 67.3389 19.9195 67.2739 19.9975C67.2132 20.0755 67.1829 20.199 67.1829 20.368V20.5695ZM70.579 22.552C70.2367 22.552 69.994 22.4675 69.851 22.2985C69.708 22.1295 69.6365 21.8457 69.6365 21.447V19.9975H69.279C69.2313 19.9975 69.2075 19.9715 69.2075 19.9195V19.3605C69.2075 19.3128 69.2313 19.289 69.279 19.289H69.6625L69.747 18.5155C69.7557 18.4635 69.7817 18.4375 69.825 18.4375H70.397C70.4403 18.4375 70.462 18.4635 70.462 18.5155V19.289H71.138C71.19 19.289 71.216 19.3128 71.216 19.3605V19.9195C71.216 19.9715 71.19 19.9975 71.138 19.9975H70.462V21.395C70.462 21.551 70.4858 21.6637 70.5335 21.733C70.5812 21.8023 70.6635 21.837 70.7805 21.837C70.8368 21.837 70.8932 21.8305 70.9495 21.8175C71.0102 21.8045 71.073 21.785 71.138 21.759C71.1943 21.7373 71.2225 21.759 71.2225 21.824V22.37C71.2225 22.4177 71.2008 22.448 71.1575 22.461C71.0838 22.487 70.9972 22.5087 70.8975 22.526C70.7978 22.5433 70.6917 22.552 70.579 22.552ZM72.2791 23.7025C72.2575 23.7025 72.2401 23.6938 72.2271 23.6765C72.2185 23.6592 72.2185 23.6375 72.2271 23.6115L72.5456 22.4935L71.6291 19.3735C71.6118 19.3172 71.6313 19.289 71.6876 19.289H72.4286C72.472 19.289 72.5001 19.3107 72.5131 19.354L72.7731 20.5435C72.8035 20.6822 72.8316 20.8317 72.8576 20.992C72.8836 21.1523 72.9075 21.3062 72.9291 21.4535H72.9486C72.9703 21.3062 72.9941 21.1523 73.0201 20.992C73.0461 20.8317 73.0721 20.6843 73.0981 20.55L73.3711 19.354C73.3798 19.3107 73.4058 19.289 73.4491 19.289H74.1771C74.2335 19.289 74.253 19.3172 74.2356 19.3735L73.0201 23.644C73.0115 23.683 72.9855 23.7025 72.9421 23.7025H72.2791ZM75.9842 22.5C75.9365 22.5 75.9127 22.474 75.9127 22.422V18.3205C75.9127 18.2685 75.9365 18.2425 75.9842 18.2425H78.1292C78.1769 18.2425 78.2007 18.2685 78.2007 18.3205V18.9185C78.2007 18.9705 78.1769 18.9965 78.1292 18.9965H76.7642V19.991H78.0057C78.0534 19.991 78.0772 20.017 78.0772 20.069V20.628C78.0772 20.68 78.0534 20.706 78.0057 20.706H76.7642V21.746H78.1292C78.1769 21.746 78.2007 21.772 78.2007 21.824V22.422C78.2007 22.474 78.1769 22.5 78.1292 22.5H75.9842ZM78.7294 22.5C78.7034 22.5 78.6839 22.4913 78.6709 22.474C78.6622 22.4523 78.6644 22.4285 78.6774 22.4025L79.5224 20.849L78.7359 19.3735C78.7185 19.3475 78.7142 19.328 78.7229 19.315C78.7359 19.2977 78.7575 19.289 78.7879 19.289H79.5484C79.596 19.289 79.6242 19.3042 79.6329 19.3345L79.8474 19.8285C79.8734 19.9065 79.9015 19.991 79.9319 20.082C79.9622 20.1687 79.9904 20.2727 80.0164 20.394H80.0294C80.0597 20.2727 80.0879 20.1665 80.1139 20.0755C80.1442 19.9845 80.1745 19.9 80.2049 19.822L80.4064 19.341C80.415 19.3063 80.441 19.289 80.4844 19.289H81.2514C81.2774 19.289 81.2947 19.2977 81.3034 19.315C81.3164 19.328 81.3142 19.3475 81.2969 19.3735L80.5169 20.8425L81.3619 22.4025C81.3792 22.4285 81.3814 22.4523 81.3684 22.474C81.3597 22.4913 81.3424 22.5 81.3164 22.5H80.5364C80.493 22.5 80.467 22.4827 80.4584 22.448L80.2439 21.9345C80.2049 21.8435 80.168 21.7503 80.1334 21.655C80.0987 21.5597 80.064 21.4492 80.0294 21.3235H80.0164C79.9817 21.4492 79.947 21.5618 79.9124 21.6615C79.8777 21.7568 79.8409 21.8478 79.8019 21.9345L79.5809 22.448C79.5722 22.4827 79.544 22.5 79.4964 22.5H78.7294ZM83.3349 22.552C83.2136 22.552 83.0814 22.5347 82.9384 22.5C82.7998 22.4697 82.6784 22.4242 82.5744 22.3635L82.5679 21.733C82.6416 21.772 82.7196 21.8045 82.8019 21.8305C82.8843 21.8565 82.9623 21.8695 83.0359 21.8695C83.1486 21.8695 83.2331 21.8305 83.2894 21.7525C83.3458 21.6702 83.3739 21.5423 83.3739 21.369V20.3225C83.3739 20.1925 83.3544 20.0993 83.3154 20.043C83.2764 19.9823 83.2093 19.952 83.1139 19.952C83.0273 19.952 82.9406 19.9802 82.8539 20.0365C82.7673 20.0928 82.6763 20.173 82.5809 20.277L82.4834 19.783C82.6351 19.627 82.7889 19.497 82.9449 19.393C83.1009 19.2847 83.2808 19.2305 83.4844 19.2305C83.7271 19.2305 83.9069 19.3085 84.0239 19.4645C84.1409 19.6162 84.1994 19.8545 84.1994 20.1795V21.4145C84.1994 21.8045 84.1258 22.0927 83.9784 22.279C83.8354 22.461 83.6209 22.552 83.3349 22.552ZM81.9179 23.7025C81.8659 23.7025 81.8399 23.6765 81.8399 23.6245V20.0885C81.8399 19.9498 81.8378 19.8198 81.8334 19.6985C81.8334 19.5772 81.8291 19.4688 81.8204 19.3735C81.8118 19.3172 81.8334 19.289 81.8854 19.289H82.4704C82.5138 19.289 82.5398 19.3107 82.5484 19.354C82.5571 19.4103 82.5658 19.4862 82.5744 19.5815C82.5831 19.6725 82.5896 19.757 82.5939 19.835L82.6654 20.1145V23.6245C82.6654 23.6765 82.6416 23.7025 82.5939 23.7025H81.9179ZM86.0089 22.552C85.6016 22.552 85.2961 22.4567 85.0924 22.266C84.8931 22.071 84.7934 21.7742 84.7934 21.3755V20.446C84.7934 20.0473 84.8953 19.7462 85.0989 19.5425C85.3026 19.3345 85.6016 19.2305 85.9959 19.2305C86.3989 19.2305 86.7001 19.3323 86.8994 19.536C87.0988 19.7353 87.1984 20.0408 87.1984 20.4525V21.0115C87.1984 21.0635 87.1746 21.0895 87.1269 21.0895H85.6124V21.4015C85.6124 21.5792 85.6428 21.707 85.7034 21.785C85.7684 21.863 85.8703 21.902 86.0089 21.902C86.1259 21.902 86.2126 21.8782 86.2689 21.8305C86.3296 21.7785 86.3578 21.6962 86.3534 21.5835C86.3534 21.5358 86.3773 21.512 86.4249 21.512H87.0749C87.1183 21.512 87.1421 21.538 87.1464 21.59C87.1508 21.9063 87.0576 22.1468 86.8669 22.3115C86.6806 22.4718 86.3946 22.552 86.0089 22.552ZM85.6124 20.5695H86.3859V20.368C86.3859 20.199 86.3556 20.0755 86.2949 19.9975C86.2343 19.9195 86.1389 19.8805 86.0089 19.8805C85.8703 19.8805 85.7684 19.9195 85.7034 19.9975C85.6428 20.0755 85.6124 20.199 85.6124 20.368V20.5695ZM87.9099 22.5C87.8579 22.5 87.8319 22.474 87.8319 22.422V20.108C87.8319 19.9607 87.8297 19.8263 87.8254 19.705C87.8254 19.5837 87.821 19.4732 87.8124 19.3735C87.8037 19.3172 87.8254 19.289 87.8774 19.289H88.4689C88.5079 19.289 88.5317 19.3107 88.5404 19.354C88.5534 19.4277 88.5642 19.5187 88.5729 19.627C88.5815 19.731 88.5859 19.822 88.5859 19.9L88.6574 20.1535V22.422C88.6574 22.474 88.6335 22.5 88.5859 22.5H87.9099ZM88.5924 20.485L88.5404 19.783C88.6097 19.6877 88.6877 19.5988 88.7744 19.5165C88.861 19.4298 88.952 19.3605 89.0474 19.3085C89.1427 19.2565 89.2402 19.2305 89.3399 19.2305C89.3702 19.2305 89.3962 19.2327 89.4179 19.237C89.4395 19.237 89.4612 19.2413 89.4829 19.25C89.5089 19.2587 89.524 19.2717 89.5284 19.289C89.537 19.302 89.5414 19.3215 89.5414 19.3475C89.5414 19.4515 89.5392 19.5642 89.5349 19.6855C89.5349 19.8068 89.5284 19.9238 89.5154 20.0365C89.511 20.0842 89.4872 20.1058 89.4439 20.1015C89.4179 20.0972 89.3897 20.0928 89.3594 20.0885C89.329 20.0842 89.2965 20.082 89.2619 20.082C89.1882 20.082 89.1124 20.0993 89.0344 20.134C88.9564 20.1643 88.8784 20.2098 88.8004 20.2705C88.7267 20.3268 88.6574 20.3983 88.5924 20.485ZM90.1155 22.5C90.0635 22.5 90.0375 22.474 90.0375 22.422V19.3605C90.0375 19.3128 90.0635 19.289 90.1155 19.289H90.7915C90.8392 19.289 90.863 19.3128 90.863 19.3605V22.422C90.863 22.474 90.8392 22.5 90.7915 22.5H90.1155ZM90.4535 18.86C90.3062 18.86 90.1892 18.8232 90.1025 18.7495C90.0202 18.6715 89.979 18.5675 89.979 18.4375V18.327C89.979 18.1927 90.0202 18.0887 90.1025 18.015C90.1892 17.937 90.3062 17.898 90.4535 17.898C90.6095 17.898 90.7265 17.937 90.8045 18.015C90.8869 18.0887 90.928 18.1927 90.928 18.327V18.4375C90.928 18.5675 90.8869 18.6715 90.8045 18.7495C90.7265 18.8232 90.6095 18.86 90.4535 18.86ZM92.7021 22.552C92.2948 22.552 91.9893 22.4567 91.7856 22.266C91.5863 22.071 91.4866 21.7742 91.4866 21.3755V20.446C91.4866 20.0473 91.5885 19.7462 91.7921 19.5425C91.9958 19.3345 92.2948 19.2305 92.6891 19.2305C93.0921 19.2305 93.3933 19.3323 93.5926 19.536C93.792 19.7353 93.8916 20.0408 93.8916 20.4525V21.0115C93.8916 21.0635 93.8678 21.0895 93.8201 21.0895H92.3056V21.4015C92.3056 21.5792 92.336 21.707 92.3966 21.785C92.4616 21.863 92.5635 21.902 92.7021 21.902C92.8191 21.902 92.9058 21.8782 92.9621 21.8305C93.0228 21.7785 93.051 21.6962 93.0466 21.5835C93.0466 21.5358 93.0705 21.512 93.1181 21.512H93.7681C93.8115 21.512 93.8353 21.538 93.8396 21.59C93.844 21.9063 93.7508 22.1468 93.5601 22.3115C93.3738 22.4718 93.0878 22.552 92.7021 22.552ZM92.3056 20.5695H93.0791V20.368C93.0791 20.199 93.0488 20.0755 92.9881 19.9975C92.9275 19.9195 92.8321 19.8805 92.7021 19.8805C92.5635 19.8805 92.4616 19.9195 92.3966 19.9975C92.336 20.0755 92.3056 20.199 92.3056 20.368V20.5695ZM96.1696 22.5C96.1219 22.5 96.0981 22.474 96.0981 22.422V20.2965C96.0981 20.1752 96.0764 20.0885 96.0331 20.0365C95.9898 19.9802 95.9204 19.952 95.8251 19.952C95.7384 19.952 95.6518 19.9802 95.5651 20.0365C95.4784 20.0885 95.3874 20.1665 95.2921 20.2705L95.1946 19.809C95.3289 19.6443 95.4784 19.5078 95.6431 19.3995C95.8078 19.2868 95.9941 19.2305 96.2021 19.2305C96.4448 19.2305 96.6246 19.3063 96.7416 19.458C96.8629 19.6053 96.9236 19.8393 96.9236 20.16V22.422C96.9236 22.474 96.8976 22.5 96.8456 22.5H96.1696ZM94.6031 22.5C94.5511 22.5 94.5251 22.474 94.5251 22.422V20.1145C94.5251 19.9672 94.5229 19.8307 94.5186 19.705C94.5186 19.575 94.5143 19.4645 94.5056 19.3735C94.5013 19.3172 94.5229 19.289 94.5706 19.289H95.1556C95.1989 19.289 95.2249 19.3107 95.2336 19.354C95.2423 19.4233 95.2509 19.5143 95.2596 19.627C95.2726 19.7397 95.2813 19.835 95.2856 19.913L95.3506 20.134V22.422C95.3506 22.474 95.3268 22.5 95.2791 22.5H94.6031ZM98.7704 22.552C98.3717 22.552 98.0684 22.4502 97.8604 22.2465C97.6524 22.0385 97.5484 21.7308 97.5484 21.3235V20.4395C97.5484 20.0452 97.6524 19.7462 97.8604 19.5425C98.0727 19.3345 98.3761 19.2305 98.7704 19.2305C99.0217 19.2305 99.2362 19.2782 99.4139 19.3735C99.5916 19.4688 99.7216 19.6032 99.8039 19.7765C99.8906 19.9455 99.9231 20.1405 99.9014 20.3615C99.8971 20.4395 99.8711 20.4785 99.8234 20.4785H99.2189C99.1669 20.4785 99.1409 20.4482 99.1409 20.3875C99.1496 20.2358 99.1214 20.1253 99.0564 20.056C98.9957 19.9867 98.9047 19.952 98.7834 19.952C98.6447 19.952 98.5407 19.991 98.4714 20.069C98.4064 20.147 98.3739 20.2835 98.3739 20.4785V21.291C98.3739 21.486 98.4064 21.6247 98.4714 21.707C98.5364 21.7893 98.6382 21.8305 98.7769 21.8305C98.9026 21.8305 98.9936 21.7958 99.0499 21.7265C99.1106 21.6528 99.1409 21.5423 99.1409 21.395C99.1409 21.3343 99.1647 21.304 99.2124 21.304H99.8299C99.8776 21.304 99.9014 21.3322 99.9014 21.3885C99.9101 21.7655 99.8191 22.0537 99.6284 22.253C99.4421 22.4523 99.1561 22.552 98.7704 22.552ZM101.687 22.552C101.28 22.552 100.974 22.4567 100.77 22.266C100.571 22.071 100.471 21.7742 100.471 21.3755V20.446C100.471 20.0473 100.573 19.7462 100.777 19.5425C100.981 19.3345 101.28 19.2305 101.674 19.2305C102.077 19.2305 102.378 19.3323 102.577 19.536C102.777 19.7353 102.876 20.0408 102.876 20.4525V21.0115C102.876 21.0635 102.853 21.0895 102.805 21.0895H101.29V21.4015C101.29 21.5792 101.321 21.707 101.381 21.785C101.446 21.863 101.548 21.902 101.687 21.902C101.804 21.902 101.891 21.8782 101.947 21.8305C102.008 21.7785 102.036 21.6962 102.031 21.5835C102.031 21.5358 102.055 21.512 102.103 21.512H102.753C102.796 21.512 102.82 21.538 102.824 21.59C102.829 21.9063 102.736 22.1468 102.545 22.3115C102.359 22.4718 102.073 22.552 101.687 22.552ZM101.29 20.5695H102.064V20.368C102.064 20.199 102.034 20.0755 101.973 19.9975C101.912 19.9195 101.817 19.8805 101.687 19.8805C101.548 19.8805 101.446 19.9195 101.381 19.9975C101.321 20.0755 101.29 20.199 101.29 20.368V20.5695ZM106.092 22.552C105.62 22.552 105.258 22.4263 105.007 22.175C104.755 21.9237 104.63 21.538 104.63 21.018V19.731C104.63 19.2197 104.755 18.8362 105.007 18.5805C105.258 18.3205 105.62 18.1905 106.092 18.1905C106.422 18.1905 106.699 18.2533 106.924 18.379C107.15 18.5047 107.314 18.6802 107.418 18.9055C107.527 19.1308 107.561 19.3973 107.522 19.705C107.518 19.7613 107.494 19.7895 107.451 19.7895H106.742C106.695 19.7895 106.673 19.7613 106.677 19.705C106.695 19.4623 106.656 19.276 106.56 19.146C106.465 19.0117 106.311 18.9445 106.099 18.9445C105.891 18.9445 105.735 19.0095 105.631 19.1395C105.531 19.2652 105.481 19.4688 105.481 19.7505V20.979C105.481 21.2693 105.533 21.4795 105.637 21.6095C105.741 21.7352 105.895 21.798 106.099 21.798C106.324 21.798 106.48 21.7287 106.567 21.59C106.658 21.447 106.697 21.2607 106.684 21.031C106.679 20.979 106.701 20.953 106.749 20.953H107.451C107.494 20.953 107.52 20.979 107.529 21.031C107.572 21.499 107.468 21.8695 107.217 22.1425C106.965 22.4155 106.591 22.552 106.092 22.552ZM109.32 22.552C108.912 22.552 108.607 22.4567 108.403 22.266C108.204 22.071 108.104 21.7742 108.104 21.3755V20.446C108.104 20.0473 108.206 19.7462 108.41 19.5425C108.613 19.3345 108.912 19.2305 109.307 19.2305C109.71 19.2305 110.011 19.3323 110.21 19.536C110.409 19.7353 110.509 20.0408 110.509 20.4525V21.0115C110.509 21.0635 110.485 21.0895 110.438 21.0895H108.923V21.4015C108.923 21.5792 108.953 21.707 109.014 21.785C109.079 21.863 109.181 21.902 109.32 21.902C109.437 21.902 109.523 21.8782 109.58 21.8305C109.64 21.7785 109.668 21.6962 109.664 21.5835C109.664 21.5358 109.688 21.512 109.736 21.512H110.386C110.429 21.512 110.453 21.538 110.457 21.59C110.461 21.9063 110.368 22.1468 110.178 22.3115C109.991 22.4718 109.705 22.552 109.32 22.552ZM108.923 20.5695H109.697V20.368C109.697 20.199 109.666 20.0755 109.606 19.9975C109.545 19.9195 109.45 19.8805 109.32 19.8805C109.181 19.8805 109.079 19.9195 109.014 19.9975C108.953 20.0755 108.923 20.199 108.923 20.368V20.5695ZM112.787 22.5C112.739 22.5 112.715 22.474 112.715 22.422V20.2965C112.715 20.1752 112.694 20.0885 112.65 20.0365C112.607 19.9802 112.538 19.952 112.442 19.952C112.356 19.952 112.269 19.9802 112.182 20.0365C112.096 20.0885 112.005 20.1665 111.909 20.2705L111.812 19.809C111.946 19.6443 112.096 19.5078 112.26 19.3995C112.425 19.2868 112.611 19.2305 112.819 19.2305C113.062 19.2305 113.242 19.3063 113.359 19.458C113.48 19.6053 113.541 19.8393 113.541 20.16V22.422C113.541 22.474 113.515 22.5 113.463 22.5H112.787ZM111.22 22.5C111.168 22.5 111.142 22.474 111.142 22.422V20.1145C111.142 19.9672 111.14 19.8307 111.136 19.705C111.136 19.575 111.132 19.4645 111.123 19.3735C111.119 19.3172 111.14 19.289 111.188 19.289H111.773C111.816 19.289 111.842 19.3107 111.851 19.354C111.86 19.4233 111.868 19.5143 111.877 19.627C111.89 19.7397 111.899 19.835 111.903 19.913L111.968 20.134V22.422C111.968 22.474 111.944 22.5 111.896 22.5H111.22ZM115.426 22.552C115.084 22.552 114.841 22.4675 114.698 22.2985C114.555 22.1295 114.484 21.8457 114.484 21.447V19.9975H114.126C114.079 19.9975 114.055 19.9715 114.055 19.9195V19.3605C114.055 19.3128 114.079 19.289 114.126 19.289H114.51L114.594 18.5155C114.603 18.4635 114.629 18.4375 114.672 18.4375H115.244C115.288 18.4375 115.309 18.4635 115.309 18.5155V19.289H115.985C116.037 19.289 116.063 19.3128 116.063 19.3605V19.9195C116.063 19.9715 116.037 19.9975 115.985 19.9975H115.309V21.395C115.309 21.551 115.333 21.6637 115.381 21.733C115.428 21.8023 115.511 21.837 115.628 21.837C115.684 21.837 115.74 21.8305 115.797 21.8175C115.857 21.8045 115.92 21.785 115.985 21.759C116.042 21.7373 116.07 21.759 116.07 21.824V22.37C116.07 22.4177 116.048 22.448 116.005 22.461C115.931 22.487 115.844 22.5087 115.745 22.526C115.645 22.5433 115.539 22.552 115.426 22.552ZM117.733 22.552C117.326 22.552 117.02 22.4567 116.816 22.266C116.617 22.071 116.517 21.7742 116.517 21.3755V20.446C116.517 20.0473 116.619 19.7462 116.823 19.5425C117.027 19.3345 117.326 19.2305 117.72 19.2305C118.123 19.2305 118.424 19.3323 118.623 19.536C118.823 19.7353 118.922 20.0408 118.922 20.4525V21.0115C118.922 21.0635 118.899 21.0895 118.851 21.0895H117.336V21.4015C117.336 21.5792 117.367 21.707 117.427 21.785C117.492 21.863 117.594 21.902 117.733 21.902C117.85 21.902 117.937 21.8782 117.993 21.8305C118.054 21.7785 118.082 21.6962 118.077 21.5835C118.077 21.5358 118.101 21.512 118.149 21.512H118.799C118.842 21.512 118.866 21.538 118.87 21.59C118.875 21.9063 118.782 22.1468 118.591 22.3115C118.405 22.4718 118.119 22.552 117.733 22.552ZM117.336 20.5695H118.11V20.368C118.11 20.199 118.08 20.0755 118.019 19.9975C117.958 19.9195 117.863 19.8805 117.733 19.8805C117.594 19.8805 117.492 19.9195 117.427 19.9975C117.367 20.0755 117.336 20.199 117.336 20.368V20.5695ZM119.634 22.5C119.582 22.5 119.556 22.474 119.556 22.422V20.108C119.556 19.9607 119.554 19.8263 119.549 19.705C119.549 19.5837 119.545 19.4732 119.536 19.3735C119.528 19.3172 119.549 19.289 119.601 19.289H120.193C120.232 19.289 120.256 19.3107 120.264 19.354C120.277 19.4277 120.288 19.5187 120.297 19.627C120.306 19.731 120.31 19.822 120.31 19.9L120.381 20.1535V22.422C120.381 22.474 120.358 22.5 120.31 22.5H119.634ZM120.316 20.485L120.264 19.783C120.334 19.6877 120.412 19.5988 120.498 19.5165C120.585 19.4298 120.676 19.3605 120.771 19.3085C120.867 19.2565 120.964 19.2305 121.064 19.2305C121.094 19.2305 121.12 19.2327 121.142 19.237C121.164 19.237 121.185 19.2413 121.207 19.25C121.233 19.2587 121.248 19.2717 121.252 19.289C121.261 19.302 121.265 19.3215 121.265 19.3475C121.265 19.4515 121.263 19.5642 121.259 19.6855C121.259 19.8068 121.252 19.9238 121.239 20.0365C121.235 20.0842 121.211 20.1058 121.168 20.1015C121.142 20.0972 121.114 20.0928 121.083 20.0885C121.053 20.0842 121.021 20.082 120.986 20.082C120.912 20.082 120.836 20.0993 120.758 20.134C120.68 20.1643 120.602 20.2098 120.524 20.2705C120.451 20.3268 120.381 20.3983 120.316 20.485Z" fill="#002F67"/>
</g>
<defs>
<clipPath id="clip0_553_10267">
<rect width="161.583" height="28" fill="white" transform="translate(0.208984)"/>
</clipPath>
</defs>
</svg>
