<svg width="16" height="14" viewBox="0 0 16 14" fill="none" xmlns="http://www.w3.org/2000/svg">
<g id="Group 540">
<path id="Vector" d="M13.542 2.17814C12.0417 0.607286 9.61083 0.607286 8.11047 2.17814V2.17814C8.05065 2.24077 7.95065 2.24077 7.89083 2.17814V2.17814C6.39195 0.607286 3.95962 0.607286 2.45926 2.17814C0.958894 3.749 0.958894 6.29561 2.45926 7.86491L2.56907 7.97989L6.55436 12.1524C7.34216 12.9772 8.65914 12.9772 9.44694 12.1524L13.4322 7.97989L13.542 7.86491C15.0424 6.29406 15.0424 3.74744 13.542 2.17814Z" stroke="#444444" stroke-width="1.5"/>
<path id="Vector 261" d="M2.66797 7.33333H5.10477C5.19061 7.33333 5.27045 7.28929 5.31624 7.21667L6.47111 5.38512C6.57632 5.21827 6.82426 5.23327 6.90859 5.41158L8.7262 9.25508C8.81053 9.4334 9.05847 9.44839 9.16368 9.28155L10.3185 7.44999C10.3643 7.37738 10.4442 7.33333 10.53 7.33333H13.3346" stroke="#444444" stroke-width="1.5" stroke-linecap="round"/>
</g>
</svg>
