<svg width="48" height="48" viewBox="0 0 48 48" fill="none" xmlns="http://www.w3.org/2000/svg">
<rect x="15.2012" y="6.40039" width="6.4" height="8" rx="2" fill="#1071E5"/>
<rect x="32.8008" y="6.40039" width="6.4" height="8" rx="2" fill="#1071E5"/>
<path d="M40.7597 11.2012H13.6411C11.8513 11.2012 10.4004 12.6523 10.4004 14.4424V31.1599C10.4004 32.95 11.8513 34.4012 13.6411 34.4012H40.7597C42.5495 34.4012 44.0004 32.95 44.0004 31.1599V14.4424C44.0004 12.6523 42.5495 11.2012 40.7597 11.2012Z" fill="#1071E5"/>
<g opacity="0.9" filter="url(#filter0_i_372_39517)">
<path d="M4.00343 20.2868V32.0118C4.00343 35.4462 5.84307 38.6175 8.82906 40.3365L15.8204 44.3553C16.2219 44.5877 16.7196 44.5877 17.1212 44.3553L24.1125 40.3365C27.0985 38.6209 28.9381 35.4462 28.9381 32.0118V20.2868C28.9381 19.9451 28.7253 19.6375 28.4027 19.5179L17.1589 15.3248C16.7127 15.1574 16.2254 15.1574 15.7792 15.3248L4.53542 19.5179C4.21279 19.6375 4 19.9451 4 20.2868H4.00343Z" fill="url(#paint0_linear_372_39517)"/>
</g>
<path d="M12 28.9297H20.8" stroke="white" stroke-width="3" stroke-linecap="round"/>
<path d="M16.4004 33.3301L16.4004 24.5301" stroke="white" stroke-width="3" stroke-linecap="round"/>
<defs>
<filter id="filter0_i_372_39517" x="4" y="15.1992" width="24.9375" height="29.3301" filterUnits="userSpaceOnUse" color-interpolation-filters="sRGB">
<feFlood flood-opacity="0" result="BackgroundImageFix"/>
<feBlend mode="normal" in="SourceGraphic" in2="BackgroundImageFix" result="shape"/>
<feColorMatrix in="SourceAlpha" type="matrix" values="0 0 0 0 0 0 0 0 0 0 0 0 0 0 0 0 0 0 127 0" result="hardAlpha"/>
<feOffset/>
<feGaussianBlur stdDeviation="1.5"/>
<feComposite in2="hardAlpha" operator="arithmetic" k2="-1" k3="1"/>
<feColorMatrix type="matrix" values="0 0 0 0 1 0 0 0 0 1 0 0 0 0 1 0 0 0 0.7 0"/>
<feBlend mode="normal" in2="shape" result="effect1_innerShadow_372_39517"/>
</filter>
<linearGradient id="paint0_linear_372_39517" x1="4" y1="15.1992" x2="32.9486" y2="39.8128" gradientUnits="userSpaceOnUse">
<stop stop-color="#FFE8CC"/>
<stop offset="1" stop-color="#FF4A58"/>
</linearGradient>
</defs>
</svg>
