<svg width="22" height="21" viewBox="0 0 22 21" fill="none" xmlns="http://www.w3.org/2000/svg">
<g id="Group 540">
<path id="Vector" d="M19.3121 3.26721C17.0616 0.910929 13.4153 0.910929 11.1647 3.26721V3.26721C11.075 3.36115 10.925 3.36115 10.8353 3.26721V3.26721C8.58696 0.910929 4.93845 0.910929 2.68791 3.26721C0.437364 5.62349 0.437364 9.44342 2.68791 11.7974L2.85263 11.9698L9.55371 18.9858C10.3415 19.8106 11.6585 19.8106 12.4463 18.9858L19.1474 11.9698L19.3121 11.7974C21.5626 9.44109 21.5626 5.62116 19.3121 3.26721Z" stroke="black" stroke-width="2"/>
<path id="Vector 261" d="M3 11H6.72416C6.81 11 6.88984 10.956 6.93563 10.8833L8.82613 7.88512C8.93134 7.71827 9.17928 7.73327 9.26361 7.91158L12.1847 14.0884C12.269 14.2667 12.5169 14.2817 12.6221 14.1149L14.5126 11.1167C14.5584 11.044 14.6383 11 14.7241 11H19" stroke="black" stroke-width="2" stroke-linecap="round"/>
</g>
</svg>
