{
	"asset":{
		"generator":"Khronos glTF Blender I/O v3.6.28",
		"version":"2.0"
	},
	"extensionsUsed":[
		"KHR_materials_specular",
		"KHR_materials_ior"
	],
	"scene":0,
	"scenes":[
		{
			"name":"Scene",
			"nodes":[
				0,
				1,
				2,
				3,
				4,
				5,
				6,
				7,
				8,
				9,
				10,
				11,
				12,
				13,
				14,
				15,
				16,
				17,
				18,
				19
			]
		}
	],
	"nodes":[
		{
			"mesh":0,
			"name":"bottom_3",
			"scale":[
				1000,
				1,
				1000
			],
			"translation":[
				-283.05999755859375,
				-0.019999999552965164,
				297.1390075683594
			]
		},
		{
			"mesh":1,
			"name":"wall_7",
			"scale":[
				1000,
				1,
				1000
			],
			"translation":[
				-283.05999755859375,
				6,
				297.1390075683594
			]
		},
		{
			"mesh":2,
			"name":"wall_2.002",
			"scale":[
				1000,
				1,
				1000
			],
			"translation":[
				-283.05999755859375,
				6,
				297.1390075683594
			]
		},
		{
			"mesh":3,
			"name":"wall_3.002",
			"scale":[
				1000,
				1,
				1000
			],
			"translation":[
				-283.05999755859375,
				6,
				297.1390075683594
			]
		},
		{
			"mesh":4,
			"name":"wall_1.002",
			"scale":[
				1000,
				1,
				1000
			],
			"translation":[
				-283.05999755859375,
				6,
				297.1390075683594
			]
		},
		{
			"mesh":5,
			"name":"wall_4.002",
			"scale":[
				1000,
				1,
				1000
			],
			"translation":[
				-283.05999755859375,
				6,
				297.1390075683594
			]
		},
		{
			"mesh":6,
			"name":"wall_5.002",
			"scale":[
				1000,
				1,
				1000
			],
			"translation":[
				-283.05999755859375,
				6,
				297.1390075683594
			]
		},
		{
			"mesh":7,
			"name":"wall_6",
			"scale":[
				1000,
				1,
				1000
			],
			"translation":[
				-283.05999755859375,
				6,
				297.1390075683594
			]
		},
		{
			"mesh":8,
			"name":"wall_8",
			"scale":[
				1000,
				1,
				1000
			],
			"translation":[
				-283.05999755859375,
				6,
				297.1390075683594
			]
		},
		{
			"mesh":9,
			"name":"wall_9",
			"rotation":[
				0,
				0.07142546027898788,
				0,
				0.9974459409713745
			],
			"scale":[
				0.8500000238418579,
				5.799999713897705,
				50.95000076293945
			],
			"translation":[
				101.84967041015625,
				6,
				-99.90259552001953
			]
		},
		{
			"mesh":10,
			"name":"bottom_4",
			"scale":[
				1000,
				1,
				1000
			],
			"translation":[
				-283.05999755859375,
				-0.019999999552965164,
				297.1390075683594
			]
		},
		{
			"mesh":11,
			"name":"wall_7.002",
			"scale":[
				1000,
				1,
				1000
			],
			"translation":[
				-283.05999755859375,
				6,
				297.1390075683594
			]
		},
		{
			"mesh":12,
			"name":"wall_2.004",
			"scale":[
				1000,
				1,
				1000
			],
			"translation":[
				-283.05999755859375,
				6,
				297.1390075683594
			]
		},
		{
			"mesh":13,
			"name":"wall_3.003",
			"scale":[
				1000,
				1,
				1000
			],
			"translation":[
				-283.05999755859375,
				6,
				297.1390075683594
			]
		},
		{
			"mesh":14,
			"name":"wall_1.004",
			"scale":[
				1000,
				1,
				1000
			],
			"translation":[
				-283.05999755859375,
				6,
				297.1390075683594
			]
		},
		{
			"mesh":15,
			"name":"wall_4.003",
			"scale":[
				1000,
				1,
				1000
			],
			"translation":[
				-283.05999755859375,
				6,
				297.1390075683594
			]
		},
		{
			"mesh":16,
			"name":"wall_5.003",
			"scale":[
				1000,
				1,
				1000
			],
			"translation":[
				-283.05999755859375,
				6,
				297.1390075683594
			]
		},
		{
			"mesh":17,
			"name":"wall_6.002",
			"scale":[
				1000,
				1,
				1000
			],
			"translation":[
				-283.05999755859375,
				6,
				297.1390075683594
			]
		},
		{
			"mesh":18,
			"name":"wall_8.002",
			"scale":[
				1000,
				1,
				1000
			],
			"translation":[
				-283.05999755859375,
				6,
				297.1390075683594
			]
		},
		{
			"mesh":19,
			"name":"wall_9.001",
			"rotation":[
				0,
				0.07142546027898788,
				0,
				0.9974459409713745
			],
			"scale":[
				0.8500000238418579,
				5.799999713897705,
				50.95000076293945
			],
			"translation":[
				101.84967041015625,
				6,
				-99.90259552001953
			]
		}
	],
	"materials":[
		{
			"doubleSided":true,
			"extensions":{
				"KHR_materials_specular":{
					"specularColorFactor":[
						0.6357987704412495,
						0.6357987704412495,
						0.6357987704412495
					]
				},
				"KHR_materials_ior":{
					"ior":1.4500000476837158
				}
			},
			"name":"bottom",
			"pbrMetallicRoughness":{
				"baseColorFactor":[
					0.20791643857955933,
					0.20791643857955933,
					0.20791643857955933,
					1
				],
				"metallicFactor":0.4299516975879669,
				"roughnessFactor":0.2971014380455017
			}
		},
		{
			"doubleSided":true,
			"name":"wall",
			"pbrMetallicRoughness":{
				"baseColorFactor":[
					0.800000011920929,
					0.800000011920929,
					0.800000011920929,
					1
				],
				"metallicFactor":0,
				"roughnessFactor":0.9202898740768433
			}
		},
		{
			"doubleSided":true,
			"extensions":{
				"KHR_materials_specular":{
					"specularColorFactor":[
						0.6357987704412495,
						0.6357987704412495,
						0.6357987704412495
					]
				},
				"KHR_materials_ior":{
					"ior":1.4500000476837158
				}
			},
			"name":"bottom.001",
			"pbrMetallicRoughness":{
				"baseColorFactor":[
					0.20791643857955933,
					0.20791643857955933,
					0.20791643857955933,
					1
				],
				"metallicFactor":0.4299516975879669,
				"roughnessFactor":0.2971014380455017
			}
		},
		{
			"doubleSided":true,
			"name":"wall.001",
			"pbrMetallicRoughness":{
				"baseColorFactor":[
					0.800000011920929,
					0.800000011920929,
					0.800000011920929,
					1
				],
				"metallicFactor":0,
				"roughnessFactor":0.9202898740768433
			}
		}
	],
	"meshes":[
		{
			"name":"Curve.052",
			"primitives":[
				{
					"attributes":{
						"POSITION":0,
						"NORMAL":1,
						"TEXCOORD_0":2
					},
					"indices":3,
					"material":0
				}
			]
		},
		{
			"name":"Curve.053",
			"primitives":[
				{
					"attributes":{
						"POSITION":4,
						"NORMAL":5,
						"TEXCOORD_0":6
					},
					"indices":7,
					"material":1
				}
			]
		},
		{
			"name":"Curve.054",
			"primitives":[
				{
					"attributes":{
						"POSITION":8,
						"NORMAL":9,
						"TEXCOORD_0":10
					},
					"indices":11,
					"material":1
				}
			]
		},
		{
			"name":"Curve.057",
			"primitives":[
				{
					"attributes":{
						"POSITION":12,
						"NORMAL":13,
						"TEXCOORD_0":14
					},
					"indices":15,
					"material":1
				}
			]
		},
		{
			"name":"Curve.058",
			"primitives":[
				{
					"attributes":{
						"POSITION":16,
						"NORMAL":17,
						"TEXCOORD_0":18
					},
					"indices":15,
					"material":1
				}
			]
		},
		{
			"name":"Curve.059",
			"primitives":[
				{
					"attributes":{
						"POSITION":19,
						"NORMAL":20,
						"TEXCOORD_0":21
					},
					"indices":22,
					"material":1
				}
			]
		},
		{
			"name":"Curve.061",
			"primitives":[
				{
					"attributes":{
						"POSITION":23,
						"NORMAL":24,
						"TEXCOORD_0":25
					},
					"indices":26,
					"material":1
				}
			]
		},
		{
			"name":"Curve.062",
			"primitives":[
				{
					"attributes":{
						"POSITION":27,
						"NORMAL":28,
						"TEXCOORD_0":29
					},
					"indices":26,
					"material":1
				}
			]
		},
		{
			"name":"Curve.067",
			"primitives":[
				{
					"attributes":{
						"POSITION":30,
						"NORMAL":31,
						"TEXCOORD_0":32
					},
					"indices":33,
					"material":1
				}
			]
		},
		{
			"name":"Cube.001",
			"primitives":[
				{
					"attributes":{
						"POSITION":34,
						"NORMAL":35,
						"TEXCOORD_0":36
					},
					"indices":37,
					"material":1
				}
			]
		},
		{
			"name":"Curve.033",
			"primitives":[
				{
					"attributes":{
						"POSITION":38,
						"NORMAL":39,
						"TEXCOORD_0":40
					},
					"indices":3,
					"material":2
				}
			]
		},
		{
			"name":"Curve.032",
			"primitives":[
				{
					"attributes":{
						"POSITION":41,
						"NORMAL":42,
						"TEXCOORD_0":43
					},
					"indices":7,
					"material":3
				}
			]
		},
		{
			"name":"Curve.031",
			"primitives":[
				{
					"attributes":{
						"POSITION":44,
						"NORMAL":45,
						"TEXCOORD_0":46
					},
					"indices":11,
					"material":3
				}
			]
		},
		{
			"name":"Curve.030",
			"primitives":[
				{
					"attributes":{
						"POSITION":47,
						"NORMAL":48,
						"TEXCOORD_0":49
					},
					"indices":15,
					"material":3
				}
			]
		},
		{
			"name":"Curve.029",
			"primitives":[
				{
					"attributes":{
						"POSITION":50,
						"NORMAL":51,
						"TEXCOORD_0":52
					},
					"indices":15,
					"material":3
				}
			]
		},
		{
			"name":"Curve.028",
			"primitives":[
				{
					"attributes":{
						"POSITION":53,
						"NORMAL":54,
						"TEXCOORD_0":55
					},
					"indices":22,
					"material":3
				}
			]
		},
		{
			"name":"Curve.027",
			"primitives":[
				{
					"attributes":{
						"POSITION":56,
						"NORMAL":57,
						"TEXCOORD_0":58
					},
					"indices":26,
					"material":3
				}
			]
		},
		{
			"name":"Curve.026",
			"primitives":[
				{
					"attributes":{
						"POSITION":59,
						"NORMAL":60,
						"TEXCOORD_0":61
					},
					"indices":26,
					"material":3
				}
			]
		},
		{
			"name":"Curve.025",
			"primitives":[
				{
					"attributes":{
						"POSITION":62,
						"NORMAL":63,
						"TEXCOORD_0":64
					},
					"indices":33,
					"material":3
				}
			]
		},
		{
			"name":"Cube.002",
			"primitives":[
				{
					"attributes":{
						"POSITION":65,
						"NORMAL":66,
						"TEXCOORD_0":67
					},
					"indices":37,
					"material":3
				}
			]
		}
	],
	"accessors":[
		{
			"bufferView":0,
			"componentType":5126,
			"count":150,
			"max":[
				0.523730456829071,
				0.019999999552965164,
				-0.12251749634742737
			],
			"min":[
				0.05534490942955017,
				-0.019999999552965164,
				-0.46797627210617065
			],
			"type":"VEC3"
		},
		{
			"bufferView":1,
			"componentType":5126,
			"count":150,
			"type":"VEC3"
		},
		{
			"bufferView":2,
			"componentType":5126,
			"count":150,
			"type":"VEC2"
		},
		{
			"bufferView":3,
			"componentType":5123,
			"count":432,
			"type":"SCALAR"
		},
		{
			"bufferView":4,
			"componentType":5126,
			"count":262,
			"max":[
				0.3754196763038635,
				6,
				-0.12251749634742737
			],
			"min":[
				0.05534490942955017,
				-6,
				-0.4641669988632202
			],
			"type":"VEC3"
		},
		{
			"bufferView":5,
			"componentType":5126,
			"count":262,
			"type":"VEC3"
		},
		{
			"bufferView":6,
			"componentType":5126,
			"count":262,
			"type":"VEC2"
		},
		{
			"bufferView":7,
			"componentType":5123,
			"count":768,
			"type":"SCALAR"
		},
		{
			"bufferView":8,
			"componentType":5126,
			"count":86,
			"max":[
				0.11461278796195984,
				6,
				-0.18905282020568848
			],
			"min":[
				0.06750893592834473,
				-6,
				-0.37725913524627686
			],
			"type":"VEC3"
		},
		{
			"bufferView":9,
			"componentType":5126,
			"count":86,
			"type":"VEC3"
		},
		{
			"bufferView":10,
			"componentType":5126,
			"count":86,
			"type":"VEC2"
		},
		{
			"bufferView":11,
			"componentType":5123,
			"count":204,
			"type":"SCALAR"
		},
		{
			"bufferView":12,
			"componentType":5126,
			"count":4,
			"max":[
				0.14210179448127747,
				6,
				-0.22480353713035583
			],
			"min":[
				0.11390721797943115,
				-6,
				-0.22539612650871277
			],
			"type":"VEC3"
		},
		{
			"bufferView":13,
			"componentType":5126,
			"count":4,
			"type":"VEC3"
		},
		{
			"bufferView":14,
			"componentType":5126,
			"count":4,
			"type":"VEC2"
		},
		{
			"bufferView":15,
			"componentType":5123,
			"count":6,
			"type":"SCALAR"
		},
		{
			"bufferView":16,
			"componentType":5126,
			"count":4,
			"max":[
				0.1971926987171173,
				6,
				-0.22446495294570923
			],
			"min":[
				0.1701834797859192,
				-6,
				-0.22480353713035583
			],
			"type":"VEC3"
		},
		{
			"bufferView":17,
			"componentType":5126,
			"count":4,
			"type":"VEC3"
		},
		{
			"bufferView":18,
			"componentType":5126,
			"count":4,
			"type":"VEC2"
		},
		{
			"bufferView":19,
			"componentType":5126,
			"count":26,
			"max":[
				0.2920213043689728,
				6,
				-0.20389488339424133
			],
			"min":[
				0.2758496403694153,
				-6,
				-0.22660943865776062
			],
			"type":"VEC3"
		},
		{
			"bufferView":20,
			"componentType":5126,
			"count":26,
			"type":"VEC3"
		},
		{
			"bufferView":21,
			"componentType":5126,
			"count":26,
			"type":"VEC2"
		},
		{
			"bufferView":22,
			"componentType":5123,
			"count":60,
			"type":"SCALAR"
		},
		{
			"bufferView":23,
			"componentType":5126,
			"count":18,
			"max":[
				0.4978501796722412,
				6,
				-0.38572418689727783
			],
			"min":[
				0.4944634437561035,
				-6,
				-0.3891102075576782
			],
			"type":"VEC3"
		},
		{
			"bufferView":24,
			"componentType":5126,
			"count":18,
			"type":"VEC3"
		},
		{
			"bufferView":25,
			"componentType":5126,
			"count":18,
			"type":"VEC2"
		},
		{
			"bufferView":26,
			"componentType":5123,
			"count":36,
			"type":"SCALAR"
		},
		{
			"bufferView":27,
			"componentType":5126,
			"count":18,
			"max":[
				0.4679340124130249,
				6,
				-0.3671010732650757
			],
			"min":[
				0.4645472764968872,
				-6,
				-0.3704870939254761
			],
			"type":"VEC3"
		},
		{
			"bufferView":28,
			"componentType":5126,
			"count":18,
			"type":"VEC3"
		},
		{
			"bufferView":29,
			"componentType":5126,
			"count":18,
			"type":"VEC2"
		},
		{
			"bufferView":30,
			"componentType":5126,
			"count":987,
			"max":[
				0.5228423476219177,
				6,
				-0.18750086426734924
			],
			"min":[
				0.06542044878005981,
				-6,
				-0.46798577904701233
			],
			"type":"VEC3"
		},
		{
			"bufferView":31,
			"componentType":5126,
			"count":987,
			"type":"VEC3"
		},
		{
			"bufferView":32,
			"componentType":5126,
			"count":987,
			"type":"VEC2"
		},
		{
			"bufferView":33,
			"componentType":5123,
			"count":2796,
			"type":"SCALAR"
		},
		{
			"bufferView":34,
			"componentType":5126,
			"count":24,
			"max":[
				1,
				1,
				1
			],
			"min":[
				-1,
				-1,
				-1
			],
			"type":"VEC3"
		},
		{
			"bufferView":35,
			"componentType":5126,
			"count":24,
			"type":"VEC3"
		},
		{
			"bufferView":36,
			"componentType":5126,
			"count":24,
			"type":"VEC2"
		},
		{
			"bufferView":37,
			"componentType":5123,
			"count":36,
			"type":"SCALAR"
		},
		{
			"bufferView":38,
			"componentType":5126,
			"count":150,
			"max":[
				0.523730456829071,
				0.019999999552965164,
				-0.12251749634742737
			],
			"min":[
				0.05534490942955017,
				-0.019999999552965164,
				-0.46797627210617065
			],
			"type":"VEC3"
		},
		{
			"bufferView":39,
			"componentType":5126,
			"count":150,
			"type":"VEC3"
		},
		{
			"bufferView":40,
			"componentType":5126,
			"count":150,
			"type":"VEC2"
		},
		{
			"bufferView":41,
			"componentType":5126,
			"count":262,
			"max":[
				0.3754196763038635,
				6,
				-0.12251749634742737
			],
			"min":[
				0.05534490942955017,
				-6,
				-0.4641669988632202
			],
			"type":"VEC3"
		},
		{
			"bufferView":42,
			"componentType":5126,
			"count":262,
			"type":"VEC3"
		},
		{
			"bufferView":43,
			"componentType":5126,
			"count":262,
			"type":"VEC2"
		},
		{
			"bufferView":44,
			"componentType":5126,
			"count":86,
			"max":[
				0.11461278796195984,
				6,
				-0.18905282020568848
			],
			"min":[
				0.06750893592834473,
				-6,
				-0.37725913524627686
			],
			"type":"VEC3"
		},
		{
			"bufferView":45,
			"componentType":5126,
			"count":86,
			"type":"VEC3"
		},
		{
			"bufferView":46,
			"componentType":5126,
			"count":86,
			"type":"VEC2"
		},
		{
			"bufferView":47,
			"componentType":5126,
			"count":4,
			"max":[
				0.14210179448127747,
				6,
				-0.22480353713035583
			],
			"min":[
				0.11390721797943115,
				-6,
				-0.22539612650871277
			],
			"type":"VEC3"
		},
		{
			"bufferView":48,
			"componentType":5126,
			"count":4,
			"type":"VEC3"
		},
		{
			"bufferView":49,
			"componentType":5126,
			"count":4,
			"type":"VEC2"
		},
		{
			"bufferView":50,
			"componentType":5126,
			"count":4,
			"max":[
				0.1971926987171173,
				6,
				-0.22446495294570923
			],
			"min":[
				0.1701834797859192,
				-6,
				-0.22480353713035583
			],
			"type":"VEC3"
		},
		{
			"bufferView":51,
			"componentType":5126,
			"count":4,
			"type":"VEC3"
		},
		{
			"bufferView":52,
			"componentType":5126,
			"count":4,
			"type":"VEC2"
		},
		{
			"bufferView":53,
			"componentType":5126,
			"count":26,
			"max":[
				0.2920213043689728,
				6,
				-0.20389488339424133
			],
			"min":[
				0.2758496403694153,
				-6,
				-0.22660943865776062
			],
			"type":"VEC3"
		},
		{
			"bufferView":54,
			"componentType":5126,
			"count":26,
			"type":"VEC3"
		},
		{
			"bufferView":55,
			"componentType":5126,
			"count":26,
			"type":"VEC2"
		},
		{
			"bufferView":56,
			"componentType":5126,
			"count":18,
			"max":[
				0.4978501796722412,
				6,
				-0.38572418689727783
			],
			"min":[
				0.4944634437561035,
				-6,
				-0.3891102075576782
			],
			"type":"VEC3"
		},
		{
			"bufferView":57,
			"componentType":5126,
			"count":18,
			"type":"VEC3"
		},
		{
			"bufferView":58,
			"componentType":5126,
			"count":18,
			"type":"VEC2"
		},
		{
			"bufferView":59,
			"componentType":5126,
			"count":18,
			"max":[
				0.4679340124130249,
				6,
				-0.3671010732650757
			],
			"min":[
				0.4645472764968872,
				-6,
				-0.3704870939254761
			],
			"type":"VEC3"
		},
		{
			"bufferView":60,
			"componentType":5126,
			"count":18,
			"type":"VEC3"
		},
		{
			"bufferView":61,
			"componentType":5126,
			"count":18,
			"type":"VEC2"
		},
		{
			"bufferView":62,
			"componentType":5126,
			"count":987,
			"max":[
				0.5228423476219177,
				6,
				-0.18750086426734924
			],
			"min":[
				0.06542044878005981,
				-6,
				-0.46798577904701233
			],
			"type":"VEC3"
		},
		{
			"bufferView":63,
			"componentType":5126,
			"count":987,
			"type":"VEC3"
		},
		{
			"bufferView":64,
			"componentType":5126,
			"count":987,
			"type":"VEC2"
		},
		{
			"bufferView":65,
			"componentType":5126,
			"count":24,
			"max":[
				1,
				1,
				1
			],
			"min":[
				-1,
				-1,
				-1
			],
			"type":"VEC3"
		},
		{
			"bufferView":66,
			"componentType":5126,
			"count":24,
			"type":"VEC3"
		},
		{
			"bufferView":67,
			"componentType":5126,
			"count":24,
			"type":"VEC2"
		}
	],
	"bufferViews":[
		{
			"buffer":0,
			"byteLength":1800,
			"byteOffset":0,
			"target":34962
		},
		{
			"buffer":0,
			"byteLength":1800,
			"byteOffset":1800,
			"target":34962
		},
		{
			"buffer":0,
			"byteLength":1200,
			"byteOffset":3600,
			"target":34962
		},
		{
			"buffer":0,
			"byteLength":864,
			"byteOffset":4800,
			"target":34963
		},
		{
			"buffer":0,
			"byteLength":3144,
			"byteOffset":5664,
			"target":34962
		},
		{
			"buffer":0,
			"byteLength":3144,
			"byteOffset":8808,
			"target":34962
		},
		{
			"buffer":0,
			"byteLength":2096,
			"byteOffset":11952,
			"target":34962
		},
		{
			"buffer":0,
			"byteLength":1536,
			"byteOffset":14048,
			"target":34963
		},
		{
			"buffer":0,
			"byteLength":1032,
			"byteOffset":15584,
			"target":34962
		},
		{
			"buffer":0,
			"byteLength":1032,
			"byteOffset":16616,
			"target":34962
		},
		{
			"buffer":0,
			"byteLength":688,
			"byteOffset":17648,
			"target":34962
		},
		{
			"buffer":0,
			"byteLength":408,
			"byteOffset":18336,
			"target":34963
		},
		{
			"buffer":0,
			"byteLength":48,
			"byteOffset":18744,
			"target":34962
		},
		{
			"buffer":0,
			"byteLength":48,
			"byteOffset":18792,
			"target":34962
		},
		{
			"buffer":0,
			"byteLength":32,
			"byteOffset":18840,
			"target":34962
		},
		{
			"buffer":0,
			"byteLength":12,
			"byteOffset":18872,
			"target":34963
		},
		{
			"buffer":0,
			"byteLength":48,
			"byteOffset":18884,
			"target":34962
		},
		{
			"buffer":0,
			"byteLength":48,
			"byteOffset":18932,
			"target":34962
		},
		{
			"buffer":0,
			"byteLength":32,
			"byteOffset":18980,
			"target":34962
		},
		{
			"buffer":0,
			"byteLength":312,
			"byteOffset":19012,
			"target":34962
		},
		{
			"buffer":0,
			"byteLength":312,
			"byteOffset":19324,
			"target":34962
		},
		{
			"buffer":0,
			"byteLength":208,
			"byteOffset":19636,
			"target":34962
		},
		{
			"buffer":0,
			"byteLength":120,
			"byteOffset":19844,
			"target":34963
		},
		{
			"buffer":0,
			"byteLength":216,
			"byteOffset":19964,
			"target":34962
		},
		{
			"buffer":0,
			"byteLength":216,
			"byteOffset":20180,
			"target":34962
		},
		{
			"buffer":0,
			"byteLength":144,
			"byteOffset":20396,
			"target":34962
		},
		{
			"buffer":0,
			"byteLength":72,
			"byteOffset":20540,
			"target":34963
		},
		{
			"buffer":0,
			"byteLength":216,
			"byteOffset":20612,
			"target":34962
		},
		{
			"buffer":0,
			"byteLength":216,
			"byteOffset":20828,
			"target":34962
		},
		{
			"buffer":0,
			"byteLength":144,
			"byteOffset":21044,
			"target":34962
		},
		{
			"buffer":0,
			"byteLength":11844,
			"byteOffset":21188,
			"target":34962
		},
		{
			"buffer":0,
			"byteLength":11844,
			"byteOffset":33032,
			"target":34962
		},
		{
			"buffer":0,
			"byteLength":7896,
			"byteOffset":44876,
			"target":34962
		},
		{
			"buffer":0,
			"byteLength":5592,
			"byteOffset":52772,
			"target":34963
		},
		{
			"buffer":0,
			"byteLength":288,
			"byteOffset":58364,
			"target":34962
		},
		{
			"buffer":0,
			"byteLength":288,
			"byteOffset":58652,
			"target":34962
		},
		{
			"buffer":0,
			"byteLength":192,
			"byteOffset":58940,
			"target":34962
		},
		{
			"buffer":0,
			"byteLength":72,
			"byteOffset":59132,
			"target":34963
		},
		{
			"buffer":0,
			"byteLength":1800,
			"byteOffset":59204,
			"target":34962
		},
		{
			"buffer":0,
			"byteLength":1800,
			"byteOffset":61004,
			"target":34962
		},
		{
			"buffer":0,
			"byteLength":1200,
			"byteOffset":62804,
			"target":34962
		},
		{
			"buffer":0,
			"byteLength":3144,
			"byteOffset":64004,
			"target":34962
		},
		{
			"buffer":0,
			"byteLength":3144,
			"byteOffset":67148,
			"target":34962
		},
		{
			"buffer":0,
			"byteLength":2096,
			"byteOffset":70292,
			"target":34962
		},
		{
			"buffer":0,
			"byteLength":1032,
			"byteOffset":72388,
			"target":34962
		},
		{
			"buffer":0,
			"byteLength":1032,
			"byteOffset":73420,
			"target":34962
		},
		{
			"buffer":0,
			"byteLength":688,
			"byteOffset":74452,
			"target":34962
		},
		{
			"buffer":0,
			"byteLength":48,
			"byteOffset":75140,
			"target":34962
		},
		{
			"buffer":0,
			"byteLength":48,
			"byteOffset":75188,
			"target":34962
		},
		{
			"buffer":0,
			"byteLength":32,
			"byteOffset":75236,
			"target":34962
		},
		{
			"buffer":0,
			"byteLength":48,
			"byteOffset":75268,
			"target":34962
		},
		{
			"buffer":0,
			"byteLength":48,
			"byteOffset":75316,
			"target":34962
		},
		{
			"buffer":0,
			"byteLength":32,
			"byteOffset":75364,
			"target":34962
		},
		{
			"buffer":0,
			"byteLength":312,
			"byteOffset":75396,
			"target":34962
		},
		{
			"buffer":0,
			"byteLength":312,
			"byteOffset":75708,
			"target":34962
		},
		{
			"buffer":0,
			"byteLength":208,
			"byteOffset":76020,
			"target":34962
		},
		{
			"buffer":0,
			"byteLength":216,
			"byteOffset":76228,
			"target":34962
		},
		{
			"buffer":0,
			"byteLength":216,
			"byteOffset":76444,
			"target":34962
		},
		{
			"buffer":0,
			"byteLength":144,
			"byteOffset":76660,
			"target":34962
		},
		{
			"buffer":0,
			"byteLength":216,
			"byteOffset":76804,
			"target":34962
		},
		{
			"buffer":0,
			"byteLength":216,
			"byteOffset":77020,
			"target":34962
		},
		{
			"buffer":0,
			"byteLength":144,
			"byteOffset":77236,
			"target":34962
		},
		{
			"buffer":0,
			"byteLength":11844,
			"byteOffset":77380,
			"target":34962
		},
		{
			"buffer":0,
			"byteLength":11844,
			"byteOffset":89224,
			"target":34962
		},
		{
			"buffer":0,
			"byteLength":7896,
			"byteOffset":101068,
			"target":34962
		},
		{
			"buffer":0,
			"byteLength":288,
			"byteOffset":108964,
			"target":34962
		},
		{
			"buffer":0,
			"byteLength":288,
			"byteOffset":109252,
			"target":34962
		},
		{
			"buffer":0,
			"byteLength":192,
			"byteOffset":109540,
			"target":34962
		}
	],
	"buffers":[
		{
			"byteLength":109732,
			"uri":"data:application/octet-stream;base64,"
		}
	]
}
