<svg width="1200" height="342" viewBox="0 0 1200 342" fill="none" xmlns="http://www.w3.org/2000/svg">
<rect width="1200" height="342" fill="white"/>
<circle cx="1074.5" cy="157.5" r="82.5" fill="#EDF1F5"/>
<rect x="43" y="75" width="575" height="165" rx="82.5" fill="#D4E1FF"/>
<rect x="653" y="75" width="305" height="165" rx="82.5" fill="#EDF1F5"/>
<path d="M1136.5 157.5C1136.5 191.178 1108.98 218.5 1075 218.5C1041.02 218.5 1013.5 191.178 1013.5 157.5C1013.5 123.822 1041.02 96.5 1075 96.5C1108.98 96.5 1136.5 123.822 1136.5 157.5Z" fill="white" stroke="#173E99" stroke-width="3"/>
<path d="M1059.65 166.437V170.72H1061.58V172.463H1059.65V176.63H1057.52V166.437H1059.65ZM1054.55 176.763C1057.82 176.746 1059.7 177.609 1059.7 179.153C1059.7 180.714 1057.82 181.544 1054.55 181.544C1051.27 181.544 1049.39 180.714 1049.39 179.153C1049.39 177.609 1051.27 176.746 1054.55 176.763ZM1054.55 178.29C1052.46 178.29 1051.5 178.572 1051.51 179.153C1051.5 179.718 1052.46 180 1054.55 180C1056.61 180 1057.56 179.718 1057.57 179.153C1057.56 178.572 1056.61 178.29 1054.55 178.29ZM1047.4 174.621C1048.5 174.621 1049.75 174.613 1051.07 174.571V173.691C1049.41 173.467 1048.39 172.704 1048.41 171.583C1048.39 170.238 1049.85 169.425 1052.11 169.425C1054.35 169.425 1055.8 170.238 1055.81 171.583C1055.8 172.704 1054.8 173.467 1053.17 173.691V174.505C1054.41 174.438 1055.66 174.339 1056.83 174.189L1056.98 175.617C1053.77 176.182 1050.29 176.215 1047.61 176.215L1047.4 174.621ZM1056.45 167.499V169.06H1047.8V167.499H1051.07V166.304H1053.17V167.499H1056.45ZM1052.11 170.803C1051.03 170.803 1050.42 171.085 1050.44 171.583C1050.42 172.114 1051.03 172.38 1052.11 172.38C1053.17 172.38 1053.77 172.114 1053.79 171.583C1053.77 171.085 1053.17 170.803 1052.11 170.803ZM1074.44 167.101V168.312C1074.44 169.491 1074.44 170.803 1074.09 172.529H1076.08V174.239H1062.26V172.529H1071.95C1072.28 171.019 1072.32 169.848 1072.33 168.794H1063.95V167.101H1074.44ZM1074.39 175.833V181.361H1063.9V175.833H1074.39ZM1065.97 177.493V179.668H1072.28V177.493H1065.97ZM1082.83 169.84C1082.83 172.612 1084.09 175.401 1086.64 176.48L1085.4 178.174C1083.67 177.394 1082.48 175.891 1081.8 174.023C1081.11 176.057 1079.87 177.701 1078.03 178.539L1076.75 176.779C1079.39 175.667 1080.67 172.778 1080.68 169.84V167.582H1082.83V169.84ZM1089.6 166.42V181.561H1087.46V166.42H1089.6ZM1103.63 166.42V170.653H1105.67V172.396H1103.63V177.244H1101.49V166.42H1103.63ZM1099.51 167.549C1099.51 171.633 1096.95 174.488 1092.42 175.767L1091.54 174.09C1094.92 173.144 1096.84 171.392 1097.19 169.275H1092.21V167.549H1099.51ZM1104.14 179.568V181.262H1093.8V176.132H1095.94V179.568H1104.14ZM1059.6 186.018V191.33H1055.5V192.774H1061.34V194.484H1047.56V192.774H1053.37V191.33H1049.27V186.018H1059.6ZM1051.35 187.661V189.67H1057.52V187.661H1051.35ZM1059.67 195.597V200.527H1057.56V197.257H1049.09V195.597H1059.67ZM1076.08 197.157V198.851H1062.26V197.157H1065.69V194.285H1063.4V192.575H1065.43V188.325H1063.33V186.632H1074.92V188.325H1072.8V192.575H1074.86V194.285H1072.58V197.157H1076.08ZM1067.55 192.575H1070.71V188.325H1067.55V192.575ZM1067.82 197.157H1070.46V194.285H1067.82V197.157ZM1084.27 186.2V187.877H1079.59V190.932C1082.22 190.923 1083.8 190.807 1085.58 190.434L1085.8 192.077C1083.84 192.525 1082 192.592 1078.74 192.575H1077.48V186.2H1084.27ZM1088.93 185.42V188.275H1090.98V190.002H1088.93V192.94H1086.81V185.42H1088.93ZM1088.93 193.555V197.722H1081.02V198.668H1089.37V200.361H1078.94V196.128H1086.83V195.231H1078.91V193.555H1088.93ZM1097.35 187.479C1097.33 189.504 1098.38 191.363 1100.8 192.11L1099.69 193.771C1098.07 193.206 1096.96 192.16 1096.34 190.799C1095.66 192.376 1094.44 193.621 1092.62 194.235L1091.51 192.542C1094.1 191.712 1095.19 189.687 1095.21 187.578V186.2H1097.35V187.479ZM1104.37 185.42V194.269H1102.27V189.919H1099.43V188.192H1102.27V185.42H1104.37ZM1099.21 194.667C1102.43 194.667 1104.41 195.746 1104.42 197.605C1104.41 199.465 1102.43 200.527 1099.21 200.527C1095.99 200.527 1094.01 199.465 1094.01 197.605C1094.01 195.746 1095.99 194.667 1099.21 194.667ZM1099.21 196.311C1097.2 196.311 1096.12 196.742 1096.12 197.605C1096.12 198.436 1097.2 198.884 1099.21 198.884C1101.22 198.884 1102.32 198.436 1102.32 197.605C1102.32 196.742 1101.22 196.311 1099.21 196.311Z" fill="#173E99"/>
<line x1="130" y1="156.5" x2="543" y2="156.5" stroke="#173E99" stroke-width="3"/>
<line x1="725" y1="156.5" x2="876" y2="156.5" stroke="#173E99" stroke-width="3"/>
<circle cx="537" cy="158" r="61.5" fill="white" stroke="#173E99" stroke-width="3"/>
<circle cx="130" cy="158" r="61.5" fill="white" stroke="#173E99" stroke-width="3"/>
<path d="M326.5 158C326.5 191.977 299.178 219.5 265.5 219.5C231.822 219.5 204.5 191.977 204.5 158C204.5 124.023 231.822 96.5 265.5 96.5C299.178 96.5 326.5 124.023 326.5 158Z" fill="white" stroke="#173E99" stroke-width="3"/>
<circle cx="401" cy="158" r="61.5" fill="white" stroke="#173E99" stroke-width="3"/>
<path d="M937.5 157.5C937.5 191.178 909.977 218.5 876 218.5C842.023 218.5 814.5 191.178 814.5 157.5C814.5 123.822 842.023 96.5 876 96.5C909.977 96.5 937.5 123.822 937.5 157.5Z" fill="white" stroke="#173E99" stroke-width="3"/>
<circle cx="737.5" cy="157.5" r="61" fill="white" stroke="#173E99" stroke-width="3"/>
<mask id="mask0_133_67" style="mask-type:alpha" maskUnits="userSpaceOnUse" x="623" y="142" width="24" height="24">
<rect x="623" y="142" width="24" height="24" fill="#D9D9D9"/>
</mask>
<g mask="url(#mask0_133_67)">
<path d="M631.025 164L629.25 162.225L637.475 154L629.25 145.775L631.025 144L641.025 154L631.025 164Z" fill="#173E99"/>
</g>
<mask id="mask1_133_67" style="mask-type:alpha" maskUnits="userSpaceOnUse" x="959" y="142" width="24" height="24">
<rect x="959" y="142" width="24" height="24" fill="#D9D9D9"/>
</mask>
<g mask="url(#mask1_133_67)">
<path d="M967.025 164L965.25 162.225L973.475 154L965.25 145.775L967.025 144L977.025 154L967.025 164Z" fill="#173E99"/>
</g>
<mask id="mask2_133_67" style="mask-type:alpha" maskUnits="userSpaceOnUse" x="967" y="142" width="24" height="24">
<rect x="967" y="142" width="24" height="24" fill="#D9D9D9"/>
</mask>
<g mask="url(#mask2_133_67)">
<path d="M975.025 164L973.25 162.225L981.475 154L973.25 145.775L975.025 144L985.025 154L975.025 164Z" fill="#173E99"/>
</g>
<path d="M335 239.5V275.5H812V239.5" stroke="#173E99" stroke-width="3"/>
<path d="M567.5 320.5H566V322H567.5V320.5ZM1073.5 320.5V322H1075V320.5H1073.5ZM1073.5 239.5L1064.84 254.5H1082.16L1073.5 239.5ZM566 275.5V320.5H569V275.5H566ZM567.5 322H1073.5V319H567.5V322ZM1075 320.5V253H1072V320.5H1075Z" fill="#173E99"/>
<path d="M586.5 276C586.5 286.183 578.029 294.5 567.5 294.5C556.971 294.5 548.5 286.183 548.5 276C548.5 265.817 556.971 257.5 567.5 257.5C578.029 257.5 586.5 265.817 586.5 276Z" fill="white" stroke="#173E99" stroke-width="3"/>
<mask id="mask3_133_67" style="mask-type:alpha" maskUnits="userSpaceOnUse" x="549" y="258" width="36" height="36">
<rect x="549" y="258" width="36" height="36" fill="#D9D9D9"/>
</mask>
<g mask="url(#mask3_133_67)">
<path d="M566.5 277.5H557.5V274.5H566.5V265.5H569.5V274.5H578.5V277.5H569.5V286.5H566.5V277.5Z" fill="#173E99"/>
</g>
<path d="M272.761 46.8398C272.761 49.6123 274.022 52.4014 276.579 53.4805L275.334 55.1738C273.607 54.3936 272.412 52.8911 271.731 51.0234C271.042 53.0571 269.806 54.7007 267.963 55.5391L266.685 53.7793C269.324 52.667 270.603 49.7783 270.619 46.8398V44.582H272.761V46.8398ZM279.534 43.4199V58.5605H277.393V43.4199H279.534ZM289.728 44.6318V51.9199H282.34V44.6318H289.728ZM284.432 46.3086V50.2432H287.619V46.3086H284.432ZM294.227 43.4365V54.1777H292.102V43.4365H294.227ZM294.625 56.4854V58.1953H284.1V53.1816H286.241V56.4854H294.625ZM308.255 43.4199V47.7529H310.297V49.5127H308.255V54.4268H306.13V43.4199H308.255ZM308.803 56.5684V58.2617H298.46V53.2646H300.568V56.5684H308.803ZM300.519 44.3994C302.826 44.3994 304.636 45.9932 304.636 48.2344C304.636 50.4424 302.826 52.0693 300.519 52.0693C298.194 52.0693 296.368 50.4424 296.368 48.2344C296.368 45.9932 298.194 44.3994 300.519 44.3994ZM300.519 46.2422C299.373 46.2256 298.443 46.9727 298.46 48.2344C298.443 49.4629 299.373 50.2266 300.519 50.2266C301.681 50.2266 302.561 49.4629 302.577 48.2344C302.561 46.9727 301.681 46.2256 300.519 46.2422ZM323.694 43.4365V54.46H321.586V49.0479H319.112V47.3379H321.586V43.4365H323.694ZM324.06 56.5684V58.2617H313.667V53.4971H315.792V56.5684H324.06ZM316.672 46.3916C316.672 48.1348 317.734 50.0107 320.142 50.791L319.096 52.4678C317.419 51.9282 316.273 50.8242 315.609 49.4463C314.945 50.9736 313.742 52.1855 311.957 52.7832L310.878 51.0566C313.368 50.2764 314.497 48.3008 314.514 46.375V46.1426H311.476V44.4492H319.677V46.1426H316.672V46.3916ZM334.27 44.8145V46.5078H332.925V53.0986C333.539 53.0488 334.137 52.9907 334.718 52.916L334.834 54.4434C331.746 54.9912 328.276 55.041 325.687 55.0576L325.454 53.3311L327.181 53.3145V46.5078H325.836V44.8145H334.27ZM337.573 43.4199V49.1641H339.798V50.8906H337.573V58.5273H335.448V43.4199H337.573ZM329.223 53.2812L330.883 53.2148V46.5078H329.223V53.2812ZM348.364 44.5986C348.364 46.375 350.174 48.3506 353.644 48.7822L352.813 50.4922C350.174 50.1104 348.24 48.8901 347.252 47.2549C346.256 48.8901 344.338 50.1104 341.724 50.4922L340.877 48.7822C344.313 48.3506 346.14 46.375 346.14 44.5986V43.8682H348.364V44.5986ZM354.125 51.6377V53.3643H348.248V58.5273H346.156V53.3643H340.346V51.6377H354.125ZM368.817 49.8281V51.5049H363.256V54.792H361.147V51.5049H355.038V49.8281H358.524C359.056 48.1431 359.18 46.8979 359.222 45.9102H356.267V44.2002H361.28V45.0635C361.28 46.1509 361.28 47.7114 360.683 49.8281H364.601C365.057 48.1597 365.157 46.9062 365.182 45.9102H362.21V44.2002H367.224V45.1465C367.224 46.2671 367.224 47.811 366.726 49.8281H368.817ZM367.323 56.5684V58.2617H356.798V53.3477H358.956V56.5684H367.323ZM382.646 44.5986C382.646 46.375 384.456 48.3506 387.926 48.7822L387.096 50.4922C384.456 50.1104 382.522 48.8901 381.534 47.2549C380.538 48.8901 378.621 50.1104 376.006 50.4922L375.159 48.7822C378.596 48.3506 380.422 46.375 380.422 44.5986V43.8682H382.646V44.5986ZM388.407 51.6377V53.3643H382.53V58.5273H380.438V53.3643H374.628V51.6377H388.407ZM402.303 43.4199V52.8994H400.294V48.8818H399.082V52.4014H397.106V43.7021H399.082V47.1553H400.294V43.4199H402.303ZM396.658 44.9805V46.624H389.237V44.9805H391.91V43.5527H394.019V44.9805H396.658ZM392.973 47.1221C394.898 47.1221 396.26 48.1846 396.276 49.7617C396.26 51.3223 394.898 52.3848 392.973 52.3848C391.08 52.3848 389.702 51.3223 389.702 49.7617C389.702 48.1846 391.08 47.1221 392.973 47.1221ZM392.973 48.6494C392.143 48.6494 391.595 49.0645 391.595 49.7617C391.595 50.459 392.143 50.8906 392.973 50.874C393.803 50.8906 394.351 50.459 394.367 49.7617C394.351 49.0645 393.803 48.6494 392.973 48.6494ZM397.14 53.0322C400.41 53.0322 402.369 54.0283 402.386 55.7881C402.369 57.5312 400.41 58.5273 397.14 58.5273C393.886 58.5273 391.91 57.5312 391.91 55.7881C391.91 54.0283 393.886 53.0322 397.14 53.0322ZM397.14 54.626C395.098 54.626 394.019 54.9912 394.035 55.7881C394.019 56.5518 395.098 56.9336 397.14 56.9336C399.198 56.9336 400.244 56.5518 400.244 55.7881C400.244 54.9912 399.198 54.626 397.14 54.626Z" fill="#5286FF"/>
<path d="M784.751 55.0244V56.7178H770.922V55.0244H776.7V51.6045H778.808V55.0244H784.751ZM778.875 45.3623C778.875 47.5205 780.817 49.7949 784.27 50.3262L783.374 52.0859C780.717 51.6045 778.742 50.1851 777.746 48.3008C776.75 50.1768 774.791 51.6128 772.151 52.0859L771.254 50.3262C774.674 49.7949 776.6 47.5039 776.617 45.3623V44.2832H778.875V45.3623ZM792.654 52.667C795.792 52.667 797.75 53.7461 797.75 55.5889C797.75 57.4648 795.792 58.5439 792.654 58.5439C789.45 58.5439 787.474 57.4648 787.474 55.5889C787.474 53.7461 789.45 52.667 792.654 52.667ZM792.654 54.3105C790.662 54.3105 789.583 54.7256 789.599 55.5889C789.583 56.4521 790.662 56.9004 792.654 56.9004C794.613 56.9004 795.659 56.4521 795.659 55.5889C795.659 54.7256 794.613 54.3105 792.654 54.3105ZM797.601 43.4199V46.9229H799.643V48.6992H797.601V52.335H795.476V43.4199H797.601ZM788.171 44.3662V46.2754H791.259V44.3662H793.384V51.4717H786.063V44.3662H788.171ZM788.171 49.7949H791.259V47.9189H788.171V49.7949ZM813.373 43.4199V58.5273H811.364V50.9404H809.903V57.7969H807.96V43.6689H809.903V49.2471H811.364V43.4199H813.373ZM806.367 45.1631V46.873H802.864V53.3145C804.325 53.3062 805.62 53.2314 807.081 52.9658L807.23 54.6924C805.387 55.041 803.777 55.0908 801.785 55.1074H800.739V45.1631H806.367ZM827.799 43.4365V54.8418H825.674V53.6465H822.786V52.2021H825.674V43.4365H827.799ZM828.131 56.5684V58.2617H816.875V53.7461H818.984V51.7373C817.631 51.7954 816.344 51.8037 815.199 51.8037L814.95 50.127C817.722 50.1104 821.458 50.0771 824.645 49.6787L824.761 51.1895C823.566 51.3887 822.329 51.5298 821.109 51.6211V54.4932H818.984V56.5684H828.131ZM819.864 43.9512C822.055 43.9346 823.632 45.0469 823.632 46.6572C823.632 48.2676 822.055 49.3135 819.864 49.3135C817.623 49.3135 816.062 48.2676 816.062 46.6572C816.062 45.0469 817.606 43.9346 819.864 43.9512ZM819.864 45.4951C818.785 45.4951 818.054 45.9102 818.071 46.6572C818.054 47.3877 818.785 47.7861 819.864 47.7861C820.876 47.7861 821.607 47.3877 821.624 46.6572C821.607 45.9102 820.876 45.4951 819.864 45.4951ZM842.608 44.5986C842.608 46.375 844.417 48.3506 847.887 48.7822L847.057 50.4922C844.417 50.1104 842.483 48.8901 841.496 47.2549C840.5 48.8901 838.582 50.1104 835.967 50.4922L835.121 48.7822C838.557 48.3506 840.383 46.375 840.383 44.5986V43.8682H842.608V44.5986ZM848.369 51.6377V53.3643H842.492V58.5273H840.4V53.3643H834.589V51.6377H848.369ZM862.264 43.4199V52.8994H860.255V48.8818H859.043V52.4014H857.068V43.7021H859.043V47.1553H860.255V43.4199H862.264ZM856.62 44.9805V46.624H849.199V44.9805H851.872V43.5527H853.98V44.9805H856.62ZM852.934 47.1221C854.86 47.1221 856.221 48.1846 856.238 49.7617C856.221 51.3223 854.86 52.3848 852.934 52.3848C851.042 52.3848 849.664 51.3223 849.664 49.7617C849.664 48.1846 851.042 47.1221 852.934 47.1221ZM852.934 48.6494C852.104 48.6494 851.556 49.0645 851.556 49.7617C851.556 50.459 852.104 50.8906 852.934 50.874C853.764 50.8906 854.312 50.459 854.329 49.7617C854.312 49.0645 853.764 48.6494 852.934 48.6494ZM857.101 53.0322C860.372 53.0322 862.331 54.0283 862.347 55.7881C862.331 57.5312 860.372 58.5273 857.101 58.5273C853.847 58.5273 851.872 57.5312 851.872 55.7881C851.872 54.0283 853.847 53.0322 857.101 53.0322ZM857.101 54.626C855.059 54.626 853.98 54.9912 853.997 55.7881C853.98 56.5518 855.059 56.9336 857.101 56.9336C859.16 56.9336 860.206 56.5518 860.206 55.7881C860.206 54.9912 859.16 54.626 857.101 54.626Z" fill="#5286FF"/>
<mask id="mask4_133_67" style="mask-type:alpha" maskUnits="userSpaceOnUse" x="738" y="35" width="32" height="32">
<rect x="738" y="35" width="32" height="32" fill="#D9D9D9"/>
</mask>
<g mask="url(#mask4_133_67)">
<path d="M754 51C752.533 51 751.278 50.4778 750.233 49.4333C749.189 48.3889 748.667 47.1333 748.667 45.6667C748.667 44.2 749.189 42.9444 750.233 41.9C751.278 40.8556 752.533 40.3333 754 40.3333C755.467 40.3333 756.722 40.8556 757.767 41.9C758.811 42.9444 759.333 44.2 759.333 45.6667C759.333 47.1333 758.811 48.3889 757.767 49.4333C756.722 50.4778 755.467 51 754 51ZM743.333 61.6667V57.9333C743.333 57.1778 743.528 56.4833 743.917 55.85C744.306 55.2167 744.822 54.7333 745.467 54.4C746.844 53.7111 748.244 53.1944 749.667 52.85C751.089 52.5056 752.533 52.3333 754 52.3333C755.467 52.3333 756.911 52.5056 758.333 52.85C759.756 53.1944 761.156 53.7111 762.533 54.4C763.178 54.7333 763.694 55.2167 764.083 55.85C764.472 56.4833 764.667 57.1778 764.667 57.9333V61.6667H743.333Z" fill="#5286FF"/>
</g>
<mask id="mask5_133_67" style="mask-type:alpha" maskUnits="userSpaceOnUse" x="232" y="35" width="32" height="32">
<rect x="232" y="35" width="32" height="32" fill="#D9D9D9"/>
</mask>
<g mask="url(#mask5_133_67)">
<path d="M248 51C246.533 51 245.278 50.4778 244.233 49.4333C243.189 48.3889 242.667 47.1333 242.667 45.6667C242.667 44.2 243.189 42.9444 244.233 41.9C245.278 40.8556 246.533 40.3333 248 40.3333C249.467 40.3333 250.722 40.8556 251.767 41.9C252.811 42.9444 253.333 44.2 253.333 45.6667C253.333 47.1333 252.811 48.3889 251.767 49.4333C250.722 50.4778 249.467 51 248 51ZM237.333 61.6667V57.9333C237.333 57.1778 237.528 56.4833 237.917 55.85C238.306 55.2167 238.822 54.7333 239.467 54.4C240.844 53.7111 242.244 53.1944 243.667 52.85C245.089 52.5056 246.533 52.3333 248 52.3333C249.467 52.3333 250.911 52.5056 252.333 52.85C253.756 53.1944 255.156 53.7111 256.533 54.4C257.178 54.7333 257.694 55.2167 258.083 55.85C258.472 56.4833 258.667 57.1778 258.667 57.9333V61.6667H237.333Z" fill="#5286FF"/>
</g>
<path d="M748 45H760" stroke="#5286FF" stroke-width="3" stroke-linecap="round"/>
<mask id="mask6_133_67" style="mask-type:alpha" maskUnits="userSpaceOnUse" x="1057" y="119" width="39" height="39">
<rect x="1057" y="119" width="39" height="39" fill="#D9D9D9"/>
</mask>
<g mask="url(#mask6_133_67)">
<path d="M1076.5 154.75C1074.47 154.75 1072.57 154.364 1070.79 153.592C1069.02 152.82 1067.47 151.778 1066.16 150.464C1064.85 149.151 1063.8 147.607 1063.03 145.833C1062.26 144.059 1061.88 142.156 1061.88 140.125C1061.88 138.094 1062.26 136.191 1063.03 134.417C1063.8 132.643 1064.85 131.099 1066.16 129.786C1067.47 128.472 1069.02 127.43 1070.79 126.658C1072.57 125.886 1074.47 125.5 1076.5 125.5C1078.53 125.5 1080.43 125.886 1082.21 126.658C1083.98 127.43 1085.53 128.472 1086.84 129.786C1088.15 131.099 1089.2 132.643 1089.97 134.417C1090.74 136.191 1091.13 138.094 1091.13 140.125C1091.13 142.156 1090.74 144.059 1089.97 145.833C1089.2 147.607 1088.15 149.151 1086.84 150.464C1085.53 151.778 1083.98 152.82 1082.21 153.592C1080.43 154.364 1078.53 154.75 1076.5 154.75ZM1081.05 146.95L1083.33 144.675L1078.13 139.475V132H1074.88V140.775L1081.05 146.95ZM1066.1 122.819L1068.38 125.094L1061.47 132L1059.19 129.725L1066.1 122.819ZM1086.9 122.819L1093.81 129.725L1091.53 132L1084.63 125.094L1086.9 122.819Z" fill="#173E99"/>
</g>
<mask id="mask7_133_67" style="mask-type:alpha" maskUnits="userSpaceOnUse" x="856" y="119" width="39" height="39">
<rect x="856" y="119" width="39" height="39" fill="#D9D9D9"/>
</mask>
<g mask="url(#mask7_133_67)">
<path d="M860.875 141.75C860.875 138.906 861.552 136.374 862.906 134.153C864.26 131.932 865.75 130.064 867.375 128.547C869 127.03 870.49 125.872 871.844 125.073L873.875 123.875V129.237C873.875 130.24 874.214 131.032 874.891 131.614C875.568 132.196 876.326 132.488 877.166 132.488C877.626 132.488 878.066 132.393 878.486 132.203C878.906 132.014 879.292 131.702 879.644 131.269L880.375 130.375C882.325 131.512 883.896 133.09 885.088 135.108C886.279 137.126 886.875 139.34 886.875 141.75C886.875 144.133 886.293 146.307 885.128 148.27C883.964 150.234 882.433 151.784 880.538 152.922C880.998 152.272 881.357 151.561 881.614 150.789C881.871 150.017 882 149.198 882 148.331C882 147.248 881.797 146.226 881.391 145.264C880.984 144.303 880.402 143.443 879.644 142.684L873.875 137.038L868.147 142.684C867.361 143.47 866.766 144.336 866.359 145.284C865.953 146.232 865.75 147.248 865.75 148.331C865.75 149.198 865.879 150.017 866.136 150.789C866.393 151.561 866.752 152.272 867.213 152.922C865.317 151.784 863.786 150.234 862.622 148.27C861.457 146.307 860.875 144.133 860.875 141.75ZM873.875 141.588L877.328 144.959C877.789 145.42 878.141 145.934 878.384 146.503C878.628 147.072 878.75 147.681 878.75 148.331C878.75 149.658 878.276 150.789 877.328 151.723C876.38 152.658 875.229 153.125 873.875 153.125C872.521 153.125 871.37 152.658 870.422 151.723C869.474 150.789 869 149.658 869 148.331C869 147.708 869.122 147.106 869.366 146.523C869.609 145.941 869.961 145.42 870.422 144.959L873.875 141.588ZM890.125 136.875C889.665 136.875 889.279 136.719 888.967 136.408C888.656 136.096 888.5 135.71 888.5 135.25C888.5 134.79 888.656 134.404 888.967 134.092C889.279 133.781 889.665 133.625 890.125 133.625C890.585 133.625 890.971 133.781 891.283 134.092C891.594 134.404 891.75 134.79 891.75 135.25C891.75 135.71 891.594 136.096 891.283 136.408C890.971 136.719 890.585 136.875 890.125 136.875ZM888.5 132V123.875H891.75V132H888.5Z" fill="#173E99"/>
</g>
<path d="M852.391 167.98V178.008H854.599V180H847.46V178.008H849.884V170.487L847.46 172.131V169.79L850.066 167.98H852.391ZM862.186 167.98V178.008H864.394V180H857.255V178.008H859.679V170.487L857.255 172.131V169.79L859.861 167.98H862.186ZM870.619 167.814C873.093 167.814 874.919 169.541 874.919 171.898C874.919 173.227 874.404 174.455 873.392 175.982L870.752 180H868.179L871.267 175.302L871.2 175.252C870.951 175.526 870.445 175.833 869.673 175.833C867.697 175.833 866.303 174.206 866.303 171.998C866.303 169.591 868.129 167.814 870.619 167.814ZM870.619 169.724C869.457 169.724 868.644 170.62 868.644 171.932C868.644 173.243 869.457 174.156 870.619 174.156C871.765 174.156 872.578 173.227 872.578 171.932C872.578 170.62 871.765 169.724 870.619 169.724ZM889.014 166.42V181.527H887.005V173.94H885.544V180.797H883.602V166.669H885.544V172.247H887.005V166.42H889.014ZM882.008 168.163V169.873H878.505V176.314C879.966 176.306 881.261 176.231 882.722 175.966L882.871 177.692C881.028 178.041 879.418 178.091 877.426 178.107H876.38V168.163H882.008ZM903.44 166.437V177.842H901.315V176.646H898.427V175.202H901.315V166.437H903.44ZM903.772 179.568V181.262H892.517V176.746H894.625V174.737C893.272 174.795 891.985 174.804 890.84 174.804L890.591 173.127C893.363 173.11 897.099 173.077 900.286 172.679L900.402 174.189C899.207 174.389 897.97 174.53 896.75 174.621V177.493H894.625V179.568H903.772ZM895.505 166.951C897.696 166.935 899.273 168.047 899.273 169.657C899.273 171.268 897.696 172.313 895.505 172.313C893.264 172.313 891.703 171.268 891.703 169.657C891.703 168.047 893.247 166.935 895.505 166.951ZM895.505 168.495C894.426 168.495 893.695 168.91 893.712 169.657C893.695 170.388 894.426 170.786 895.505 170.786C896.518 170.786 897.248 170.388 897.265 169.657C897.248 168.91 896.518 168.495 895.505 168.495ZM859.297 185.437V196.941H857.188V194.086H855.146V192.409H857.188V190.898H855.146V189.188H857.188V185.437H859.297ZM854.997 187.014V188.69H846.597V187.014H849.851V185.403H851.959V187.014H854.997ZM850.88 189.222C852.955 189.222 854.449 190.45 854.466 192.193C854.449 193.937 852.955 195.148 850.88 195.148C848.821 195.148 847.327 193.937 847.344 192.193C847.327 190.45 848.821 189.222 850.88 189.222ZM850.88 190.865C849.95 190.882 849.303 191.347 849.319 192.193C849.303 193.057 849.95 193.538 850.88 193.538C851.793 193.538 852.457 193.057 852.474 192.193C852.457 191.347 851.793 190.882 850.88 190.865ZM859.612 198.568V200.262H849.236V195.962H851.378V198.568H859.612ZM869.839 186.433V188.126H866.834C866.851 189.886 867.905 191.587 870.32 192.293L869.308 193.953C867.639 193.447 866.485 192.434 865.821 191.131C865.149 192.658 863.92 193.87 862.103 194.468L861.023 192.791C863.53 192.002 864.659 190.043 864.692 188.126H861.604V186.433H869.839ZM873.242 185.42V188.923H875.284V190.649H873.242V194.385H871.117V185.42H873.242ZM868.295 194.684C871.433 194.667 873.392 195.746 873.392 197.589C873.392 199.432 871.433 200.527 868.295 200.527C865.091 200.527 863.115 199.432 863.115 197.589C863.115 195.746 865.091 194.667 868.295 194.684ZM868.295 196.327C866.303 196.327 865.224 196.742 865.24 197.589C865.224 198.452 866.303 198.884 868.295 198.884C870.254 198.884 871.3 198.452 871.3 197.589C871.3 196.742 870.254 196.327 868.295 196.327ZM888.034 185.42V188.989H889.96V190.749H888.034V194.318H885.909V185.42H888.034ZM888.034 194.85V198.236H879.933V199.017H888.532V200.428H877.808V196.958H885.909V196.261H877.791V194.85H888.034ZM875.782 192.691C876.886 192.7 878.14 192.7 879.451 192.658V191.994C877.799 191.803 876.778 191.114 876.795 190.035C876.778 188.807 878.239 188.093 880.497 188.093C882.738 188.093 884.183 188.807 884.199 190.035C884.183 191.114 883.187 191.795 881.56 191.994V192.592C882.796 192.534 884.042 192.434 885.212 192.276L885.361 193.588C882.141 194.136 878.638 194.152 875.998 194.152L875.782 192.691ZM884.83 186.366V187.777H876.181V186.366H879.451V185.287H881.56V186.366H884.83ZM880.497 189.404C879.418 189.404 878.804 189.604 878.82 190.035C878.804 190.483 879.418 190.716 880.497 190.732C881.56 190.716 882.157 190.483 882.174 190.035C882.157 189.604 881.56 189.404 880.497 189.404ZM904.453 192.559V194.219H890.641V192.559H896.518V191.264H892.317V186.084H902.793V187.728H894.426V189.604H902.876V191.264H898.593V192.559H904.453ZM897.514 194.982C900.784 194.982 902.76 195.979 902.776 197.771C902.76 199.531 900.784 200.544 897.514 200.544C894.21 200.544 892.218 199.531 892.218 197.771C892.218 195.979 894.21 194.982 897.514 194.982ZM897.514 196.593C895.422 196.593 894.359 196.991 894.376 197.771C894.359 198.568 895.422 198.934 897.514 198.934C899.556 198.934 900.635 198.568 900.651 197.771C900.635 196.991 899.556 196.593 897.514 196.593Z" fill="#173E99"/>
<path d="M715.391 167.98V178.008H717.599V180H710.46V178.008H712.884V170.487L710.46 172.131V169.79L713.066 167.98H715.391ZM725.186 167.98V178.008H727.394V180H720.255V178.008H722.679V170.487L720.255 172.131V169.79L722.861 167.98H725.186ZM733.619 167.814C736.093 167.814 737.919 169.541 737.919 171.898C737.919 173.227 737.404 174.455 736.392 175.982L733.752 180H731.179L734.267 175.302L734.2 175.252C733.951 175.526 733.445 175.833 732.673 175.833C730.697 175.833 729.303 174.206 729.303 171.998C729.303 169.591 731.129 167.814 733.619 167.814ZM733.619 169.724C732.457 169.724 731.644 170.62 731.644 171.932C731.644 173.243 732.457 174.156 733.619 174.156C734.765 174.156 735.578 173.227 735.578 171.932C735.578 170.62 734.765 169.724 733.619 169.724ZM752.014 166.42V181.527H750.005V173.94H748.544V180.797H746.602V166.669H748.544V172.247H750.005V166.42H752.014ZM745.008 168.163V169.873H741.505V176.314C742.966 176.306 744.261 176.231 745.722 175.966L745.871 177.692C744.028 178.041 742.418 178.091 740.426 178.107H739.38V168.163H745.008ZM766.44 166.437V177.842H764.315V176.646H761.427V175.202H764.315V166.437H766.44ZM766.772 179.568V181.262H755.517V176.746H757.625V174.737C756.272 174.795 754.985 174.804 753.84 174.804L753.591 173.127C756.363 173.11 760.099 173.077 763.286 172.679L763.402 174.189C762.207 174.389 760.97 174.53 759.75 174.621V177.493H757.625V179.568H766.772ZM758.505 166.951C760.696 166.935 762.273 168.047 762.273 169.657C762.273 171.268 760.696 172.313 758.505 172.313C756.264 172.313 754.703 171.268 754.703 169.657C754.703 168.047 756.247 166.935 758.505 166.951ZM758.505 168.495C757.426 168.495 756.695 168.91 756.712 169.657C756.695 170.388 757.426 170.786 758.505 170.786C759.518 170.786 760.248 170.388 760.265 169.657C760.248 168.91 759.518 168.495 758.505 168.495ZM738.002 191.861V193.405H732.191V194.352H736.358V198.037H727.941V198.867H736.757V200.428H725.866V196.609H734.267V195.862H725.85V194.352H730.083V193.405H724.289V191.861H738.002ZM732.175 185.403V186.599H736.707V188.159H732.44C732.855 189.039 734.399 189.761 737.454 189.886L736.84 191.446C734.034 191.313 732.092 190.6 731.129 189.454C730.174 190.6 728.224 191.313 725.401 191.446L724.82 189.886C727.85 189.761 729.386 189.039 729.817 188.159H725.584V186.599H730.083V185.403H732.175ZM752.761 192.559V194.219H738.948V192.559H744.825V191.264H740.625V186.084H751.101V187.728H742.733V189.604H751.184V191.264H746.9V192.559H752.761ZM745.821 194.982C749.092 194.982 751.067 195.979 751.084 197.771C751.067 199.531 749.092 200.544 745.821 200.544C742.518 200.544 740.525 199.531 740.525 197.771C740.525 195.979 742.518 194.982 745.821 194.982ZM745.821 196.593C743.729 196.593 742.667 196.991 742.684 197.771C742.667 198.568 743.729 198.934 745.821 198.934C747.863 198.934 748.942 198.568 748.959 197.771C748.942 196.991 747.863 196.593 745.821 196.593Z" fill="#173E99"/>
<path d="M106.494 177.051C108.802 177.034 110.479 178.346 110.479 180.255C110.479 182.147 108.802 183.476 106.494 183.459C104.187 183.476 102.51 182.147 102.526 180.255C102.51 178.346 104.187 177.034 106.494 177.051ZM106.494 178.744C105.365 178.744 104.568 179.292 104.568 180.255C104.568 181.201 105.365 181.749 106.494 181.732C107.656 181.749 108.47 181.201 108.47 180.255C108.47 179.292 107.656 178.744 106.494 178.744ZM114.297 176.437V191.527H112.205V176.437H114.297ZM101.597 184.389C104.27 184.389 108.071 184.322 111.292 183.841L111.425 185.401C110.18 185.65 108.901 185.808 107.64 185.899V191.079H105.531V186.032C104.203 186.09 102.95 186.099 101.862 186.115L101.597 184.389ZM128.989 176.42V185.551H126.881V182.579H124.922V180.853H126.881V176.42H128.989ZM128.989 186.198V191.361H118.829V186.198H128.989ZM120.954 187.858V189.668H126.914V187.858H120.954ZM125.188 177.731V179.425H116.289V177.731H119.709V176.287H121.801V177.731H125.188ZM120.755 179.923C122.88 179.923 124.374 181.052 124.374 182.629C124.374 184.272 122.88 185.368 120.755 185.368C118.646 185.368 117.119 184.272 117.119 182.629C117.119 181.052 118.646 179.923 120.755 179.923ZM120.755 181.517C119.775 181.517 119.145 181.915 119.161 182.629C119.145 183.393 119.775 183.808 120.755 183.808C121.718 183.808 122.349 183.393 122.349 182.629C122.349 181.915 121.718 181.517 120.755 181.517ZM133.505 177.101V178.894H136.593V177.101H138.718V183.691H131.396V177.101H133.505ZM133.505 182.031H136.593V180.487H133.505V182.031ZM142.935 176.42V179.358H144.977V181.068H142.935V184.106H140.81V176.42H142.935ZM142.935 184.671V188.771H135.016V189.751H143.366V191.428H132.94V187.261H140.826V186.314H132.907V184.671H142.935ZM150.472 179.109C150.472 180.736 151.318 182.363 153.327 183.127L152.198 184.737C150.912 184.248 150.023 183.351 149.476 182.23C148.928 183.542 147.981 184.638 146.57 185.219L145.425 183.592C147.55 182.662 148.413 180.803 148.413 179.109V177.333H150.472V179.109ZM158.623 176.437V185.667H156.614V181.832H155.353V185.202H153.377V176.702H155.353V180.122H156.614V176.437H158.623ZM153.46 185.883C156.647 185.883 158.689 186.945 158.706 188.705C158.689 190.465 156.647 191.527 153.46 191.527C150.256 191.527 148.23 190.465 148.23 188.705C148.23 186.945 150.256 185.883 153.46 185.883ZM153.46 187.46C151.484 187.46 150.339 187.892 150.355 188.705C150.339 189.519 151.484 189.934 153.46 189.934C155.419 189.934 156.564 189.519 156.564 188.705C156.564 187.892 155.419 187.46 153.46 187.46Z" fill="#173E99"/>
<path d="M240.494 177.051C242.802 177.034 244.479 178.346 244.479 180.255C244.479 182.147 242.802 183.476 240.494 183.459C238.187 183.476 236.51 182.147 236.526 180.255C236.51 178.346 238.187 177.034 240.494 177.051ZM240.494 178.744C239.365 178.744 238.568 179.292 238.568 180.255C238.568 181.201 239.365 181.749 240.494 181.732C241.656 181.749 242.47 181.201 242.47 180.255C242.47 179.292 241.656 178.744 240.494 178.744ZM248.297 176.437V191.527H246.205V176.437H248.297ZM235.597 184.389C238.27 184.389 242.071 184.322 245.292 183.841L245.425 185.401C244.18 185.65 242.901 185.808 241.64 185.899V191.079H239.531V186.032C238.203 186.09 236.95 186.099 235.862 186.115L235.597 184.389ZM262.989 176.42V185.551H260.881V182.579H258.922V180.853H260.881V176.42H262.989ZM262.989 186.198V191.361H252.829V186.198H262.989ZM254.954 187.858V189.668H260.914V187.858H254.954ZM259.188 177.731V179.425H250.289V177.731H253.709V176.287H255.801V177.731H259.188ZM254.755 179.923C256.88 179.923 258.374 181.052 258.374 182.629C258.374 184.272 256.88 185.368 254.755 185.368C252.646 185.368 251.119 184.272 251.119 182.629C251.119 181.052 252.646 179.923 254.755 179.923ZM254.755 181.517C253.775 181.517 253.145 181.915 253.161 182.629C253.145 183.393 253.775 183.808 254.755 183.808C255.718 183.808 256.349 183.393 256.349 182.629C256.349 181.915 255.718 181.517 254.755 181.517ZM277.599 176.437V187.294H275.474V176.437H277.599ZM277.997 189.568V191.262H267.472V186.198H269.613V189.568H277.997ZM269.314 177.399C271.639 177.399 273.448 178.993 273.448 181.201C273.448 183.459 271.639 185.036 269.314 185.036C266.99 185.036 265.181 183.459 265.181 181.201C265.181 178.993 266.99 177.399 269.314 177.399ZM269.314 179.242C268.136 179.226 267.239 179.973 267.256 181.201C267.239 182.463 268.136 183.193 269.314 183.193C270.46 183.193 271.356 182.463 271.356 181.201C271.356 179.973 270.46 179.226 269.314 179.242ZM285.501 180.537C285.501 182.978 286.746 185.584 289.286 186.646L288.141 188.307C286.356 187.551 285.127 186.049 284.455 184.206C283.766 186.207 282.513 187.867 280.736 188.688L279.524 187.012C282.031 185.899 283.326 183.094 283.326 180.537V179.607H280.122V177.881H288.655V179.607H285.501V180.537ZM292.291 176.42V191.527H290.149V176.42H292.291Z" fill="#173E99"/>
<path d="M386.799 166.553C390.269 166.553 392.278 167.466 392.294 169.143C392.278 170.637 390.659 171.525 387.812 171.683V172.562H393.689V174.239H379.91V172.562H385.72V171.683C382.898 171.508 381.288 170.62 381.288 169.143C381.288 167.466 383.313 166.553 386.799 166.553ZM386.799 168.113C384.575 168.113 383.496 168.445 383.512 169.143C383.496 169.873 384.575 170.172 386.799 170.172C389.041 170.172 390.103 169.873 390.103 169.143C390.103 168.445 389.041 168.113 386.799 168.113ZM392.012 175.069V178.921H383.595V179.834H392.411V181.428H381.52V177.443H389.92V176.646H381.503V175.069H392.012ZM406.522 166.42V172.064H408.747V173.841H406.522V181.527H404.397V166.42H406.522ZM397.192 167.615V171.301H400.33V167.615H402.438V178.024H395.083V167.615H397.192ZM397.192 176.314H400.33V172.944H397.192V176.314ZM423.107 174.588V176.281H409.278V174.588H423.107ZM421.762 179.568V181.262H411.021V177.111H413.146V179.568H421.762ZM421.43 166.769V170.936H413.113V172.015H421.712V173.608H411.004V169.425H419.305V168.396H410.971V166.769H421.43ZM378.075 187.794C378.075 189.62 379.138 191.38 381.528 192.127L380.399 193.771C378.797 193.239 377.677 192.21 377.029 190.882C376.374 192.409 375.203 193.604 373.477 194.186L372.331 192.525C374.854 191.679 375.934 189.67 375.95 187.595V186.217H378.075V187.794ZM384.55 185.42V188.956H386.592V190.716H384.55V194.385H382.425V185.42H384.55ZM379.603 194.684C382.724 194.684 384.699 195.763 384.699 197.605C384.699 199.465 382.724 200.527 379.603 200.527C376.415 200.527 374.423 199.465 374.423 197.605C374.423 195.763 376.415 194.684 379.603 194.684ZM379.603 196.344C377.61 196.344 376.531 196.775 376.548 197.605C376.531 198.469 377.61 198.867 379.603 198.867C381.562 198.867 382.607 198.469 382.607 197.605C382.607 196.775 381.562 196.344 379.603 196.344ZM399.342 185.437V189.72H401.268V191.463H399.342V195.63H397.217V185.437H399.342ZM394.245 195.763C397.516 195.746 399.392 196.609 399.392 198.153C399.392 199.714 397.516 200.544 394.245 200.544C390.958 200.544 389.082 199.714 389.082 198.153C389.082 196.609 390.958 195.746 394.245 195.763ZM394.245 197.29C392.153 197.29 391.19 197.572 391.207 198.153C391.19 198.718 392.153 199 394.245 199C396.304 199 397.25 198.718 397.267 198.153C397.25 197.572 396.304 197.29 394.245 197.29ZM387.09 193.621C388.194 193.621 389.447 193.613 390.759 193.571V192.691C389.107 192.467 388.086 191.704 388.103 190.583C388.086 189.238 389.547 188.425 391.805 188.425C394.046 188.425 395.49 189.238 395.507 190.583C395.49 191.704 394.494 192.467 392.867 192.691V193.505C394.104 193.438 395.349 193.339 396.52 193.189L396.669 194.617C393.465 195.182 389.979 195.215 387.306 195.215L387.09 193.621ZM396.138 186.499V188.06H387.488V186.499H390.759V185.304H392.867V186.499H396.138ZM391.805 189.803C390.726 189.803 390.111 190.085 390.128 190.583C390.111 191.114 390.726 191.38 391.805 191.38C392.867 191.38 393.465 191.114 393.481 190.583C393.465 190.085 392.867 189.803 391.805 189.803ZM410.415 186.682V188.375H409.187V192.575C409.792 192.525 410.382 192.467 410.946 192.393L411.096 193.953C408.074 194.468 404.621 194.518 402.098 194.518L401.865 192.824L403.509 192.808V188.375H402.264V186.682H410.415ZM413.935 185.437V189.687H415.977V191.446H413.935V196.56H411.81V185.437H413.935ZM414.482 198.568V200.262H404.14V195.497H406.248V198.568H414.482ZM405.551 192.758L407.145 192.691V188.375H405.551V192.758ZM428.627 185.42V189.537H430.669V191.28H428.627V196.344H426.502V185.42H428.627ZM424.045 186.632V188.325H419.347V192.144C422.078 192.127 423.58 192.044 425.273 191.679L425.489 193.372C423.597 193.771 421.854 193.854 418.5 193.854H417.222V186.632H424.045ZM429.175 198.568V200.262H418.832V195.182H420.94V198.568H429.175Z" fill="#173E99"/>
<path d="M522.393 189.074V190.801H508.563V189.074H514.407V186.119H516.516V189.074H522.393ZM521.181 179.495V181.188H516.565C516.74 182.865 518.45 184.567 521.895 184.99L521.131 186.634C518.425 186.293 516.474 185.173 515.47 183.612C514.449 185.173 512.515 186.293 509.809 186.634L509.028 184.99C512.473 184.567 514.183 182.865 514.374 181.188H509.759V179.495H514.407V177.603H516.516V179.495H521.181ZM535.956 177.42V192.527H533.814V177.42H535.956ZM531.424 178.997C531.424 183.579 529.813 187.381 524.418 189.938L523.306 188.244C527.207 186.401 528.925 184.011 529.266 180.657H524.119V178.997H531.424ZM551.014 177.42V192.527H549.005V184.94H547.544V191.797H545.602V177.669H547.544V183.247H549.005V177.42H551.014ZM544.008 179.163V180.873H540.505V187.314C541.966 187.306 543.261 187.231 544.722 186.966L544.871 188.692C543.028 189.041 541.418 189.091 539.426 189.107H538.38V179.163H544.008ZM565.407 177.42V192.561H563.282V184.924H560.56V183.23H563.282V177.42H565.407ZM558.302 182.151C558.302 184.343 559.497 186.783 561.971 187.846L560.842 189.473C559.124 188.759 557.928 187.314 557.272 185.588C556.608 187.422 555.421 188.966 553.687 189.705L552.574 188.078C554.998 186.999 556.177 184.426 556.193 182.151V181.57H553.056V179.877H556.193V177.752H558.318V179.877H561.373V181.57H558.302V182.151Z" fill="#173E99"/>
<mask id="mask8_133_67" style="mask-type:alpha" maskUnits="userSpaceOnUse" x="718" y="119" width="39" height="39">
<rect x="718" y="119" width="39" height="39" fill="#D9D9D9"/>
</mask>
<g mask="url(#mask8_133_67)">
<path d="M729.375 153.125C728.021 153.125 726.87 152.651 725.922 151.703C724.974 150.755 724.5 149.604 724.5 148.25H722.875C721.981 148.25 721.216 147.932 720.58 147.295C719.943 146.659 719.625 145.894 719.625 145V136.875H737.5V130.375C737.5 129.481 737.818 128.716 738.455 128.08C739.091 127.443 739.856 127.125 740.75 127.125H744V125.5C744 125.04 744.156 124.654 744.467 124.342C744.779 124.031 745.165 123.875 745.625 123.875H747.25C747.71 123.875 748.096 124.031 748.408 124.342C748.719 124.654 748.875 125.04 748.875 125.5V127.125H749.769C750.473 127.125 751.109 127.328 751.678 127.734C752.247 128.141 752.64 128.682 752.856 129.359L755.212 136.347C755.267 136.509 755.307 136.679 755.334 136.855C755.361 137.031 755.375 137.214 755.375 137.403V148.25H750.5C750.5 149.604 750.026 150.755 749.078 151.703C748.13 152.651 746.979 153.125 745.625 153.125C744.271 153.125 743.12 152.651 742.172 151.703C741.224 150.755 740.75 149.604 740.75 148.25H734.25C734.25 149.604 733.776 150.755 732.828 151.703C731.88 152.651 730.729 153.125 729.375 153.125ZM729.375 149.875C729.835 149.875 730.221 149.719 730.533 149.408C730.844 149.096 731 148.71 731 148.25C731 147.79 730.844 147.404 730.533 147.092C730.221 146.781 729.835 146.625 729.375 146.625C728.915 146.625 728.529 146.781 728.217 147.092C727.906 147.404 727.75 147.79 727.75 148.25C727.75 148.71 727.906 149.096 728.217 149.408C728.529 149.719 728.915 149.875 729.375 149.875ZM745.625 149.875C746.085 149.875 746.471 149.719 746.783 149.408C747.094 149.096 747.25 148.71 747.25 148.25C747.25 147.79 747.094 147.404 746.783 147.092C746.471 146.781 746.085 146.625 745.625 146.625C745.165 146.625 744.779 146.781 744.467 147.092C744.156 147.404 744 147.79 744 148.25C744 148.71 744.156 149.096 744.467 149.408C744.779 149.719 745.165 149.875 745.625 149.875ZM740.75 136.875H751.962L749.769 130.375H740.75V136.875ZM719.625 135.25V132.812H721.25V129.562H719.625V127.125H735.875V129.562H734.25V132.812H735.875V135.25H719.625ZM723.688 132.812H726.531V129.562H723.688V132.812ZM728.969 132.812H731.812V129.562H728.969V132.812Z" fill="#173E99"/>
</g>
<mask id="mask9_133_67" style="mask-type:alpha" maskUnits="userSpaceOnUse" x="110" y="118" width="39" height="39">
<rect x="110" y="118" width="39" height="39" fill="#D9D9D9"/>
</mask>
<g mask="url(#mask9_133_67)">
<path d="M111.625 152.125L129.5 121.25L147.375 152.125H111.625ZM129.5 147.25C129.96 147.25 130.346 147.094 130.658 146.783C130.969 146.471 131.125 146.085 131.125 145.625C131.125 145.165 130.969 144.779 130.658 144.467C130.346 144.156 129.96 144 129.5 144C129.04 144 128.654 144.156 128.342 144.467C128.031 144.779 127.875 145.165 127.875 145.625C127.875 146.085 128.031 146.471 128.342 146.783C128.654 147.094 129.04 147.25 129.5 147.25ZM127.875 142.375H131.125V134.25H127.875V142.375Z" fill="#173E99"/>
</g>
<mask id="mask10_133_67" style="mask-type:alpha" maskUnits="userSpaceOnUse" x="244" y="118" width="39" height="39">
<rect x="244" y="118" width="39" height="39" fill="#D9D9D9"/>
</mask>
<g mask="url(#mask10_133_67)">
<path d="M253.75 153.75V146.762C252.206 145.354 251.008 143.709 250.155 141.827C249.302 139.944 248.875 137.96 248.875 135.875C248.875 131.812 250.297 128.359 253.141 125.516C255.984 122.672 259.438 121.25 263.5 121.25C266.885 121.25 269.885 122.245 272.498 124.236C275.112 126.227 276.811 128.82 277.597 132.016L279.709 140.344C279.845 140.858 279.75 141.326 279.425 141.745C279.1 142.165 278.667 142.375 278.125 142.375H274.875V147.25C274.875 148.144 274.557 148.909 273.92 149.545C273.284 150.182 272.519 150.5 271.625 150.5H268.375V153.75H253.75ZM263.5 144C263.96 144 264.346 143.844 264.658 143.533C264.969 143.221 265.125 142.835 265.125 142.375C265.125 141.915 264.969 141.529 264.658 141.217C264.346 140.906 263.96 140.75 263.5 140.75C263.04 140.75 262.654 140.906 262.342 141.217C262.031 141.529 261.875 141.915 261.875 142.375C261.875 142.835 262.031 143.221 262.342 143.533C262.654 143.844 263.04 144 263.5 144ZM262.281 138.8H264.759C264.759 138.123 264.847 137.574 265.023 137.155C265.199 136.735 265.558 136.227 266.1 135.631C266.588 135.09 267.061 134.541 267.522 133.986C267.982 133.431 268.213 132.706 268.213 131.812C268.213 130.675 267.772 129.714 266.892 128.928C266.012 128.143 264.922 127.75 263.622 127.75C262.539 127.75 261.557 128.061 260.677 128.684C259.796 129.307 259.18 130.12 258.828 131.122L261.062 132.056C261.252 131.46 261.584 130.98 262.058 130.614C262.532 130.248 263.053 130.066 263.622 130.066C264.218 130.066 264.712 130.228 265.105 130.553C265.497 130.878 265.694 131.298 265.694 131.812C265.694 132.381 265.524 132.889 265.186 133.336C264.847 133.783 264.448 134.236 263.988 134.697C263.446 135.266 263.026 135.834 262.728 136.403C262.43 136.972 262.281 137.771 262.281 138.8Z" fill="#173E99"/>
</g>
<mask id="mask11_133_67" style="mask-type:alpha" maskUnits="userSpaceOnUse" x="381" y="118" width="39" height="39">
<rect x="381" y="118" width="39" height="39" fill="#D9D9D9"/>
</mask>
<g mask="url(#mask11_133_67)">
<path d="M398.875 142.375H402.125L402.369 140.344C402.585 140.263 402.782 140.168 402.958 140.059C403.134 139.951 403.29 139.829 403.425 139.694L405.294 140.506L406.919 137.744L405.294 136.525C405.348 136.308 405.375 136.092 405.375 135.875C405.375 135.658 405.348 135.442 405.294 135.225L406.919 134.006L405.294 131.244L403.425 132.056C403.29 131.921 403.134 131.799 402.958 131.691C402.782 131.582 402.585 131.488 402.369 131.406L402.125 129.375H398.875L398.631 131.406C398.415 131.488 398.218 131.582 398.042 131.691C397.866 131.799 397.71 131.921 397.575 132.056L395.706 131.244L394.081 134.006L395.706 135.225C395.652 135.442 395.625 135.658 395.625 135.875C395.625 136.092 395.652 136.308 395.706 136.525L394.081 137.744L395.706 140.506L397.575 139.694C397.71 139.829 397.866 139.951 398.042 140.059C398.218 140.168 398.415 140.263 398.631 140.344L398.875 142.375ZM400.5 138.312C399.823 138.312 399.247 138.076 398.773 137.602C398.299 137.128 398.062 136.552 398.062 135.875C398.062 135.198 398.299 134.622 398.773 134.148C399.247 133.674 399.823 133.438 400.5 133.438C401.177 133.438 401.753 133.674 402.227 134.148C402.701 134.622 402.938 135.198 402.938 135.875C402.938 136.552 402.701 137.128 402.227 137.602C401.753 138.076 401.177 138.312 400.5 138.312ZM390.75 153.75V146.762C389.206 145.354 388.008 143.709 387.155 141.827C386.302 139.944 385.875 137.96 385.875 135.875C385.875 131.812 387.297 128.359 390.141 125.516C392.984 122.672 396.438 121.25 400.5 121.25C403.885 121.25 406.885 122.245 409.498 124.236C412.112 126.227 413.811 128.82 414.597 132.016L416.709 140.344C416.845 140.858 416.75 141.326 416.425 141.745C416.1 142.165 415.667 142.375 415.125 142.375H411.875V147.25C411.875 148.144 411.557 148.909 410.92 149.545C410.284 150.182 409.519 150.5 408.625 150.5H405.375V153.75H390.75Z" fill="#173E99"/>
</g>
<mask id="mask12_133_67" style="mask-type:alpha" maskUnits="userSpaceOnUse" x="517" y="119" width="39" height="39">
<rect x="517" y="119" width="39" height="39" fill="#D9D9D9"/>
</mask>
<g mask="url(#mask12_133_67)">
<path d="M531.625 154.75C530.731 154.75 529.966 154.432 529.33 153.795C528.693 153.159 528.375 152.394 528.375 151.5V149.875H544.625V151.5C544.625 152.394 544.307 153.159 543.67 153.795C543.034 154.432 542.269 154.75 541.375 154.75H531.625ZM528.375 148.25V140.125H544.625V148.25H528.375ZM528.538 138.5C528.808 137.254 529.377 136.083 530.244 134.986C531.11 133.889 532.207 133.083 533.534 132.569C533.264 132.352 533.02 132.115 532.803 131.858C532.586 131.601 532.397 131.323 532.234 131.025L525.125 129.562V127.938L532.234 126.475C532.641 125.69 533.216 125.06 533.961 124.586C534.706 124.112 535.552 123.875 536.5 123.875C537.069 123.875 537.61 123.97 538.125 124.159C538.64 124.349 539.1 124.606 539.506 124.931L544.625 123.875V133.625L539.466 132.569C540.739 133.083 541.815 133.862 542.695 134.905C543.576 135.947 544.165 137.146 544.463 138.5H528.538ZM536.5 130.375C536.96 130.375 537.346 130.219 537.658 129.908C537.969 129.596 538.125 129.21 538.125 128.75C538.098 128.262 537.935 127.87 537.638 127.572C537.34 127.274 536.96 127.125 536.5 127.125C536.04 127.125 535.654 127.281 535.342 127.592C535.031 127.904 534.875 128.29 534.875 128.75C534.875 129.21 535.031 129.596 535.342 129.908C535.654 130.219 536.04 130.375 536.5 130.375Z" fill="#173E99"/>
</g>
</svg>
