<svg width="1200" height="394" viewBox="0 0 1200 394" fill="none" xmlns="http://www.w3.org/2000/svg">
<rect width="1200" height="394" fill="white"/>
<circle cx="230" cy="197" r="141" fill="#EDF1F5"/>
<circle cx="600" cy="197" r="141" fill="#EDF1F5"/>
<circle cx="970" cy="197" r="141" fill="#EDF1F5"/>
<path d="M179.866 232.029V238.401H182.869V240.989H179.866V248.216H176.741V232.029H179.866ZM180.671 251.365V253.855H165.461V246.507H168.562V251.365H180.671ZM168.489 233.47C171.882 233.47 174.543 235.813 174.543 239.109C174.543 242.356 171.882 244.749 168.489 244.749C165.071 244.749 162.385 242.356 162.385 239.109C162.385 235.813 165.071 233.47 168.489 233.47ZM168.489 236.18C166.804 236.155 165.437 237.254 165.461 239.109C165.437 240.916 166.804 242.039 168.489 242.039C170.198 242.039 171.492 240.916 171.516 239.109C171.492 237.254 170.198 236.155 168.489 236.18ZM202.571 232.054V248.265H199.47V240.306H195.833V237.791H199.47V232.054H202.571ZM203.108 251.365V253.855H187.825V246.849H190.95V251.365H203.108ZM192.244 236.399C192.244 238.963 193.806 241.722 197.346 242.869L195.808 245.335C193.342 244.542 191.658 242.918 190.681 240.892C189.705 243.138 187.935 244.92 185.31 245.799L183.723 243.26C187.385 242.112 189.045 239.207 189.07 236.375V236.033H184.602V233.543H196.663V236.033H192.244V236.399ZM212.654 233.519C216.169 233.494 218.806 235.789 218.806 238.963C218.806 242.161 216.169 244.432 212.654 244.432C209.138 244.432 206.477 242.161 206.477 238.963C206.477 235.789 209.138 233.494 212.654 233.519ZM212.654 236.204C210.896 236.204 209.553 237.229 209.578 238.963C209.553 240.721 210.896 241.722 212.654 241.722C214.412 241.722 215.754 240.721 215.779 238.963C215.754 237.229 214.436 236.204 212.654 236.204ZM224.128 232.029V254.295H221.028V232.029H224.128ZM205.549 247.215C209.504 247.239 214.998 247.166 219.758 246.507L220.002 248.753C215.071 249.705 209.797 249.754 205.916 249.754L205.549 247.215ZM235.579 235.179C235.554 237.962 237.141 240.647 240.803 241.746L239.241 244.188C236.714 243.382 234.968 241.807 233.967 239.769C232.966 241.966 231.16 243.687 228.547 244.529L226.985 242.088C230.696 240.892 232.332 238.011 232.332 235.179V233.055H235.579V235.179ZM245.662 246.238V254.246H242.537V248.729H230.378V246.238H245.662ZM245.662 232.029V245.286H242.537V232.029H245.662ZM273.494 232.029V237.498H276.497V240.11H273.494V245.433H270.369V232.029H273.494ZM273.494 246.409V254.002H258.967V246.409H273.494ZM262.043 248.851V251.512H270.417V248.851H262.043ZM269.05 234.031V236.497H255.867V234.031H260.92V231.907H264.021V234.031H269.05ZM262.458 237.181C265.681 237.181 267.927 238.816 267.927 241.16C267.927 243.577 265.681 245.188 262.458 245.188C259.187 245.188 256.941 243.577 256.941 241.16C256.941 238.816 259.187 237.181 262.458 237.181ZM262.458 239.524C260.969 239.524 259.968 240.11 259.993 241.16C259.968 242.283 260.969 242.894 262.458 242.894C263.948 242.894 264.973 242.283 264.973 241.16C264.973 240.11 263.948 239.524 262.458 239.524ZM297.981 234.788V237.327H295.1V239.622H297.981V242.186H295.1V245.018H291.975V232.029H295.1V234.788H297.981ZM283.723 233.25C287.166 233.226 289.778 235.472 289.778 238.621C289.778 241.771 287.166 243.992 283.723 243.992C280.256 243.992 277.62 241.771 277.62 238.621C277.62 235.472 280.256 233.226 283.723 233.25ZM283.723 235.862C281.965 235.838 280.671 236.912 280.696 238.621C280.671 240.354 281.965 241.38 283.723 241.38C285.432 241.38 286.726 240.354 286.75 238.621C286.726 236.912 285.432 235.838 283.723 235.862ZM287.825 245.457C292.39 245.457 295.32 247.117 295.32 249.876C295.32 252.61 292.39 254.246 287.825 254.246C283.162 254.246 280.208 252.61 280.208 249.876C280.208 247.117 283.162 245.457 287.825 245.457ZM287.825 247.923C284.895 247.923 283.308 248.582 283.333 249.876C283.308 251.17 284.895 251.78 287.825 251.78C290.706 251.78 292.244 251.17 292.244 249.876C292.244 248.582 290.706 247.923 287.825 247.923ZM144.282 270.957C147.676 270.933 150.142 272.861 150.142 275.669C150.142 278.452 147.676 280.405 144.282 280.381C140.889 280.405 138.423 278.452 138.447 275.669C138.423 272.861 140.889 270.933 144.282 270.957ZM144.282 273.447C142.622 273.447 141.45 274.253 141.45 275.669C141.45 277.061 142.622 277.866 144.282 277.842C145.991 277.866 147.188 277.061 147.188 275.669C147.188 274.253 145.991 273.447 144.282 273.447ZM155.757 270.054V292.246H152.681V270.054H155.757ZM137.08 281.748C141.011 281.748 146.602 281.65 151.338 280.942L151.533 283.237C149.702 283.604 147.822 283.835 145.967 283.97V291.587H142.866V284.165C140.913 284.25 139.07 284.263 137.471 284.287L137.08 281.748ZM177.314 270.029V292.246H174.165V270.029H177.314ZM170.649 272.349C170.649 279.087 168.281 284.678 160.347 288.438L158.711 285.947C164.448 283.237 166.975 279.722 167.476 274.79H159.907V272.349H170.649ZM188.35 273.521C188.35 276.206 189.912 278.794 193.428 279.893L191.768 282.31C189.412 281.528 187.764 280.015 186.812 278.062C185.847 280.308 184.126 282.065 181.587 282.92L179.902 280.479C183.613 279.233 185.2 276.279 185.225 273.228V271.201H188.35V273.521ZM197.871 270.029V275.229H200.874V277.817H197.871V283.213H194.746V270.029H197.871ZM190.596 283.652C195.186 283.652 198.091 285.239 198.091 287.949C198.091 290.684 195.186 292.246 190.596 292.246C185.908 292.246 182.979 290.684 182.979 287.949C182.979 285.239 185.908 283.652 190.596 283.652ZM190.596 286.094C187.666 286.094 186.079 286.729 186.104 287.949C186.079 289.219 187.666 289.805 190.596 289.805C193.477 289.805 195.015 289.219 195.015 287.949C195.015 286.729 193.477 286.094 190.596 286.094ZM219.624 270.054V276.353H222.456V278.916H219.624V285.044H216.499V270.054H219.624ZM212.129 285.239C216.938 285.215 219.697 286.484 219.697 288.755C219.697 291.05 216.938 292.271 212.129 292.271C207.295 292.271 204.536 291.05 204.536 288.755C204.536 286.484 207.295 285.215 212.129 285.239ZM212.129 287.485C209.053 287.485 207.637 287.9 207.661 288.755C207.637 289.585 209.053 290 212.129 290C215.156 290 216.548 289.585 216.572 288.755C216.548 287.9 215.156 287.485 212.129 287.485ZM201.606 282.09C203.23 282.09 205.073 282.078 207.002 282.017V280.723C204.573 280.393 203.071 279.27 203.096 277.622C203.071 275.645 205.22 274.448 208.54 274.448C211.836 274.448 213.96 275.645 213.984 277.622C213.96 279.27 212.495 280.393 210.103 280.723V281.919C211.921 281.821 213.752 281.675 215.474 281.455L215.693 283.555C210.981 284.385 205.854 284.434 201.924 284.434L201.606 282.09ZM214.912 271.616V273.911H202.192V271.616H207.002V269.858H210.103V271.616H214.912ZM208.54 276.475C206.953 276.475 206.05 276.89 206.074 277.622C206.05 278.403 206.953 278.794 208.54 278.794C210.103 278.794 210.981 278.403 211.006 277.622C210.981 276.89 210.103 276.475 208.54 276.475ZM243.11 271.885V274.375H241.304V280.552C242.195 280.479 243.062 280.393 243.892 280.283L244.111 282.578C239.668 283.335 234.59 283.408 230.879 283.408L230.537 280.918L232.954 280.894V274.375H231.123V271.885H243.11ZM248.286 270.054V276.304H251.289V278.892H248.286V286.411H245.161V270.054H248.286ZM249.092 289.365V291.855H233.882V284.849H236.982V289.365H249.092ZM235.957 280.82L238.301 280.723V274.375H235.957V280.82ZM269.893 270.029V276.084H272.896V278.647H269.893V286.094H266.768V270.029H269.893ZM263.154 271.812V274.302H256.245V279.917C260.261 279.893 262.471 279.771 264.961 279.233L265.278 281.724C262.495 282.31 259.932 282.432 255 282.432H253.12V271.812H263.154ZM270.698 289.365V291.855H255.488V284.385H258.589V289.365H270.698ZM299.092 275.596V278.086H283.638V270.371H286.738V275.596H299.092ZM301.387 279.99V282.529H281.074V279.99H301.387ZM291.182 283.921C295.991 283.945 298.896 285.435 298.921 288.047C298.896 290.684 295.991 292.173 291.182 292.173C286.323 292.173 283.394 290.684 283.394 288.047C283.394 285.435 286.323 283.945 291.182 283.921ZM291.182 286.338C288.105 286.362 286.543 286.875 286.567 288.047C286.543 289.194 288.105 289.805 291.182 289.805C294.185 289.805 295.771 289.194 295.796 288.047C295.771 286.875 294.185 286.362 291.182 286.338ZM313.35 271.323V278.257H306.636V280.625C309.944 280.625 311.897 280.515 314.155 280.088L314.448 282.578C311.86 283.042 309.517 283.115 305.22 283.115H303.56V275.938H310.225V273.765H303.511V271.323H313.35ZM321.406 270.054V283.726H318.306V280.308H314.619V277.842H318.306V275.596H314.619V273.13H318.306V270.054H321.406ZM321.406 284.727V292.246H318.306V287.217H306.099V284.727H321.406Z" fill="#5286FF"/>
<path d="M578.21 261.43V263.871H557.946V261.43H578.21ZM568.054 265.116C572.863 265.116 575.769 266.581 575.793 269.193C575.769 271.806 572.863 273.271 568.054 273.271C563.171 273.271 560.266 271.806 560.266 269.193C560.266 266.581 563.171 265.116 568.054 265.116ZM568.054 267.46C564.978 267.46 563.415 268.021 563.439 269.193C563.415 270.341 564.978 270.902 568.054 270.902C571.057 270.902 572.644 270.341 572.668 269.193C572.644 268.021 571.057 267.46 568.054 267.46ZM568.078 251.493C572.961 251.518 576.135 253.178 576.159 255.863C576.135 258.573 572.961 260.209 568.078 260.209C563.171 260.209 559.973 258.573 559.973 255.863C559.973 253.178 563.171 251.518 568.078 251.493ZM568.078 253.935C564.978 253.935 563.195 254.545 563.22 255.863C563.195 257.157 564.978 257.792 568.078 257.792C571.154 257.792 572.937 257.157 572.937 255.863C572.937 254.545 571.154 253.935 568.078 253.935ZM585.046 263.676V266.044H594.299V263.676H597.375V273.002H581.994V263.676H585.046ZM585.046 270.487H594.299V268.412H585.046V270.487ZM597.473 251.933V253.715C597.473 255.399 597.473 257.206 596.96 259.721H599.89V262.211H579.553V259.721H593.859C594.299 257.572 594.36 255.9 594.372 254.423H582.043V251.933H597.473ZM619.934 251.029V273.295H616.809V262.064H612.805V259.574H616.809V251.029H619.934ZM609.484 257.987C609.484 261.21 611.242 264.799 614.88 266.361L613.22 268.754C610.693 267.704 608.935 265.58 607.971 263.041C606.994 265.739 605.249 268.009 602.697 269.096L601.062 266.703C604.626 265.116 606.359 261.332 606.384 257.987V257.133H601.77V254.643H606.384V251.518H609.509V254.643H614.001V257.133H609.484V257.987ZM641.345 251.029V273.246H638.22V251.029H641.345ZM631.457 257.987C631.457 261.21 633.288 264.848 636.975 266.361L635.29 268.754C632.763 267.716 630.957 265.592 629.943 263.041C628.955 265.751 627.136 268.021 624.548 269.096L622.888 266.703C626.55 265.116 628.356 261.381 628.356 257.987V257.133H623.62V254.643H628.332V251.518H631.433V254.643H636.071V257.133H631.457V257.987Z" fill="#5286FF"/>
<path d="M947.331 232.029V254.246H944.353V243.113H942.473V253.221H939.519V246.849L937.761 249.192C935.698 248.106 934.367 246.263 933.586 243.968C932.841 246.604 931.523 248.741 929.411 249.998L927.482 247.605C930.852 245.701 931.999 241.771 931.999 237.522V236.814H928.239V234.324H938.42V236.814H935.026V237.522C935.026 241.392 936.174 245.079 939.519 246.8V232.347H942.473V240.574H944.353V232.029H947.331ZM953.581 233.519V241.771C956.279 241.734 959.208 241.526 962.297 240.892L962.639 243.431C959.025 244.163 955.559 244.358 952.36 244.358H950.456V233.519H953.581ZM967.18 232.054V238.279H970.183V240.892H967.18V247.996H964.055V232.054H967.18ZM967.912 251.365V253.855H952.775V246.507H955.925V251.365H967.912ZM990.373 232.029V254.246H987.419V243.089H985.271V253.172H982.414V232.396H985.271V240.599H987.419V232.029H990.373ZM980.07 234.593V237.107H974.919V246.58C977.067 246.568 978.972 246.458 981.12 246.067L981.34 248.606C978.63 249.119 976.262 249.192 973.332 249.217H971.794V234.593H980.07ZM1013.03 242.43V244.871H992.766V242.43H1013.03ZM1002.87 246.116C1007.68 246.116 1010.59 247.581 1010.61 250.193C1010.59 252.806 1007.68 254.271 1002.87 254.271C997.99 254.271 995.085 252.806 995.085 250.193C995.085 247.581 997.99 246.116 1002.87 246.116ZM1002.87 248.46C999.797 248.46 998.234 249.021 998.259 250.193C998.234 251.341 999.797 251.902 1002.87 251.902C1005.88 251.902 1007.46 251.341 1007.49 250.193C1007.46 249.021 1005.88 248.46 1002.87 248.46ZM1002.9 232.493C1007.78 232.518 1010.95 234.178 1010.98 236.863C1010.95 239.573 1007.78 241.209 1002.9 241.209C997.99 241.209 994.792 239.573 994.792 236.863C994.792 234.178 997.99 232.518 1002.9 232.493ZM1002.9 234.935C999.797 234.935 998.015 235.545 998.039 236.863C998.015 238.157 999.797 238.792 1002.9 238.792C1005.97 238.792 1007.76 238.157 1007.76 236.863C1007.76 235.545 1005.97 234.935 1002.9 234.935ZM948.283 287.29V289.78H927.946V287.29H933V283.066H929.631V280.552H932.609V274.302H929.533V271.812H946.574V274.302H943.449V280.552H946.477V283.066H943.132V287.29H948.283ZM935.734 280.552H940.373V274.302H935.734V280.552ZM936.125 287.29H940.007V283.066H936.125V287.29ZM967.985 270.981V273.423H961.857C962.224 275.254 964.519 277.109 968.913 277.598L967.766 280.039C963.603 279.575 960.82 277.842 959.66 275.547C958.488 277.83 955.729 279.575 951.579 280.039L950.456 277.598C954.851 277.109 957.121 275.229 957.487 273.423H951.408V270.981H967.985ZM969.865 281.089V283.579H961.491V287.412H958.415V283.579H949.528V281.089H969.865ZM967.619 289.365V291.855H951.921V285.435H955.021V289.365H967.619ZM990.251 270.029V283.97H987.297V278.062H985.515V283.237H982.609V270.444H985.515V275.522H987.297V270.029H990.251ZM981.95 272.324V274.741H971.037V272.324H974.968V270.225H978.068V272.324H981.95ZM976.53 275.474C979.362 275.474 981.364 277.036 981.389 279.355C981.364 281.65 979.362 283.213 976.53 283.213C973.747 283.213 971.721 281.65 971.721 279.355C971.721 277.036 973.747 275.474 976.53 275.474ZM976.53 277.72C975.31 277.72 974.504 278.33 974.504 279.355C974.504 280.381 975.31 281.016 976.53 280.991C977.751 281.016 978.557 280.381 978.581 279.355C978.557 278.33 977.751 277.72 976.53 277.72ZM982.658 284.165C987.468 284.165 990.349 285.63 990.373 288.218C990.349 290.781 987.468 292.246 982.658 292.246C977.873 292.246 974.968 290.781 974.968 288.218C974.968 285.63 977.873 284.165 982.658 284.165ZM982.658 286.509C979.655 286.509 978.068 287.046 978.093 288.218C978.068 289.341 979.655 289.902 982.658 289.902C985.686 289.902 987.224 289.341 987.224 288.218C987.224 287.046 985.686 286.509 982.658 286.509ZM1013.08 280.527V282.969H992.766V280.527H1001.41V278.623H995.231V271.006H1010.64V273.423H998.332V276.182H1010.76V278.623H1004.46V280.527H1013.08ZM1002.87 284.092C1007.68 284.092 1010.59 285.557 1010.61 288.193C1010.59 290.781 1007.68 292.271 1002.87 292.271C998.015 292.271 995.085 290.781 995.085 288.193C995.085 285.557 998.015 284.092 1002.87 284.092ZM1002.87 286.46C999.797 286.46 998.234 287.046 998.259 288.193C998.234 289.365 999.797 289.902 1002.87 289.902C1005.88 289.902 1007.46 289.365 1007.49 288.193C1007.46 287.046 1005.88 286.46 1002.87 286.46Z" fill="#5286FF"/>
<mask id="mask0_133_2" style="mask-type:alpha" maskUnits="userSpaceOnUse" x="548" y="102" width="104" height="104">
<rect x="548" y="102" width="104" height="104" fill="#D9D9D9"/>
</mask>
<g mask="url(#mask0_133_2)">
<path d="M565.333 197.333C562.95 197.333 560.91 196.485 559.212 194.787C557.515 193.09 556.667 191.05 556.667 188.667V136.667C556.667 134.283 557.515 132.243 559.212 130.546C560.91 128.849 562.95 128 565.333 128H582.667V119.333C582.667 116.95 583.515 114.91 585.212 113.212C586.91 111.515 588.95 110.667 591.333 110.667H608.667C611.05 110.667 613.09 111.515 614.787 113.212C616.485 114.91 617.333 116.95 617.333 119.333V128H634.667C637.05 128 639.09 128.849 640.787 130.546C642.485 132.243 643.333 134.283 643.333 136.667V188.667C643.333 191.05 642.485 193.09 640.787 194.787C639.09 196.485 637.05 197.333 634.667 197.333H565.333ZM565.333 188.667H634.667V136.667H565.333V188.667ZM591.333 128H608.667V119.333H591.333V128ZM595.667 167V180H604.333V167H617.333V158.333H604.333V145.333H595.667V158.333H582.667V167H595.667Z" fill="#173E99"/>
</g>
<mask id="mask1_133_2" style="mask-type:alpha" maskUnits="userSpaceOnUse" x="918" y="102" width="104" height="104">
<rect x="918" y="102" width="104" height="104" fill="#D9D9D9"/>
</mask>
<g mask="url(#mask1_133_2)">
<path d="M1000.12 197.333C991.089 197.333 982.169 195.365 973.358 191.429C964.547 187.493 956.531 181.914 949.308 174.692C942.086 167.469 936.507 159.453 932.571 150.642C928.635 141.831 926.667 132.911 926.667 123.883C926.667 122.583 927.1 121.5 927.967 120.633C928.833 119.767 929.917 119.333 931.217 119.333H948.767C949.778 119.333 950.681 119.676 951.475 120.362C952.269 121.049 952.739 121.861 952.883 122.8L955.7 137.967C955.844 139.122 955.808 140.097 955.592 140.892C955.375 141.686 954.978 142.372 954.4 142.95L943.892 153.567C945.336 156.239 947.051 158.821 949.037 161.312C951.024 163.804 953.208 166.206 955.592 168.517C957.831 170.756 960.178 172.832 962.633 174.746C965.089 176.66 967.689 178.411 970.433 180L980.617 169.817C981.267 169.167 982.115 168.679 983.162 168.354C984.21 168.029 985.239 167.939 986.25 168.083L1001.2 171.117C1002.21 171.406 1003.04 171.929 1003.69 172.687C1004.34 173.446 1004.67 174.294 1004.67 175.233V192.783C1004.67 194.083 1004.23 195.167 1003.37 196.033C1002.5 196.9 1001.42 197.333 1000.12 197.333ZM939.775 145.333L946.925 138.183L945.083 128H935.442C935.803 130.961 936.308 133.886 936.958 136.775C937.608 139.664 938.547 142.517 939.775 145.333ZM978.558 184.117C981.375 185.344 984.246 186.319 987.171 187.042C990.096 187.764 993.039 188.233 996 188.45V178.917L985.817 176.858L978.558 184.117ZM991.667 154C985.672 154 980.562 151.887 976.337 147.662C972.112 143.437 970 138.328 970 132.333C970 126.339 972.112 121.229 976.337 117.004C980.562 112.779 985.672 110.667 991.667 110.667C997.661 110.667 1002.77 112.779 1007 117.004C1011.22 121.229 1013.33 126.339 1013.33 132.333C1013.33 138.328 1011.22 143.437 1007 147.662C1002.77 151.887 997.661 154 991.667 154ZM989.5 145.333H993.833V128H989.5V145.333ZM991.667 123.667C992.244 123.667 992.75 123.45 993.183 123.017C993.617 122.583 993.833 122.078 993.833 121.5C993.833 120.922 993.617 120.417 993.183 119.983C992.75 119.55 992.244 119.333 991.667 119.333C991.089 119.333 990.583 119.55 990.15 119.983C989.717 120.417 989.5 120.922 989.5 121.5C989.5 122.078 989.717 122.583 990.15 123.017C990.583 123.45 991.089 123.667 991.667 123.667Z" fill="#173E99"/>
</g>
<mask id="mask2_133_2" style="mask-type:alpha" maskUnits="userSpaceOnUse" x="178" y="102" width="104" height="104">
<rect x="178" y="102" width="104" height="104" fill="#D9D9D9"/>
</mask>
<g mask="url(#mask2_133_2)">
<path d="M231.192 169.275C236.247 169.275 240.544 167.65 244.083 164.4C247.622 161.15 249.392 157.214 249.392 152.592C249.392 148.475 248.074 144.99 245.438 142.137C242.801 139.285 239.606 137.858 235.85 137.858C232.456 137.858 229.585 138.942 227.238 141.108C224.89 143.275 223.717 145.947 223.717 149.125C223.717 150.497 223.988 151.833 224.529 153.133C225.071 154.433 225.847 155.625 226.858 156.708L233.033 150.533C232.817 150.389 232.654 150.208 232.546 149.992C232.438 149.775 232.383 149.522 232.383 149.233C232.383 148.439 232.708 147.807 233.358 147.337C234.008 146.868 234.839 146.633 235.85 146.633C237.294 146.633 238.486 147.229 239.425 148.421C240.364 149.612 240.833 151.039 240.833 152.7C240.833 154.939 239.913 156.835 238.071 158.387C236.229 159.94 233.972 160.717 231.3 160.717C227.906 160.717 225.035 159.344 222.688 156.6C220.34 153.856 219.167 150.497 219.167 146.525C219.167 144.431 219.564 142.426 220.358 140.512C221.153 138.599 222.272 136.919 223.717 135.475L217.542 129.3C215.231 131.539 213.461 134.139 212.233 137.1C211.006 140.061 210.392 143.167 210.392 146.417C210.392 152.772 212.414 158.171 216.458 162.612C220.503 167.054 225.414 169.275 231.192 169.275ZM204 197.333V178.7C199.883 174.944 196.688 170.557 194.413 165.537C192.138 160.518 191 155.228 191 149.667C191 138.833 194.792 129.625 202.375 122.042C209.958 114.458 219.167 110.667 230 110.667C239.028 110.667 247.026 113.321 253.996 118.629C260.965 123.937 265.497 130.853 267.592 139.375L273.225 161.583C273.586 162.956 273.333 164.201 272.467 165.321C271.6 166.44 270.444 167 269 167H260.333V180C260.333 182.383 259.485 184.424 257.788 186.121C256.09 187.818 254.05 188.667 251.667 188.667H243V197.333H234.333V180H251.667V158.333H263.367L259.25 141.542C257.589 134.969 254.05 129.625 248.633 125.508C243.217 121.392 237.006 119.333 230 119.333C221.622 119.333 214.472 122.258 208.55 128.108C202.628 133.958 199.667 141.072 199.667 149.45C199.667 153.783 200.551 157.9 202.321 161.8C204.09 165.7 206.6 169.167 209.85 172.2L212.667 174.8V197.333H204Z" fill="#173E99"/>
</g>
</svg>
