<svg width="1200" height="198" viewBox="0 0 1200 198" fill="none" xmlns="http://www.w3.org/2000/svg">
<rect width="1200" height="198" fill="white"/>
<rect x="197" y="31" width="198" height="135" rx="18" fill="#EDF1F5"/>
<path d="M250.512 84.7397V99.4985H249.25V91.8286H247.241V98.7515H245.996V85.0552H247.241V90.7163H249.25V84.7397H250.512ZM242.194 88.7739C242.194 91.48 243.307 93.854 245.415 94.9331L244.635 95.9458C243.141 95.1323 242.12 93.6714 241.597 91.8618C241.09 93.9204 240.053 95.5308 238.492 96.4438L237.679 95.4478C239.804 94.2856 240.933 91.7622 240.933 88.7739V87.5952H238.027V86.4995H244.934V87.5952H242.194V88.7739ZM254.546 85.8188V91.6294C256.646 91.6377 258.829 91.5049 261.236 90.9985L261.386 92.0776C258.879 92.6089 256.638 92.7417 254.413 92.7417H253.234V85.8188H254.546ZM264.059 84.7563V89.1392H266.283V90.2681H264.059V95.4146H262.764V84.7563H264.059ZM264.59 98.0874V99.1831H254.878V94.3687H256.173V98.0874H264.59ZM280.71 93.5054V94.5679H274.551V99.4985H273.272V94.5679H267.196V93.5054H280.71ZM270.218 85.354V87.396H277.655V85.354H278.967V91.7124H268.923V85.354H270.218ZM270.218 90.6499H277.655V88.4585H270.218V90.6499ZM295.419 96.5103V97.606H281.905V96.5103H287.998V92.9243H289.31V96.5103H295.419ZM289.31 87.5454C289.31 89.9028 292.231 91.9282 294.771 92.3433L294.24 93.3726C291.982 92.9326 289.6 91.4966 288.662 89.438C287.708 91.5049 285.333 92.9741 283.117 93.439L282.569 92.3931C285.06 91.9614 287.965 89.9028 287.965 87.5454V87.1802H283.018V86.0845H294.257V87.1802H289.31V87.5454ZM308.335 85.5366V86.6323C308.335 87.7778 308.335 89.1226 307.953 90.9653H310.111V92.0444H296.598V90.9653H306.642C307.04 89.1143 307.04 87.7778 307.04 86.6323V86.6157H298.308V85.5366H308.335ZM308.401 94.0864V99.2993H298.258V94.0864H308.401ZM299.553 95.1157V98.2368H307.106V95.1157H299.553ZM316.32 87.9106C316.32 89.7534 317.914 91.397 320.089 92.0444L319.458 93.0571C317.748 92.5508 316.378 91.4302 315.723 89.9692C315.075 91.5879 313.73 92.8579 311.971 93.439L311.34 92.4429C313.515 91.7124 315.042 89.9194 315.042 87.9106V87.5952H311.705V86.5493H315.042V84.6733H316.354V86.5493H319.657V87.5952H316.32V87.9106ZM323.525 84.7397V93.688H322.214V90.0522H319.192V88.9731H322.214V84.7397H323.525ZM318.628 94.0864C321.699 94.0864 323.575 95.0493 323.575 96.7759C323.575 98.4858 321.699 99.4653 318.628 99.4653C315.557 99.4653 313.681 98.4858 313.681 96.7759C313.681 95.0493 315.557 94.0864 318.628 94.0864ZM318.628 95.0991C316.37 95.1157 314.959 95.73 314.976 96.7759C314.959 97.8052 316.37 98.436 318.628 98.436C320.902 98.436 322.28 97.8052 322.28 96.7759C322.28 95.73 320.902 95.1157 318.628 95.0991ZM337.653 85.7026V86.9976C337.653 88.4004 337.653 89.9194 337.238 92.0444H339.43V93.1235H333.337V99.5317H332.025V93.1235H325.982V92.0444H335.91C336.358 89.9194 336.358 88.3672 336.358 86.9976V86.7817H327.676V85.7026H337.653ZM345.871 88.7075C345.871 91.3804 347.581 94.0698 349.723 95.0493L348.942 96.1118C347.266 95.2485 345.879 93.4805 345.224 91.3804C344.568 93.5884 343.182 95.481 341.505 96.3774L340.658 95.3315C342.816 94.269 344.543 91.4302 344.543 88.7075V86.0181H345.871V88.7075ZM352.91 84.7397V99.5317H351.615V90.8491H348.112V89.7866H351.615V84.7397H352.91ZM261.527 104.74V111.032H263.884V112.127H261.527V119.499H260.215V104.74H261.527ZM249.889 115.564C251.093 115.564 252.496 115.564 253.957 115.514V113.871C252.238 113.68 251.118 112.675 251.134 111.214C251.118 109.554 252.529 108.475 254.621 108.475C256.679 108.475 258.107 109.554 258.124 111.214C258.107 112.675 256.97 113.68 255.268 113.887V115.464C256.646 115.398 258.032 115.29 259.319 115.099L259.402 116.095C256.181 116.643 252.695 116.676 250.105 116.676L249.889 115.564ZM259.053 106.549V107.612H250.155V106.549H253.957V104.773H255.268V106.549H259.053ZM254.621 109.488C253.259 109.488 252.346 110.185 252.346 111.214C252.346 112.244 253.259 112.908 254.621 112.891C255.965 112.908 256.878 112.244 256.878 111.214C256.878 110.185 255.965 109.488 254.621 109.488ZM277.448 104.74V119.499H276.186V111.829H274.177V118.751H272.932V105.055H274.177V110.716H276.186V104.74H277.448ZM269.13 108.774C269.13 111.48 270.243 113.854 272.351 114.933L271.571 115.946C270.077 115.132 269.056 113.671 268.533 111.862C268.026 113.92 266.989 115.531 265.428 116.444L264.615 115.448C266.74 114.286 267.869 111.762 267.869 108.774V107.595H264.963V106.5H271.87V107.595H269.13V108.774ZM292.904 111.762V112.841H279.457V111.762H292.904ZM286.18 114.136C289.351 114.136 291.244 115.116 291.26 116.809C291.244 118.519 289.351 119.465 286.18 119.465C282.993 119.465 281.083 118.519 281.083 116.809C281.083 115.116 282.993 114.136 286.18 114.136ZM286.18 115.166C283.806 115.182 282.395 115.763 282.412 116.809C282.395 117.838 283.806 118.419 286.18 118.419C288.521 118.419 289.949 117.838 289.949 116.809C289.949 115.763 288.521 115.182 286.18 115.166ZM291.708 105.503V106.583H287.027C287.077 108.259 289.534 109.538 292.157 109.836L291.675 110.882C289.26 110.575 286.994 109.496 286.18 107.844C285.375 109.496 283.117 110.575 280.685 110.882L280.22 109.836C282.793 109.538 285.267 108.259 285.333 106.583H280.685V105.503H291.708ZM306.384 104.74V113.489H305.073V111.165H301.62V112.426H294.846V105.869H301.62V107.147H305.073V104.74H306.384ZM296.141 106.931V111.364H300.341V106.931H296.141ZM301.487 113.92C304.558 113.92 306.434 114.933 306.434 116.709C306.434 118.469 304.558 119.465 301.487 119.465C298.416 119.465 296.54 118.469 296.54 116.709C296.54 114.933 298.416 113.92 301.487 113.92ZM301.487 114.933C299.229 114.95 297.818 115.597 297.834 116.709C297.818 117.772 299.229 118.436 301.487 118.436C303.745 118.436 305.139 117.772 305.139 116.709C305.139 115.597 303.745 114.95 301.487 114.933ZM301.62 110.069H305.073V108.226H301.62V110.069ZM321.01 104.756V115.962H319.699V114.435H316.644V113.489H319.699V104.756H321.01ZM321.375 118.087V119.183H310.883V114.867H312.195V118.087H321.375ZM308.758 111.596C311.514 111.58 315.2 111.563 318.371 111.165L318.454 112.111C317.134 112.318 315.756 112.451 314.403 112.526V115.448H313.091V112.592C311.597 112.659 310.178 112.667 308.941 112.659L308.758 111.596ZM313.606 105.354C315.764 105.354 317.242 106.383 317.258 107.927C317.242 109.504 315.764 110.484 313.606 110.484C311.431 110.484 309.954 109.504 309.954 107.927C309.954 106.383 311.431 105.354 313.606 105.354ZM313.606 106.35C312.162 106.333 311.182 106.981 311.199 107.927C311.182 108.89 312.162 109.521 313.606 109.521C315 109.521 315.997 108.89 316.013 107.927C315.997 106.981 315 106.333 313.606 106.35ZM341.895 111.762V112.858H328.431V111.762H341.895ZM340.318 109.289V110.351H330.141V105.337H340.218V106.433H331.419V109.289H340.318ZM335.155 114.153C338.326 114.153 340.218 115.116 340.235 116.809C340.218 118.519 338.326 119.465 335.155 119.465C331.967 119.465 330.058 118.519 330.058 116.809C330.058 115.116 331.967 114.153 335.155 114.153ZM335.155 115.166C332.781 115.182 331.37 115.78 331.386 116.809C331.37 117.855 332.781 118.436 335.155 118.436C337.496 118.436 338.923 117.855 338.923 116.809C338.923 115.78 337.496 115.182 335.155 115.166ZM247.615 124.756V135.664H246.303V130.401H243.033V129.305H246.303V124.756H247.615ZM243.099 125.885C243.083 129.67 240.376 132.559 236.176 133.937L235.612 132.891C239.015 131.771 241.381 129.654 241.671 126.981H236.359V125.885H243.099ZM247.997 138.087V139.183H238.218V134.551H239.546V138.087H247.997ZM263.519 131.314V132.327H257.426V133.705H261.792V136.892H253.027V138.336H262.241V139.333H251.732V135.962H260.514V134.684H251.699V133.705H256.148V132.327H250.088V131.314H263.519ZM257.426 124.657V126.035H262.158V127.064H257.526C257.767 128.533 260.074 129.463 262.789 129.637L262.39 130.633C259.925 130.426 257.7 129.662 256.795 128.259C255.891 129.662 253.666 130.426 251.184 130.633L250.802 129.637C253.5 129.463 255.808 128.533 256.065 127.064H251.466V126.035H256.148V124.657H257.426ZM278.211 130.982V132.044H272.119V133.505H276.485V136.809H267.719V138.303H276.933V139.333H266.424V135.83H275.207V134.518H266.391V133.505H270.824V132.044H264.764V130.982H278.211ZM276.468 125.238V129.737H266.507V125.238H276.468ZM267.802 126.284V128.691H275.173V126.284H267.802ZM287.641 125.885V126.666C287.625 127.628 287.625 129.106 287.259 131.032L285.948 130.932C286.305 129.164 286.338 127.911 286.363 126.981H280.287V125.885H287.641ZM283.839 129.156V132.327C285.475 132.26 287.168 132.144 288.704 131.928L288.787 132.891C285.699 133.422 282.129 133.489 279.506 133.489L279.374 132.41C280.328 132.401 281.407 132.393 282.544 132.36V129.156H283.839ZM291.028 124.74V129.554H293.186V130.667H291.028V135.846H289.7V124.74H291.028ZM291.509 138.087V139.183H281.648V134.85H282.959V138.087H291.509ZM306.334 124.74V139.532H305.04V124.74H306.334ZM301.852 126.118V131.364H296.34V134.85C298.789 134.85 300.972 134.742 303.612 134.319L303.745 135.415C301.022 135.846 298.781 135.946 296.241 135.946H295.012V130.301H300.541V127.197H294.979V126.118H301.852ZM321.458 124.74V139.499H320.213V131.762H318.039V138.735H316.843V125.072H318.039V130.683H320.213V124.74H321.458ZM314.917 126.549V127.628H310.684V134.734C312.718 134.726 314.129 134.651 315.764 134.319L315.88 135.415C314.104 135.78 312.593 135.846 310.335 135.846H309.389V126.549H314.917ZM328.531 127.545C328.531 129.471 329.975 131.198 332.15 131.912L331.536 132.941C329.834 132.385 328.547 131.206 327.917 129.72C327.277 131.414 325.916 132.733 324.148 133.373L323.484 132.327C325.692 131.58 327.236 129.67 327.252 127.545V126.915H323.882V125.835H331.851V126.915H328.531V127.545ZM335.072 124.74V128.508H337.296V129.604H335.072V133.655H333.777V124.74H335.072ZM330.34 134.053C333.378 134.053 335.205 135.049 335.205 136.743C335.205 138.469 333.378 139.465 330.34 139.465C327.302 139.465 325.443 138.469 325.443 136.743C325.443 135.049 327.302 134.053 330.34 134.053ZM330.34 135.099C328.116 135.099 326.738 135.713 326.754 136.743C326.738 137.805 328.116 138.419 330.34 138.419C332.582 138.419 333.943 137.805 333.943 136.743C333.943 135.713 332.582 135.099 330.34 135.099ZM356.587 131.762V132.858H343.124V131.762H356.587ZM355.01 129.289V130.351H344.833V125.337H354.911V126.433H346.112V129.289H355.01ZM349.847 134.153C353.018 134.153 354.911 135.116 354.927 136.809C354.911 138.519 353.018 139.465 349.847 139.465C346.66 139.465 344.75 138.519 344.75 136.809C344.75 135.116 346.66 134.153 349.847 134.153ZM349.847 135.166C347.473 135.182 346.062 135.78 346.079 136.809C346.062 137.855 347.473 138.436 349.847 138.436C352.188 138.436 353.616 137.855 353.616 136.809C353.616 135.78 352.188 135.182 349.847 135.166Z" fill="#1D1D1D"/>
<path d="M280.716 63.7561C284.02 63.7561 286.095 64.802 286.112 66.6116C286.095 68.3879 284.02 69.4504 280.716 69.4504C277.446 69.4504 275.337 68.3879 275.337 66.6116C275.337 64.802 277.446 63.7561 280.716 63.7561ZM280.716 65.3333C278.641 65.3333 277.446 65.7649 277.446 66.6116C277.446 67.425 278.641 67.8401 280.716 67.8401C282.792 67.8401 284.003 67.425 284.003 66.6116C284.003 65.7649 282.792 65.3333 280.716 65.3333ZM286.029 55.0237V56.2522C286.029 57.4475 286.029 58.7424 285.597 60.303L283.522 60.1038C283.854 58.7341 283.896 57.7131 283.92 56.6838H275.487V55.0237H286.029ZM287.656 61.0833V62.7932H273.943V61.0833H279.089V58.4436H281.181V61.0833H287.656ZM302.415 62.7932V64.4866H296.504V69.4338H294.413V64.4866H288.585V62.7932H302.415ZM300.754 55.0735V61.1663H290.212V55.0735H300.754ZM292.304 56.7502V59.5061H298.646V56.7502H292.304ZM316.094 54.3596V65.7649H313.969V64.5696H311.081V63.1252H313.969V54.3596H316.094ZM316.426 67.4915V69.1848H305.17V64.6692H307.279V62.6604C305.926 62.7185 304.639 62.7268 303.494 62.7268L303.245 61.05C306.017 61.0334 309.752 61.0002 312.94 60.6018L313.056 62.1125C311.861 62.3118 310.624 62.4529 309.404 62.5442V65.4163H307.279V67.4915H316.426ZM308.159 54.8743C310.35 54.8577 311.927 55.97 311.927 57.5803C311.927 59.1907 310.35 60.2366 308.159 60.2366C305.917 60.2366 304.357 59.1907 304.357 57.5803C304.357 55.97 305.901 54.8577 308.159 54.8743ZM308.159 56.4182C307.08 56.4182 306.349 56.8333 306.366 57.5803C306.349 58.3108 307.08 58.7092 308.159 58.7092C309.171 58.7092 309.902 58.3108 309.918 57.5803C309.902 56.8333 309.171 56.4182 308.159 56.4182Z" fill="#173E99"/>
<rect x="505" y="32" width="198" height="135" rx="18" fill="#EDF1F5"/>
<path d="M545.156 95.0698C548.327 95.0698 550.335 96.0659 550.335 97.7759C550.335 99.4692 548.327 100.465 545.156 100.465C542.001 100.465 539.993 99.4692 539.993 97.7759C539.993 96.0659 542.001 95.0698 545.156 95.0698ZM545.156 96.0659C542.798 96.0825 541.271 96.73 541.288 97.7759C541.271 98.8052 542.798 99.436 545.156 99.436C547.513 99.436 549.024 98.8052 549.041 97.7759C549.024 96.73 547.513 96.0825 545.156 96.0659ZM550.219 86.5034V87.7485C550.219 88.9438 550.219 90.1392 549.804 91.6665L548.526 91.5171C548.924 89.9897 548.924 88.9106 548.924 87.7485V87.5659H540.092V86.5034H550.219ZM551.929 92.6294V93.6919H538.499V92.6294H544.06V89.7739H545.338V92.6294H551.929ZM566.671 94.3228V95.4019H560.512V100.499H559.234V95.4019H553.158V94.3228H566.671ZM564.912 86.5698V92.314H554.901V86.5698H564.912ZM556.179 87.6323V91.2847H563.617V87.6323H556.179ZM580.036 85.7563V96.9624H578.724V95.4351H575.669V94.4888H578.724V85.7563H580.036ZM580.401 99.0874V100.183H569.909V95.8667H571.22V99.0874H580.401ZM567.784 92.5962C570.54 92.5796 574.225 92.563 577.396 92.1646L577.479 93.1108C576.159 93.3184 574.781 93.4512 573.428 93.5259V96.4478H572.117V93.5923C570.623 93.6587 569.203 93.667 567.966 93.6587L567.784 92.5962ZM572.631 86.354C574.79 86.354 576.267 87.3833 576.284 88.9272C576.267 90.5044 574.79 91.4839 572.631 91.4839C570.457 91.4839 568.979 90.5044 568.979 88.9272C568.979 87.3833 570.457 86.354 572.631 86.354ZM572.631 87.3501C571.187 87.3335 570.208 87.981 570.224 88.9272C570.208 89.8901 571.187 90.521 572.631 90.521C574.026 90.521 575.022 89.8901 575.039 88.9272C575.022 87.981 574.026 87.3335 572.631 87.3501ZM594.794 85.7563V96.6636H593.483V92.6792H589.665C588.984 93.5508 587.888 94.0737 586.626 94.0737C584.418 94.0737 582.792 92.5464 582.792 90.3882C582.792 88.23 584.418 86.7026 586.626 86.686C587.88 86.6943 588.951 87.209 589.648 88.064H593.483V85.7563H594.794ZM595.209 99.0874V100.183H585.315V95.5181H586.626V99.0874H595.209ZM586.626 87.8481C585.116 87.8647 584.037 88.9106 584.037 90.3882C584.037 91.8657 585.116 92.9116 586.626 92.9116C588.071 92.9116 589.183 91.8657 589.183 90.3882C589.183 88.9106 588.071 87.8647 586.626 87.8481ZM590.246 89.1431C590.37 89.5249 590.445 89.9399 590.445 90.3882C590.445 90.8198 590.37 91.2266 590.246 91.6001H593.483V89.1431H590.246ZM608.989 86.5366V87.6323C608.989 88.7778 608.989 90.1226 608.607 91.9653H610.765V93.0444H597.251V91.9653H607.295C607.694 90.1143 607.694 88.7778 607.694 87.6323V87.6157H598.961V86.5366H608.989ZM609.055 95.0864V100.299H598.912V95.0864H609.055ZM600.207 96.1157V99.2368H607.76V96.1157H600.207ZM620.128 86.8853V87.6655C620.112 88.6284 620.112 90.106 619.747 92.0317L618.435 91.9321C618.792 90.1641 618.825 88.9106 618.85 87.981H612.774V86.8853H620.128ZM616.327 90.1558V93.3267C617.962 93.2603 619.655 93.144 621.191 92.9282L621.274 93.8911C618.186 94.4224 614.617 94.4888 611.994 94.4888L611.861 93.4097C612.815 93.4014 613.895 93.3931 615.032 93.3599V90.1558H616.327ZM623.515 85.7397V90.5542H625.673V91.6665H623.515V96.8462H622.187V85.7397H623.515ZM623.997 99.0874V100.183H614.135V95.8501H615.447V99.0874H623.997ZM638.822 85.7397V100.532H637.527V85.7397H638.822ZM634.339 87.1177V92.3638H628.828V95.8501C631.276 95.8501 633.459 95.7422 636.099 95.3188L636.232 96.4146C633.509 96.8462 631.268 96.9458 628.728 96.9458H627.5V91.3013H633.028V88.1968H627.466V87.1177H634.339ZM648.002 95.0698C651.173 95.0698 653.182 96.0659 653.182 97.7759C653.182 99.4692 651.173 100.465 648.002 100.465C644.848 100.465 642.839 99.4692 642.839 97.7759C642.839 96.0659 644.848 95.0698 648.002 95.0698ZM648.002 96.0659C645.645 96.0825 644.118 96.73 644.134 97.7759C644.118 98.8052 645.645 99.436 648.002 99.436C650.36 99.436 651.871 98.8052 651.887 97.7759C651.871 96.73 650.36 96.0825 648.002 96.0659ZM653.066 86.5034V87.7485C653.066 88.9438 653.066 90.1392 652.651 91.6665L651.373 91.5171C651.771 89.9897 651.771 88.9106 651.771 87.7485V87.5659H642.939V86.5034H653.066ZM654.776 92.6294V93.6919H641.345V92.6294H646.907V89.7739H648.185V92.6294H654.776ZM667.559 85.7397V90.1392H669.8V91.2349H667.559V96.4312H666.264V85.7397H667.559ZM663.292 87.0181V88.1138H658.013V92.7124C660.977 92.7124 662.662 92.6377 664.637 92.231L664.803 93.3101C662.728 93.7085 660.968 93.8081 657.864 93.8081H656.718V87.0181H663.292ZM668.24 99.0874V100.183H658.329V95.3521H659.607V99.0874H668.24ZM550.75 108.296V109.359H543.346V108.296H546.417V106.188H547.712V108.296H550.75ZM547.048 110.355C548.908 110.355 550.236 111.75 550.252 113.708C550.236 115.684 548.908 117.095 547.048 117.095C545.206 117.095 543.877 115.684 543.877 113.708C543.877 111.75 545.206 110.355 547.048 110.355ZM547.048 111.451C545.886 111.467 545.04 112.414 545.04 113.708C545.04 115.02 545.886 115.966 547.048 115.95C548.227 115.966 549.09 115.02 549.09 113.708C549.09 112.414 548.227 111.467 547.048 111.451ZM555.947 105.74V120.499H554.702V113.044H552.743V119.768H551.514V106.105H552.743V111.965H554.702V105.74H555.947ZM569.626 105.74V109.591H571.834V110.687H569.626V114.555H568.315V105.74H569.626ZM564.878 114.837C567.883 114.837 569.743 115.883 569.743 117.643C569.743 119.436 567.883 120.465 564.878 120.465C561.857 120.465 559.981 119.436 559.981 117.643C559.981 115.883 561.857 114.837 564.878 114.837ZM564.878 115.917C562.654 115.9 561.259 116.564 561.259 117.643C561.259 118.739 562.654 119.419 564.878 119.419C567.086 119.419 568.481 118.739 568.481 117.643C568.481 116.564 567.086 115.9 564.878 115.917ZM565.31 106.869V107.948H560.031V112.281C563.019 112.264 564.746 112.173 566.721 111.766L566.854 112.845C564.795 113.26 563.019 113.343 559.898 113.343H558.752V106.869H565.31ZM582.941 110.272C582.941 112.779 584.767 115.319 586.942 116.265L586.211 117.294C584.485 116.506 582.991 114.804 582.31 112.762C581.613 114.929 580.127 116.813 578.442 117.66L577.662 116.63C579.77 115.618 581.613 112.829 581.629 110.272V108.346H578.143V107.267H586.46V108.346H582.941V110.272ZM589.831 105.74V120.499H588.519V105.74H589.831ZM599.161 115.02C602.199 115.02 604.025 116.016 604.025 117.743C604.025 119.486 602.199 120.482 599.161 120.499C596.123 120.482 594.263 119.486 594.263 117.743C594.263 116.016 596.123 115.02 599.161 115.02ZM599.161 116.049C596.936 116.066 595.558 116.68 595.575 117.743C595.558 118.805 596.936 119.436 599.161 119.436C601.402 119.436 602.763 118.805 602.763 117.743C602.763 116.68 601.402 116.066 599.161 116.049ZM603.892 105.74V109.458H606.117V110.571H603.892V114.622H602.597V105.74H603.892ZM594.263 106.669V108.927H598.563V106.669H599.858V113.476H592.985V106.669H594.263ZM594.263 112.414H598.563V109.957H594.263V112.414ZM612.043 110.272C612.027 112.646 613.737 115.252 615.878 116.265L615.131 117.294C613.471 116.489 612.068 114.729 611.413 112.729C610.732 114.904 609.246 116.813 607.594 117.66L606.797 116.63C608.922 115.601 610.749 112.795 610.765 110.272V108.346H607.329V107.267H615.364V108.346H612.043V110.272ZM618.468 105.74V111.716H620.942V112.829H618.468V120.499H617.173V105.74H618.468ZM633.908 105.74V120.499H632.596V105.74H633.908ZM627.184 110.554C627.184 113.028 628.911 115.418 631.135 116.365L630.405 117.377C628.703 116.622 627.259 115.02 626.57 113.061C625.906 115.136 624.47 116.838 622.768 117.643L622.038 116.63C624.229 115.634 625.906 113.144 625.906 110.554V109.375H622.436V108.313H625.889V106.022H627.184V108.313H630.621V109.375H627.184V110.554ZM647.969 105.74V110.139H650.21V111.235H647.969V116.431H646.674V105.74H647.969ZM643.703 107.018V108.114H638.423V112.712C641.387 112.712 643.072 112.638 645.047 112.231L645.213 113.31C643.138 113.708 641.378 113.808 638.274 113.808H637.128V107.018H643.703ZM648.65 119.087V120.183H638.739V115.352H640.017V119.087H648.65ZM655.44 110.289C655.44 112.663 656.652 115.086 658.661 116.166L657.914 117.145C656.444 116.348 655.382 114.821 654.842 113.044C654.311 114.937 653.257 116.581 651.788 117.477L651.007 116.481C653.016 115.319 654.195 112.729 654.211 110.289V109.558H651.406V108.479H654.211V106.288H655.457V108.479H658.212V109.558H655.44V110.289ZM663.741 105.74V120.499H662.496V105.74H663.741ZM660.752 106.105V119.735H659.524V112.679H657.2V111.567H659.524V106.105H660.752ZM572.789 128.296V129.359H565.385V128.296H568.456V126.188H569.751V128.296H572.789ZM569.087 130.355C570.946 130.355 572.274 131.75 572.291 133.708C572.274 135.684 570.946 137.095 569.087 137.095C567.244 137.095 565.916 135.684 565.916 133.708C565.916 131.75 567.244 130.355 569.087 130.355ZM569.087 131.451C567.925 131.467 567.078 132.414 567.078 133.708C567.078 135.02 567.925 135.966 569.087 135.95C570.266 135.966 571.129 135.02 571.129 133.708C571.129 132.414 570.266 131.467 569.087 131.451ZM577.985 125.74V140.499H576.74V133.044H574.781V139.768H573.553V126.105H574.781V131.965H576.74V125.74H577.985ZM591.665 125.74V129.591H593.873V130.687H591.665V134.555H590.354V125.74H591.665ZM586.917 134.837C589.922 134.837 591.781 135.883 591.781 137.643C591.781 139.436 589.922 140.465 586.917 140.465C583.896 140.465 582.02 139.436 582.02 137.643C582.02 135.883 583.896 134.837 586.917 134.837ZM586.917 135.917C584.692 135.9 583.298 136.564 583.298 137.643C583.298 138.739 584.692 139.419 586.917 139.419C589.125 139.419 590.52 138.739 590.52 137.643C590.52 136.564 589.125 135.9 586.917 135.917ZM587.349 126.869V127.948H582.069V132.281C585.058 132.264 586.784 132.173 588.76 131.766L588.893 132.845C586.834 133.26 585.058 133.343 581.937 133.343H580.791V126.869H587.349ZM611.554 127.234V128.877C611.554 130.77 611.554 132.679 611.022 135.418L609.744 135.269C610.275 132.663 610.275 130.72 610.275 128.877V128.313H601.111V127.234H611.554ZM613.147 137.328V138.407H599.7V137.328H603.037V132.463H604.332V137.328H606.723V132.463H608.001V137.328H613.147ZM627.84 132.862V133.924H624.254V135.8H626.18V140.499H624.868V136.846H615.887V135.8H617.962V133.924H614.393V132.862H627.84ZM621.116 126.105C624.32 126.088 626.329 127.151 626.329 128.911C626.329 130.687 624.32 131.75 621.116 131.733C617.912 131.75 615.887 130.687 615.887 128.911C615.887 127.151 617.912 126.088 621.116 126.105ZM621.116 127.151C618.726 127.134 617.215 127.815 617.231 128.911C617.215 130.04 618.726 130.72 621.116 130.72C623.474 130.72 625.001 130.04 625.001 128.911C625.001 127.815 623.474 127.134 621.116 127.151ZM619.273 135.8H622.976V133.924H619.273V135.8ZM634.115 128.911C634.115 130.753 635.709 132.397 637.884 133.044L637.253 134.057C635.543 133.551 634.173 132.43 633.518 130.969C632.87 132.588 631.525 133.858 629.766 134.439L629.135 133.443C631.31 132.712 632.837 130.919 632.837 128.911V128.595H629.5V127.549H632.837V125.673H634.148V127.549H637.452V128.595H634.115V128.911ZM641.32 125.74V134.688H640.009V131.052H636.987V129.973H640.009V125.74H641.32ZM636.423 135.086C639.494 135.086 641.37 136.049 641.37 137.776C641.37 139.486 639.494 140.465 636.423 140.465C633.352 140.465 631.476 139.486 631.476 137.776C631.476 136.049 633.352 135.086 636.423 135.086ZM636.423 136.099C634.165 136.116 632.754 136.73 632.771 137.776C632.754 138.805 634.165 139.436 636.423 139.436C638.697 139.436 640.075 138.805 640.075 137.776C640.075 136.73 638.697 136.116 636.423 136.099Z" fill="#1D1D1D"/>
<path d="M588.716 64.756C592.02 64.756 594.095 65.8019 594.112 67.6115C594.095 69.3878 592.02 70.4503 588.716 70.4503C585.446 70.4503 583.337 69.3878 583.337 67.6115C583.337 65.8019 585.446 64.756 588.716 64.756ZM588.716 66.3331C586.641 66.3331 585.446 66.7648 585.446 67.6115C585.446 68.4249 586.641 68.84 588.716 68.84C590.792 68.84 592.003 68.4249 592.003 67.6115C592.003 66.7648 590.792 66.3331 588.716 66.3331ZM594.029 56.0236V57.2521C594.029 58.4474 594.029 59.7423 593.597 61.3029L591.522 61.1036C591.854 59.734 591.896 58.713 591.92 57.6837H583.487V56.0236H594.029ZM595.656 62.0831V63.7931H581.943V62.0831H587.089V59.4435H589.181V62.0831H595.656ZM610.415 63.7931V65.4865H604.504V70.4337H602.413V65.4865H596.585V63.7931H610.415ZM608.754 56.0734V62.1661H598.212V56.0734H608.754ZM600.304 57.7501V60.506H606.646V57.7501H600.304ZM624.094 55.3595V66.7648H621.969V65.5695H619.081V64.1251H621.969V55.3595H624.094ZM624.426 68.4913V70.1847H613.17V65.6691H615.279V63.6603C613.926 63.7184 612.639 63.7267 611.494 63.7267L611.245 62.0499C614.017 62.0333 617.752 62.0001 620.94 61.6017L621.056 63.1124C619.861 63.3116 618.624 63.4528 617.404 63.5441V66.4161H615.279V68.4913H624.426ZM616.159 55.8741C618.35 55.8575 619.927 56.9698 619.927 58.5802C619.927 60.1906 618.35 61.2365 616.159 61.2365C613.917 61.2365 612.357 60.1906 612.357 58.5802C612.357 56.9698 613.901 55.8575 616.159 55.8741ZM616.159 57.4181C615.08 57.4181 614.349 57.8331 614.366 58.5802C614.349 59.3107 615.08 59.7091 616.159 59.7091C617.171 59.7091 617.902 59.3107 617.918 58.5802C617.902 57.8331 617.171 57.4181 616.159 57.4181Z" fill="#173E99"/>
<rect x="813" y="32" width="198" height="135" rx="18" fill="#EDF1F5"/>
<path d="M888.55 105.74V120.499H887.289V112.829H885.28V119.751H884.035V106.055H885.28V111.716H887.289V105.74H888.55ZM880.233 109.774C880.233 112.48 881.345 114.854 883.454 115.933L882.673 116.946C881.179 116.132 880.158 114.671 879.635 112.862C879.129 114.92 878.091 116.531 876.531 117.444L875.717 116.448C877.842 115.286 878.971 112.762 878.971 109.774V108.595H876.066V107.5H882.972V108.595H880.233V109.774ZM892.584 106.819V112.629C894.685 112.638 896.868 112.505 899.275 111.999L899.424 113.078C896.917 113.609 894.676 113.742 892.452 113.742H891.273V106.819H892.584ZM902.097 105.756V110.139H904.322V111.268H902.097V116.415H900.802V105.756H902.097ZM902.628 119.087V120.183H892.917V115.369H894.211V119.087H902.628ZM918.749 114.505V115.568H912.589V120.499H911.311V115.568H905.235V114.505H918.749ZM908.256 106.354V108.396H915.694V106.354H917.005V112.712H906.961V106.354H908.256ZM908.256 111.65H915.694V109.458H908.256V111.65ZM933.458 117.51V118.606H919.944V117.51H926.037V113.924H927.348V117.51H933.458ZM927.348 108.545C927.348 110.903 930.27 112.928 932.81 113.343L932.279 114.373C930.021 113.933 927.639 112.497 926.701 110.438C925.746 112.505 923.372 113.974 921.156 114.439L920.608 113.393C923.098 112.961 926.003 110.903 926.003 108.545V108.18H921.056V107.084H932.295V108.18H927.348V108.545ZM946.374 106.537V107.632C946.374 108.778 946.374 110.123 945.992 111.965H948.15V113.044H934.636V111.965H944.68C945.079 110.114 945.079 108.778 945.079 107.632V107.616H936.346V106.537H946.374ZM946.44 115.086V120.299H936.296V115.086H946.44ZM937.591 116.116V119.237H945.145V116.116H937.591Z" fill="#1D1D1D"/>
<path d="M903.116 59.4601C903.116 61.9005 904.361 64.507 906.901 65.5695L905.756 67.2296C903.971 66.4742 902.743 64.9718 902.07 63.129C901.381 65.1295 900.128 66.7897 898.352 67.6115L897.14 65.9347C899.646 64.8224 900.941 62.0167 900.941 59.4601V58.5304H897.737V56.8038H906.271V58.5304H903.116V59.4601ZM909.906 55.3429V70.4503H907.765V55.3429H909.906ZM915.684 63.9425V65.5529H921.976V63.9425H924.067V70.2843H913.608V63.9425H915.684ZM915.684 68.5743H921.976V67.1632H915.684V68.5743ZM924.134 55.9572V57.1691C924.134 58.3146 924.134 59.5431 923.785 61.2531H925.777V62.9464H911.948V61.2531H921.677C921.976 59.7921 922.017 58.6549 922.025 57.6505H913.642V55.9572H924.134Z" fill="#173E99"/>
<path d="M387 97C387 101.418 390.582 105 395 105C399.418 105 403 101.418 403 97C403 92.5817 399.418 89 395 89C390.582 89 387 92.5817 387 97ZM505 97L490 88.3397V105.66L505 97ZM395 98.5H491.5V95.5H395V98.5Z" fill="#5286FF"/>
<path d="M695 97C695 101.418 698.582 105 703 105C707.418 105 711 101.418 711 97C711 92.5817 707.418 89 703 89C698.582 89 695 92.5817 695 97ZM813 97L798 88.3397V105.66L813 97ZM703 98.5H799.5V95.5H703V98.5Z" fill="#5286FF"/>
</svg>
