<svg width="1200" height="398" viewBox="0 0 1200 398" fill="none" xmlns="http://www.w3.org/2000/svg">
<rect width="1200" height="398" fill="white"/>
<path d="M640 277H159V177" stroke="#5286FF" stroke-width="3"/>
<rect x="52" y="39" width="214" height="90" rx="18" fill="#EDF1F5"/>
<rect x="346" y="39" width="214" height="90" rx="18" fill="#EDF1F5"/>
<rect x="640" y="39" width="214" height="90" rx="18" fill="#EDF1F5"/>
<rect x="935" y="40" width="212" height="88" rx="17" fill="#D4E1FF" stroke="#173E99" stroke-width="2"/>
<rect x="640" y="233" width="214" height="90" rx="18" fill="#EDF1F5"/>
<path d="M130.16 67.5537C130.16 70.1602 131.887 72.833 133.979 73.8623L133.182 74.9082C131.555 74.0532 130.193 72.3101 129.546 70.2598C128.882 72.4429 127.487 74.3022 125.827 75.1904L124.997 74.1445C127.155 73.082 128.865 70.2432 128.882 67.5537V64.8643H130.16V67.5537ZM136.635 63.5859V69.5791H139.108V70.708H136.635V78.3447H135.34V63.5859H136.635ZM152.141 63.6025V74.4268H150.829V68.7656H147.791V67.6865H150.829V63.6025H152.141ZM152.556 76.9336V78.0293H142.661V73.4473H143.973V76.9336H152.556ZM145.035 66.6406C145.035 68.5498 146.513 70.4092 148.671 71.1396L147.99 72.1855C146.322 71.5879 145.035 70.3428 144.404 68.8154C143.765 70.5171 142.404 71.8784 140.652 72.5342L139.972 71.4717C142.146 70.708 143.724 68.7656 143.724 66.6406V65.877H140.387V64.7979H148.339V65.877H145.035V66.6406ZM159.877 68.1182C159.877 70.625 161.703 73.165 163.878 74.1113L163.147 75.1406C161.421 74.3521 159.927 72.6504 159.246 70.6084C158.549 72.7749 157.063 74.6592 155.378 75.5059L154.598 74.4766C156.706 73.4639 158.549 70.6748 158.565 68.1182V66.1924H155.079V65.1133H163.396V66.1924H159.877V68.1182ZM166.767 63.5859V78.3447H165.455V63.5859H166.767ZM181.21 70.5088V71.5713H176.645V75.3896H182.804V76.4854H169.29V75.3896H175.366V71.5713H171.017V64.7979H181.061V65.8604H172.328V70.5088H181.21ZM91.2959 97.3223C91.3125 94.1846 92.1592 91.5781 93.6865 89.3535H94.9482C93.8193 90.9971 92.7734 94.3672 92.7734 97.3223C92.7734 100.277 93.8193 103.631 94.9482 105.274H93.6865C92.1592 103.066 91.3125 100.46 91.2959 97.3223ZM108.063 89.6025V100.427H106.752V94.7656H103.714V93.6865H106.752V89.6025H108.063ZM108.479 102.934V104.029H98.584V99.4473H99.8955V102.934H108.479ZM100.958 92.6406C100.958 94.5498 102.436 96.4092 104.594 97.1396L103.913 98.1855C102.245 97.5879 100.958 96.3428 100.327 94.8154C99.688 96.5171 98.3267 97.8784 96.5752 98.5342L95.8945 97.4717C98.0693 96.708 99.6465 94.7656 99.6465 92.6406V91.877H96.3096V90.7979H104.262V91.877H100.958V92.6406ZM121.976 89.5859V95.8779H124.333V96.9736H121.976V104.345H120.664V89.5859H121.976ZM110.338 100.41C111.542 100.41 112.944 100.41 114.405 100.36V98.7168C112.687 98.5259 111.566 97.5215 111.583 96.0605C111.566 94.4004 112.978 93.3213 115.069 93.3213C117.128 93.3213 118.556 94.4004 118.572 96.0605C118.556 97.5215 117.418 98.5259 115.717 98.7334V100.311C117.095 100.244 118.481 100.136 119.768 99.9453L119.851 100.941C116.63 101.489 113.144 101.522 110.554 101.522L110.338 100.41ZM119.502 91.3955V92.458H110.604V91.3955H114.405V89.6191H115.717V91.3955H119.502ZM115.069 94.334C113.708 94.334 112.795 95.0312 112.795 96.0605C112.795 97.0898 113.708 97.7539 115.069 97.7373C116.414 97.7539 117.327 97.0898 117.327 96.0605C117.327 95.0312 116.414 94.334 115.069 94.334ZM127.902 101.888L126.607 106.403H125.379L126.292 101.888H127.902ZM147.542 89.6025V98.5508H146.297V94.5664H144.404V98.4512H143.176V89.835H144.404V93.4707H146.297V89.6025H147.542ZM147.542 99.2646V104.345H146.264V100.344H137.448V99.2646H147.542ZM142.146 90.8809V91.9932H140.868V96.4258C141.424 96.3926 141.964 96.3428 142.462 96.2764L142.528 97.2559C140.154 97.6543 137.033 97.7041 135.091 97.7041L134.941 96.6084L136.485 96.5918V91.9932H135.207V90.8809H142.146ZM137.714 96.5752C138.345 96.5669 139.009 96.542 139.656 96.5088V91.9932H137.714V96.5752ZM157.055 91.7607C157.055 94.2842 159.943 96.542 162.517 97.0234L161.919 98.1191C159.694 97.6045 157.345 96.019 156.391 93.8359C155.436 96.0107 153.095 97.5962 150.862 98.1191L150.265 97.0234C152.821 96.5254 155.693 94.3008 155.693 91.7607V90.6318H157.055V91.7607ZM163.214 101.257V102.336H149.7V101.257H163.214ZM177.856 96.6084V97.7041H164.393V96.6084H177.856ZM176.279 94.1348V95.1973H166.103V90.1836H176.18V91.2793H167.381V94.1348H176.279ZM171.116 98.999C174.287 98.999 176.18 99.9619 176.196 101.655C176.18 103.365 174.287 104.312 171.116 104.312C167.929 104.312 166.02 103.365 166.02 101.655C166.02 99.9619 167.929 98.999 171.116 98.999ZM171.116 100.012C168.742 100.028 167.331 100.626 167.348 101.655C167.331 102.701 168.742 103.282 171.116 103.282C173.457 103.282 174.885 102.701 174.885 101.655C174.885 100.626 173.457 100.028 171.116 100.012ZM196.151 89.5859V104.378H194.84V89.5859H196.151ZM188.299 90.7314C190.49 90.748 192.067 92.7402 192.067 95.8779C192.067 99.0156 190.49 101.008 188.299 101.008C186.091 101.008 184.53 99.0156 184.53 95.8779C184.53 92.7402 186.091 90.748 188.299 90.7314ZM188.299 91.8936C186.821 91.9102 185.792 93.4707 185.792 95.8779C185.792 98.2852 186.821 99.8457 188.299 99.8457C189.776 99.8457 190.806 98.2852 190.806 95.8779C190.806 93.4707 189.776 91.9102 188.299 91.8936ZM212.122 96.8906V97.9697H198.675V96.8906H202.012V94.8154C200.833 94.3589 200.169 93.6035 200.169 92.6074C200.169 90.8643 202.161 89.8682 205.398 89.8682C208.603 89.8682 210.611 90.8643 210.611 92.6074C210.611 93.5952 209.956 94.3506 208.785 94.7988V96.8906H212.122ZM205.398 99.0986C208.569 99.0986 210.462 100.012 210.479 101.705C210.462 103.382 208.569 104.312 205.398 104.312C202.194 104.312 200.302 103.382 200.302 101.705C200.302 100.012 202.194 99.0986 205.398 99.0986ZM205.398 100.095C203.024 100.111 201.613 100.692 201.63 101.705C201.613 102.701 203.024 103.299 205.398 103.299C207.739 103.299 209.167 102.701 209.167 101.705C209.167 100.692 207.739 100.111 205.398 100.095ZM205.398 90.8975C202.991 90.8975 201.497 91.5449 201.514 92.6074C201.497 93.6865 202.991 94.3174 205.398 94.3174C207.789 94.3174 209.283 93.6865 209.283 92.6074C209.283 91.5449 207.789 90.8975 205.398 90.8975ZM203.307 96.8906H207.49V95.1641C206.868 95.272 206.17 95.3301 205.398 95.3301C204.626 95.3301 203.929 95.272 203.307 95.1641V96.8906ZM216.704 97.3223C216.688 100.46 215.841 103.066 214.313 105.274H213.052C214.181 103.631 215.227 100.277 215.227 97.3223C215.227 94.3672 214.181 90.9971 213.052 89.3535H214.313C215.841 91.5781 216.688 94.1846 216.704 97.3223Z" fill="#1D1D1D"/>
<path d="M146.061 141.632V148.92H138.673V141.632H146.061ZM140.765 143.309V147.243H143.953V143.309H140.765ZM150.56 140.437V151.178H148.435V140.437H150.56ZM150.958 153.485V155.195H140.433V150.182H142.575V153.485H150.958ZM165.402 140.437V151.842H163.277V150.646H160.388V149.202H163.277V140.437H165.402ZM165.734 153.568V155.262H154.478V150.746H156.586V148.737C155.233 148.795 153.947 148.804 152.801 148.804L152.552 147.127C155.325 147.11 159.06 147.077 162.248 146.679L162.364 148.189C161.168 148.389 159.932 148.53 158.711 148.621V151.493H156.586V153.568H165.734ZM157.466 140.951C159.658 140.935 161.235 142.047 161.235 143.657C161.235 145.268 159.658 146.313 157.466 146.313C155.225 146.313 153.665 145.268 153.665 143.657C153.665 142.047 155.208 140.935 157.466 140.951ZM157.466 142.495C156.387 142.495 155.657 142.91 155.673 143.657C155.657 144.388 156.387 144.786 157.466 144.786C158.479 144.786 159.209 144.388 159.226 143.657C159.209 142.91 158.479 142.495 157.466 142.495ZM179.945 140.437V151.294H177.82V140.437H179.945ZM180.343 153.568V155.262H169.818V150.198H171.959V153.568H180.343ZM171.661 141.399C173.985 141.399 175.794 142.993 175.794 145.201C175.794 147.459 173.985 149.036 171.661 149.036C169.336 149.036 167.527 147.459 167.527 145.201C167.527 142.993 169.336 141.399 171.661 141.399ZM171.661 143.242C170.482 143.226 169.585 143.973 169.602 145.201C169.585 146.463 170.482 147.193 171.661 147.193C172.806 147.193 173.703 146.463 173.703 145.201C173.703 143.973 172.806 143.226 171.661 143.242Z" fill="#173E99"/>
<path d="M440.061 141.632V148.92H432.673V141.632H440.061ZM434.765 143.309V147.243H437.953V143.309H434.765ZM444.56 140.437V151.178H442.435V140.437H444.56ZM444.958 153.485V155.195H434.433V150.182H436.575V153.485H444.958ZM459.402 140.437V151.842H457.277V150.646H454.388V149.202H457.277V140.437H459.402ZM459.734 153.568V155.262H448.478V150.746H450.586V148.737C449.233 148.795 447.947 148.804 446.801 148.804L446.552 147.127C449.325 147.11 453.06 147.077 456.248 146.679L456.364 148.189C455.168 148.389 453.932 148.53 452.711 148.621V151.493H450.586V153.568H459.734ZM451.466 140.951C453.658 140.935 455.235 142.047 455.235 143.657C455.235 145.268 453.658 146.313 451.466 146.313C449.225 146.313 447.665 145.268 447.665 143.657C447.665 142.047 449.208 140.935 451.466 140.951ZM451.466 142.495C450.387 142.495 449.657 142.91 449.673 143.657C449.657 144.388 450.387 144.786 451.466 144.786C452.479 144.786 453.209 144.388 453.226 143.657C453.209 142.91 452.479 142.495 451.466 142.495ZM473.945 140.437V151.294H471.82V140.437H473.945ZM474.343 153.568V155.262H463.818V150.198H465.959V153.568H474.343ZM465.661 141.399C467.985 141.399 469.794 142.993 469.794 145.201C469.794 147.459 467.985 149.036 465.661 149.036C463.336 149.036 461.527 147.459 461.527 145.201C461.527 142.993 463.336 141.399 465.661 141.399ZM465.661 143.242C464.482 143.226 463.585 143.973 463.602 145.201C463.585 146.463 464.482 147.193 465.661 147.193C466.806 147.193 467.703 146.463 467.703 145.201C467.703 143.973 466.806 143.226 465.661 143.242Z" fill="#173E99"/>
<path d="M739.739 152.024V153.718H725.91V152.024H731.687V148.604H733.795V152.024H739.739ZM733.862 142.362C733.862 144.521 735.804 146.795 739.257 147.326L738.361 149.086C735.705 148.604 733.729 147.185 732.733 145.301C731.737 147.177 729.778 148.613 727.138 149.086L726.242 147.326C729.662 146.795 731.587 144.504 731.604 142.362V141.283H733.862V142.362ZM747.641 149.667C750.779 149.667 752.738 150.746 752.738 152.589C752.738 154.465 750.779 155.544 747.641 155.544C744.437 155.544 742.461 154.465 742.461 152.589C742.461 150.746 744.437 149.667 747.641 149.667ZM747.641 151.311C745.649 151.311 744.57 151.726 744.586 152.589C744.57 153.452 745.649 153.9 747.641 153.9C749.6 153.9 750.646 153.452 750.646 152.589C750.646 151.726 749.6 151.311 747.641 151.311ZM752.588 140.42V143.923H754.63V145.699H752.588V149.335H750.463V140.42H752.588ZM743.159 141.366V143.275H746.247V141.366H748.372V148.472H741.05V141.366H743.159ZM743.159 146.795H746.247V144.919H743.159V146.795ZM761.005 143.84C761.005 146.679 762.151 149.435 764.674 150.53L763.379 152.224C761.703 151.402 760.582 149.899 759.959 148.04C759.295 150.016 758.133 151.634 756.407 152.489L755.079 150.763C757.668 149.601 758.847 146.679 758.864 143.84V141.582H761.005V143.84ZM768.044 140.42V155.561H765.953V146.878H762.981V145.168H765.953V140.42H768.044Z" fill="#173E99"/>
<path d="M739.739 352.024V353.718H725.91V352.024H731.687V348.604H733.795V352.024H739.739ZM733.862 342.362C733.862 344.521 735.804 346.795 739.257 347.326L738.361 349.086C735.705 348.604 733.729 347.185 732.733 345.301C731.737 347.177 729.778 348.613 727.138 349.086L726.242 347.326C729.662 346.795 731.587 344.504 731.604 342.362V341.283H733.862V342.362ZM747.641 349.667C750.779 349.667 752.738 350.746 752.738 352.589C752.738 354.465 750.779 355.544 747.641 355.544C744.437 355.544 742.461 354.465 742.461 352.589C742.461 350.746 744.437 349.667 747.641 349.667ZM747.641 351.311C745.649 351.311 744.57 351.726 744.586 352.589C744.57 353.452 745.649 353.9 747.641 353.9C749.6 353.9 750.646 353.452 750.646 352.589C750.646 351.726 749.6 351.311 747.641 351.311ZM752.588 340.42V343.923H754.63V345.699H752.588V349.335H750.463V340.42H752.588ZM743.159 341.366V343.275H746.247V341.366H748.372V348.472H741.05V341.366H743.159ZM743.159 346.795H746.247V344.919H743.159V346.795ZM761.005 343.84C761.005 346.679 762.151 349.435 764.674 350.53L763.379 352.224C761.703 351.402 760.582 349.899 759.959 348.04C759.295 350.016 758.133 351.634 756.407 352.489L755.079 350.763C757.668 349.601 758.847 346.679 758.864 343.84V341.582H761.005V343.84ZM768.044 340.42V355.561H765.953V346.878H762.981V345.168H765.953V340.42H768.044Z" fill="#173E99"/>
<path d="M1036.74 152.024V153.718H1022.91V152.024H1028.69V148.604H1030.8V152.024H1036.74ZM1030.86 142.362C1030.86 144.521 1032.8 146.795 1036.26 147.326L1035.36 149.086C1032.7 148.604 1030.73 147.185 1029.73 145.301C1028.74 147.177 1026.78 148.613 1024.14 149.086L1023.24 147.326C1026.66 146.795 1028.59 144.504 1028.6 142.362V141.283H1030.86V142.362ZM1044.64 149.667C1047.78 149.667 1049.74 150.746 1049.74 152.589C1049.74 154.465 1047.78 155.544 1044.64 155.544C1041.44 155.544 1039.46 154.465 1039.46 152.589C1039.46 150.746 1041.44 149.667 1044.64 149.667ZM1044.64 151.311C1042.65 151.311 1041.57 151.726 1041.59 152.589C1041.57 153.452 1042.65 153.9 1044.64 153.9C1046.6 153.9 1047.65 153.452 1047.65 152.589C1047.65 151.726 1046.6 151.311 1044.64 151.311ZM1049.59 140.42V143.923H1051.63V145.699H1049.59V149.335H1047.46V140.42H1049.59ZM1040.16 141.366V143.275H1043.25V141.366H1045.37V148.472H1038.05V141.366H1040.16ZM1040.16 146.795H1043.25V144.919H1040.16V146.795ZM1058.01 143.84C1058.01 146.679 1059.15 149.435 1061.67 150.53L1060.38 152.224C1058.7 151.402 1057.58 149.899 1056.96 148.04C1056.3 150.016 1055.13 151.634 1053.41 152.489L1052.08 150.763C1054.67 149.601 1055.85 146.679 1055.86 143.84V141.582H1058.01V143.84ZM1065.04 140.42V155.561H1062.95V146.878H1059.98V145.168H1062.95V140.42H1065.04Z" fill="#173E99"/>
<path d="M428.905 63.5859V68.085H431.129V69.1807H428.905V74.4766H427.61V63.5859H428.905ZM429.585 76.9336V78.0293H419.674V73.3477H420.953V76.9336H429.585ZM421.517 64.6318C423.725 64.6318 425.385 66.126 425.402 68.2676C425.385 70.4092 423.725 71.9033 421.517 71.9033C419.309 71.9033 417.632 70.4092 417.649 68.2676C417.632 66.126 419.309 64.6318 421.517 64.6318ZM421.517 65.7773C420.056 65.7773 418.911 66.8066 418.927 68.2676C418.911 69.7285 420.056 70.7578 421.517 70.7578C423.011 70.7578 424.124 69.7285 424.124 68.2676C424.124 66.8066 423.011 65.7773 421.517 65.7773ZM444.294 63.6025V74.4268H442.983V68.7656H439.945V67.6865H442.983V63.6025H444.294ZM444.709 76.9336V78.0293H434.815V73.4473H436.126V76.9336H444.709ZM437.189 66.6406C437.189 68.5498 438.667 70.4092 440.825 71.1396L440.144 72.1855C438.476 71.5879 437.189 70.3428 436.558 68.8154C435.919 70.5171 434.558 71.8784 432.806 72.5342L432.125 71.4717C434.3 70.708 435.877 68.7656 435.877 66.6406V65.877H432.541V64.7979H440.493V65.877H437.189V66.6406ZM451.998 67.5537C451.981 70.2432 453.824 72.9658 455.999 73.9453L455.202 74.9746C453.525 74.1528 452.072 72.418 451.367 70.3096C450.678 72.5425 449.225 74.4019 447.499 75.2734L446.668 74.1777C448.86 73.165 450.686 70.3594 450.703 67.5537V64.8643H451.998V67.5537ZM458.92 63.5859V78.3779H457.609V63.5859H458.92ZM473.679 63.5859V71.2227H472.368V67.3877H469.081V66.3086H472.368V63.5859H473.679ZM473.679 71.9697V75.4893H465.428V77.0996H474.227V78.1455H464.15V74.4932H472.384V73.0156H464.117V71.9697H473.679ZM466.474 65.4619C466.458 67.4043 467.985 69.1641 470.143 69.8779L469.446 70.8906C467.811 70.3096 466.507 69.1475 465.86 67.6533C465.229 69.3384 463.893 70.625 462.141 71.2559L461.427 70.21C463.652 69.4795 465.179 67.6201 465.196 65.4619V64.0674H466.474V65.4619ZM489.6 70.6084V71.7041H476.136V70.6084H489.6ZM488.023 68.1348V69.1973H477.846V64.1836H487.923V65.2793H479.125V68.1348H488.023ZM482.86 72.999C486.031 72.999 487.923 73.9619 487.94 75.6553C487.923 77.3652 486.031 78.3115 482.86 78.3115C479.672 78.3115 477.763 77.3652 477.763 75.6553C477.763 73.9619 479.672 72.999 482.86 72.999ZM482.86 74.0117C480.486 74.0283 479.075 74.626 479.091 75.6553C479.075 76.7012 480.486 77.2822 482.86 77.2822C485.201 77.2822 486.628 76.7012 486.628 75.6553C486.628 74.626 485.201 74.0283 482.86 74.0117ZM395.32 89.5859V97.2227H394.008V93.3877H390.721V92.3086H394.008V89.5859H395.32ZM395.32 97.9697V101.489H387.069V103.1H395.868V104.146H385.791V100.493H394.025V99.0156H385.757V97.9697H395.32ZM388.115 91.4619C388.098 93.4043 389.625 95.1641 391.784 95.8779L391.086 96.8906C389.451 96.3096 388.148 95.1475 387.5 93.6533C386.87 95.3384 385.533 96.625 383.782 97.2559L383.068 96.21C385.292 95.4795 386.82 93.6201 386.836 91.4619V90.0674H388.115V91.4619ZM409.946 89.5859V104.345H408.634V89.5859H409.946ZM403.222 94.4004C403.222 96.874 404.949 99.2646 407.173 100.211L406.443 101.224C404.741 100.468 403.297 98.8662 402.608 96.9072C401.944 98.9824 400.508 100.684 398.806 101.489L398.076 100.477C400.267 99.4805 401.944 96.9902 401.944 94.4004V93.2217H398.474V92.1592H401.927V89.8682H403.222V92.1592H406.659V93.2217H403.222V94.4004ZM424.655 89.6025V100.427H423.36V89.6025H424.655ZM425.12 102.934V104.029H415.125V99.4307H416.42V102.934H425.12ZM417.699 91.9102C417.682 94.1514 419.226 96.1768 421.417 96.9736L420.737 98.0195C419.027 97.3638 417.699 96.0356 417.051 94.334C416.396 96.1436 415.051 97.5962 413.333 98.2852L412.619 97.2725C414.86 96.4092 416.371 94.2344 416.371 91.9102V90.4326H417.699V91.9102ZM438.999 91.0801V92.5576C438.982 94.3672 438.982 96.3926 438.451 99.3643L437.123 99.2148C437.687 96.3926 437.687 94.3174 437.687 92.5576V92.1592H428.589V91.0801H438.999ZM440.609 101.174V102.253H427.162V101.174H432.441V95.8945H433.719V101.174H440.609ZM454.455 90.5488V96.5586H447.532V90.5488H454.455ZM448.81 91.6113V95.5293H453.176V91.6113H448.81ZM458.92 89.5859V98.0693H457.642V89.5859H458.92ZM454.919 100.095C454.919 101.539 457.277 102.967 459.817 103.282L459.369 104.295C457.144 103.996 455.119 102.95 454.255 101.572C453.359 102.975 451.284 103.996 449.059 104.295L448.594 103.282C451.134 103 453.575 101.572 453.575 100.095H449.208V99.082H453.591V97.6377H454.886V99.082H459.302V100.095H454.919ZM470.84 90.2832C472.999 90.2832 474.509 91.4453 474.509 93.2051C474.509 94.7241 473.314 95.8281 471.538 96.0439V97.4883C472.916 97.4302 474.318 97.3057 475.605 97.1064L475.705 98.0859C472.583 98.6504 469.047 98.6836 466.491 98.6836L466.325 97.6045C467.47 97.6128 468.815 97.6045 470.226 97.5547V96.0605C468.4 95.8613 467.171 94.749 467.188 93.2051C467.171 91.4453 468.682 90.2832 470.84 90.2832ZM470.84 91.2959C469.413 91.2959 468.4 92.0596 468.417 93.2051C468.4 94.3174 469.413 95.0811 470.84 95.0977C472.285 95.0811 473.264 94.3174 473.281 93.2051C473.264 92.0596 472.285 91.2959 470.84 91.2959ZM477.863 89.6025V94.5996H480.071V95.7119H477.863V100.892H476.551V89.6025H477.863ZM478.394 102.917V104.013H468.483V99.9121H469.794V102.917H478.394ZM487.708 98.916C490.878 98.916 492.887 99.9121 492.887 101.622C492.887 103.315 490.878 104.312 487.708 104.312C484.553 104.312 482.544 103.315 482.544 101.622C482.544 99.9121 484.553 98.916 487.708 98.916ZM487.708 99.9121C485.35 99.9287 483.823 100.576 483.839 101.622C483.823 102.651 485.35 103.282 487.708 103.282C490.065 103.282 491.576 102.651 491.592 101.622C491.576 100.576 490.065 99.9287 487.708 99.9121ZM492.771 90.3496V91.5947C492.771 92.79 492.771 93.9854 492.356 95.5127L491.078 95.3633C491.476 93.8359 491.476 92.7568 491.476 91.5947V91.4121H482.644V90.3496H492.771ZM494.481 96.4756V97.5381H481.05V96.4756H486.612V93.6201H487.89V96.4756H494.481ZM507.912 89.6025V100.427H506.617V89.6025H507.912ZM508.376 102.934V104.029H498.382V99.4307H499.677V102.934H508.376ZM500.956 91.9102C500.939 94.1514 502.483 96.1768 504.674 96.9736L503.994 98.0195C502.284 97.3638 500.956 96.0356 500.308 94.334C499.652 96.1436 498.308 97.5962 496.589 98.2852L495.875 97.2725C498.117 96.4092 499.627 94.2344 499.627 91.9102V90.4326H500.956V91.9102ZM522.255 91.0801V92.5576C522.239 94.3672 522.239 96.3926 521.708 99.3643L520.379 99.2148C520.944 96.3926 520.944 94.3174 520.944 92.5576V92.1592H511.846V91.0801H522.255ZM523.866 101.174V102.253H510.418V101.174H515.698V95.8945H516.976V101.174H523.866Z" fill="#1D1D1D"/>
<path d="M691.378 77.2832C693.537 77.2832 695.047 78.4453 695.047 80.2051C695.047 81.7241 693.852 82.8281 692.076 83.0439V84.4883C693.454 84.4302 694.856 84.3057 696.143 84.1064L696.243 85.0859C693.122 85.6504 689.585 85.6836 687.029 85.6836L686.863 84.6045C688.008 84.6128 689.353 84.6045 690.764 84.5547V83.0605C688.938 82.8613 687.709 81.749 687.726 80.2051C687.709 78.4453 689.22 77.2832 691.378 77.2832ZM691.378 78.2959C689.951 78.2959 688.938 79.0596 688.955 80.2051C688.938 81.3174 689.951 82.0811 691.378 82.0977C692.823 82.0811 693.802 81.3174 693.819 80.2051C693.802 79.0596 692.823 78.2959 691.378 78.2959ZM698.401 76.6025V81.5996H700.609V82.7119H698.401V87.8916H697.089V76.6025H698.401ZM698.932 89.917V91.0127H689.021V86.9121H690.333V89.917H698.932ZM708.246 85.916C711.417 85.916 713.425 86.9121 713.425 88.6221C713.425 90.3154 711.417 91.3115 708.246 91.3115C705.091 91.3115 703.083 90.3154 703.083 88.6221C703.083 86.9121 705.091 85.916 708.246 85.916ZM708.246 86.9121C705.888 86.9287 704.361 87.5762 704.377 88.6221C704.361 89.6514 705.888 90.2822 708.246 90.2822C710.603 90.2822 712.114 89.6514 712.13 88.6221C712.114 87.5762 710.603 86.9287 708.246 86.9121ZM713.309 77.3496V78.5947C713.309 79.79 713.309 80.9854 712.894 82.5127L711.616 82.3633C712.014 80.8359 712.014 79.7568 712.014 78.5947V78.4121H703.182V77.3496H713.309ZM715.019 83.4756V84.5381H701.588V83.4756H707.15V80.6201H708.428V83.4756H715.019ZM723.884 77.5488C723.868 81.251 721.228 83.9072 716.978 85.1191L716.43 84.0898C719.958 83.0938 722.208 81.1348 722.49 78.6279H717.194V77.5488H723.884ZM728.5 76.6025V85.0195H727.188V81.5H723.917V80.4043H727.188V76.6025H728.5ZM728.5 85.6504V91.1455H718.92V85.6504H728.5ZM720.182 86.6963V90.083H727.205V86.6963H720.182ZM735.904 80.5537C735.904 83.1602 737.63 85.833 739.722 86.8623L738.925 87.9082C737.298 87.0532 735.937 85.3101 735.29 83.2598C734.625 85.4429 733.231 87.3022 731.571 88.1904L730.741 87.1445C732.899 86.082 734.609 83.2432 734.625 80.5537V77.8643H735.904V80.5537ZM742.378 76.5859V82.5791H744.852V83.708H742.378V91.3447H741.083V76.5859H742.378ZM762.782 76.6025V87.8584H761.47V84.6875H758.914V83.625H761.47V81.6162H758.914V80.5371H761.47V76.6025H762.782ZM758.914 78.4121V79.4746H750.563V78.4121H754.149V76.5859H755.444V78.4121H758.914ZM754.78 80.2881C756.755 80.2881 758.15 81.417 758.15 83.1104C758.15 84.7871 756.755 85.9326 754.78 85.9326C752.804 85.9326 751.426 84.7871 751.443 83.1104C751.426 81.417 752.804 80.2881 754.78 80.2881ZM754.78 81.3174C753.518 81.334 752.655 82.0479 752.655 83.1104C752.655 84.1729 753.518 84.8867 754.78 84.8867C756.042 84.8867 756.905 84.1729 756.921 83.1104C756.905 82.0479 756.042 81.334 754.78 81.3174ZM763.114 89.9336V91.0293H753.236V86.8623H754.547V89.9336H763.114ZM770.236 79.3916C770.236 81.3174 771.68 83.0439 773.855 83.7578L773.241 84.7871C771.539 84.231 770.252 83.0522 769.622 81.5664C768.982 83.2598 767.621 84.5796 765.853 85.2188L765.189 84.1729C767.397 83.4258 768.941 81.5166 768.958 79.3916V78.7607H765.587V77.6816H773.556V78.7607H770.236V79.3916ZM776.777 76.5859V80.3545H779.001V81.4502H776.777V85.501H775.482V76.5859H776.777ZM772.045 85.8994C775.083 85.8994 776.91 86.8955 776.91 88.5889C776.91 90.3154 775.083 91.3115 772.045 91.3115C769.007 91.3115 767.148 90.3154 767.148 88.5889C767.148 86.8955 769.007 85.8994 772.045 85.8994ZM772.045 86.9453C769.821 86.9453 768.443 87.5596 768.459 88.5889C768.443 89.6514 769.821 90.2656 772.045 90.2656C774.287 90.2656 775.648 89.6514 775.648 88.5889C775.648 87.5596 774.287 86.9453 772.045 86.9453ZM791.453 76.6025V81.0684H793.661V82.1641H791.453V86.4971H790.141V76.6025H791.453ZM779.865 84.9863C781.043 84.9863 782.421 84.9863 783.866 84.9365V83.8574C782.147 83.708 781.043 82.9028 781.043 81.6826C781.043 80.3379 782.421 79.5078 784.497 79.5078C786.588 79.5078 787.95 80.3379 787.966 81.6826C787.95 82.8945 786.871 83.6997 785.161 83.8574V84.8867C786.539 84.8203 787.933 84.7124 789.228 84.5215L789.344 85.4678C786.14 86.0322 782.604 86.0488 780.014 86.0488L779.865 84.9863ZM791.453 87.2275V91.3447H790.141V88.2734H781.674V87.2275H791.453ZM788.78 77.9473V78.9434H780.23V77.9473H783.866V76.4697H785.161V77.9473H788.78ZM784.497 80.4375C783.135 80.4209 782.289 80.9023 782.289 81.6826C782.289 82.4463 783.135 82.9775 784.497 82.9609C785.858 82.9775 786.721 82.4463 786.721 81.6826C786.721 80.9023 785.858 80.4209 784.497 80.4375ZM806.809 76.6025V87.3936H805.514V76.6025H806.809ZM807.274 89.9336V91.0293H797.28V86.2979H798.575V89.9336H807.274ZM798.84 77.6318C801.048 77.6318 802.708 79.126 802.708 81.251C802.708 83.4092 801.048 84.8867 798.84 84.8867C796.632 84.8867 794.972 83.4092 794.972 81.251C794.972 79.126 796.632 77.6318 798.84 77.6318ZM798.84 78.7773C797.346 78.7773 796.234 79.8066 796.25 81.251C796.234 82.7285 797.346 83.7412 798.84 83.7412C800.301 83.7412 801.43 82.7285 801.43 81.251C801.43 79.8066 800.301 78.7773 798.84 78.7773Z" fill="#1D1D1D"/>
<path d="M714.569 279.352V280.414H708.41V285.345H707.131V280.414H701.055V279.352H714.569ZM704.077 271.2V273.242H711.514V271.2H712.826V277.559H702.782V271.2H704.077ZM704.077 276.496H711.514V274.305H704.077V276.496ZM720.894 273.309C720.894 275.234 722.372 277.061 724.53 277.808L723.849 278.837C722.181 278.239 720.894 277.002 720.263 275.483C719.624 277.185 718.263 278.546 716.511 279.186L715.831 278.156C718.005 277.376 719.583 275.4 719.583 273.325V272.678H716.246V271.615H724.198V272.678H720.894V273.309ZM728 280.215V285.345H726.688V281.294H718.072V280.215H728ZM728 270.586V279.435H726.688V275.55H723.733V274.454H726.688V270.586H728ZM741.995 270.586V274.371H744.219V275.483H741.995V279.169H740.7V270.586H741.995ZM733.959 279.816V281.394H740.7V279.816H741.995V285.146H732.665V279.816H733.959ZM733.959 284.1H740.7V282.423H733.959V284.1ZM739.289 272.113V273.192H730.49V272.113H734.242V270.453H735.537V272.113H739.289ZM734.889 273.873C737.014 273.873 738.425 274.886 738.442 276.463C738.425 278.04 737.014 279.053 734.889 279.053C732.748 279.053 731.32 278.04 731.336 276.463C731.32 274.886 732.748 273.873 734.889 273.873ZM734.889 274.886C733.495 274.869 732.565 275.517 732.582 276.463C732.565 277.426 733.495 278.057 734.889 278.057C736.267 278.057 737.197 277.426 737.213 276.463C737.197 275.517 736.267 274.869 734.889 274.886ZM750.395 274.554C750.378 277.243 752.221 279.966 754.396 280.945L753.599 281.975C751.922 281.153 750.47 279.418 749.764 277.31C749.075 279.542 747.623 281.402 745.896 282.273L745.066 281.178C747.257 280.165 749.083 277.359 749.1 274.554V271.864H750.395V274.554ZM757.318 270.586V285.378H756.006V270.586H757.318ZM778.186 278.422V279.484H764.722V278.422H770.798V276.961H766.515V271.018H776.509V272.08H767.827V273.458H776.111V274.454H767.827V275.915H776.592V276.961H772.093V278.422H778.186ZM771.462 280.597C774.7 280.58 776.526 281.41 776.542 282.954C776.526 284.498 774.7 285.312 771.462 285.312C768.192 285.312 766.366 284.498 766.366 282.954C766.366 281.41 768.192 280.58 771.462 280.597ZM771.462 281.576C769.022 281.576 767.661 282.074 767.677 282.954C767.661 283.851 769.022 284.315 771.462 284.299C773.87 284.315 775.231 283.851 775.231 282.954C775.231 282.074 773.87 281.576 771.462 281.576ZM792.945 282.373V283.452H779.431V282.373H785.507V279.186H781.025V271.632H782.336V274.305H790.006V271.632H791.285V279.186H786.786V282.373H792.945ZM782.336 278.123H790.006V275.367H782.336V278.123Z" fill="#1D1D1D"/>
<path d="M995.225 76.2832C997.383 76.2832 998.894 77.4453 998.894 79.2051C998.894 80.7241 997.698 81.8281 995.922 82.0439V83.4883C997.3 83.4302 998.703 83.3057 999.989 83.1064L1000.09 84.0859C996.968 84.6504 993.432 84.6836 990.875 84.6836L990.709 83.6045C991.854 83.6128 993.199 83.6045 994.61 83.5547V82.0605C992.784 81.8613 991.556 80.749 991.572 79.2051C991.556 77.4453 993.066 76.2832 995.225 76.2832ZM995.225 77.2959C993.797 77.2959 992.784 78.0596 992.801 79.2051C992.784 80.3174 993.797 81.0811 995.225 81.0977C996.669 81.0811 997.648 80.3174 997.665 79.2051C997.648 78.0596 996.669 77.2959 995.225 77.2959ZM1002.25 75.6025V80.5996H1004.46V81.7119H1002.25V86.8916H1000.94V75.6025H1002.25ZM1002.78 88.917V90.0127H992.867V85.9121H994.179V88.917H1002.78ZM1017.59 75.5859V90.3779H1016.28V75.5859H1017.59ZM1007.58 76.8477V80.749H1011.98V76.8477H1013.25V86.8086H1006.28V76.8477H1007.58ZM1007.58 85.7129H1011.98V81.7949H1007.58V85.7129ZM1033.56 82.6084V83.6875H1020.11V82.6084H1033.56ZM1026.83 84.9824C1030 84.9824 1031.9 85.9619 1031.91 87.6553C1031.9 89.3652 1030 90.3115 1026.83 90.3115C1023.65 90.3115 1021.74 89.3652 1021.74 87.6553C1021.74 85.9619 1023.65 84.9824 1026.83 84.9824ZM1026.83 86.0117C1024.46 86.0283 1023.05 86.6094 1023.07 87.6553C1023.05 88.6846 1024.46 89.2656 1026.83 89.2656C1029.17 89.2656 1030.6 88.6846 1030.6 87.6553C1030.6 86.6094 1029.17 86.0283 1026.83 86.0117ZM1032.36 76.3496V77.4287H1027.68C1027.73 79.1055 1030.19 80.3838 1032.81 80.6826L1032.33 81.7285C1029.91 81.4214 1027.65 80.3423 1026.83 78.6904C1026.03 80.3423 1023.77 81.4214 1021.34 81.7285L1020.87 80.6826C1023.45 80.3838 1025.92 79.1055 1025.99 77.4287H1021.34V76.3496H1032.36ZM1047.04 75.5859V84.335H1045.73V82.0107H1042.27V83.2725H1035.5V76.7148H1042.27V77.9932H1045.73V75.5859H1047.04ZM1036.79 77.7773V82.21H1041V77.7773H1036.79ZM1042.14 84.7666C1045.21 84.7666 1047.09 85.7793 1047.09 87.5557C1047.09 89.3154 1045.21 90.3115 1042.14 90.3115C1039.07 90.3115 1037.19 89.3154 1037.19 87.5557C1037.19 85.7793 1039.07 84.7666 1042.14 84.7666ZM1042.14 85.7793C1039.88 85.7959 1038.47 86.4434 1038.49 87.5557C1038.47 88.6182 1039.88 89.2822 1042.14 89.2822C1044.4 89.2822 1045.79 88.6182 1045.79 87.5557C1045.79 86.4434 1044.4 85.7959 1042.14 85.7793ZM1042.27 80.915H1045.73V79.0723H1042.27V80.915ZM1054.69 79.5537C1054.69 82.2266 1056.4 84.916 1058.54 85.8955L1057.76 86.958C1056.09 86.0947 1054.7 84.3267 1054.04 82.2266C1053.39 84.4346 1052 86.3271 1050.33 87.2236L1049.48 86.1777C1051.64 85.1152 1053.36 82.2764 1053.36 79.5537V76.8643H1054.69V79.5537ZM1061.73 75.5859V90.3779H1060.44V81.6953H1056.93V80.6328H1060.44V75.5859H1061.73ZM1070.99 76.2168V78.3418H1075.29V76.2168H1076.59V82.6416H1069.72V76.2168H1070.99ZM1070.99 81.5791H1075.29V79.3545H1070.99V81.5791ZM1080.62 75.5859V78.79H1082.85V79.8857H1080.62V83.2227H1079.33V75.5859H1080.62ZM1080.62 83.9199V87.4893H1072.52V89.1162H1081.17V90.1787H1071.24V86.4932H1079.33V84.9658H1071.21V83.9199H1080.62ZM1086.83 84.0361V85.9951H1094.22V84.0361H1095.51V90.1455H1085.54V84.0361H1086.83ZM1086.83 89.083H1094.22V87.0244H1086.83V89.083ZM1095.51 76.2666V77.3457C1095.51 78.4746 1095.51 79.7861 1095.12 81.6289H1097.29V82.708H1083.78V81.6289H1093.84C1094.22 79.7944 1094.22 78.4746 1094.22 77.3457H1085.49V76.2666H1095.51Z" fill="#1D1D1D"/>
<path d="M259 83C259 87.4183 262.582 91 267 91C271.418 91 275 87.4183 275 83C275 78.5817 271.418 75 267 75C262.582 75 259 78.5817 259 83ZM346 83L331 74.3397V91.6603L346 83ZM267 84.5H332.5V81.5H267V84.5Z" fill="#5286FF"/>
<path d="M553 84C553 88.4183 556.582 92 561 92C565.418 92 569 88.4183 569 84C569 79.5817 565.418 76 561 76C556.582 76 553 79.5817 553 84ZM640 84L625 75.3397V92.6603L640 84ZM561 85.5H626.5V82.5H561V85.5Z" fill="#5286FF"/>
<path d="M847 84C847 88.4183 850.582 92 855 92C859.418 92 863 88.4183 863 84C863 79.5817 859.418 76 855 76C850.582 76 847 79.5817 847 84ZM934 84L919 75.3397V92.6603L934 84ZM855 85.5H920.5V82.5H855V85.5Z" fill="#5286FF"/>
<path d="M747 227L755.66 212H738.34L747 227ZM745.5 164V213.5H748.5V164H745.5Z" fill="#5286FF"/>
<path d="M159 163L150.34 178L167.66 178L159 163Z" fill="#5286FF"/>
<rect x="713.5" y="176.5" width="68" height="26" rx="11.5" fill="white" stroke="#5286FF"/>
<path d="M739.722 190.136V191.796H733.812V196.527H731.72V191.796H725.893V190.136H739.722ZM729.612 182.001V183.744H735.954V182.001H738.079V188.675H727.52V182.001H729.612ZM729.612 186.981H735.954V185.404H729.612V186.981ZM749.318 182.267V183.943H746.313C746.33 185.728 747.392 187.554 749.783 188.343L748.737 189.97C747.06 189.438 745.915 188.343 745.267 186.981C744.586 188.492 743.383 189.712 741.598 190.285L740.519 188.608C743.001 187.812 744.13 185.828 744.155 183.943H741.117V182.267H749.318ZM753.335 191.082V196.527H751.227V192.775H742.959V191.082H753.335ZM753.335 181.42V190.418H751.227V186.782H748.886V185.056H751.227V181.42H753.335ZM767.281 181.42V185.056H769.323V186.815H767.281V190.269H765.156V181.42H767.281ZM759.495 190.85V191.995H765.156V190.85H767.281V196.361H757.386V190.85H759.495ZM759.495 194.701H765.156V193.622H759.495V194.701ZM764.259 182.748V184.408H755.294V182.748H758.731V181.32H760.839V182.748H764.259ZM759.777 184.84C761.968 184.84 763.496 185.902 763.496 187.513C763.496 189.123 761.968 190.186 759.777 190.186C757.552 190.186 756.025 189.123 756.025 187.513C756.025 185.902 757.552 184.84 759.777 184.84ZM759.777 186.4C758.764 186.384 758.083 186.799 758.1 187.513C758.083 188.243 758.764 188.642 759.777 188.642C760.79 188.642 761.487 188.243 761.487 187.513C761.487 186.799 760.79 186.384 759.777 186.4Z" fill="#5286FF"/>
<rect x="868.351" y="71.5" width="44.1487" height="26" rx="11.5" fill="white" stroke="#5286FF"/>
<path d="M885.448 77.2666V78.9434H882.443C882.46 80.728 883.522 82.5542 885.913 83.3428L884.867 84.9697C883.19 84.4385 882.045 83.3428 881.397 81.9814C880.717 83.4922 879.513 84.7124 877.728 85.2852L876.649 83.6084C879.131 82.8115 880.26 80.8276 880.285 78.9434H877.247V77.2666H885.448ZM889.466 86.082V91.5273H887.357V87.7754H879.09V86.082H889.466ZM889.466 76.4199V85.418H887.357V81.7822H885.016V80.0557H887.357V76.4199H889.466ZM903.411 76.4199V80.0557H905.453V81.8154H903.411V85.2686H901.286V76.4199H903.411ZM895.625 85.8496V86.9951H901.286V85.8496H903.411V91.3613H893.516V85.8496H895.625ZM895.625 89.7012H901.286V88.6221H895.625V89.7012ZM900.389 77.748V79.4082H891.425V77.748H894.861V76.3203H896.969V77.748H900.389ZM895.907 79.8398C898.098 79.8398 899.626 80.9023 899.626 82.5127C899.626 84.123 898.098 85.1855 895.907 85.1855C893.682 85.1855 892.155 84.123 892.155 82.5127C892.155 80.9023 893.682 79.8398 895.907 79.8398ZM895.907 81.4004C894.894 81.3838 894.214 81.7988 894.23 82.5127C894.214 83.2432 894.894 83.6416 895.907 83.6416C896.92 83.6416 897.617 83.2432 897.617 82.5127C897.617 81.7988 896.92 81.3838 895.907 81.4004Z" fill="#5286FF"/>
</svg>
