<svg width="1200" height="161" viewBox="0 0 1200 161" fill="none" xmlns="http://www.w3.org/2000/svg">
<rect width="1200" height="161" fill="white"/>
<rect x="57" y="39" width="290" height="83" rx="18" fill="#EDF1F5"/>
<rect x="455" y="39" width="290" height="83" rx="18" fill="#EDF1F5"/>
<rect x="853" y="39" width="290" height="83" rx="18" fill="#EDF1F5"/>
<path d="M138.252 82.3398V83.4189H124.738V82.3398H130.781V78.7207H132.06V82.3398H138.252ZM132.093 72.7275C132.093 75.2012 135.015 77.3594 137.588 77.8076L137.007 78.8867C134.757 78.4302 132.383 76.9028 131.429 74.7695C130.458 76.8945 128.1 78.4302 125.851 78.8867L125.27 77.8076C127.843 77.3594 130.731 75.2012 130.731 72.7275V71.5986H132.093V72.7275ZM146.237 79.8662C149.275 79.8662 151.102 80.8623 151.102 82.5889C151.102 84.332 149.275 85.3281 146.237 85.3447C143.199 85.3281 141.34 84.332 141.34 82.5889C141.34 80.8623 143.199 79.8662 146.237 79.8662ZM146.237 80.8955C144.013 80.9121 142.635 81.5264 142.651 82.5889C142.635 83.6514 144.013 84.2822 146.237 84.2822C148.479 84.2822 149.84 83.6514 149.84 82.5889C149.84 81.5264 148.479 80.9121 146.237 80.8955ZM150.969 70.5859V74.3047H153.193V75.417H150.969V79.4678H149.674V70.5859H150.969ZM141.34 71.5156V73.7734H145.64V71.5156H146.935V78.3223H140.062V71.5156H141.34ZM141.34 77.2598H145.64V74.8027H141.34V77.2598ZM159.369 74.5537C159.353 77.2432 161.195 79.9658 163.37 80.9453L162.573 81.9746C160.896 81.1528 159.444 79.418 158.738 77.3096C158.049 79.5425 156.597 81.4019 154.87 82.2734L154.04 81.1777C156.231 80.165 158.058 77.3594 158.074 74.5537V71.8643H159.369V74.5537ZM166.292 70.5859V85.3779H164.98V70.5859H166.292ZM181.051 70.5859V78.2227H179.739V74.3877H176.452V73.3086H179.739V70.5859H181.051ZM181.051 78.9697V82.4893H172.8V84.0996H181.599V85.1455H171.521V81.4932H179.756V80.0156H171.488V78.9697H181.051ZM173.846 72.4619C173.829 74.4043 175.356 76.1641 177.515 76.8779L176.817 77.8906C175.182 77.3096 173.879 76.1475 173.231 74.6533C172.601 76.3384 171.264 77.625 169.513 78.2559L168.799 77.21C171.023 76.4795 172.551 74.6201 172.567 72.4619V71.0674H173.846V72.4619ZM190.182 79.916C193.353 79.916 195.361 80.9121 195.361 82.6221C195.361 84.3154 193.353 85.3115 190.182 85.3115C187.027 85.3115 185.019 84.3154 185.019 82.6221C185.019 80.9121 187.027 79.916 190.182 79.916ZM190.182 80.9121C187.824 80.9287 186.297 81.5762 186.313 82.6221C186.297 83.6514 187.824 84.2822 190.182 84.2822C192.539 84.2822 194.05 83.6514 194.066 82.6221C194.05 81.5762 192.539 80.9287 190.182 80.9121ZM195.245 71.3496V72.5947C195.245 73.79 195.245 74.9854 194.83 76.5127L193.552 76.3633C193.95 74.8359 193.95 73.7568 193.95 72.5947V72.4121H185.118V71.3496H195.245ZM196.955 77.4756V78.5381H183.524V77.4756H189.086V74.6201H190.364V77.4756H196.955ZM203.147 74.5537C203.147 77.1602 204.874 79.833 206.966 80.8623L206.169 81.9082C204.542 81.0532 203.181 79.3101 202.533 77.2598C201.869 79.4429 200.475 81.3022 198.814 82.1904L197.984 81.1445C200.143 80.082 201.853 77.2432 201.869 74.5537V71.8643H203.147V74.5537ZM209.622 70.5859V76.5791H212.096V77.708H209.622V85.3447H208.327V70.5859H209.622ZM222.82 73.8066C222.82 75.6328 224.314 77.3262 226.489 77.9736L225.858 79.0029C224.165 78.4717 222.845 77.3345 222.206 75.8818C221.559 77.4839 220.197 78.7041 218.471 79.2852L217.807 78.2559C220.015 77.5752 221.542 75.7988 221.542 73.8066V73.4746H218.205V72.4287H221.542V70.5361H222.854V72.4287H226.157V73.4746H222.82V73.8066ZM229.328 70.5859V74.5371H231.553V75.6494H229.328V79.6006H228.033V70.5859H229.328ZM229.328 80.3643V85.3779H228.033V81.4434H219.666V80.3643H229.328ZM239.156 79.916C242.327 79.916 244.336 80.9121 244.336 82.6221C244.336 84.3154 242.327 85.3115 239.156 85.3115C236.002 85.3115 233.993 84.3154 233.993 82.6221C233.993 80.9121 236.002 79.916 239.156 79.916ZM239.156 80.9121C236.799 80.9287 235.271 81.5762 235.288 82.6221C235.271 83.6514 236.799 84.2822 239.156 84.2822C241.514 84.2822 243.024 83.6514 243.041 82.6221C243.024 81.5762 241.514 80.9287 239.156 80.9121ZM244.22 71.3496V72.5947C244.22 73.79 244.22 74.9854 243.805 76.5127L242.526 76.3633C242.925 74.8359 242.925 73.7568 242.925 72.5947V72.4121H234.093V71.3496H244.22ZM245.93 77.4756V78.5381H232.499V77.4756H238.061V74.6201H239.339V77.4756H245.93ZM264.258 70.6025V81.4268H262.963V70.6025H264.258ZM264.723 83.9336V85.0293H254.729V80.4307H256.023V83.9336H264.723ZM257.302 72.9102C257.285 75.1514 258.829 77.1768 261.021 77.9736L260.34 79.0195C258.63 78.3638 257.302 77.0356 256.654 75.334C255.999 77.1436 254.654 78.5962 252.936 79.2852L252.222 78.2725C254.463 77.4092 255.974 75.2344 255.974 72.9102V71.4326H257.302V72.9102ZM278.602 72.0801V73.5576C278.585 75.3672 278.585 77.3926 278.054 80.3643L276.726 80.2148C277.29 77.3926 277.29 75.3174 277.29 73.5576V73.1592H268.192V72.0801H278.602ZM280.212 82.1738V83.2529H266.765V82.1738H272.044V76.8945H273.322V82.1738H280.212Z" fill="#1D1D1D"/>
<path d="M511.265 82.3398V83.4189H497.751V82.3398H503.794V78.7207H505.072V82.3398H511.265ZM505.105 72.7275C505.105 75.2012 508.027 77.3594 510.601 77.8076L510.02 78.8867C507.77 78.4302 505.396 76.9028 504.441 74.7695C503.47 76.8945 501.113 78.4302 498.863 78.8867L498.282 77.8076C500.855 77.3594 503.744 75.2012 503.744 72.7275V71.5986H505.105V72.7275ZM519.25 79.8662C522.288 79.8662 524.114 80.8623 524.114 82.5889C524.114 84.332 522.288 85.3281 519.25 85.3447C516.212 85.3281 514.353 84.332 514.353 82.5889C514.353 80.8623 516.212 79.8662 519.25 79.8662ZM519.25 80.8955C517.025 80.9121 515.647 81.5264 515.664 82.5889C515.647 83.6514 517.025 84.2822 519.25 84.2822C521.491 84.2822 522.853 83.6514 522.853 82.5889C522.853 81.5264 521.491 80.9121 519.25 80.8955ZM523.981 70.5859V74.3047H526.206V75.417H523.981V79.4678H522.687V70.5859H523.981ZM514.353 71.5156V73.7734H518.652V71.5156H519.947V78.3223H513.074V71.5156H514.353ZM514.353 77.2598H518.652V74.8027H514.353V77.2598ZM532.382 74.5537C532.365 77.2432 534.208 79.9658 536.383 80.9453L535.586 81.9746C533.909 81.1528 532.457 79.418 531.751 77.3096C531.062 79.5425 529.609 81.4019 527.883 82.2734L527.053 81.1777C529.244 80.165 531.07 77.3594 531.087 74.5537V71.8643H532.382V74.5537ZM539.305 70.5859V85.3779H537.993V70.5859H539.305ZM554.063 70.5859V78.2227H552.752V74.3877H549.465V73.3086H552.752V70.5859H554.063ZM554.063 78.9697V82.4893H545.812V84.0996H554.611V85.1455H544.534V81.4932H552.769V80.0156H544.501V78.9697H554.063ZM546.858 72.4619C546.842 74.4043 548.369 76.1641 550.527 76.8779L549.83 77.8906C548.195 77.3096 546.892 76.1475 546.244 74.6533C545.613 76.3384 544.277 77.625 542.525 78.2559L541.812 77.21C544.036 76.4795 545.563 74.6201 545.58 72.4619V71.0674H546.858V72.4619ZM563.194 79.916C566.365 79.916 568.374 80.9121 568.374 82.6221C568.374 84.3154 566.365 85.3115 563.194 85.3115C560.04 85.3115 558.031 84.3154 558.031 82.6221C558.031 80.9121 560.04 79.916 563.194 79.916ZM563.194 80.9121C560.837 80.9287 559.31 81.5762 559.326 82.6221C559.31 83.6514 560.837 84.2822 563.194 84.2822C565.552 84.2822 567.062 83.6514 567.079 82.6221C567.062 81.5762 565.552 80.9287 563.194 80.9121ZM568.258 71.3496V72.5947C568.258 73.79 568.258 74.9854 567.843 76.5127L566.564 76.3633C566.963 74.8359 566.963 73.7568 566.963 72.5947V72.4121H558.131V71.3496H568.258ZM569.968 77.4756V78.5381H556.537V77.4756H562.099V74.6201H563.377V77.4756H569.968ZM576.16 74.5537C576.16 77.1602 577.887 79.833 579.979 80.8623L579.182 81.9082C577.555 81.0532 576.193 79.3101 575.546 77.2598C574.882 79.4429 573.487 81.3022 571.827 82.1904L570.997 81.1445C573.155 80.082 574.865 77.2432 574.882 74.5537V71.8643H576.16V74.5537ZM582.635 70.5859V76.5791H585.108V77.708H582.635V85.3447H581.34V70.5859H582.635ZM602.341 70.5859V74.2051H604.565V75.2842H602.341V78.9697H601.046V70.5859H602.341ZM598.307 71.5488C598.29 75.2676 595.684 77.9238 591.317 79.1191L590.786 78.0732C594.422 77.0938 596.638 75.1265 596.912 72.6279H591.45V71.5488H598.307ZM602.341 79.6504V85.1455H592.994V79.6504H602.341ZM594.289 80.7295V84.083H601.046V80.7295H594.289ZM617.681 70.5859V85.3779H616.386V70.5859H617.681ZM613.198 71.9639V77.21H607.687V80.6963C610.135 80.6963 612.318 80.5884 614.958 80.165L615.091 81.2607C612.368 81.6924 610.127 81.792 607.587 81.792H606.358V76.1475H611.887V73.043H606.325V71.9639H613.198ZM625.185 75.1182C625.168 77.4922 626.878 80.0986 629.02 81.1113L628.272 82.1406C626.612 81.3354 625.209 79.5757 624.554 77.5752C623.873 79.75 622.387 81.6592 620.735 82.5059L619.938 81.4766C622.063 80.4473 623.89 77.6416 623.906 75.1182V73.1924H620.47V72.1133H628.505V73.1924H625.185V75.1182ZM631.609 70.5859V76.5625H634.083V77.6748H631.609V85.3447H630.314V70.5859H631.609ZM645.057 75.1182C645.057 77.625 646.883 80.165 649.058 81.1113L648.327 82.1406C646.601 81.3521 645.106 79.6504 644.426 77.6084C643.729 79.7749 642.243 81.6592 640.558 82.5059L639.777 81.4766C641.886 80.4639 643.729 77.6748 643.745 75.1182V73.1924H640.259V72.1133H648.576V73.1924H645.057V75.1182ZM651.946 70.5859V85.3447H650.635V70.5859H651.946ZM666.705 70.5859V79.3848H665.394V75.5166H662.422V74.4375H665.394V70.5859H666.705ZM661.808 79.8496C664.879 79.8496 666.755 80.8457 666.755 82.5889C666.755 84.332 664.879 85.3281 661.808 85.3447C658.736 85.3281 656.86 84.332 656.86 82.5889C656.86 80.8457 658.736 79.8496 661.808 79.8496ZM661.808 80.8623C659.55 80.8623 658.139 81.5098 658.155 82.5889C658.139 83.6514 659.55 84.2988 661.808 84.2988C664.065 84.2988 665.46 83.6514 665.46 82.5889C665.46 81.5098 664.065 80.8623 661.808 80.8623ZM659.6 73.292C659.6 75.2178 661.077 77.0439 663.235 77.791L662.555 78.8369C660.895 78.2393 659.608 77.0024 658.985 75.4668C658.338 77.2017 656.968 78.5879 655.217 79.252L654.536 78.2061C656.728 77.4092 658.288 75.417 658.288 73.3086V72.7607H654.951V71.665H662.903V72.7607H659.6V73.292ZM686.245 70.6025V81.4268H684.95V70.6025H686.245ZM686.71 83.9336V85.0293H676.716V80.4307H678.011V83.9336H686.71ZM679.289 72.9102C679.272 75.1514 680.816 77.1768 683.008 77.9736L682.327 79.0195C680.617 78.3638 679.289 77.0356 678.642 75.334C677.986 77.1436 676.641 78.5962 674.923 79.2852L674.209 78.2725C676.45 77.4092 677.961 75.2344 677.961 72.9102V71.4326H679.289V72.9102ZM700.589 72.0801V73.5576C700.572 75.3672 700.572 77.3926 700.041 80.3643L698.713 80.2148C699.277 77.3926 699.277 75.3174 699.277 73.5576V73.1592H690.18V72.0801H700.589ZM702.199 82.1738V83.2529H688.752V82.1738H694.031V76.8945H695.31V82.1738H702.199Z" fill="#1D1D1D"/>
<path d="M914.162 82.3398V83.4189H900.648V82.3398H906.691V78.7207H907.97V82.3398H914.162ZM908.003 72.7275C908.003 75.2012 910.925 77.3594 913.498 77.8076L912.917 78.8867C910.667 78.4302 908.293 76.9028 907.339 74.7695C906.368 76.8945 904.01 78.4302 901.761 78.8867L901.18 77.8076C903.753 77.3594 906.642 75.2012 906.642 72.7275V71.5986H908.003V72.7275ZM922.147 79.8662C925.186 79.8662 927.012 80.8623 927.012 82.5889C927.012 84.332 925.186 85.3281 922.147 85.3447C919.109 85.3281 917.25 84.332 917.25 82.5889C917.25 80.8623 919.109 79.8662 922.147 79.8662ZM922.147 80.8955C919.923 80.9121 918.545 81.5264 918.562 82.5889C918.545 83.6514 919.923 84.2822 922.147 84.2822C924.389 84.2822 925.75 83.6514 925.75 82.5889C925.75 81.5264 924.389 80.9121 922.147 80.8955ZM926.879 70.5859V74.3047H929.104V75.417H926.879V79.4678H925.584V70.5859H926.879ZM917.25 71.5156V73.7734H921.55V71.5156H922.845V78.3223H915.972V71.5156H917.25ZM917.25 77.2598H921.55V74.8027H917.25V77.2598ZM940.177 74.5537C940.16 77.2432 942.003 79.9658 944.178 80.9453L943.381 81.9746C941.704 81.1528 940.251 79.418 939.546 77.3096C938.857 79.5425 937.404 81.4019 935.678 82.2734L934.848 81.1777C937.039 80.165 938.865 77.3594 938.882 74.5537V71.8643H940.177V74.5537ZM947.1 70.5859V85.3779H945.788V70.5859H947.1ZM961.858 70.5859V78.2227H960.547V74.3877H957.26V73.3086H960.547V70.5859H961.858ZM961.858 78.9697V82.4893H953.607V84.0996H962.406V85.1455H952.329V81.4932H960.563V80.0156H952.296V78.9697H961.858ZM954.653 72.4619C954.637 74.4043 956.164 76.1641 958.322 76.8779L957.625 77.8906C955.99 77.3096 954.687 76.1475 954.039 74.6533C953.408 76.3384 952.072 77.625 950.32 78.2559L949.606 77.21C951.831 76.4795 953.358 74.6201 953.375 72.4619V71.0674H954.653V72.4619ZM970.989 79.916C974.16 79.916 976.169 80.9121 976.169 82.6221C976.169 84.3154 974.16 85.3115 970.989 85.3115C967.835 85.3115 965.826 84.3154 965.826 82.6221C965.826 80.9121 967.835 79.916 970.989 79.916ZM970.989 80.9121C968.632 80.9287 967.104 81.5762 967.121 82.6221C967.104 83.6514 968.632 84.2822 970.989 84.2822C973.347 84.2822 974.857 83.6514 974.874 82.6221C974.857 81.5762 973.347 80.9287 970.989 80.9121ZM976.053 71.3496V72.5947C976.053 73.79 976.053 74.9854 975.638 76.5127L974.359 76.3633C974.758 74.8359 974.758 73.7568 974.758 72.5947V72.4121H965.926V71.3496H976.053ZM977.763 77.4756V78.5381H964.332V77.4756H969.894V74.6201H971.172V77.4756H977.763ZM983.955 74.5537C983.955 77.1602 985.682 79.833 987.773 80.8623L986.977 81.9082C985.35 81.0532 983.988 79.3101 983.341 77.2598C982.677 79.4429 981.282 81.3022 979.622 82.1904L978.792 81.1445C980.95 80.082 982.66 77.2432 982.677 74.5537V71.8643H983.955V74.5537ZM990.43 70.5859V76.5791H992.903V77.708H990.43V85.3447H989.135V70.5859H990.43ZM1003.1 71.2832C1005.25 71.2832 1006.77 72.4453 1006.77 74.2051C1006.77 75.7241 1005.57 76.8281 1003.79 77.0439V78.4883C1005.17 78.4302 1006.57 78.3057 1007.86 78.1064L1007.96 79.0859C1004.84 79.6504 1001.3 79.6836 998.747 79.6836L998.581 78.6045C999.727 78.6128 1001.07 78.6045 1002.48 78.5547V77.0605C1000.66 76.8613 999.428 75.749 999.444 74.2051C999.428 72.4453 1000.94 71.2832 1003.1 71.2832ZM1003.1 72.2959C1001.67 72.2959 1000.66 73.0596 1000.67 74.2051C1000.66 75.3174 1001.67 76.0811 1003.1 76.0977C1004.54 76.0811 1005.52 75.3174 1005.54 74.2051C1005.52 73.0596 1004.54 72.2959 1003.1 72.2959ZM1010.12 70.6025V75.5996H1012.33V76.7119H1010.12V81.8916H1008.81V70.6025H1010.12ZM1010.65 83.917V85.0127H1000.74V80.9121H1002.05V83.917H1010.65ZM1019.96 79.916C1023.13 79.916 1025.14 80.9121 1025.14 82.6221C1025.14 84.3154 1023.13 85.3115 1019.96 85.3115C1016.81 85.3115 1014.8 84.3154 1014.8 82.6221C1014.8 80.9121 1016.81 79.916 1019.96 79.916ZM1019.96 80.9121C1017.61 80.9287 1016.08 81.5762 1016.1 82.6221C1016.08 83.6514 1017.61 84.2822 1019.96 84.2822C1022.32 84.2822 1023.83 83.6514 1023.85 82.6221C1023.83 81.5762 1022.32 80.9287 1019.96 80.9121ZM1025.03 71.3496V72.5947C1025.03 73.79 1025.03 74.9854 1024.61 76.5127L1023.33 76.3633C1023.73 74.8359 1023.73 73.7568 1023.73 72.5947V72.4121H1014.9V71.3496H1025.03ZM1026.74 77.4756V78.5381H1013.31V77.4756H1018.87V74.6201H1020.15V77.4756H1026.74ZM1040.5 71.5488C1040.48 75.251 1037.84 77.9072 1033.59 79.1191L1033.05 78.0898C1036.57 77.0938 1038.82 75.1348 1039.11 72.6279H1033.81V71.5488H1040.5ZM1045.12 70.6025V79.0195H1043.8V75.5H1040.53V74.4043H1043.8V70.6025H1045.12ZM1045.12 79.6504V85.1455H1035.54V79.6504H1045.12ZM1036.8 80.6963V84.083H1043.82V80.6963H1036.8ZM1052.52 74.5537C1052.52 77.1602 1054.25 79.833 1056.34 80.8623L1055.54 81.9082C1053.91 81.0532 1052.55 79.3101 1051.91 77.2598C1051.24 79.4429 1049.85 81.3022 1048.19 82.1904L1047.36 81.1445C1049.51 80.082 1051.22 77.2432 1051.24 74.5537V71.8643H1052.52V74.5537ZM1058.99 70.5859V76.5791H1061.47V77.708H1058.99V85.3447H1057.7V70.5859H1058.99ZM1079.35 70.6025V81.4268H1078.05V70.6025H1079.35ZM1079.81 83.9336V85.0293H1069.82V80.4307H1071.11V83.9336H1079.81ZM1072.39 72.9102C1072.38 75.1514 1073.92 77.1768 1076.11 77.9736L1075.43 79.0195C1073.72 78.3638 1072.39 77.0356 1071.74 75.334C1071.09 77.1436 1069.74 78.5962 1068.03 79.2852L1067.31 78.2725C1069.55 77.4092 1071.06 75.2344 1071.06 72.9102V71.4326H1072.39V72.9102ZM1086.88 73.7568C1086.88 75.5996 1088.48 77.2432 1090.65 77.8906L1090.02 78.9033C1088.31 78.397 1086.94 77.2764 1086.29 75.8154C1085.64 77.4341 1084.29 78.7041 1082.54 79.2852L1081.9 78.2891C1084.08 77.5586 1085.61 75.7656 1085.61 73.7568V73.4414H1082.27V72.3955H1085.61V70.5195H1086.92V72.3955H1090.22V73.4414H1086.88V73.7568ZM1094.09 70.5859V79.5342H1092.78V75.8984H1089.76V74.8193H1092.78V70.5859H1094.09ZM1089.19 79.9326C1092.26 79.9326 1094.14 80.8955 1094.14 82.6221C1094.14 84.332 1092.26 85.3115 1089.19 85.3115C1086.12 85.3115 1084.25 84.332 1084.25 82.6221C1084.25 80.8955 1086.12 79.9326 1089.19 79.9326ZM1089.19 80.9453C1086.93 80.9619 1085.52 81.5762 1085.54 82.6221C1085.52 83.6514 1086.93 84.2822 1089.19 84.2822C1091.47 84.2822 1092.84 83.6514 1092.84 82.6221C1092.84 81.5762 1091.47 80.9619 1089.19 80.9453Z" fill="#1D1D1D"/>
<path d="M339 80C339 84.4183 342.582 88 347 88C351.418 88 355 84.4183 355 80C355 75.5817 351.418 72 347 72C342.582 72 339 75.5817 339 80ZM457 80L442 71.3397V88.6603L457 80ZM347 81.5H443.5V78.5H347V81.5Z" fill="#5286FF"/>
<path d="M737 80C737 84.4183 740.582 88 745 88C749.418 88 753 84.4183 753 80C753 75.5817 749.418 72 745 72C740.582 72 737 75.5817 737 80ZM853 80L838 71.3397V88.6603L853 80ZM745 81.5H839.5V78.5H745V81.5Z" fill="#5286FF"/>
</svg>
