<svg width="1200" height="527" viewBox="0 0 1200 527" fill="none" xmlns="http://www.w3.org/2000/svg">
<rect width="1200" height="527" fill="white"/>
<rect x="52" y="39" width="214" height="90" rx="18" fill="#EDF1F5"/>
<rect x="346" y="39" width="214" height="90" rx="18" fill="#EDF1F5"/>
<rect x="347" y="235" width="214" height="90" rx="18" fill="#EDF1F5"/>
<rect x="640" y="39" width="214" height="90" rx="18" fill="#EDF1F5"/>
<rect x="641" y="235" width="214" height="90" rx="18" fill="#EDF1F5"/>
<rect x="934" y="385" width="214" height="103" rx="18" fill="#EDF1F5"/>
<rect x="935" y="40" width="212" height="88" rx="17" fill="#D4E1FF" stroke="#173E99" stroke-width="2"/>
<rect x="54" y="236" width="212" height="88" rx="17" fill="#D4E1FF" stroke="#173E99" stroke-width="2"/>
<path d="M117.961 75.6025V86.5098H116.649V81.2471H113.379V80.1514H116.649V75.6025H117.961ZM113.445 76.7314C113.429 80.5166 110.723 83.4053 106.522 84.7832L105.958 83.7373C109.361 82.6167 111.727 80.5 112.018 77.8271H106.705V76.7314H113.445ZM118.343 88.9336V90.0293H108.564V85.3975H109.893V88.9336H118.343ZM133.865 83.0234V84.0859H127.772V85.7793H132.205V90.2949H130.894V86.8418H121.912V85.7793H126.494V84.0859H120.418V83.0234H133.865ZM127.772 75.5195V77.0469H132.504V78.0928H127.855C127.947 79.7695 130.279 80.9233 133.068 81.1973L132.637 82.1934C130.205 81.9277 128.03 81.0396 127.142 79.5371C126.245 81.0396 124.07 81.9277 121.646 82.1934L121.215 81.1973C123.987 80.9233 126.32 79.7695 126.428 78.0928H121.812V77.0469H126.494V75.5195H127.772ZM143.893 77.96V79.0391H135.11V77.96H138.846V75.7686H140.141V77.96H143.893ZM139.51 80.2676C141.502 80.2676 142.963 81.6787 142.979 83.6543C142.963 85.6133 141.502 87.041 139.51 87.041C137.501 87.041 136.023 85.6133 136.023 83.6543C136.023 81.6787 137.501 80.2676 139.51 80.2676ZM139.51 81.3799C138.215 81.3965 137.235 82.3428 137.252 83.6543C137.235 84.9824 138.215 85.9287 139.51 85.9121C140.805 85.9287 141.784 84.9824 141.784 83.6543C141.784 82.3428 140.805 81.3965 139.51 81.3799ZM147.346 75.5859V90.3447H146.051V82.8906H143.577V81.7949H146.051V75.5859H147.346ZM161.225 75.5859V81.5957H163.615V82.6914H161.225V90.3447H159.93V75.5859H161.225ZM157.406 77.1797C157.406 81.3633 155.447 85.165 150.633 87.5391L149.902 86.5098C153.721 84.6089 155.796 81.77 156.095 78.2754H150.583V77.1797H157.406ZM177.959 82.6084V83.7041H164.495V82.6084H177.959ZM176.382 80.1348V81.1973H166.205V76.1836H176.282V77.2793H167.483V80.1348H176.382ZM171.219 84.999C174.39 84.999 176.282 85.9619 176.299 87.6553C176.282 89.3652 174.39 90.3115 171.219 90.3115C168.031 90.3115 166.122 89.3652 166.122 87.6553C166.122 85.9619 168.031 84.999 171.219 84.999ZM171.219 86.0117C168.845 86.0283 167.434 86.626 167.45 87.6553C167.434 88.7012 168.845 89.2822 171.219 89.2822C173.56 89.2822 174.987 88.7012 174.987 87.6553C174.987 86.626 173.56 86.0283 171.219 86.0117ZM196.271 75.6025V86.4268H194.976V75.6025H196.271ZM196.735 88.9336V90.0293H186.741V85.4307H188.036V88.9336H196.735ZM189.314 77.9102C189.298 80.1514 190.842 82.1768 193.033 82.9736L192.353 84.0195C190.643 83.3638 189.314 82.0356 188.667 80.334C188.011 82.1436 186.667 83.5962 184.948 84.2852L184.234 83.2725C186.476 82.4092 187.986 80.2344 187.986 77.9102V76.4326H189.314V77.9102ZM203.808 78.7568C203.808 80.5996 205.401 82.2432 207.576 82.8906L206.945 83.9033C205.235 83.397 203.866 82.2764 203.21 80.8154C202.562 82.4341 201.218 83.7041 199.458 84.2852L198.827 83.2891C201.002 82.5586 202.529 80.7656 202.529 78.7568V78.4414H199.192V77.3955H202.529V75.5195H203.841V77.3955H207.145V78.4414H203.808V78.7568ZM211.013 75.5859V84.5342H209.701V80.8984H206.68V79.8193H209.701V75.5859H211.013ZM206.115 84.9326C209.187 84.9326 211.062 85.8955 211.062 87.6221C211.062 89.332 209.187 90.3115 206.115 90.3115C203.044 90.3115 201.168 89.332 201.168 87.6221C201.168 85.8955 203.044 84.9326 206.115 84.9326ZM206.115 85.9453C203.857 85.9619 202.446 86.5762 202.463 87.6221C202.446 88.6514 203.857 89.2822 206.115 89.2822C208.39 89.2822 209.768 88.6514 209.768 87.6221C209.768 86.5762 208.39 85.9619 206.115 85.9453Z" fill="#1D1D1D"/>
<path d="M146.061 140.632V147.92H138.673V140.632H146.061ZM140.765 142.309V146.243H143.953V142.309H140.765ZM150.56 139.437V150.178H148.435V139.437H150.56ZM150.958 152.485V154.195H140.433V149.182H142.575V152.485H150.958ZM165.402 139.437V150.842H163.277V149.646H160.388V148.202H163.277V139.437H165.402ZM165.734 152.568V154.262H154.478V149.746H156.586V147.737C155.233 147.795 153.947 147.804 152.801 147.804L152.552 146.127C155.325 146.11 159.06 146.077 162.248 145.679L162.364 147.189C161.168 147.389 159.932 147.53 158.711 147.621V150.493H156.586V152.568H165.734ZM157.466 139.951C159.658 139.935 161.235 141.047 161.235 142.657C161.235 144.268 159.658 145.313 157.466 145.313C155.225 145.313 153.665 144.268 153.665 142.657C153.665 141.047 155.208 139.935 157.466 139.951ZM157.466 141.495C156.387 141.495 155.657 141.91 155.673 142.657C155.657 143.388 156.387 143.786 157.466 143.786C158.479 143.786 159.209 143.388 159.226 142.657C159.209 141.91 158.479 141.495 157.466 141.495ZM179.945 139.437V150.294H177.82V139.437H179.945ZM180.343 152.568V154.262H169.818V149.198H171.959V152.568H180.343ZM171.661 140.399C173.985 140.399 175.794 141.993 175.794 144.201C175.794 146.459 173.985 148.036 171.661 148.036C169.336 148.036 167.527 146.459 167.527 144.201C167.527 141.993 169.336 140.399 171.661 140.399ZM171.661 142.242C170.482 142.226 169.585 142.973 169.602 144.201C169.585 145.463 170.482 146.193 171.661 146.193C172.806 146.193 173.703 145.463 173.703 144.201C173.703 142.973 172.806 142.226 171.661 142.242Z" fill="#173E99"/>
<path d="M440.825 141.678V143.371H431.943V141.678H435.313V139.652H437.421V141.678H440.825ZM436.375 144.218C438.451 144.218 439.995 145.745 440.011 147.82C439.995 149.879 438.451 151.423 436.375 151.423C434.284 151.423 432.723 149.879 432.723 147.82C432.723 145.745 434.284 144.218 436.375 144.218ZM436.375 145.994C435.413 146.011 434.699 146.691 434.699 147.82C434.699 148.966 435.413 149.63 436.375 149.613C437.338 149.63 438.052 148.966 438.052 147.82C438.052 146.691 437.338 146.011 436.375 145.994ZM444.66 139.42V154.527H442.568V147.106H440.509V145.396H442.568V139.42H444.66ZM458.522 139.42V145.214H460.664V146.957H458.522V154.494H456.397V139.42H458.522ZM454.488 140.964C454.471 145.479 452.711 149.397 447.631 151.888L446.436 150.261C450.014 148.468 451.931 146.061 452.33 142.69H447.299V140.964H454.488ZM469.911 140.997V142.657H466.856C466.873 144.209 468.018 145.787 470.442 146.409L469.462 148.036C467.744 147.604 466.532 146.65 465.843 145.413C465.188 146.824 463.976 147.928 462.191 148.435L461.195 146.791C463.619 146.102 464.731 144.375 464.748 142.657H461.709V140.997H464.748V139.354H466.889V140.997H469.911ZM474.028 139.42V148.551H471.919V145.164H469.462V143.471H471.919V139.42H474.028ZM468.865 148.8C472.085 148.816 474.061 149.829 474.078 151.639C474.061 153.465 472.085 154.527 468.865 154.527C465.661 154.527 463.668 153.465 463.668 151.639C463.668 149.829 465.661 148.816 468.865 148.8ZM468.865 150.427C466.856 150.427 465.777 150.825 465.777 151.639C465.777 152.469 466.856 152.917 468.865 152.917C470.907 152.917 471.969 152.469 471.969 151.639C471.969 150.825 470.907 150.427 468.865 150.427Z" fill="#173E99"/>
<path d="M712.303 151.024V152.718H698.474V151.024H704.251V147.604H706.359V151.024H712.303ZM706.426 141.362C706.426 143.521 708.368 145.795 711.821 146.326L710.925 148.086C708.269 147.604 706.293 146.185 705.297 144.301C704.301 146.177 702.342 147.613 699.702 148.086L698.806 146.326C702.226 145.795 704.151 143.504 704.168 141.362V140.283H706.426V141.362ZM720.205 148.667C723.343 148.667 725.302 149.746 725.302 151.589C725.302 153.465 723.343 154.544 720.205 154.544C717.001 154.544 715.025 153.465 715.025 151.589C715.025 149.746 717.001 148.667 720.205 148.667ZM720.205 150.311C718.213 150.311 717.134 150.726 717.15 151.589C717.134 152.452 718.213 152.9 720.205 152.9C722.164 152.9 723.21 152.452 723.21 151.589C723.21 150.726 722.164 150.311 720.205 150.311ZM725.152 139.42V142.923H727.194V144.699H725.152V148.335H723.027V139.42H725.152ZM715.723 140.366V142.275H718.811V140.366H720.936V147.472H713.614V140.366H715.723ZM715.723 145.795H718.811V143.919H715.723V145.795ZM733.569 142.84C733.569 145.679 734.715 148.435 737.238 149.53L735.943 151.224C734.267 150.402 733.146 148.899 732.523 147.04C731.859 149.016 730.697 150.634 728.971 151.489L727.643 149.763C730.232 148.601 731.411 145.679 731.428 142.84V140.582H733.569V142.84ZM740.608 139.42V154.561H738.517V145.878H735.545V144.168H738.517V139.42H740.608ZM742.567 147.322C742.584 144.185 743.431 141.595 744.825 139.354H746.817C745.805 141.014 744.759 144.334 744.759 147.322C744.759 150.294 745.805 153.614 746.817 155.274H744.825C743.431 153.033 742.584 150.443 742.567 147.322ZM760.547 139.42V154.527H758.521V139.42H760.547ZM757.459 139.636V153.83H755.467V149.148H753.69C753.126 150.618 752.138 151.456 750.868 151.456C748.876 151.456 747.581 149.364 747.581 145.961C747.581 142.574 748.876 140.499 750.868 140.499C752.13 140.499 753.118 141.321 753.69 142.773H755.467V139.636H757.459ZM750.868 142.491C749.988 142.491 749.49 143.653 749.507 145.961C749.49 148.285 749.988 149.431 750.868 149.414C751.748 149.431 752.279 148.285 752.279 145.961C752.279 143.653 751.731 142.491 750.868 142.491ZM754.105 144.467C754.172 144.932 754.205 145.43 754.205 145.961C754.205 146.484 754.172 146.982 754.105 147.438H755.467V144.467H754.105ZM769.18 148.667C772.317 148.667 774.276 149.746 774.276 151.589C774.276 153.465 772.317 154.544 769.18 154.544C765.976 154.544 764 153.465 764 151.589C764 149.746 765.976 148.667 769.18 148.667ZM769.18 150.311C767.188 150.311 766.108 150.726 766.125 151.589C766.108 152.452 767.188 152.9 769.18 152.9C771.139 152.9 772.185 152.452 772.185 151.589C772.185 150.726 771.139 150.311 769.18 150.311ZM774.127 139.42V142.923H776.169V144.699H774.127V148.335H772.002V139.42H774.127ZM764.697 140.366V142.275H767.785V140.366H769.91V147.472H762.589V140.366H764.697ZM764.697 145.795H767.785V143.919H764.697V145.795ZM785.333 140.931V142.143C785.316 143.57 785.316 145.43 784.918 147.937L782.826 147.771C783.167 145.579 783.2 143.96 783.225 142.624H777.497V140.931H785.333ZM781.564 145.264V149.646C783.05 149.588 784.561 149.48 785.947 149.298L786.08 150.875C782.976 151.406 779.539 151.456 776.899 151.439L776.7 149.746C777.547 149.738 778.493 149.738 779.473 149.713V145.264H781.564ZM788.803 139.42V145.496H790.861V147.256H788.803V154.527H786.661V139.42H788.803ZM795.51 147.322C795.493 150.443 794.646 153.033 793.252 155.274H791.26C792.272 153.614 793.318 150.294 793.318 147.322C793.318 144.334 792.272 141.014 791.26 139.354H793.252C794.646 141.595 795.493 144.185 795.51 147.322Z" fill="#173E99"/>
<path d="M422.256 62.6025V73.5098H420.944V68.2471H417.674V67.1514H420.944V62.6025H422.256ZM417.74 63.7314C417.724 67.5166 415.018 70.4053 410.817 71.7832L410.253 70.7373C413.656 69.6167 416.022 67.5 416.312 64.8271H411V63.7314H417.74ZM422.638 75.9336V77.0293H412.859V72.3975H414.188V75.9336H422.638ZM438.16 70.0234V71.0859H432.067V72.7793H436.5V77.2949H435.188V73.8418H426.207V72.7793H430.789V71.0859H424.713V70.0234H438.16ZM432.067 62.5195V64.0469H436.799V65.0928H432.15C432.242 66.7695 434.574 67.9233 437.363 68.1973L436.932 69.1934C434.5 68.9277 432.325 68.0396 431.437 66.5371C430.54 68.0396 428.365 68.9277 425.941 69.1934L425.51 68.1973C428.282 67.9233 430.615 66.7695 430.723 65.0928H426.107V64.0469H430.789V62.5195H432.067ZM448.188 64.96V66.0391H439.405V64.96H443.141V62.7686H444.436V64.96H448.188ZM443.805 67.2676C445.797 67.2676 447.258 68.6787 447.274 70.6543C447.258 72.6133 445.797 74.041 443.805 74.041C441.796 74.041 440.318 72.6133 440.318 70.6543C440.318 68.6787 441.796 67.2676 443.805 67.2676ZM443.805 68.3799C442.51 68.3965 441.53 69.3428 441.547 70.6543C441.53 71.9824 442.51 72.9287 443.805 72.9121C445.1 72.9287 446.079 71.9824 446.079 70.6543C446.079 69.3428 445.1 68.3965 443.805 68.3799ZM451.641 62.5859V77.3447H450.346V69.8906H447.872V68.7949H450.346V62.5859H451.641ZM465.52 62.5859V68.5957H467.91V69.6914H465.52V77.3447H464.225V62.5859H465.52ZM461.701 64.1797C461.701 68.3633 459.742 72.165 454.928 74.5391L454.197 73.5098C458.016 71.6089 460.091 68.77 460.39 65.2754H454.878V64.1797H461.701ZM482.254 69.6084V70.7041H468.79V69.6084H482.254ZM480.677 67.1348V68.1973H470.5V63.1836H480.577V64.2793H471.778V67.1348H480.677ZM475.514 71.999C478.685 71.999 480.577 72.9619 480.594 74.6553C480.577 76.3652 478.685 77.3115 475.514 77.3115C472.326 77.3115 470.417 76.3652 470.417 74.6553C470.417 72.9619 472.326 71.999 475.514 71.999ZM475.514 73.0117C473.14 73.0283 471.729 73.626 471.745 74.6553C471.729 75.7012 473.14 76.2822 475.514 76.2822C477.854 76.2822 479.282 75.7012 479.282 74.6553C479.282 73.626 477.854 73.0283 475.514 73.0117ZM488.313 63.665C490.638 63.665 492.281 65.0762 492.281 67.1348C492.281 69.1934 490.638 70.6045 488.313 70.6045C485.989 70.6045 484.312 69.1934 484.329 67.1348C484.312 65.0762 485.989 63.665 488.313 63.665ZM488.313 64.8105C486.736 64.8105 485.591 65.7568 485.607 67.1348C485.591 68.5127 486.736 69.459 488.313 69.459C489.874 69.459 491.003 68.5127 491.003 67.1348C491.003 65.7568 489.874 64.8105 488.313 64.8105ZM495.585 62.5859V77.3779H494.29V62.5859H495.585ZM483.565 73.0117C486.288 73.0117 490.04 72.9951 493.311 72.5137L493.41 73.4766C490.04 74.1074 486.404 74.124 483.748 74.124L483.565 73.0117ZM438.177 95.8906V96.9365H424.713V95.8906H430.806V94.1641H426.423V89.2832H436.5V90.3291H427.701V93.1016H436.6V94.1641H432.067V95.8906H438.177ZM431.437 98.0156C434.607 98.0156 436.5 98.9785 436.517 100.672C436.5 102.382 434.607 103.328 431.437 103.345C428.249 103.328 426.34 102.382 426.34 100.672C426.34 98.9785 428.249 98.0156 431.437 98.0156ZM431.437 99.0449C429.062 99.0449 427.651 99.6592 427.668 100.672C427.651 101.701 429.062 102.299 431.437 102.299C433.777 102.299 435.205 101.701 435.205 100.672C435.205 99.6592 433.777 99.0449 431.437 99.0449ZM444.236 89.665C446.561 89.665 448.204 91.0762 448.204 93.1348C448.204 95.1934 446.561 96.6045 444.236 96.6045C441.912 96.6045 440.235 95.1934 440.252 93.1348C440.235 91.0762 441.912 89.665 444.236 89.665ZM444.236 90.8105C442.659 90.8105 441.514 91.7568 441.53 93.1348C441.514 94.5127 442.659 95.459 444.236 95.459C445.797 95.459 446.926 94.5127 446.926 93.1348C446.926 91.7568 445.797 90.8105 444.236 90.8105ZM451.508 88.5859V103.378H450.213V88.5859H451.508ZM439.488 99.0117C442.211 99.0117 445.963 98.9951 449.233 98.5137L449.333 99.4766C445.963 100.107 442.327 100.124 439.671 100.124L439.488 99.0117ZM467.611 100.356V101.452H454.098V100.356H457.451V96.3721C456.189 95.7163 455.426 94.6538 455.426 93.3174C455.426 91.0264 457.667 89.5322 460.821 89.5156C463.976 89.5322 466.217 91.0264 466.217 93.3174C466.217 94.6289 465.478 95.6831 464.258 96.3389V100.356H467.611ZM460.821 90.5947C458.397 90.5781 456.688 91.6738 456.688 93.3174C456.688 94.9609 458.397 96.0732 460.821 96.0732C463.229 96.0732 464.955 94.9609 464.955 93.3174C464.955 91.6738 463.229 90.5781 460.821 90.5947ZM458.729 100.356H462.946V96.8369C462.307 97.0112 461.593 97.1025 460.821 97.1025C460.066 97.1025 459.36 97.0195 458.729 96.8535V100.356ZM473.82 91.7568C473.82 93.5996 475.414 95.2432 477.589 95.8906L476.958 96.9033C475.248 96.397 473.878 95.2764 473.223 93.8154C472.575 95.4341 471.23 96.7041 469.471 97.2852L468.84 96.2891C471.015 95.5586 472.542 93.7656 472.542 91.7568V91.4414H469.205V90.3955H472.542V88.5195H473.854V90.3955H477.157V91.4414H473.82V91.7568ZM481.025 88.5859V97.5342H479.714V93.8984H476.692V92.8193H479.714V88.5859H481.025ZM476.128 97.9326C479.199 97.9326 481.075 98.8955 481.075 100.622C481.075 102.332 479.199 103.312 476.128 103.312C473.057 103.312 471.181 102.332 471.181 100.622C471.181 98.8955 473.057 97.9326 476.128 97.9326ZM476.128 98.9453C473.87 98.9619 472.459 99.5762 472.476 100.622C472.459 101.651 473.87 102.282 476.128 102.282C478.402 102.282 479.78 101.651 479.78 100.622C479.78 99.5762 478.402 98.9619 476.128 98.9453Z" fill="#1D1D1D"/>
<path d="M436.948 271.603V282.51H435.637V277.247H432.366V276.151H435.637V271.603H436.948ZM432.433 272.731C432.416 276.517 429.71 279.405 425.51 280.783L424.945 279.737C428.349 278.617 430.714 276.5 431.005 273.827H425.692V272.731H432.433ZM437.33 284.934V286.029H427.552V281.397H428.88V284.934H437.33ZM452.853 279.023V280.086H446.76V281.779H451.192V286.295H449.881V282.842H440.899V281.779H445.481V280.086H439.405V279.023H452.853ZM446.76 271.52V273.047H451.491V274.093H446.843C446.934 275.77 449.267 276.923 452.056 277.197L451.624 278.193C449.192 277.928 447.017 277.04 446.129 275.537C445.232 277.04 443.058 277.928 440.634 278.193L440.202 277.197C442.975 276.923 445.307 275.77 445.415 274.093H440.8V273.047H445.481V271.52H446.76ZM462.88 273.96V275.039H454.098V273.96H457.833V271.769H459.128V273.96H462.88ZM458.497 276.268C460.489 276.268 461.95 277.679 461.967 279.654C461.95 281.613 460.489 283.041 458.497 283.041C456.488 283.041 455.011 281.613 455.011 279.654C455.011 277.679 456.488 276.268 458.497 276.268ZM458.497 277.38C457.202 277.396 456.223 278.343 456.239 279.654C456.223 280.982 457.202 281.929 458.497 281.912C459.792 281.929 460.771 280.982 460.771 279.654C460.771 278.343 459.792 277.396 458.497 277.38ZM466.333 271.586V286.345H465.038V278.891H462.564V277.795H465.038V271.586H466.333ZM480.212 271.586V277.596H482.603V278.691H480.212V286.345H478.917V271.586H480.212ZM476.394 273.18C476.394 277.363 474.435 281.165 469.62 283.539L468.89 282.51C472.708 280.609 474.783 277.77 475.082 274.275H469.57V273.18H476.394Z" fill="#1D1D1D"/>
<path d="M745.124 76.5859V84.6045H743.829V81.2676H740.841V80.1719H743.829V76.5859H745.124ZM736.939 85.3184V87.1611H743.829V85.3184H745.124V91.1455H735.628V85.3184H736.939ZM736.939 90.083H743.829V88.207H736.939V90.083ZM738.035 78.9932C738.035 80.8857 739.513 82.7451 741.671 83.4922L740.99 84.5049C739.322 83.8989 738.035 82.6621 737.404 81.1348C736.765 82.8447 735.404 84.2144 733.652 84.8535L732.972 83.8242C735.146 83.0439 736.724 81.085 736.724 78.9932V78.5615H733.387V77.4824H741.339V78.5615H738.035V78.9932ZM755.002 77.9639C755.002 80.0391 757.725 81.8486 760.381 82.2139L759.85 83.2764C757.559 82.8945 755.292 81.6245 754.338 79.8066C753.392 81.6328 751.117 82.8945 748.826 83.2764L748.295 82.2139C750.951 81.8486 753.657 80.0723 753.657 77.9639V77.1172H755.002V77.9639ZM761.045 84.9033V85.999H754.936V91.3447H753.657V85.999H747.598V84.9033H761.045Z" fill="#1D1D1D"/>
<path d="M728.495 271.96V273.039H719.713V271.96H723.448V269.769H724.743V271.96H728.495ZM724.112 274.268C726.104 274.268 727.565 275.679 727.582 277.654C727.565 279.613 726.104 281.041 724.112 281.041C722.104 281.041 720.626 279.613 720.626 277.654C720.626 275.679 722.104 274.268 724.112 274.268ZM724.112 275.38C722.817 275.396 721.838 276.343 721.854 277.654C721.838 278.982 722.817 279.929 724.112 279.912C725.407 279.929 726.387 278.982 726.387 277.654C726.387 276.343 725.407 275.396 724.112 275.38ZM731.948 269.586V284.345H730.653V276.891H728.18V275.795H730.653V269.586H731.948ZM745.827 269.586V275.596H748.218V276.691H745.827V284.345H744.532V269.586H745.827ZM742.009 271.18C742.009 275.363 740.05 279.165 735.235 281.539L734.505 280.51C738.323 278.609 740.398 275.77 740.697 272.275H735.186V271.18H742.009ZM762.562 276.891V277.937H749.098V276.891H755.19V275.164H750.808V270.283H760.885V271.329H752.086V274.102H760.984V275.164H756.452V276.891H762.562ZM755.821 279.016C758.992 279.016 760.885 279.979 760.901 281.672C760.885 283.382 758.992 284.328 755.821 284.345C752.634 284.328 750.725 283.382 750.725 281.672C750.725 279.979 752.634 279.016 755.821 279.016ZM755.821 280.045C753.447 280.045 752.036 280.659 752.053 281.672C752.036 282.701 753.447 283.299 755.821 283.299C758.162 283.299 759.59 282.701 759.59 281.672C759.59 280.659 758.162 280.045 755.821 280.045ZM768.621 270.665C770.945 270.665 772.589 272.076 772.589 274.135C772.589 276.193 770.945 277.604 768.621 277.604C766.297 277.604 764.62 276.193 764.637 274.135C764.62 272.076 766.297 270.665 768.621 270.665ZM768.621 271.811C767.044 271.811 765.898 272.757 765.915 274.135C765.898 275.513 767.044 276.459 768.621 276.459C770.182 276.459 771.311 275.513 771.311 274.135C771.311 272.757 770.182 271.811 768.621 271.811ZM775.893 269.586V284.378H774.598V269.586H775.893ZM763.873 280.012C766.596 280.012 770.348 279.995 773.618 279.514L773.718 280.477C770.348 281.107 766.712 281.124 764.056 281.124L763.873 280.012Z" fill="#1D1D1D"/>
<path d="M966.537 420.554C966.537 423.227 968.247 425.916 970.389 426.896L969.608 427.958C967.932 427.095 966.545 425.327 965.89 423.227C965.234 425.435 963.848 427.327 962.171 428.224L961.324 427.178C963.482 426.115 965.209 423.276 965.209 420.554V417.864H966.537V420.554ZM973.576 416.586V431.378H972.281V422.695H968.778V421.633H972.281V416.586H973.576ZM989.53 425.401V426.447H985.978V431.345H984.683V426.447H980.864V431.345H979.553V426.447H976.017V425.401H989.53ZM987.887 417.167V420.952H978.988V422.795H988.202V423.874H977.677V419.939H986.559V418.246H977.644V417.167H987.887ZM1004.24 428.373V429.452H990.726V428.373H996.802V425.186H992.319V417.632H993.631V420.305H1001.3V417.632H1002.58V425.186H998.08V428.373H1004.24ZM993.631 424.123H1001.3V421.367H993.631V424.123ZM1009.92 417.283C1012.08 417.283 1013.59 418.445 1013.59 420.205C1013.59 421.724 1012.39 422.828 1010.61 423.044V424.488C1011.99 424.43 1013.4 424.306 1014.68 424.106L1014.78 425.086C1011.66 425.65 1008.12 425.684 1005.57 425.684L1005.4 424.604C1006.55 424.613 1007.89 424.604 1009.3 424.555V423.061C1007.48 422.861 1006.25 421.749 1006.26 420.205C1006.25 418.445 1007.76 417.283 1009.92 417.283ZM1009.92 418.296C1008.49 418.296 1007.48 419.06 1007.49 420.205C1007.48 421.317 1008.49 422.081 1009.92 422.098C1011.36 422.081 1012.34 421.317 1012.36 420.205C1012.34 419.06 1011.36 418.296 1009.92 418.296ZM1016.94 416.603V421.6H1019.15V422.712H1016.94V427.892H1015.63V416.603H1016.94ZM1017.47 429.917V431.013H1007.56V426.912H1008.87V429.917H1017.47ZM1032.31 416.586V424.256H1031V416.586H1032.31ZM1032.31 424.97V428.489H1023.98V430.116H1032.88V431.179H1022.7V427.51H1031.02V426.016H1022.65V424.97H1032.31ZM1028.76 417.599V418.645H1027.27V422.413C1028.03 422.372 1028.78 422.297 1029.49 422.214L1029.56 423.177C1026.6 423.608 1023.13 423.725 1020.53 423.725L1020.36 422.646L1022.25 422.629V418.645H1020.77V417.599H1028.76ZM1023.51 422.596C1024.33 422.579 1025.17 422.554 1026 422.496V418.645H1023.51V422.596ZM1048.32 428.356V429.452H1034.8V428.356H1038.16V424.372C1036.89 423.716 1036.13 422.654 1036.13 421.317C1036.13 419.026 1038.37 417.532 1041.53 417.516C1044.68 417.532 1046.92 419.026 1046.92 421.317C1046.92 422.629 1046.18 423.683 1044.96 424.339V428.356H1048.32ZM1041.53 418.595C1039.1 418.578 1037.39 419.674 1037.39 421.317C1037.39 422.961 1039.1 424.073 1041.53 424.073C1043.93 424.073 1045.66 422.961 1045.66 421.317C1045.66 419.674 1043.93 418.578 1041.53 418.595ZM1039.43 428.356H1043.65V424.837C1043.01 425.011 1042.3 425.103 1041.53 425.103C1040.77 425.103 1040.07 425.02 1039.43 424.854V428.356ZM1054.74 420.554C1054.72 423.243 1056.57 425.966 1058.74 426.945L1057.95 427.975C1056.27 427.153 1054.82 425.418 1054.11 423.31C1053.42 425.542 1051.97 427.402 1050.24 428.273L1049.41 427.178C1051.6 426.165 1053.43 423.359 1053.45 420.554V417.864H1054.74V420.554ZM1061.66 416.586V431.378H1060.35V416.586H1061.66ZM1082.6 428.373V429.452H1069.08V428.373H1075.16V425.186H1070.68V417.632H1071.99V420.305H1079.66V417.632H1080.94V425.186H1076.44V428.373H1082.6ZM1071.99 424.123H1079.66V421.367H1071.99V424.123ZM1088.28 417.283C1090.43 417.283 1091.95 418.445 1091.95 420.205C1091.95 421.724 1090.75 422.828 1088.97 423.044V424.488C1090.35 424.43 1091.75 424.306 1093.04 424.106L1093.14 425.086C1090.02 425.65 1086.48 425.684 1083.93 425.684L1083.76 424.604C1084.91 424.613 1086.25 424.604 1087.66 424.555V423.061C1085.84 422.861 1084.61 421.749 1084.62 420.205C1084.61 418.445 1086.12 417.283 1088.28 417.283ZM1088.28 418.296C1086.85 418.296 1085.84 419.06 1085.85 420.205C1085.84 421.317 1086.85 422.081 1088.28 422.098C1089.72 422.081 1090.7 421.317 1090.72 420.205C1090.7 419.06 1089.72 418.296 1088.28 418.296ZM1095.3 416.603V421.6H1097.51V422.712H1095.3V427.892H1093.99V416.603H1095.3ZM1095.83 429.917V431.013H1085.92V426.912H1087.23V429.917H1095.83ZM1111.98 428.356V429.452H1098.47V428.356H1101.82V424.372C1100.56 423.716 1099.8 422.654 1099.8 421.317C1099.8 419.026 1102.04 417.532 1105.19 417.516C1108.35 417.532 1110.59 419.026 1110.59 421.317C1110.59 422.629 1109.85 423.683 1108.63 424.339V428.356H1111.98ZM1105.19 418.595C1102.77 418.578 1101.06 419.674 1101.06 421.317C1101.06 422.961 1102.77 424.073 1105.19 424.073C1107.6 424.073 1109.33 422.961 1109.33 421.317C1109.33 419.674 1107.6 418.578 1105.19 418.595ZM1103.1 428.356H1107.32V424.837C1106.68 425.011 1105.97 425.103 1105.19 425.103C1104.44 425.103 1103.73 425.02 1103.1 424.854V428.356ZM1124.83 417.549V418.844C1124.83 420.247 1124.83 421.766 1124.42 423.891H1126.61V424.97H1120.52V431.378H1119.21V424.97H1113.16V423.891H1123.09C1123.54 421.766 1123.54 420.213 1123.54 418.844V418.628H1114.86V417.549H1124.83ZM954.011 453.543V452.314L958.693 443.98H960.17L955.588 452.132V452.231H959.54V448.479H960.951V452.231H962.561V453.543H960.951V456H959.54V453.543H954.011ZM967.973 443.134C970.181 443.15 971.792 444.479 971.792 446.404C971.792 448.33 970.181 449.658 967.973 449.658C965.732 449.658 964.138 448.33 964.138 446.404C964.138 444.479 965.732 443.15 967.973 443.134ZM967.973 444.229C966.496 444.229 965.4 445.126 965.417 446.404C965.4 447.699 966.496 448.596 967.973 448.596C969.434 448.596 970.53 447.699 970.53 446.404C970.53 445.126 969.434 444.229 967.973 444.229ZM975.975 442.586V450.173H974.68V442.586H975.975ZM975.975 450.887V454.439H967.691V456.1H976.506V457.146H966.413V453.46H974.68V451.933H966.379V450.887H975.975ZM990.02 442.603V447.467H992.245V448.562H990.02V453.659H988.725V442.603H990.02ZM987.314 444.412V445.475H978.515V444.412H982.267V442.603H983.562V444.412H987.314ZM982.915 446.288C985.023 446.288 986.451 447.367 986.467 449.044C986.451 450.704 985.023 451.767 982.915 451.767C980.79 451.767 979.345 450.704 979.362 449.044C979.345 447.367 980.79 446.288 982.915 446.288ZM982.915 447.317C981.52 447.317 980.59 447.998 980.607 449.044C980.59 450.09 981.52 450.754 982.915 450.737C984.292 450.754 985.222 450.09 985.239 449.044C985.222 447.998 984.292 447.317 982.915 447.317ZM990.701 455.934V457.029H980.79V452.779H982.068V455.934H990.701ZM1011.59 454.373V455.452H998.072V454.373H1004.15V451.186H999.666V443.632H1000.98V446.305H1008.65V443.632H1009.93V451.186H1005.43V454.373H1011.59ZM1000.98 450.123H1008.65V447.367H1000.98V450.123ZM1017.26 443.283C1019.42 443.283 1020.93 444.445 1020.93 446.205C1020.93 447.724 1019.74 448.828 1017.96 449.044V450.488C1019.34 450.43 1020.74 450.306 1022.03 450.106L1022.13 451.086C1019.01 451.65 1015.47 451.684 1012.91 451.684L1012.75 450.604C1013.89 450.613 1015.24 450.604 1016.65 450.555V449.061C1014.82 448.861 1013.59 447.749 1013.61 446.205C1013.59 444.445 1015.1 443.283 1017.26 443.283ZM1017.26 444.296C1015.84 444.296 1014.82 445.06 1014.84 446.205C1014.82 447.317 1015.84 448.081 1017.26 448.098C1018.71 448.081 1019.69 447.317 1019.7 446.205C1019.69 445.06 1018.71 444.296 1017.26 444.296ZM1024.29 442.603V447.6H1026.49V448.712H1024.29V453.892H1022.97V442.603H1024.29ZM1024.82 455.917V457.013H1014.91V452.912H1016.22V455.917H1024.82ZM1034.18 442.769C1037.47 442.769 1039.39 443.682 1039.39 445.325C1039.39 446.985 1037.47 447.882 1034.18 447.898C1030.89 447.882 1028.95 446.985 1028.95 445.325C1028.95 443.682 1030.89 442.769 1034.18 442.769ZM1034.18 443.765C1031.72 443.781 1030.3 444.346 1030.31 445.325C1030.3 446.338 1031.72 446.886 1034.18 446.902C1036.62 446.886 1038.06 446.338 1038.06 445.325C1038.06 444.346 1036.62 443.781 1034.18 443.765ZM1040.9 448.878V449.924H1034.81V451.318H1039.18V454.622H1030.41V456.149H1039.63V457.179H1029.12V453.659H1037.9V452.314H1029.08V451.318H1033.52V449.924H1027.46V448.878H1040.9ZM1055.6 450.372V451.435H1042.15V450.372H1055.6ZM1054.1 455.934V457.029H1043.89V452.729H1045.2V455.934H1054.1ZM1048.87 443.117C1052.04 443.101 1054.09 444.196 1054.09 446.039C1054.09 447.882 1052.04 448.978 1048.87 448.978C1045.67 448.978 1043.64 447.882 1043.64 446.039C1043.64 444.196 1045.67 443.101 1048.87 443.117ZM1048.87 444.163C1046.5 444.163 1044.97 444.877 1044.99 446.039C1044.97 447.201 1046.5 447.915 1048.87 447.915C1051.23 447.915 1052.76 447.201 1052.76 446.039C1052.76 444.877 1051.23 444.163 1048.87 444.163ZM1062.09 446.554C1062.07 449.243 1063.91 451.966 1066.09 452.945L1065.29 453.975C1063.61 453.153 1062.16 451.418 1061.46 449.31C1060.77 451.542 1059.31 453.402 1057.59 454.273L1056.76 453.178C1058.95 452.165 1060.78 449.359 1060.79 446.554V443.864H1062.09V446.554ZM1069.01 442.586V457.378H1067.7V442.586H1069.01ZM1081.63 446.554C1081.63 449.227 1083.34 451.916 1085.48 452.896L1084.7 453.958C1083.02 453.095 1081.64 451.327 1080.98 449.227C1080.32 451.435 1078.94 453.327 1077.26 454.224L1076.41 453.178C1078.57 452.115 1080.3 449.276 1080.3 446.554V443.864H1081.63V446.554ZM1088.67 442.586V457.378H1087.37V448.695H1083.87V447.633H1087.37V442.586H1088.67ZM1104.62 451.401V452.447H1101.07V457.345H1099.77V452.447H1095.95V457.345H1094.64V452.447H1091.11V451.401H1104.62ZM1102.98 443.167V446.952H1094.08V448.795H1103.29V449.874H1092.77V445.939H1101.65V444.246H1092.73V443.167H1102.98ZM1117.35 442.603V447.068H1119.58V448.164H1117.35V453.443H1116.06V442.603H1117.35ZM1118.03 455.934V457.029H1108.12V452.381H1109.4V455.934H1118.03ZM1107.73 443.665V446.155H1112.02V443.665H1113.32V450.953H1106.45V443.665H1107.73ZM1107.73 449.891H1112.02V447.185H1107.73V449.891ZM1132.73 442.586V457.378H1131.43V451.086H1128.36V449.99H1131.43V447.052H1128.48V445.956H1131.43V442.586H1132.73ZM1127.51 443.931V449.177H1122.37V452.812C1124.58 452.804 1126.42 452.721 1128.66 452.381L1128.78 453.477C1126.42 453.842 1124.53 453.925 1122.17 453.925H1121.07V448.114H1126.24V445.01H1121.02V443.931H1127.51Z" fill="#1D1D1D"/>
<path d="M1037.53 76.5488C1037.51 80.251 1034.87 82.9072 1030.62 84.1191L1030.07 83.0898C1033.6 82.0938 1035.85 80.1348 1036.13 77.6279H1030.83V76.5488H1037.53ZM1042.14 75.6025V84.0195H1040.83V80.5H1037.56V79.4043H1040.83V75.6025H1042.14ZM1042.14 84.6504V90.1455H1032.56V84.6504H1042.14ZM1033.82 85.6963V89.083H1040.85V85.6963H1033.82ZM1056.55 83.2725V84.335H1051.97V87.4229H1058.11V88.502H1044.6V87.4229H1050.67V84.335H1046.34V76.7979H1056.38V77.877H1047.67V79.9854H1056.07V81.0479H1047.67V83.2725H1056.55Z" fill="#1D1D1D"/>
<path d="M146.948 271.603V282.51H145.637V277.247H142.366V276.151H145.637V271.603H146.948ZM142.433 272.731C142.416 276.517 139.71 279.405 135.51 280.783L134.945 279.737C138.349 278.617 140.714 276.5 141.005 273.827H135.692V272.731H142.433ZM147.33 284.934V286.029H137.552V281.397H138.88V284.934H147.33ZM162.853 279.023V280.086H156.76V281.779H161.192V286.295H159.881V282.842H150.899V281.779H155.481V280.086H149.405V279.023H162.853ZM156.76 271.52V273.047H161.491V274.093H156.843C156.934 275.77 159.267 276.923 162.056 277.197L161.624 278.193C159.192 277.928 157.017 277.04 156.129 275.537C155.232 277.04 153.058 277.928 150.634 278.193L150.202 277.197C152.975 276.923 155.307 275.77 155.415 274.093H150.8V273.047H155.481V271.52H156.76ZM170.771 280.916C173.942 280.916 175.951 281.912 175.951 283.622C175.951 285.315 173.942 286.312 170.771 286.312C167.617 286.312 165.608 285.315 165.608 283.622C165.608 281.912 167.617 280.916 170.771 280.916ZM170.771 281.912C168.414 281.929 166.887 282.576 166.903 283.622C166.887 284.651 168.414 285.282 170.771 285.282C173.129 285.282 174.64 284.651 174.656 283.622C174.64 282.576 173.129 281.929 170.771 281.912ZM175.835 272.35V273.595C175.835 274.79 175.835 275.985 175.42 277.513L174.142 277.363C174.54 275.836 174.54 274.757 174.54 273.595V273.412H165.708V272.35H175.835ZM177.545 278.476V279.538H164.114V278.476H169.676V275.62H170.954V278.476H177.545ZM183.737 275.554C183.737 278.16 185.464 280.833 187.556 281.862L186.759 282.908C185.132 282.053 183.771 280.31 183.123 278.26C182.459 280.443 181.064 282.302 179.404 283.19L178.574 282.145C180.732 281.082 182.442 278.243 182.459 275.554V272.864H183.737V275.554ZM190.212 271.586V277.579H192.686V278.708H190.212V286.345H188.917V271.586H190.212Z" fill="#1D1D1D"/>
<path d="M259 84C259 88.4183 262.582 92 267 92C271.418 92 275 88.4183 275 84C275 79.5817 271.418 76 267 76C262.582 76 259 79.5817 259 84ZM346 84L331 75.3397V92.6603L346 84ZM267 85.5H332.5V82.5H267V85.5Z" fill="#5286FF"/>
<path d="M553 84C553 88.4183 556.582 92 561 92C565.418 92 569 88.4183 569 84C569 79.5817 565.418 76 561 76C556.582 76 553 79.5817 553 84ZM640 84L625 75.3397V92.6603L640 84ZM561 85.5H626.5V82.5H561V85.5Z" fill="#5286FF"/>
<path d="M647 279C647 274.582 643.418 271 639 271C634.582 271 631 274.582 631 279C631 283.418 634.582 287 639 287C643.418 287 647 283.418 647 279ZM559 279L574 287.66L574 270.34L559 279ZM639 277.5L572.5 277.5L572.5 280.5L639 280.5L639 277.5Z" fill="#5286FF"/>
<path d="M354 280C354 275.582 350.418 272 346 272C341.582 272 338 275.582 338 280C338 284.418 341.582 288 346 288C350.418 288 354 284.418 354 280ZM266 280L281 288.66L281 271.34L266 280ZM346 278.5L279.5 278.5L279.5 281.5L346 281.5L346 278.5Z" fill="#5286FF"/>
<path d="M1044 121C1039.58 121 1036 124.582 1036 129C1036 133.418 1039.58 137 1044 137C1048.42 137 1052 133.418 1052 129C1052 124.582 1048.42 121 1044 121ZM1044 385L1052.66 370H1035.34L1044 385ZM1042.5 129V371.5H1045.5V129H1042.5Z" fill="#5286FF"/>
<path d="M847 84C847 88.4183 850.582 92 855 92C859.418 92 863 88.4183 863 84C863 79.5817 859.418 76 855 76C850.582 76 847 79.5817 847 84ZM934 84L919 75.3397V92.6603L934 84ZM855 85.5H920.5V82.5H855V85.5Z" fill="#5286FF"/>
<path d="M1052 280.042C1052.02 275.624 1048.46 272.023 1044.04 272C1039.62 271.977 1036.02 275.54 1036 279.958C1035.98 284.376 1039.54 287.977 1043.96 288C1048.38 288.023 1051.98 284.46 1052 280.042ZM854 279L868.954 287.739L869.045 270.419L854 279ZM1044.01 278.5L867.508 277.571L867.492 280.571L1043.99 281.5L1044.01 278.5Z" fill="#5286FF"/>
<rect x="1010.5" y="315.5" width="68" height="26" rx="11.5" fill="white" stroke="#5286FF"/>
<path d="M1036.72 329.136V330.796H1030.81V335.527H1028.72V330.796H1022.89V329.136H1036.72ZM1026.61 321.001V322.744H1032.95V321.001H1035.08V327.675H1024.52V321.001H1026.61ZM1026.61 325.981H1032.95V324.404H1026.61V325.981ZM1046.32 321.267V322.943H1043.31C1043.33 324.728 1044.39 326.554 1046.78 327.343L1045.74 328.97C1044.06 328.438 1042.91 327.343 1042.27 325.981C1041.59 327.492 1040.38 328.712 1038.6 329.285L1037.52 327.608C1040 326.812 1041.13 324.828 1041.15 322.943H1038.12V321.267H1046.32ZM1050.34 330.082V335.527H1048.23V331.775H1039.96V330.082H1050.34ZM1050.34 320.42V329.418H1048.23V325.782H1045.89V324.056H1048.23V320.42H1050.34ZM1064.28 320.42V324.056H1066.32V325.815H1064.28V329.269H1062.16V320.42H1064.28ZM1056.49 329.85V330.995H1062.16V329.85H1064.28V335.361H1054.39V329.85H1056.49ZM1056.49 333.701H1062.16V332.622H1056.49V333.701ZM1061.26 321.748V323.408H1052.29V321.748H1055.73V320.32H1057.84V321.748H1061.26ZM1056.78 323.84C1058.97 323.84 1060.5 324.902 1060.5 326.513C1060.5 328.123 1058.97 329.186 1056.78 329.186C1054.55 329.186 1053.02 328.123 1053.02 326.513C1053.02 324.902 1054.55 323.84 1056.78 323.84ZM1056.78 325.4C1055.76 325.384 1055.08 325.799 1055.1 326.513C1055.08 327.243 1055.76 327.642 1056.78 327.642C1057.79 327.642 1058.49 327.243 1058.49 326.513C1058.49 325.799 1057.79 325.384 1056.78 325.4Z" fill="#5286FF"/>
<rect x="923.5" y="266.5" width="53" height="26" rx="11.5" fill="white" stroke="#5286FF"/>
<path d="M945.13 272.267V273.943H942.125C942.142 275.728 943.204 277.554 945.595 278.343L944.549 279.97C942.872 279.438 941.727 278.343 941.079 276.981C940.399 278.492 939.195 279.712 937.411 280.285L936.331 278.608C938.813 277.812 939.942 275.828 939.967 273.943H936.929V272.267H945.13ZM949.148 281.082V286.527H947.039V282.775H938.772V281.082H949.148ZM949.148 271.42V280.418H947.039V276.782H944.699V275.056H947.039V271.42H949.148ZM963.093 271.42V275.056H965.135V276.815H963.093V280.269H960.968V271.42H963.093ZM955.307 280.85V281.995H960.968V280.85H963.093V286.361H953.199V280.85H955.307ZM955.307 284.701H960.968V283.622H955.307V284.701ZM960.072 272.748V274.408H951.107V272.748H954.543V271.32H956.652V272.748H960.072ZM955.589 274.84C957.781 274.84 959.308 275.902 959.308 277.513C959.308 279.123 957.781 280.186 955.589 280.186C953.365 280.186 951.837 279.123 951.837 277.513C951.837 275.902 953.365 274.84 955.589 274.84ZM955.589 276.4C954.577 276.384 953.896 276.799 953.912 277.513C953.896 278.243 954.577 278.642 955.589 278.642C956.602 278.642 957.299 278.243 957.299 277.513C957.299 276.799 956.602 276.384 955.589 276.4Z" fill="#5286FF"/>
</svg>
