<svg width="28" height="20" viewBox="0 0 28 20" fill="none" xmlns="http://www.w3.org/2000/svg">
<g filter="url(#filter0_d_81_2391)">
<g clip-path="url(#clip0_81_2391)">
<path d="M2 2H26V18H2V2Z" fill="white"/>
<path d="M10.6719 7.78101C11.2603 6.89832 12.1754 6.28556 13.2156 6.07752C14.2559 5.86949 15.3362 6.08321 16.2189 6.67168C17.1016 7.26015 17.7144 8.17516 17.9224 9.21542C18.1304 10.2557 17.9167 11.336 17.3282 12.2187L10.6719 7.78101Z" fill="#D0303C"/>
<path d="M10.6718 7.78122C10.0834 8.6639 9.86965 9.7442 10.0777 10.7845C10.2857 11.8247 10.8985 12.7397 11.7812 13.3282C12.6639 13.9167 13.7442 14.1304 14.7844 13.9224C15.8247 13.7143 16.7397 13.1016 17.3282 12.2189C17.6224 11.7775 17.7293 11.2374 17.6253 10.7173C17.5212 10.1971 17.2149 9.73962 16.7735 9.44539C16.3322 9.15115 15.792 9.04429 15.2719 9.14831C14.7518 9.25233 14.2943 9.55871 14 10.0001L10.6718 7.78122Z" fill="#134A9D"/>
<path d="M14.0001 10.0001C14.6128 9.08102 14.3645 7.83928 13.4454 7.22657C12.5264 6.61385 11.2846 6.86218 10.6719 7.78123C10.0592 8.70028 10.3075 9.94202 11.2266 10.5547C12.1456 11.1674 13.3874 10.9191 14.0001 10.0001Z" fill="#D0303C"/>
<path d="M5.67941 6.85652L7.89821 3.52832L8.45291 3.89812L6.23411 7.22632L5.67941 6.85652ZM6.51146 7.41122L8.73026 4.08302L9.28496 4.45282L7.06616 7.78102L6.51146 7.41122ZM7.34351 7.96592L9.56231 4.63772L10.117 5.00752L7.89821 8.33572L7.34351 7.96592Z" fill="black"/>
<path d="M21.3035 14.6685L22.3203 13.1431L21.7656 12.7733L20.7488 14.2987L21.3035 14.6685Z" fill="black"/>
<path d="M20.4714 14.1138L21.4883 12.5884L20.9336 12.2186L19.9167 13.744L20.4714 14.1138Z" fill="black"/>
<path d="M19.7318 14.0213L20.2865 14.3911L19.2695 15.9166L18.7148 15.5468L19.7318 14.0213Z" fill="black"/>
<path d="M19.6394 13.5591L20.6562 12.0337L20.1015 11.6639L19.0847 13.1893L19.6394 13.5591Z" fill="black"/>
<path d="M18.8998 13.4666L19.4545 13.8364L18.4374 15.3619L17.8827 14.9921L18.8998 13.4666Z" fill="black"/>
<path d="M20.5639 14.576L21.1186 14.9458L20.1015 16.4713L19.5468 16.1015L20.5639 14.576Z" fill="black"/>
<path d="M19.4543 6.16337L18.4374 4.63789L17.8827 5.00769L18.8996 6.53317L19.4543 6.16337Z" fill="black"/>
<path d="M19.0845 6.81052L20.1015 8.33589L20.6562 7.96609L19.6392 6.44072L19.0845 6.81052Z" fill="black"/>
<path d="M20.9335 7.78119L18.7147 4.45299L19.2694 4.08319L21.4882 7.41139L20.9335 7.78119Z" fill="black"/>
<path d="M21.7656 7.22649L20.7486 5.70109L21.3033 5.33129L22.3203 6.85669L21.7656 7.22649Z" fill="black"/>
<path d="M21.1184 5.05394L20.5637 5.42374L19.5468 3.89829L20.1015 3.52849L21.1184 5.05394Z" fill="black"/>
<path d="M5.67932 13.1433L7.89812 16.4715L8.45282 16.1017L6.23402 12.7735L5.67932 13.1433Z" fill="black"/>
<path d="M7.71323 14.3914L8.73017 15.9168L9.28487 15.547L8.26793 14.0216L7.71323 14.3914Z" fill="black"/>
<path d="M7.52833 14.114L8.08303 13.7442L7.06607 12.2188L6.51137 12.5886L7.52833 14.114Z" fill="black"/>
<path d="M7.34342 12.0339L9.56222 15.3621L10.1169 14.9923L7.89812 11.6641L7.34342 12.0339Z" fill="black"/>
</g>
</g>
<defs>
<filter id="filter0_d_81_2391" x="0" y="0" width="28" height="20" filterUnits="userSpaceOnUse" color-interpolation-filters="sRGB">
<feFlood flood-opacity="0" result="BackgroundImageFix"/>
<feColorMatrix in="SourceAlpha" type="matrix" values="0 0 0 0 0 0 0 0 0 0 0 0 0 0 0 0 0 0 127 0" result="hardAlpha"/>
<feOffset/>
<feGaussianBlur stdDeviation="1"/>
<feComposite in2="hardAlpha" operator="out"/>
<feColorMatrix type="matrix" values="0 0 0 0 0 0 0 0 0 0 0 0 0 0 0 0 0 0 0.1 0"/>
<feBlend mode="normal" in2="BackgroundImageFix" result="effect1_dropShadow_81_2391"/>
<feBlend mode="normal" in="SourceGraphic" in2="effect1_dropShadow_81_2391" result="shape"/>
</filter>
<clipPath id="clip0_81_2391">
<rect x="2" y="2" width="24" height="16" rx="1" fill="white"/>
</clipPath>
</defs>
</svg>
