<svg width="58" height="50" viewBox="0 0 58 50" fill="none" xmlns="http://www.w3.org/2000/svg">
<path d="M57.9844 19.0915C57.8899 18.1423 57.5115 17.2416 56.8966 16.5021C56.2984 15.8129 55.5536 15.2601 54.7143 14.8825C53.875 14.5049 52.9616 14.3116 52.038 14.3162C49.9081 9.92909 46.5181 6.24568 42.2833 3.71717C38.0485 1.18865 33.1528 -0.0751877 28.1958 0.0804514C23.2388 0.23609 18.4357 1.80445 14.3749 4.59343C10.3141 7.38241 7.17195 11.2709 5.33322 15.7826H5.33848C3.74068 17.0582 2.5651 18.7694 1.96049 20.6997C1.35588 22.6299 1.34943 24.6925 1.94195 26.6263C2.81847 29.4175 2.24961 29.663 1.10486 30.5834C0.750408 30.8426 0.465013 31.1817 0.272899 31.5719C0.080785 31.9622 -0.0123771 32.3921 0.00131859 32.8251C0.00131859 33.5 0.145069 33.9902 1.11801 33.9902H5.21314C7.2759 39.2463 11.092 43.6652 16.0418 46.5292C20.9916 49.3933 26.7844 50.5343 32.4798 49.7671C38.1751 49 43.4384 46.3696 47.4152 42.3031C51.3919 38.2366 53.8486 32.9728 54.3862 27.3664L56.9772 23.1817C57.736 21.9529 58.0869 20.5239 57.9817 19.0915M6.21501 15.1876C8.13055 10.9346 11.2463 7.30593 15.1956 4.7284C19.145 2.15087 23.7638 0.731736 28.5085 0.637939C33.2533 0.544142 37.9268 1.77958 41.9791 4.19893C46.0314 6.61828 49.2941 10.1209 51.3833 14.2947C51.2754 14.2947 51.1764 14.2844 51.0651 14.2844C50.4493 14.2879 49.8344 14.3309 49.2244 14.4132C47.2678 10.8459 44.3635 7.86281 40.8185 5.77924C37.2735 3.69568 33.2196 2.5891 29.0854 2.57652C24.9512 2.56395 20.8904 3.64583 17.3322 5.70779C13.7741 7.76974 10.8509 10.7351 8.87176 14.2905C8.04874 14.3292 7.24884 14.5698 6.54546 14.9902C6.43151 15.0511 6.32457 15.1233 6.21413 15.1885L6.21501 15.1876ZM44.1633 12.2522C44.145 12.2296 44.1217 12.2112 44.0953 12.1985C44.0688 12.1857 44.0398 12.1788 44.0103 12.1783C43.9808 12.1778 43.9516 12.1837 43.9247 12.1956C43.8978 12.2075 43.8739 12.2251 43.8548 12.2471C43.5918 12.4651 44.2983 13.2387 43.7741 13.68C43.6967 13.7385 43.6077 13.7805 43.5127 13.8032C43.4178 13.826 43.319 13.8291 43.2228 13.8123C43.1265 13.7955 43.0349 13.7591 42.9539 13.7056C42.8728 13.6521 42.8041 13.5825 42.7521 13.5014C42.4111 13.1116 42.2832 12.7682 42.76 12.4093L43.1439 12.8463C43.0723 12.8958 43.0124 12.96 42.9686 13.0344C42.9388 13.1031 42.9546 13.1726 43.0326 13.261C43.0505 13.2841 43.0732 13.3031 43.0992 13.3169C43.1252 13.3307 43.1538 13.339 43.1833 13.3412C43.2128 13.3434 43.2424 13.3394 43.2702 13.3296C43.298 13.3198 43.3234 13.3043 43.3446 13.2842C43.6909 12.9932 42.9239 12.2737 43.4437 11.8358C43.7943 11.5396 44.2036 11.7912 44.4561 12.0788C44.719 12.3827 44.8154 12.7828 44.4412 13.0541L44.059 12.618C44.1721 12.5235 44.2282 12.4531 44.2291 12.3973C44.2288 12.3703 44.2231 12.3436 44.2121 12.3188C44.2011 12.294 44.1851 12.2717 44.1651 12.2531M40.8912 9.33396C40.6861 9.18457 40.5345 9.35028 40.2672 9.70143C39.8771 10.2166 39.8359 10.3608 40.0147 10.4904C40.1655 10.6003 40.339 10.5179 40.5064 10.2964L40.9894 10.6476C40.9311 10.7477 40.8497 10.833 40.7517 10.8969C40.6537 10.9607 40.5419 11.0013 40.4251 11.0153C40.3083 11.0293 40.1897 11.0164 40.0789 10.9776C39.9681 10.9388 39.8681 10.8752 39.7868 10.7918C39.1636 10.3393 39.3643 9.90748 39.7658 9.37861C40.1164 8.91584 40.4828 8.5707 41.12 9.03518C41.223 9.08565 41.3127 9.15885 41.3819 9.24902C41.4511 9.33919 41.498 9.44386 41.5189 9.5548C41.5398 9.66574 41.5341 9.77992 41.5023 9.88834C41.4705 9.99677 41.4135 10.0965 41.3356 10.1796L40.8527 9.8285C41.0429 9.57694 41.042 9.44643 40.8912 9.33654M38.2617 39.9718V40.5299H37.4141V41.7319H36.8066V38.8445H37.4141V39.9692L38.2617 39.9718ZM37.0082 42.0478C37.1205 42.1444 37.213 42.2609 37.2808 42.3912C37.3499 42.5242 37.3857 42.6714 37.3851 42.8205C37.3856 42.969 37.352 43.1157 37.287 43.2498C37.2218 43.3822 37.131 43.5008 37.0196 43.5992C36.9037 43.7009 36.7697 43.781 36.6243 43.8354C36.4704 43.8927 36.3069 43.9218 36.1422 43.9212C35.9723 43.9226 35.8036 43.8935 35.6444 43.8354C35.5003 43.7816 35.3668 43.7037 35.2499 43.6053C35.1386 43.5078 35.0491 43.3888 34.987 43.2558C34.9254 43.1208 34.894 42.9744 34.8949 42.8265C34.8943 42.678 34.9279 42.5313 34.9931 42.3973C35.0582 42.2652 35.1511 42.1482 35.2657 42.0538C35.3822 41.9557 35.5158 41.8789 35.6601 41.8272C35.8125 41.7708 35.9741 41.7417 36.137 41.7413C36.2973 41.7408 36.4566 41.7675 36.6077 41.8203C36.7537 41.8716 36.8893 41.9477 37.0082 42.0452M33.2392 41.4571L33.2497 41.4649L33.2409 41.4752L32.8588 41.8864L32.8509 41.895L32.8412 41.8873L31.4563 40.7445C31.2963 40.9969 31.0973 41.2234 30.8664 41.4159C30.6225 41.6211 30.3452 41.7848 30.046 41.9002H30.0372L30.0311 41.8924L29.648 41.47L29.6367 41.4571L29.6524 41.4503C30.0592 41.2927 30.4219 41.0425 30.7104 40.7205C30.8425 40.567 30.9512 40.3955 31.033 40.2114C31.1099 40.0322 31.1495 39.8399 31.1495 39.6456V39.2541H31.7955V39.6456C31.7951 39.7383 31.7866 39.8307 31.7701 39.922C31.7549 40.0113 31.7351 40.1009 31.7105 40.1907L33.2392 41.4571ZM31.1355 42.5217V41.3541H31.7324V42.5217H33.8133V43.079H29.1861V42.5217H31.1355ZM33.7099 41.4795V39.1562H34.3129V39.9006H35.3323V39.1562H35.9354V41.4795H33.7099ZM30.1801 33.3471H22.2914L29.9741 21.9617L29.2098 21.2938C28.8408 20.9297 28.7654 20.7074 28.8714 20.3699C28.9402 20.1756 29.0712 20.0083 29.245 19.8929C29.4187 19.7775 29.6259 19.7201 29.8356 19.7295H37.5175C37.6185 19.7304 37.7171 19.7598 37.8015 19.8141C37.8859 19.8685 37.9525 19.9455 37.9935 20.036C38.0289 20.1315 38.0401 20.234 38.026 20.3346C38.012 20.4353 37.9731 20.5311 37.9128 20.6138L37.855 20.7202L30.1801 33.3471ZM28.1054 41.8031V43.0695H26.149V43.2824H28.2351V43.8465H25.531V42.5372H27.483V42.35H25.503V41.8074H26.4899V41.5653H24.4897V41.0158H29.1353V41.5653H27.093V41.804L28.1054 41.8031ZM25.4819 39.8568C25.4797 39.7059 25.5133 39.5566 25.5801 39.4206C25.645 39.2909 25.738 39.1766 25.8527 39.0858C25.9724 38.9909 26.1091 38.9187 26.2559 38.8729C26.5841 38.7727 26.9357 38.7727 27.2639 38.8729C27.4131 38.9186 27.5524 38.9908 27.675 39.0858C27.7908 39.1744 27.8856 39.2866 27.9528 39.4146C28.0232 39.5496 28.059 39.6992 28.0572 39.8508C28.0586 39.9967 28.0237 40.1408 27.9555 40.2706C27.8888 40.3965 27.7974 40.5083 27.6864 40.5994C27.5623 40.6914 27.4229 40.7617 27.2744 40.8072C27.1086 40.8583 26.9355 40.8835 26.7617 40.8819C26.5952 40.883 26.4296 40.8601 26.2699 40.8141C26.1216 40.7707 25.9824 40.7018 25.8588 40.6106C25.7441 40.524 25.6501 40.4138 25.5836 40.2878C25.5144 40.1549 25.4795 40.0076 25.4819 39.8585M22.1231 40.8415V40.2775H23.3152V38.8445H23.9121V43.6748H23.3152V40.8415H22.1231ZM9.0269 31.0719C8.75797 31.3825 8.57368 31.7548 8.49123 32.154C8.40877 32.5532 8.43082 32.9663 8.55533 33.3549H7.69371C7.49123 33.024 7.36567 32.6536 7.32598 32.2698C7.28628 31.8861 7.33343 31.4985 7.46406 31.1346C7.48597 31.0676 7.46406 31.0041 7.39832 31.0719C7.12821 31.3819 6.94298 31.754 6.86003 32.1534C6.77708 32.5527 6.79913 32.9662 6.92412 33.3549H6.35087C5.96695 33.3549 5.91787 33.1479 5.87053 32.7693C5.54096 29.0251 10.4942 29.4613 12.5663 30.7835C11.8966 31.7399 11.2691 32.6285 10.744 33.3592H9.32142C9.1205 33.0277 8.99607 32.6572 8.95685 32.2737C8.91763 31.8901 8.96458 31.5028 9.0944 31.1389C9.11631 31.0719 9.0944 31.0084 9.02603 31.0762M20.2079 21.966L19.447 21.2998C19.071 20.9332 18.9948 20.7108 19.1034 20.3742C19.1728 20.1803 19.304 20.0134 19.4776 19.8981C19.6512 19.7827 19.858 19.7251 20.0676 19.7337H27.6934C27.7946 19.7354 27.8932 19.7651 27.9779 19.8193C28.0625 19.8736 28.1298 19.9502 28.172 20.0403C28.2115 20.157 28.2191 20.282 28.1939 20.4025C28.1686 20.5231 28.1115 20.635 28.0282 20.7271L19.7012 33.354H12.3779L20.2079 21.966ZM13.2544 29.0363C13.2386 28.9204 13.2938 28.8405 13.4209 28.9152C13.5326 28.9738 13.6241 29.0634 13.6839 29.1728L13.5857 29.3136C13.5794 29.2947 13.5715 29.2763 13.562 29.2587C13.5095 29.4123 13.2798 29.2793 13.2535 29.0363M12.7951 25.9953C12.7951 25.9953 12.7898 26.0717 12.8056 26.0236C12.9494 25.7042 13.6401 26.1953 13.371 26.5808C13.1238 26.9173 12.398 26.4469 12.4454 25.8785C12.533 24.813 13.6848 25.6209 14.386 26.6177C14.5556 26.8644 14.7663 27.0815 15.0092 27.2599C14.7258 27.6709 14.4389 28.0853 14.1484 28.5031C14.1455 28.2494 14.0856 27.9995 13.9731 27.771C13.8605 27.5425 13.6981 27.3411 13.4972 27.1809C13.5993 27.1479 13.6871 27.0822 13.7464 26.9944C13.8057 26.9065 13.8331 26.8017 13.8241 26.6967C13.8434 26.0957 12.8784 25.3239 12.7951 25.9953ZM14.9864 12.618C14.5701 12.2617 13.6918 13.1958 13.0028 12.6059C12.6391 12.296 12.5015 11.8796 13.016 11.3001C13.0804 11.192 13.1713 11.1014 13.2805 11.0364C13.3896 10.9713 13.5136 10.9339 13.6411 10.9276C13.7687 10.9212 13.8959 10.946 14.0113 10.9998C14.1266 11.0536 14.2265 11.1346 14.3018 11.2357L13.8899 11.6976C13.7146 11.5499 13.5147 11.4271 13.3429 11.6186C13.3098 11.6482 13.284 11.6848 13.2672 11.7255C13.2505 11.7662 13.2432 11.8101 13.2461 11.854C13.249 11.8978 13.2618 11.9404 13.2837 11.9788C13.3056 12.0171 13.3361 12.0501 13.3727 12.0754C13.811 12.4514 14.6253 11.4623 15.3537 12.0857C15.9541 12.6008 15.6412 13.0893 15.3186 13.4508C15.2478 13.5627 15.1496 13.6556 15.0329 13.7209C14.9162 13.7862 14.7846 13.8219 14.6502 13.8247C14.5158 13.8275 14.3828 13.7973 14.2634 13.737C14.1439 13.6766 14.0417 13.588 13.9661 13.4791L14.3886 13.0035C14.6095 13.1932 14.805 13.3469 15.0372 13.0825C15.0691 13.0505 15.0933 13.0121 15.1082 12.9699C15.1231 12.9277 15.1283 12.8829 15.1234 12.8385C15.1186 12.7941 15.1038 12.7513 15.0801 12.7132C15.0564 12.6751 15.0244 12.6426 14.9864 12.618ZM20.0352 8.84716L19.3068 7.57133L19.8327 7.28457L20.6751 8.75958C20.7434 8.87978 20.8214 8.99912 20.9021 9.11331L20.3595 9.41123L20.2534 9.22578H20.2464C20.2437 9.32442 20.2126 9.42029 20.1568 9.50244C20.101 9.58458 20.0227 9.64968 19.9309 9.69027C19.8761 9.72843 19.8138 9.75508 19.7479 9.76856C19.6821 9.78203 19.6141 9.78204 19.5483 9.76858C19.4825 9.75512 19.4202 9.72848 19.3653 9.69033C19.3105 9.65218 19.2643 9.60334 19.2297 9.54689L18.3864 8.07187L18.9124 7.78511L19.6408 9.05922C19.7345 9.22235 19.8327 9.32624 20.001 9.23094C20.1693 9.13563 20.129 9.00342 20.0352 8.83943M20.0431 6.18475L20.5918 5.94349L21.8522 8.6909L21.3035 8.93215L20.0431 6.18475ZM18.5065 9.20604C18.8992 9.74092 19.092 10.1762 18.4618 10.6201C17.8316 11.064 17.4731 10.7446 17.0804 10.2088C16.7368 9.74092 16.5142 9.29275 17.1567 8.83943C17.7992 8.38611 18.1629 8.73726 18.5065 9.20604ZM16.8411 10.5531L15.9883 11.3087C16.1636 11.4941 16.4265 11.768 16.6185 11.5946C16.7763 11.4546 16.6711 11.2786 16.551 11.1481L17.0033 10.748C17.074 10.8225 17.1285 10.9103 17.1635 11.0061C17.1984 11.1019 17.2131 11.2037 17.2066 11.3052C17.1746 11.5293 17.056 11.7327 16.8753 11.8736C16.3003 12.3827 15.9111 12.1071 15.4562 11.616C15.0618 11.1867 14.7874 10.7678 15.3756 10.2423C15.9637 9.71688 16.3941 10.0328 16.8411 10.5471M23.5097 6.24141L24.3863 5.99844L24.5151 6.44489L23.6386 6.68787L24.0041 7.95253L23.3905 8.12425L22.5456 5.22487L24.0821 4.79559L24.2118 5.24205L23.2932 5.49962L23.5097 6.24141ZM24.7763 5.13988L24.6887 4.68484L25.2794 4.57408L25.3671 5.02826L24.7763 5.13988ZM25.4512 5.46356L25.8571 7.53355L25.2672 7.64517L24.8605 5.57517L25.4512 5.46356ZM26.873 6.23626L27.0088 7.37644L26.4119 7.44426L26.1621 5.35194L26.7301 5.28669L26.7617 5.55628H26.7704C26.805 5.44834 26.8738 5.35397 26.9667 5.28683C27.0597 5.21969 27.1721 5.18326 27.2876 5.18281L27.3498 5.70481C26.8239 5.73143 26.8484 6.03107 26.8738 6.23798M28.5717 6.942C28.7855 6.93685 28.8224 6.73681 28.8189 6.5608L29.4324 6.54706C29.4358 6.64873 29.4182 6.75002 29.3807 6.84487C29.3432 6.93973 29.2866 7.0262 29.2142 7.09912C29.0403 7.24819 28.8148 7.32651 28.5839 7.31805C27.8091 7.33523 27.6969 6.87504 27.6811 6.21652C27.6671 5.64042 27.7407 5.14589 28.5331 5.12872C29.3421 5.10983 29.4438 5.62153 29.4386 6.29808L28.2886 6.32384C28.2947 6.57368 28.3122 6.94973 28.5752 6.94286M19.6609 41.8229C19.8613 41.7274 20.0464 41.6039 20.2105 41.4563C20.354 41.3254 20.4796 41.1768 20.5839 41.0141C20.6762 40.8673 20.7472 40.7087 20.7951 40.5428C20.8382 40.3886 20.8603 40.2295 20.8609 40.0697V39.3184H21.4937V39.9649C21.494 40.0838 21.4861 40.2026 21.4701 40.3204C21.4534 40.4303 21.4324 40.5385 21.4078 40.6415L22.6604 41.8358L22.67 41.8435L22.6604 41.8529L22.2668 42.2547L22.2589 42.2625L22.2493 42.2556L21.1624 41.2219C21.0286 41.4561 20.8569 41.6674 20.654 41.8478C20.4707 42.0114 20.27 42.1553 20.0554 42.2771L20.0457 42.2822L20.0396 42.2745L19.6565 41.8452L19.646 41.8332L19.6609 41.8229ZM31.9665 7.09654C32.0109 7.10637 32.057 7.10638 32.1014 7.09657C32.1459 7.08676 32.1875 7.06738 32.2234 7.03984C32.2592 7.0123 32.2883 6.97729 32.3086 6.93735C32.3289 6.89741 32.3399 6.85354 32.3407 6.80892C32.4284 6.27232 31.1539 6.03622 31.2985 5.15447C31.3748 4.68827 31.6614 4.35343 32.438 4.47363C33.0569 4.57065 33.3207 4.89004 33.1769 5.50391L32.5581 5.40689C32.5932 5.18452 32.5923 4.95185 32.3364 4.9115C32.2932 4.89976 32.2479 4.89763 32.2039 4.90527C32.1598 4.91292 32.118 4.93013 32.0816 4.95566C32.0452 4.98119 32.0151 5.01438 31.9935 5.05279C31.9719 5.09121 31.9594 5.13387 31.9568 5.17765C31.8692 5.74259 33.1524 5.89198 32.9999 6.82781C32.8745 7.60052 32.2829 7.60052 31.799 7.52325C31.0102 7.40048 30.9383 6.92226 31.0566 6.41484L31.6921 6.51358C31.6457 6.79776 31.6194 7.03816 31.9691 7.09311M36.3903 6.80291C36.4723 6.72316 36.5781 6.67109 36.6924 6.65426C36.8067 6.63743 36.9234 6.65672 37.0258 6.70933L36.8303 7.19871C36.3508 6.97978 36.2316 7.25624 36.1536 7.45113L35.7285 8.51919L35.1684 8.3054L35.9503 6.34273L36.4823 6.54535L36.3815 6.80291H36.3903ZM35.1062 7.25452L34 6.94544C33.929 7.18669 33.8335 7.54643 34.0877 7.62113C34.2928 7.67779 34.3901 7.49663 34.4383 7.3275L35.0247 7.49063C34.9976 7.58893 34.9503 7.6808 34.8858 7.76065C34.8213 7.84051 34.7409 7.90667 34.6495 7.95511C34.4389 8.04748 34.2001 8.05701 33.9825 7.98172C33.2374 7.77395 33.2681 7.30002 33.4566 6.6664C33.6178 6.11263 33.8378 5.66188 34.596 5.87567C35.3735 6.09202 35.3165 6.6106 35.1062 7.25452ZM37.4202 9.27816L36.8294 8.98882L37.2835 6.85443L37.8278 7.12144L37.3746 8.66686L37.3825 8.67201L38.3879 7.39618L38.9138 7.65375L37.4202 9.27816ZM39.3635 7.92935L39.8745 8.23672L38.749 10.032L38.2354 9.72976L39.3635 7.92935ZM39.6001 7.55158L39.8473 7.1575L40.3592 7.46573L40.1129 7.85981L39.6001 7.55158ZM41.496 10.6587C41.8966 10.2372 42.3024 9.9341 42.881 10.4638C43.4595 10.9936 43.1807 11.44 42.6951 11.9234L41.8528 11.1507C41.6775 11.3336 41.4242 11.6134 41.617 11.7903C41.773 11.9328 41.9431 11.8152 42.0658 11.6864L42.5111 12.0934C42.4416 12.169 42.3571 12.2298 42.2627 12.2722C42.1684 12.3145 42.0661 12.3376 41.9624 12.3398C41.7317 12.3276 41.5147 12.2293 41.3558 12.0651C40.7887 11.5499 41.0359 11.1404 41.496 10.6579M10.957 15.7431C11.1122 15.7524 11.2602 15.8101 11.3794 15.9077C11.4987 16.0054 11.5829 16.1378 11.6197 16.2858C11.0938 16.114 9.97618 16.1578 10.1489 15.2555C10.2724 14.6373 11.2813 14.6296 11.2506 15.2014C11.2287 15.5448 10.6809 15.5448 10.7449 15.24C10.7449 15.2229 10.7291 15.2108 10.7107 15.2246C10.6734 15.2714 10.65 15.3273 10.6431 15.3863C10.6362 15.4452 10.646 15.5049 10.6715 15.5588C10.6969 15.6126 10.737 15.6586 10.7874 15.6916C10.8378 15.7245 10.8965 15.7433 10.957 15.7457M3.36367 33.3549C3.24979 33.0774 3.19413 32.7803 3.2 32.4813C3.20587 32.1823 3.27316 31.8875 3.39786 31.6146C3.42415 31.5562 3.40399 31.5055 3.34526 31.5502C3.1072 31.7807 2.93665 32.0697 2.8514 32.3868C2.76614 32.7039 2.7693 33.0376 2.86054 33.3531H2.17773C2.05474 33.0876 1.99067 32.7996 1.98977 32.508C1.98886 32.2164 2.05113 31.928 2.17247 31.6618C2.19614 31.612 2.18211 31.5605 2.12602 31.612C1.89893 31.8376 1.73214 32.1146 1.6404 32.4185C1.54867 32.7223 1.53483 33.0437 1.6001 33.354H1.01897C0.825253 33.354 0.750749 33.2381 0.750749 33.0561C0.750749 30.1601 3.64328 30.0039 4.93353 30.5834L4.9458 30.5946C5.04397 30.6461 5.07027 30.604 5.01242 30.5388L4.99489 30.5156C4.72974 30.2423 4.39975 30.0375 4.03426 29.9193C3.66877 29.8011 3.27912 29.7732 2.89999 29.8382C3.16005 28.6894 3.05922 27.4904 2.61073 26.3988C1.30384 22.3137 3.0788 17.4697 6.76108 15.495C7.21989 15.199 7.73522 14.9971 8.27592 14.9016C8.81662 14.8062 9.37147 14.819 9.90694 14.9395C9.8336 15.0401 9.79075 15.1588 9.78331 15.2822C9.77586 15.4055 9.80413 15.5284 9.86486 15.6367C9.13472 15.3276 7.88304 15.8865 8.28712 16.4369L8.30903 16.46C8.36074 16.5347 8.39668 16.5116 8.37652 16.424V16.3931C8.36074 16.1681 8.52641 16.0127 8.77184 15.932C8.7029 15.9895 8.65837 16.0701 8.64701 16.1581C8.63564 16.246 8.65825 16.335 8.71039 16.4075C8.76254 16.48 8.84046 16.5307 8.92886 16.5498C9.01726 16.5689 9.10975 16.555 9.18818 16.5107C9.10735 16.5066 9.03097 16.4732 8.97396 16.4169C8.91695 16.3607 8.88342 16.2856 8.87991 16.2064C8.8764 16.1272 8.90318 16.0495 8.955 15.9886C9.00682 15.9277 9.07996 15.888 9.16013 15.8771C9.62557 15.8264 10.3794 16.26 9.94901 16.4077C9.7161 16.4636 9.49304 16.5533 9.28723 16.6738C9.21273 16.7228 9.22763 16.7408 9.30126 16.7331C9.63057 16.7123 9.95751 16.6643 10.2786 16.5897C12.6706 16.1784 13.4735 17.5908 13.3815 18.1651C13.3613 18.0793 13.1965 17.8707 13.1089 18.0132C12.9757 18.2862 12.4734 18.3437 12.0571 17.9007C11.9469 17.815 11.8173 17.7566 11.6793 17.7303C11.5412 17.704 11.3987 17.7106 11.2638 17.7496C10.7265 17.8423 10.4749 17.8243 10.2453 17.3478C10.1927 17.3177 10.1927 17.3426 10.1988 17.3864C10.2251 17.7496 10.2979 18.4073 10.9965 18.5137C11.2419 18.5704 11.5022 18.2888 11.8633 18.5189C12.1026 18.7309 12.3691 19.0023 12.7583 18.9104C13.1159 18.8245 13.1264 18.9713 13.1746 19.0821C13.2404 19.3843 13.094 19.5114 12.8363 19.3311C12.707 19.2411 12.5592 19.1798 12.4033 19.1516C11.255 19.0108 10.162 19.975 9.27584 18.4253C9.16739 18.2174 8.98359 18.0566 8.76044 17.9745C8.59736 17.9328 8.42431 17.9509 8.27396 18.0256C8.12361 18.1002 8.00638 18.2262 7.94439 18.3798C7.68144 18.8348 7.8769 18.6751 8.17404 18.4811C8.2643 18.4366 8.36514 18.4169 8.46591 18.424C8.56667 18.4311 8.66359 18.4648 8.74641 18.5215C8.80581 18.5853 8.84231 18.6664 8.85038 18.7524C8.85845 18.8384 8.83764 18.9246 8.79112 18.998C8.56585 19.3199 8.30552 19.6505 8.15301 19.6908C7.94527 19.7423 7.89005 19.4101 7.86638 19.222C7.85061 19.1087 7.79889 19.1207 7.77873 19.2366C7.72702 19.538 7.74718 19.9767 8.01978 19.987C8.44226 20.0154 8.80865 19.5715 9.08388 19.1551C9.09516 19.1427 9.1089 19.1326 9.12427 19.1255C9.13964 19.1185 9.15632 19.1145 9.17328 19.114C9.19025 19.1134 9.20716 19.1162 9.22298 19.1223C9.2388 19.1283 9.2532 19.1374 9.26532 19.1491C9.54943 19.4236 9.90877 19.6115 10.2997 19.69C10.6907 19.7685 11.0966 19.7342 11.468 19.5912C11.7721 19.521 12.0866 19.5056 12.3963 19.5457C12.5092 19.554 12.6189 19.5863 12.7177 19.6405C12.8164 19.6947 12.9019 19.7695 12.9681 19.8595C13.0342 19.9495 13.0795 20.0526 13.1006 20.1615C13.1218 20.2705 13.1183 20.3826 13.0905 20.4901C13.0072 20.8731 12.9327 20.9194 12.7556 21.0465C12.6838 21.1049 12.6776 21.1701 12.739 21.1804C12.739 21.1804 12.8082 21.2663 12.6995 21.4861C12.6633 21.551 12.6232 21.6138 12.5795 21.6741C12.5611 21.6956 12.5455 21.7193 12.533 21.7445C12.3656 21.9905 12.1618 22.2107 11.9282 22.3979H11.9221C11.5005 22.7001 11.3751 22.8838 11.6591 22.8778C11.7373 22.8762 11.8148 22.8626 11.8888 22.8375C11.9142 22.8563 11.93 22.8718 11.9563 22.889C13.1498 23.8452 14.1632 24.9988 14.9505 26.2975C15.0031 26.3833 15.1941 26.4314 15.4764 26.5885L15.1494 27.0607C14.8318 26.7405 14.5559 26.3829 14.3281 25.9961C12.5856 23.1732 10.9973 24.6782 12.0842 26.4323C12.2474 26.6994 12.4796 26.9198 12.7574 27.071C12.2893 27.678 13.4779 28.686 13.6234 28.1923C13.6319 28.1373 13.6285 28.0811 13.6134 28.0274C13.5983 27.9737 13.5718 27.9237 13.5358 27.8807C13.3114 28.2833 12.8775 27.2419 13.3377 27.4471C13.5462 27.6135 13.7086 27.8287 13.8097 28.0729C13.9108 28.3171 13.9474 28.5823 13.9162 28.844L13.8285 28.9676C13.6532 28.7315 13.3026 28.4052 13.0125 28.5744C12.8687 28.6602 12.8564 28.9092 12.98 29.1754C13.0634 29.358 13.2153 29.5022 13.4043 29.578C13.1475 29.9472 12.8924 30.313 12.6426 30.6701C11.5665 29.7796 10.187 29.3197 8.77972 29.3823C8.70014 29.3968 8.61828 29.394 8.53995 29.3739C8.46163 29.3539 8.38877 29.3172 8.32658 29.2665C8.26439 29.2157 8.21439 29.1522 8.18015 29.0803C8.1459 29.0085 8.12825 28.9301 8.12846 28.8508C8.09875 28.524 8.0885 28.1958 8.09779 27.8678C8.09779 26.7096 9.85084 25.7059 10.6686 24.2069C10.7852 23.9871 10.7081 23.9227 10.5591 24.121C9.96019 24.9595 9.21017 25.684 8.34584 26.2588C8.34058 26.2356 8.34058 26.2125 8.33357 26.1893C8.26014 25.9682 8.13626 25.7664 7.97132 25.5992C7.80639 25.432 7.60473 25.3037 7.38166 25.2243L7.36939 25.2183C7.24405 25.1624 7.21688 25.2183 7.32031 25.2929L7.34134 25.3032C7.88391 25.6905 8.004 26.1618 7.77961 26.5559C7.43338 27.1569 6.83121 27.1887 6.5963 26.8315C6.29916 26.3661 6.76634 25.8227 7.19935 26.3164C7.6867 25.1144 5.28502 25.2389 5.67507 26.8126C4.91698 26.6439 4.22391 26.2664 3.67747 25.7248V25.73C3.55738 25.6089 3.51268 25.6819 3.58981 25.7901C4.1619 26.586 4.94888 27.2103 5.86265 27.593C6.61295 27.809 7.26351 28.2733 7.70335 28.9066C7.89619 29.2827 7.57275 29.5411 7.29138 29.6356C6.02305 30.0597 4.91775 31.1939 5.2929 33.3549H3.36367ZM29.0073 49.4392C24.0082 49.4394 19.1247 47.9661 14.9919 45.211C10.8592 42.4559 7.66839 38.5464 5.8346 33.9911H7.97858C9.65128 37.7592 12.347 41.0059 15.7725 43.3777C19.198 45.7496 23.2219 47.1558 27.4066 47.4433C31.5912 47.7309 35.7762 46.8887 39.5062 45.0085C43.2362 43.1284 46.3683 40.2822 48.5617 36.7797L48.574 36.7651L48.6134 36.6998L48.6371 36.6629L53.6622 28.5366C52.8022 34.3409 49.8372 39.6479 45.3098 43.4863C40.7823 47.3247 34.9952 49.4379 29.0073 49.4392ZM56.0648 22.3335C55.9894 22.4631 55.9061 22.6014 55.8237 22.7319L46.2994 37.4734H36.967L42.5593 30.1988C42.2963 30.2185 42.0474 30.2271 41.7923 30.2271C36.74 30.2271 34.9326 26.6744 37.6832 22.4211C40.3408 18.2931 46.3126 15.046 51.0879 15.046C55.8632 15.046 58.4454 18.2124 56.0648 22.3335ZM34.3138 40.9308H35.3332V40.4535H34.3138V40.9308ZM36.1387 42.2908C35.9747 42.2866 35.8152 42.343 35.6917 42.4488C35.6351 42.494 35.5894 42.551 35.5579 42.6155C35.5264 42.6801 35.5098 42.7507 35.5094 42.8222C35.5092 42.8954 35.5247 42.9677 35.5549 43.0346C35.5851 43.1014 35.6293 43.1613 35.6847 43.2103C35.8116 43.3211 35.9777 43.3787 36.1475 43.3709C36.3104 43.3765 36.4699 43.324 36.5963 43.2232C36.6536 43.1755 36.6991 43.1158 36.7295 43.0484C36.7598 42.9811 36.7742 42.9078 36.7716 42.8343C36.7738 42.7606 36.7592 42.6874 36.7289 42.62C36.6985 42.5525 36.6532 42.4926 36.5963 42.4445C36.4706 42.3412 36.3106 42.2868 36.1466 42.2917M48.0051 20.0351C47.2301 20.1053 46.4825 20.3513 45.8214 20.7536C45.1603 21.156 44.604 21.7037 44.1966 22.3532C43.4954 23.5999 44.0827 24.5855 45.5175 24.5383C46.3004 24.4674 47.0552 24.2171 47.7209 23.8075C48.3867 23.3979 48.9446 22.8406 49.3497 22.1807C50.0168 20.9469 49.4119 19.9939 48.0042 20.0342M42.625 10.7334C42.4225 10.5488 42.2043 10.7841 42.0807 10.9154L42.4821 11.282C42.6241 11.1327 42.8319 10.924 42.625 10.7334ZM34.4909 6.22854C34.2279 6.1547 34.1402 6.46035 34.0894 6.63378L34.6153 6.78145C34.6732 6.58484 34.7635 6.30581 34.4873 6.22854M15.621 10.5274C15.4159 10.7094 15.6359 10.9412 15.7586 11.0743L16.1662 10.7137C16.0268 10.5617 15.8322 10.3402 15.621 10.5274ZM28.5349 5.48674C28.2579 5.49275 28.2719 5.81042 28.2719 5.99071L28.8215 5.97784C28.8162 5.7735 28.8215 5.48159 28.5331 5.48674M26.7617 40.3556C26.9301 40.3595 27.0962 40.316 27.2402 40.2302C27.3049 40.1901 27.3574 40.1338 27.3922 40.067C27.4271 40.0003 27.443 39.9256 27.4383 39.8508C27.4407 39.7758 27.4236 39.7015 27.3889 39.6347C27.3541 39.5679 27.3027 39.5108 27.2394 39.4687C27.0987 39.3741 26.9313 39.3252 26.7608 39.3287C26.5897 39.3235 26.4214 39.3719 26.2804 39.467C26.2185 39.5103 26.1685 39.5681 26.1351 39.6351C26.1018 39.7021 26.086 39.7763 26.0894 39.8508C26.0867 39.9232 26.1028 39.9952 26.1363 40.0599C26.1697 40.1246 26.2193 40.1799 26.2804 40.2208C26.4221 40.3141 26.591 40.3613 26.7617 40.3556ZM3.73356 20.4103L3.75723 20.394C3.90408 20.3145 4.02698 20.1985 4.1136 20.0578C4.20022 19.917 4.24751 19.7564 4.25071 19.5921C4.25071 19.4384 4.17621 19.2718 4.16306 19.0632C4.15404 18.9548 4.17519 18.8461 4.22428 18.7486C4.27337 18.6511 4.34854 18.5684 4.4418 18.5094C4.5271 18.454 4.62434 18.4186 4.72592 18.4061C4.8275 18.3936 4.93065 18.4043 5.02732 18.4373C5.06919 18.4499 5.10811 18.4706 5.14184 18.4979C5.17557 18.5253 5.20346 18.559 5.2239 18.5969C5.24433 18.6349 5.25692 18.6764 5.26094 18.7192C5.26496 18.7619 5.26034 18.805 5.24733 18.846C5.20613 18.9774 5.09393 19.1036 4.95632 19.0735H4.9458C4.88422 19.059 4.82884 19.0259 4.78748 18.9789C4.74612 18.932 4.72086 18.8734 4.71527 18.8116C4.65258 18.8436 4.60146 18.8938 4.56884 18.9552C4.53622 19.0166 4.5237 19.0864 4.53296 19.1551C4.55883 19.2561 4.61637 19.3466 4.69751 19.4139C4.77864 19.4812 4.87927 19.5219 4.98524 19.5303C5.08902 19.5501 5.19638 19.5415 5.2955 19.5055C5.39462 19.4694 5.48168 19.4073 5.5471 19.3259C5.67159 19.1766 5.73417 18.9869 5.7224 18.7945C5.73928 18.6268 5.69588 18.4586 5.59969 18.3188C5.52606 18.2253 5.40861 18.1471 5.30167 18.0201C5.24779 17.9538 5.21249 17.8749 5.19927 17.7912C5.18605 17.7075 5.19536 17.6218 5.22629 17.5427C5.25364 17.4689 5.29825 17.4025 5.35655 17.3487C5.41485 17.2948 5.48521 17.2551 5.562 17.2327C5.62813 17.2143 5.69902 17.2219 5.75948 17.254C5.81994 17.2861 5.86515 17.3401 5.88544 17.4045C5.9071 17.4515 5.91069 17.5045 5.89555 17.5539C5.88041 17.6033 5.84755 17.6457 5.80304 17.6732C5.80304 17.6732 5.79778 17.6732 5.79165 17.6732C5.74787 17.6912 5.69946 17.6954 5.65313 17.6853C5.6068 17.6751 5.56484 17.6511 5.53307 17.6165C5.50868 17.664 5.49989 17.7177 5.50789 17.7703C5.51589 17.8229 5.5403 17.8717 5.57777 17.9102C5.63767 17.9653 5.7145 17.9995 5.79631 18.0074C5.87812 18.0154 5.96031 17.9965 6.03006 17.9539C6.10431 17.9192 6.16746 17.8652 6.21271 17.7979C6.25797 17.7306 6.28361 17.6524 6.28688 17.5719C6.29353 17.4569 6.26788 17.3423 6.21271 17.2406C6.15755 17.1389 6.07497 17.0539 5.97396 16.9949C5.84963 16.9309 5.7107 16.8988 5.57025 16.9018C5.4298 16.9048 5.29243 16.9428 5.17107 17.0121C5.05984 17.0821 4.97206 17.1826 4.91861 17.301C4.86516 17.4194 4.84841 17.5507 4.87042 17.6783C4.88199 17.7708 4.90739 17.861 4.9458 17.9462C4.89099 17.9328 4.83536 17.9227 4.77926 17.9162C4.60906 17.9054 4.43948 17.9449 4.29254 18.0298C4.14561 18.1146 4.02811 18.2407 3.95533 18.3918C3.79647 18.6976 3.76504 19.0519 3.86767 19.38C3.9418 19.6108 3.93501 19.8592 3.84839 20.0858C3.80917 20.1694 3.75715 20.2467 3.69412 20.315L3.67308 20.3433C3.5793 20.4352 3.624 20.4764 3.7248 20.4077M17.3819 9.15452C17.1733 9.30134 17.2882 9.4928 17.5485 9.8491C17.9315 10.3702 18.0586 10.4501 18.2383 10.3239C18.418 10.1977 18.3803 10.0543 17.9981 9.53143C17.7352 9.17599 17.5879 9.00857 17.3846 9.15452" fill="#58595B"/>
</svg>
