<svg width="99" height="99" viewBox="0 0 110 110" fill="none" xmlns="http://www.w3.org/2000/svg">
<path d="M105.225 49.2246C105.225 76.4011 83.1765 98.4492 56 98.4492C28.8235 98.4492 6.77539 76.4011 6.77539 49.2246C6.77539 22.0481 28.8235 0 56 0C83.1765 0 105.225 22.0481 105.225 49.2246Z" fill="#F6AB00"/>
<path d="M100.283 49.2246C100.283 73.6685 80.4436 93.508 55.9997 93.508C31.5559 93.508 11.7163 73.6685 11.7163 49.2246C11.7163 24.7807 31.5559 4.94116 55.9997 4.94116C80.4436 4.94116 100.283 24.7433 100.283 49.2246Z" fill="#002B69"/>
<path d="M14.2245 49.599C13.9999 49.4867 13.925 49.599 14.1122 49.7487H14.1496C15.1978 50.5348 15.4224 51.4707 14.9732 52.2568C14.2994 53.4546 13.1389 53.4921 12.6897 52.8183C12.1282 51.9199 13.0266 50.8343 13.8502 51.8076C14.786 49.4493 10.1443 49.6739 10.893 52.7808C9.62023 52.5188 8.19777 51.8076 7.03734 50.6471C6.81274 50.4225 6.73787 50.5723 6.85017 50.7969C7.93573 52.4814 9.54536 53.5669 11.2299 54.353C12.8395 54.9894 14.1871 55.7755 14.786 56.9359C15.1603 57.6846 14.524 58.1712 13.9999 58.3584C11.5668 59.1819 9.43307 61.4279 10.1443 65.6953H6.4384C6.13894 64.984 5.87691 63.7862 6.51328 62.2514C6.55071 62.1391 6.51328 62.0268 6.40098 62.1391C5.54002 62.9252 5.12825 64.1231 5.46515 65.6953H4.15499C3.85553 65.0589 3.51863 63.8985 4.15499 62.3637C4.19242 62.2514 4.15499 62.1765 4.08012 62.2514C3.66836 62.6257 2.76995 63.7487 3.06942 65.6953H1.94643C1.57209 65.6953 1.42236 65.4707 1.42236 65.0963C1.42236 59.4065 6.99991 59.0696 9.50793 60.23C9.69509 60.3423 9.73252 60.2675 9.62022 60.1552C9.17102 59.5937 8.0106 58.583 5.57745 58.7701C5.83948 57.9466 6.21381 55.8129 5.01595 51.9947C2.50793 43.9466 5.91434 34.4011 13.0266 30.5081C15.4598 29.1605 17.5561 28.8985 19.0908 29.4225C18.7914 29.7969 18.7913 30.4707 19.0159 30.8076C17.5935 30.2086 15.1978 31.2942 15.9839 32.3798H16.0213C16.1336 32.5669 16.171 32.5295 16.171 32.3798V32.3049C16.171 31.8557 16.4705 31.5562 16.9197 31.4065C16.3208 31.9306 16.9197 32.9787 17.7058 32.5295C16.7325 32.4172 17.1069 31.2942 17.6684 31.2942C18.5667 31.1819 20.0266 32.0429 19.2031 32.3423C19.0159 32.4172 18.3047 32.5669 17.9304 32.8664C17.7807 32.9787 17.8181 33.0161 17.9304 32.9787C18.7539 32.9787 19.1282 32.829 19.802 32.6792C24.4063 31.8557 25.9785 34.6632 25.7914 35.7862C25.7539 35.599 25.417 35.2247 25.2673 35.4867C25.0053 36.0108 24.032 36.1231 23.2459 35.2621C22.9839 34.9252 22.3475 34.8503 21.7111 34.9626C20.663 35.1498 20.2138 35.1124 19.7646 34.1765C19.6523 34.1017 19.6523 34.1765 19.6898 34.2514C19.7272 34.9626 19.8769 36.2728 21.2245 36.46C21.7111 36.5723 22.1978 36.0108 22.909 36.46C23.3582 36.8717 23.8823 37.3958 24.6309 37.2461C25.3047 37.0963 25.3422 37.3584 25.4545 37.583C25.5668 38.1819 25.3047 38.4439 24.8181 38.0696C24.5935 37.9199 24.294 37.7701 23.9946 37.7327C21.786 37.4707 19.6523 39.3423 17.9678 36.3102C17.7432 35.9359 17.4063 35.5241 16.9571 35.4118C16.2085 35.1872 15.7218 35.6364 15.3849 36.1979C14.8609 37.0963 15.2726 36.7969 15.8341 36.3851C16.1336 36.1979 16.6577 36.2354 16.9197 36.46C17.0694 36.6097 17.2192 37.0215 16.9946 37.3958C16.5454 38.0322 16.0587 38.6685 15.7593 38.7434C15.3475 38.8557 15.2352 38.1819 15.1978 37.8076C15.1978 37.583 15.0855 37.6204 15.0106 37.8076C14.8983 38.4065 14.9357 39.2675 15.4598 39.3049C16.2833 39.3423 16.9946 38.4814 17.5186 37.6578C17.6309 37.5455 17.7432 37.5455 17.8555 37.6578C18.9411 38.8557 20.2887 38.9306 22.1229 38.5188C22.7593 38.3691 23.3956 38.3316 23.9197 38.4439C25.1176 38.6685 25.3796 39.4921 25.2673 40.3156C25.1176 41.0642 24.9678 41.1765 24.6309 41.4011C24.4812 41.5134 24.4812 41.6257 24.6309 41.6632C24.6309 41.6632 24.7807 41.8129 24.5561 42.2621C24.4812 42.3744 24.4063 42.5241 24.3315 42.6364C24.294 42.7113 24.2566 42.7487 24.2566 42.7862C23.8074 43.4225 23.3582 43.8717 23.0962 44.0589C22.2726 44.6578 22.048 45.0322 22.6095 44.9947C22.7593 44.9947 22.909 44.9947 23.0587 44.9199C23.0962 44.9199 23.1336 44.9947 23.171 45.0322C24.7432 46.0803 27.2887 49.0375 28.9357 51.7701C29.0855 52.0322 29.9464 52.107 31.032 53.1552C34.5881 56.5241 36.6844 60.1926 37.0213 65.0963C37.0213 65.4332 36.8341 65.6578 36.4972 65.6578H31.8555C31.7058 65.1712 31.6684 64.46 32.0427 63.599C32.0801 63.5241 32.0427 63.4493 31.9678 63.5241C31.4438 64.0108 31.1443 64.7594 31.2566 65.6578H30.4331C30.2833 65.2086 30.1336 64.46 30.5454 63.5616C30.5454 63.4867 30.5454 63.4118 30.4705 63.4867C30.171 63.7487 29.6844 64.2728 29.7218 65.6578H29.1978C28.8983 65.6578 28.5988 65.583 28.5988 65.2086C28.4865 62.5883 33.0534 59.6685 35.8234 63.5241C35.9732 63.7862 36.048 63.7113 35.9732 63.5241V63.4493C35.2994 61.8022 33.1283 60.3798 30.8823 61.2033C30.0962 59.9306 29.4972 58.845 29.6095 55.6632C29.6095 55.4012 29.4972 55.4012 29.4598 55.6632C29.0855 57.3477 29.1229 59.8557 29.8341 61.7273C28.6363 62.3637 28.0373 63.4493 27.8127 64.5723C27.7379 64.984 26.9518 64.984 27.1015 64.4974C27.3261 63.6739 27.7379 59.706 27.3261 57.9466C27.5507 56.0749 27.3261 54.4279 26.0908 53.5295C26.4651 53.3798 26.7272 53.0803 26.7272 52.5937C26.7646 51.3958 24.893 49.8985 24.7432 51.2086C24.7432 51.2086 24.7432 51.3584 24.7432 51.2461C25.0053 50.6097 26.3529 51.583 25.8288 52.3316C25.3422 53.0054 23.9571 52.0696 24.032 50.9466C24.1817 48.8503 26.4277 50.4225 27.7753 52.4065C28.786 53.829 29.8716 54.2407 30.5454 54.3156C30.8074 54.353 30.8448 54.2407 30.5828 54.1659H30.5454C29.7593 53.829 28.8609 53.1552 27.663 51.1712C24.294 45.5937 21.2245 48.5883 23.3208 52.0322C23.6951 52.6311 24.1443 53.0429 24.6309 53.3049C23.7325 54.5027 26.0159 56.4867 26.3154 55.5134C26.3528 55.3263 26.3154 55.1017 26.1282 54.9145C25.6791 55.7006 24.8555 53.6418 25.7539 54.0536C26.4277 54.353 27.139 55.9626 26.8021 57.1979C26.5026 56.7487 25.7539 55.8878 25.1176 56.2621C24.8555 56.4118 24.8181 56.9359 25.0427 57.46C25.3796 58.1712 26.1657 58.5081 26.278 58.0963C26.3154 57.9466 26.278 57.7969 26.1657 57.6097C26.0534 57.9092 25.6042 57.6471 25.5668 57.1605C25.5668 56.9359 25.6416 56.7862 25.9036 56.9359C26.5774 57.3102 26.6897 58.0589 26.7272 59.4439C26.6897 65.8824 24.6309 65.6578 23.9946 65.6578H17.9678C17.5186 64.9466 16.8448 63.3744 17.5186 61.2782C17.5561 61.1284 17.5186 61.0161 17.4063 61.1659C16.9197 61.7273 15.9839 62.9252 16.5079 65.6578H14.8609C14.4117 64.9466 13.7379 63.3744 14.4117 61.2782C14.4491 61.1284 14.4117 61.0161 14.2994 61.1659C13.8127 61.7273 12.8769 62.9252 13.401 65.6578H12.278C11.5293 65.6578 11.4544 65.2461 11.3422 64.4974C10.6684 56.8985 20.8502 58.0215 24.6309 60.829H24.6684C24.8555 61.0161 24.9304 60.9413 24.7807 60.7541C23.4705 59.1819 20.4758 57.7594 16.9946 57.8343C16.0587 57.8717 15.7593 57.2728 15.7218 56.7862C15.647 55.7381 15.647 55.2888 15.647 54.8397C15.647 52.5562 19.016 50.5723 20.6256 47.6151C20.8502 47.2033 20.7004 47.0535 20.401 47.4653C19.1657 49.1498 17.7058 50.6471 16.1336 51.6953C16.1336 51.6578 16.1336 51.6204 16.1336 51.5455C16.0213 50.7969 15.1229 49.9733 14.2994 49.6364L14.2245 49.599Z" fill="white"/>
<path d="M19.5776 29.9464C19.8022 28.7111 21.7488 28.7111 21.7113 29.8341C21.6739 30.5079 20.6258 30.5079 20.7381 29.9089C20.7381 29.9089 20.738 29.8341 20.6632 29.9089C20.3637 30.1335 20.5135 30.8073 21.1498 30.9196C21.9359 31.0694 22.3477 31.4811 22.4225 32.0052C21.4119 31.6683 19.2407 31.7432 19.5776 29.9838V29.9464Z" fill="white"/>
<path d="M7.22472 40.0908C7.67392 39.8288 8.16055 39.3047 8.16055 38.5186C8.16055 37.7325 8.01082 37.8823 8.01082 37.4705C8.01082 37.0213 8.19799 36.6095 8.53489 36.3849C8.87178 36.1603 9.32098 36.1229 9.65788 36.2352C10.0696 36.3849 10.1445 36.7593 10.0696 37.0587C9.99478 37.3208 9.77018 37.5454 9.50815 37.5079C9.20868 37.4331 9.09638 37.171 9.05895 36.9839C8.79691 37.1336 8.68462 37.3582 8.72205 37.6577C8.75948 37.9571 9.02152 38.294 9.58302 38.4063C9.99479 38.4812 10.4065 38.3315 10.6686 37.9946C10.9306 37.6951 11.0429 37.3208 11.0055 36.9464C11.0055 36.647 11.0055 36.3101 10.7809 36.0106C10.6311 35.8234 10.4065 35.6737 10.2194 35.4117C9.99478 35.1496 9.95735 34.7753 10.0696 34.4758C10.1819 34.1764 10.444 33.9518 10.706 33.8769C11.0429 33.802 11.2301 33.9892 11.3424 34.2138C11.4172 34.401 11.3424 34.663 11.1926 34.7379C10.968 34.8502 10.8183 34.7379 10.706 34.6256C10.5937 34.8127 10.6311 35.0373 10.7809 35.1871C10.9306 35.3368 11.2675 35.4865 11.6418 35.2619C11.9413 35.1122 12.1285 34.8502 12.1285 34.5133C12.1285 34.0641 11.9039 33.6149 11.5295 33.3903C11.1552 33.1657 10.4814 33.1282 9.99478 33.3903C9.54558 33.6897 9.35841 34.2138 9.43328 34.7004C9.43328 34.8876 9.50815 35.0748 9.58302 35.2245C9.47072 35.2245 9.35841 35.1871 9.24611 35.1496C8.53488 35.1122 7.93596 35.524 7.63649 36.0855C7.22473 36.8716 7.33703 37.4331 7.48676 38.032C7.56163 38.5186 7.67392 38.9678 7.44933 39.417C7.37446 39.6042 7.26216 39.7539 7.14986 39.8662H7.11243C6.92526 40.0908 7.00013 40.2031 7.22472 40.0534H7.26216L7.22472 40.0908Z" fill="#002B69"/>
<path d="M25.754 66.8931C26.7647 66.8931 27.1016 66.3316 27.2888 65.9573C27.3636 65.8076 27.3636 65.845 27.3636 65.9573C27.3636 66.5937 28.0749 66.8931 28.4866 66.8931H35.861C37.9572 66.8931 38.1818 66.0696 38.107 64.4974C37.8075 59.9306 34.2513 53.1177 29.7594 51.0215C28.2995 48.7755 25.7166 45.7808 23.9947 44.2835C24.7808 43.46 25.6417 41.9252 25.9412 40.9145C26.3155 40.353 26.2406 38.9306 25.9786 38.706C26.2406 37.9947 26.0909 37.4332 25.9037 36.984C26.8396 36.1231 26.6898 32.5295 23.1337 32.0803C23.1337 31.2568 22.6096 30.845 21.9733 30.5455C23.0963 29.984 22.1604 27.9252 20.0267 28.4867C19.5775 28.1872 18.754 27.9626 17.6684 27.9626C16.508 27.9626 15.0481 28.0001 12.615 29.3477C5.01604 33.5028 0.973262 43.4225 3.74332 52.2942C5.42781 57.7969 4.34224 58.2835 2.13368 60.0803C0.262025 61.7648 0 63.1498 0 64.4974C0 65.845 0.262028 66.7808 2.17112 66.7808H25.7914L25.754 66.8931ZM19.5775 29.9466C19.8021 28.7113 21.7487 28.7113 21.7112 29.8343C21.6738 30.5081 20.6257 30.5081 20.738 29.9092C20.738 29.9092 20.738 29.8343 20.6631 29.9092C20.3636 30.1338 20.5134 30.8076 21.1497 30.9199C21.9358 31.0696 22.3476 31.4814 22.4225 32.0054C21.4118 31.6685 19.2406 31.7434 19.5775 29.984V29.9466ZM14.2246 49.599C14 49.4867 13.9251 49.599 14.1123 49.7487H14.1497C15.1979 50.5348 15.4225 51.4707 14.9733 52.2568C14.2995 53.4546 13.139 53.4921 12.6898 52.8183C12.1283 51.9199 13.0267 50.8343 13.8503 51.8076C14.7861 49.4493 10.1444 49.6739 10.8931 52.7808C9.62032 52.5188 8.19786 51.8076 7.03743 50.6471C6.81283 50.4225 6.73796 50.5723 6.85026 50.7969C7.93583 52.4814 9.54546 53.5669 11.2299 54.353C12.8396 54.9894 14.1872 55.7755 14.7861 56.9359C15.1604 57.6846 14.5241 58.1712 14 58.3584C11.5668 59.1819 9.43316 61.4279 10.1444 65.6953H6.4385C6.13903 64.984 5.877 63.7862 6.51337 62.2514C6.5508 62.1391 6.51337 62.0268 6.40107 62.1391C5.54011 62.9252 5.12835 64.1231 5.46524 65.6953H4.15508C3.85562 65.0589 3.51872 63.8985 4.15508 62.3637C4.19252 62.2514 4.15508 62.1766 4.08021 62.2514C3.66845 62.6257 2.77005 63.7487 3.06951 65.6953H1.94652C1.57219 65.6953 1.42246 65.4707 1.42246 65.0963C1.42246 59.4065 7 59.0696 9.50802 60.23C9.69519 60.3423 9.73262 60.2675 9.62032 60.1552C9.17112 59.5937 8.01069 58.583 5.57754 58.7701C5.83957 57.9466 6.2139 55.8129 5.01604 51.9947C2.50802 43.9466 5.91444 34.4012 13.0267 30.5081C15.4599 29.1605 17.5562 28.8985 19.0909 29.4225C18.7914 29.7969 18.7914 30.4707 19.016 30.8076C17.5936 30.2086 15.1979 31.2942 15.984 32.3798H16.0214C16.1337 32.5669 16.1711 32.5295 16.1711 32.3798V32.3049C16.1711 31.8557 16.4706 31.5562 16.9198 31.4065C16.3209 31.9306 16.9198 32.9787 17.7059 32.5295C16.7326 32.4172 17.1069 31.2942 17.6684 31.2942C18.5668 31.1819 20.0267 32.0429 19.2032 32.3423C19.016 32.4172 18.3048 32.5669 17.9305 32.8664C17.7807 32.9787 17.8182 33.0161 17.9305 32.9787C18.754 32.9787 19.1283 32.829 19.8021 32.6792C24.4064 31.8557 25.9786 34.6632 25.7914 35.7862C25.754 35.599 25.4171 35.2247 25.2674 35.4867C25.0054 36.0108 24.0321 36.1231 23.246 35.2621C22.984 34.9252 22.3476 34.8503 21.7112 34.9626C20.6631 35.1498 20.2139 35.1124 19.7647 34.1766C19.6524 34.1017 19.6524 34.1766 19.6898 34.2514C19.7273 34.9626 19.877 36.2728 21.2246 36.46C21.7112 36.5723 22.1979 36.0108 22.9091 36.46C23.3583 36.8717 23.8824 37.3958 24.631 37.2461C25.3048 37.0963 25.3423 37.3584 25.4546 37.583C25.5668 38.1819 25.3048 38.4439 24.8182 38.0696C24.5936 37.9199 24.2941 37.7701 23.9947 37.7327C21.7861 37.4707 19.6524 39.3423 17.9679 36.3102C17.7433 35.9359 17.4064 35.5241 16.9572 35.4118C16.2086 35.1872 15.7219 35.6364 15.385 36.1979C14.861 37.0963 15.2727 36.7969 15.8342 36.3851C16.1337 36.1979 16.6578 36.2354 16.9198 36.46C17.0695 36.6097 17.2193 37.0215 16.9947 37.3958C16.5455 38.0322 16.0588 38.6685 15.7594 38.7434C15.3476 38.8557 15.2353 38.1819 15.1979 37.8076C15.1979 37.583 15.0856 37.6204 15.0107 37.8076C14.8984 38.4065 14.9358 39.2675 15.4599 39.3049C16.2834 39.3423 16.9947 38.4814 17.5187 37.6578C17.631 37.5455 17.7433 37.5455 17.8556 37.6578C18.9412 38.8557 20.2888 38.9306 22.123 38.5188C22.7594 38.3691 23.3957 38.3316 23.9198 38.4439C25.1176 38.6685 25.3797 39.4921 25.2674 40.3156C25.1177 41.0643 24.9679 41.1766 24.631 41.4012C24.4813 41.5135 24.4813 41.6258 24.631 41.6632C24.631 41.6632 24.7808 41.8129 24.5562 42.2621C24.4813 42.3744 24.4064 42.5241 24.3316 42.6364C24.2941 42.7113 24.2567 42.7487 24.2567 42.7862C23.8075 43.4225 23.3583 43.8717 23.0963 44.0589C22.2727 44.6578 22.0481 45.0322 22.6096 44.9947C22.7594 44.9947 22.9091 44.9947 23.0588 44.9199C23.0963 44.9199 23.1337 44.9947 23.1711 45.0322C24.7433 46.0803 27.2888 49.0375 28.9358 51.7701C29.0856 52.0322 29.9465 52.107 31.0321 53.1552C34.5882 56.5241 36.6845 60.1926 37.0214 65.0963C37.0214 65.4332 36.8342 65.6578 36.4973 65.6578H31.8556C31.7059 65.1712 31.6685 64.46 32.0428 63.599C32.0802 63.5241 32.0428 63.4493 31.9679 63.5242C31.4439 64.0108 31.1444 64.7594 31.2567 65.6578H30.4332C30.2834 65.2086 30.1337 64.46 30.5455 63.5616C30.5455 63.4867 30.5455 63.4119 30.4706 63.4867C30.1711 63.7488 29.6845 64.2728 29.7219 65.6578H29.1979C28.8984 65.6578 28.5989 65.583 28.5989 65.2086C28.4866 62.5883 33.0535 59.6685 35.8235 63.5242C35.9733 63.7862 36.0481 63.7113 35.9733 63.5242V63.4493C35.2995 61.8022 33.1283 60.3798 30.8824 61.2033C30.0963 59.9306 29.4973 58.845 29.6096 55.6632C29.6096 55.4012 29.4973 55.4012 29.4599 55.6632C29.0856 57.3477 29.123 59.8557 29.8342 61.7274C28.6364 62.3637 28.0374 63.4493 27.8128 64.5723C27.738 64.984 26.9519 64.984 27.1016 64.4974C27.3262 63.6739 27.738 59.706 27.3262 57.9466C27.5508 56.0749 27.3262 54.4279 26.0909 53.5295C26.4652 53.3798 26.7273 53.0803 26.7273 52.5937C26.7647 51.3958 24.8931 49.8985 24.7433 51.2086C24.7433 51.2086 24.7433 51.3584 24.7433 51.2461C25.0054 50.6097 26.3529 51.583 25.8289 52.3316C25.3423 53.0054 23.9572 52.0696 24.0321 50.9466C24.1818 48.8504 26.4278 50.4225 27.7754 52.4065C28.7861 53.829 29.8717 54.2407 30.5455 54.3156C30.8075 54.353 30.8449 54.2407 30.5829 54.1659H30.5455C29.7594 53.829 28.861 53.1552 27.6631 51.1712C24.2941 45.5937 21.2246 48.5883 23.3209 52.0322C23.6952 52.6311 24.1444 53.0429 24.631 53.3049C23.7326 54.5028 26.016 56.4867 26.3155 55.5134C26.3529 55.3263 26.3155 55.1017 26.1283 54.9145C25.6791 55.7006 24.8556 53.6418 25.754 54.0536C26.4278 54.353 27.139 55.9626 26.8021 57.1979C26.5027 56.7487 25.754 55.8878 25.1177 56.2621C24.8556 56.4118 24.8182 56.9359 25.0428 57.46C25.3797 58.1712 26.1658 58.5081 26.2781 58.0963C26.3155 57.9466 26.2781 57.7969 26.1658 57.6097C26.0535 57.9092 25.6043 57.6471 25.5668 57.1605C25.5668 56.9359 25.6417 56.7862 25.9037 56.9359C26.5775 57.3102 26.6898 58.0589 26.7273 59.4439C26.6898 65.8824 24.631 65.6578 23.9947 65.6578H17.9679C17.5187 64.9466 16.8449 63.3744 17.5187 61.2782C17.5561 61.1284 17.5187 61.0161 17.4064 61.1659C16.9198 61.7274 15.984 62.9252 16.508 65.6578H14.861C14.4118 64.9466 13.738 63.3744 14.4118 61.2782C14.4492 61.1284 14.4118 61.0161 14.2995 61.1659C13.8128 61.7274 12.877 62.9252 13.4011 65.6578H12.2781C11.5294 65.6578 11.4545 65.2461 11.3422 64.4974C10.6684 56.8985 20.8503 58.0215 24.631 60.829H24.6685C24.8556 61.0161 24.9305 60.9413 24.7807 60.7541C23.4706 59.1819 20.4759 57.7594 16.9947 57.8343C16.0588 57.8717 15.7594 57.2728 15.7219 56.7862C15.6471 55.7381 15.6471 55.2889 15.6471 54.8397C15.6471 52.5562 19.016 50.5723 20.6257 47.6151C20.8503 47.2033 20.7005 47.0536 20.4011 47.4653C19.1658 49.1498 17.7059 50.6471 16.1337 51.6953C16.1337 51.6578 16.1337 51.6204 16.1337 51.5455C16.0214 50.7969 15.123 49.9733 14.2995 49.6364L14.2246 49.599Z" fill="#002B69"/>
<path d="M41.3262 80.0322C41.3636 79.8451 41.401 79.6205 41.4385 79.3959C41.4385 79.1713 41.4759 78.9467 41.4759 78.6846V77.4119H40.2781V78.9092C40.2781 79.2087 40.2406 79.5082 40.1657 79.8451C40.0909 80.1445 39.9411 80.4814 39.754 80.7809C39.5668 81.0804 39.3422 81.3798 39.0428 81.6419C38.7433 81.9039 38.4064 82.1659 37.9946 82.3531V82.3905L38.7433 83.2515C39.1176 83.0269 39.5294 82.7649 39.9037 82.428C40.2781 82.0911 40.6149 81.6793 40.877 81.1927L42.9732 83.214L43.7219 82.428L41.2887 80.0697L41.3262 80.0322ZM44.9946 76.4761V79.321H42.7112V80.444H44.9946V86.0215H46.1551V76.5135H44.9946V76.4761Z" fill="white"/>
<path d="M49.9356 79.9572C50.1602 80.1444 50.4222 80.2567 50.7217 80.369C51.0212 80.4438 51.3206 80.5187 51.6575 80.5187C51.9944 80.5187 52.3313 80.4813 52.6308 80.369C52.9302 80.2567 53.1923 80.1444 53.4169 79.9572C53.6415 79.77 53.7912 79.5454 53.9409 79.3208C54.0532 79.0588 54.1281 78.7968 54.1281 78.4973C54.1281 78.1978 54.0532 77.8984 53.9409 77.6363C53.7912 77.3743 53.6415 77.1497 53.4169 77C53.1923 76.8128 52.9302 76.6631 52.6308 76.5882C52.3313 76.4759 51.9944 76.4385 51.6575 76.4385C51.3206 76.4385 50.9837 76.4759 50.6843 76.5882C50.3848 76.7005 50.1228 76.8128 49.8982 77C49.6736 77.1871 49.4864 77.4117 49.3741 77.6738C49.2618 77.9358 49.1869 78.2353 49.1869 78.5347C49.1869 78.8342 49.2618 79.1337 49.3741 79.3957C49.4864 79.6577 49.6736 79.8449 49.8982 80.0321L49.9356 79.9572ZM50.7217 77.7112C50.9837 77.524 51.2832 77.4492 51.6575 77.4492C52.0318 77.4492 52.3313 77.524 52.5933 77.7112C52.8554 77.8984 52.9677 78.1604 52.9677 78.4599C52.9677 78.7593 52.8554 79.0588 52.5933 79.2085C52.3313 79.3583 52.0318 79.4706 51.6575 79.4706C51.2832 79.4706 50.9837 79.3957 50.7217 79.2085C50.4597 79.0214 50.3474 78.7968 50.3474 78.4599C50.3474 78.123 50.4597 77.8984 50.7217 77.7112ZM56.2618 81.8288V80.7433H47.2778V81.8288H51.1335V82.3155H49.2244V83.401H53.0425V83.7754H49.2618V86.3583H54.5024V85.2353H50.4597V84.8235H54.2404V82.3155H52.2939V81.8288H56.2244H56.2618Z" fill="white"/>
<path d="M61.2781 83.738V81.4546H60.1177V83.738H56.3369V84.8235H65.2834V83.738H61.2781ZM57.984 82.5027C58.5829 82.2781 59.107 81.9412 59.5562 81.5669C60.0054 81.1551 60.4171 80.7433 60.6792 80.2567L63.3369 82.5027L64.0856 81.6792L61.1284 79.2086C61.1658 79.0214 61.2032 78.8717 61.2407 78.6845C61.2407 78.4973 61.2781 78.3102 61.2781 78.123V77.3369H60.0428V78.123C60.0428 78.4973 59.9679 78.8717 59.8182 79.246C59.6685 79.6203 59.4439 79.9572 59.1818 80.2567C58.9198 80.5562 58.6203 80.8556 58.2834 81.0802C57.9465 81.3423 57.5722 81.5294 57.1604 81.6792V81.7166L57.9091 82.5401L57.984 82.5027Z" fill="white"/>
<path d="M69.3634 77.075H68.203V78.5349H66.219V77.075H65.0586V81.6793H69.3634V77.075ZM68.203 80.5937H66.219V79.6579H68.203V80.5937ZM71.4597 82.8023C71.2351 82.6151 70.973 82.4654 70.6736 82.3531C70.3741 82.2408 70.0746 82.2034 69.7752 82.2034C69.4757 82.2034 69.1388 82.2408 68.8393 82.3531C68.5399 82.4654 68.2778 82.6151 68.0907 82.8023C67.8661 82.9895 67.6789 83.214 67.5666 83.4761C67.4543 83.7381 67.3795 84.0376 67.3795 84.337C67.3795 84.6365 67.4543 84.936 67.5666 85.198C67.6789 85.46 67.8661 85.6846 68.0907 85.8718C68.3153 86.059 68.5773 86.2087 68.8393 86.321C69.1388 86.4333 69.4383 86.4707 69.8126 86.4707C70.1869 86.4707 70.449 86.3959 70.7484 86.321C71.0479 86.2087 71.3099 86.059 71.4971 85.8718C71.7217 85.6846 71.8714 85.46 72.0212 85.198C72.1335 84.936 72.2083 84.6365 72.2083 84.337C72.2083 84.0376 72.1335 83.7381 72.0212 83.4761C71.8714 83.214 71.7217 82.9895 71.4971 82.8023H71.4597ZM70.6361 85.0857C70.4115 85.2729 70.1121 85.3852 69.7752 85.3852C69.4383 85.3852 69.1014 85.2729 68.8768 85.0857C68.6522 84.8611 68.5399 84.6365 68.5399 84.337C68.5399 84.0376 68.6522 83.813 68.8768 83.5884C69.1014 83.3638 69.4008 83.2889 69.7377 83.2889C70.0746 83.2889 70.3741 83.4012 70.5987 83.5884C70.8233 83.7755 70.9356 84.0376 70.9356 84.3745C70.9356 84.7114 70.8233 84.936 70.5987 85.1231L70.6361 85.0857ZM72.2458 78.6846V76.4761H71.0853V82.1659H72.2458V79.8076H73.8928V78.7221H72.2458V78.6846Z" fill="white"/>
<path d="M29.5723 26.3903C28.5616 27.5507 27.7006 27.1764 26.9519 26.4277L27.7755 25.4919C28.1872 25.8662 28.5616 26.1657 29.0108 25.6416C29.2728 25.3421 29.2354 25.0052 28.8985 24.7432C28.0749 24.032 26.3904 25.8662 25.0803 24.7432C24.3691 24.1443 24.107 23.3207 25.0803 22.1603C25.8664 21.2619 26.6899 21.1496 27.5509 22.048L26.7648 22.9464C26.4279 22.6469 26.0535 22.4223 25.7166 22.7967C25.4546 23.0961 25.4546 23.433 25.7541 23.6951C26.615 24.4437 28.1872 22.4972 29.5723 23.6951C30.7327 24.7058 30.1338 25.679 29.4974 26.3903H29.5723Z" fill="white"/>
<path d="M30.845 22.1979C31.1819 22.5723 31.6686 23.0963 32.0803 22.7594C32.3798 22.4974 32.1926 22.1231 31.968 21.861L32.829 21.0749C33.1285 21.4118 33.2408 21.7862 33.2408 22.1605C33.2408 22.5348 33.0162 22.9092 32.6044 23.2835C31.4814 24.2942 30.7327 23.7327 29.8718 22.7969C29.1231 21.9733 28.5991 21.1124 29.722 20.1017C30.8825 19.0535 31.706 19.6899 32.567 20.7006L30.9199 22.1979H30.845ZM31.2194 21.0001C30.9573 20.7006 30.583 20.2514 30.1712 20.6257C29.7595 21.0001 30.1712 21.4493 30.4333 21.7113L31.2194 21.0001Z" fill="white"/>
<path d="M32.9783 20.0267C32.3045 19.0908 31.8928 18.2299 33.1281 17.3315C34.3634 16.4331 35.0746 17.1443 35.7484 18.0427C36.4971 19.0908 36.8714 19.9518 35.6735 20.8128C34.4757 21.6737 33.7644 21.0748 33.0158 19.9892L32.9783 20.0267ZM34.7377 18.6791C34.2511 17.9678 33.9516 17.6309 33.5398 17.9304C33.1281 18.2299 33.3527 18.6042 33.8767 19.3154C34.6254 20.3261 34.85 20.5133 35.2243 20.2513C35.5612 19.9892 35.4864 19.7272 34.7751 18.6791H34.7377Z" fill="white"/>
<path d="M39.0801 18.0802C39.0801 18.5294 38.8555 18.7915 38.4811 19.0161C37.9945 19.2781 37.433 19.2407 37.1335 18.7166L35.5239 15.7968L36.5346 15.2353L37.9571 17.7433C38.1442 18.0802 38.3314 18.2674 38.6683 18.0802C39.0052 17.8931 38.9303 17.631 38.7432 17.2941L37.3207 14.7861L38.3314 14.2246L39.941 17.1444C40.0908 17.369 40.2405 17.631 40.3902 17.8556L39.3421 18.4546L39.1549 18.0802H39.0801Z" fill="white"/>
<path d="M39.7542 11.6418L42.1873 17.0697L41.1392 17.5563L38.7061 12.1285L39.7542 11.6418Z" fill="white"/>
<path d="M45.1443 15.9092L43.5347 10.1819L46.4919 9.3584L46.7539 10.2194L44.9946 10.706L45.4063 12.1659L47.0908 11.6793L47.3529 12.5402L45.6684 13.0268L46.3796 15.5349L45.1817 15.8718L45.1443 15.9092Z" fill="white"/>
<path d="M48.8129 8.90918L49.0001 9.80757L47.8771 10.0322L47.6899 9.13378L48.8129 8.90918ZM49.9359 14.7487L48.8129 14.9734L48.0268 10.8931L49.1498 10.6685L49.9359 14.7487Z" fill="white"/>
<path d="M51.6201 10.2942L51.6949 10.8182C51.8447 10.3316 52.219 10.1444 52.7056 10.0696L52.8179 11.1177C51.8072 11.1551 51.8447 11.7541 51.8821 12.1658L52.1441 14.4118L50.9837 14.5616L50.4971 10.4439L51.5826 10.3316L51.6201 10.2942Z" fill="white"/>
<path d="M54.615 12.3531C54.615 12.8397 54.6525 13.5884 55.1765 13.5884C55.5883 13.5884 55.6631 13.1766 55.6631 12.8397H56.8236C56.8236 13.2515 56.6738 13.6258 56.4118 13.8878C56.1498 14.1499 55.738 14.2996 55.214 14.337C53.7166 14.337 53.492 13.4761 53.4546 12.1659C53.4546 11.0429 53.5669 10.0697 55.1016 10.0322C56.6738 10.0322 56.861 11.0055 56.861 12.3531H54.6525H54.615ZM55.6631 11.6793C55.6631 11.2675 55.6631 10.706 55.1016 10.706C54.5776 10.706 54.5776 11.3424 54.615 11.6793H55.6631Z" fill="white"/>
<path d="M61.3903 14.7111C59.8556 14.4865 59.7433 13.5132 59.9679 12.54L61.2032 12.7271C61.1283 13.2886 61.0534 13.7753 61.7272 13.8876C62.139 13.9624 62.401 13.7004 62.4385 13.3261C62.5882 12.2779 60.1551 11.8287 60.4171 10.0694C60.5668 9.13355 61.1283 8.49719 62.6256 8.72179C63.8235 8.90896 64.3101 9.54532 64.0481 10.7432L62.8502 10.556C62.9251 10.1068 62.9251 9.65762 62.4385 9.58275C62.0267 9.50789 61.7647 9.69505 61.6898 10.1068C61.5026 11.2298 64.0107 11.5293 63.7112 13.3635C63.4866 14.8983 62.3262 14.8983 61.3903 14.7485V14.7111Z" fill="white"/>
<path d="M65.6203 13.5883C65.4706 14.075 65.2834 14.7862 65.77 14.9359C66.1818 15.0482 66.369 14.6739 66.4438 14.3744L67.5668 14.7113C67.4171 15.1605 67.1925 15.46 66.8556 15.6097C66.5187 15.7969 66.1069 15.7969 65.5829 15.6471C64.1604 15.2354 64.1978 14.2996 64.5722 13.0643C64.8716 11.9787 65.3208 11.0803 66.7807 11.4921C68.278 11.9038 68.1657 12.952 67.754 14.2247L65.6203 13.6258V13.5883ZM66.8182 13.2514C66.9305 12.8771 67.1176 12.3156 66.5561 12.1659C66.0321 12.0161 65.8823 12.6151 65.77 12.952L66.7807 13.2514H66.8182Z" fill="white"/>
<path d="M70.4117 12.8021L70.2245 13.2888C70.5988 12.9144 71.0106 12.9519 71.4598 13.1016L71.0855 14.0749C70.1496 13.6257 69.925 14.1872 69.7753 14.5615L68.9518 16.6578L67.8662 16.246L69.3635 12.3904L70.3742 12.8021H70.4117Z" fill="white"/>
<path d="M71.984 13.4011L73.0321 13.9252L72.1712 16.9573L74.1177 14.4493L75.1284 14.9733L72.246 18.1926L71.123 17.6311L71.984 13.4386V13.4011Z" fill="white"/>
<path d="M74.7916 19.6898L73.8184 19.0909L75.9895 15.5348L76.9628 16.1337L74.7916 19.6898ZM77.8986 14.5989L77.4119 15.385L76.4387 14.7861L76.9253 14L77.8986 14.5989Z" fill="white"/>
<path d="M78.8717 19.2781C79.2461 18.7915 79.2461 18.5295 78.9466 18.3049C78.5348 18.0054 78.2728 18.3049 77.7487 19.0161C77.0001 20.0268 76.9252 20.3263 77.2621 20.5883C77.5616 20.8129 77.8985 20.6257 78.1979 20.214L79.1338 20.8878C78.46 21.7862 77.6739 21.8236 76.8129 21.1872C75.615 20.2888 75.9894 19.4279 76.7755 18.4172C77.4493 17.5188 78.1605 16.8075 79.3958 17.7434C80.2568 18.3797 80.4439 19.1284 79.8075 19.9894L78.8717 19.3156V19.2781Z" fill="white"/>
<path d="M80.8181 21.8984C80.4812 22.2727 79.9946 22.7968 80.3689 23.1711C80.6684 23.4331 81.0053 23.2085 81.2299 22.9839L82.0908 23.77C81.7539 24.1069 81.417 24.2567 81.0427 24.2567C80.6684 24.2567 80.2566 24.0695 79.8823 23.7326C78.7967 22.7219 79.2833 21.8984 80.1443 20.9626C80.9304 20.139 81.7165 19.5401 82.802 20.5882C83.9625 21.6364 83.3635 22.4973 82.4277 23.4706L80.8181 21.9733V21.8984ZM82.016 22.123C82.278 21.8235 82.6898 21.4118 82.278 21.0374C81.9037 20.6631 81.4545 21.1497 81.2299 21.4118L82.016 22.123Z" fill="white"/>
<path d="M83.289 25.2301C83.1392 25.3424 83.0269 25.4547 82.9521 25.6044C82.8772 25.7541 82.9521 25.8664 83.0644 26.0536C83.2141 26.2408 83.4387 26.2782 83.6633 26.091C84.3371 25.5295 82.8398 24.1071 83.8505 23.2461C84.5243 22.6472 85.3104 23.1712 85.797 23.7327C86.321 24.3317 86.5082 25.1178 85.797 25.6418L85.0483 24.7809C85.2729 24.5937 85.3852 24.444 85.3852 24.3317C85.3852 24.2194 85.3478 24.1445 85.2729 24.0322C85.1232 23.845 84.8986 23.845 84.674 24.0322C84.1874 24.444 85.535 25.9787 84.5243 26.8397C83.9628 27.3263 83.1767 27.214 82.5403 26.5028C81.8665 25.7167 81.6419 25.0429 82.5403 24.3691L83.289 25.2301Z" fill="white"/>
<path d="M112 38.7432C112 38.3315 112 37.9197 111.963 37.5079C111.775 35.5989 111.064 33.8769 109.866 32.417C107.396 29.385 103.952 28.0374 98.599 28.0374C91.0001 28.0374 81.9787 31.6309 75.7648 37.0962H37.5081C37.5081 37.0962 35.1872 36.8716 34.1765 38.4063C32.9412 40.3154 34.4386 41.7753 34.4386 41.7753L35.8236 43.6096C33.8022 46.4545 25.1926 59.3689 20.6631 65.77C20.6631 65.77 18.9787 68.0908 22.3102 68.0908H72.5455C70.2621 71.0855 67.6043 74.3796 67.6043 74.3796C67.4546 74.5293 67.4172 74.7165 67.4172 74.9411C67.4172 75.1657 67.4172 75.2031 67.492 75.3154C67.6418 75.6149 67.9412 75.8021 68.2781 75.8021H90.6632C90.9626 75.8021 91.2247 75.6523 91.3744 75.4277L93.7701 72.4331L110.016 45.6684C111.289 43.4598 111.963 41.1015 112 38.8181V38.7432Z" fill="#002B69"/>
<path d="M98.6364 29.5347C89.4279 29.5347 77.8985 35.9358 72.7701 44.0588C67.4546 52.4438 70.9359 59.4438 80.706 59.4438C90.476 59.4438 81.6792 59.4438 82.2033 59.369L71.4225 73.7059H89.4279L107.808 44.6577C107.957 44.3957 108.144 44.1337 108.257 43.8716C112.861 35.7486 107.845 29.4973 98.6364 29.4973V29.5347ZM85.3477 43.9465C86.6953 41.5134 89.9519 39.492 92.6846 39.3797C95.4172 39.3048 96.5776 41.1765 95.2674 43.6096C93.9573 46.0802 90.6632 48.139 87.8557 48.2513C85.0856 48.3262 83.9626 46.4171 85.3102 43.9465H85.3477Z" fill="#BB1018"/>
<path d="M73.107 40.7273L73.2193 40.5027C73.5188 39.9786 73.4813 39.6417 73.369 39.3797C73.1444 38.7808 72.4706 38.7808 72.4332 38.7808H57.6097C57.6097 38.7808 56.1498 38.7059 55.738 40.0535C55.5509 40.7273 55.6632 41.1391 56.3744 41.8877L57.8343 43.1979L43.0107 65.6578H58.246L73.0696 40.7647L73.107 40.7273Z" fill="#BB1018"/>
<path d="M54.3904 39.3797C54.1658 38.7808 53.492 38.7808 53.4545 38.7808H38.7433C38.7433 38.7808 37.2834 38.7059 36.8716 40.0535C36.647 40.7273 36.7968 41.1391 37.5454 41.8877L39.0053 43.1979L23.8823 65.6578H38.0321L54.0909 40.7647C54.5027 40.1284 54.5026 39.7166 54.3529 39.4171L54.3904 39.3797Z" fill="#BB1018"/>
</svg>
