<svg width="24" height="24" viewBox="0 0 24 24" fill="none" xmlns="http://www.w3.org/2000/svg">
<g id="icon / 24 / calender">
<path id="Vector" d="M14.5 15.2001C13.9477 15.2001 13.5 15.6478 13.5 16.2001C13.5 16.7524 13.9477 17.2001 14.5 17.2001V15.2001ZM6.82053 5.6001H20.3799V3.6001H6.82053V5.6001ZM20.3799 5.6001C20.7223 5.6001 21.0002 5.87779 21.0002 6.22071H23.0002C23.0002 4.77355 21.8272 3.6001 20.3799 3.6001V5.6001ZM21.0002 6.22071V14.5795H23.0002V6.22071H21.0002ZM21.0002 14.5795C21.0002 14.9224 20.7223 15.2001 20.3799 15.2001V17.2001C21.8272 17.2001 23.0002 16.0266 23.0002 14.5795H21.0002ZM20.3799 15.2001H14.5V17.2001H20.3799V15.2001ZM6.2002 6.22071C6.2002 5.87779 6.47809 5.6001 6.82053 5.6001V3.6001C5.3732 3.6001 4.2002 4.77355 4.2002 6.22071H6.2002ZM6.2002 8.68098V6.22071H4.2002V8.68098H6.2002Z" fill="black"/>
<path id="Vector 259" d="M9 4L9 2" stroke="black" stroke-width="2" stroke-linecap="round"/>
<path id="Vector 260" d="M18 4L18 2" stroke="black" stroke-width="2" stroke-linecap="round"/>
<path id="Vector_2" d="M2.00086 10.1439C2.00133 10.1439 2.00172 10.1443 2.00172 10.1448V16.0064C2.00172 17.7236 2.92154 19.3093 4.41453 20.1687L7.91019 22.1781C8.11097 22.2943 8.35981 22.2943 8.56059 22.1781L12.0562 20.1687C13.5492 19.311 14.4691 17.7236 14.4691 16.0064V10.1439C14.4691 9.97303 14.3627 9.81924 14.2014 9.75944L8.57946 7.66289C8.35637 7.57917 8.11269 7.57917 7.8896 7.66289L2.26771 9.75944C2.10667 9.81914 2.00036 9.97251 2 10.143C2 10.1435 2.00038 10.1439 2.00086 10.1439V10.1439Z" stroke="black" stroke-width="2"/>
<path id="Vector 257" d="M5 15H11" stroke="black" stroke-width="2" stroke-linecap="round"/>
<path id="Vector 258" d="M8 18L8 12" stroke="black" stroke-width="2" stroke-linecap="round"/>
</g>
</svg>
