<svg width="18" height="20" viewBox="0 0 18 20" fill="none" xmlns="http://www.w3.org/2000/svg">
<path d="M8.32328 19.7137C8.52835 19.9182 8.77443 20 9.02051 20C9.26659 20 9.51267 19.9182 9.71773 19.7137L15.0084 14.4376C18.3305 11.1247 18.3305 5.76687 15.0084 2.45399C13.4089 0.899796 11.2762 0 9.02051 0C6.76478 0 4.63209 0.899795 2.99156 2.49489C-0.330519 5.80777 -0.330519 11.1656 2.99156 14.4785L8.28227 19.7546L8.32328 19.7137ZM6.68275 6.13497C7.29795 5.52147 8.11822 5.15337 9.02051 5.15337C9.9228 5.15337 10.7431 5.48057 11.3583 6.13497C11.9735 6.74847 12.3426 7.56646 12.3426 8.46626C12.3426 9.36605 12.0145 10.184 11.3583 10.7975C10.7431 11.411 9.9228 11.7791 9.02051 11.7791C8.11822 11.7791 7.29795 11.4519 6.68275 10.7975C6.06755 10.184 5.69843 9.36605 5.69843 8.46626C5.69843 7.56646 6.02654 6.74847 6.68275 6.13497Z" fill="#002F67"/>
</svg>
