<svg width="20" height="20" viewBox="0 0 20 20" fill="none" xmlns="http://www.w3.org/2000/svg">
<path d="M9.32328 19.7137C9.52835 19.9182 9.77443 20 10.0205 20C10.2666 20 10.5127 19.9182 10.7177 19.7137L16.0084 14.4376C19.3305 11.1247 19.3305 5.76687 16.0084 2.45399C14.4089 0.899796 12.2762 0 10.0205 0C7.76478 0 5.63209 0.899795 3.99156 2.49489C0.669481 5.80777 0.669481 11.1656 3.99156 14.4785L9.28227 19.7546L9.32328 19.7137ZM7.68275 6.13497C8.29795 5.52147 9.11822 5.15337 10.0205 5.15337C10.9228 5.15337 11.7431 5.48057 12.3583 6.13497C12.9735 6.74847 13.3426 7.56646 13.3426 8.46626C13.3426 9.36605 13.0145 10.184 12.3583 10.7975C11.7431 11.411 10.9228 11.7791 10.0205 11.7791C9.11822 11.7791 8.29795 11.4519 7.68275 10.7975C7.06755 10.184 6.69843 9.36605 6.69843 8.46626C6.69843 7.56646 7.02654 6.74847 7.68275 6.13497Z" fill="#002F67"/>
</svg>
