<svg width="24" height="24" viewBox="0 0 24 24" fill="none" xmlns="http://www.w3.org/2000/svg">
<path d="M11.3233 21.7137C11.5283 21.9182 11.7744 22 12.0205 22C12.2666 22 12.5127 21.9182 12.7177 21.7137L18.0084 16.4376C21.3305 13.1247 21.3305 7.76687 18.0084 4.45399C16.4089 2.8998 14.2762 2 12.0205 2C9.76478 2 7.63209 2.8998 5.99156 4.49489C2.66948 7.80777 2.66948 13.1656 5.99156 16.4785L11.2823 21.7546L11.3233 21.7137ZM9.68275 8.13497C10.2979 7.52147 11.1182 7.15337 12.0205 7.15337C12.9228 7.15337 13.7431 7.48057 14.3583 8.13497C14.9735 8.74847 15.3426 9.56646 15.3426 10.4663C15.3426 11.3661 15.0145 12.184 14.3583 12.7975C13.7431 13.411 12.9228 13.7791 12.0205 13.7791C11.1182 13.7791 10.2979 13.4519 9.68275 12.7975C9.06755 12.184 8.69843 11.3661 8.69843 10.4663C8.69843 9.56646 9.02654 8.74847 9.68275 8.13497Z" fill="#002F67"/>
</svg>
