<svg width="42" height="34" viewBox="0 0 42 34" fill="none" xmlns="http://www.w3.org/2000/svg">
<g id="Group">
<path id="Vector" d="M41.7322 33.1294L35.5363 22.2139C35.181 21.5879 34.5167 21.2012 33.797 21.2012H8.20193C7.48216 21.2012 6.81791 21.5879 6.4626 22.2139L0.26667 33.1294C0.0326476 33.5434 0.445161 34.0012 1.056 34.0012H40.9429C41.5537 34.0012 41.9702 33.5434 41.7322 33.1294Z" fill="#1071E5"/>
<g id="Vector_2" opacity="0.9" filter="url(#filter0_i_395_14772)">
<path d="M35.4006 1.5637C35.4006 0.91836 34.8974 0.400391 34.2797 0.400391H7.7215C7.09968 0.400391 6.60059 0.922605 6.60059 1.5637V22.8004H35.4006V1.5637Z" fill="url(#paint0_linear_395_14772)"/>
</g>
<path id="Vector 257" d="M13 6.80078H28.2" stroke="white" stroke-width="3" stroke-linecap="round"/>
<path id="Vector 258" d="M13 11.5996H28.2" stroke="white" stroke-width="3" stroke-linecap="round"/>
<path id="Vector 259" d="M13 16.4004H21" stroke="white" stroke-width="3" stroke-linecap="round"/>
</g>
<defs>
<filter id="filter0_i_395_14772" x="6.60059" y="0.400391" width="28.7998" height="22.4004" filterUnits="userSpaceOnUse" color-interpolation-filters="sRGB">
<feFlood flood-opacity="0" result="BackgroundImageFix"/>
<feBlend mode="normal" in="SourceGraphic" in2="BackgroundImageFix" result="shape"/>
<feColorMatrix in="SourceAlpha" type="matrix" values="0 0 0 0 0 0 0 0 0 0 0 0 0 0 0 0 0 0 127 0" result="hardAlpha"/>
<feOffset/>
<feGaussianBlur stdDeviation="1.5"/>
<feComposite in2="hardAlpha" operator="arithmetic" k2="-1" k3="1"/>
<feColorMatrix type="matrix" values="0 0 0 0 1 0 0 0 0 1 0 0 0 0 1 0 0 0 0.7 0"/>
<feBlend mode="normal" in2="shape" result="effect1_innerShadow_395_14772"/>
</filter>
<linearGradient id="paint0_linear_395_14772" x1="6.60059" y1="0.400391" x2="28.3114" y2="28.3142" gradientUnits="userSpaceOnUse">
<stop stop-color="#FFE8CC"/>
<stop offset="1" stop-color="#FF4A58"/>
</linearGradient>
</defs>
</svg>
