<svg width="48" height="48" viewBox="0 0 48 48" fill="none" xmlns="http://www.w3.org/2000/svg">
<g id="illusticon / 60">
<path id="Vector" d="M36.8864 20.2479V24.7818C36.8864 25.3341 37.3341 25.7818 37.8864 25.7818L43.8002 25.7818C44.3525 25.7818 44.8002 26.2296 44.8002 26.7818V34.4076C44.8002 34.9598 44.3525 35.4076 43.8002 35.4076H37.8864C37.3341 35.4076 36.8864 35.8553 36.8864 36.4076V42.1996C36.8864 42.7519 36.4387 43.1996 35.8864 43.1996H28.3817C27.8294 43.1996 27.3817 42.7519 27.3817 42.1996V36.4076C27.3817 35.8553 26.9339 35.4076 26.3817 35.4076H20.2002C19.6479 35.4076 19.2002 34.9598 19.2002 34.4076V26.7818C19.2002 26.2296 19.6479 25.7818 20.2002 25.7818H26.3817C26.9339 25.7818 27.3817 25.3341 27.3817 24.7818V18.5996C27.3817 18.0473 27.8294 17.5996 28.3817 17.5996H35.8864C36.4387 17.5996 36.8864 18.0473 36.8864 18.5996V20.2479Z" fill="#1071E5"/>
<g id="Vector_2" opacity="0.9" filter="url(#filter0_i_357_27444)">
<path d="M36.162 8.72478C32.111 4.55788 25.5477 4.55788 21.4967 8.72478L21.2002 9.02978L20.9037 8.72478C16.8567 4.55788 10.2894 4.55788 6.23843 8.72478C2.18745 12.8917 2.18745 19.6469 6.23843 23.8097L6.53494 24.1147L21.2002 39.1996L35.8655 24.1147L36.162 23.8097C40.2129 19.6428 40.2129 12.8876 36.162 8.72478Z" fill="url(#paint0_linear_357_27444)"/>
</g>
<path id="Vector_3" d="M23.8925 28.8002C23.8925 28.8002 23.8786 28.8002 23.873 28.8002C23.7147 28.7919 23.5758 28.6957 23.5146 28.5527L18.3414 16.4377L14.4961 21.787C14.4183 21.8942 14.2933 21.9575 14.16 21.9575H7.61139C7.38357 21.9575 7.2002 21.776 7.2002 21.5504C7.2002 21.3249 7.38357 21.1434 7.61139 21.1434H13.9488L18.0969 15.3705C18.183 15.2495 18.3275 15.1863 18.4775 15.2028C18.6248 15.2193 18.7526 15.3128 18.8109 15.4503L23.9369 27.4553L27.2598 21.3579C27.3321 21.2259 27.471 21.1434 27.621 21.1434H33.989C34.2168 21.1434 34.4002 21.3249 34.4002 21.5504C34.4002 21.776 34.2168 21.9575 33.989 21.9575H27.8683L24.2537 28.5857C24.1814 28.7177 24.0425 28.8002 23.8925 28.8002Z" fill="white" stroke="white" stroke-width="1.5"/>
</g>
<defs>
<filter id="filter0_i_357_27444" x="3.2002" y="5.59961" width="36" height="33.5996" filterUnits="userSpaceOnUse" color-interpolation-filters="sRGB">
<feFlood flood-opacity="0" result="BackgroundImageFix"/>
<feBlend mode="normal" in="SourceGraphic" in2="BackgroundImageFix" result="shape"/>
<feColorMatrix in="SourceAlpha" type="matrix" values="0 0 0 0 0 0 0 0 0 0 0 0 0 0 0 0 0 0 127 0" result="hardAlpha"/>
<feOffset/>
<feGaussianBlur stdDeviation="1.5"/>
<feComposite in2="hardAlpha" operator="arithmetic" k2="-1" k3="1"/>
<feColorMatrix type="matrix" values="0 0 0 0 1 0 0 0 0 1 0 0 0 0 1 0 0 0 0.7 0"/>
<feBlend mode="normal" in2="shape" result="effect1_innerShadow_357_27444"/>
</filter>
<linearGradient id="paint0_linear_357_27444" x1="3.2002" y1="5.59961" x2="36.7204" y2="41.5141" gradientUnits="userSpaceOnUse">
<stop stop-color="#FFE8CC"/>
<stop offset="1" stop-color="#FF4A58"/>
</linearGradient>
</defs>
</svg>
