<svg width="32" height="32" viewBox="0 0 32 32" fill="none" xmlns="http://www.w3.org/2000/svg">
<mask id="mask0_212_8486" style="mask-type:alpha" maskUnits="userSpaceOnUse" x="0" y="0" width="32" height="32">
<rect width="32" height="32" fill="#D9D9D9"/>
</mask>
<g mask="url(#mask0_212_8486)">
<path d="M14.4 8.17391V4H16.5V8.17391H14.4ZM9.75375 9.66087L6.60375 6.53043L8.1 5.04348L11.25 8.17391L9.75375 9.66087ZM9.15 22.7826H12.3C12.5975 22.7826 12.8469 22.6826 13.0481 22.4826C13.2494 22.2826 13.35 22.0348 13.35 21.7391C13.35 21.4435 13.2494 21.1957 13.0481 20.9957C12.8469 20.7957 12.5975 20.6957 12.3 20.6957H9.15V22.7826ZM18.6 22.7826H21.75V20.6957H18.6C18.3025 20.6957 18.0531 20.7957 17.8519 20.9957C17.6506 21.1957 17.55 21.4435 17.55 21.7391C17.55 22.0348 17.6506 22.2826 17.8519 22.4826C18.0531 22.6826 18.3025 22.7826 18.6 22.7826ZM20.9887 15.7391L24.6375 12.1391L23.535 11.0435L20.9887 13.5217L19.965 12.5043L18.8625 13.6261L20.9887 15.7391ZM21.75 18.6087C20.2975 18.6087 19.0594 18.1 18.0356 17.0826C17.0119 16.0652 16.5 14.8348 16.5 13.3913C16.5 11.9478 17.0119 10.7174 18.0356 9.7C19.0594 8.68261 20.2975 8.17391 21.75 8.17391C23.2025 8.17391 24.4406 8.68261 25.4644 9.7C26.4881 10.7174 27 11.9478 27 13.3913C27 14.8348 26.4881 16.0652 25.4644 17.0826C24.4406 18.1 23.2025 18.6087 21.75 18.6087ZM7.05 28C6.7525 28 6.50312 27.9 6.30187 27.7C6.10062 27.5 6 27.2522 6 26.9565V18.6087L8.205 12.3478C8.31 12.0348 8.49812 11.7826 8.76937 11.5913C9.04062 11.4 9.3425 11.3043 9.675 11.3043H12.3V9.21739H15.7388C15.3188 9.8087 14.9906 10.4565 14.7544 11.1609C14.5181 11.8652 14.4 12.6087 14.4 13.3913H10.0425L8.49375 17.5652H15.7388C16.4388 18.5565 17.3138 19.3261 18.3638 19.8739C19.4137 20.4217 20.5425 20.6957 21.75 20.6957C22.31 20.6957 22.8481 20.6391 23.3644 20.5261C23.8806 20.413 24.3925 20.2348 24.9 19.9913V26.9565C24.9 27.2522 24.7994 27.5 24.5981 27.7C24.3969 27.9 24.1475 28 23.85 28H22.8C22.5025 28 22.2531 27.9 22.0519 27.7C21.8506 27.5 21.75 27.2522 21.75 26.9565V25.913H9.15V26.9565C9.15 27.2522 9.04937 27.5 8.84812 27.7C8.64687 27.9 8.3975 28 8.1 28H7.05Z" fill="white"/>
</g>
</svg>
