<svg width="32" height="32" viewBox="0 0 32 32" fill="none" xmlns="http://www.w3.org/2000/svg">
<mask id="mask0_212_7943" style="mask-type:alpha" maskUnits="userSpaceOnUse" x="0" y="0" width="32" height="32">
<rect width="32" height="32" fill="#D9D9D9"/>
</mask>
<g mask="url(#mask0_212_7943)">
<path d="M12 29.3333C11.2667 29.3333 10.6389 29.0722 10.1167 28.55C9.59446 28.0278 9.33335 27.4 9.33335 26.6667V25.3333H22.6667V26.6667C22.6667 27.4 22.4056 28.0278 21.8834 28.55C21.3611 29.0722 20.7334 29.3333 20 29.3333H12ZM9.33335 24V17.3333H22.6667V24H9.33335ZM9.46669 16C9.68891 14.9778 10.1556 14.0167 10.8667 13.1167C11.5778 12.2167 12.4778 11.5556 13.5667 11.1333C13.3445 10.9556 13.1445 10.7611 12.9667 10.55C12.7889 10.3389 12.6334 10.1111 12.5 9.86667L6.66669 8.66667V7.33333L12.5 6.13333C12.8334 5.48889 13.3056 4.97222 13.9167 4.58333C14.5278 4.19444 15.2222 4 16 4C16.4667 4 16.9111 4.07778 17.3334 4.23333C17.7556 4.38889 18.1334 4.6 18.4667 4.86667L22.6667 4V12L18.4334 11.1333C19.4778 11.5556 20.3611 12.1944 21.0834 13.05C21.8056 13.9056 22.2889 14.8889 22.5334 16H9.46669ZM16 9.33333C16.3778 9.33333 16.6945 9.20556 16.95 8.95C17.2056 8.69444 17.3334 8.37778 17.3334 8C17.3111 7.6 17.1778 7.27778 16.9334 7.03333C16.6889 6.78889 16.3778 6.66667 16 6.66667C15.6222 6.66667 15.3056 6.79444 15.05 7.05C14.7945 7.30556 14.6667 7.62222 14.6667 8C14.6667 8.37778 14.7945 8.69444 15.05 8.95C15.3056 9.20556 15.6222 9.33333 16 9.33333Z" fill="white"/>
</g>
</svg>
