<svg width="32" height="32" viewBox="0 0 32 32" fill="none" xmlns="http://www.w3.org/2000/svg">
<mask id="mask0_20_3016" style="mask-type:alpha" maskUnits="userSpaceOnUse" x="0" y="0" width="32" height="32">
<rect width="32" height="32" fill="#D9D9D9"/>
</mask>
<g mask="url(#mask0_20_3016)">
<path d="M5.33334 18.6667C5.33334 16.3333 5.8889 14.2556 7.00001 12.4333C8.11112 10.6111 9.33334 9.07778 10.6667 7.83333C12 6.58889 13.2222 5.63889 14.3333 4.98333L16 4V8.4C16 9.22222 16.2778 9.87222 16.8333 10.35C17.3889 10.8278 18.0111 11.0667 18.7 11.0667C19.0778 11.0667 19.4389 10.9889 19.7833 10.8333C20.1278 10.6778 20.4445 10.4222 20.7333 10.0667L21.3333 9.33333C22.9333 10.2667 24.2222 11.5611 25.2 13.2167C26.1778 14.8722 26.6667 16.6889 26.6667 18.6667C26.6667 20.6222 26.1889 22.4056 25.2333 24.0167C24.2778 25.6278 23.0222 26.9 21.4667 27.8333C21.8445 27.3 22.1389 26.7167 22.35 26.0833C22.5611 25.45 22.6667 24.7778 22.6667 24.0667C22.6667 23.1778 22.5 22.3389 22.1667 21.55C21.8333 20.7611 21.3556 20.0556 20.7333 19.4333L16 14.8L11.3 19.4333C10.6556 20.0778 10.1667 20.7889 9.83334 21.5667C9.50001 22.3444 9.33334 23.1778 9.33334 24.0667C9.33334 24.7778 9.4389 25.45 9.65001 26.0833C9.86112 26.7167 10.1556 27.3 10.5333 27.8333C8.97779 26.9 7.72223 25.6278 6.76668 24.0167C5.81112 22.4056 5.33334 20.6222 5.33334 18.6667ZM16 18.5333L18.8333 21.3C19.2111 21.6778 19.5 22.1 19.7 22.5667C19.9 23.0333 20 23.5333 20 24.0667C20 25.1556 19.6111 26.0833 18.8333 26.85C18.0556 27.6167 17.1111 28 16 28C14.8889 28 13.9445 27.6167 13.1667 26.85C12.3889 26.0833 12 25.1556 12 24.0667C12 23.5556 12.1 23.0611 12.3 22.5833C12.5 22.1056 12.7889 21.6778 13.1667 21.3L16 18.5333Z" fill="white"/>
</g>
</svg>
