<svg width="1200" height="378" viewBox="0 0 1200 378" fill="none" xmlns="http://www.w3.org/2000/svg">
<rect width="1200" height="378" fill="white"/>
<path d="M194.729 78.7412V81.7832C194.694 85.5771 194.694 89.8496 193.566 96.1045L189.294 95.7285C190.319 90.0376 190.354 85.7993 190.354 82.1934H171.726V78.7412H194.729ZM197.292 99.7959V103.351H168.923V99.7959H174.973V90.0205H179.313V99.7959H182.731V90.0205H187.038V99.7959H197.292ZM227.541 90.5674V94.0195H220.705V96.9248H224.089V107.145H219.748V100.343H202.316V96.9248H205.871V94.0195H199.172V90.5674H227.541ZM213.356 76.6562C220.192 76.6221 224.636 78.9805 224.67 82.7744C224.636 86.5684 220.192 88.9268 213.356 88.9268C206.486 88.9268 202.009 86.5684 202.009 82.7744C202.009 78.9805 206.486 76.6221 213.356 76.6562ZM213.356 80.04C209.016 80.04 206.521 80.9971 206.555 82.7744C206.521 84.6201 209.016 85.543 213.356 85.543C217.663 85.543 220.158 84.6201 220.158 82.7744C220.158 80.9971 217.663 80.04 213.356 80.04ZM210.28 96.9248H216.398V94.0195H210.28V96.9248ZM241.521 83.082C241.521 88.79 244.118 94.5322 249.382 96.7539L246.818 100.24C243.264 98.6338 240.803 95.5405 239.401 91.6953C237.983 95.8823 235.437 99.2661 231.643 100.992L229.011 97.3691C234.445 95.0791 237.077 89.1318 237.111 83.082V78.4336H241.521V83.082ZM255.466 76.041V107.213H251.057V76.041H255.466ZM284.348 76.041V84.7568H288.552V88.3457H284.348V98.3262H279.938V76.041H284.348ZM275.871 78.3652C275.871 86.7734 270.607 92.6523 261.276 95.2842L259.465 91.832C266.42 89.8838 270.368 86.2778 271.086 81.9199H260.832V78.3652H275.871ZM285.407 103.111V106.598H264.113V96.0361H268.522V103.111H285.407Z" fill="#1D1D1D"/>
<path d="M194.729 169.741V172.783C194.694 176.577 194.694 180.85 193.566 187.104L189.294 186.729C190.319 181.038 190.354 176.799 190.354 173.193H171.726V169.741H194.729ZM197.292 190.796V194.351H168.923V190.796H174.973V181.021H179.313V190.796H182.731V181.021H187.038V190.796H197.292ZM227.541 181.567V185.02H220.705V187.925H224.089V198.145H219.748V191.343H202.316V187.925H205.871V185.02H199.172V181.567H227.541ZM213.356 167.656C220.192 167.622 224.636 169.98 224.67 173.774C224.636 177.568 220.192 179.927 213.356 179.927C206.486 179.927 202.009 177.568 202.009 173.774C202.009 169.98 206.486 167.622 213.356 167.656ZM213.356 171.04C209.016 171.04 206.521 171.997 206.555 173.774C206.521 175.62 209.016 176.543 213.356 176.543C217.663 176.543 220.158 175.62 220.158 173.774C220.158 171.997 217.663 171.04 213.356 171.04ZM210.28 187.925H216.398V185.02H210.28V187.925ZM247.092 169.126V172.612H240.905C240.939 176.235 243.11 179.739 248.083 181.191L245.998 184.609C242.563 183.567 240.188 181.482 238.82 178.799C237.436 181.943 234.907 184.438 231.164 185.669L228.942 182.217C234.104 180.593 236.428 176.56 236.496 172.612H230.139V169.126H247.092ZM254.099 167.041V174.253H258.303V177.808H254.099V185.498H249.724V167.041H254.099ZM243.913 186.113C250.373 186.079 254.406 188.301 254.406 192.095C254.406 195.889 250.373 198.145 243.913 198.145C237.316 198.145 233.249 195.889 233.249 192.095C233.249 188.301 237.316 186.079 243.913 186.113ZM243.913 189.497C239.812 189.497 237.59 190.352 237.624 192.095C237.59 193.872 239.812 194.761 243.913 194.761C247.946 194.761 250.1 193.872 250.1 192.095C250.1 190.352 247.946 189.497 243.913 189.497ZM288.142 190.933V194.419H259.67V190.933H271.564V183.892H275.905V190.933H288.142ZM276.042 171.04C276.042 175.483 280.041 180.166 287.15 181.26L285.305 184.883C279.836 183.892 275.769 180.969 273.718 177.09C271.667 180.952 267.634 183.909 262.199 184.883L260.354 181.26C267.395 180.166 271.359 175.449 271.394 171.04V168.818H276.042V171.04Z" fill="#1D1D1D"/>
<path d="M396.752 101.264C392.744 101.264 389.844 98.917 389.87 95.8584C389.844 93.6699 391.32 91.666 393.693 91.1387V91.0068C391.663 90.4795 390.503 88.7656 390.503 86.7881C390.503 83.835 393.166 81.6465 396.752 81.6465C400.364 81.6465 403.027 83.8613 403.027 86.7881C403.027 88.7656 401.841 90.4795 399.837 91.0068V91.1387C402.184 91.666 403.66 93.6699 403.687 95.8584C403.66 98.917 400.76 101.264 396.752 101.264ZM396.752 98.2314C398.545 98.2314 399.811 97.1768 399.811 95.4629C399.811 93.7227 398.492 92.5889 396.752 92.5889C395.038 92.5889 393.72 93.7227 393.746 95.4629C393.72 97.1768 394.985 98.2314 396.752 98.2314ZM396.752 89.7939C398.202 89.7939 399.336 88.792 399.336 87.1836C399.336 85.6279 398.229 84.6523 396.752 84.6523C395.275 84.6523 394.194 85.6279 394.168 87.1836C394.194 88.792 395.302 89.7939 396.752 89.7939ZM414.603 84.8633C414.603 89.2666 416.606 93.6963 420.667 95.4102L418.689 98.0996C415.947 96.8604 414.049 94.4741 412.968 91.5078C411.874 94.7378 409.909 97.3481 406.982 98.6797L404.952 95.8848C409.145 94.1182 411.175 89.5303 411.201 84.8633V81.2773H414.603V84.8633ZM425.36 79.4316V103.479H421.959V79.4316H425.36ZM447.641 79.4316V86.1553H450.884V88.9238H447.641V96.623H444.239V79.4316H447.641ZM441.102 81.2246C441.102 87.7109 437.041 92.2461 429.843 94.2764L428.445 91.6133C433.811 90.1104 436.856 87.3286 437.41 83.9668H429.5V81.2246H441.102ZM448.458 100.314V103.004H432.031V94.8564H435.433V100.314H448.458ZM451.965 91.9824C451.991 86.999 453.336 82.8857 455.551 79.3262H458.715C457.106 81.9629 455.445 87.2363 455.445 91.9824C455.445 96.7021 457.106 101.976 458.715 104.612H455.551C453.336 101.053 451.991 96.9395 451.965 91.9824ZM479.888 79.4316V103.426H476.486V79.4316H479.888ZM472.689 81.9365C472.689 89.2139 470.132 95.252 461.562 99.3125L459.796 96.623C465.992 93.6963 468.721 89.8994 469.262 84.5732H461.088V81.9365H472.689ZM489.169 80.3018V82.7012H498.793V80.3018H502.142V90.1104H495.655V92.1406H504.937V94.8301H483.052V92.1406H492.28V90.1104H485.847V80.3018H489.169ZM489.169 87.4209H498.793V85.2852H489.169V87.4209ZM502.458 100.314V103.004H485.688V96.2012H489.063V100.314H502.458ZM526.294 81.5146V83.8613C526.268 86.7881 526.268 90.084 525.397 94.9092L522.102 94.6191C522.893 90.229 522.919 86.9595 522.919 84.1777H508.549V81.5146H526.294ZM528.271 97.7568V100.499H506.387V97.7568H511.054V90.2158H514.402V97.7568H517.039V90.2158H520.361V97.7568H528.271ZM551.606 90.6377V93.3008H546.333V95.542H548.943V103.426H545.595V98.1787H532.147V95.542H534.89V93.3008H529.722V90.6377H551.606ZM540.664 79.9062C545.938 79.8799 549.365 81.6992 549.392 84.626C549.365 87.5527 545.938 89.3721 540.664 89.3721C535.364 89.3721 531.91 87.5527 531.91 84.626C531.91 81.6992 535.364 79.8799 540.664 79.9062ZM540.664 82.5166C537.315 82.5166 535.391 83.2549 535.417 84.626C535.391 86.0498 537.315 86.7617 540.664 86.7617C543.986 86.7617 545.911 86.0498 545.911 84.626C545.911 83.2549 543.986 82.5166 540.664 82.5166ZM538.291 95.542H543.011V93.3008H538.291V95.542ZM559.385 91.9824C559.358 96.9395 558.014 101.053 555.799 104.612H552.635C554.243 101.976 555.904 96.7021 555.904 91.9824C555.904 87.2363 554.243 81.9629 552.635 79.3262H555.799C558.014 82.8857 559.358 86.999 559.385 91.9824Z" fill="#1D1D1D"/>
<path d="M411.676 188.889V191.631H389.712V188.889H398.967V184.459H392.032V171.961H395.407V175.679H405.875V171.961H409.224V184.459H402.315V188.889H411.676ZM395.407 181.77H405.875V178.368H395.407V181.77ZM431.979 170.432V179.502H435.512V182.271H431.979V194.479H428.656V170.432H431.979ZM425.123 172.436V181.743H417.397V186.094C420.891 186.081 423.778 185.922 426.969 185.382L427.259 188.071C423.594 188.73 420.298 188.889 416.079 188.889H414.049V179.08H421.774V175.151H414.022V172.436H425.123ZM457.186 170.432V194.426H453.969V182.323H451.807V193.318H448.616V170.774H451.807V179.581H453.969V170.432H457.186ZM446.612 172.91V188.388H437.067V172.91H446.612ZM440.205 175.573V185.751H443.475V175.573H440.205ZM486.532 170.432V177.313H489.775V180.108H486.532V187.913H483.157V170.432H486.532ZM487.402 191.314V194.004H470.976V186.067H474.324V191.314H487.402ZM474.245 171.987C477.91 171.987 480.784 174.519 480.784 178.078C480.784 181.585 477.91 184.169 474.245 184.169C470.554 184.169 467.653 181.585 467.653 178.078C467.653 174.519 470.554 171.987 474.245 171.987ZM474.245 174.914C472.426 174.888 470.949 176.074 470.976 178.078C470.949 180.029 472.426 181.242 474.245 181.242C476.091 181.242 477.488 180.029 477.515 178.078C477.488 176.074 476.091 174.888 474.245 174.914ZM511.054 170.458V187.966H507.705V179.37H503.776V176.654H507.705V170.458H511.054ZM511.634 191.314V194.004H495.128V186.437H498.503V191.314H511.634ZM499.9 175.151C499.9 177.92 501.588 180.899 505.411 182.139L503.75 184.802C501.087 183.945 499.268 182.191 498.213 180.003C497.158 182.429 495.247 184.354 492.412 185.303L490.698 182.561C494.653 181.321 496.446 178.184 496.473 175.125V174.756H491.647V172.066H504.673V174.756H499.9V175.151ZM521.653 177.735C521.653 181.374 522.972 185.013 526.373 186.858L524.527 189.311C522.365 188.203 520.928 186.252 520.098 183.905C519.254 186.463 517.817 188.625 515.642 189.891L513.717 187.359C517.171 185.355 518.463 181.453 518.489 177.735V177.182H514.613V174.492H518.489V171.249H521.627V174.492H525.424V177.182H521.653V177.735ZM534.916 170.432V194.426H531.726V170.432H534.916ZM530.012 170.827V193.318H526.848V182.271H524.026V179.528H526.848V170.827H530.012ZM557.724 170.432V184.934H554.375V180.214H551.264V177.472H554.375V170.432H557.724ZM557.724 185.962V194.162H541.587V185.962H557.724ZM544.962 188.599V191.473H554.428V188.599H544.962ZM551.686 172.515V175.204H537.553V172.515H542.984V170.221H546.307V172.515H551.686ZM544.646 175.995C548.021 175.995 550.394 177.788 550.394 180.293C550.394 182.903 548.021 184.644 544.646 184.644C541.297 184.644 538.871 182.903 538.871 180.293C538.871 177.788 541.297 175.995 544.646 175.995ZM544.646 178.526C543.09 178.526 542.088 179.159 542.114 180.293C542.088 181.506 543.09 182.165 544.646 182.165C546.175 182.165 547.177 181.506 547.177 180.293C547.177 179.159 546.175 178.526 544.646 178.526ZM574.282 172.172V173.675C574.282 175.336 574.282 177.735 573.729 180.715L570.433 180.398C570.854 178.091 570.96 176.351 570.986 174.914H561.942V172.172H574.282ZM568.323 177.709V182.297C570.709 182.205 573.162 182.02 575.416 181.69L575.601 184.116C570.617 185.039 564.975 185.118 560.809 185.145L560.519 182.455C561.863 182.455 563.379 182.455 564.975 182.402V177.709H568.323ZM580.162 170.432V177.735H583.062V180.557H580.162V188.388H576.708V170.432H580.162ZM580.9 191.314V194.004H564.052V186.779H567.427V191.314H580.9ZM403.212 212.75V214.306C403.186 215.861 403.186 217.997 402.632 220.607L399.336 220.37C399.718 218.353 399.811 216.784 399.837 215.439H390.819V212.75H403.212ZM397.2 218.103V222.242C399.6 222.163 402.039 222.005 404.293 221.741L404.478 224.088C399.494 224.958 394.01 225.09 389.686 225.09L389.396 222.4C390.767 222.387 392.27 222.387 393.852 222.348V218.103H397.2ZM409.039 211.432V217.338H411.966V220.133H409.039V226.065H405.585V211.432H409.039ZM400.865 226.355C406.007 226.355 409.197 228.069 409.197 230.812C409.197 233.712 406.007 235.373 400.865 235.373C395.724 235.373 392.507 233.712 392.507 230.812C392.507 228.069 395.724 226.355 400.865 226.355ZM400.865 228.939C397.701 228.939 395.935 229.599 395.935 230.812C395.935 232.183 397.701 232.763 400.865 232.763C404.003 232.763 405.743 232.183 405.743 230.812C405.743 229.599 404.003 228.939 400.865 228.939ZM435.38 220.528V223.271H431.979V235.373H428.604V211.432H431.979V220.528H435.38ZM417.16 213.726V226.725C420.232 226.685 423.528 226.395 426.995 225.696L427.338 228.491C423.33 229.309 419.428 229.52 415.895 229.52H413.812V213.726H417.16ZM455.788 212.17V219.315H442.367V221.319H456.342V224.009H438.966V216.784H452.334V214.886H438.887V212.17H455.788ZM458.319 225.802V228.491H448.985V235.479H445.61V228.491H436.355V225.802H458.319ZM486.532 211.432V218.313H489.775V221.108H486.532V228.913H483.157V211.432H486.532ZM487.402 232.314V235.004H470.976V227.067H474.324V232.314H487.402ZM474.245 212.987C477.91 212.987 480.784 215.519 480.784 219.078C480.784 222.585 477.91 225.169 474.245 225.169C470.554 225.169 467.653 222.585 467.653 219.078C467.653 215.519 470.554 212.987 474.245 212.987ZM474.245 215.914C472.426 215.888 470.949 217.074 470.976 219.078C470.949 221.029 472.426 222.242 474.245 222.242C476.091 222.242 477.488 221.029 477.515 219.078C477.488 217.074 476.091 215.888 474.245 215.914ZM511.054 211.458V228.966H507.705V220.37H503.776V217.654H507.705V211.458H511.054ZM511.634 232.314V235.004H495.128V227.437H498.503V232.314H511.634ZM499.9 216.151C499.9 218.92 501.588 221.899 505.411 223.139L503.75 225.802C501.087 224.945 499.268 223.191 498.213 221.003C497.158 223.429 495.247 225.354 492.412 226.303L490.698 223.561C494.653 222.321 496.446 219.184 496.473 216.125V215.756H491.647V213.066H504.673V215.756H499.9V216.151ZM521.653 218.735C521.653 222.374 522.972 226.013 526.373 227.858L524.527 230.311C522.365 229.203 520.928 227.252 520.098 224.905C519.254 227.463 517.817 229.625 515.642 230.891L513.717 228.359C517.171 226.355 518.463 222.453 518.489 218.735V218.182H514.613V215.492H518.489V212.249H521.627V215.492H525.424V218.182H521.653V218.735ZM534.916 211.432V235.426H531.726V211.432H534.916ZM530.012 211.827V234.318H526.848V223.271H524.026V220.528H526.848V211.827H530.012ZM557.724 211.432V225.934H554.375V221.214H551.264V218.472H554.375V211.432H557.724ZM557.724 226.962V235.162H541.587V226.962H557.724ZM544.962 229.599V232.473H554.428V229.599H544.962ZM551.686 213.515V216.204H537.553V213.515H542.984V211.221H546.307V213.515H551.686ZM544.646 216.995C548.021 216.995 550.394 218.788 550.394 221.293C550.394 223.903 548.021 225.644 544.646 225.644C541.297 225.644 538.871 223.903 538.871 221.293C538.871 218.788 541.297 216.995 544.646 216.995ZM544.646 219.526C543.09 219.526 542.088 220.159 542.114 221.293C542.088 222.506 543.09 223.165 544.646 223.165C546.175 223.165 547.177 222.506 547.177 221.293C547.177 220.159 546.175 219.526 544.646 219.526ZM574.282 213.172V214.675C574.282 216.336 574.282 218.735 573.729 221.715L570.433 221.398C570.854 219.091 570.96 217.351 570.986 215.914H561.942V213.172H574.282ZM568.323 218.709V223.297C570.709 223.205 573.162 223.02 575.416 222.69L575.601 225.116C570.617 226.039 564.975 226.118 560.809 226.145L560.519 223.455C561.863 223.455 563.379 223.455 564.975 223.402V218.709H568.323ZM580.162 211.432V218.735H583.062V221.557H580.162V229.388H576.708V211.432H580.162ZM580.9 232.314V235.004H564.052V227.779H567.427V232.314H580.9Z" fill="#1D1D1D"/>
<path d="M168.797 215.322C168.813 212.185 169.66 209.578 171.138 207.354H172.648C171.553 209.014 170.507 212.351 170.507 215.322C170.507 218.277 171.553 221.631 172.648 223.274H171.138C169.66 221.05 168.813 218.443 168.797 215.322ZM177.729 218.36H176.467L176.566 215.887L174.475 217.215L173.844 216.119L176.052 214.99L173.844 213.845L174.475 212.749L176.566 214.077L176.467 211.604H177.729L177.612 214.077L179.704 212.749L180.352 213.845L178.144 214.99L180.352 216.119L179.704 217.215L177.612 215.887L177.729 218.36ZM194.214 207.536V222.411H192.62V207.536H194.214ZM189.781 209.13C189.781 213.479 187.922 217.265 182.825 219.705L181.995 218.427C185.955 216.542 187.88 213.861 188.188 210.392H182.709V209.13H189.781ZM204.822 208.665V209.495C204.806 210.491 204.806 211.969 204.44 213.895L202.88 213.745C203.204 212.093 203.253 210.898 203.278 209.96H197.318V208.665H204.822ZM201.021 212.002V215.073C202.614 215.023 204.258 214.907 205.752 214.691L205.852 215.837C202.747 216.385 199.194 216.435 196.571 216.451L196.422 215.173C197.335 215.165 198.373 215.156 199.46 215.123V212.002H201.021ZM208.309 207.536V212.268H210.351V213.596H208.309V218.709H206.698V207.536H208.309ZM208.79 220.817V222.096H198.68V217.696H200.257V220.817H208.79ZM227.815 207.52V211.836H229.99V213.147H227.815V218.294H226.238V207.52H227.815ZM223.433 208.798V210.076H218.353V214.409C221.25 214.417 222.885 214.326 224.744 213.944L224.927 215.223C222.918 215.621 221.158 215.721 217.971 215.721H216.792V208.798H223.433ZM228.446 220.817V222.096H218.386V217.182H219.963V220.817H228.446ZM235.27 212.102C235.27 214.442 236.349 216.833 238.407 217.929L237.527 219.091C236.091 218.327 235.087 216.899 234.556 215.206C234.016 217.024 233.02 218.584 231.584 219.439L230.654 218.244C232.713 217.049 233.775 214.509 233.792 212.102V211.504H231.103V210.209H233.792V208.067H235.27V210.209H237.909V211.504H235.27V212.102ZM243.587 207.536V222.411H242.076V207.536H243.587ZM240.565 207.852V221.664H239.071V214.642H236.93V213.33H239.071V207.852H240.565ZM263.957 214.061V215.239H257.964V216.484H262.264V219.838H253.598V221.066H262.679V222.262H252.054V218.742H260.703V217.63H252.037V216.484H256.403V215.239H250.427V214.061H263.957ZM257.964 207.47V208.781H262.612V209.993H258.097C258.396 211.255 260.413 212.135 263.293 212.284L262.812 213.479C260.222 213.297 258.113 212.533 257.184 211.222C256.254 212.533 254.146 213.297 251.539 213.479L251.091 212.284C253.946 212.135 255.955 211.255 256.287 209.993H251.771V208.781H256.403V207.47H257.964ZM270.299 210.275C270.299 212.168 271.61 213.895 273.868 214.608L273.121 215.837C271.428 215.297 270.191 214.177 269.535 212.766C268.888 214.393 267.584 215.679 265.8 216.302L264.986 215.04C267.311 214.276 268.705 212.351 268.722 210.292V209.877H265.451V208.599H273.503V209.877H270.299V210.275ZM276.79 207.536V211.222H278.948V212.517H276.79V216.468H275.213V207.536H276.79ZM271.992 216.833C275.063 216.833 276.923 217.846 276.923 219.589C276.923 221.349 275.063 222.395 271.992 222.378C268.888 222.395 266.995 221.349 266.995 219.589C266.995 217.846 268.888 216.833 271.992 216.833ZM271.992 218.078C269.834 218.078 268.556 218.626 268.572 219.589C268.556 220.585 269.834 221.133 271.992 221.133C274.134 221.133 275.379 220.585 275.379 219.589C275.379 218.626 274.134 218.078 271.992 218.078ZM291.881 208.964V210.558C291.864 212.434 291.864 214.393 291.333 217.231L289.789 217.065C290.304 214.376 290.304 212.384 290.304 210.558V210.242H281.189V208.964H291.881ZM293.358 219.091V220.402H279.795V219.091H282.999V214.276H284.576V219.091H286.718V214.276H288.262V219.091H293.358ZM308.051 214.625V215.903H304.548V217.63H306.391V222.411H304.797V218.875H295.998V217.63H297.957V215.903H294.487V214.625H308.051ZM301.261 207.868C304.515 207.852 306.573 208.947 306.573 210.74C306.573 212.533 304.515 213.629 301.261 213.612C298.007 213.629 295.948 212.533 295.948 210.74C295.948 208.947 298.007 207.852 301.261 207.868ZM301.261 209.113C298.97 209.097 297.559 209.711 297.575 210.74C297.559 211.786 298.97 212.384 301.261 212.384C303.535 212.384 304.946 211.786 304.946 210.74C304.946 209.711 303.535 209.097 301.261 209.113ZM299.534 217.63H303.004V215.903H299.534V217.63ZM325.665 207.536V213.463H327.973V214.774H325.665V222.395H324.088V207.536H325.665ZM321.78 209.097C321.764 213.396 319.871 217.231 314.974 219.655L314.094 218.427C317.821 216.567 319.846 213.878 320.17 210.408H314.841V209.097H321.78ZM340.789 211.554V212.832H330.579V207.802H332.14V211.554H340.789ZM342.35 214.409V215.704H328.77V214.409H342.35ZM335.543 216.916C338.747 216.916 340.673 217.896 340.673 219.622C340.673 221.365 338.747 222.345 335.543 222.345C332.322 222.345 330.38 221.365 330.38 219.622C330.38 217.896 332.322 216.916 335.543 216.916ZM335.543 218.145C333.269 218.161 331.974 218.659 331.974 219.622C331.974 220.568 333.269 221.133 335.543 221.133C337.784 221.133 339.096 220.568 339.096 219.622C339.096 218.659 337.784 218.161 335.543 218.145ZM347.015 215.322C346.998 218.443 346.151 221.05 344.674 223.274H343.163C344.259 221.631 345.305 218.277 345.305 215.322C345.305 212.351 344.259 209.014 343.163 207.354H344.674C346.151 209.578 346.998 212.185 347.015 215.322Z" fill="#555555"/>
<mask id="mask0_133_254" style="mask-type:alpha" maskUnits="userSpaceOnUse" x="80" y="56" width="67" height="67">
<rect x="80" y="56" width="67" height="67" fill="#D9D9D9"/>
</mask>
<g mask="url(#mask0_133_254)">
<path d="M113.5 117.417C109.638 117.417 106.009 116.684 102.612 115.218C99.216 113.753 96.2614 111.764 93.7489 109.251C91.2364 106.739 89.2474 103.784 87.7818 100.387C86.3161 96.991 85.5833 93.3618 85.5833 89.5C85.5833 85.6382 86.3161 82.009 87.7818 78.6125C89.2474 75.216 91.2364 72.2614 93.7489 69.7489C96.2614 67.2364 99.216 65.2474 102.612 63.7818C106.009 62.3161 109.638 61.5833 113.5 61.5833C117.362 61.5833 120.991 62.3161 124.387 63.7818C127.784 65.2474 130.739 67.2364 133.251 69.7489C135.764 72.2614 137.753 75.216 139.218 78.6125C140.684 82.009 141.417 85.6382 141.417 89.5C141.417 90.7562 141.347 91.9892 141.207 93.1989C141.068 94.4087 140.835 95.5951 140.509 96.7583C139.858 96.0139 139.102 95.3857 138.241 94.8739C137.38 94.3621 136.438 94.0132 135.415 93.8271C135.554 93.1291 135.659 92.4196 135.729 91.6984C135.798 90.9772 135.833 90.2444 135.833 89.5C135.833 83.2653 133.67 77.9844 129.343 73.6573C125.016 69.3302 119.735 67.1666 113.5 67.1666C107.265 67.1666 101.984 69.3302 97.6573 73.6573C93.3302 77.9844 91.1666 83.2653 91.1666 89.5C91.1666 95.7347 93.3302 101.016 97.6573 105.343C101.984 109.67 107.265 111.833 113.5 111.833C115.873 111.833 118.141 111.484 120.305 110.786C122.468 110.089 124.457 109.111 126.272 107.855C126.83 108.646 127.516 109.344 128.331 109.949C129.145 110.554 130.017 111.019 130.948 111.345C128.575 113.252 125.911 114.741 122.957 115.811C120.002 116.882 116.85 117.417 113.5 117.417ZM133.74 106.25C132.762 106.25 131.937 105.913 131.262 105.238C130.587 104.563 130.25 103.737 130.25 102.76C130.25 101.783 130.587 100.957 131.262 100.283C131.937 99.6081 132.762 99.2708 133.74 99.2708C134.717 99.2708 135.543 99.6081 136.217 100.283C136.892 100.957 137.229 101.783 137.229 102.76C137.229 103.737 136.892 104.563 136.217 105.238C135.543 105.913 134.717 106.25 133.74 106.25ZM122.712 102.621L110.708 90.6166V75.5416H116.292V88.3833L126.621 98.7125L122.712 102.621Z" fill="#1D1D1D"/>
</g>
<mask id="mask1_133_254" style="mask-type:alpha" maskUnits="userSpaceOnUse" x="80" y="161" width="67" height="67">
<rect x="80" y="161" width="67" height="67" fill="#D9D9D9"/>
</mask>
<g mask="url(#mask1_133_254)">
<path d="M113.5 222.417C108.568 222.417 104.543 221.637 101.426 220.079C98.3087 218.52 96.75 216.508 96.75 214.042C96.75 212.925 97.0873 211.89 97.762 210.936C98.4366 209.982 99.3788 209.156 100.589 208.458L104.985 212.576C104.567 212.762 104.113 212.972 103.624 213.204C103.136 213.437 102.752 213.716 102.473 214.042C103.078 214.786 104.474 215.437 106.66 215.996C108.847 216.554 111.127 216.833 113.5 216.833C115.873 216.833 118.164 216.554 120.374 215.996C122.585 215.437 123.992 214.786 124.597 214.042C124.271 213.669 123.852 213.367 123.341 213.134C122.829 212.902 122.34 212.692 121.875 212.506L126.202 208.319C127.505 209.063 128.505 209.912 129.203 210.866C129.901 211.82 130.25 212.878 130.25 214.042C130.25 216.508 128.691 218.52 125.574 220.079C122.457 221.637 118.432 222.417 113.5 222.417ZM113.5 214.042C106.94 209.203 102.043 204.503 98.8088 199.944C95.5752 195.384 93.9583 190.917 93.9583 186.544C93.9583 183.24 94.5515 180.344 95.738 177.855C96.9245 175.365 98.4482 173.283 100.309 171.608C102.17 169.933 104.264 168.677 106.591 167.84C108.917 167.002 111.22 166.583 113.5 166.583C115.78 166.583 118.083 167.002 120.409 167.84C122.736 168.677 124.829 169.933 126.691 171.608C128.552 173.283 130.076 175.365 131.262 177.855C132.448 180.344 133.042 183.24 133.042 186.544C133.042 190.917 131.425 195.384 128.191 199.944C124.957 204.503 120.06 209.203 113.5 214.042ZM113.5 191.708C115.035 191.708 116.35 191.162 117.443 190.068C118.537 188.975 119.083 187.66 119.083 186.125C119.083 184.59 118.537 183.275 117.443 182.182C116.35 181.088 115.035 180.542 113.5 180.542C111.965 180.542 110.65 181.088 109.557 182.182C108.463 183.275 107.917 184.59 107.917 186.125C107.917 187.66 108.463 188.975 109.557 190.068C110.65 191.162 111.965 191.708 113.5 191.708Z" fill="#1D1D1D"/>
</g>
<g clip-path="url(#clip0_133_254)">
<path fill-rule="evenodd" clip-rule="evenodd" d="M982.884 42.461C982.529 44.6769 982.814 46.9097 982.392 49.2196C981.884 52.0041 980.177 54.6502 979.566 57.4528C979.353 58.4305 979.326 59.7136 979.198 60.8935C979.073 62.0376 978.714 63.3824 978.829 64.3343C979.02 65.9206 980.243 67.7841 980.918 69.4955C981.48 70.9219 982.733 73.4141 982.884 74.7796C983.017 75.9728 982.65 77.6367 982.515 79.0806C982.381 80.5251 982.151 82.0055 982.024 83.3815C981.745 86.4151 981.827 89.6148 981.287 92.2292C980.898 94.1067 979.918 95.768 979.566 97.5133C979.142 99.6161 979.254 102.044 978.829 104.272C977.155 104.277 975.54 104.341 974.036 104.518C970.401 99.8218 966.246 94.8097 962.117 90.263C960.912 88.9366 959.36 86.3124 957.816 85.7163C956.092 85.0512 953.485 85.7266 952.408 83.9961C951.313 82.798 950.166 81.651 948.968 80.5553C948.931 80.3047 948.635 80.3145 948.599 80.0639C947.626 78.9887 946.602 77.9645 945.527 76.9917C944.917 74.6027 946.125 73.0146 946.387 71.0934C946.671 70.6811 946.43 69.7437 946.51 69.1274C946.51 68.1033 946.51 67.0794 946.51 66.0552C946.039 62.7371 947.23 59.8183 947.125 56.9616C947.012 53.9187 945.838 51.1141 945.65 47.9911C948.538 47.6655 947.508 42.7863 947.862 39.2662C948.068 37.2187 949.201 35.8491 949.459 34.4738C951.916 33.3666 955.012 32.8993 958.798 33.1222C959.334 33.0428 960.188 33.2824 960.519 32.9993C961.367 33.1497 962.473 32.802 963.099 32.9993C965.355 33.7087 963.972 38.1242 965.557 39.1434C966.639 39.839 969.008 39.4424 970.596 39.512C972.424 39.5926 974.109 39.6677 975.757 39.7577C977.963 40.8287 979.14 42.9281 982.884 42.461Z" fill="#EDF1F5"/>
<path fill-rule="evenodd" clip-rule="evenodd" d="M977.723 140.155C981.977 136.995 988.989 136.592 994.681 134.871C995.843 147.35 997.206 159.627 998.491 171.982C996.88 175.656 995.459 179.518 993.821 183.165C988.207 180.832 982.24 178.853 976.248 176.897C975.758 174.972 975.212 173.101 974.528 171.368C974.282 171 973.52 171.147 972.931 171.122C972.76 170.842 972.076 171.076 971.702 170.999C970.49 171.074 969.258 170.926 968.015 170.876C966.76 170.826 965.233 170.464 964.329 170.753C963.107 171.145 963.227 172.847 962.117 173.457C961.748 173.457 961.379 173.457 961.011 173.457C960.84 173.177 960.155 173.411 959.782 173.334C958.087 173.186 957.552 171.877 956.464 171.122C956.464 170.631 956.464 170.139 956.464 169.648C956.746 169.357 956.508 168.545 956.587 168.05C956.587 167.231 956.587 166.412 956.587 165.593C956.15 163.426 958.231 162.617 958.922 161.169C959.705 159.526 959.53 158.002 960.273 156.254C963.501 153.869 966.61 151.366 970.842 149.986C972.312 147.688 973.255 144.863 975.02 142.859C975.972 142.008 976.873 141.107 977.723 140.155Z" fill="#EDF1F5"/>
<path fill-rule="evenodd" clip-rule="evenodd" d="M881.012 226.666C884.177 227.112 887.417 227.244 890.966 227.034C892.359 226.953 894.078 227.198 895.267 226.912C895.725 226.919 896.044 226.788 896.373 226.666C897.971 228.361 899.561 230.172 901.166 232.073C902.663 233.846 904.333 236.049 906.45 237.111C908.339 238.06 910.751 237.854 913.331 238.463C913.726 240.076 913.98 241.829 914.56 243.256C916.215 243.649 918.475 243.437 920.213 243.747C921.241 245.668 922.108 247.75 923.039 249.768C922.003 252.547 921.148 256.003 920.704 259.845C920.206 264.156 920.228 267.675 921.196 270.905C919.299 271.794 917.795 273.075 914.56 272.625C913.823 272.625 913.085 272.625 912.348 272.625C911.297 271.881 910.353 271.051 909.276 270.168C908.384 269.436 906.879 268.615 906.327 267.587C905.459 265.97 905.338 263.618 904.852 261.689C904.356 259.718 903.775 257.845 903.255 255.913C900.182 254.808 897.467 253.345 894.161 252.472C892.236 252.472 890.311 252.472 888.386 252.472C887.197 252.553 885.683 252.309 884.699 252.595C883.061 252.595 881.422 252.595 879.784 252.595C878.432 252.676 876.754 252.432 875.606 252.718C874.445 253.728 874.363 255.817 873.517 257.142C871.494 258.652 868.715 257.844 866.267 258.616C863.951 259.346 862.171 262.005 859.754 261.934C860.052 260.103 860.27 258.19 860.614 256.404C861.793 255.63 862.486 254.225 863.932 253.578C866.099 252.608 868.893 252.636 871.428 251.858C872.045 249.656 873.421 247.829 873.885 245.59C874.32 243.493 873.83 241.4 874.254 239.077C874.41 238.222 875.072 237.299 875.483 236.374C877.103 232.724 879.055 229.337 881.012 226.666Z" fill="#EDF1F5"/>
<path fill-rule="evenodd" clip-rule="evenodd" d="M887.403 83.2589C889.267 83.4928 889.685 82.6434 890.598 81.6615C892.373 79.7511 893.92 77.4429 895.022 75.3946C898.632 78.3756 902.585 81.8512 906.327 85.1025C907.284 85.9338 909.706 87.4061 910.013 88.4204C910.225 89.1192 909.848 90.0893 910.013 90.6323C910.013 91.8201 910.013 93.0081 910.013 94.1959C910.093 94.7716 909.853 95.6675 910.136 96.039C910.616 99.5911 908.635 100.682 907.801 102.921C907.956 102.971 908.053 103.079 908.047 103.289C906.783 105.647 905.555 107.582 903.869 109.434C903.123 110.253 902.004 111.004 901.657 111.891C900.972 113.642 901.196 115.604 900.551 117.79C900.268 118.121 900.507 118.975 900.428 119.51C900.428 120.411 900.428 121.312 900.428 122.213C900.428 123.033 900.428 123.852 900.428 124.671C900.145 125.002 900.384 125.856 900.305 126.391C900.305 127.292 900.305 128.194 900.305 129.095C900.305 130.119 900.305 131.143 900.305 132.167C897.871 131.522 896.758 132.253 895.267 133.15C894.538 133.589 893.636 134.036 893.178 134.502C891.505 136.202 890.881 139.162 890.229 141.383C887.876 142.349 885.557 143.347 882.979 144.087C882.246 146.139 881.395 148.074 880.152 149.617C879.888 149.844 879.252 149.7 878.801 149.739C878.021 149.82 876.918 149.577 876.343 149.862C875.196 149.862 874.049 149.862 872.902 149.862C871.591 149.944 869.954 149.699 868.847 149.985C868.064 149.899 867.792 150.323 867.495 150.722C866.993 151.122 866.543 151.572 866.144 152.074C865.683 152.432 865.273 152.842 864.915 153.303C864.915 153.344 864.915 153.385 864.915 153.426C864.413 153.825 863.963 154.275 863.563 154.777C863.103 156.324 862.986 158.215 862.703 159.938C860.901 158.824 859.33 157.359 857.542 156.006C855.81 154.696 853.64 153.621 852.258 152.074C851.479 151.203 851.23 149.998 850.292 149.248C847.866 149.256 847.409 147.297 846.36 145.93C849.001 147.18 852.617 147.455 856.559 147.404C857.968 145.748 860.092 143.88 861.474 141.875C862.827 139.913 863.79 137.746 863.441 134.256C863.441 133.478 863.441 132.699 863.441 131.921C863.441 130.16 863.441 128.398 863.441 126.637C863.359 125.366 863.604 123.77 863.318 122.705C863.318 120.165 863.318 117.626 863.318 115.086C863.888 114.193 865.312 113.753 865.653 112.751C865.931 111.93 865.806 110.54 865.898 109.433C866.532 101.824 867.131 93.3394 867.864 86.208C870.694 86.3141 873.824 86.3429 876.344 86.4537C877.251 86.4938 878.309 86.794 879.17 86.4537C880.95 85.7495 880.735 82.1326 883.84 83.1358C884.01 83.4162 884.695 83.1818 885.068 83.2587C885.846 83.2589 886.624 83.2589 887.403 83.2589Z" fill="#EDF1F5"/>
<path fill-rule="evenodd" clip-rule="evenodd" d="M944.79 48.2368C945.014 51.2955 946.358 54.1895 946.387 57.2074C946.408 59.3701 945.405 61.4447 945.65 63.8431C945.366 64.2554 945.607 65.1926 945.527 65.8091C945.527 66.833 945.527 67.8571 945.527 68.8812C945.972 72.4146 943.978 73.828 944.667 77.2375C944.988 77.6535 945.362 78.0167 945.65 78.4663C946.664 79.5826 947.729 80.6475 948.845 81.6613C949.941 82.8594 951.087 84.0064 952.286 85.1021C953.311 86.3294 955.928 85.966 957.693 86.4537C964.97 94.4139 972.146 102.476 977.723 112.137C975.461 116.06 973.334 120.118 971.21 124.179C970.004 124.816 968.999 125.655 967.769 126.269C967.031 126.349 965.969 126.107 965.434 126.391C964.697 126.391 963.96 126.391 963.222 126.391C962.362 126.391 961.502 126.391 960.642 126.391C960.107 126.471 959.253 126.231 958.921 126.514C958.184 126.514 957.447 126.514 956.71 126.514C955.85 126.514 954.989 126.514 954.129 126.514C953.515 126.514 952.9 126.514 952.286 126.514C951.504 126.026 950.55 125.711 949.951 125.04C948.901 121.215 948.092 117.15 947.002 113.366C943.869 110.743 940.482 108.366 937.294 105.87C936.232 105.039 935.234 103.902 934.098 103.289C932.415 102.38 930.394 102.27 928.569 101.323C927.587 100.134 926.725 98.8252 925.743 97.6364C926.053 96.9231 926.65 96.4958 926.848 95.6702C927.133 95.1764 926.891 94.1564 926.971 93.4583C926.892 92.8418 927.132 91.9044 926.848 91.4921C926.848 90.2223 926.848 88.9524 926.848 87.6826C926.848 86.4537 926.848 85.2249 926.848 83.9961C926.769 83.4202 927.009 82.5245 926.726 82.1528C926.726 80.8829 926.726 79.6131 926.726 78.3435C926.726 77.1146 926.726 75.8858 926.726 74.657C926.726 74.0835 926.726 73.51 926.726 72.9365C928.282 70.1275 930.227 67.2305 931.887 64.4574C932.455 63.5072 933.295 62.3988 933.607 61.5083C934.708 58.36 934.541 55.0215 935.696 51.5547C938.705 50.4259 941.732 49.3155 944.79 48.2368Z" fill="#EDF1F5"/>
<path fill-rule="evenodd" clip-rule="evenodd" d="M1033.27 184.148C1034.68 182.488 1036.55 181.663 1038.67 180.338C1040.87 178.966 1042.16 177.167 1045.19 177.143C1047.81 177.061 1050.76 177.307 1053.17 177.02C1057.73 175.95 1060.4 172.986 1063.99 170.876C1066.14 169.61 1068.9 168.69 1070.99 167.435C1070.99 167.845 1070.99 168.254 1070.99 168.664C1071.07 169.281 1070.83 170.218 1071.12 170.63C1071.05 173.356 1073.83 173.246 1075.29 174.44C1075.67 174.723 1076.56 174.483 1077.14 174.563C1077.4 176.303 1077.5 178.212 1078.24 179.478C1077.77 182.039 1075.56 184.33 1075.91 187.343C1076.02 188.27 1077.15 189.371 1077.38 190.661C1077.67 192.236 1077.21 194.057 1077.51 195.453C1077.69 196.333 1078.59 197.034 1078.73 197.788C1078.07 198.969 1077.5 200.241 1076.77 201.352C1073.31 202.288 1070.11 203.458 1066.08 204.793C1064.43 205.34 1062.66 205.927 1060.79 206.513C1059.26 206.995 1056.2 207.52 1055.51 208.356C1054.97 209.015 1055.09 210.826 1055.02 212.288C1054.95 213.645 1054.99 215.174 1054.9 216.221C1054.77 217.567 1053.85 218.678 1053.17 219.785C1051.39 222.705 1049.93 224.958 1048.14 227.895C1046.84 227.465 1045.9 227.761 1044.82 227.281C1043.68 226.775 1043.18 225.426 1042.11 225.069C1040.64 224.575 1038.93 224.977 1036.95 224.577C1035.82 222.583 1035.59 220.197 1034.37 218.433C1033.37 216.989 1031.47 216.484 1030.56 214.992C1031.83 211.412 1034.62 206.336 1032.28 202.458C1031.35 202.291 1030.35 202.184 1029.21 202.212C1028.4 201.507 1027.86 200.529 1027.12 199.754C1028.12 194.562 1028.26 188.518 1031.67 185.745C1032.25 185.264 1032.79 184.732 1033.27 184.148Z" fill="#EDF1F5"/>
<path fill-rule="evenodd" clip-rule="evenodd" d="M779.141 132.413C782.626 134.355 786.237 136.706 789.34 139.049C790.385 139.837 791.664 140.542 792.535 141.384C793.575 142.389 794.424 143.885 795.361 145.07C796.324 146.288 797.185 147.676 798.188 148.757C799.8 150.494 801.9 151.748 803.472 153.427C805.45 155.538 806.642 158.415 808.756 160.554C810.322 162.139 813.007 163.042 815.146 164.24C815.989 164.712 816.849 165.349 817.726 165.838C818.677 166.367 819.822 166.72 820.553 167.312C821.412 168.008 822.122 169.335 823.01 170.384C823.905 171.44 825.025 172.365 825.591 173.333C826.451 174.806 826.812 176.532 827.68 177.88C829.055 180.015 831.473 181.632 833.333 183.287C835.317 185.053 837.436 186.63 839.354 188.448C839.908 189.696 839.978 191.429 840.091 193.118C840.091 193.2 840.091 193.282 840.091 193.363C838.617 193.363 837.142 193.363 835.668 193.363C834.213 192.934 832.977 192.286 831.121 192.258C830.177 193.402 829.531 194.846 828.663 196.067C828.621 198.646 828.295 200.943 828.295 203.563C826.94 205.567 825.756 207.743 824.608 209.953C822.479 210.373 820.589 212.173 818.464 212.288C817.64 212.333 816.09 211.862 815.146 211.674C812.517 211.15 810.175 210.453 809.002 208.724C808.515 208.008 808.197 206.764 807.773 205.775C806.856 203.636 806.025 201.737 805.192 199.754C804.737 198.669 804.481 197.415 803.964 196.682C803.474 195.988 802.029 194.827 801.383 194.715C799.893 194.458 797.856 195.422 796.468 195.207C795.656 196.485 794.977 197.895 794.256 199.262C792.15 199.116 790.195 199.043 788.111 198.894C786.454 198.775 783.416 198.185 781.844 198.525C780.61 198.792 779.258 201.032 778.404 201.966C777.233 203.244 776.169 204.351 774.963 205.406C774.305 204.117 773.675 202.929 773.119 201.474C772.664 200.281 772.252 198.237 771.399 197.419C770.779 196.823 769.121 196.468 768.081 196.067C764.512 194.69 761.017 193.335 757.759 192.012C757.637 188.653 756.374 186.434 755.302 184.024C756.298 182.722 758.214 182.939 759.111 181.567C759.52 180.94 759.513 179.634 759.725 178.617C760.344 175.663 761.207 172.425 761.937 169.892C763.288 169.265 764.648 168.716 766.238 168.049C767.4 167.562 769.628 167.05 770.293 165.96C771.058 164.708 770.924 162.593 771.153 160.799C771.385 158.992 771.607 157.19 771.768 155.392C772.711 154.515 773.683 153.55 774.963 152.443C776.555 151.065 778.827 150.125 778.158 146.791C778.442 146.378 778.201 145.441 778.281 144.824C778.742 141.567 776.088 138.666 776.806 135.608C777.109 134.317 778.628 133.769 779.141 132.413Z" fill="#EDF1F5"/>
<path fill-rule="evenodd" clip-rule="evenodd" d="M846.605 263.163C849.075 262.93 850.072 261.223 852.012 260.459C854.152 261.432 856.382 265.052 859.139 263.286C859.615 264.448 860.346 265.356 860.859 266.481C861.933 266.963 863.051 267.403 864.054 267.955C864.027 268.87 863.857 269.642 863.932 270.659C863.728 270.831 863.728 271.838 863.932 272.011C864.242 276.886 864.967 282.413 865.529 287.126C865.736 288.86 865.698 290.854 866.143 292.164C866.625 293.578 868.32 294.724 868.724 296.096C869.897 296.398 870.894 296.876 872.042 297.202C872.338 298.749 872.864 300.066 873.271 301.503C873.122 302.132 872.495 302.284 872.165 302.732C868.141 303.583 867.121 307.437 866.02 311.211C864.033 311.374 862.403 313.362 860.368 313.669C857.912 314.039 855.517 313.04 852.626 313.3C850.918 306.698 848.663 298.771 846.727 291.672C846.235 289.867 845.787 285.577 844.515 284.668C843.768 284.134 842.201 284.223 841.198 284.176C840.486 275.794 837 270.187 834.685 263.409C835.299 263.409 835.913 263.409 836.528 263.409C837.267 263.613 838.861 263.613 839.6 263.409C840.296 263.409 840.993 263.409 841.689 263.409C842.143 263.33 842.913 263.567 843.164 263.286C843.819 263.286 844.474 263.286 845.13 263.286C845.584 263.207 846.354 263.445 846.605 263.163Z" fill="#EDF1F5"/>
<path fill-rule="evenodd" clip-rule="evenodd" d="M851.397 257.633C851.475 258.047 851.239 258.774 851.52 258.985C851.52 259.23 851.52 259.476 851.52 259.722C849.797 260.538 848.787 262.068 846.482 262.303C846.028 262.381 845.258 262.144 845.007 262.425C844.352 262.425 843.697 262.425 843.041 262.425C842.587 262.504 841.817 262.266 841.567 262.548C840.87 262.548 840.174 262.548 839.478 262.548C838.536 262.548 837.593 262.548 836.651 262.548C835.897 262.483 834.872 262.689 834.317 262.425C833.819 260.366 834.685 258.04 833.825 256.404C833.485 255.758 831.94 255.034 831.368 254.684C830.468 254.133 829.342 253.235 828.541 253.209C827.849 253.186 826.692 253.879 826.084 254.192C825.387 254.55 824.327 254.985 823.749 255.421C823.155 255.869 821.791 257.636 821.537 258.37C820.982 259.974 821.651 262.456 820.308 263.04C819.643 263.603 819.028 264.217 818.465 264.883C817.595 265.651 816.775 266.47 816.007 267.341C815.739 267.769 815.455 268.181 815.024 268.447C814.358 269.01 813.744 269.624 813.181 270.29C812.31 271.058 811.491 271.877 810.723 272.748C810.084 273.428 809.734 274.357 808.88 274.591C807.383 275.002 804.902 274.807 803.473 274.591C802.049 274.377 800.928 273.404 799.663 273.362C797.115 273.279 794.815 274.701 792.536 274.837C791.267 274.912 790.151 274.569 788.727 274.468C790.183 271.49 791.651 268.063 793.151 264.883C793.671 263.78 794.623 262.576 794.625 261.565C794.628 260.223 793.314 258.385 792.536 256.65C792.03 255.52 790.426 252.72 790.447 251.734C790.458 251.221 791.145 250.12 791.553 249.277C793.722 244.796 796.122 240.523 796.837 235.268C796.766 234.478 796.001 234.383 795.731 233.793C797.591 233.981 799.3 234.32 801.015 234.653C801.573 235.979 801.855 237.582 802.735 238.586C802.868 238.789 803.832 238.789 803.964 238.586C804.824 238.586 805.684 238.586 806.545 238.586C807.529 238.505 808.837 238.748 809.617 238.463C811.001 237.925 812.249 236.389 813.672 235.145C814.222 234.664 814.949 234.186 815.638 233.547C816.709 232.555 817.183 231.483 818.956 231.827C819.166 232.108 819.894 231.872 820.308 231.95C821.332 231.95 822.356 231.95 823.38 231.95C823.907 233.798 824.624 235.457 825.1 237.357C826.323 237.676 827.408 238.794 828.909 238.954C830.809 239.157 832.902 238.463 835.177 238.709C835.55 238.631 836.235 238.866 836.405 238.586C837.337 238.041 838.015 236.305 838.617 235.022C839.225 233.728 839.555 232.357 840.338 231.458C841.492 231.97 842.459 232.735 843.656 233.424C844.578 233.955 846.386 234.474 846.974 235.39C847.318 235.927 847.482 237.113 847.711 237.971C848.439 240.706 848.979 243.593 849.308 246.696C850.16 247.852 851.552 248.467 851.151 250.874C851.229 251.288 850.993 252.016 851.274 252.226C851.274 252.922 851.274 253.618 851.274 254.315C851.352 254.729 851.116 255.456 851.397 255.667C851.397 256.322 851.397 256.977 851.397 257.633Z" fill="#EDF1F5"/>
<path fill-rule="evenodd" clip-rule="evenodd" d="M916.526 299.537C915.429 300.637 914.194 301.83 912.84 303.1C911.635 304.231 910.436 305.712 909.03 306.664C907.659 307.592 905.912 308.337 904.115 309.368C902.495 310.297 900.756 311.891 899.2 312.194C898.068 312.414 896.713 312.275 895.513 312.317C894.295 312.359 893.001 312.388 891.704 312.44C889.649 312.522 885.977 313.007 884.085 312.685C882.598 312.433 881.526 310.905 880.03 310.351C878.995 308.797 879.162 305.385 877.941 304.206C876.823 303.128 874.831 303.7 873.148 302.977C875.169 301.604 872.926 298.749 872.657 296.71C871.69 296.161 870.548 295.788 869.339 295.482C868.89 294.213 867.283 293.05 866.881 291.672C866.494 290.347 866.48 288.388 866.267 286.634C866.067 284.985 865.855 283.261 865.653 281.595C865.023 276.414 864.694 271.794 864.669 267.341C863.671 266.783 862.559 266.338 861.474 265.866C860.963 264.862 860.294 264.015 859.877 262.917C862.61 262.579 864.523 259.964 866.636 259.353C869.364 258.564 872.201 259.4 874.255 257.633C874.805 256.299 875.267 254.877 875.852 253.577C877.327 253.577 878.801 253.577 880.276 253.577C881.423 253.496 882.897 253.74 883.84 253.455C885.478 253.455 887.117 253.455 888.755 253.455C890.762 253.455 892.769 253.455 894.777 253.455C897.445 254.473 900.148 255.456 902.641 256.649C903.644 260.481 904.655 264.303 905.59 268.201C907.771 269.953 909.869 271.787 912.103 273.485C912.76 273.77 913.945 273.527 914.807 273.608C915.261 273.529 916.031 273.767 916.281 273.485C918.713 273.827 919.745 272.115 921.197 271.887C920.807 275.237 921.641 276.965 922.672 279.015C924.52 282.691 926.453 286.955 928.57 289.706C927.652 289.934 926.561 289.991 925.744 290.32C922.619 293.341 919.547 296.413 916.526 299.537Z" fill="#EDF1F5"/>
<path fill-rule="evenodd" clip-rule="evenodd" d="M983.99 216.098C984.559 212.53 985.758 209.592 985.833 205.53C988.001 202.615 990.319 200.171 991.732 196.436C993.165 192.648 993.267 188.171 994.435 183.902C994.972 181.942 996.109 180.049 996.893 178.126C997.724 176.091 998.307 174.01 999.351 172.351C1002.56 171.767 1005.86 172.527 1008.69 171.736C1011.24 171.023 1013.43 168.397 1017.17 169.155C1018.07 168.956 1017.51 170.211 1017.66 170.753C1017.21 172.867 1014.65 174.492 1014.47 176.652C1014.36 177.953 1015.48 179.561 1015.82 180.952C1016.32 183.053 1015.76 185.508 1017.17 186.851C1017.7 186.851 1018.23 186.851 1018.77 186.851C1019.18 187.135 1020.12 186.894 1020.73 186.974C1021.43 186.974 1022.13 186.974 1022.82 186.974C1022.17 188.581 1021.76 190.071 1021.47 191.889C1021.2 193.594 1021.15 195.675 1020.61 197.419C1020.11 199.053 1018.77 201.161 1017.78 203.072C1016.81 204.963 1015.35 206.547 1014.22 207.987C1013.06 209.469 1011.73 210.969 1010.41 212.657C1009.28 214.106 1007.87 216.697 1006.6 217.327C1004.9 218.172 1002.65 218.202 1000.46 218.31C999.883 218.31 999.31 218.31 998.736 218.31C997.917 218.31 997.098 218.31 996.279 218.31C995.905 218.387 995.22 218.152 995.05 218.433C990.509 218.509 986.864 217.688 983.99 216.098Z" fill="#EDF1F5"/>
<path fill-rule="evenodd" clip-rule="evenodd" d="M944.913 219.539C945.734 218.676 946.673 218.023 947.616 217.204C948.496 216.44 949.298 215.255 950.32 214.869C951.092 214.577 952.401 214.549 953.392 214.377C955.879 213.946 957.721 213.844 960.519 214.009C964.449 214.239 966.923 214.788 969.613 215.975C976.111 218.842 981.311 224.028 988.906 224.823C989.173 225.456 988.961 226.57 989.029 227.403C989.029 228.223 989.029 229.042 989.029 229.861C989.107 230.356 988.869 231.168 989.152 231.459C989.152 232.155 989.152 232.851 989.152 233.548C989.152 234.367 989.152 235.186 989.152 236.005C989.23 236.46 988.992 237.229 989.275 237.48C988.999 239.866 989.892 240.69 990.626 242.15C991.115 243.123 991.419 244.258 991.855 244.853C992.375 245.564 993.646 246.337 994.558 247.065C995.52 247.832 996.383 248.702 997.385 249.277C998.372 249.843 999.646 250.281 1000.83 250.874C1001.96 251.447 1003.09 252.288 1004.14 252.595C1007.14 253.469 1010.96 253.442 1013.85 254.315C1014.48 255.119 1015.31 255.725 1015.94 256.527C1016.28 257.578 1016.49 258.761 1016.92 259.722C1019.28 261.461 1022.01 262.832 1024.3 264.638C1024.51 266.196 1024.8 267.646 1025.03 269.061C1025.28 270.536 1025.29 272.185 1025.77 273.485C1026.04 274.21 1026.85 275.165 1027.37 275.943C1029.7 279.431 1032.06 282.774 1033.51 286.88C1032.15 287.363 1030.01 286.728 1028.6 287.372C1027.38 287.925 1027.12 290.06 1026.14 291.304C1025.64 291.944 1024.3 293.005 1023.44 293.27C1022.03 293.701 1020.35 293.326 1019.01 293.639C1017.96 293.883 1017.27 294.803 1016.31 294.99C1015.24 295.199 1014.09 294.755 1012.62 294.868C1011.41 293.811 1010.9 292.332 1009.55 291.181C1008.49 290.278 1006.98 289.868 1005.99 288.969C1005.35 288.388 1003.74 286.135 1003.41 285.16C1003.41 284.504 1003.41 283.849 1003.41 283.193C1003.33 282.82 1003.56 282.135 1003.28 281.964C1003.38 280.886 1003.1 280.179 1003.16 279.138C1002.08 278.437 1001.29 277.295 999.966 276.803C996.293 275.445 991.679 276.931 988.66 278.278C987.545 280.071 986.565 282 985.219 283.562C981.208 283.647 978.27 284.806 975.265 285.897C972.131 281.577 971.546 274.706 970.104 268.693C968.885 267.372 967.616 266.102 966.295 264.883C964.63 264.09 962.614 263.65 961.379 262.426C960.816 261.76 960.202 261.146 959.536 260.582C959.493 260.421 959.32 260.389 959.29 260.214C958.768 259.589 958.195 259.015 957.57 258.493C955.794 256.631 955.897 252.79 955.604 249.031C955.454 247.118 955.614 244.89 955.112 243.378C954.572 241.751 951.937 240.671 951.303 238.955C950.808 237.616 950.824 235.735 950.565 234.162C950.289 232.478 950.138 230.492 949.705 229.124C949.177 227.455 947.996 225.944 947.248 224.454C946.399 222.766 945.677 221.15 944.913 219.539Z" fill="#EDF1F5"/>
<path fill-rule="evenodd" clip-rule="evenodd" d="M922.916 169.647C919.564 171.783 915.665 173.374 911.242 174.44C909.665 173.026 907.985 171.716 906.573 170.139C906.173 169.637 905.723 169.186 905.221 168.787C904.116 167.64 902.982 165.644 903.009 163.872C903.023 162.927 903.621 161.549 903.992 160.308C904.731 157.839 905.502 155.665 906.204 153.304C906.57 152.075 907.14 150.703 907.187 149.617C907.257 148.003 906.685 146.281 906.327 144.825C905.972 143.381 905.525 141.999 905.098 140.401C903.763 139.729 902.187 139.298 901.043 138.435C901.043 138.271 901.043 138.107 901.043 137.943C901.326 137.612 901.086 136.758 901.166 136.223C901.166 135.322 901.166 134.421 901.166 133.52C901.166 132.701 901.166 131.881 901.166 131.062C901.449 130.731 901.209 129.877 901.288 129.342C901.288 128.441 901.288 127.54 901.288 126.638C901.288 125.819 901.288 125 901.288 124.181C901.572 123.849 901.332 122.995 901.411 122.46C901.411 121.559 901.411 120.658 901.411 119.757C901.634 116.647 901.588 114.186 902.517 112.138C903.308 110.397 905.428 109.254 906.573 107.591C907.394 106.398 907.678 105.222 908.539 104.028C911.53 103.742 914.022 102.957 917.018 102.676C918.063 103.843 919.471 104.647 920.827 105.502C922.533 109.621 922.92 113.936 924.145 118.282C925.385 122.682 928.258 126.524 928.323 131.922C927.619 133.348 927.025 134.884 926.357 136.346C925.063 136.814 923.773 137.285 922.548 137.821C922.352 139.474 921.846 141.453 922.056 143.105C924.476 145.279 928.801 144.787 932.502 145.808C934.387 146.329 935.79 147.375 937.417 147.774C940.159 153.224 942.185 159.391 946.019 163.75C949.256 163.994 952.585 164.147 955.727 164.487C955.727 164.773 955.727 165.06 955.727 165.347C955.442 165.922 955.685 167.025 955.604 167.805C955.604 168.869 955.604 169.934 955.604 171C954.539 171 953.474 171 952.409 171C951.955 171.078 951.185 170.84 950.934 171.122C950.156 171.122 949.378 171.122 948.599 171.122C948.145 171.201 947.376 170.963 947.125 171.245C946.387 171.245 945.65 171.245 944.913 171.245C944.418 171.324 943.606 171.086 943.315 171.368C940.188 171.599 937.63 172.4 934.591 172.72C932.542 172.72 930.494 172.72 928.446 172.72C927.228 171.767 926.41 170.415 925.005 169.648C924.592 169.443 923.33 169.443 922.916 169.647Z" fill="#EDF1F5"/>
<path fill-rule="evenodd" clip-rule="evenodd" d="M955.358 179.601C954.413 181.441 953.604 183.418 952.04 184.639C951.333 185.243 950.678 185.899 950.074 186.605C949.975 186.629 949.951 186.729 949.828 186.728C949.263 187.269 948.591 187.703 948.23 188.449C947.237 191.264 945.862 193.699 944.667 196.314C942.722 195.555 941.456 194.117 939.383 193.487C939.132 193.205 938.363 193.443 937.908 193.364C937.171 193.364 936.434 193.364 935.696 193.364C935.445 193.082 934.676 193.32 934.222 193.241C929.84 193.896 929.325 190.683 926.971 189.309C926.396 189.024 925.293 189.266 924.514 189.186C923.938 189.265 923.042 189.025 922.67 189.309C921.851 189.309 921.032 189.309 920.213 189.309C919.555 189.389 918.576 189.148 918.124 189.432C914.8 189.713 911.414 189.932 908.17 190.292C907.428 187.02 906.379 184.055 905.221 181.198C907.477 179.4 910.012 177.88 911.365 175.177C914.52 174.371 917.419 173.626 920.09 172.228C921.719 171.375 922.331 170.201 924.882 170.508C925.855 171.583 926.879 172.607 927.955 173.58C933.897 174.358 938.348 172.588 943.561 172.228C944.015 172.15 944.785 172.387 945.036 172.105C945.773 172.105 946.51 172.105 947.248 172.105C947.742 172.026 948.554 172.265 948.845 171.982C949.582 171.982 950.32 171.982 951.057 171.982C951.552 171.904 952.363 172.142 952.654 171.86C953.392 171.86 954.129 171.86 954.866 171.86C955.071 171.86 955.276 171.86 955.481 171.86C955.481 172.556 955.481 173.252 955.481 173.949C955.481 174.686 955.481 175.423 955.481 176.161C955.199 176.411 955.436 177.181 955.358 177.635C955.358 178.29 955.358 178.945 955.358 179.601Z" fill="#EDF1F5"/>
<path fill-rule="evenodd" clip-rule="evenodd" d="M1021.22 118.527C1022.37 120.454 1025.73 120.169 1027.86 121.108C1027.3 124.073 1030.64 124.998 1031.06 127.129C1031.49 129.355 1029.91 130.793 1029.7 133.027C1028.64 134.054 1027.36 134.863 1026.51 136.099C1026.51 136.181 1026.51 136.263 1026.51 136.345C1026.3 137.289 1026.3 139.088 1026.51 140.031C1026.69 141 1027.35 141.481 1027.61 142.366C1027.61 143.185 1027.61 144.005 1027.61 144.824C1025.01 146.65 1026.85 149.789 1026.02 152.811C1025.59 154.355 1022.15 156.426 1021.35 157.85C1020.96 158.531 1021.01 159.415 1020.73 159.939C1019.88 161.53 1016.92 162.505 1016.68 164.24C1016.55 165.134 1017.33 165.757 1017.66 166.452C1017.66 167.025 1017.66 167.599 1017.66 168.172C1017.48 168.239 1017.03 168.028 1017.05 168.295C1013.02 167.582 1011.17 170.324 1008.2 170.998C1005.3 171.656 1002.63 170.932 999.228 171.613C998.076 156.134 995.252 142.328 995.419 125.531C998.321 124.245 1001.08 122.708 1004.02 121.23C1005.5 120.484 1006.6 119.769 1008.81 119.878C1009.23 119.8 1009.95 120.036 1010.16 119.755C1010.82 119.755 1011.48 119.755 1012.13 119.755C1012.54 119.677 1013.27 119.913 1013.48 119.632C1014.14 119.632 1014.79 119.632 1015.45 119.632C1015.86 119.554 1016.59 119.79 1016.8 119.509C1018.8 119.703 1019.87 118.978 1021.22 118.527Z" fill="#EDF1F5"/>
<path fill-rule="evenodd" clip-rule="evenodd" d="M845.007 145.439C846.636 146.923 846.623 150.049 849.922 149.863C851.389 153.157 854.245 154.59 857.05 156.744C858.858 158.133 860.826 159.391 862.457 160.8C865.57 163.491 867.925 167.166 870.69 169.647C872.064 170.88 873.768 171.846 875.114 173.211C875.677 173.877 876.291 174.491 876.957 175.054C877.08 175.054 877.104 175.154 877.203 175.177C877.807 175.884 878.463 176.539 879.169 177.143C879.732 177.809 880.347 178.423 881.012 178.987C881.135 178.986 881.159 179.086 881.258 179.109C881.821 179.775 882.436 180.39 883.101 180.953C883.642 181.518 884.076 182.19 884.821 182.55C888.053 182.963 892.966 183.393 896.618 183.779C898.013 183.927 899.554 184.365 900.551 184.148C902.133 183.803 902.838 181.781 904.483 181.567C904.871 183.023 905.71 184.371 906.203 185.868C906.6 187.072 907.458 189.659 907.432 190.784C907.406 191.916 906.208 195.516 905.834 196.436C904.598 199.487 902.557 201.768 900.673 204.055C898.139 207.134 895.068 210.057 892.317 212.411C891.602 211.807 891.08 211.029 890.351 210.445C889.612 209.854 888.877 209.301 888.139 208.725C886.704 207.604 885.276 206.324 883.715 205.407C878.816 202.525 873.538 200.618 868.232 198.648C865.747 197.726 863.184 196.356 860.613 195.084C858.123 193.853 855.298 192.818 853.117 191.398C851.47 190.325 849.847 188.523 848.202 187.097C844.016 183.47 839.95 180.073 835.913 176.406C835.105 175.672 833.964 174.875 833.456 174.194C832.498 172.913 832.248 171.111 831.489 169.77C830.799 168.55 829.563 167.277 828.54 166.084C826.859 164.123 825.525 162.106 823.256 161.045C823.256 161.004 823.256 160.964 823.256 160.923C825.292 160.251 827.307 157.197 829.4 156.744C831.646 156.259 833.986 156.943 836.651 156.499C837.504 155.694 838.488 154.753 839.477 153.672C840.229 152.85 841.782 151.508 842.057 150.6C842.231 150.026 842.019 149.392 842.18 148.88C842.664 147.351 844.177 146.769 845.007 145.439Z" fill="#EDF1F5"/>
<path fill-rule="evenodd" clip-rule="evenodd" d="M1012.25 77.1146C1012.13 78.2294 1011.35 78.4938 1011.15 79.5723C1010.96 80.5674 1011.21 84.1202 1011.52 85.2249C1011.73 86.0132 1013.19 88.8229 1013.73 89.1573C1015.19 90.0596 1017.67 89.5021 1019.5 89.8945C1021.5 90.3215 1023.17 91.2624 1024.91 91.7376C1025.58 94.4962 1024.97 96.8401 1025.65 99.2336C1026.17 101.087 1028.06 102.325 1027.37 105.132C1026.59 106.235 1026.07 107.597 1025.16 108.573C1024.03 108.982 1023.01 108.699 1022.08 109.187C1021.32 109.593 1020.12 111.498 1020 112.628C1019.81 114.256 1020.55 115.723 1021.47 116.683C1021.3 117 1021.07 117.27 1021.1 117.789C1019.66 118.146 1018.6 118.89 1016.55 118.65C1016.14 118.727 1015.41 118.491 1015.2 118.773C1014.55 118.773 1013.89 118.773 1013.24 118.773C1012.82 118.85 1012.1 118.614 1011.88 118.895C1011.23 118.895 1010.57 118.895 1009.92 118.895C1009.5 118.973 1008.78 118.737 1008.57 119.018C1005.57 119.067 1003.21 120.832 1000.95 121.968C998.854 123.02 996.884 123.816 995.05 124.917C992.206 124.197 989.225 123.614 986.448 122.828C982.241 117.286 977.882 111.241 974.528 105.255C976.161 105.127 977.991 105.196 979.443 104.886C980.219 102.57 979.841 99.8803 980.303 97.6362C980.65 95.9521 981.764 94.2104 982.147 92.3521C982.697 89.6812 982.598 86.3279 982.884 83.2585C983.015 81.8498 983.238 80.3318 983.376 78.8346C983.508 77.3908 983.801 75.7035 983.621 74.5336C983.365 72.8694 982.323 71.09 981.655 69.3724C981.019 67.7382 979.878 65.7987 979.689 64.2112C979.581 63.2991 979.93 62.1415 980.058 61.0162C980.176 59.9719 980.102 58.7978 980.303 57.8211C980.829 55.2677 982.516 52.5756 983.13 49.7106C983.663 47.2227 983.231 44.3759 983.867 42.2146C985.282 39.9621 987.735 40.1127 990.38 38.651C991.25 38.1701 992.586 37.1413 993.33 36.4391C994.096 35.714 994.717 34.3741 995.419 34.1043C996.213 33.7986 997.949 33.6795 998.859 33.8586C999.614 34.0072 1000.46 35.0451 1001.32 35.7019C1003.26 37.1961 1004.54 38.1033 1006.36 39.5112C1007.2 40.1624 1008.05 41.1482 1008.81 41.4774C1010.88 42.366 1012.64 41.8907 1015.08 42.8291C1016.14 46.622 1014.59 47.6341 1013.11 49.8335C1012.32 51.0171 1011.05 52.4533 1011.02 53.6428C1011.01 54.7261 1012.36 56.9587 1012.87 57.698C1013.69 58.8917 1015.9 60.4753 1016.31 61.8762C1016.87 63.8158 1016.2 65.5825 1016.68 68.2662C1015.87 69.4324 1012.83 69.9383 1012.25 71.2155C1011.81 72.2038 1012.32 73.5282 1012.13 75.1477C1012.21 75.7652 1011.97 76.7023 1012.25 77.1146Z" fill="#EDF1F5"/>
<path fill-rule="evenodd" clip-rule="evenodd" d="M944.175 220.276C945.363 223.309 947.945 226.087 948.968 229.492C949.407 230.953 949.554 232.798 949.828 234.408C950.113 236.085 949.979 238.075 950.565 239.446C951.288 241.138 953.861 242.171 954.375 243.747C954.891 245.333 954.593 247.669 954.743 249.646C955.057 253.753 955.243 257.656 957.447 259.722C957.969 260.347 958.542 260.921 959.167 261.443C959.731 262.108 960.345 262.723 961.011 263.286C962.276 264.355 964.243 264.724 965.68 265.621C966.858 266.901 968.087 268.13 969.367 269.307C970.89 275.444 971.477 282.518 974.897 286.757C977.987 285.831 981.675 284.443 985.834 284.177C986.447 283.381 987.025 282.608 987.677 281.596C988.199 280.785 988.53 279.5 989.397 278.892C991.343 277.529 996.883 276.345 999.843 277.541C1000.76 277.912 1001.24 278.941 1002.05 279.261C1002.34 279.464 1002.32 279.978 1002.3 280.49C1002.38 280.864 1002.14 281.548 1002.42 281.719C1002.42 282.251 1002.42 282.784 1002.42 283.316C1002.5 283.933 1002.26 284.87 1002.55 285.283C1002.55 285.446 1002.55 285.61 1002.55 285.774C1003.42 287.109 1004.53 288.211 1005.37 289.584C1008.05 290.916 1010.19 292.794 1011.76 295.236C1010.42 296.065 1007.42 295.927 1006.6 297.202C1005.98 298.173 1006.66 299.355 1006.48 300.643C1006.28 302.001 1005.06 303.236 1005.13 304.453C1003.58 304.875 1001.23 304.492 1000.33 305.559C999.624 307.579 999.556 309.528 997.754 310.474C996.625 311.066 994.257 311.348 992.715 311.703C991.257 312.039 988.506 312.25 987.8 313.055C986.958 314.013 987.079 316.333 986.817 317.724C986.489 319.461 986.122 320.878 985.711 322.271C984.072 322.271 982.434 322.271 980.795 322.271C978.767 322.128 977.152 321.573 975.143 321.411C972.687 319.86 969.818 317.837 967.155 316.127C966.197 315.512 964.109 314.935 964.452 313.546C964.656 313.092 964.656 311.788 964.452 311.334C963.818 307.257 962.582 303.783 961.625 300.029C961.625 299.578 961.625 299.128 961.625 298.677C961.625 298.268 961.625 297.858 961.625 297.448C961.625 296.014 961.625 294.581 961.625 293.147C961.909 292.694 961.668 291.715 961.748 291.058C961.667 290.156 961.91 288.929 961.625 288.232C961.796 286.037 959.608 286.355 957.939 286.02C956.455 285.722 955.386 285.101 954.129 285.283C952.985 285.447 951.317 286.963 950.074 287.74C948.742 288.573 947.03 289.309 946.019 290.198C944.267 291.738 943.217 294.156 941.84 295.236C940.681 295.439 938.699 295.439 937.539 295.236C936.151 293.98 937.258 291.662 936.925 289.829C936.745 288.835 935.152 287.134 934.468 286.88C933.925 286.678 932.314 286.468 931.272 286.88C930.245 287.286 930.256 288.517 929.306 289.215C926.288 285.433 924.537 280.384 922.179 275.943C922.097 274.305 922.342 272.339 922.056 270.905C920.901 267.166 921.049 263.673 921.687 259.231C922.028 256.858 922.309 254.442 922.793 252.595C923.056 251.594 923.816 250.604 923.776 249.646C923.727 248.455 922.74 247.293 922.302 246.328C921.756 245.128 921.39 244.107 920.827 243.01C919.087 242.743 917.159 242.663 915.174 242.641C914.79 241.304 914.456 239.919 914.191 238.463C919.078 238.338 923.022 238.775 926.48 237.357C928.091 236.696 929.761 234.699 931.149 233.425C935.8 229.156 940.293 224.71 944.175 220.276Z" fill="#EDF1F5"/>
<path fill-rule="evenodd" clip-rule="evenodd" d="M906.204 170.999C907.529 172.46 909.237 173.537 910.505 175.054C908.285 179.019 903.611 180.53 900.306 183.41C896.971 183.043 892.893 182.576 889.123 182.182C886.919 181.951 884.992 182.143 884.085 180.707C883.481 180 882.826 179.345 882.119 178.741C881.555 178.075 880.941 177.461 880.275 176.897C880.176 176.874 880.153 176.774 880.03 176.775C879.426 176.068 878.77 175.412 878.064 174.808C877.5 174.143 876.886 173.528 876.22 172.965C872.982 170.822 869.958 167.583 867.25 164.609C866.25 163.511 863.683 161.699 863.44 160.431C863.318 159.788 863.856 156.334 864.178 155.516C864.403 154.942 864.902 154.615 865.283 154.287C865.744 153.929 866.154 153.519 866.512 153.058C866.512 153.017 866.512 152.976 866.512 152.935C867.014 152.536 867.465 152.085 867.864 151.583C868.178 151.201 868.382 150.709 869.216 150.846C870.568 150.846 871.919 150.846 873.271 150.846C874.051 150.765 875.153 151.008 875.729 150.723C877.323 150.761 878.822 150.704 880.275 150.6C881.83 149.083 882.828 147.009 883.593 144.702C886.269 144.059 888.441 142.915 890.843 141.999C891.458 139.378 892.431 137.115 893.67 135.117C895.703 134.178 896.983 132.19 900.305 132.905C900.305 133.028 900.305 133.151 900.305 133.274C900.02 133.93 900.263 135.116 900.183 135.977C900.183 136.919 900.183 137.861 900.183 138.803C901.26 139.897 903.058 140.27 904.484 141.015C905.207 143.773 905.904 146.558 906.45 149.494C905.392 152.742 904.352 156.618 903.255 160.308C902.879 161.57 902.167 162.838 902.149 163.872C902.12 165.433 903.216 166.75 903.5 168.296C903.9 168.798 904.35 169.248 904.852 169.648C905.251 170.149 905.702 170.6 906.204 170.999Z" fill="#EDF1F5"/>
<path fill-rule="evenodd" clip-rule="evenodd" d="M925.251 98.3738C926.424 99.2161 926.869 101.206 928.078 102.06C929.659 103.177 931.959 103.07 933.73 104.026C934.814 104.611 935.865 105.67 936.925 106.484C940.151 108.962 943.392 111.546 946.387 113.98C947.302 117.9 948.308 121.726 949.214 125.654C950.735 126.467 951.728 127.81 954.375 127.497C955.236 127.497 956.096 127.497 956.956 127.497C957.45 127.418 958.262 127.657 958.553 127.374C959.332 127.374 960.11 127.374 960.888 127.374C961.748 127.374 962.608 127.374 963.468 127.374C963.963 127.296 964.775 127.534 965.066 127.252C968.612 127.725 969.703 125.744 971.825 124.794C973.875 120.741 976.043 116.805 978.215 112.874C979.488 114.476 980.657 116.328 982.024 118.281C982.921 119.562 984.732 122.853 986.08 123.565C988.456 124.82 991.837 124.425 994.559 125.777C994.559 126.351 994.559 126.924 994.559 127.497C994.272 129.423 994.517 131.88 994.436 134.01C988.522 135.961 980.939 136.243 976.74 139.909C975.788 140.759 974.887 141.66 974.037 142.612C972.628 144.726 971.565 147.186 970.228 149.371C966.716 150.557 964.624 152.014 961.994 154.04C961.154 154.688 959.978 155.157 959.537 155.884C958.782 157.127 958.897 159.296 958.185 160.799C957.907 161.384 956.236 163.49 955.727 163.625C954.481 163.957 952.67 163.363 951.18 163.257C949.655 163.148 948.146 163.052 946.51 163.011C942.599 158.689 940.844 152.211 937.785 147.036C936.051 146.676 934.648 145.449 932.624 144.947C929.084 144.068 925.017 144.481 922.793 142.612C922.863 141.085 923.096 139.719 923.285 138.311C924.591 137.938 925.744 137.411 926.972 136.96C927.452 135.085 928.858 133.805 929.061 131.921C929.445 128.349 927.817 125.527 926.849 122.951C926.271 121.413 925.496 119.792 925.005 118.158C923.634 113.59 923.144 108.83 921.565 105.009C920.375 104.151 918.916 103.562 918.001 102.429C919.611 101.986 921.238 102.661 922.425 102.183C923.939 101.572 924.031 99.2461 925.251 98.3738Z" fill="#EDF1F5"/>
<path fill-rule="evenodd" clip-rule="evenodd" d="M960.888 174.317C961.42 174.317 961.953 174.317 962.485 174.317C963.792 173.535 963.523 171.176 966.049 171.614C966.219 171.894 966.904 171.66 967.278 171.736C969.594 171.714 971.712 171.891 973.913 171.982C974.541 173.771 975.079 175.651 975.634 177.512C981.672 179.626 987.967 181.482 993.576 184.025C992.455 190.735 991.509 196.194 988.537 200.86C987.528 202.446 985.623 203.664 985.096 205.284C984.681 206.563 984.923 207.994 984.728 209.217C984.371 211.451 983.565 213.374 983.13 215.607C977.937 212.965 972.732 209.03 966.049 207.496C964.67 207.18 962.723 207.228 961.011 207.128C956.001 206.834 952.431 207.356 948.108 208.357C947.143 204.529 946.178 200.701 945.159 196.928C946.718 194.392 947.749 191.326 949.214 188.695C949.879 188.132 950.494 187.517 951.057 186.851C951.764 186.247 952.419 185.592 953.023 184.885C954.494 183.611 955.158 181.532 956.218 179.847C956.502 179.434 956.261 178.497 956.341 177.881C956.341 177.184 956.341 176.488 956.341 175.792C956.624 175.501 956.385 174.689 956.464 174.194C956.464 173.58 956.464 172.966 956.464 172.351C957.649 172.845 957.94 174.234 959.659 174.194C959.829 174.474 960.514 174.24 960.888 174.317Z" fill="#EDF1F5"/>
<path fill-rule="evenodd" clip-rule="evenodd" d="M1026.63 200.614C1027.44 201.24 1027.97 202.142 1028.6 202.949C1029.56 203.052 1030.57 203.109 1031.67 203.072C1033.24 205.634 1031.85 209.564 1030.81 212.288C1030.44 213.262 1029.6 214.547 1029.7 215.238C1029.91 216.657 1033.06 217.681 1033.64 218.924C1034.7 220.927 1035.33 223.377 1036.59 225.191C1038.06 225.685 1040.1 225.605 1041.87 225.806C1043.29 227.249 1044.93 228.485 1047.64 228.632C1046.96 230.182 1046.04 231.341 1045.06 232.933C1044.5 233.853 1042.56 236.348 1042.73 237.603C1042.87 238.65 1044.5 238.842 1044.82 240.06C1045.18 241.453 1044.56 242.093 1044.82 243.87C1047.29 247.46 1053.15 247.666 1057.48 249.4C1058.01 249.684 1059.07 249.442 1059.81 249.523C1060.1 250.384 1059.85 251.775 1059.93 252.841C1057.01 253.713 1055.56 254.967 1054.77 257.879C1054.2 259.968 1054.5 262.647 1053.79 264.638C1053.23 266.192 1051.98 266.999 1051.33 268.201C1049.9 268.864 1048.25 268.542 1047.28 269.43C1046.76 269.901 1045.93 272.44 1045.56 273.731C1045.28 274.673 1045.85 275.9 1045.68 276.681C1045.48 277.599 1044.44 278.092 1043.96 278.647C1043.34 278.726 1042.4 278.486 1041.99 278.77C1040.17 278.966 1038.67 278.428 1037.57 279.015C1036.67 279.495 1036.22 281.391 1035.73 282.456C1035.08 283.864 1034.58 285.073 1034 286.02C1032.55 282.445 1030.66 279.099 1028.6 276.066C1027.89 275.03 1026.86 274.034 1026.51 272.994C1025.57 270.238 1025.96 267.079 1024.91 264.023C1022.59 262.252 1019.86 260.883 1017.54 259.108C1017.18 258.034 1016.92 256.863 1016.55 255.79C1015.87 255.001 1015.13 254.264 1014.34 253.578C1011.13 252.589 1007.12 252.735 1004.14 251.735C1003.14 251.396 1002.03 250.557 1000.95 250.014C998.483 248.775 996.968 247.975 995.05 246.451C994.21 245.783 993.08 245.012 992.592 244.361C991.576 243.006 991.222 241.23 990.257 239.569C990.178 239.034 990.417 238.18 990.134 237.849C990.134 237.152 990.134 236.456 990.134 235.759C990.134 234.94 990.134 234.121 990.134 233.302C990.056 232.848 990.294 232.078 990.011 231.827C990.011 231.09 990.011 230.353 990.011 229.615C990.011 228.796 990.011 227.977 990.011 227.157C989.933 226.703 990.171 225.933 989.889 225.683C989.889 225.478 989.889 225.273 989.889 225.068C990.826 225.237 991.673 225.496 992.838 225.437C993.411 225.437 993.985 225.437 994.558 225.437C995.377 225.437 996.197 225.437 997.016 225.437C997.39 225.36 998.075 225.594 998.245 225.314C999.351 225.314 1000.46 225.314 1001.56 225.314C1001.98 225.236 1002.7 225.473 1002.91 225.191C1005.03 224.669 1007.43 224.554 1009.55 223.717C1011.43 222.974 1012.31 221.545 1013.48 220.03C1015.53 217.384 1017.52 214.838 1019.5 212.288C1020.86 210.553 1022.47 208.913 1023.44 207.127C1024.64 204.905 1025.53 202.535 1026.63 200.614Z" fill="#EDF1F5"/>
<path fill-rule="evenodd" clip-rule="evenodd" d="M794.993 199.631C795.682 198.395 796.19 196.978 797.082 195.945C798.71 196.114 800.012 195.299 801.26 195.576C801.833 195.703 803.037 196.819 803.349 197.296C803.837 198.043 804.111 199.265 804.578 200.369C805.781 203.21 807.479 206.902 808.388 209.462C810.011 211.096 812.078 211.803 815.023 212.411C816.31 212.677 817.639 213.121 818.71 213.026C821.197 212.806 823.313 210.996 825.346 210.445C825.88 208.125 828.462 205.903 829.032 203.809C829.69 201.391 828.895 198.471 829.524 196.314C829.922 194.946 830.907 194.241 831.613 193.118C833.183 193.228 834.273 193.817 835.545 194.224C836.901 194.588 839.103 194.107 840.46 194.47C842.079 197.451 842.925 200.868 844.515 203.809C844.937 204.59 845.842 205.239 846.113 206.144C846.536 207.56 846.078 208.984 846.481 210.445C844.32 212.503 841.834 214.237 839.723 216.344C839.723 217.573 839.723 218.802 839.723 220.03C839.437 221.055 839.681 222.61 839.6 223.84C839.6 225.888 839.6 227.936 839.6 229.984C839.046 233.035 837.423 235.017 836.405 237.603C836.219 237.909 835.346 237.527 835.176 237.849C831.674 237.981 827.83 238.553 825.837 236.743C825.186 234.977 824.644 233.102 823.993 231.336C822.927 231.132 821.733 231.057 820.43 231.09C820.219 230.809 819.492 231.045 819.078 230.967C818.464 230.967 817.849 230.967 817.235 230.967C814.551 233.117 812.363 235.763 809.37 237.603C808.346 237.603 807.322 237.603 806.298 237.603C805.722 237.683 804.827 237.442 804.455 237.726C803.964 237.726 803.472 237.726 802.98 237.726C802.551 236.393 802.089 235.094 801.506 233.916C799.175 233.462 796.781 233.07 794.378 232.688C794.86 230.832 797.158 228.039 797.451 226.052C797.881 223.132 797.451 219.213 797.451 215.484C797.451 211.746 797.977 207.669 797.451 204.793C797.061 202.666 795.313 201.091 794.993 199.631Z" fill="#EDF1F5"/>
<path fill-rule="evenodd" clip-rule="evenodd" d="M840.706 216.466C841.668 215.681 842.735 214.701 844.024 213.64C844.896 212.922 846.935 211.765 847.219 210.691C847.599 209.254 846.738 207.819 846.973 205.898C845.222 203.73 844.396 201.261 843.164 198.402C841.937 195.556 840.471 193.406 840.583 189.554C843.676 191.7 845.962 194.901 849.185 197.05C850.736 198.085 852.706 198.744 854.469 199.631C859.643 202.233 864.956 205.157 870.813 206.881C871.833 211.801 872.015 216.834 873.885 220.644C875.215 223.354 877.846 224.515 880.153 226.174C880.153 226.215 880.153 226.256 880.153 226.297C877.712 230.124 875.356 234.035 873.517 238.463C873.541 243.649 872.504 247.773 870.814 251.243C868.531 251.871 865.27 251.872 863.318 252.841C862.592 253.2 860.028 255.498 859.754 256.158C859.004 257.966 859.618 260.392 858.771 262.549C858.153 262.586 857.8 262.889 857.296 263.04C855.592 262.001 853.98 260.867 852.381 259.722C852.381 259.435 852.381 259.149 852.381 258.862C852.303 258.448 852.539 257.721 852.258 257.51C852.258 256.855 852.258 256.2 852.258 255.544C852.181 255.13 852.417 254.403 852.135 254.192C852.135 253.496 852.135 252.8 852.135 252.103C852.058 251.689 852.294 250.962 852.012 250.752C852.638 248.061 850.592 247.693 850.046 246.082C849.465 244.366 849.55 242.256 849.063 240.306C848.583 238.384 848.132 236.545 847.711 234.776C845.389 233.33 842.924 232.027 840.584 230.598C840.584 228.509 840.584 226.42 840.584 224.331C840.584 222.529 840.584 220.726 840.584 218.924C840.868 218.349 840.626 217.246 840.706 216.466ZM892.809 223.225C887.685 217.413 882.409 211.752 874.622 208.602C875.13 212.395 875.739 216.087 876.957 219.17C878.357 220.426 880.151 222.781 882.118 223.348C884.617 224.068 887.34 223.524 890.474 223.594C890.901 223.177 892.976 223.835 892.809 223.225Z" fill="#EDF1F5"/>
<path fill-rule="evenodd" clip-rule="evenodd" d="M927.094 190.538C929.223 191.965 929.977 194.752 934.099 194.102C934.349 194.383 935.119 194.146 935.573 194.224C936.311 194.224 937.048 194.224 937.785 194.224C938.036 194.506 938.806 194.269 939.26 194.347C941.26 195.133 942.876 196.302 944.544 197.419C945.273 201.28 946.673 205.12 947.248 208.725C942.917 211.391 939.085 215.647 935.328 219.785C932.48 222.92 929.619 225.401 926.603 228.264C924.779 229.995 923.934 231.194 921.196 231.459C918.03 231.765 912.247 231.869 909.89 230.967C908.466 230.422 907.233 228.613 906.204 227.404C905.028 226.021 903.889 224.795 902.886 223.471C902.388 222.617 901.618 222.035 900.92 221.382C900.383 221.223 900.148 220.762 899.814 220.399C899.333 219.815 898.801 219.283 898.217 218.802C897.776 218.259 897.285 217.767 896.742 217.327C895.394 216.012 894.195 214.549 892.933 213.149C899.287 207.01 906.102 201.331 908.294 191.029C911.689 190.861 914.805 190.413 918.247 190.292C918.944 190.292 919.64 190.292 920.336 190.292C920.912 190.213 921.808 190.453 922.18 190.169C922.999 190.169 923.818 190.169 924.637 190.169C925.518 190.23 926.738 189.951 927.094 190.538Z" fill="#EDF1F5"/>
<mask id="mask2_133_254" style="mask-type:alpha" maskUnits="userSpaceOnUse" x="990" y="172" width="24" height="24">
<rect x="990" y="172" width="24" height="24" fill="#D9D9D9"/>
</mask>
<g mask="url(#mask2_133_254)">
<path d="M1002 184C1002.55 184 1003.02 183.804 1003.41 183.413C1003.8 183.021 1004 182.55 1004 182C1004 181.45 1003.8 180.979 1003.41 180.588C1003.02 180.196 1002.55 180 1002 180C1001.45 180 1000.98 180.196 1000.59 180.588C1000.2 180.979 1000 181.45 1000 182C1000 182.55 1000.2 183.021 1000.59 183.413C1000.98 183.804 1001.45 184 1002 184ZM1002 194C999.317 191.717 997.312 189.596 995.988 187.637C994.663 185.679 994 183.867 994 182.2C994 179.7 994.804 177.708 996.413 176.225C998.021 174.742 999.883 174 1002 174C1004.12 174 1005.98 174.742 1007.59 176.225C1009.2 177.708 1010 179.7 1010 182.2C1010 183.867 1009.34 185.679 1008.01 187.637C1006.69 189.596 1004.68 191.717 1002 194Z" fill="#173E99"/>
</g>
<mask id="mask3_133_254" style="mask-type:alpha" maskUnits="userSpaceOnUse" x="879" y="216" width="24" height="24">
<rect x="879" y="216" width="24" height="24" fill="#D9D9D9"/>
</mask>
<g mask="url(#mask3_133_254)">
<path d="M891 228C891.55 228 892.021 227.804 892.413 227.413C892.804 227.021 893 226.55 893 226C893 225.45 892.804 224.979 892.413 224.588C892.021 224.196 891.55 224 891 224C890.45 224 889.979 224.196 889.588 224.588C889.196 224.979 889 225.45 889 226C889 226.55 889.196 227.021 889.588 227.413C889.979 227.804 890.45 228 891 228ZM891 238C888.317 235.717 886.312 233.596 884.988 231.637C883.663 229.679 883 227.867 883 226.2C883 223.7 883.804 221.708 885.413 220.225C887.021 218.742 888.883 218 891 218C893.117 218 894.979 218.742 896.588 220.225C898.196 221.708 899 223.7 899 226.2C899 227.867 898.337 229.679 897.012 231.637C895.688 233.596 893.683 235.717 891 238Z" fill="#173E99"/>
</g>
<path d="M831.957 264.811V266.74H816.501V264.811H823.014V261.693H818.134V252.898H820.509V255.515H827.875V252.898H830.231V261.693H825.37V264.811H831.957ZM820.509 259.801H827.875V257.407H820.509V259.801ZM846.244 251.822V258.205H848.73V260.153H846.244V268.744H843.906V251.822H846.244ZM841.42 253.232V259.782H835.983V262.844C838.442 262.834 840.474 262.723 842.719 262.343L842.923 264.235C840.344 264.699 838.024 264.811 835.056 264.811H833.627V257.908H839.063V255.144H833.608V253.232H841.42ZM863.982 251.822V268.707H861.719V260.19H860.197V267.928H857.952V252.063H860.197V258.261H861.719V251.822H863.982ZM856.542 253.566V264.458H849.825V253.566H856.542ZM852.033 255.44V262.603H854.334V255.44H852.033ZM884.634 251.822V256.665H886.916V258.632H884.634V264.124H882.259V251.822H884.634ZM885.246 266.518V268.41H873.687V262.825H876.043V266.518H885.246ZM875.987 252.917C878.566 252.917 880.589 254.698 880.589 257.203C880.589 259.671 878.566 261.489 875.987 261.489C873.39 261.489 871.349 259.671 871.349 257.203C871.349 254.698 873.39 252.917 875.987 252.917ZM875.987 254.977C874.707 254.958 873.668 255.793 873.687 257.203C873.668 258.576 874.707 259.43 875.987 259.43C877.286 259.43 878.27 258.576 878.288 257.203C878.27 255.793 877.286 254.958 875.987 254.977ZM901.89 251.841V264.161H899.533V258.112H896.769V256.201H899.533V251.841H901.89ZM902.298 266.518V268.41H890.683V263.085H893.058V266.518H902.298ZM894.041 255.144C894.041 257.092 895.229 259.188 897.919 260.061L896.75 261.935C894.876 261.332 893.596 260.098 892.854 258.558C892.111 260.265 890.766 261.619 888.771 262.287L887.565 260.357C890.349 259.485 891.61 257.277 891.629 255.125V254.865H888.233V252.973H897.399V254.865H894.041V255.144ZM909.349 256.962C909.349 259.522 910.276 262.083 912.67 263.382L911.371 265.107C909.85 264.328 908.838 262.955 908.254 261.304C907.66 263.104 906.649 264.625 905.118 265.516L903.764 263.734C906.194 262.324 907.104 259.578 907.122 256.962V256.572H904.395V254.68H907.122V252.397H909.33V254.68H912.002V256.572H909.349V256.962ZM918.682 251.822V268.707H916.437V251.822H918.682ZM915.23 252.101V267.928H913.004V260.153H911.019V258.224H913.004V252.101H915.23ZM934.731 251.822V262.027H932.375V258.706H930.186V256.776H932.375V251.822H934.731ZM934.731 262.751V268.521H923.376V262.751H934.731ZM925.751 264.606V266.629H932.412V264.606H925.751ZM930.482 253.288V255.181H920.537V253.288H924.359V251.674H926.697V253.288H930.482ZM925.528 255.737C927.903 255.737 929.573 256.999 929.573 258.762C929.573 260.599 927.903 261.823 925.528 261.823C923.172 261.823 921.465 260.599 921.465 258.762C921.465 256.999 923.172 255.737 925.528 255.737ZM925.528 257.519C924.434 257.519 923.729 257.964 923.747 258.762C923.729 259.615 924.434 260.079 925.528 260.079C926.604 260.079 927.31 259.615 927.31 258.762C927.31 257.964 926.604 257.519 925.528 257.519ZM946.384 253.047V254.104C946.384 255.273 946.384 256.962 945.994 259.059L943.675 258.836C943.972 257.212 944.046 255.988 944.064 254.977H937.7V253.047H946.384ZM942.19 256.943V260.172C943.87 260.107 945.595 259.977 947.182 259.745L947.312 261.452C943.805 262.102 939.834 262.157 936.902 262.176L936.698 260.283C937.645 260.283 938.711 260.283 939.834 260.246V256.943H942.19ZM950.521 251.822V256.962H952.562V258.947H950.521V264.458H948.091V251.822H950.521ZM951.041 266.518V268.41H939.185V263.326H941.56V266.518H951.041Z" fill="#173E99"/>
<path d="M827.635 282.873V283.912H816.451V282.873H821.414V281.574H817.846V277.473H826.254V278.498H819.131V280.535H826.336V281.574H822.672V282.873H827.635ZM822.029 284.705C824.668 284.705 826.254 285.512 826.254 286.934C826.254 288.355 824.668 289.148 822.029 289.162C819.377 289.148 817.777 288.355 817.777 286.934C817.777 285.512 819.377 284.705 822.029 284.705ZM822.029 285.717C820.156 285.717 819.09 286.154 819.09 286.934C819.09 287.713 820.156 288.15 822.029 288.137C823.875 288.15 824.955 287.713 824.955 286.934C824.955 286.154 823.875 285.717 822.029 285.717ZM832.83 279.113C832.83 280.672 833.91 282.162 835.783 282.791L835.127 283.803C833.739 283.324 832.721 282.367 832.188 281.164C831.654 282.49 830.595 283.529 829.152 284.035L828.455 283.023C830.369 282.367 831.518 280.795 831.531 279.1V278.771H828.838V277.719H835.469V278.771H832.83V279.113ZM838.176 276.912V280.057H839.953V281.15H838.176V284.295H836.877V276.912H838.176ZM838.176 284.896V289.162H836.877V285.949H830.082V284.896H838.176ZM850.398 277.678V278.758C850.398 279.92 850.398 281.178 850.057 282.928H851.82V283.994H846.857V289.176H845.545V283.994H840.65V282.928H848.744C849.113 281.185 849.113 279.899 849.113 278.758V278.744H842.018V277.678H850.398ZM860.105 277.828C861.22 277.828 862.143 278.471 862.689 279.578H865.711V276.912H866.996V289.189H865.711V284.486H862.771C862.245 285.717 861.281 286.428 860.105 286.428C858.273 286.428 856.988 284.76 857.002 282.121C856.988 279.496 858.273 277.828 860.105 277.828ZM860.105 278.99C858.998 278.99 858.232 280.193 858.232 282.121C858.232 284.062 858.998 285.266 860.105 285.266C861.213 285.266 861.979 284.062 861.979 282.121C861.979 280.193 861.213 278.99 860.105 278.99ZM863.059 280.645C863.147 281.096 863.209 281.588 863.209 282.121C863.209 282.586 863.168 283.017 863.086 283.42H865.711V280.645H863.059ZM872.875 277.787C874.816 277.773 876.197 278.977 876.211 280.699C876.197 282.422 874.816 283.625 872.875 283.625C870.947 283.625 869.525 282.422 869.539 280.699C869.525 278.977 870.947 277.773 872.875 277.787ZM872.875 278.908C871.686 278.908 870.811 279.619 870.824 280.699C870.811 281.779 871.686 282.49 872.875 282.49C874.064 282.49 874.939 281.779 874.939 280.699C874.939 279.619 874.064 278.908 872.875 278.908ZM879.014 276.912V289.189H877.715V276.912H879.014ZM868.951 285.471C871.18 285.471 874.27 285.443 876.949 285.061L877.045 286.004C874.27 286.537 871.303 286.551 869.115 286.551L868.951 285.471ZM891.496 276.912V289.162H890.252V282.832H888.666V288.533H887.477V277.158H888.666V281.766H890.252V276.912H891.496ZM885.986 278.389V279.441H882.691V285.115C884.195 285.102 885.33 285.033 886.643 284.787L886.738 285.854C885.262 286.154 884.004 286.209 882.213 286.223H881.393V278.389H885.986ZM898.756 284.541C901.285 284.541 902.816 285.389 902.816 286.838C902.816 288.301 901.285 289.148 898.756 289.162C896.199 289.148 894.641 288.301 894.641 286.838C894.641 285.389 896.199 284.541 898.756 284.541ZM898.756 285.566C896.979 285.566 895.926 286.018 895.939 286.838C895.926 287.658 896.979 288.123 898.756 288.123C900.52 288.123 901.545 287.658 901.545 286.838C901.545 286.018 900.52 285.566 898.756 285.566ZM902.707 276.912V279.906H904.484V281.014H902.707V284.227H901.408V276.912H902.707ZM894.832 277.678V279.441H898.045V277.678H899.33V283.365H893.561V277.678H894.832ZM894.832 282.326H898.045V280.467H894.832V282.326ZM916.393 286.605V287.699H905.182V286.605H910.117V284.459H906.549V280.562H913.74V278.84H906.521V277.773H915.025V281.602H907.834V283.393H915.312V284.459H911.402V286.605H916.393ZM921.848 288L921.834 286.92L925.047 283.447C926.059 282.34 926.592 281.711 926.605 280.822C926.592 279.824 925.854 279.223 924.896 279.223C923.898 279.223 923.242 279.893 923.242 280.973H921.848C921.834 279.168 923.146 277.965 924.938 277.965C926.729 277.965 927.986 279.168 928 280.781C927.986 281.875 927.508 282.75 925.771 284.596L923.871 286.633V286.715H928.15V288H921.848ZM932.963 288.137C930.789 288.137 929.545 286.428 929.545 283.434V282.668C929.545 279.674 930.789 277.965 932.963 277.965C935.137 277.965 936.367 279.674 936.367 282.668V283.434C936.367 286.428 935.137 288.137 932.963 288.137ZM932.963 286.852C934.275 286.852 934.932 285.703 934.932 283.434V282.668C934.932 280.398 934.275 279.25 932.963 279.25C931.65 279.25 930.994 280.398 930.994 282.668V283.434C930.994 285.703 931.65 286.852 932.963 286.852ZM947.605 276.912V283.146H946.307V276.912H947.605ZM943.928 277.459C943.914 280.672 941.822 282.572 938.117 283.393L937.639 282.34C940.708 281.697 942.308 280.323 942.506 278.525H938.281V277.459H943.928ZM947.605 283.693V286.77H940.879V288.014H948.016V289.039H939.594V285.799H946.307V284.719H939.553V283.693H947.605ZM955.262 285.402C955.344 286.332 956.137 286.838 957.148 286.838C958.229 286.838 959.062 286.25 959.062 285.143C959.062 284.131 958.406 283.311 956.848 283.311H955.959V282.189L958.242 279.482V279.387H954.236V278.102H960.184V279.168L957.641 282.176V282.271C959.404 282.408 960.539 283.666 960.525 285.184C960.539 286.906 959.117 288.137 957.135 288.137C955.303 288.137 953.867 287.084 953.771 285.402H955.262ZM963.328 285.402C963.41 286.332 964.203 286.838 965.215 286.838C966.295 286.838 967.129 286.25 967.129 285.143C967.129 284.131 966.473 283.311 964.914 283.311H964.025V282.189L966.309 279.482V279.387H962.303V278.102H968.25V279.168L965.707 282.176V282.271C967.471 282.408 968.605 283.666 968.592 285.184C968.605 286.906 967.184 288.137 965.201 288.137C963.369 288.137 961.934 287.084 961.838 285.402H963.328Z" fill="#173E99"/>
<path d="M963.001 207.75V208.845C962.982 209.939 962.982 211.442 962.593 213.279L960.273 213.112C960.542 211.693 960.607 210.589 960.626 209.643H954.28V207.75H963.001ZM958.771 211.517V214.43C960.459 214.374 962.175 214.263 963.762 214.077L963.892 215.729C960.385 216.341 956.525 216.434 953.482 216.434L953.278 214.541C954.243 214.532 955.301 214.532 956.414 214.504V211.517H958.771ZM967.102 206.822V210.979H969.161V212.945H967.102V217.12H964.671V206.822H967.102ZM961.35 217.324C964.968 217.324 967.213 218.53 967.213 220.46C967.213 222.501 964.968 223.67 961.35 223.67C957.731 223.67 955.468 222.501 955.468 220.46C955.468 218.53 957.731 217.324 961.35 217.324ZM961.35 219.143C959.123 219.143 957.88 219.606 957.88 220.46C957.88 221.425 959.123 221.833 961.35 221.833C963.558 221.833 964.782 221.425 964.782 220.46C964.782 219.606 963.558 219.143 961.35 219.143ZM985.638 213.224V215.153H983.244V223.67H980.869V206.822H983.244V213.224H985.638ZM972.816 208.437V217.584C974.978 217.556 977.297 217.352 979.737 216.86L979.979 218.827C977.158 219.402 974.412 219.551 971.926 219.551H970.46V208.437H972.816ZM999.999 207.342V212.37H990.555V213.78H1000.39V215.673H988.161V210.589H997.568V209.253H988.105V207.342H999.999ZM1001.78 216.935V218.827H995.212V223.744H992.837V218.827H986.324V216.935H1001.78ZM1021.63 206.822V211.665H1023.92V213.632H1021.63V219.124H1019.26V206.822H1021.63ZM1022.25 221.518V223.41H1010.69V217.825H1013.04V221.518H1022.25ZM1012.99 207.917C1015.57 207.917 1017.59 209.698 1017.59 212.203C1017.59 214.671 1015.57 216.489 1012.99 216.489C1010.39 216.489 1008.35 214.671 1008.35 212.203C1008.35 209.698 1010.39 207.917 1012.99 207.917ZM1012.99 209.977C1011.71 209.958 1010.67 210.793 1010.69 212.203C1010.67 213.576 1011.71 214.43 1012.99 214.43C1014.29 214.43 1015.27 213.576 1015.29 212.203C1015.27 210.793 1014.29 209.958 1012.99 209.977ZM1038.89 206.841V219.161H1036.53V213.112H1033.77V211.201H1036.53V206.841H1038.89ZM1039.3 221.518V223.41H1027.68V218.085H1030.06V221.518H1039.3ZM1031.04 210.144C1031.04 212.092 1032.23 214.188 1034.92 215.061L1033.75 216.935C1031.88 216.332 1030.6 215.098 1029.85 213.558C1029.11 215.265 1027.77 216.619 1025.77 217.287L1024.57 215.357C1027.35 214.485 1028.61 212.277 1028.63 210.125V209.865H1025.23V207.973H1034.4V209.865H1031.04V210.144ZM1046.35 211.962C1046.35 214.522 1047.28 217.083 1049.67 218.382L1048.37 220.107C1046.85 219.328 1045.84 217.955 1045.25 216.304C1044.66 218.104 1043.65 219.625 1042.12 220.516L1040.76 218.734C1043.19 217.324 1044.1 214.578 1044.12 211.962V211.572H1041.39V209.68H1044.12V207.397H1046.33V209.68H1049V211.572H1046.35V211.962ZM1055.68 206.822V223.707H1053.44V206.822H1055.68ZM1052.23 207.101V222.928H1050V215.153H1048.02V213.224H1050V207.101H1052.23ZM1071.73 206.822V217.027H1069.38V213.706H1067.19V211.776H1069.38V206.822H1071.73ZM1071.73 217.751V223.521H1060.38V217.751H1071.73ZM1062.75 219.606V221.629H1069.41V219.606H1062.75ZM1067.48 208.288V210.181H1057.54V208.288H1061.36V206.674H1063.7V208.288H1067.48ZM1062.53 210.737C1064.9 210.737 1066.57 211.999 1066.57 213.762C1066.57 215.599 1064.9 216.823 1062.53 216.823C1060.17 216.823 1058.46 215.599 1058.46 213.762C1058.46 211.999 1060.17 210.737 1062.53 210.737ZM1062.53 212.519C1061.43 212.519 1060.73 212.964 1060.75 213.762C1060.73 214.615 1061.43 215.079 1062.53 215.079C1063.6 215.079 1064.31 214.615 1064.31 213.762C1064.31 212.964 1063.6 212.519 1062.53 212.519ZM1083.38 208.047V209.104C1083.38 210.273 1083.38 211.962 1082.99 214.059L1080.67 213.836C1080.97 212.212 1081.05 210.988 1081.06 209.977H1074.7V208.047H1083.38ZM1079.19 211.943V215.172C1080.87 215.107 1082.6 214.977 1084.18 214.745L1084.31 216.452C1080.8 217.102 1076.83 217.157 1073.9 217.176L1073.7 215.283C1074.64 215.283 1075.71 215.283 1076.83 215.246V211.943H1079.19ZM1087.52 206.822V211.962H1089.56V213.947H1087.52V219.458H1085.09V206.822H1087.52ZM1088.04 221.518V223.41H1076.18V218.326H1078.56V221.518H1088.04Z" fill="#173E99"/>
<path d="M960.273 232.65V233.348C960.273 234.127 960.273 235.234 959.959 236.643L958.674 236.533C958.927 235.337 958.968 234.441 958.988 233.717H954.094V232.65H960.273ZM957.143 235.33V237.641C958.462 237.593 959.809 237.511 961.039 237.354L961.121 238.27C958.564 238.707 955.68 238.775 953.479 238.775L953.355 237.695C954.114 237.695 954.969 237.695 955.857 237.668V235.33H957.143ZM963.145 231.912V235.152H964.84V236.232H963.145V239.5H961.818V231.912H963.145ZM959.098 239.65C961.668 239.65 963.24 240.484 963.24 241.865C963.24 243.301 961.668 244.121 959.098 244.121C956.541 244.121 954.955 243.301 954.955 241.865C954.955 240.484 956.541 239.65 959.098 239.65ZM959.098 240.662C957.334 240.662 956.254 241.113 956.268 241.865C956.254 242.672 957.334 243.096 959.098 243.096C960.861 243.096 961.914 242.672 961.928 241.865C961.914 241.113 960.861 240.662 959.098 240.662ZM970.09 234.469C970.09 236.055 971.266 237.545 973.152 238.146L972.482 239.158C971.074 238.693 970.008 237.729 969.461 236.506C968.907 237.839 967.82 238.892 966.357 239.404L965.688 238.379C967.588 237.736 968.764 236.15 968.777 234.469V233.936H966.029V232.883H972.783V233.936H970.09V234.469ZM975.709 231.926V240.867H974.41V231.926H975.709ZM976.078 242.85V243.902H967.697V240.02H969.01V242.85H976.078ZM987.398 232.678V233.758C987.398 234.92 987.398 236.178 987.057 237.928H988.82V238.994H983.857V244.176H982.545V238.994H977.65V237.928H985.744C986.113 236.185 986.113 234.899 986.113 233.758V233.744H979.018V232.678H987.398ZM1003.68 235.221V236.273H995.273V232.131H996.559V235.221H1003.68ZM1004.97 237.572V238.639H993.783V237.572H1004.97ZM999.361 239.637C1002 239.637 1003.59 240.443 1003.59 241.865C1003.59 243.301 1002 244.107 999.361 244.107C996.709 244.107 995.109 243.301 995.109 241.865C995.109 240.443 996.709 239.637 999.361 239.637ZM999.361 240.648C997.488 240.662 996.422 241.072 996.422 241.865C996.422 242.645 997.488 243.109 999.361 243.109C1001.21 243.109 1002.29 242.645 1002.29 241.865C1002.29 241.072 1001.21 240.662 999.361 240.648ZM1017.07 237.873V238.912H1005.88V237.873H1010.85V236.574H1007.28V232.473H1015.69V233.498H1008.56V235.535H1015.77V236.574H1012.1V237.873H1017.07ZM1011.46 239.705C1014.1 239.705 1015.69 240.512 1015.69 241.934C1015.69 243.355 1014.1 244.148 1011.46 244.162C1008.81 244.148 1007.21 243.355 1007.21 241.934C1007.21 240.512 1008.81 239.705 1011.46 239.705ZM1011.46 240.717C1009.59 240.717 1008.52 241.154 1008.52 241.934C1008.52 242.713 1009.59 243.15 1011.46 243.137C1013.31 243.15 1014.39 242.713 1014.39 241.934C1014.39 241.154 1013.31 240.717 1011.46 240.717ZM1029.19 241.605V242.699H1017.98V241.605H1022.92V239.459H1019.35V235.562H1026.54V233.84H1019.32V232.773H1027.83V236.602H1020.63V238.393H1028.11V239.459H1024.2V241.605H1029.19ZM1034.65 243L1034.63 241.92L1037.85 238.447C1038.86 237.34 1039.39 236.711 1039.41 235.822C1039.39 234.824 1038.65 234.223 1037.7 234.223C1036.7 234.223 1036.04 234.893 1036.04 235.973H1034.65C1034.63 234.168 1035.95 232.965 1037.74 232.965C1039.53 232.965 1040.79 234.168 1040.8 235.781C1040.79 236.875 1040.31 237.75 1038.57 239.596L1036.67 241.633V241.715H1040.95V243H1034.65ZM1043.86 240.402C1043.95 241.332 1044.74 241.838 1045.75 241.838C1046.83 241.838 1047.66 241.25 1047.66 240.143C1047.66 239.131 1047.01 238.311 1045.45 238.311H1044.56V237.189L1046.84 234.482V234.387H1042.84V233.102H1048.79V234.168L1046.24 237.176V237.271C1048.01 237.408 1049.14 238.666 1049.13 240.184C1049.14 241.906 1047.72 243.137 1045.74 243.137C1043.9 243.137 1042.47 242.084 1042.37 240.402H1043.86ZM1053.83 243.137C1051.79 243.137 1050.38 241.961 1050.38 240.361C1050.38 239.145 1051.19 238.092 1052.33 237.873V237.805C1051.34 237.545 1050.74 236.656 1050.74 235.604C1050.74 234.086 1052.04 232.965 1053.83 232.965C1055.61 232.965 1056.91 234.1 1056.92 235.604C1056.91 236.656 1056.29 237.545 1055.32 237.805V237.873C1056.46 238.092 1057.26 239.145 1057.28 240.361C1057.26 241.961 1055.84 243.137 1053.83 243.137ZM1053.83 241.893C1055.02 241.893 1055.79 241.236 1055.79 240.252C1055.79 239.213 1054.95 238.488 1053.83 238.488C1052.7 238.488 1051.86 239.213 1051.88 240.252C1051.86 241.236 1052.63 241.893 1053.83 241.893ZM1053.83 237.299C1054.77 237.299 1055.47 236.684 1055.48 235.74C1055.47 234.797 1054.8 234.195 1053.83 234.195C1052.83 234.195 1052.16 234.797 1052.16 235.74C1052.16 236.684 1052.87 237.299 1053.83 237.299Z" fill="#173E99"/>
</g>
<defs>
<clipPath id="clip0_133_254">
<rect width="344" height="344" fill="white" transform="translate(756 17)"/>
</clipPath>
</defs>
</svg>
