<svg width="1200" height="394" viewBox="0 0 1200 394" fill="none" xmlns="http://www.w3.org/2000/svg">
<rect width="1200" height="394" fill="white"/>
<circle cx="230" cy="197" r="141" fill="#EDF1F5"/>
<circle cx="600" cy="197" r="141" fill="#EDF1F5"/>
<circle cx="970" cy="197" r="141" fill="#EDF1F5"/>
<path d="M181.66 106.084C181.66 109.673 183.491 113.506 187.227 115.068L185.542 117.51C182.917 116.399 181.111 114.189 180.122 111.479C179.109 114.421 177.266 116.863 174.653 118.071L172.871 115.605C176.558 113.97 178.462 109.844 178.462 106.084V104.717H173.75V102.178H186.299V104.717H181.66V106.084ZM191.646 100.029V122.246H188.496V100.029H191.646ZM212.178 100.029V108.721H215.449V111.284H212.178V122.246H209.102V100.029H212.178ZM207.588 103.35V105.84H194.526V103.35H199.556V100.371H202.681V103.35H207.588ZM201.118 107.085C204.365 107.085 206.782 109.282 206.782 112.383C206.782 115.483 204.365 117.681 201.118 117.681C197.847 117.681 195.43 115.483 195.43 112.383C195.43 109.282 197.847 107.085 201.118 107.085ZM201.118 109.6C199.556 109.624 198.408 110.674 198.408 112.383C198.408 114.116 199.556 115.142 201.118 115.117C202.681 115.142 203.804 114.116 203.804 112.383C203.804 110.674 202.681 109.624 201.118 109.6ZM224.434 104.424C224.434 106.401 226.167 108.428 229.756 109.136L228.389 111.504C225.789 110.955 223.958 109.685 222.944 108.013C221.943 109.856 220.088 111.26 217.378 111.87L216.06 109.502C219.648 108.672 221.333 106.572 221.333 104.424V104.351H216.865V101.885H221.333V99.9316H224.482V101.885H228.926V104.351H224.434V104.424ZM234.98 100.029V111.577H231.88V107.695H228.34V105.229H231.88V100.029H234.98ZM234.98 112.383V118.34H223.335V119.707H235.64V122.1H220.21V116.069H231.88V114.751H220.186V112.383H234.98ZM262.837 100.029V109.062H265.742V111.65H262.837V122.246H259.688V100.029H262.837ZM244.795 115.972C246.418 115.972 248.311 115.972 250.288 115.923V114.019C247.92 113.555 246.382 112.053 246.406 109.99C246.382 107.5 248.628 105.815 251.875 105.815C255.049 105.815 257.319 107.5 257.344 109.99C257.319 112.053 255.757 113.567 253.413 114.019V115.801C255.171 115.715 256.941 115.569 258.589 115.337L258.784 117.607C254.048 118.486 248.97 118.511 245.21 118.511L244.795 115.972ZM258.418 102.495V104.937H245.234V102.495H250.288V100.151H253.413V102.495H258.418ZM251.875 108.184C250.361 108.184 249.336 108.843 249.36 109.99C249.336 111.162 250.361 111.797 251.875 111.797C253.34 111.797 254.341 111.162 254.341 109.99C254.341 108.843 253.34 108.184 251.875 108.184ZM286.055 100.029V122.246H283.076V111.113H281.196V121.221H278.242V114.849L276.484 117.192C274.421 116.106 273.091 114.263 272.31 111.968C271.565 114.604 270.247 116.741 268.135 117.998L266.206 115.605C269.575 113.701 270.723 109.771 270.723 105.522V104.814H266.963V102.324H277.144V104.814H273.75V105.522C273.75 109.392 274.897 113.079 278.242 114.8V100.347H281.196V108.574H283.076V100.029H286.055Z" fill="#173E99"/>
<path d="M587.353 100.054V112.578H584.228V100.054H587.353ZM587.353 113.604V122.002H572.46V113.604H587.353ZM575.537 116.069V119.512H584.301V116.069H575.537ZM577.27 103.008C577.246 105.718 578.881 108.281 582.47 109.404L580.957 111.772C578.417 111.028 576.66 109.49 575.659 107.5C574.646 109.661 572.839 111.37 570.19 112.188L568.676 109.746C572.387 108.623 574.023 105.791 574.023 103.008V100.859H577.27V103.008ZM609.082 100.029V113.213H605.981V107.964H602.514V105.449H605.981V100.029H609.082ZM601.489 113.701C606.225 113.726 609.13 115.288 609.155 117.998C609.13 120.684 606.225 122.271 601.489 122.271C596.752 122.271 593.847 120.684 593.847 117.998C593.847 115.288 596.752 113.726 601.489 113.701ZM601.489 116.094C598.535 116.094 596.948 116.704 596.948 117.998C596.948 119.268 598.535 119.902 601.489 119.902C604.443 119.902 606.054 119.268 606.054 117.998C606.054 116.704 604.443 116.094 601.489 116.094ZM603.173 101.372V103.862H598.754C598.828 106.45 600.39 109.062 603.857 110.21L602.319 112.651C599.865 111.858 598.181 110.247 597.216 108.232C596.228 110.503 594.458 112.334 591.821 113.237L590.209 110.771C593.859 109.551 595.495 106.646 595.581 103.862H591.113V101.372H603.173ZM620.581 106.084C620.581 109.673 622.412 113.506 626.147 115.068L624.462 117.51C621.838 116.399 620.031 114.189 619.042 111.479C618.029 114.421 616.186 116.863 613.574 118.071L611.792 115.605C615.478 113.97 617.382 109.844 617.382 106.084V104.717H612.67V102.178H625.219V104.717H620.581V106.084ZM630.566 100.029V122.246H627.417V100.029H630.566Z" fill="#173E99"/>
<path d="M898.662 100.029V108.281H901.933V110.82H898.662V122.295H895.537V100.029H898.662ZM892.436 102.08V104.595H885.112V114.336C888.334 114.299 890.996 114.153 893.95 113.628L894.292 116.24C890.849 116.826 887.822 116.924 883.891 116.899H882.011V102.08H892.436ZM923.002 110.112V112.627H914.409V114.263C918.278 114.556 920.561 115.947 920.585 118.242C920.561 120.806 917.656 122.246 912.846 122.246C907.963 122.246 905.058 120.806 905.058 118.242C905.058 115.935 907.365 114.543 911.308 114.263V112.627H902.739V110.112H923.002ZM912.846 116.558C909.77 116.582 908.208 117.119 908.232 118.242C908.208 119.316 909.77 119.902 912.846 119.902C915.849 119.902 917.436 119.316 917.46 118.242C917.436 117.119 915.849 116.582 912.846 116.558ZM921.171 100.981V103.423H915.141C915.666 104.985 917.924 106.487 922.148 106.841L921.049 109.282C916.862 108.879 914.03 107.292 912.846 105.132C911.674 107.292 908.891 108.879 904.667 109.282L903.642 106.841C907.756 106.487 910.026 104.973 910.6 103.423H904.594V100.981H921.171ZM942.949 100.029V122.295H939.799V100.029H942.949ZM930.888 101.592C934.233 101.592 936.723 104.668 936.723 109.502C936.723 114.385 934.233 117.437 930.888 117.437C927.47 117.437 924.98 114.385 925.004 109.502C924.98 104.668 927.47 101.592 930.888 101.592ZM930.888 104.399C929.155 104.399 928.007 106.206 928.007 109.502C928.007 112.822 929.155 114.604 930.888 114.604C932.573 114.604 933.72 112.822 933.72 109.502C933.72 106.206 932.573 104.399 930.888 104.399ZM966.215 110.552V113.042H945.952V110.552H950.517V107.891C948.894 107.17 947.978 106.072 947.978 104.644C947.978 101.958 951.127 100.347 956.083 100.347C960.991 100.347 964.14 101.958 964.165 104.644C964.152 106.084 963.2 107.207 961.552 107.915V110.552H966.215ZM956.059 114.214C960.869 114.214 963.774 115.63 963.798 118.193C963.774 120.806 960.869 122.222 956.059 122.222C951.176 122.222 948.271 120.806 948.271 118.193C948.271 115.63 951.176 114.214 956.059 114.214ZM956.059 116.558C952.983 116.558 951.42 117.095 951.445 118.193C951.42 119.341 952.983 119.902 956.059 119.902C959.062 119.902 960.649 119.341 960.673 118.193C960.649 117.095 959.062 116.558 956.059 116.558ZM956.083 102.739C952.934 102.739 951.201 103.398 951.225 104.644C951.201 105.864 952.934 106.475 956.083 106.475C959.184 106.475 960.942 105.864 960.942 104.644C960.942 103.398 959.184 102.739 956.083 102.739ZM953.667 110.552H958.452V108.696C957.719 108.782 956.926 108.818 956.083 108.818C955.217 108.818 954.411 108.782 953.667 108.672V110.552ZM976.201 105.059C976.201 109.136 978.056 113.237 981.816 114.824L979.985 117.314C977.446 116.167 975.688 113.958 974.687 111.211C973.674 114.202 971.855 116.619 969.145 117.852L967.265 115.264C971.147 113.628 973.027 109.38 973.051 105.059V101.738H976.201V105.059ZM986.162 100.029V122.295H983.012V100.029H986.162ZM1007.89 100.029V111.333H1004.79V105.815H1000.61V103.35H1004.79V100.029H1007.89ZM1007.89 112.261V118.193H996.22V119.561H1008.52V122.002H993.144V115.923H1004.81V114.653H993.12V112.261H1007.89ZM997.49 102.373C997.465 105.034 999.028 107.598 1002.57 108.647L1000.93 111.04C998.552 110.271 996.892 108.782 995.927 106.865C994.963 109.001 993.205 110.686 990.605 111.504L988.994 109.038C992.68 107.964 994.316 105.254 994.34 102.373V100.762H997.49V102.373ZM1035.75 100.029V109.062H1038.65V111.65H1035.75V122.246H1032.6V100.029H1035.75ZM1017.7 115.972C1019.33 115.972 1021.22 115.972 1023.2 115.923V114.019C1020.83 113.555 1019.29 112.053 1019.32 109.99C1019.29 107.5 1021.54 105.815 1024.78 105.815C1027.96 105.815 1030.23 107.5 1030.25 109.99C1030.23 112.053 1028.67 113.567 1026.32 114.019V115.801C1028.08 115.715 1029.85 115.569 1031.5 115.337L1031.69 117.607C1026.96 118.486 1021.88 118.511 1018.12 118.511L1017.7 115.972ZM1031.33 102.495V104.937H1018.14V102.495H1023.2V100.151H1026.32V102.495H1031.33ZM1024.78 108.184C1023.27 108.184 1022.25 108.843 1022.27 109.99C1022.25 111.162 1023.27 111.797 1024.78 111.797C1026.25 111.797 1027.25 111.162 1027.25 109.99C1027.25 108.843 1026.25 108.184 1024.78 108.184ZM1058.96 100.029V122.246H1055.99V111.113H1054.11V121.221H1051.15V114.849L1049.39 117.192C1047.33 116.106 1046 114.263 1045.22 111.968C1044.47 114.604 1043.16 116.741 1041.04 117.998L1039.12 115.605C1042.48 113.701 1043.63 109.771 1043.63 105.522V104.814H1039.87V102.324H1050.05V104.814H1046.66V105.522C1046.66 109.392 1047.81 113.079 1051.15 114.8V100.347H1054.11V108.574H1055.99V100.029H1058.96Z" fill="#173E99"/>
<path d="M202.278 287.039C202.425 289.871 204.817 291.385 207.796 291.434C210.872 291.385 213.216 289.627 213.216 286.404C213.216 283.328 211.116 281.229 206.917 281.229H203.206V276.248L210.384 268.045V267.654H196.907V261.648H219.271V266.824L210.677 276.395V276.883C217.366 277.762 220.394 282.254 220.394 286.893C220.394 293.143 215.022 297.488 207.796 297.488C200.618 297.488 195.491 293.289 195.296 287.039H202.278ZM264.241 279.861V284.744H247.493V291.922H241.341V284.744H223.567V279.861H264.241ZM259.749 295.73V300.711H228.353V288.406H234.505V295.73H259.749ZM234.944 258.475V263.113H252.767V258.475H258.968V276.736H228.792V258.475H234.944ZM234.944 271.805H252.767V267.752H234.944V271.805Z" fill="#5286FF"/>
<path d="M564.808 290.75V285.037L576.868 261.648H583.948L572.132 284.598V284.842H580.286V274.881H587.122V284.842H591.224V290.75H587.122V297H580.14V290.75H564.808ZM634.241 279.861V284.744H617.493V291.922H611.341V284.744H593.567V279.861H634.241ZM629.749 295.73V300.711H598.353V288.406H604.505V295.73H629.749ZM604.944 258.475V263.113H622.767V258.475H628.968V276.736H598.792V258.475H604.944ZM604.944 271.805H622.767V267.752H604.944V271.805Z" fill="#5286FF"/>
<path d="M948.089 297.488C941.253 297.488 936.272 293.143 936.126 287.039H942.864C943.011 289.92 945.354 291.678 948.089 291.678C951.312 291.678 953.753 289.236 953.753 285.428C953.753 281.57 951.263 279.08 947.942 279.031C945.647 279.031 944.036 279.812 942.913 282.01H936.614L938.372 261.648H958.636V267.654H944.622L943.792 276.59H944.036C945.013 274.979 946.966 273.611 950.042 273.611C956.146 273.611 960.394 278.494 960.394 285.232C960.394 292.459 955.267 297.488 948.089 297.488ZM1004.24 279.861V284.744H987.493V291.922H981.341V284.744H963.567V279.861H1004.24ZM999.749 295.73V300.711H968.353V288.406H974.505V295.73H999.749ZM974.944 258.475V263.113H992.767V258.475H998.968V276.736H968.792V258.475H974.944ZM974.944 271.805H992.767V267.752H974.944V271.805Z" fill="#5286FF"/>
<mask id="mask0_131_32" style="mask-type:alpha" maskUnits="userSpaceOnUse" x="178" y="139" width="104" height="104">
<rect x="178" y="139" width="104" height="104" fill="#D9D9D9"/>
</mask>
<g mask="url(#mask0_131_32)">
<path d="M204 228.665V224.357L210.5 220.048C206.239 220.048 202.646 218.594 199.721 215.686C196.796 212.778 195.333 209.206 195.333 204.97V164.042C195.333 158.082 198.114 153.72 203.675 150.956C209.236 148.192 218.011 146.809 230 146.809C242.422 146.809 251.306 148.138 256.65 150.794C261.994 153.451 264.667 157.867 264.667 164.042V204.97C264.667 209.206 263.204 212.778 260.279 215.686C257.354 218.594 253.761 220.048 249.5 220.048L256 224.357V228.665H204ZM204 181.275H225.667V168.35H204V181.275ZM234.333 181.275H256V168.35H234.333V181.275ZM214.833 207.124C216.639 207.124 218.174 206.496 219.437 205.239C220.701 203.982 221.333 202.457 221.333 200.662C221.333 198.867 220.701 197.341 219.437 196.084C218.174 194.828 216.639 194.199 214.833 194.199C213.028 194.199 211.493 194.828 210.229 196.084C208.965 197.341 208.333 198.867 208.333 200.662C208.333 202.457 208.965 203.982 210.229 205.239C211.493 206.496 213.028 207.124 214.833 207.124ZM245.167 207.124C246.972 207.124 248.507 206.496 249.771 205.239C251.035 203.982 251.667 202.457 251.667 200.662C251.667 198.867 251.035 197.341 249.771 196.084C248.507 194.828 246.972 194.199 245.167 194.199C243.361 194.199 241.826 194.828 240.562 196.084C239.299 197.341 238.667 198.867 238.667 200.662C238.667 202.457 239.299 203.982 240.562 205.239C241.826 206.496 243.361 207.124 245.167 207.124ZM210.5 211.432H249.5C251.378 211.432 252.931 210.822 254.158 209.601C255.386 208.38 256 206.837 256 204.97V189.891H204V204.97C204 206.837 204.614 208.38 205.842 209.601C207.069 210.822 208.622 211.432 210.5 211.432ZM230 155.426C223.789 155.426 218.643 155.785 214.562 156.503C210.482 157.221 207.611 158.298 205.95 159.734H254.483C253.183 158.298 250.493 157.221 246.412 156.503C242.332 155.785 236.861 155.426 230 155.426Z" fill="#173E99"/>
</g>
<mask id="mask1_131_32" style="mask-type:alpha" maskUnits="userSpaceOnUse" x="548" y="139" width="104" height="104">
<rect x="548" y="139" width="104" height="104" fill="#D9D9D9"/>
</mask>
<g mask="url(#mask1_131_32)">
<path d="M580.5 152C584.256 152 587.831 152.794 591.225 154.383C594.619 155.972 597.544 158.211 600 161.1C602.456 158.211 605.381 155.972 608.775 154.383C612.169 152.794 615.744 152 619.5 152C626.289 152 631.958 154.275 636.508 158.825C641.058 163.375 643.333 169.044 643.333 175.833C643.333 176.194 643.315 176.556 643.279 176.917C643.243 177.278 643.225 177.639 643.225 178H634.558C634.631 177.639 634.667 177.278 634.667 176.917V175.833C634.667 171.5 633.222 167.889 630.333 165C627.444 162.111 623.833 160.667 619.5 160.667C616.106 160.667 612.964 161.624 610.075 163.538C607.186 165.451 605.2 167.889 604.117 170.85H595.883C594.8 167.889 592.814 165.451 589.925 163.538C587.036 161.624 583.894 160.667 580.5 160.667C576.167 160.667 572.556 162.111 569.667 165C566.778 167.889 565.333 171.5 565.333 175.833V176.917C565.333 177.278 565.369 177.639 565.442 178H556.775C556.775 177.639 556.757 177.278 556.721 176.917C556.685 176.556 556.667 176.194 556.667 175.833C556.667 169.044 558.942 163.375 563.492 158.825C568.042 154.275 573.711 152 580.5 152ZM570.967 204H583.1C585.411 206.239 587.939 208.658 590.683 211.258C593.428 213.858 596.533 216.711 600 219.817C603.467 216.711 606.572 213.858 609.317 211.258C612.061 208.658 614.589 206.239 616.9 204H629.142C626.397 207.033 623.147 210.319 619.392 213.858C615.636 217.397 611.267 221.406 606.283 225.883L600 231.517L593.717 225.883C588.733 221.406 584.382 217.397 580.663 213.858C576.943 210.319 573.711 207.033 570.967 204ZM595.883 208.333C596.822 208.333 597.635 208.063 598.321 207.521C599.007 206.979 599.494 206.275 599.783 205.408L605.633 187.75L609.425 193.383C609.786 193.961 610.292 194.431 610.942 194.792C611.592 195.153 612.278 195.333 613 195.333H647.667V186.667H615.492L608.017 175.617C607.583 174.967 607.024 174.479 606.338 174.154C605.651 173.829 604.911 173.667 604.117 173.667C603.178 173.667 602.365 173.938 601.679 174.479C600.993 175.021 600.506 175.725 600.217 176.592L594.367 194.142L590.683 188.617C590.322 188.039 589.817 187.569 589.167 187.208C588.517 186.847 587.831 186.667 587.108 186.667H552.333V195.333H584.508L591.983 206.383C592.417 207.033 592.976 207.521 593.663 207.846C594.349 208.171 595.089 208.333 595.883 208.333Z" fill="#173E99"/>
</g>
<mask id="mask2_131_32" style="mask-type:alpha" maskUnits="userSpaceOnUse" x="918" y="139" width="104" height="104">
<rect x="918" y="139" width="104" height="104" fill="#D9D9D9"/>
</mask>
<g mask="url(#mask2_131_32)">
<path d="M931 228.665V168.35H948.333V151.118H991.667V185.583H1009V228.665H974.333V211.432H965.667V228.665H931ZM939.667 220.048H948.333V211.432H939.667V220.048ZM939.667 202.816H948.333V194.199H939.667V202.816ZM939.667 185.583H948.333V176.967H939.667V185.583ZM957 202.816H965.667V194.199H957V202.816ZM957 185.583H965.667V176.967H957V185.583ZM957 168.35H965.667V159.734H957V168.35ZM974.333 202.816H983V194.199H974.333V202.816ZM974.333 185.583H983V176.967H974.333V185.583ZM974.333 168.35H983V159.734H974.333V168.35ZM991.667 220.048H1000.33V211.432H991.667V220.048ZM991.667 202.816H1000.33V194.199H991.667V202.816Z" fill="#173E99"/>
</g>
</svg>
