<svg width="55" height="55" viewBox="0 0 55 55" fill="none" xmlns="http://www.w3.org/2000/svg">
<g filter="url(#filter0_i_176_7093)">
<rect width="55" height="55" rx="10" fill="#5286FF"/>
</g>
<mask id="mask0_176_7093" style="mask-type:alpha" maskUnits="userSpaceOnUse" x="11" y="10" width="34" height="34">
<rect x="11" y="10" width="34" height="34" fill="white"/>
</mask>
<g mask="url(#mask0_176_7093)">
<path d="M28.0001 41.1667C26.2293 41.1667 24.5706 40.8302 23.0241 40.1573C21.4775 39.4844 20.1317 38.5753 18.9866 37.4302C17.8414 36.2851 16.9324 34.9392 16.2595 33.3927C15.5866 31.8462 15.2501 30.1875 15.2501 28.4167C15.2501 26.6458 15.5866 24.9871 16.2595 23.4406C16.9324 21.8941 17.8414 20.5483 18.9866 19.4031C20.1317 18.258 21.4775 17.349 23.0241 16.676C24.5706 16.0031 26.2293 15.6667 28.0001 15.6667C29.7709 15.6667 31.4296 16.0031 32.9761 16.676C34.5227 17.349 35.8685 18.258 37.0136 19.4031C38.1588 20.5483 39.0678 21.8941 39.7407 23.4406C40.4136 24.9871 40.7501 26.6458 40.7501 28.4167C40.7501 30.1875 40.4136 31.8462 39.7407 33.3927C39.0678 34.9392 38.1588 36.2851 37.0136 37.4302C35.8685 38.5753 34.5227 39.4844 32.9761 40.1573C31.4296 40.8302 29.7709 41.1667 28.0001 41.1667ZM31.9668 34.3667L33.9501 32.3833L29.4168 27.85V21.3333H26.5834V28.9833L31.9668 34.3667ZM18.9334 13.3292L20.9168 15.3125L14.8959 21.3333L12.9126 19.35L18.9334 13.3292ZM37.0668 13.3292L43.0876 19.35L41.1043 21.3333L35.0834 15.3125L37.0668 13.3292Z" fill="white"/>
</g>
<defs>
<filter id="filter0_i_176_7093" x="0" y="0" width="57" height="59" filterUnits="userSpaceOnUse" color-interpolation-filters="sRGB">
<feFlood flood-opacity="0" result="BackgroundImageFix"/>
<feBlend mode="normal" in="SourceGraphic" in2="BackgroundImageFix" result="shape"/>
<feColorMatrix in="SourceAlpha" type="matrix" values="0 0 0 0 0 0 0 0 0 0 0 0 0 0 0 0 0 0 127 0" result="hardAlpha"/>
<feMorphology radius="2" operator="erode" in="SourceAlpha" result="effect1_innerShadow_176_7093"/>
<feOffset dx="2" dy="4"/>
<feGaussianBlur stdDeviation="3.85"/>
<feComposite in2="hardAlpha" operator="arithmetic" k2="-1" k3="1"/>
<feColorMatrix type="matrix" values="0 0 0 0 0 0 0 0 0 0 0 0 0 0 0 0 0 0 0.25 0"/>
<feBlend mode="normal" in2="shape" result="effect1_innerShadow_176_7093"/>
</filter>
</defs>
</svg>
