<svg width="55" height="55" viewBox="0 0 55 55" fill="none" xmlns="http://www.w3.org/2000/svg">
<g filter="url(#filter0_i_178_122)">
<rect width="55" height="55" rx="10" fill="#5286FF"/>
</g>
<mask id="mask0_178_122" style="mask-type:alpha" maskUnits="userSpaceOnUse" x="7" y="7" width="40" height="40">
<rect x="7" y="7" width="40" height="40" fill="#D9D9D9"/>
</mask>
<g mask="url(#mask0_178_122)">
<path d="M20.25 36.2C19.8392 36.2 19.4948 36.061 19.2169 35.7831C18.939 35.5052 18.8 35.1608 18.8 34.75V31.85H37.65V18.8H40.55C40.9608 18.8 41.3052 18.939 41.5831 19.2169C41.861 19.4948 42 19.8392 42 20.25V42L36.2 36.2H20.25ZM13 34.75V14.45C13 14.0392 13.139 13.6948 13.4169 13.4169C13.6948 13.139 14.0392 13 14.45 13H33.3C33.7108 13 34.0552 13.139 34.3331 13.4169C34.611 13.6948 34.75 14.0392 34.75 14.45V27.5C34.75 27.9108 34.611 28.2552 34.3331 28.5331C34.0552 28.811 33.7108 28.95 33.3 28.95H18.8L13 34.75Z" fill="white"/>
</g>
<defs>
<filter id="filter0_i_178_122" x="0" y="0" width="57" height="59" filterUnits="userSpaceOnUse" color-interpolation-filters="sRGB">
<feFlood flood-opacity="0" result="BackgroundImageFix"/>
<feBlend mode="normal" in="SourceGraphic" in2="BackgroundImageFix" result="shape"/>
<feColorMatrix in="SourceAlpha" type="matrix" values="0 0 0 0 0 0 0 0 0 0 0 0 0 0 0 0 0 0 127 0" result="hardAlpha"/>
<feMorphology radius="2" operator="erode" in="SourceAlpha" result="effect1_innerShadow_178_122"/>
<feOffset dx="2" dy="4"/>
<feGaussianBlur stdDeviation="3.85"/>
<feComposite in2="hardAlpha" operator="arithmetic" k2="-1" k3="1"/>
<feColorMatrix type="matrix" values="0 0 0 0 0 0 0 0 0 0 0 0 0 0 0 0 0 0 0.25 0"/>
<feBlend mode="normal" in2="shape" result="effect1_innerShadow_178_122"/>
</filter>
</defs>
</svg>
