<svg width="55" height="55" viewBox="0 0 55 55" fill="none" xmlns="http://www.w3.org/2000/svg">
<g filter="url(#filter0_i_178_104)">
<rect width="55" height="55" rx="10" fill="#5286FF"/>
</g>
<mask id="mask0_178_104" style="mask-type:alpha" maskUnits="userSpaceOnUse" x="7" y="7" width="40" height="40">
<rect x="7" y="7" width="40" height="40" fill="#D9D9D9"/>
</mask>
<g mask="url(#mask0_178_104)">
<path d="M35.3334 35.3333C36.0279 35.3333 36.6181 35.0903 37.1042 34.6041C37.5904 34.118 37.8334 33.5278 37.8334 32.8333C37.8334 32.1389 37.5904 31.5486 37.1042 31.0625C36.6181 30.5764 36.0279 30.3333 35.3334 30.3333C34.639 30.3333 34.0487 30.5764 33.5626 31.0625C33.0765 31.5486 32.8334 32.1389 32.8334 32.8333C32.8334 33.5278 33.0765 34.118 33.5626 34.6041C34.0487 35.0903 34.639 35.3333 35.3334 35.3333ZM35.3334 40.3333C36.1945 40.3333 36.9862 40.1319 37.7084 39.7291C38.4306 39.3264 39.014 38.7916 39.4584 38.125C38.8473 37.7639 38.1945 37.4861 37.5001 37.2916C36.8056 37.0972 36.0834 37 35.3334 37C34.5834 37 33.8612 37.0972 33.1667 37.2916C32.4723 37.4861 31.8195 37.7639 31.2084 38.125C31.6529 38.7916 32.2362 39.3264 32.9584 39.7291C33.6806 40.1319 34.4723 40.3333 35.3334 40.3333ZM35.3334 43.6666C33.0279 43.6666 31.0626 42.8541 29.4376 41.2291C27.8126 39.6041 27.0001 37.6389 27.0001 35.3333C27.0001 33.0278 27.8126 31.0625 29.4376 29.4375C31.0626 27.8125 33.0279 27 35.3334 27C37.639 27 39.6042 27.8125 41.2292 29.4375C42.8542 31.0625 43.6667 33.0278 43.6667 35.3333C43.6667 37.6389 42.8542 39.6041 41.2292 41.2291C39.6042 42.8541 37.639 43.6666 35.3334 43.6666ZM27.0001 43.6666C23.139 42.6944 19.9515 40.4791 17.4376 37.0208C14.9237 33.5625 13.6667 29.7222 13.6667 25.5V15.3333L27.0001 10.3333L40.3334 15.3333V24.7916C39.6112 24.4305 38.7987 24.1528 37.8959 23.9583C36.9931 23.7639 36.139 23.6666 35.3334 23.6666C32.1112 23.6666 29.3612 24.8055 27.0834 27.0833C24.8056 29.3611 23.6667 32.1111 23.6667 35.3333C23.6667 37.0555 23.9931 38.6111 24.6459 40C25.2987 41.3889 26.1251 42.5972 27.1251 43.625C27.0973 43.625 27.0765 43.6319 27.0626 43.6458C27.0487 43.6597 27.0279 43.6666 27.0001 43.6666Z" fill="white"/>
</g>
<defs>
<filter id="filter0_i_178_104" x="0" y="0" width="57" height="59" filterUnits="userSpaceOnUse" color-interpolation-filters="sRGB">
<feFlood flood-opacity="0" result="BackgroundImageFix"/>
<feBlend mode="normal" in="SourceGraphic" in2="BackgroundImageFix" result="shape"/>
<feColorMatrix in="SourceAlpha" type="matrix" values="0 0 0 0 0 0 0 0 0 0 0 0 0 0 0 0 0 0 127 0" result="hardAlpha"/>
<feMorphology radius="2" operator="erode" in="SourceAlpha" result="effect1_innerShadow_178_104"/>
<feOffset dx="2" dy="4"/>
<feGaussianBlur stdDeviation="3.85"/>
<feComposite in2="hardAlpha" operator="arithmetic" k2="-1" k3="1"/>
<feColorMatrix type="matrix" values="0 0 0 0 0 0 0 0 0 0 0 0 0 0 0 0 0 0 0.25 0"/>
<feBlend mode="normal" in2="shape" result="effect1_innerShadow_178_104"/>
</filter>
</defs>
</svg>
