<svg width="1200" height="161" viewBox="0 0 1200 161" fill="none" xmlns="http://www.w3.org/2000/svg">
<rect width="1200" height="161" fill="white"/>
<rect x="197" y="31" width="198" height="101" rx="18" fill="#EDF1F5"/>
<path d="M229.94 89.5859V104.345H228.629V89.5859H229.94ZM225.574 91.1963C225.558 95.4463 223.582 99.1982 218.635 101.572L217.921 100.51C221.914 98.6172 223.947 95.7866 224.246 92.2588H218.602V91.1963H225.574ZM243.969 89.6025V94.4668H246.193V95.5625H243.969V100.659H242.674V89.6025H243.969ZM241.263 91.4121V92.4746H232.464V91.4121H236.216V89.6025H237.511V91.4121H241.263ZM236.863 93.2881C238.972 93.2881 240.399 94.3672 240.416 96.0439C240.399 97.7041 238.972 98.7666 236.863 98.7666C234.738 98.7666 233.294 97.7041 233.311 96.0439C233.294 94.3672 234.738 93.2881 236.863 93.2881ZM236.863 94.3174C235.469 94.3174 234.539 94.998 234.556 96.0439C234.539 97.0898 235.469 97.7539 236.863 97.7373C238.241 97.7539 239.171 97.0898 239.188 96.0439C239.171 94.998 238.241 94.3174 236.863 94.3174ZM244.649 102.934V104.029H234.738V99.7793H236.017V102.934H244.649ZM259.358 89.6025V100.51H258.047V96.5254H254.229C253.548 97.397 252.452 97.9199 251.19 97.9199C248.982 97.9199 247.355 96.3926 247.355 94.2344C247.355 92.0762 248.982 90.5488 251.19 90.5322C252.444 90.5405 253.515 91.0552 254.212 91.9102H258.047V89.6025H259.358ZM259.773 102.934V104.029H249.879V99.3643H251.19V102.934H259.773ZM251.19 91.6943C249.68 91.7109 248.601 92.7568 248.601 94.2344C248.601 95.7119 249.68 96.7578 251.19 96.7578C252.635 96.7578 253.747 95.7119 253.747 94.2344C253.747 92.7568 252.635 91.7109 251.19 91.6943ZM254.81 92.9893C254.934 93.3711 255.009 93.7861 255.009 94.2344C255.009 94.666 254.934 95.0728 254.81 95.4463H258.047V92.9893H254.81ZM266.812 92.3916C266.812 94.3174 268.257 96.0439 270.432 96.7578L269.817 97.7871C268.116 97.231 266.829 96.0522 266.198 94.5664C265.559 96.2598 264.198 97.5796 262.43 98.2188L261.766 97.1729C263.974 96.4258 265.518 94.5166 265.534 92.3916V91.7607H262.164V90.6816H270.133V91.7607H266.812V92.3916ZM273.354 89.5859V93.3545H275.578V94.4502H273.354V98.501H272.059V89.5859H273.354ZM268.622 98.8994C271.66 98.8994 273.486 99.8955 273.486 101.589C273.486 103.315 271.66 104.312 268.622 104.312C265.584 104.312 263.725 103.315 263.725 101.589C263.725 99.8955 265.584 98.8994 268.622 98.8994ZM268.622 99.9453C266.397 99.9453 265.02 100.56 265.036 101.589C265.02 102.651 266.397 103.266 268.622 103.266C270.863 103.266 272.225 102.651 272.225 101.589C272.225 100.56 270.863 99.9453 268.622 99.9453ZM288.81 90.5156C288.81 92.3916 291.499 94.085 294.056 94.417L293.574 95.4463C291.316 95.106 289.083 93.9106 288.146 92.2256C287.208 93.9272 284.966 95.106 282.7 95.4463L282.186 94.417C284.792 94.085 287.465 92.4414 287.465 90.5156V89.835H288.81V90.5156ZM294.853 96.6416V97.7041H281.405V96.6416H294.853ZM288.129 99.0986C291.3 99.0986 293.192 100.012 293.209 101.705C293.192 103.382 291.3 104.328 288.129 104.345C284.925 104.328 283.032 103.382 283.032 101.705C283.032 100.012 284.925 99.0986 288.129 99.0986ZM288.129 100.095C285.755 100.111 284.344 100.692 284.36 101.705C284.344 102.734 285.755 103.299 288.129 103.299C290.47 103.299 291.897 102.734 291.897 101.705C291.897 100.692 290.47 100.111 288.129 100.095ZM308.283 89.6025V100.394H306.988V89.6025H308.283ZM308.748 102.934V104.029H298.754V99.2979H300.049V102.934H308.748ZM300.314 90.6318C302.522 90.6318 304.183 92.126 304.183 94.251C304.183 96.4092 302.522 97.8867 300.314 97.8867C298.106 97.8867 296.446 96.4092 296.446 94.251C296.446 92.126 298.106 90.6318 300.314 90.6318ZM300.314 91.7773C298.82 91.7773 297.708 92.8066 297.725 94.251C297.708 95.7285 298.82 96.7412 300.314 96.7412C301.775 96.7412 302.904 95.7285 302.904 94.251C302.904 92.8066 301.775 91.7773 300.314 91.7773ZM322.976 89.6025V100.427H321.681V89.6025H322.976ZM323.44 102.934V104.029H313.446V99.4307H314.741V102.934H323.44ZM316.02 91.9102C316.003 94.1514 317.547 96.1768 319.738 96.9736L319.058 98.0195C317.348 97.3638 316.02 96.0356 315.372 94.334C314.716 96.1436 313.372 97.5962 311.653 98.2852L310.939 97.2725C313.181 96.4092 314.691 94.2344 314.691 91.9102V90.4326H316.02V91.9102ZM330.513 92.7568C330.513 94.5996 332.106 96.2432 334.281 96.8906L333.65 97.9033C331.94 97.397 330.571 96.2764 329.915 94.8154C329.268 96.4341 327.923 97.7041 326.163 98.2852L325.532 97.2891C327.707 96.5586 329.234 94.7656 329.234 92.7568V92.4414H325.897V91.3955H329.234V89.5195H330.546V91.3955H333.85V92.4414H330.513V92.7568ZM337.718 89.5859V98.5342H336.406V94.8984H333.385V93.8193H336.406V89.5859H337.718ZM332.82 98.9326C335.892 98.9326 337.768 99.8955 337.768 101.622C337.768 103.332 335.892 104.312 332.82 104.312C329.749 104.312 327.873 103.332 327.873 101.622C327.873 99.8955 329.749 98.9326 332.82 98.9326ZM332.82 99.9453C330.562 99.9619 329.151 100.576 329.168 101.622C329.151 102.651 330.562 103.282 332.82 103.282C335.095 103.282 336.473 102.651 336.473 101.622C336.473 100.576 335.095 99.9619 332.82 99.9453ZM345.371 93.5537C345.371 96.2266 347.081 98.916 349.223 99.8955L348.442 100.958C346.766 100.095 345.379 98.3267 344.724 96.2266C344.068 98.4346 342.682 100.327 341.005 101.224L340.158 100.178C342.316 99.1152 344.043 96.2764 344.043 93.5537V90.8643H345.371V93.5537ZM352.41 89.5859V104.378H351.115V95.6953H347.612V94.6328H351.115V89.5859H352.41ZM373.229 96.6084V97.7041H359.765V96.6084H373.229ZM371.651 94.1348V95.1973H361.475V90.1836H371.552V91.2793H362.753V94.1348H371.651ZM366.488 98.999C369.659 98.999 371.552 99.9619 371.568 101.655C371.552 103.365 369.659 104.312 366.488 104.312C363.301 104.312 361.392 103.365 361.392 101.655C361.392 99.9619 363.301 98.999 366.488 98.999ZM366.488 100.012C364.114 100.028 362.703 100.626 362.72 101.655C362.703 102.701 364.114 103.282 366.488 103.282C368.829 103.282 370.257 102.701 370.257 101.655C370.257 100.626 368.829 100.028 366.488 100.012Z" fill="#1D1D1D"/>
<path d="M282.061 54.6318V61.9199H274.673V54.6318H282.061ZM276.765 56.3086V60.2432H279.953V56.3086H276.765ZM286.56 53.4365V64.1777H284.435V53.4365H286.56ZM286.958 66.4854V68.1953H276.433V63.1816H278.575V66.4854H286.958ZM301.402 53.4365V64.8418H299.277V63.6465H296.388V62.2021H299.277V53.4365H301.402ZM301.734 66.5684V68.2617H290.478V63.7461H292.586V61.7373C291.233 61.7954 289.947 61.8037 288.801 61.8037L288.552 60.127C291.325 60.1104 295.06 60.0771 298.248 59.6787L298.364 61.1895C297.168 61.3887 295.932 61.5298 294.711 61.6211V64.4932H292.586V66.5684H301.734ZM293.466 53.9512C295.658 53.9346 297.235 55.0469 297.235 56.6572C297.235 58.2676 295.658 59.3135 293.466 59.3135C291.225 59.3135 289.665 58.2676 289.665 56.6572C289.665 55.0469 291.208 53.9346 293.466 53.9512ZM293.466 55.4951C292.387 55.4951 291.657 55.9102 291.673 56.6572C291.657 57.3877 292.387 57.7861 293.466 57.7861C294.479 57.7861 295.209 57.3877 295.226 56.6572C295.209 55.9102 294.479 55.4951 293.466 55.4951ZM315.945 53.4365V64.2939H313.82V53.4365H315.945ZM316.343 66.5684V68.2617H305.818V63.1982H307.959V66.5684H316.343ZM307.661 54.3994C309.985 54.3994 311.794 55.9932 311.794 58.2012C311.794 60.459 309.985 62.0361 307.661 62.0361C305.336 62.0361 303.527 60.459 303.527 58.2012C303.527 55.9932 305.336 54.3994 307.661 54.3994ZM307.661 56.2422C306.482 56.2256 305.585 56.9727 305.602 58.2012C305.585 59.4629 306.482 60.1934 307.661 60.1934C308.806 60.1934 309.703 59.4629 309.703 58.2012C309.703 56.9727 308.806 56.2256 307.661 56.2422Z" fill="#173E99"/>
<rect x="498" y="31" width="198" height="101" rx="18" fill="#EDF1F5"/>
<path d="M580.247 89.5859V98.9326H579.002V94.6992H577.026V98.4014H575.798V89.8848H577.026V93.6201H579.002V89.5859H580.247ZM575.2 91.3623V92.4082H567.63V91.3623H570.784V89.7021H572.079V91.3623H575.2ZM571.432 93.2051C573.308 93.2051 574.586 94.1846 574.603 95.7285C574.586 97.2393 573.308 98.2354 571.432 98.2354C569.572 98.2354 568.261 97.2393 568.277 95.7285C568.261 94.1846 569.572 93.2051 571.432 93.2051ZM571.432 94.168C570.253 94.168 569.439 94.7988 569.439 95.7285C569.439 96.6416 570.253 97.2559 571.432 97.2559C572.61 97.2559 573.424 96.6416 573.424 95.7285C573.424 94.7988 572.61 94.168 571.432 94.168ZM575.366 99.1816C578.471 99.1816 580.33 100.111 580.33 101.771C580.33 103.382 578.471 104.312 575.366 104.312C572.262 104.312 570.402 103.382 570.419 101.771C570.402 100.111 572.262 99.1816 575.366 99.1816ZM575.366 100.211C573.075 100.194 571.697 100.759 571.714 101.771C571.697 102.734 573.075 103.299 575.366 103.299C577.657 103.299 579.019 102.734 579.035 101.771C579.019 100.759 577.657 100.194 575.366 100.211ZM594.641 89.5859V98.3848H593.329V94.5166H590.357V93.4375H593.329V89.5859H594.641ZM589.743 98.8496C592.814 98.8496 594.69 99.8457 594.69 101.589C594.69 103.332 592.814 104.328 589.743 104.345C586.672 104.328 584.796 103.332 584.796 101.589C584.796 99.8457 586.672 98.8496 589.743 98.8496ZM589.743 99.8623C587.485 99.8623 586.074 100.51 586.091 101.589C586.074 102.651 587.485 103.299 589.743 103.299C592.001 103.299 593.396 102.651 593.396 101.589C593.396 100.51 592.001 99.8623 589.743 99.8623ZM587.535 92.292C587.535 94.2178 589.013 96.0439 591.171 96.791L590.49 97.8369C588.83 97.2393 587.543 96.0024 586.921 94.4668C586.273 96.2017 584.904 97.5879 583.152 98.252L582.472 97.2061C584.663 96.4092 586.224 94.417 586.224 92.3086V91.7607H582.887V90.665H590.839V91.7607H587.535V92.292ZM609.3 89.5859V104.345H607.988V89.5859H609.3ZM604.934 91.1963C604.917 95.4463 602.941 99.1982 597.994 101.572L597.28 100.51C601.273 98.6172 603.307 95.7866 603.605 92.2588H597.961V91.1963H604.934ZM619.975 90.7314V91.5117C619.958 92.4746 619.958 93.9521 619.593 95.8779L618.281 95.7783C618.638 94.0103 618.671 92.7568 618.696 91.8271H612.62V90.7314H619.975ZM616.173 94.002V97.1729C617.808 97.1064 619.501 96.9902 621.037 96.7744L621.12 97.7373C618.032 98.2686 614.463 98.335 611.84 98.335L611.707 97.2559C612.662 97.2476 613.741 97.2393 614.878 97.2061V94.002H616.173ZM623.361 89.5859V94.4004H625.52V95.5127H623.361V100.692H622.033V89.5859H623.361ZM623.843 102.934V104.029H613.981V99.6963H615.293V102.934H623.843Z" fill="#1D1D1D"/>
<path d="M575.316 53.4365V64.46H573.191V53.4365H575.316ZM575.715 66.5684V68.2617H565.189V63.3975H567.331V66.5684H575.715ZM568.46 55.7275C568.443 57.7197 569.506 59.6787 571.996 60.4756L570.917 62.1357C569.215 61.5713 568.037 60.4424 567.364 58.998C566.692 60.5503 565.48 61.7954 563.712 62.4014L562.616 60.7246C565.156 59.8779 566.252 57.7695 566.252 55.7275V54.2666H568.46V55.7275ZM585.975 54.9971V56.6572H582.92C582.937 58.2095 584.082 59.7866 586.506 60.4092L585.526 62.0361C583.808 61.6045 582.596 60.6499 581.907 59.4131C581.251 60.8242 580.04 61.9282 578.255 62.4346L577.259 60.791C579.683 60.1021 580.795 58.3755 580.812 56.6572H577.773V54.9971H580.812V53.3535H582.953V54.9971H585.975ZM590.092 53.4199V62.5508H587.983V59.1641H585.526V57.4707H587.983V53.4199H590.092ZM584.929 62.7998C588.149 62.8164 590.125 63.8291 590.142 65.6387C590.125 67.4648 588.149 68.5273 584.929 68.5273C581.725 68.5273 579.732 67.4648 579.732 65.6387C579.732 63.8291 581.725 62.8164 584.929 62.7998ZM584.929 64.4268C582.92 64.4268 581.841 64.8252 581.841 65.6387C581.841 66.4688 582.92 66.917 584.929 66.917C586.971 66.917 588.033 66.4688 588.033 65.6387C588.033 64.8252 586.971 64.4268 584.929 64.4268ZM595.255 65.7715L593.827 70.5029H592.067L592.897 65.7715H595.255ZM609.831 54.1504C609.831 55.7441 611.591 57.5039 614.928 57.8857L614.164 59.5459C611.591 59.2056 609.715 58.1016 608.752 56.6074C607.772 58.1016 605.888 59.1973 603.323 59.5459L602.526 57.8857C605.88 57.5039 607.64 55.7441 607.656 54.1504V53.6523H609.831V54.1504ZM615.625 60.376V62.0361H601.846V60.376H615.625ZM608.719 63.0654C611.989 63.0654 613.965 64.0283 613.981 65.8047C613.965 67.5479 611.989 68.5439 608.719 68.5439C605.398 68.5439 603.423 67.5479 603.423 65.8047C603.423 64.0283 605.398 63.0654 608.719 63.0654ZM608.719 64.6592C606.627 64.6592 605.564 65.0244 605.581 65.8047C605.564 66.585 606.627 66.9336 608.719 66.9336C610.761 66.9336 611.84 66.585 611.856 65.8047C611.84 65.0244 610.761 64.6592 608.719 64.6592ZM629.188 53.4365V64.2939H627.063V53.4365H629.188ZM629.587 66.5684V68.2617H619.062V63.1982H621.203V66.5684H629.587ZM620.904 54.3994C623.229 54.3994 625.038 55.9932 625.038 58.2012C625.038 60.459 623.229 62.0361 620.904 62.0361C618.58 62.0361 616.771 60.459 616.771 58.2012C616.771 55.9932 618.58 54.3994 620.904 54.3994ZM620.904 56.2422C619.726 56.2256 618.829 56.9727 618.846 58.2012C618.829 59.4629 619.726 60.1934 620.904 60.1934C622.05 60.1934 622.946 59.4629 622.946 58.2012C622.946 56.9727 622.05 56.2256 620.904 56.2422Z" fill="#173E99"/>
<rect x="806" y="30" width="198" height="101" rx="18" fill="#EDF1F5"/>
<path d="M848.235 89.5859V104.345H846.924V89.5859H848.235ZM843.869 91.1963C843.853 95.4463 841.877 99.1982 836.93 101.572L836.216 100.51C840.208 98.6172 842.242 95.7866 842.541 92.2588H836.896V91.1963H843.869ZM862.264 89.6025V94.4668H864.488V95.5625H862.264V100.659H860.969V89.6025H862.264ZM859.558 91.4121V92.4746H850.759V91.4121H854.511V89.6025H855.806V91.4121H859.558ZM855.158 93.2881C857.267 93.2881 858.694 94.3672 858.711 96.0439C858.694 97.7041 857.267 98.7666 855.158 98.7666C853.033 98.7666 851.589 97.7041 851.605 96.0439C851.589 94.3672 853.033 93.2881 855.158 93.2881ZM855.158 94.3174C853.764 94.3174 852.834 94.998 852.851 96.0439C852.834 97.0898 853.764 97.7539 855.158 97.7373C856.536 97.7539 857.466 97.0898 857.482 96.0439C857.466 94.998 856.536 94.3174 855.158 94.3174ZM862.944 102.934V104.029H853.033V99.7793H854.312V102.934H862.944ZM877.653 89.6025V100.51H876.342V96.5254H872.523C871.843 97.397 870.747 97.9199 869.485 97.9199C867.277 97.9199 865.65 96.3926 865.65 94.2344C865.65 92.0762 867.277 90.5488 869.485 90.5322C870.739 90.5405 871.81 91.0552 872.507 91.9102H876.342V89.6025H877.653ZM878.068 102.934V104.029H868.174V99.3643H869.485V102.934H878.068ZM869.485 91.6943C867.975 91.7109 866.896 92.7568 866.896 94.2344C866.896 95.7119 867.975 96.7578 869.485 96.7578C870.93 96.7578 872.042 95.7119 872.042 94.2344C872.042 92.7568 870.93 91.7109 869.485 91.6943ZM873.104 92.9893C873.229 93.3711 873.304 93.7861 873.304 94.2344C873.304 94.666 873.229 95.0728 873.104 95.4463H876.342V92.9893H873.104ZM885.107 92.3916C885.107 94.3174 886.552 96.0439 888.727 96.7578L888.112 97.7871C886.411 97.231 885.124 96.0522 884.493 94.5664C883.854 96.2598 882.493 97.5796 880.725 98.2188L880.061 97.1729C882.269 96.4258 883.812 94.5166 883.829 92.3916V91.7607H880.459V90.6816H888.428V91.7607H885.107V92.3916ZM891.648 89.5859V93.3545H893.873V94.4502H891.648V98.501H890.354V89.5859H891.648ZM886.917 98.8994C889.955 98.8994 891.781 99.8955 891.781 101.589C891.781 103.315 889.955 104.312 886.917 104.312C883.879 104.312 882.02 103.315 882.02 101.589C882.02 99.8955 883.879 98.8994 886.917 98.8994ZM886.917 99.9453C884.692 99.9453 883.314 100.56 883.331 101.589C883.314 102.651 884.692 103.266 886.917 103.266C889.158 103.266 890.52 102.651 890.52 101.589C890.52 100.56 889.158 99.9453 886.917 99.9453ZM907.104 90.5156C907.104 92.3916 909.794 94.085 912.351 94.417L911.869 95.4463C909.611 95.106 907.378 93.9106 906.44 92.2256C905.502 93.9272 903.261 95.106 900.995 95.4463L900.48 94.417C903.087 94.085 905.76 92.4414 905.76 90.5156V89.835H907.104V90.5156ZM913.147 96.6416V97.7041H899.7V96.6416H913.147ZM906.424 99.0986C909.595 99.0986 911.487 100.012 911.504 101.705C911.487 103.382 909.595 104.328 906.424 104.345C903.22 104.328 901.327 103.382 901.327 101.705C901.327 100.012 903.22 99.0986 906.424 99.0986ZM906.424 100.095C904.05 100.111 902.639 100.692 902.655 101.705C902.639 102.734 904.05 103.299 906.424 103.299C908.765 103.299 910.192 102.734 910.192 101.705C910.192 100.692 908.765 100.111 906.424 100.095ZM926.578 89.6025V100.394H925.283V89.6025H926.578ZM927.043 102.934V104.029H917.049V99.2979H918.344V102.934H927.043ZM918.609 90.6318C920.817 90.6318 922.478 92.126 922.478 94.251C922.478 96.4092 920.817 97.8867 918.609 97.8867C916.401 97.8867 914.741 96.4092 914.741 94.251C914.741 92.126 916.401 90.6318 918.609 90.6318ZM918.609 91.7773C917.115 91.7773 916.003 92.8066 916.02 94.251C916.003 95.7285 917.115 96.7412 918.609 96.7412C920.07 96.7412 921.199 95.7285 921.199 94.251C921.199 92.8066 920.07 91.7773 918.609 91.7773ZM942.532 97.4219V98.4844H929.068V97.4219H935.145V95.9609H930.861V90.0176H940.855V91.0801H932.173V92.458H940.457V93.4541H932.173V94.915H940.938V95.9609H936.439V97.4219H942.532ZM935.809 99.5967C939.046 99.5801 940.872 100.41 940.889 101.954C940.872 103.498 939.046 104.312 935.809 104.312C932.538 104.312 930.712 103.498 930.712 101.954C930.712 100.41 932.538 99.5801 935.809 99.5967ZM935.809 100.576C933.368 100.576 932.007 101.074 932.023 101.954C932.007 102.851 933.368 103.315 935.809 103.299C938.216 103.315 939.577 102.851 939.577 101.954C939.577 101.074 938.216 100.576 935.809 100.576ZM949.057 94.1182C949.057 96.625 950.883 99.165 953.058 100.111L952.327 101.141C950.601 100.352 949.106 98.6504 948.426 96.6084C947.729 98.7749 946.243 100.659 944.558 101.506L943.777 100.477C945.886 99.4639 947.729 96.6748 947.745 94.1182V92.1924H944.259V91.1133H952.576V92.1924H949.057V94.1182ZM955.946 89.5859V104.345H954.635V89.5859H955.946ZM963.666 93.5537C963.666 96.2266 965.376 98.916 967.518 99.8955L966.737 100.958C965.061 100.095 963.674 98.3267 963.019 96.2266C962.363 98.4346 960.977 100.327 959.3 101.224L958.453 100.178C960.611 99.1152 962.338 96.2764 962.338 93.5537V90.8643H963.666V93.5537ZM970.705 89.5859V104.378H969.41V95.6953H965.907V94.6328H969.41V89.5859H970.705Z" fill="#1D1D1D"/>
<path d="M903.535 60.2061V61.8662H889.723V60.2061H895.566V59.2764H891.449V52.7852H901.925V54.4121H893.574V55.2588H901.576V56.7861H893.574V57.6494H902.058V59.2764H897.691V60.2061H903.535ZM896.629 62.5635C899.966 62.5469 901.875 63.4434 901.892 65.0371C901.875 66.6641 899.966 67.5273 896.629 67.5273C893.242 67.5273 891.333 66.6641 891.333 65.0371C891.333 63.4434 893.242 62.5469 896.629 62.5635ZM896.629 64.124C894.454 64.124 893.441 64.4062 893.458 65.0371C893.441 65.6846 894.454 65.9668 896.629 65.9668C898.754 65.9668 899.75 65.6846 899.767 65.0371C899.75 64.4062 898.754 64.124 896.629 64.124ZM910.309 56.5371C910.309 58.9775 911.554 61.584 914.094 62.6465L912.948 64.3066C911.164 63.5513 909.935 62.0488 909.263 60.2061C908.574 62.2065 907.32 63.8667 905.544 64.6885L904.332 63.0117C906.839 61.8994 908.134 59.0938 908.134 56.5371V55.6074H904.93V53.8809H913.463V55.6074H910.309V56.5371ZM917.099 52.4199V67.5273H914.957V52.4199H917.099Z" fill="#173E99"/>
<path d="M387 81C387 85.4183 390.582 89 395 89C399.418 89 403 85.4183 403 81C403 76.5817 399.418 73 395 73C390.582 73 387 76.5817 387 81ZM505 81L490 72.3397V89.6603L505 81ZM395 82.5H491.5V79.5H395V82.5Z" fill="#5286FF"/>
<path d="M688 82C688 86.4183 691.582 90 696 90C700.418 90 704 86.4183 704 82C704 77.5817 700.418 74 696 74C691.582 74 688 77.5817 688 82ZM806 82L791 73.3397V90.6603L806 82ZM696 83.5H792.5V80.5H696V83.5Z" fill="#5286FF"/>
</svg>
