<svg width="1200" height="161" viewBox="0 0 1200 161" fill="none" xmlns="http://www.w3.org/2000/svg">
<rect width="1200" height="161" fill="white"/>
<rect x="197" y="31" width="198" height="101" rx="18" fill="#EDF1F5"/>
<path d="M234.058 89.5859V95.5957H236.448V96.6914H234.058V104.345H232.763V89.5859H234.058ZM230.239 91.1797C230.239 95.3633 228.28 99.165 223.466 101.539L222.735 100.51C226.554 98.6089 228.629 95.77 228.928 92.2754H223.416V91.1797H230.239ZM242.292 92.375C242.275 94.4004 243.819 96.2764 245.994 97.04L245.33 98.0859C243.653 97.48 242.35 96.2266 241.694 94.6494C241.072 96.4175 239.735 97.7788 237.992 98.4512L237.278 97.4053C239.52 96.6084 240.997 94.6162 241.014 92.3252V90.499H242.292V92.375ZM248.866 89.5859V94.1182H251.091V95.2305H248.866V100.493H247.571V89.5859H248.866ZM249.547 102.934V104.029H239.652V99.4473H240.98V102.934H249.547ZM256.403 93.7861C256.403 96.127 257.549 98.667 259.508 99.8291L258.761 100.842C257.341 99.9785 256.32 98.4014 255.806 96.6084C255.258 98.5674 254.162 100.252 252.685 101.157L251.854 100.178C253.896 98.9824 255.142 96.3594 255.142 93.8359V90.9805H256.403V93.7861ZM264.671 89.5859V104.345H263.409V89.5859H264.671ZM261.616 89.9014V103.598H260.388V95.9941H257.881V94.8818H260.388V89.9014H261.616ZM283.148 89.5859V93.2051H285.373V94.2842H283.148V97.9697H281.854V89.5859H283.148ZM279.114 90.5488C279.098 94.2676 276.491 96.9238 272.125 98.1191L271.594 97.0732C275.229 96.0938 277.446 94.1265 277.72 91.6279H272.258V90.5488H279.114ZM283.148 98.6504V104.146H273.802V98.6504H283.148ZM275.097 99.7295V103.083H281.854V99.7295H275.097ZM293.773 90.8809V92.1924H297.227V89.6025H298.538V100.377H297.227V96.4424H293.773V97.7705H287V90.8809H293.773ZM288.295 91.96V96.7246H292.495V91.96H288.295ZM298.87 102.934V104.029H288.992V99.4141H290.304V102.934H298.87ZM293.773 95.3633H297.227V93.2881H293.773V95.3633ZM319.356 96.6084V97.7041H305.893V96.6084H319.356ZM317.779 94.1348V95.1973H307.603V90.1836H317.68V91.2793H308.881V94.1348H317.779ZM312.616 98.999C315.787 98.999 317.68 99.9619 317.696 101.655C317.68 103.365 315.787 104.312 312.616 104.312C309.429 104.312 307.52 103.365 307.52 101.655C307.52 99.9619 309.429 98.999 312.616 98.999ZM312.616 100.012C310.242 100.028 308.831 100.626 308.848 101.655C308.831 102.701 310.242 103.282 312.616 103.282C314.957 103.282 316.385 102.701 316.385 101.655C316.385 100.626 314.957 100.028 312.616 100.012ZM337.668 89.6025V100.427H336.373V89.6025H337.668ZM338.133 102.934V104.029H328.139V99.4307H329.434V102.934H338.133ZM330.712 91.9102C330.695 94.1514 332.239 96.1768 334.431 96.9736L333.75 98.0195C332.04 97.3638 330.712 96.0356 330.064 94.334C329.409 96.1436 328.064 97.5962 326.346 98.2852L325.632 97.2725C327.873 96.4092 329.384 94.2344 329.384 91.9102V90.4326H330.712V91.9102ZM345.205 92.7568C345.205 94.5996 346.799 96.2432 348.974 96.8906L348.343 97.9033C346.633 97.397 345.263 96.2764 344.607 94.8154C343.96 96.4341 342.615 97.7041 340.855 98.2852L340.225 97.2891C342.399 96.5586 343.927 94.7656 343.927 92.7568V92.4414H340.59V91.3955H343.927V89.5195H345.238V91.3955H348.542V92.4414H345.205V92.7568ZM352.41 89.5859V98.5342H351.099V94.8984H348.077V93.8193H351.099V89.5859H352.41ZM347.513 98.9326C350.584 98.9326 352.46 99.8955 352.46 101.622C352.46 103.332 350.584 104.312 347.513 104.312C344.441 104.312 342.565 103.332 342.565 101.622C342.565 99.8955 344.441 98.9326 347.513 98.9326ZM347.513 99.9453C345.255 99.9619 343.844 100.576 343.86 101.622C343.844 102.651 345.255 103.282 347.513 103.282C349.787 103.282 351.165 102.651 351.165 101.622C351.165 100.576 349.787 99.9619 347.513 99.9453ZM360.063 93.5537C360.063 96.2266 361.773 98.916 363.915 99.8955L363.135 100.958C361.458 100.095 360.072 98.3267 359.416 96.2266C358.76 98.4346 357.374 100.327 355.697 101.224L354.851 100.178C357.009 99.1152 358.735 96.2764 358.735 93.5537V90.8643H360.063V93.5537ZM367.103 89.5859V104.378H365.808V95.6953H362.305V94.6328H365.808V89.5859H367.103Z" fill="#1D1D1D"/>
<path d="M282.061 54.6318V61.9199H274.673V54.6318H282.061ZM276.765 56.3086V60.2432H279.953V56.3086H276.765ZM286.56 53.4365V64.1777H284.435V53.4365H286.56ZM286.958 66.4854V68.1953H276.433V63.1816H278.575V66.4854H286.958ZM301.402 53.4365V64.8418H299.277V63.6465H296.388V62.2021H299.277V53.4365H301.402ZM301.734 66.5684V68.2617H290.478V63.7461H292.586V61.7373C291.233 61.7954 289.947 61.8037 288.801 61.8037L288.552 60.127C291.325 60.1104 295.06 60.0771 298.248 59.6787L298.364 61.1895C297.168 61.3887 295.932 61.5298 294.711 61.6211V64.4932H292.586V66.5684H301.734ZM293.466 53.9512C295.658 53.9346 297.235 55.0469 297.235 56.6572C297.235 58.2676 295.658 59.3135 293.466 59.3135C291.225 59.3135 289.665 58.2676 289.665 56.6572C289.665 55.0469 291.208 53.9346 293.466 53.9512ZM293.466 55.4951C292.387 55.4951 291.657 55.9102 291.673 56.6572C291.657 57.3877 292.387 57.7861 293.466 57.7861C294.479 57.7861 295.209 57.3877 295.226 56.6572C295.209 55.9102 294.479 55.4951 293.466 55.4951ZM315.945 53.4365V64.2939H313.82V53.4365H315.945ZM316.343 66.5684V68.2617H305.818V63.1982H307.959V66.5684H316.343ZM307.661 54.3994C309.985 54.3994 311.794 55.9932 311.794 58.2012C311.794 60.459 309.985 62.0361 307.661 62.0361C305.336 62.0361 303.527 60.459 303.527 58.2012C303.527 55.9932 305.336 54.3994 307.661 54.3994ZM307.661 56.2422C306.482 56.2256 305.585 56.9727 305.602 58.2012C305.585 59.4629 306.482 60.1934 307.661 60.1934C308.806 60.1934 309.703 59.4629 309.703 58.2012C309.703 56.9727 308.806 56.2256 307.661 56.2422Z" fill="#173E99"/>
<rect x="498" y="31" width="198" height="101" rx="18" fill="#EDF1F5"/>
<path d="M579.442 93.7861C579.442 96.127 580.587 98.667 582.546 99.8291L581.799 100.842C580.38 99.9785 579.359 98.4014 578.844 96.6084C578.296 98.5674 577.201 100.252 575.723 101.157L574.893 100.178C576.935 98.9824 578.18 96.3594 578.18 93.8359V90.9805H579.442V93.7861ZM587.709 89.5859V104.345H586.448V89.5859H587.709ZM584.655 89.9014V103.598H583.426V95.9941H580.919V94.8818H583.426V89.9014H584.655ZM603.249 98.1689V99.248H597.089V104.345H595.811V99.248H589.735V98.1689H603.249ZM601.489 90.416V96.1602H591.478V90.416H601.489ZM592.756 91.4785V95.1309H600.194V91.4785H592.756ZM609.64 93.5537C609.64 96.2266 611.35 98.916 613.492 99.8955L612.711 100.958C611.035 100.095 609.648 98.3267 608.993 96.2266C608.337 98.4346 606.951 100.327 605.274 101.224L604.427 100.178C606.585 99.1152 608.312 96.2764 608.312 93.5537V90.8643H609.64V93.5537ZM616.679 89.5859V104.378H615.384V95.6953H611.881V94.6328H615.384V89.5859H616.679Z" fill="#1D1D1D"/>
<path d="M575.316 53.4365V64.46H573.191V53.4365H575.316ZM575.715 66.5684V68.2617H565.189V63.3975H567.331V66.5684H575.715ZM568.46 55.7275C568.443 57.7197 569.506 59.6787 571.996 60.4756L570.917 62.1357C569.215 61.5713 568.037 60.4424 567.364 58.998C566.692 60.5503 565.48 61.7954 563.712 62.4014L562.616 60.7246C565.156 59.8779 566.252 57.7695 566.252 55.7275V54.2666H568.46V55.7275ZM585.975 54.9971V56.6572H582.92C582.937 58.2095 584.082 59.7866 586.506 60.4092L585.526 62.0361C583.808 61.6045 582.596 60.6499 581.907 59.4131C581.251 60.8242 580.04 61.9282 578.255 62.4346L577.259 60.791C579.683 60.1021 580.795 58.3755 580.812 56.6572H577.773V54.9971H580.812V53.3535H582.953V54.9971H585.975ZM590.092 53.4199V62.5508H587.983V59.1641H585.526V57.4707H587.983V53.4199H590.092ZM584.929 62.7998C588.149 62.8164 590.125 63.8291 590.142 65.6387C590.125 67.4648 588.149 68.5273 584.929 68.5273C581.725 68.5273 579.732 67.4648 579.732 65.6387C579.732 63.8291 581.725 62.8164 584.929 62.7998ZM584.929 64.4268C582.92 64.4268 581.841 64.8252 581.841 65.6387C581.841 66.4688 582.92 66.917 584.929 66.917C586.971 66.917 588.033 66.4688 588.033 65.6387C588.033 64.8252 586.971 64.4268 584.929 64.4268ZM595.255 65.7715L593.827 70.5029H592.067L592.897 65.7715H595.255ZM609.831 54.1504C609.831 55.7441 611.591 57.5039 614.928 57.8857L614.164 59.5459C611.591 59.2056 609.715 58.1016 608.752 56.6074C607.772 58.1016 605.888 59.1973 603.323 59.5459L602.526 57.8857C605.88 57.5039 607.64 55.7441 607.656 54.1504V53.6523H609.831V54.1504ZM615.625 60.376V62.0361H601.846V60.376H615.625ZM608.719 63.0654C611.989 63.0654 613.965 64.0283 613.981 65.8047C613.965 67.5479 611.989 68.5439 608.719 68.5439C605.398 68.5439 603.423 67.5479 603.423 65.8047C603.423 64.0283 605.398 63.0654 608.719 63.0654ZM608.719 64.6592C606.627 64.6592 605.564 65.0244 605.581 65.8047C605.564 66.585 606.627 66.9336 608.719 66.9336C610.761 66.9336 611.84 66.585 611.856 65.8047C611.84 65.0244 610.761 64.6592 608.719 64.6592ZM629.188 53.4365V64.2939H627.063V53.4365H629.188ZM629.587 66.5684V68.2617H619.062V63.1982H621.203V66.5684H629.587ZM620.904 54.3994C623.229 54.3994 625.038 55.9932 625.038 58.2012C625.038 60.459 623.229 62.0361 620.904 62.0361C618.58 62.0361 616.771 60.459 616.771 58.2012C616.771 55.9932 618.58 54.3994 620.904 54.3994ZM620.904 56.2422C619.726 56.2256 618.829 56.9727 618.846 58.2012C618.829 59.4629 619.726 60.1934 620.904 60.1934C622.05 60.1934 622.946 59.4629 622.946 58.2012C622.946 56.9727 622.05 56.2256 620.904 56.2422Z" fill="#173E99"/>
<rect x="806" y="30" width="198" height="101" rx="18" fill="#EDF1F5"/>
<path d="M843.058 77.5859V83.5957H845.448V84.6914H843.058V92.3447H841.763V77.5859H843.058ZM839.239 79.1797C839.239 83.3633 837.28 87.165 832.466 89.5391L831.735 88.5098C835.554 86.6089 837.629 83.77 837.928 80.2754H832.416V79.1797H839.239ZM851.292 80.375C851.275 82.4004 852.819 84.2764 854.994 85.04L854.33 86.0859C852.653 85.48 851.35 84.2266 850.694 82.6494C850.072 84.4175 848.735 85.7788 846.992 86.4512L846.278 85.4053C848.52 84.6084 849.997 82.6162 850.014 80.3252V78.499H851.292V80.375ZM857.866 77.5859V82.1182H860.091V83.2305H857.866V88.4932H856.571V77.5859H857.866ZM858.547 90.9336V92.0293H848.652V87.4473H849.98V90.9336H858.547ZM865.403 81.7861C865.403 84.127 866.549 86.667 868.508 87.8291L867.761 88.8418C866.341 87.9785 865.32 86.4014 864.806 84.6084C864.258 86.5674 863.162 88.2524 861.685 89.1572L860.854 88.1777C862.896 86.9824 864.142 84.3594 864.142 81.8359V78.9805H865.403V81.7861ZM873.671 77.5859V92.3447H872.409V77.5859H873.671ZM870.616 77.9014V91.5977H869.388V83.9941H866.881V82.8818H869.388V77.9014H870.616ZM892.148 77.5859V81.2051H894.373V82.2842H892.148V85.9697H890.854V77.5859H892.148ZM888.114 78.5488C888.098 82.2676 885.491 84.9238 881.125 86.1191L880.594 85.0732C884.229 84.0938 886.446 82.1265 886.72 79.6279H881.258V78.5488H888.114ZM892.148 86.6504V92.1455H882.802V86.6504H892.148ZM884.097 87.7295V91.083H890.854V87.7295H884.097ZM902.773 78.8809V80.1924H906.227V77.6025H907.538V88.377H906.227V84.4424H902.773V85.7705H896V78.8809H902.773ZM897.295 79.96V84.7246H901.495V79.96H897.295ZM907.87 90.9336V92.0293H897.992V87.4141H899.304V90.9336H907.87ZM902.773 83.3633H906.227V81.2881H902.773V83.3633ZM928.356 84.6084V85.7041H914.893V84.6084H928.356ZM926.779 82.1348V83.1973H916.603V78.1836H926.68V79.2793H917.881V82.1348H926.779ZM921.616 86.999C924.787 86.999 926.68 87.9619 926.696 89.6553C926.68 91.3652 924.787 92.3115 921.616 92.3115C918.429 92.3115 916.52 91.3652 916.52 89.6553C916.52 87.9619 918.429 86.999 921.616 86.999ZM921.616 88.0117C919.242 88.0283 917.831 88.626 917.848 89.6553C917.831 90.7012 919.242 91.2822 921.616 91.2822C923.957 91.2822 925.385 90.7012 925.385 89.6553C925.385 88.626 923.957 88.0283 921.616 88.0117ZM934.416 78.665C936.74 78.665 938.384 80.0762 938.384 82.1348C938.384 84.1934 936.74 85.6045 934.416 85.6045C932.092 85.6045 930.415 84.1934 930.432 82.1348C930.415 80.0762 932.092 78.665 934.416 78.665ZM934.416 79.8105C932.839 79.8105 931.693 80.7568 931.71 82.1348C931.693 83.5127 932.839 84.459 934.416 84.459C935.977 84.459 937.105 83.5127 937.105 82.1348C937.105 80.7568 935.977 79.8105 934.416 79.8105ZM941.688 77.5859V92.3779H940.393V77.5859H941.688ZM929.668 88.0117C932.391 88.0117 936.143 87.9951 939.413 87.5137L939.513 88.4766C936.143 89.1074 932.507 89.124 929.851 89.124L929.668 88.0117ZM956.579 78.5156C956.579 80.3916 959.269 82.085 961.825 82.417L961.344 83.4463C959.086 83.106 956.853 81.9106 955.915 80.2256C954.977 81.9272 952.736 83.106 950.47 83.4463L949.955 82.417C952.562 82.085 955.234 80.4414 955.234 78.5156V77.835H956.579V78.5156ZM962.622 84.6416V85.7041H949.175V84.6416H962.622ZM955.898 87.0986C959.069 87.0986 960.962 88.0117 960.979 89.7051C960.962 91.3818 959.069 92.3281 955.898 92.3447C952.694 92.3281 950.802 91.3818 950.802 89.7051C950.802 88.0117 952.694 87.0986 955.898 87.0986ZM955.898 88.0947C953.524 88.1113 952.113 88.6924 952.13 89.7051C952.113 90.7344 953.524 91.2988 955.898 91.2988C958.239 91.2988 959.667 90.7344 959.667 89.7051C959.667 88.6924 958.239 88.1113 955.898 88.0947ZM976.053 77.6025V88.3936H974.758V77.6025H976.053ZM976.518 90.9336V92.0293H966.523V87.2979H967.818V90.9336H976.518ZM968.084 78.6318C970.292 78.6318 971.952 80.126 971.952 82.251C971.952 84.4092 970.292 85.8867 968.084 85.8867C965.876 85.8867 964.216 84.4092 964.216 82.251C964.216 80.126 965.876 78.6318 968.084 78.6318ZM968.084 79.7773C966.59 79.7773 965.478 80.8066 965.494 82.251C965.478 83.7285 966.59 84.7412 968.084 84.7412C969.545 84.7412 970.674 83.7285 970.674 82.251C970.674 80.8066 969.545 79.7773 968.084 79.7773ZM872.334 97.7314C873.688 97.7397 874.783 98.5283 875.422 99.8896H879.307V96.5859H880.602V111.378H879.307V105.65H875.522C874.899 107.145 873.762 108.008 872.334 108.008C870.16 108.008 868.632 106.016 868.632 102.878C868.632 99.7402 870.16 97.748 872.334 97.7314ZM872.334 98.8936C870.874 98.9102 869.877 100.471 869.877 102.878C869.877 105.285 870.874 106.846 872.334 106.846C873.779 106.846 874.792 105.285 874.792 102.878C874.792 100.471 873.779 98.9102 872.334 98.8936ZM875.804 100.985C875.937 101.558 876.02 102.189 876.02 102.878C876.02 103.484 875.954 104.057 875.854 104.571H879.307V100.985H875.804ZM896.556 105.352V106.414H890.397V111.345H889.119V106.414H883.042V105.352H896.556ZM886.064 97.2002V99.2422H893.501V97.2002H894.813V103.559H884.769V97.2002H886.064ZM886.064 102.496H893.501V100.305H886.064V102.496ZM911.199 104.422V105.484H897.735V104.422H903.811V102.961H899.528V97.0176H909.522V98.0801H900.839V99.458H909.124V100.454H900.839V101.915H909.605V102.961H905.106V104.422H911.199ZM904.475 106.597C907.712 106.58 909.539 107.41 909.555 108.954C909.539 110.498 907.712 111.312 904.475 111.312C901.205 111.312 899.378 110.498 899.378 108.954C899.378 107.41 901.205 106.58 904.475 106.597ZM904.475 107.576C902.035 107.576 900.673 108.074 900.69 108.954C900.673 109.851 902.035 110.315 904.475 110.299C906.882 110.315 908.244 109.851 908.244 108.954C908.244 108.074 906.882 107.576 904.475 107.576ZM917.723 101.118C917.723 103.625 919.549 106.165 921.724 107.111L920.994 108.141C919.267 107.352 917.773 105.65 917.092 103.608C916.395 105.775 914.909 107.659 913.224 108.506L912.444 107.477C914.552 106.464 916.395 103.675 916.412 101.118V99.1924H912.925V98.1133H921.243V99.1924H917.723V101.118ZM924.613 96.5859V111.345H923.301V96.5859H924.613ZM932.333 100.554C932.333 103.227 934.042 105.916 936.184 106.896L935.404 107.958C933.727 107.095 932.341 105.327 931.685 103.227C931.029 105.435 929.643 107.327 927.966 108.224L927.12 107.178C929.278 106.115 931.004 103.276 931.004 100.554V97.8643H932.333V100.554ZM939.372 96.5859V111.378H938.077V102.695H934.574V101.633H938.077V96.5859H939.372Z" fill="#1D1D1D"/>
<path d="M903.535 60.2061V61.8662H889.723V60.2061H895.566V59.2764H891.449V52.7852H901.925V54.4121H893.574V55.2588H901.576V56.7861H893.574V57.6494H902.058V59.2764H897.691V60.2061H903.535ZM896.629 62.5635C899.966 62.5469 901.875 63.4434 901.892 65.0371C901.875 66.6641 899.966 67.5273 896.629 67.5273C893.242 67.5273 891.333 66.6641 891.333 65.0371C891.333 63.4434 893.242 62.5469 896.629 62.5635ZM896.629 64.124C894.454 64.124 893.441 64.4062 893.458 65.0371C893.441 65.6846 894.454 65.9668 896.629 65.9668C898.754 65.9668 899.75 65.6846 899.767 65.0371C899.75 64.4062 898.754 64.124 896.629 64.124ZM910.309 56.5371C910.309 58.9775 911.554 61.584 914.094 62.6465L912.948 64.3066C911.164 63.5513 909.935 62.0488 909.263 60.2061C908.574 62.2065 907.32 63.8667 905.544 64.6885L904.332 63.0117C906.839 61.8994 908.134 59.0938 908.134 56.5371V55.6074H904.93V53.8809H913.463V55.6074H910.309V56.5371ZM917.099 52.4199V67.5273H914.957V52.4199H917.099Z" fill="#173E99"/>
<path d="M387 81C387 85.4183 390.582 89 395 89C399.418 89 403 85.4183 403 81C403 76.5817 399.418 73 395 73C390.582 73 387 76.5817 387 81ZM505 81L490 72.3397V89.6603L505 81ZM395 82.5H491.5V79.5H395V82.5Z" fill="#5286FF"/>
<path d="M688 82C688 86.4183 691.582 90 696 90C700.418 90 704 86.4183 704 82C704 77.5817 700.418 74 696 74C691.582 74 688 77.5817 688 82ZM806 82L791 73.3397V90.6603L806 82ZM696 83.5H792.5V80.5H696V83.5Z" fill="#5286FF"/>
</svg>
